<svg version="1.1" xmlns="http://www.w3.org/2000/svg" width="400" height="400"><defs><clipPath id="TcQVXLCuMRlc"><path fill="none" stroke="none" d="M 45.5 28.5 L 390.5 28.5 L 390.5 354.5 L 45.5 354.5 L 45.5 28.5 Z"/></clipPath><clipPath id="SoEMWKSXRxKU"><path fill="none" stroke="none" d="M 45.5 28.5 L 390.5 28.5 L 390.5 354.5 L 45.5 354.5 L 45.5 28.5 Z"/></clipPath><clipPath id="ixekgKVJFyxL"><path fill="none" stroke="none" d="M 45.5 28.5 L 390.5 28.5 L 390.5 354.5 L 45.5 354.5 L 45.5 28.5 Z"/></clipPath><clipPath id="NaTITOduNvKV"><path fill="none" stroke="none" d="M 45.5 28.5 L 390.5 28.5 L 390.5 354.5 L 45.5 354.5 L 45.5 28.5 Z"/></clipPath><clipPath id="zqGTWPapCsOL"><path fill="none" stroke="none" d="M 45.5 28.5 L 390.5 28.5 L 390.5 354.5 L 45.5 354.5 L 45.5 28.5 Z"/></clipPath><clipPath id="tGZCFSvUFWvX"><path fill="none" stroke="none" d="M 45.5 28.5 L 390.5 28.5 L 390.5 354.5 L 45.5 354.5 L 45.5 28.5 Z"/></clipPath><clipPath id="PWsBDLxuMGJO"><path fill="none" stroke="none" d="M 45.5 28.5 L 390.5 28.5 L 390.5 354.5 L 45.5 354.5 L 45.5 28.5 Z"/></clipPath><clipPath id="TfVMtdXOwfKp"><path fill="none" stroke="none" d="M 45.5 28.5 L 390.5 28.5 L 390.5 354.5 L 45.5 354.5 L 45.5 28.5 Z"/></clipPath><clipPath id="CTpuittRSfuk"><path fill="none" stroke="none" d="M 45.5 28.5 L 390.5 28.5 L 390.5 354.5 L 45.5 354.5 L 45.5 28.5 Z"/></clipPath><clipPath id="eaOEVySxUSTu"><path fill="none" stroke="none" d="M 45.5 28.5 L 390.5 28.5 L 390.5 354.5 L 45.5 354.5 L 45.5 28.5 Z"/></clipPath></defs><path fill="rgb(255,255,255)" stroke="none" paint-order="stroke" d="M 0.5 0.5 L 400.5 0.5 L 400.5 400.5 L 0.5 400.5 L 0.5 0.5 Z" fill-opacity="1"/><rect fill="#FFFFFF" stroke="none" x="45" y="28" width="345" height="326" transform="matrix(1, 0, 0, 1, 0.5, 0.5)"/><path fill="rgb(255,255,255)" stroke="none" paint-order="stroke" d="M 45.5 28.5 L 390.5 28.5 L 390.5 354.5 L 45.5 354.5 L 45.5 28.5 Z" fill-opacity="1"/><path fill="none" stroke="rgb(229,229,229)" paint-order="fill" d="M 45.5 28.5 L 390.5 28.5 L 390.5 354.5 L 45.5 354.5 L 45.5 28.5 Z" stroke-opacity="1" stroke-linejoin="bevel" stroke-miterlimit="10"/><path fill="rgb(75,172,198)" stroke="rgb(0,0,0)" paint-order="fill" d="M 45.5 354.5 L 48.9385871887207 354.5 L 52.37717819213867 354.5 L 55.815765380859375 354.5 L 59.25435256958008 354.5 L 62.69294357299805 354.5 L 66.13153076171875 354.5 L 69.57012176513672 354.5 L 73.00870513916016 354.5 L 76.44729614257812 354.5 L 79.8858871459961 354.5 L 83.32447052001953 354.5 L 86.7630615234375 354.5 L 90.20165252685547 354.5 L 93.6402359008789 354.5 L 97.07882690429688 354.5 L 100.51741790771484 354.5 L 103.95600128173828 354.5 L 107.39459228515625 354.5 L 110.83318328857422 354.5 L 114.27176666259766 354.5 L 117.71035766601562 354.5 L 121.14894104003906 354.5 L 124.58753204345703 354.5 L 128.026123046875 354.5 L 131.46470642089844 354.5 L 134.90330505371094 354.5 L 138.34188842773438 354.5 L 141.7804718017578 354.5 L 145.2190704345703 354.5 L 148.65765380859375 354.5 L 152.0962371826172 354.5 L 155.5348358154297 354.5 L 158.97341918945312 354.5 L 162.41200256347656 354.5 L 165.85060119628906 354.5 L 169.2891845703125 354.5 L 172.72776794433594 354.5 L 176.16636657714844 354.5 L 179.60494995117188 354.5 L 183.0435333251953 354.5 L 186.48211669921875 354.5 L 189.92071533203125 354.5 L 193.3592987060547 354.5 L 196.79788208007812 354.5 L 200.23648071289062 354.5 L 203.67506408691406 354.5 L 207.1136474609375 354.5 L 210.55224609375 354.5 L 213.99082946777344 354.5 L 217.42941284179688 354.5 L 220.86801147460938 354.5 L 224.3065948486328 354.5 L 227.74517822265625 354.5 L 231.18377685546875 354.5 L 234.6223602294922 354.5 L 238.06094360351562 354.5 L 241.49954223632812 354.5 L 244.93812561035156 354.5 L 248.376708984375 354.5 L 251.8153076171875 354.5 L 255.25389099121094 354.5 L 258.6924743652344 354.5 L 262.1310729980469 354.5 L 265.5696716308594 354.5 L 269.00823974609375 354.5 L 272.44683837890625 354.5 L 275.88543701171875 354.5 L 279.3240051269531 354.5 L 282.7626037597656 354.5 L 286.2012023925781 354.5 L 289.6397705078125 354.5 L 293.078369140625 354.5 L 296.5169677734375 354.5 L 299.9555358886719 354.5 L 303.3941345214844 354.5 L 306.8327331542969 354.5 L 310.27130126953125 354.5 L 313.70989990234375 354.5 L 317.1484680175781 354.5 L 320.5870666503906 354.5 L 324.0256652832031 354.5 L 327.4642333984375 354.5 L 330.90283203125 354.5 L 334.3414306640625 354.5 L 337.7799987792969 354.5 L 341.2185974121094 354.5 L 344.6571960449219 354.5 L 348.09576416015625 354.5 L 351.53436279296875 354.5 L 354.97296142578125 354.5 L 358.4115295410156 354.5 L 361.8501281738281 354.5 L 365.2887268066406 354.5 L 368.727294921875 354.5 L 372.1658935546875 354.5 L 375.6044921875 354.5 L 379.0430603027344 354.5 L 382.4816589355469 354.5 L 385.9202575683594 354.5 L 385.9202575683594 354.4999694824219 L 382.4816589355469 354.4992980957031 L 379.0430603027344 354.49432373046875 L 375.6044921875 354.46868896484375 L 372.1658935546875 354.39202880859375 L 368.727294921875 354.2955627441406 L 365.2887268066406 354.2392883300781 L 361.8501281738281 354.2148742675781 L 358.4115295410156 354.1443176269531 L 354.97296142578125 353.8925476074219 L 351.53436279296875 353.54913330078125 L 348.09576416015625 353.2326965332031 L 344.6571960449219 353.01190185546875 L 341.2185974121094 352.9134216308594 L 337.7799987792969 352.9298400878906 L 334.3414306640625 353.00262451171875 L 330.90283203125 352.9645690917969 L 327.4642333984375 352.82952880859375 L 324.0256652832031 352.77142333984375 L 320.5870666503906 352.7945556640625 L 317.1484680175781 352.81146240234375 L 313.70989990234375 352.85791015625 L 310.27130126953125 352.8903503417969 L 306.8327331542969 352.835693359375 L 303.3941345214844 352.7481384277344 L 299.9555358886719 352.657958984375 L 296.5169677734375 352.5107116699219 L 293.078369140625 352.2978820800781 L 289.6397705078125 352.1958923339844 L 286.2012023925781 352.217529296875 L 282.7626037597656 352.2890930175781 L 279.3240051269531 352.4139709472656 L 275.88543701171875 352.5378112792969 L 272.44683837890625 352.6854248046875 L 269.00823974609375 352.8222351074219 L 265.5696716308594 352.8862609863281 L 262.1310729980469 352.9354553222656 L 258.6924743652344 353.0545654296875 L 255.25389099121094 353.1143493652344 L 251.8153076171875 353.0526123046875 L 248.376708984375 352.97857666015625 L 244.93812561035156 352.91619873046875 L 241.49954223632812 352.8181457519531 L 238.06094360351562 352.7303466796875 L 234.6223602294922 352.72247314453125 L 231.18377685546875 352.75048828125 L 227.74517822265625 352.781982421875 L 224.3065948486328 352.7506103515625 L 220.86801147460938 352.6943359375 L 217.42941284179688 352.7138366699219 L 213.99082946777344 352.7327880859375 L 210.55224609375 352.75579833984375 L 207.1136474609375 352.82427978515625 L 203.67506408691406 352.903076171875 L 200.23648071289062 352.89654541015625 L 196.79788208007812 352.8111267089844 L 193.3592987060547 352.7865295410156 L 189.92071533203125 352.7616271972656 L 186.48211669921875 352.6795959472656 L 183.0435333251953 352.60894775390625 L 179.60494995117188 352.53948974609375 L 176.16636657714844 352.4667663574219 L 172.72776794433594 352.4106140136719 L 169.2891845703125 352.4212951660156 L 165.85060119628906 352.3599853515625 L 162.41200256347656 352.28106689453125 L 158.97341918945312 352.1611633300781 L 155.5348358154297 351.8411865234375 L 152.0962371826172 351.3551940917969 L 148.65765380859375 350.78192138671875 L 145.2190704345703 350.03424072265625 L 141.7804718017578 348.89495849609375 L 138.34188842773438 346.5356140136719 L 134.90330505371094 341.4850158691406 L 131.46470642089844 331.2980041503906 L 128.026123046875 311.02838134765625 L 124.58753204345703 274.1050109863281 L 121.14894104003906 217.02188110351562 L 117.71035766601562 149.45370483398438 L 114.27176666259766 96.1549301147461 L 110.83318328857422 86.12759399414062 L 107.39459228515625 125.2075424194336 L 103.95600128173828 187.97557067871094 L 100.51741790771484 246.9832305908203 L 97.07882690429688 290.6873779296875 L 93.6402359008789 318.5733642578125 L 90.20165252685547 334.80615234375 L 86.7630615234375 343.7519836425781 L 83.32447052001953 348.5799255371094 L 79.8858871459961 351.286376953125 L 76.44729614257812 352.83673095703125 L 73.00870513916016 353.6837463378906 L 69.57012176513672 354.10797119140625 L 66.13153076171875 354.3195495605469 L 62.69294357299805 354.41046142578125 L 59.25435256958008 354.4623718261719 L 55.815765380859375 354.4895935058594 L 52.37717819213867 354.49700927734375 L 48.9385871887207 354.49945068359375 L 45.5 354.4999694824219 Z" fill-opacity="0.5019607843137255" clip-path="url(#ixekgKVJFyxL)" stroke-opacity="0" stroke-linejoin="bevel" stroke-miterlimit="10"/><path fill="none" stroke="rgb(75,172,198)" paint-order="fill" d="M 119.86907196044922 354.5 L 119.86907196044922 329.7424621582031" stroke-opacity="1" stroke-linejoin="bevel" stroke-miterlimit="10" stroke-width="1.6" stroke-dasharray="2,4" clip-path="url(#NaTITOduNvKV)"/><path fill="none" stroke="rgb(75,172,198)" paint-order="fill" d="M 112.36251068115234 354.5 L 112.36251068115234 329.7424621582031" stroke-opacity="1" stroke-linejoin="bevel" stroke-miterlimit="10" stroke-width="1.6" clip-path="url(#zqGTWPapCsOL)"/><path fill="rgb(247,150,70)" stroke="rgb(0,0,0)" paint-order="fill" d="M 78.53785705566406 354.5 L 81.6889877319336 354.5 L 84.84011840820312 354.5 L 87.99124908447266 354.5 L 91.14238739013672 354.5 L 94.29351806640625 354.5 L 97.44464874267578 354.5 L 100.59578704833984 354.5 L 103.74691772460938 354.5 L 106.8980484008789 354.5 L 110.04917907714844 354.5 L 113.2003173828125 354.5 L 116.35144805908203 354.5 L 119.50257873535156 354.5 L 122.6537094116211 354.5 L 125.80484771728516 354.5 L 128.9559783935547 354.5 L 132.10711669921875 354.5 L 135.25823974609375 354.5 L 138.4093780517578 354.5 L 141.56051635742188 354.5 L 144.71163940429688 354.5 L 147.86277770996094 354.5 L 151.01390075683594 354.5 L 154.1650390625 354.5 L 157.31617736816406 354.5 L 160.46730041503906 354.5 L 163.61843872070312 354.5 L 166.7695770263672 354.5 L 169.9207000732422 354.5 L 173.07183837890625 354.5 L 176.2229766845703 354.5 L 179.3740997314453 354.5 L 182.52523803710938 354.5 L 185.67636108398438 354.5 L 188.82749938964844 354.5 L 191.9786376953125 354.5 L 195.1297607421875 354.5 L 198.28089904785156 354.5 L 201.43203735351562 354.5 L 204.58316040039062 354.5 L 207.7342987060547 354.5 L 210.88543701171875 354.5 L 214.03656005859375 354.5 L 217.1876983642578 354.5 L 220.33883666992188 354.5 L 223.48995971679688 354.5 L 226.64109802246094 354.5 L 229.79222106933594 354.5 L 232.943359375 354.5 L 236.09449768066406 354.5 L 239.24562072753906 354.5 L 242.39675903320312 354.5 L 245.5478973388672 354.5 L 248.6990203857422 354.5 L 251.85015869140625 354.5 L 255.0012969970703 354.5 L 258.1524353027344 354.5 L 261.3035583496094 354.5 L 264.4546813964844 354.5 L 267.6058349609375 354.5 L 270.7569580078125 354.5 L 273.9080810546875 354.5 L 277.0592346191406 354.5 L 280.2103576660156 354.5 L 283.3614807128906 354.5 L 286.5126037597656 354.5 L 289.66375732421875 354.5 L 292.81488037109375 354.5 L 295.96600341796875 354.5 L 299.1171569824219 354.5 L 302.2682800292969 354.5 L 305.4194030761719 354.5 L 308.570556640625 354.5 L 311.7216796875 354.5 L 314.872802734375 354.5 L 318.0239562988281 354.5 L 321.1750793457031 354.5 L 324.3262023925781 354.5 L 327.47735595703125 354.5 L 330.62847900390625 354.5 L 333.77960205078125 354.5 L 336.9307556152344 354.5 L 340.0818786621094 354.5 L 343.2330017089844 354.5 L 346.3841552734375 354.5 L 349.5352783203125 354.5 L 352.6864013671875 354.5 L 355.8375244140625 354.5 L 358.9886779785156 354.5 L 362.1398010253906 354.5 L 365.2909240722656 354.5 L 368.44207763671875 354.5 L 371.59320068359375 354.5 L 374.74432373046875 354.5 L 377.8954772949219 354.5 L 381.0466003417969 354.5 L 384.1977233886719 354.5 L 387.348876953125 354.5 L 390.5 354.5 L 390.5 354.4986572265625 L 387.348876953125 354.4946594238281 L 384.1977233886719 354.4825439453125 L 381.0466003417969 354.4529113769531 L 377.8954772949219 354.39453125 L 374.74432373046875 354.302490234375 L 371.59320068359375 354.1880798339844 L 368.44207763671875 354.0773620605469 L 365.2909240722656 353.99114990234375 L 362.1398010253906 353.91937255859375 L 358.9886779785156 353.8183898925781 L 355.8375244140625 353.6438903808594 L 352.6864013671875 353.39263916015625 L 349.5352783203125 353.1103515625 L 346.3841552734375 352.85595703125 L 343.2330017089844 352.65869140625 L 340.0818786621094 352.5087585449219 L 336.9307556152344 352.3797912597656 L 333.77960205078125 352.2517395019531 L 330.62847900390625 352.1188659667969 L 327.47735595703125 351.9931945800781 L 324.3262023925781 351.9042053222656 L 321.1750793457031 351.87982177734375 L 318.0239562988281 351.9167785644531 L 314.872802734375 351.9769592285156 L 311.7216796875 352.0216979980469 L 308.570556640625 352.0419006347656 L 305.4194030761719 352.0441589355469 L 302.2682800292969 352.0152893066406 L 299.1171569824219 351.9176330566406 L 295.96600341796875 351.72454833984375 L 292.81488037109375 351.4571228027344 L 289.66375732421875 351.1849365234375 L 286.5126037597656 350.99273681640625 L 283.3614807128906 350.9396667480469 L 280.2103576660156 351.033447265625 L 277.0592346191406 351.2322692871094 L 273.9080810546875 351.4744873046875 L 270.7569580078125 351.7129821777344 L 267.6058349609375 351.9239807128906 L 264.4546813964844 352.09674072265625 L 261.3035583496094 352.23028564453125 L 258.1524353027344 352.3363037109375 L 255.0012969970703 352.42730712890625 L 251.85015869140625 352.4985656738281 L 248.6990203857422 352.53009033203125 L 245.5478973388672 352.50714111328125 L 242.39675903320312 352.43798828125 L 239.24562072753906 352.354736328125 L 236.09449768066406 352.2963562011719 L 232.943359375 352.281982421875 L 229.79222106933594 352.2977294921875 L 226.64109802246094 352.3147888183594 L 223.48995971679688 352.32171630859375 L 220.33883666992188 352.3321838378906 L 217.1876983642578 352.3636474609375 L 214.03656005859375 352.4178771972656 L 210.88543701171875 352.48223876953125 L 207.7342987060547 352.5396423339844 L 204.58316040039062 352.57366943359375 L 201.43203735351562 352.5719299316406 L 198.28089904785156 352.53082275390625 L 195.1297607421875 352.4561767578125 L 191.9786376953125 352.3562316894531 L 188.82749938964844 352.2343444824219 L 185.67636108398438 352.0853576660156 L 182.52523803710938 351.8938903808594 L 179.3740997314453 351.6414794921875 L 176.2229766845703 351.33251953125 L 173.07183837890625 351.0205383300781 L 169.9207000732422 350.7887878417969 L 166.7695770263672 350.6810607910156 L 163.61843872070312 350.6460266113281 L 160.46730041503906 350.5600280761719 L 157.31617736816406 350.31365966796875 L 154.1650390625 349.8863830566406 L 151.01390075683594 349.3531799316406 L 147.86277770996094 348.8280029296875 L 144.71163940429688 348.3883361816406 L 141.56051635742188 348.0125427246094 L 138.4093780517578 347.49365234375 L 135.25823974609375 346.1806640625 L 132.10711669921875 342.3105163574219 L 128.9559783935547 331.88995361328125 L 125.80484771728516 308.04156494140625 L 122.6537094116211 263.23779296875 L 119.50257873535156 196.40711975097656 L 116.35144805908203 121.38374328613281 L 113.2003173828125 66.37605285644531 L 110.04917907714844 58.1363639831543 L 106.8980484008789 101.67674255371094 L 103.74691772460938 175.8847198486328 L 100.59578704833984 250.01547241210938 L 97.44464874267578 303.8477783203125 L 94.29351806640625 334.1111145019531 L 91.14238739013672 347.66455078125 L 87.99124908447266 352.5831298828125 L 84.84011840820312 354.0478515625 L 81.6889877319336 354.4096984863281 L 78.53785705566406 354.484619140625 Z" fill-opacity="0.5019607843137255" clip-path="url(#tGZCFSvUFWvX)" stroke-opacity="0" stroke-linejoin="bevel" stroke-miterlimit="10"/><path fill="none" stroke="rgb(247,150,70)" paint-order="fill" d="M 123.7166976928711 354.5 L 123.7166976928711 329.7424621582031" stroke-opacity="1" stroke-linejoin="bevel" stroke-miterlimit="10" stroke-width="1.6" stroke-dasharray="2,4" clip-path="url(#PWsBDLxuMGJO)"/><path fill="none" stroke="rgb(247,150,70)" paint-order="fill" d="M 111.37785339355469 354.5 L 111.37785339355469 329.7424621582031" stroke-opacity="1" stroke-linejoin="bevel" stroke-miterlimit="10" stroke-width="1.6" clip-path="url(#TfVMtdXOwfKp)"/><path fill="none" stroke="rgb(0,0,0)" paint-order="fill" d="M 45.5 354.5 L 390.5 354.5" stroke-opacity="1" stroke-linejoin="bevel" stroke-miterlimit="10"/><path fill="none" stroke="rgb(0,0,0)" paint-order="fill" d="M 76.5 360.5 L 76.5 352.5 M 139.5 360.5 L 139.5 352.5 M 201.5 360.5 L 201.5 352.5 M 264.5 360.5 L 264.5 352.5 M 327.5 360.5 L 327.5 352.5 M 389.5 360.5 L 389.5 352.5" stroke-opacity="1" stroke-linejoin="bevel" stroke-miterlimit="10"/><path fill="none" stroke="rgb(0,0,0)" paint-order="fill" d="M 63.5 358.5 L 63.5 354.5 M 51.5 358.5 L 51.5 354.5 M 76.5 358.5 L 76.5 354.5 M 89.5 358.5 L 89.5 354.5 M 101.5 358.5 L 101.5 354.5 M 114.5 358.5 L 114.5 354.5 M 126.5 358.5 L 126.5 354.5 M 139.5 358.5 L 139.5 354.5 M 151.5 358.5 L 151.5 354.5 M 164.5 358.5 L 164.5 354.5 M 176.5 358.5 L 176.5 354.5 M 189.5 358.5 L 189.5 354.5 M 201.5 358.5 L 201.5 354.5 M 214.5 358.5 L 214.5 354.5 M 226.5 358.5 L 226.5 354.5 M 239.5 358.5 L 239.5 354.5 M 251.5 358.5 L 251.5 354.5 M 264.5 358.5 L 264.5 354.5 M 277.5 358.5 L 277.5 354.5 M 289.5 358.5 L 289.5 354.5 M 302.5 358.5 L 302.5 354.5 M 314.5 358.5 L 314.5 354.5 M 327.5 358.5 L 327.5 354.5 M 339.5 358.5 L 339.5 354.5 M 352.5 358.5 L 352.5 354.5 M 364.5 358.5 L 364.5 354.5 M 377.5 358.5 L 377.5 354.5 M 389.5 358.5 L 389.5 354.5" stroke-opacity="1" stroke-linejoin="bevel" stroke-miterlimit="10"/><text fill="rgb(0,0,0)" stroke="none" font-family="arial" font-size="11px" font-style="normal" font-weight="normal" text-decoration="normal" x="67.90185165405273" y="373" text-anchor="start" dominant-baseline="alphabetic" transform="matrix(1, 0, 0, 1, 0.5, 0.5)" fill-opacity="1">−1</text><text fill="none" stroke="rgb(0,0,0)" font-family="arial" font-size="11px" font-style="normal" font-weight="normal" text-decoration="normal" x="67.90185165405273" y="373" text-anchor="start" dominant-baseline="alphabetic" transform="matrix(1, 0, 0, 1, 0.5, 0.5)" stroke-opacity="0" stroke-linejoin="bevel" stroke-miterlimit="10">−1</text><text fill="rgb(0,0,0)" stroke="none" font-family="arial" font-size="11px" font-style="normal" font-weight="normal" text-decoration="normal" x="125.32661819458008" y="373" text-anchor="start" dominant-baseline="alphabetic" transform="matrix(1, 0, 0, 1, 0.5, 0.5)" fill-opacity="1">−0.5</text><text fill="none" stroke="rgb(0,0,0)" font-family="arial" font-size="11px" font-style="normal" font-weight="normal" text-decoration="normal" x="125.32661819458008" y="373" text-anchor="start" dominant-baseline="alphabetic" transform="matrix(1, 0, 0, 1, 0.5, 0.5)" stroke-opacity="0" stroke-linejoin="bevel" stroke-miterlimit="10">−0.5</text><text fill="rgb(0,0,0)" stroke="none" font-family="arial" font-size="11px" font-style="normal" font-weight="normal" text-decoration="normal" x="197.85971069335938" y="373" text-anchor="start" dominant-baseline="alphabetic" transform="matrix(1, 0, 0, 1, 0.5, 0.5)" fill-opacity="1">0</text><text fill="none" stroke="rgb(0,0,0)" font-family="arial" font-size="11px" font-style="normal" font-weight="normal" text-decoration="normal" x="197.85971069335938" y="373" text-anchor="start" dominant-baseline="alphabetic" transform="matrix(1, 0, 0, 1, 0.5, 0.5)" stroke-opacity="0" stroke-linejoin="bevel" stroke-miterlimit="10">0</text><text fill="rgb(0,0,0)" stroke="none" font-family="arial" font-size="11px" font-style="normal" font-weight="normal" text-decoration="normal" x="255.28445434570312" y="373" text-anchor="start" dominant-baseline="alphabetic" transform="matrix(1, 0, 0, 1, 0.5, 0.5)" fill-opacity="1">0.5</text><text fill="none" stroke="rgb(0,0,0)" font-family="arial" font-size="11px" font-style="normal" font-weight="normal" text-decoration="normal" x="255.28445434570312" y="373" text-anchor="start" dominant-baseline="alphabetic" transform="matrix(1, 0, 0, 1, 0.5, 0.5)" stroke-opacity="0" stroke-linejoin="bevel" stroke-miterlimit="10">0.5</text><text fill="rgb(0,0,0)" stroke="none" font-family="arial" font-size="11px" font-style="normal" font-weight="normal" text-decoration="normal" x="323.209228515625" y="373" text-anchor="start" dominant-baseline="alphabetic" transform="matrix(1, 0, 0, 1, 0.5, 0.5)" fill-opacity="1">1</text><text fill="none" stroke="rgb(0,0,0)" font-family="arial" font-size="11px" font-style="normal" font-weight="normal" text-decoration="normal" x="323.209228515625" y="373" text-anchor="start" dominant-baseline="alphabetic" transform="matrix(1, 0, 0, 1, 0.5, 0.5)" stroke-opacity="0" stroke-linejoin="bevel" stroke-miterlimit="10">1</text><text fill="rgb(0,0,0)" stroke="none" font-family="arial" font-size="11px" font-style="normal" font-weight="normal" text-decoration="normal" x="380.63397216796875" y="373" text-anchor="start" dominant-baseline="alphabetic" transform="matrix(1, 0, 0, 1, 0.5, 0.5)" fill-opacity="1">1.5</text><text fill="none" stroke="rgb(0,0,0)" font-family="arial" font-size="11px" font-style="normal" font-weight="normal" text-decoration="normal" x="380.63397216796875" y="373" text-anchor="start" dominant-baseline="alphabetic" transform="matrix(1, 0, 0, 1, 0.5, 0.5)" stroke-opacity="0" stroke-linejoin="bevel" stroke-miterlimit="10">1.5</text><text fill="rgb(0,0,0)" stroke="none" font-family="arial" font-size="13px" font-style="normal" font-weight="normal" text-decoration="normal" x="193.60833358764648" y="394" text-anchor="start" dominant-baseline="alphabetic" transform="matrix(1, 0, 0, 1, 0.5, 0.5)" fill-opacity="1">Fitness</text><text fill="none" stroke="rgb(0,0,0)" font-family="arial" font-size="13px" font-style="normal" font-weight="normal" text-decoration="normal" x="193.60833358764648" y="394" text-anchor="start" dominant-baseline="alphabetic" transform="matrix(1, 0, 0, 1, 0.5, 0.5)" stroke-opacity="0" stroke-linejoin="bevel" stroke-miterlimit="10">Fitness</text><path fill="none" stroke="rgb(0,0,0)" paint-order="fill" d="M 45.5 354.5 L 45.5 28.5" stroke-opacity="1" stroke-linejoin="bevel" stroke-miterlimit="10"/><path fill="none" stroke="rgb(0,0,0)" paint-order="fill" d="M 39.5 354.5 L 47.5 354.5 M 39.5 304.5 L 47.5 304.5 M 39.5 255.5 L 47.5 255.5 M 39.5 205.5 L 47.5 205.5 M 39.5 156.5 L 47.5 156.5 M 39.5 106.5 L 47.5 106.5 M 39.5 57.5 L 47.5 57.5" stroke-opacity="1" stroke-linejoin="bevel" stroke-miterlimit="10"/><path fill="none" stroke="rgb(0,0,0)" paint-order="fill" d="M 41.5 354.5 L 45.5 354.5 M 41.5 344.5 L 45.5 344.5 M 41.5 334.5 L 45.5 334.5 M 41.5 324.5 L 45.5 324.5 M 41.5 314.5 L 45.5 314.5 M 41.5 304.5 L 45.5 304.5 M 41.5 295.5 L 45.5 295.5 M 41.5 285.5 L 45.5 285.5 M 41.5 275.5 L 45.5 275.5 M 41.5 265.5 L 45.5 265.5 M 41.5 255.5 L 45.5 255.5 M 41.5 245.5 L 45.5 245.5 M 41.5 235.5 L 45.5 235.5 M 41.5 225.5 L 45.5 225.5 M 41.5 215.5 L 45.5 215.5 M 41.5 205.5 L 45.5 205.5 M 41.5 196.5 L 45.5 196.5 M 41.5 186.5 L 45.5 186.5 M 41.5 176.5 L 45.5 176.5 M 41.5 166.5 L 45.5 166.5 M 41.5 156.5 L 45.5 156.5 M 41.5 146.5 L 45.5 146.5 M 41.5 136.5 L 45.5 136.5 M 41.5 126.5 L 45.5 126.5 M 41.5 116.5 L 45.5 116.5 M 41.5 106.5 L 45.5 106.5 M 41.5 97.5 L 45.5 97.5 M 41.5 87.5 L 45.5 87.5 M 41.5 77.5 L 45.5 77.5 M 41.5 67.5 L 45.5 67.5 M 41.5 57.5 L 45.5 57.5 M 41.5 47.5 L 45.5 47.5 M 41.5 37.5 L 45.5 37.5" stroke-opacity="1" stroke-linejoin="bevel" stroke-miterlimit="10"/><text fill="rgb(0,0,0)" stroke="none" font-family="arial" font-size="11px" font-style="normal" font-weight="normal" text-decoration="normal" x="27" y="358" text-anchor="start" dominant-baseline="alphabetic" transform="matrix(1, 0, 0, 1, 0.5, 0.5)" fill-opacity="1">0</text><text fill="none" stroke="rgb(0,0,0)" font-family="arial" font-size="11px" font-style="normal" font-weight="normal" text-decoration="normal" x="27" y="358" text-anchor="start" dominant-baseline="alphabetic" transform="matrix(1, 0, 0, 1, 0.5, 0.5)" stroke-opacity="0" stroke-linejoin="bevel" stroke-miterlimit="10">0</text><text fill="rgb(0,0,0)" stroke="none" font-family="arial" font-size="11px" font-style="normal" font-weight="normal" text-decoration="normal" x="27" y="308.4849548339844" text-anchor="start" dominant-baseline="alphabetic" transform="matrix(1, 0, 0, 1, 0.5, 0.5)" fill-opacity="1">1</text><text fill="none" stroke="rgb(0,0,0)" font-family="arial" font-size="11px" font-style="normal" font-weight="normal" text-decoration="normal" x="27" y="308.4849548339844" text-anchor="start" dominant-baseline="alphabetic" transform="matrix(1, 0, 0, 1, 0.5, 0.5)" stroke-opacity="0" stroke-linejoin="bevel" stroke-miterlimit="10">1</text><text fill="rgb(0,0,0)" stroke="none" font-family="arial" font-size="11px" font-style="normal" font-weight="normal" text-decoration="normal" x="27" y="258.9698944091797" text-anchor="start" dominant-baseline="alphabetic" transform="matrix(1, 0, 0, 1, 0.5, 0.5)" fill-opacity="1">2</text><text fill="none" stroke="rgb(0,0,0)" font-family="arial" font-size="11px" font-style="normal" font-weight="normal" text-decoration="normal" x="27" y="258.9698944091797" text-anchor="start" dominant-baseline="alphabetic" transform="matrix(1, 0, 0, 1, 0.5, 0.5)" stroke-opacity="0" stroke-linejoin="bevel" stroke-miterlimit="10">2</text><text fill="rgb(0,0,0)" stroke="none" font-family="arial" font-size="11px" font-style="normal" font-weight="normal" text-decoration="normal" x="27" y="209.45484924316406" text-anchor="start" dominant-baseline="alphabetic" transform="matrix(1, 0, 0, 1, 0.5, 0.5)" fill-opacity="1">3</text><text fill="none" stroke="rgb(0,0,0)" font-family="arial" font-size="11px" font-style="normal" font-weight="normal" text-decoration="normal" x="27" y="209.45484924316406" text-anchor="start" dominant-baseline="alphabetic" transform="matrix(1, 0, 0, 1, 0.5, 0.5)" stroke-opacity="0" stroke-linejoin="bevel" stroke-miterlimit="10">3</text><text fill="rgb(0,0,0)" stroke="none" font-family="arial" font-size="11px" font-style="normal" font-weight="normal" text-decoration="normal" x="27" y="159.93980407714844" text-anchor="start" dominant-baseline="alphabetic" transform="matrix(1, 0, 0, 1, 0.5, 0.5)" fill-opacity="1">4</text><text fill="none" stroke="rgb(0,0,0)" font-family="arial" font-size="11px" font-style="normal" font-weight="normal" text-decoration="normal" x="27" y="159.93980407714844" text-anchor="start" dominant-baseline="alphabetic" transform="matrix(1, 0, 0, 1, 0.5, 0.5)" stroke-opacity="0" stroke-linejoin="bevel" stroke-miterlimit="10">4</text><text fill="rgb(0,0,0)" stroke="none" font-family="arial" font-size="11px" font-style="normal" font-weight="normal" text-decoration="normal" x="27" y="110.42475128173828" text-anchor="start" dominant-baseline="alphabetic" transform="matrix(1, 0, 0, 1, 0.5, 0.5)" fill-opacity="1">5</text><text fill="none" stroke="rgb(0,0,0)" font-family="arial" font-size="11px" font-style="normal" font-weight="normal" text-decoration="normal" x="27" y="110.42475128173828" text-anchor="start" dominant-baseline="alphabetic" transform="matrix(1, 0, 0, 1, 0.5, 0.5)" stroke-opacity="0" stroke-linejoin="bevel" stroke-miterlimit="10">5</text><text fill="rgb(0,0,0)" stroke="none" font-family="arial" font-size="11px" font-style="normal" font-weight="normal" text-decoration="normal" x="27" y="60.909706115722656" text-anchor="start" dominant-baseline="alphabetic" transform="matrix(1, 0, 0, 1, 0.5, 0.5)" fill-opacity="1">6</text><text fill="none" stroke="rgb(0,0,0)" font-family="arial" font-size="11px" font-style="normal" font-weight="normal" text-decoration="normal" x="27" y="60.909706115722656" text-anchor="start" dominant-baseline="alphabetic" transform="matrix(1, 0, 0, 1, 0.5, 0.5)" stroke-opacity="0" stroke-linejoin="bevel" stroke-miterlimit="10">6</text><text fill="rgb(0,0,0)" stroke="none" font-family="arial" font-size="13px" font-style="normal" font-weight="normal" text-decoration="normal" x="-5.933332443237305" y="188" text-anchor="start" dominant-baseline="alphabetic" transform="matrix(6.123233995736766e-17, -1, 1, 6.123233995736766e-17, -171.5, 210.5)" fill-opacity="1">Density</text><text fill="none" stroke="rgb(0,0,0)" font-family="arial" font-size="13px" font-style="normal" font-weight="normal" text-decoration="normal" x="-5.933332443237305" y="188" text-anchor="start" dominant-baseline="alphabetic" transform="matrix(6.123233995736766e-17, -1, 1, 6.123233995736766e-17, -171.5, 210.5)" stroke-opacity="0" stroke-linejoin="bevel" stroke-miterlimit="10">Density</text><path fill="rgb(255,255,255)" stroke="rgb(229,229,229)" paint-order="fill" d="M 194.5 38.5 L 380.5 38.5 L 380.5 193.5 L 194.5 193.5 L 194.5 38.5 Z" fill-opacity="0.9490196078431372" clip-path="url(#CTpuittRSfuk)" stroke-opacity="0.5019607843137255" stroke-linejoin="bevel" stroke-miterlimit="10"/><path fill="rgb(75,172,198)" stroke="rgb(0,0,0)" paint-order="fill" d="M 206.5 50.5 L 222.5 50.5 L 222.5 66.5 L 206.5 66.5 L 206.5 50.5 Z" fill-opacity="0.5019607843137255" clip-path="url(#CTpuittRSfuk)" stroke-opacity="0" stroke-linejoin="bevel" stroke-miterlimit="10"/><g clip-path="url(#CTpuittRSfuk)"><text fill="rgb(68,68,68)" stroke="none" font-family="helvetica" font-size="13px" font-style="normal" font-weight="normal" text-decoration="normal" x="0" y="5" text-anchor="start" dominant-baseline="alphabetic" transform="matrix(1, 0, 0, 1, 229.5, 58.5)" fill-opacity="1">Codon-level</text></g><g clip-path="url(#CTpuittRSfuk)"><text fill="none" stroke="rgb(0,0,0)" font-family="helvetica" font-size="13px" font-style="normal" font-weight="normal" text-decoration="normal" x="0" y="5" text-anchor="start" dominant-baseline="alphabetic" transform="matrix(1, 0, 0, 1, 229.5, 58.5)" stroke-opacity="0" stroke-linejoin="bevel" stroke-miterlimit="10">Codon-level</text></g><path fill="none" stroke="rgb(75,172,198)" paint-order="fill" d="M 204.5 81.5 L 224.5 81.5" stroke-opacity="1" stroke-linejoin="bevel" stroke-miterlimit="10" stroke-width="1.6" stroke-dasharray="2,4" clip-path="url(#CTpuittRSfuk)"/><g clip-path="url(#CTpuittRSfuk)"><text fill="rgb(68,68,68)" stroke="none" font-family="helvetica" font-size="13px" font-style="normal" font-weight="normal" text-decoration="normal" x="0" y="5" text-anchor="start" dominant-baseline="alphabetic" transform="matrix(1, 0, 0, 1, 229.5, 81.5)" fill-opacity="1">Mean codon fitness</text></g><g clip-path="url(#CTpuittRSfuk)"><text fill="none" stroke="rgb(0,0,0)" font-family="helvetica" font-size="13px" font-style="normal" font-weight="normal" text-decoration="normal" x="0" y="5" text-anchor="start" dominant-baseline="alphabetic" transform="matrix(1, 0, 0, 1, 229.5, 81.5)" stroke-opacity="0" stroke-linejoin="bevel" stroke-miterlimit="10">Mean codon fitness</text></g><path fill="none" stroke="rgb(75,172,198)" paint-order="fill" d="M 204.5 104.5 L 224.5 104.5" stroke-opacity="1" stroke-linejoin="bevel" stroke-miterlimit="10" stroke-width="1.6" clip-path="url(#CTpuittRSfuk)"/><g clip-path="url(#CTpuittRSfuk)"><text fill="rgb(68,68,68)" stroke="none" font-family="helvetica" font-size="13px" font-style="normal" font-weight="normal" text-decoration="normal" x="0" y="5" text-anchor="start" dominant-baseline="alphabetic" transform="matrix(1, 0, 0, 1, 229.5, 104.5)" fill-opacity="1">Median codon fitness</text></g><g clip-path="url(#CTpuittRSfuk)"><text fill="none" stroke="rgb(0,0,0)" font-family="helvetica" font-size="13px" font-style="normal" font-weight="normal" text-decoration="normal" x="0" y="5" text-anchor="start" dominant-baseline="alphabetic" transform="matrix(1, 0, 0, 1, 229.5, 104.5)" stroke-opacity="0" stroke-linejoin="bevel" stroke-miterlimit="10">Median codon fitness</text></g><path fill="rgb(247,150,70)" stroke="rgb(0,0,0)" paint-order="fill" d="M 206.5 119.5 L 222.5 119.5 L 222.5 135.5 L 206.5 135.5 L 206.5 119.5 Z" fill-opacity="0.5019607843137255" clip-path="url(#CTpuittRSfuk)" stroke-opacity="0" stroke-linejoin="bevel" stroke-miterlimit="10"/><g clip-path="url(#CTpuittRSfuk)"><text fill="rgb(68,68,68)" stroke="none" font-family="helvetica" font-size="13px" font-style="normal" font-weight="normal" text-decoration="normal" x="0" y="5" text-anchor="start" dominant-baseline="alphabetic" transform="matrix(1, 0, 0, 1, 229.5, 127.5)" fill-opacity="1">AA-level</text></g><g clip-path="url(#CTpuittRSfuk)"><text fill="none" stroke="rgb(0,0,0)" font-family="helvetica" font-size="13px" font-style="normal" font-weight="normal" text-decoration="normal" x="0" y="5" text-anchor="start" dominant-baseline="alphabetic" transform="matrix(1, 0, 0, 1, 229.5, 127.5)" stroke-opacity="0" stroke-linejoin="bevel" stroke-miterlimit="10">AA-level</text></g><path fill="none" stroke="rgb(247,150,70)" paint-order="fill" d="M 204.5 150.5 L 224.5 150.5" stroke-opacity="1" stroke-linejoin="bevel" stroke-miterlimit="10" stroke-width="1.6" stroke-dasharray="2,4" clip-path="url(#CTpuittRSfuk)"/><g clip-path="url(#CTpuittRSfuk)"><text fill="rgb(68,68,68)" stroke="none" font-family="helvetica" font-size="13px" font-style="normal" font-weight="normal" text-decoration="normal" x="0" y="5" text-anchor="start" dominant-baseline="alphabetic" transform="matrix(1, 0, 0, 1, 229.5, 150.5)" fill-opacity="1">Mean AA fitness</text></g><g clip-path="url(#CTpuittRSfuk)"><text fill="none" stroke="rgb(0,0,0)" font-family="helvetica" font-size="13px" font-style="normal" font-weight="normal" text-decoration="normal" x="0" y="5" text-anchor="start" dominant-baseline="alphabetic" transform="matrix(1, 0, 0, 1, 229.5, 150.5)" stroke-opacity="0" stroke-linejoin="bevel" stroke-miterlimit="10">Mean AA fitness</text></g><path fill="none" stroke="rgb(247,150,70)" paint-order="fill" d="M 204.5 173.5 L 224.5 173.5" stroke-opacity="1" stroke-linejoin="bevel" stroke-miterlimit="10" stroke-width="1.6" clip-path="url(#CTpuittRSfuk)"/><g clip-path="url(#CTpuittRSfuk)"><text fill="rgb(68,68,68)" stroke="none" font-family="helvetica" font-size="13px" font-style="normal" font-weight="normal" text-decoration="normal" x="0" y="5" text-anchor="start" dominant-baseline="alphabetic" transform="matrix(1, 0, 0, 1, 229.5, 173.5)" fill-opacity="1">Median AA fitness</text></g><g clip-path="url(#CTpuittRSfuk)"><text fill="none" stroke="rgb(0,0,0)" font-family="helvetica" font-size="13px" font-style="normal" font-weight="normal" text-decoration="normal" x="0" y="5" text-anchor="start" dominant-baseline="alphabetic" transform="matrix(1, 0, 0, 1, 229.5, 173.5)" stroke-opacity="0" stroke-linejoin="bevel" stroke-miterlimit="10">Median AA fitness</text></g><text fill="rgb(68,68,68)" stroke="none" font-family="helvetica" font-size="13px" font-style="normal" font-weight="bold" text-decoration="normal" x="45" y="20" text-anchor="start" dominant-baseline="alphabetic" transform="matrix(1, 0, 0, 1, 0.5, 0.5)" fill-opacity="1">DHFR fitness distribution</text><text fill="none" stroke="rgb(0,0,0)" font-family="helvetica" font-size="13px" font-style="normal" font-weight="bold" text-decoration="normal" x="45" y="20" text-anchor="start" dominant-baseline="alphabetic" transform="matrix(1, 0, 0, 1, 0.5, 0.5)" stroke-opacity="0" stroke-miterlimit="10" stroke-dasharray="">DHFR fitness distribution</text></svg>