<svg version="1.1" xmlns="http://www.w3.org/2000/svg" width="400" height="400"><defs><clipPath id="EIXKLHEkHJqU"><path fill="none" stroke="none" d="M 43.5 29.5 L 390.5 29.5 L 390.5 355.5 L 43.5 355.5 L 43.5 29.5 Z"/></clipPath><clipPath id="JbXxTRtpPoFX"><path fill="none" stroke="none" d="M 43.5 29.5 L 390.5 29.5 L 390.5 355.5 L 43.5 355.5 L 43.5 29.5 Z"/></clipPath><clipPath id="kvEEOtrawgPn"><path fill="none" stroke="none" d="M 43.5 29.5 L 390.5 29.5 L 390.5 355.5 L 43.5 355.5 L 43.5 29.5 Z"/></clipPath><clipPath id="MgsgIcNhbwRx"><path fill="none" stroke="none" d="M 43.5 29.5 L 390.5 29.5 L 390.5 355.5 L 43.5 355.5 L 43.5 29.5 Z"/></clipPath><clipPath id="CCqkTaTXrmwG"><path fill="none" stroke="none" d="M 43.5 29.5 L 390.5 29.5 L 390.5 355.5 L 43.5 355.5 L 43.5 29.5 Z"/></clipPath><clipPath id="GGmICRksUoDT"><path fill="none" stroke="none" d="M 43.5 29.5 L 390.5 29.5 L 390.5 355.5 L 43.5 355.5 L 43.5 29.5 Z"/></clipPath><clipPath id="eXmofoDMUVSm"><path fill="none" stroke="none" d="M 43.5 29.5 L 390.5 29.5 L 390.5 355.5 L 43.5 355.5 L 43.5 29.5 Z"/></clipPath><clipPath id="tdHpwJMrcoAy"><path fill="none" stroke="none" d="M 43.5 29.5 L 390.5 29.5 L 390.5 355.5 L 43.5 355.5 L 43.5 29.5 Z"/></clipPath><clipPath id="MdQZblUiOeMH"><path fill="none" stroke="none" d="M 43.5 29.5 L 390.5 29.5 L 390.5 355.5 L 43.5 355.5 L 43.5 29.5 Z"/></clipPath><clipPath id="MqOxSEMnHBLU"><path fill="none" stroke="none" d="M 43.5 29.5 L 390.5 29.5 L 390.5 355.5 L 43.5 355.5 L 43.5 29.5 Z"/></clipPath><clipPath id="AgJSLmUXgTQE"><path fill="none" stroke="none" d="M 43.5 29.5 L 390.5 29.5 L 390.5 355.5 L 43.5 355.5 L 43.5 29.5 Z"/></clipPath><clipPath id="zBbNlUedXGCs"><path fill="none" stroke="none" d="M 43.5 29.5 L 390.5 29.5 L 390.5 355.5 L 43.5 355.5 L 43.5 29.5 Z"/></clipPath></defs><path fill="rgb(255,255,255)" stroke="none" paint-order="stroke" d="M 0.5 0.5 L 400.5 0.5 L 400.5 400.5 L 0.5 400.5 L 0.5 0.5 Z" fill-opacity="1"/><rect fill="#FFFFFF" stroke="none" x="43" y="29" width="347" height="326" transform="matrix(1, 0, 0, 1, 0.5, 0.5)"/><path fill="rgb(255,255,255)" stroke="none" paint-order="stroke" d="M 43.5 29.5 L 390.5 29.5 L 390.5 355.5 L 43.5 355.5 L 43.5 29.5 Z" fill-opacity="1"/><path fill="none" stroke="rgb(229,229,229)" paint-order="fill" d="M 43.5 29.5 L 390.5 29.5 L 390.5 355.5 L 43.5 355.5 L 43.5 29.5 Z" stroke-opacity="1" stroke-linejoin="bevel" stroke-miterlimit="10"/><path fill="rgb(75,172,198)" stroke="rgb(0,0,0)" paint-order="fill" d="M 43.5 355.5 L 46.95852279663086 355.5 L 50.41704559326172 355.5 L 53.87556838989258 355.5 L 57.33408737182617 355.5 L 60.79261016845703 355.5 L 64.25113296508789 355.5 L 67.70965576171875 355.5 L 71.16817474365234 355.5 L 74.62670135498047 355.5 L 78.08522033691406 355.5 L 81.54374694824219 355.5 L 85.00226593017578 355.5 L 88.4607925415039 355.5 L 91.9193115234375 355.5 L 95.3778305053711 355.5 L 98.83635711669922 355.5 L 102.29487609863281 355.5 L 105.75340270996094 355.5 L 109.21192169189453 355.5 L 112.67044830322266 355.5 L 116.12896728515625 355.5 L 119.58748626708984 355.5 L 123.04601287841797 355.5 L 126.50453186035156 355.5 L 129.9630584716797 355.5 L 133.4215850830078 355.5 L 136.88009643554688 355.5 L 140.338623046875 355.5 L 143.79714965820312 355.5 L 147.2556610107422 355.5 L 150.7141876220703 355.5 L 154.17271423339844 355.5 L 157.63124084472656 355.5 L 161.08975219726562 355.5 L 164.54827880859375 355.5 L 168.00680541992188 355.5 L 171.46531677246094 355.5 L 174.92384338378906 355.5 L 178.3823699951172 355.5 L 181.8408966064453 355.5 L 185.29940795898438 355.5 L 188.7579345703125 355.5 L 192.21646118164062 355.5 L 195.6749725341797 355.5 L 199.1334991455078 355.5 L 202.59202575683594 355.5 L 206.05055236816406 355.5 L 209.50906372070312 355.5 L 212.96759033203125 355.5 L 216.42611694335938 355.5 L 219.88462829589844 355.5 L 223.34315490722656 355.5 L 226.8016815185547 355.5 L 230.2602081298828 355.5 L 233.71871948242188 355.5 L 237.17724609375 355.5 L 240.63577270507812 355.5 L 244.0942840576172 355.5 L 247.5528106689453 355.5 L 251.01133728027344 355.5 L 254.46986389160156 355.5 L 257.9283752441406 355.5 L 261.38690185546875 355.5 L 264.8454284667969 355.5 L 268.303955078125 355.5 L 271.7624816894531 355.5 L 275.2209777832031 355.5 L 278.67950439453125 355.5 L 282.1380310058594 355.5 L 285.5965576171875 355.5 L 289.0550842285156 355.5 L 292.51361083984375 355.5 L 295.9721374511719 355.5 L 299.4306335449219 355.5 L 302.88916015625 355.5 L 306.3476867675781 355.5 L 309.80621337890625 355.5 L 313.2647399902344 355.5 L 316.7232666015625 355.5 L 320.1817932128906 355.5 L 323.6402893066406 355.5 L 327.09881591796875 355.5 L 330.5573425292969 355.5 L 334.015869140625 355.5 L 337.4743957519531 355.5 L 340.93292236328125 355.5 L 344.3914489746094 355.5 L 347.8499450683594 355.5 L 351.3084716796875 355.5 L 354.7669982910156 355.5 L 358.22552490234375 355.5 L 361.6840515136719 355.5 L 365.142578125 355.5 L 368.6011047363281 355.5 L 372.0596008300781 355.5 L 375.51812744140625 355.5 L 378.9766540527344 355.5 L 382.4351806640625 355.5 L 385.8937072753906 355.5 L 385.8937072753906 355.4999694824219 L 382.4351806640625 355.4992980957031 L 378.9766540527344 355.49432373046875 L 375.51812744140625 355.46868896484375 L 372.0596008300781 355.39202880859375 L 368.6011047363281 355.2955627441406 L 365.142578125 355.2392883300781 L 361.6840515136719 355.2148742675781 L 358.22552490234375 355.1443176269531 L 354.7669982910156 354.8925476074219 L 351.3084716796875 354.54913330078125 L 347.8499450683594 354.2326965332031 L 344.3914489746094 354.01190185546875 L 340.93292236328125 353.9134216308594 L 337.4743957519531 353.9298400878906 L 334.015869140625 354.00262451171875 L 330.5573425292969 353.9645690917969 L 327.09881591796875 353.82952880859375 L 323.6402893066406 353.77142333984375 L 320.1817932128906 353.7945556640625 L 316.7232666015625 353.81146240234375 L 313.2647399902344 353.85791015625 L 309.80621337890625 353.8903503417969 L 306.3476867675781 353.835693359375 L 302.88916015625 353.7481384277344 L 299.4306335449219 353.657958984375 L 295.9721374511719 353.5107116699219 L 292.51361083984375 353.2978820800781 L 289.0550842285156 353.1958923339844 L 285.5965576171875 353.217529296875 L 282.1380310058594 353.2890930175781 L 278.67950439453125 353.4139709472656 L 275.2209777832031 353.5378112792969 L 271.7624816894531 353.6854248046875 L 268.303955078125 353.8222351074219 L 264.8454284667969 353.8862609863281 L 261.38690185546875 353.9354553222656 L 257.9283752441406 354.0545654296875 L 254.46986389160156 354.1143493652344 L 251.01133728027344 354.0526123046875 L 247.5528106689453 353.97857666015625 L 244.0942840576172 353.91619873046875 L 240.63577270507812 353.8181457519531 L 237.17724609375 353.7303466796875 L 233.71871948242188 353.72247314453125 L 230.2602081298828 353.75048828125 L 226.8016815185547 353.781982421875 L 223.34315490722656 353.7506103515625 L 219.88462829589844 353.6943359375 L 216.42611694335938 353.7138366699219 L 212.96759033203125 353.7327880859375 L 209.50906372070312 353.75579833984375 L 206.05055236816406 353.82427978515625 L 202.59202575683594 353.903076171875 L 199.1334991455078 353.89654541015625 L 195.6749725341797 353.8111267089844 L 192.21646118164062 353.7865295410156 L 188.7579345703125 353.7616271972656 L 185.29940795898438 353.6795959472656 L 181.8408966064453 353.60894775390625 L 178.3823699951172 353.53948974609375 L 174.92384338378906 353.4667663574219 L 171.46531677246094 353.4106140136719 L 168.00680541992188 353.4212951660156 L 164.54827880859375 353.3599853515625 L 161.08975219726562 353.28106689453125 L 157.63124084472656 353.1611633300781 L 154.17271423339844 352.8411865234375 L 150.7141876220703 352.3551940917969 L 147.2556610107422 351.78192138671875 L 143.79714965820312 351.03424072265625 L 140.338623046875 349.89495849609375 L 136.88009643554688 347.5356140136719 L 133.4215850830078 342.4850158691406 L 129.9630584716797 332.2980041503906 L 126.50453186035156 312.02838134765625 L 123.04601287841797 275.1050109863281 L 119.58748626708984 218.02188110351562 L 116.12896728515625 150.45370483398438 L 112.67044830322266 97.1549301147461 L 109.21192169189453 87.12759399414062 L 105.75340270996094 126.2075424194336 L 102.29487609863281 188.97557067871094 L 98.83635711669922 247.9832305908203 L 95.3778305053711 291.6873779296875 L 91.9193115234375 319.5733642578125 L 88.4607925415039 335.80615234375 L 85.00226593017578 344.7519836425781 L 81.54374694824219 349.5799255371094 L 78.08522033691406 352.286376953125 L 74.62670135498047 353.83673095703125 L 71.16817474365234 354.6837463378906 L 67.70965576171875 355.10797119140625 L 64.25113296508789 355.3195495605469 L 60.79261016845703 355.41046142578125 L 57.33408737182617 355.4623718261719 L 53.87556838989258 355.4895935058594 L 50.41704559326172 355.49700927734375 L 46.95852279663086 355.49945068359375 L 43.5 355.4999694824219 Z" fill-opacity="0.5019607843137255" clip-path="url(#kvEEOtrawgPn)" stroke-opacity="0" stroke-linejoin="bevel" stroke-miterlimit="10"/><path fill="none" stroke="rgb(75,172,198)" paint-order="fill" d="M 118.3001937866211 355.5 L 118.3001937866211 330.7424621582031" stroke-opacity="1" stroke-linejoin="bevel" stroke-miterlimit="10" stroke-width="1.6" stroke-dasharray="2,4" clip-path="url(#MgsgIcNhbwRx)"/><path fill="none" stroke="rgb(75,172,198)" paint-order="fill" d="M 110.75011444091797 355.5 L 110.75011444091797 330.7424621582031" stroke-opacity="1" stroke-linejoin="bevel" stroke-miterlimit="10" stroke-width="1.6" clip-path="url(#CCqkTaTXrmwG)"/><path fill="rgb(247,150,70)" stroke="rgb(0,0,0)" paint-order="fill" d="M 76.72937774658203 355.5 L 79.8987808227539 355.5 L 83.06817626953125 355.5 L 86.23757934570312 355.5 L 89.40697479248047 355.5 L 92.57637786865234 355.5 L 95.74578094482422 355.5 L 98.91517639160156 355.5 L 102.08457946777344 355.5 L 105.25398254394531 355.5 L 108.42337799072266 355.5 L 111.59278106689453 355.5 L 114.7621841430664 355.5 L 117.93157958984375 355.5 L 121.10098266601562 355.5 L 124.27037811279297 355.5 L 127.43978118896484 355.5 L 130.6091766357422 355.5 L 133.77857971191406 355.5 L 136.94798278808594 355.5 L 140.1173858642578 355.5 L 143.2867889404297 355.5 L 146.4561767578125 355.5 L 149.62557983398438 355.5 L 152.79498291015625 355.5 L 155.96438598632812 355.5 L 159.1337890625 355.5 L 162.3031768798828 355.5 L 165.4725799560547 355.5 L 168.64198303222656 355.5 L 171.81138610839844 355.5 L 174.9807891845703 355.5 L 178.1501922607422 355.5 L 181.319580078125 355.5 L 184.48898315429688 355.5 L 187.65838623046875 355.5 L 190.82778930664062 355.5 L 193.9971923828125 355.5 L 197.1665802001953 355.5 L 200.3359832763672 355.5 L 203.50538635253906 355.5 L 206.67478942871094 355.5 L 209.8441925048828 355.5 L 213.01358032226562 355.5 L 216.1829833984375 355.5 L 219.35238647460938 355.5 L 222.52178955078125 355.5 L 225.69119262695312 355.5 L 228.860595703125 355.5 L 232.0299835205078 355.5 L 235.1993865966797 355.5 L 238.36878967285156 355.5 L 241.53819274902344 355.5 L 244.7075958251953 355.5 L 247.87698364257812 355.5 L 251.04638671875 355.5 L 254.21578979492188 355.5 L 257.38519287109375 355.5 L 260.5545959472656 355.5 L 263.7239990234375 355.5 L 266.8934020996094 355.5 L 270.06280517578125 355.5 L 273.232177734375 355.5 L 276.4015808105469 355.5 L 279.57098388671875 355.5 L 282.7403869628906 355.5 L 285.9097900390625 355.5 L 289.0791931152344 355.5 L 292.24859619140625 355.5 L 295.4179992675781 355.5 L 298.58740234375 355.5 L 301.7568054199219 355.5 L 304.92620849609375 355.5 L 308.0955810546875 355.5 L 311.2649841308594 355.5 L 314.43438720703125 355.5 L 317.6037902832031 355.5 L 320.773193359375 355.5 L 323.9425964355469 355.5 L 327.11199951171875 355.5 L 330.2814025878906 355.5 L 333.4508056640625 355.5 L 336.6202087402344 355.5 L 339.7895812988281 355.5 L 342.958984375 355.5 L 346.1283874511719 355.5 L 349.29779052734375 355.5 L 352.4671936035156 355.5 L 355.6365966796875 355.5 L 358.8059997558594 355.5 L 361.97540283203125 355.5 L 365.1448059082031 355.5 L 368.314208984375 355.5 L 371.4836120605469 355.5 L 374.6529846191406 355.5 L 377.8223876953125 355.5 L 380.9917907714844 355.5 L 384.16119384765625 355.5 L 387.3305969238281 355.5 L 390.5 355.5 L 390.5 355.4986572265625 L 387.3305969238281 355.4946594238281 L 384.16119384765625 355.4825439453125 L 380.9917907714844 355.4529113769531 L 377.8223876953125 355.39453125 L 374.6529846191406 355.302490234375 L 371.4836120605469 355.1880798339844 L 368.314208984375 355.0773620605469 L 365.1448059082031 354.99114990234375 L 361.97540283203125 354.91937255859375 L 358.8059997558594 354.8183898925781 L 355.6365966796875 354.6438903808594 L 352.4671936035156 354.39263916015625 L 349.29779052734375 354.1103515625 L 346.1283874511719 353.85595703125 L 342.958984375 353.65869140625 L 339.7895812988281 353.5087585449219 L 336.6202087402344 353.3797912597656 L 333.4508056640625 353.2517395019531 L 330.2814025878906 353.1188659667969 L 327.11199951171875 352.9931945800781 L 323.9425964355469 352.9042053222656 L 320.773193359375 352.87982177734375 L 317.6037902832031 352.9167785644531 L 314.43438720703125 352.9769592285156 L 311.2649841308594 353.0216979980469 L 308.0955810546875 353.0419006347656 L 304.92620849609375 353.0441589355469 L 301.7568054199219 353.0152893066406 L 298.58740234375 352.9176330566406 L 295.4179992675781 352.72454833984375 L 292.24859619140625 352.4571228027344 L 289.0791931152344 352.1849365234375 L 285.9097900390625 351.99273681640625 L 282.7403869628906 351.9396667480469 L 279.57098388671875 352.033447265625 L 276.4015808105469 352.2322692871094 L 273.232177734375 352.4744873046875 L 270.06280517578125 352.7129821777344 L 266.8934020996094 352.9239807128906 L 263.7239990234375 353.09674072265625 L 260.5545959472656 353.23028564453125 L 257.38519287109375 353.3363037109375 L 254.21578979492188 353.42730712890625 L 251.04638671875 353.4985656738281 L 247.87698364257812 353.53009033203125 L 244.7075958251953 353.50714111328125 L 241.53819274902344 353.43798828125 L 238.36878967285156 353.354736328125 L 235.1993865966797 353.2963562011719 L 232.0299835205078 353.281982421875 L 228.860595703125 353.2977294921875 L 225.69119262695312 353.3147888183594 L 222.52178955078125 353.32171630859375 L 219.35238647460938 353.3321838378906 L 216.1829833984375 353.3636474609375 L 213.01358032226562 353.4178771972656 L 209.8441925048828 353.48223876953125 L 206.67478942871094 353.5396423339844 L 203.50538635253906 353.57366943359375 L 200.3359832763672 353.5719299316406 L 197.1665802001953 353.53082275390625 L 193.9971923828125 353.4561767578125 L 190.82778930664062 353.3562316894531 L 187.65838623046875 353.2343444824219 L 184.48898315429688 353.0853576660156 L 181.319580078125 352.8938903808594 L 178.1501922607422 352.6414794921875 L 174.9807891845703 352.33251953125 L 171.81138610839844 352.0205383300781 L 168.64198303222656 351.7887878417969 L 165.4725799560547 351.6810607910156 L 162.3031768798828 351.6460266113281 L 159.1337890625 351.5600280761719 L 155.96438598632812 351.31365966796875 L 152.79498291015625 350.8863830566406 L 149.62557983398438 350.3531799316406 L 146.4561767578125 349.8280029296875 L 143.2867889404297 349.3883361816406 L 140.1173858642578 349.0125427246094 L 136.94798278808594 348.49365234375 L 133.77857971191406 347.1806640625 L 130.6091766357422 343.3105163574219 L 127.43978118896484 332.88995361328125 L 124.27037811279297 309.04156494140625 L 121.10098266601562 264.23779296875 L 117.93157958984375 197.40711975097656 L 114.7621841430664 122.38374328613281 L 111.59278106689453 67.37605285644531 L 108.42337799072266 59.1363639831543 L 105.25398254394531 102.67674255371094 L 102.08457946777344 176.8847198486328 L 98.91517639160156 251.01547241210938 L 95.74578094482422 304.8477783203125 L 92.57637786865234 335.1111145019531 L 89.40697479248047 348.66455078125 L 86.23757934570312 353.5831298828125 L 83.06817626953125 355.0478515625 L 79.8987808227539 355.4096984863281 L 76.72937774658203 355.484619140625 Z" fill-opacity="0.5019607843137255" clip-path="url(#GGmICRksUoDT)" stroke-opacity="0" stroke-linejoin="bevel" stroke-miterlimit="10"/><path fill="none" stroke="rgb(247,150,70)" paint-order="fill" d="M 122.17012786865234 355.5 L 122.17012786865234 330.7424621582031" stroke-opacity="1" stroke-linejoin="bevel" stroke-miterlimit="10" stroke-width="1.6" stroke-dasharray="2,4" clip-path="url(#eXmofoDMUVSm)"/><path fill="none" stroke="rgb(247,150,70)" paint-order="fill" d="M 109.75975036621094 355.5 L 109.75975036621094 330.7424621582031" stroke-opacity="1" stroke-linejoin="bevel" stroke-miterlimit="10" stroke-width="1.6" clip-path="url(#tdHpwJMrcoAy)"/><path fill="none" stroke="rgb(128,128,128)" paint-order="fill" d="M 128.88848876953125 355.5 L 128.88848876953125 330.7424621582031" stroke-opacity="1" stroke-linejoin="bevel" stroke-miterlimit="10" stroke-width="1.6" clip-path="url(#MdQZblUiOeMH)"/><path fill="none" stroke="rgb(128,128,128)" paint-order="fill" d="M 137.72804260253906 355.5 L 137.72804260253906 330.7424621582031" stroke-opacity="1" stroke-linejoin="bevel" stroke-miterlimit="10" stroke-width="1.6" stroke-dasharray="6" clip-path="url(#MqOxSEMnHBLU)"/><path fill="none" stroke="rgb(0,0,0)" paint-order="fill" d="M 43.5 355.5 L 390.5 355.5" stroke-opacity="1" stroke-linejoin="bevel" stroke-miterlimit="10"/><path fill="none" stroke="rgb(0,0,0)" paint-order="fill" d="M 74.5 361.5 L 74.5 353.5 M 137.5 361.5 L 137.5 353.5 M 200.5 361.5 L 200.5 353.5 M 263.5 361.5 L 263.5 353.5 M 326.5 361.5 L 326.5 353.5 M 389.5 361.5 L 389.5 353.5" stroke-opacity="1" stroke-linejoin="bevel" stroke-miterlimit="10"/><path fill="none" stroke="rgb(0,0,0)" paint-order="fill" d="M 62.5 359.5 L 62.5 355.5 M 49.5 359.5 L 49.5 355.5 M 74.5 359.5 L 74.5 355.5 M 87.5 359.5 L 87.5 355.5 M 99.5 359.5 L 99.5 355.5 M 112.5 359.5 L 112.5 355.5 M 125.5 359.5 L 125.5 355.5 M 137.5 359.5 L 137.5 355.5 M 150.5 359.5 L 150.5 355.5 M 162.5 359.5 L 162.5 355.5 M 175.5 359.5 L 175.5 355.5 M 188.5 359.5 L 188.5 355.5 M 200.5 359.5 L 200.5 355.5 M 213.5 359.5 L 213.5 355.5 M 225.5 359.5 L 225.5 355.5 M 238.5 359.5 L 238.5 355.5 M 251.5 359.5 L 251.5 355.5 M 263.5 359.5 L 263.5 355.5 M 276.5 359.5 L 276.5 355.5 M 289.5 359.5 L 289.5 355.5 M 301.5 359.5 L 301.5 355.5 M 314.5 359.5 L 314.5 355.5 M 326.5 359.5 L 326.5 355.5 M 339.5 359.5 L 339.5 355.5 M 352.5 359.5 L 352.5 355.5 M 364.5 359.5 L 364.5 355.5 M 377.5 359.5 L 377.5 355.5 M 389.5 359.5 L 389.5 355.5" stroke-opacity="1" stroke-linejoin="bevel" stroke-miterlimit="10"/><text fill="rgb(0,0,0)" stroke="none" font-family="arial" font-size="11px" font-style="normal" font-weight="normal" text-decoration="normal" x="67.92328977584839" y="374" text-anchor="start" dominant-baseline="alphabetic" transform="matrix(1, 0, 0, 1, 0.5, 0.5)" fill-opacity="1">−1</text><text fill="none" stroke="rgb(0,0,0)" font-family="arial" font-size="11px" font-style="normal" font-weight="normal" text-decoration="normal" x="67.92328977584839" y="374" text-anchor="start" dominant-baseline="alphabetic" transform="matrix(1, 0, 0, 1, 0.5, 0.5)" stroke-opacity="0" stroke-linejoin="bevel" stroke-miterlimit="10">−1</text><text fill="rgb(0,0,0)" stroke="none" font-family="arial" font-size="11px" font-style="normal" font-weight="normal" text-decoration="normal" x="126.37804222106934" y="374" text-anchor="start" dominant-baseline="alphabetic" transform="matrix(1, 0, 0, 1, 0.5, 0.5)" fill-opacity="1">−0.5</text><text fill="none" stroke="rgb(0,0,0)" font-family="arial" font-size="11px" font-style="normal" font-weight="normal" text-decoration="normal" x="126.37804222106934" y="374" text-anchor="start" dominant-baseline="alphabetic" transform="matrix(1, 0, 0, 1, 0.5, 0.5)" stroke-opacity="0" stroke-linejoin="bevel" stroke-miterlimit="10">−0.5</text><text fill="rgb(0,0,0)" stroke="none" font-family="arial" font-size="11px" font-style="normal" font-weight="normal" text-decoration="normal" x="197.2078104019165" y="374" text-anchor="start" dominant-baseline="alphabetic" transform="matrix(1, 0, 0, 1, 0.5, 0.5)" fill-opacity="1">0</text><text fill="none" stroke="rgb(0,0,0)" font-family="arial" font-size="11px" font-style="normal" font-weight="normal" text-decoration="normal" x="197.2078104019165" y="374" text-anchor="start" dominant-baseline="alphabetic" transform="matrix(1, 0, 0, 1, 0.5, 0.5)" stroke-opacity="0" stroke-linejoin="bevel" stroke-miterlimit="10">0</text><text fill="rgb(0,0,0)" stroke="none" font-family="arial" font-size="11px" font-style="normal" font-weight="normal" text-decoration="normal" x="255.66256284713745" y="374" text-anchor="start" dominant-baseline="alphabetic" transform="matrix(1, 0, 0, 1, 0.5, 0.5)" fill-opacity="1">0.5</text><text fill="none" stroke="rgb(0,0,0)" font-family="arial" font-size="11px" font-style="normal" font-weight="normal" text-decoration="normal" x="255.66256284713745" y="374" text-anchor="start" dominant-baseline="alphabetic" transform="matrix(1, 0, 0, 1, 0.5, 0.5)" stroke-opacity="0" stroke-linejoin="bevel" stroke-miterlimit="10">0.5</text><text fill="rgb(0,0,0)" stroke="none" font-family="arial" font-size="11px" font-style="normal" font-weight="normal" text-decoration="normal" x="323.2839822769165" y="374" text-anchor="start" dominant-baseline="alphabetic" transform="matrix(1, 0, 0, 1, 0.5, 0.5)" fill-opacity="1">1</text><text fill="none" stroke="rgb(0,0,0)" font-family="arial" font-size="11px" font-style="normal" font-weight="normal" text-decoration="normal" x="323.2839822769165" y="374" text-anchor="start" dominant-baseline="alphabetic" transform="matrix(1, 0, 0, 1, 0.5, 0.5)" stroke-opacity="0" stroke-linejoin="bevel" stroke-miterlimit="10">1</text><text fill="rgb(0,0,0)" stroke="none" font-family="arial" font-size="11px" font-style="normal" font-weight="normal" text-decoration="normal" x="381.73873472213745" y="374" text-anchor="start" dominant-baseline="alphabetic" transform="matrix(1, 0, 0, 1, 0.5, 0.5)" fill-opacity="1">1.5</text><text fill="none" stroke="rgb(0,0,0)" font-family="arial" font-size="11px" font-style="normal" font-weight="normal" text-decoration="normal" x="381.73873472213745" y="374" text-anchor="start" dominant-baseline="alphabetic" transform="matrix(1, 0, 0, 1, 0.5, 0.5)" stroke-opacity="0" stroke-linejoin="bevel" stroke-miterlimit="10">1.5</text><text fill="rgb(0,0,0)" stroke="none" font-family="arial" font-size="13px" font-style="normal" font-weight="normal" text-decoration="normal" x="195.54999923706055" y="394" text-anchor="start" dominant-baseline="alphabetic" transform="matrix(1, 0, 0, 1, 0.5, 0.5)" fill-opacity="1">Fitness</text><text fill="none" stroke="rgb(0,0,0)" font-family="arial" font-size="13px" font-style="normal" font-weight="normal" text-decoration="normal" x="195.54999923706055" y="394" text-anchor="start" dominant-baseline="alphabetic" transform="matrix(1, 0, 0, 1, 0.5, 0.5)" stroke-opacity="0" stroke-linejoin="bevel" stroke-miterlimit="10">Fitness</text><path fill="none" stroke="rgb(0,0,0)" paint-order="fill" d="M 43.5 355.5 L 43.5 29.5" stroke-opacity="1" stroke-linejoin="bevel" stroke-miterlimit="10"/><path fill="none" stroke="rgb(0,0,0)" paint-order="fill" d="M 37.5 355.5 L 45.5 355.5 M 37.5 305.5 L 45.5 305.5 M 37.5 256.5 L 45.5 256.5 M 37.5 206.5 L 45.5 206.5 M 37.5 157.5 L 45.5 157.5 M 37.5 107.5 L 45.5 107.5 M 37.5 58.5 L 45.5 58.5" stroke-opacity="1" stroke-linejoin="bevel" stroke-miterlimit="10"/><path fill="none" stroke="rgb(0,0,0)" paint-order="fill" d="M 39.5 355.5 L 43.5 355.5 M 39.5 345.5 L 43.5 345.5 M 39.5 335.5 L 43.5 335.5 M 39.5 325.5 L 43.5 325.5 M 39.5 315.5 L 43.5 315.5 M 39.5 305.5 L 43.5 305.5 M 39.5 296.5 L 43.5 296.5 M 39.5 286.5 L 43.5 286.5 M 39.5 276.5 L 43.5 276.5 M 39.5 266.5 L 43.5 266.5 M 39.5 256.5 L 43.5 256.5 M 39.5 246.5 L 43.5 246.5 M 39.5 236.5 L 43.5 236.5 M 39.5 226.5 L 43.5 226.5 M 39.5 216.5 L 43.5 216.5 M 39.5 206.5 L 43.5 206.5 M 39.5 197.5 L 43.5 197.5 M 39.5 187.5 L 43.5 187.5 M 39.5 177.5 L 43.5 177.5 M 39.5 167.5 L 43.5 167.5 M 39.5 157.5 L 43.5 157.5 M 39.5 147.5 L 43.5 147.5 M 39.5 137.5 L 43.5 137.5 M 39.5 127.5 L 43.5 127.5 M 39.5 117.5 L 43.5 117.5 M 39.5 107.5 L 43.5 107.5 M 39.5 98.5 L 43.5 98.5 M 39.5 88.5 L 43.5 88.5 M 39.5 78.5 L 43.5 78.5 M 39.5 68.5 L 43.5 68.5 M 39.5 58.5 L 43.5 58.5 M 39.5 48.5 L 43.5 48.5 M 39.5 38.5 L 43.5 38.5" stroke-opacity="1" stroke-linejoin="bevel" stroke-miterlimit="10"/><text fill="rgb(0,0,0)" stroke="none" font-family="arial" font-size="11px" font-style="normal" font-weight="normal" text-decoration="normal" x="25.883333206176758" y="359" text-anchor="start" dominant-baseline="alphabetic" transform="matrix(1, 0, 0, 1, 0.5, 0.5)" fill-opacity="1">0</text><text fill="none" stroke="rgb(0,0,0)" font-family="arial" font-size="11px" font-style="normal" font-weight="normal" text-decoration="normal" x="25.883333206176758" y="359" text-anchor="start" dominant-baseline="alphabetic" transform="matrix(1, 0, 0, 1, 0.5, 0.5)" stroke-opacity="0" stroke-linejoin="bevel" stroke-miterlimit="10">0</text><text fill="rgb(0,0,0)" stroke="none" font-family="arial" font-size="11px" font-style="normal" font-weight="normal" text-decoration="normal" x="25.883333206176758" y="309.4849548339844" text-anchor="start" dominant-baseline="alphabetic" transform="matrix(1, 0, 0, 1, 0.5, 0.5)" fill-opacity="1">1</text><text fill="none" stroke="rgb(0,0,0)" font-family="arial" font-size="11px" font-style="normal" font-weight="normal" text-decoration="normal" x="25.883333206176758" y="309.4849548339844" text-anchor="start" dominant-baseline="alphabetic" transform="matrix(1, 0, 0, 1, 0.5, 0.5)" stroke-opacity="0" stroke-linejoin="bevel" stroke-miterlimit="10">1</text><text fill="rgb(0,0,0)" stroke="none" font-family="arial" font-size="11px" font-style="normal" font-weight="normal" text-decoration="normal" x="25.883333206176758" y="259.9698944091797" text-anchor="start" dominant-baseline="alphabetic" transform="matrix(1, 0, 0, 1, 0.5, 0.5)" fill-opacity="1">2</text><text fill="none" stroke="rgb(0,0,0)" font-family="arial" font-size="11px" font-style="normal" font-weight="normal" text-decoration="normal" x="25.883333206176758" y="259.9698944091797" text-anchor="start" dominant-baseline="alphabetic" transform="matrix(1, 0, 0, 1, 0.5, 0.5)" stroke-opacity="0" stroke-linejoin="bevel" stroke-miterlimit="10">2</text><text fill="rgb(0,0,0)" stroke="none" font-family="arial" font-size="11px" font-style="normal" font-weight="normal" text-decoration="normal" x="25.883333206176758" y="210.45484924316406" text-anchor="start" dominant-baseline="alphabetic" transform="matrix(1, 0, 0, 1, 0.5, 0.5)" fill-opacity="1">3</text><text fill="none" stroke="rgb(0,0,0)" font-family="arial" font-size="11px" font-style="normal" font-weight="normal" text-decoration="normal" x="25.883333206176758" y="210.45484924316406" text-anchor="start" dominant-baseline="alphabetic" transform="matrix(1, 0, 0, 1, 0.5, 0.5)" stroke-opacity="0" stroke-linejoin="bevel" stroke-miterlimit="10">3</text><text fill="rgb(0,0,0)" stroke="none" font-family="arial" font-size="11px" font-style="normal" font-weight="normal" text-decoration="normal" x="25.883333206176758" y="160.93980407714844" text-anchor="start" dominant-baseline="alphabetic" transform="matrix(1, 0, 0, 1, 0.5, 0.5)" fill-opacity="1">4</text><text fill="none" stroke="rgb(0,0,0)" font-family="arial" font-size="11px" font-style="normal" font-weight="normal" text-decoration="normal" x="25.883333206176758" y="160.93980407714844" text-anchor="start" dominant-baseline="alphabetic" transform="matrix(1, 0, 0, 1, 0.5, 0.5)" stroke-opacity="0" stroke-linejoin="bevel" stroke-miterlimit="10">4</text><text fill="rgb(0,0,0)" stroke="none" font-family="arial" font-size="11px" font-style="normal" font-weight="normal" text-decoration="normal" x="25.883333206176758" y="111.42475128173828" text-anchor="start" dominant-baseline="alphabetic" transform="matrix(1, 0, 0, 1, 0.5, 0.5)" fill-opacity="1">5</text><text fill="none" stroke="rgb(0,0,0)" font-family="arial" font-size="11px" font-style="normal" font-weight="normal" text-decoration="normal" x="25.883333206176758" y="111.42475128173828" text-anchor="start" dominant-baseline="alphabetic" transform="matrix(1, 0, 0, 1, 0.5, 0.5)" stroke-opacity="0" stroke-linejoin="bevel" stroke-miterlimit="10">5</text><text fill="rgb(0,0,0)" stroke="none" font-family="arial" font-size="11px" font-style="normal" font-weight="normal" text-decoration="normal" x="25.883333206176758" y="61.909706115722656" text-anchor="start" dominant-baseline="alphabetic" transform="matrix(1, 0, 0, 1, 0.5, 0.5)" fill-opacity="1">6</text><text fill="none" stroke="rgb(0,0,0)" font-family="arial" font-size="11px" font-style="normal" font-weight="normal" text-decoration="normal" x="25.883333206176758" y="61.909706115722656" text-anchor="start" dominant-baseline="alphabetic" transform="matrix(1, 0, 0, 1, 0.5, 0.5)" stroke-opacity="0" stroke-linejoin="bevel" stroke-miterlimit="10">6</text><text fill="rgb(0,0,0)" stroke="none" font-family="arial" font-size="13px" font-style="normal" font-weight="normal" text-decoration="normal" x="-3.791666030883789" y="189" text-anchor="start" dominant-baseline="alphabetic" transform="matrix(6.123233995736766e-17, -1, 1, 6.123233995736766e-17, -173.61666679382324, 210.38333320617676)" fill-opacity="1">Density</text><text fill="none" stroke="rgb(0,0,0)" font-family="arial" font-size="13px" font-style="normal" font-weight="normal" text-decoration="normal" x="-3.791666030883789" y="189" text-anchor="start" dominant-baseline="alphabetic" transform="matrix(6.123233995736766e-17, -1, 1, 6.123233995736766e-17, -173.61666679382324, 210.38333320617676)" stroke-opacity="0" stroke-linejoin="bevel" stroke-miterlimit="10">Density</text><path fill="rgb(255,255,255)" stroke="rgb(229,229,229)" paint-order="fill" d="M 179.5 39.5 L 380.5 39.5 L 380.5 240.5 L 179.5 240.5 L 179.5 39.5 Z" fill-opacity="0.9490196078431372" clip-path="url(#AgJSLmUXgTQE)" stroke-opacity="0.5019607843137255" stroke-linejoin="bevel" stroke-miterlimit="10"/><path fill="rgb(75,172,198)" stroke="rgb(0,0,0)" paint-order="fill" d="M 191.5 51.5 L 207.5 51.5 L 207.5 67.5 L 191.5 67.5 L 191.5 51.5 Z" fill-opacity="0.5019607843137255" clip-path="url(#AgJSLmUXgTQE)" stroke-opacity="0" stroke-linejoin="bevel" stroke-miterlimit="10"/><g clip-path="url(#AgJSLmUXgTQE)"><text fill="rgb(68,68,68)" stroke="none" font-family="helvetica" font-size="13px" font-style="normal" font-weight="normal" text-decoration="normal" x="0" y="4.5" text-anchor="start" dominant-baseline="alphabetic" transform="matrix(1, 0, 0, 1, 214.5, 59.5)" fill-opacity="1">Codon-level</text></g><g clip-path="url(#AgJSLmUXgTQE)"><text fill="none" stroke="rgb(0,0,0)" font-family="helvetica" font-size="13px" font-style="normal" font-weight="normal" text-decoration="normal" x="0" y="4.5" text-anchor="start" dominant-baseline="alphabetic" transform="matrix(1, 0, 0, 1, 214.5, 59.5)" stroke-opacity="0" stroke-linejoin="bevel" stroke-miterlimit="10">Codon-level</text></g><path fill="none" stroke="rgb(75,172,198)" paint-order="fill" d="M 189.5 82.5 L 209.5 82.5" stroke-opacity="1" stroke-linejoin="bevel" stroke-miterlimit="10" stroke-width="1.6" stroke-dasharray="2,4" clip-path="url(#AgJSLmUXgTQE)"/><g clip-path="url(#AgJSLmUXgTQE)"><text fill="rgb(68,68,68)" stroke="none" font-family="helvetica" font-size="13px" font-style="normal" font-weight="normal" text-decoration="normal" x="0" y="4.5" text-anchor="start" dominant-baseline="alphabetic" transform="matrix(1, 0, 0, 1, 214.5, 82.5)" fill-opacity="1">Mean codon fitness</text></g><g clip-path="url(#AgJSLmUXgTQE)"><text fill="none" stroke="rgb(0,0,0)" font-family="helvetica" font-size="13px" font-style="normal" font-weight="normal" text-decoration="normal" x="0" y="4.5" text-anchor="start" dominant-baseline="alphabetic" transform="matrix(1, 0, 0, 1, 214.5, 82.5)" stroke-opacity="0" stroke-linejoin="bevel" stroke-miterlimit="10">Mean codon fitness</text></g><path fill="none" stroke="rgb(75,172,198)" paint-order="fill" d="M 189.5 105.5 L 209.5 105.5" stroke-opacity="1" stroke-linejoin="bevel" stroke-miterlimit="10" stroke-width="1.6" clip-path="url(#AgJSLmUXgTQE)"/><g clip-path="url(#AgJSLmUXgTQE)"><text fill="rgb(68,68,68)" stroke="none" font-family="helvetica" font-size="13px" font-style="normal" font-weight="normal" text-decoration="normal" x="0" y="4.5" text-anchor="start" dominant-baseline="alphabetic" transform="matrix(1, 0, 0, 1, 214.5, 105.5)" fill-opacity="1">Median codon fitness</text></g><g clip-path="url(#AgJSLmUXgTQE)"><text fill="none" stroke="rgb(0,0,0)" font-family="helvetica" font-size="13px" font-style="normal" font-weight="normal" text-decoration="normal" x="0" y="4.5" text-anchor="start" dominant-baseline="alphabetic" transform="matrix(1, 0, 0, 1, 214.5, 105.5)" stroke-opacity="0" stroke-linejoin="bevel" stroke-miterlimit="10">Median codon fitness</text></g><path fill="rgb(247,150,70)" stroke="rgb(0,0,0)" paint-order="fill" d="M 191.5 120.5 L 207.5 120.5 L 207.5 136.5 L 191.5 136.5 L 191.5 120.5 Z" fill-opacity="0.5019607843137255" clip-path="url(#AgJSLmUXgTQE)" stroke-opacity="0" stroke-linejoin="bevel" stroke-miterlimit="10"/><g clip-path="url(#AgJSLmUXgTQE)"><text fill="rgb(68,68,68)" stroke="none" font-family="helvetica" font-size="13px" font-style="normal" font-weight="normal" text-decoration="normal" x="0" y="4.5" text-anchor="start" dominant-baseline="alphabetic" transform="matrix(1, 0, 0, 1, 214.5, 128.5)" fill-opacity="1">AA-level</text></g><g clip-path="url(#AgJSLmUXgTQE)"><text fill="none" stroke="rgb(0,0,0)" font-family="helvetica" font-size="13px" font-style="normal" font-weight="normal" text-decoration="normal" x="0" y="4.5" text-anchor="start" dominant-baseline="alphabetic" transform="matrix(1, 0, 0, 1, 214.5, 128.5)" stroke-opacity="0" stroke-linejoin="bevel" stroke-miterlimit="10">AA-level</text></g><path fill="none" stroke="rgb(247,150,70)" paint-order="fill" d="M 189.5 151.5 L 209.5 151.5" stroke-opacity="1" stroke-linejoin="bevel" stroke-miterlimit="10" stroke-width="1.6" stroke-dasharray="2,4" clip-path="url(#AgJSLmUXgTQE)"/><g clip-path="url(#AgJSLmUXgTQE)"><text fill="rgb(68,68,68)" stroke="none" font-family="helvetica" font-size="13px" font-style="normal" font-weight="normal" text-decoration="normal" x="0" y="4.5" text-anchor="start" dominant-baseline="alphabetic" transform="matrix(1, 0, 0, 1, 214.5, 151.5)" fill-opacity="1">Mean AA fitness</text></g><g clip-path="url(#AgJSLmUXgTQE)"><text fill="none" stroke="rgb(0,0,0)" font-family="helvetica" font-size="13px" font-style="normal" font-weight="normal" text-decoration="normal" x="0" y="4.5" text-anchor="start" dominant-baseline="alphabetic" transform="matrix(1, 0, 0, 1, 214.5, 151.5)" stroke-opacity="0" stroke-linejoin="bevel" stroke-miterlimit="10">Mean AA fitness</text></g><path fill="none" stroke="rgb(247,150,70)" paint-order="fill" d="M 189.5 174.5 L 209.5 174.5" stroke-opacity="1" stroke-linejoin="bevel" stroke-miterlimit="10" stroke-width="1.6" clip-path="url(#AgJSLmUXgTQE)"/><g clip-path="url(#AgJSLmUXgTQE)"><text fill="rgb(68,68,68)" stroke="none" font-family="helvetica" font-size="13px" font-style="normal" font-weight="normal" text-decoration="normal" x="0" y="4.5" text-anchor="start" dominant-baseline="alphabetic" transform="matrix(1, 0, 0, 1, 214.5, 174.5)" fill-opacity="1">Median AA fitness</text></g><g clip-path="url(#AgJSLmUXgTQE)"><text fill="none" stroke="rgb(0,0,0)" font-family="helvetica" font-size="13px" font-style="normal" font-weight="normal" text-decoration="normal" x="0" y="4.5" text-anchor="start" dominant-baseline="alphabetic" transform="matrix(1, 0, 0, 1, 214.5, 174.5)" stroke-opacity="0" stroke-linejoin="bevel" stroke-miterlimit="10">Median AA fitness</text></g><path fill="none" stroke="rgb(128,128,128)" paint-order="fill" d="M 189.5 197.5 L 209.5 197.5" stroke-opacity="1" stroke-linejoin="bevel" stroke-miterlimit="10" stroke-width="1.6" clip-path="url(#AgJSLmUXgTQE)"/><g clip-path="url(#AgJSLmUXgTQE)"><text fill="rgb(68,68,68)" stroke="none" font-family="helvetica" font-size="13px" font-style="normal" font-weight="normal" text-decoration="normal" x="0" y="4.5" text-anchor="start" dominant-baseline="alphabetic" transform="matrix(1, 0, 0, 1, 214.5, 197.5)" fill-opacity="1">Calculated active cutoff</text></g><g clip-path="url(#AgJSLmUXgTQE)"><text fill="none" stroke="rgb(0,0,0)" font-family="helvetica" font-size="13px" font-style="normal" font-weight="normal" text-decoration="normal" x="0" y="4.5" text-anchor="start" dominant-baseline="alphabetic" transform="matrix(1, 0, 0, 1, 214.5, 197.5)" stroke-opacity="0" stroke-linejoin="bevel" stroke-miterlimit="10">Calculated active cutoff</text></g><path fill="none" stroke="rgb(128,128,128)" paint-order="fill" d="M 189.5 220.5 L 209.5 220.5" stroke-opacity="1" stroke-linejoin="bevel" stroke-miterlimit="10" stroke-width="1.6" stroke-dasharray="6" clip-path="url(#AgJSLmUXgTQE)"/><g clip-path="url(#AgJSLmUXgTQE)"><text fill="rgb(68,68,68)" stroke="none" font-family="helvetica" font-size="13px" font-style="normal" font-weight="normal" text-decoration="normal" x="0" y="4.5" text-anchor="start" dominant-baseline="alphabetic" transform="matrix(1, 0, 0, 1, 214.5, 220.5)" fill-opacity="1">Defined active cutoff</text></g><g clip-path="url(#AgJSLmUXgTQE)"><text fill="none" stroke="rgb(0,0,0)" font-family="helvetica" font-size="13px" font-style="normal" font-weight="normal" text-decoration="normal" x="0" y="4.5" text-anchor="start" dominant-baseline="alphabetic" transform="matrix(1, 0, 0, 1, 214.5, 220.5)" stroke-opacity="0" stroke-linejoin="bevel" stroke-miterlimit="10">Defined active cutoff</text></g><text fill="rgb(68,68,68)" stroke="none" font-family="helvetica" font-size="13px" font-style="normal" font-weight="bold" text-decoration="normal" x="43" y="20" text-anchor="start" dominant-baseline="alphabetic" transform="matrix(1, 0, 0, 1, 0.5, 0.5)" fill-opacity="1">DHFR fitness distribution</text><text fill="none" stroke="rgb(0,0,0)" font-family="helvetica" font-size="13px" font-style="normal" font-weight="bold" text-decoration="normal" x="43" y="20" text-anchor="start" dominant-baseline="alphabetic" transform="matrix(1, 0, 0, 1, 0.5, 0.5)" stroke-opacity="0" stroke-miterlimit="10" stroke-dasharray="">DHFR fitness distribution</text></svg>