<?xml version="1.0" encoding="utf-8" standalone="no"?>
<!DOCTYPE svg PUBLIC "-//W3C//DTD SVG 1.1//EN"
  "http://www.w3.org/Graphics/SVG/1.1/DTD/svg11.dtd">
<svg xmlns:xlink="http://www.w3.org/1999/xlink" width="712.376562pt" height="279.835469pt" viewBox="0 0 712.376562 279.835469" xmlns="http://www.w3.org/2000/svg" version="1.1">
 <metadata>
  <rdf:RDF xmlns:dc="http://purl.org/dc/elements/1.1/" xmlns:cc="http://creativecommons.org/ns#" xmlns:rdf="http://www.w3.org/1999/02/22-rdf-syntax-ns#">
   <cc:Work>
    <dc:type rdf:resource="http://purl.org/dc/dcmitype/StillImage"/>
    <dc:date>2024-10-16T21:25:11.167993</dc:date>
    <dc:format>image/svg+xml</dc:format>
    <dc:creator>
     <cc:Agent>
      <dc:title>Matplotlib v3.8.4, https://matplotlib.org/</dc:title>
     </cc:Agent>
    </dc:creator>
   </cc:Work>
  </rdf:RDF>
 </metadata>
 <defs>
  <style type="text/css">*{stroke-linejoin: round; stroke-linecap: butt}</style>
 </defs>
 <g id="figure_1">
  <g id="patch_1">
   <path d="M 0 279.835469 
L 712.376562 279.835469 
L 712.376562 0 
L 0 0 
z
" style="fill: #ffffff"/>
  </g>
  <g id="axes_1">
   <g id="patch_2">
    <path d="M 43.78125 242.279219 
L 276.61125 242.279219 
L 276.61125 10.999219 
L 43.78125 10.999219 
z
" style="fill: #ffffff"/>
   </g>
   <g id="PolyCollection_1">
    <defs>
     <path id="m0189f9b524" d="M 43.78125 -250.124475 
L 43.78125 -88.498637 
L 58.827059 -107.361922 
L 82.567584 -138.468727 
L 116.027976 -160.871365 
L 139.768501 -172.36401 
L 158.183083 -176.345667 
L 173.228892 -182.537186 
L 185.949942 -187.959938 
L 223.249327 -207.070743 
L 276.61125 -215.596431 
L 276.61125 -288.552049 
L 276.61125 -288.552049 
L 223.249327 -286.36906 
L 185.949942 -286.003437 
L 173.228892 -284.867544 
L 158.183083 -282.56425 
L 139.768501 -281.782287 
L 116.027976 -280.150992 
L 82.567584 -273.059785 
L 58.827059 -261.068256 
L 43.78125 -250.124475 
z
" style="stroke: #666666; stroke-opacity: 0.01"/>
    </defs>
    <g clip-path="url(#p43b07d4d18)">
     <use xlink:href="#m0189f9b524" x="0" y="279.835469" style="fill: #666666; fill-opacity: 0.01; stroke: #666666; stroke-opacity: 0.01"/>
    </g>
   </g>
   <g id="PolyCollection_2">
    <defs>
     <path id="mf8c217d832" d="M 43.78125 -252.296346 
L 43.78125 -109.298101 
L 58.827059 -135.379347 
L 82.567584 -163.790317 
L 116.027976 -187.945546 
L 139.768501 -194.925094 
L 158.183083 -199.234605 
L 173.228892 -199.74174 
L 185.949942 -201.145587 
L 223.249327 -206.559852 
L 276.61125 -210.897519 
L 276.61125 -283.813784 
L 276.61125 -283.813784 
L 223.249327 -283.030495 
L 185.949942 -282.529655 
L 173.228892 -282.262828 
L 158.183083 -283.713136 
L 139.768501 -283.572503 
L 116.027976 -282.890761 
L 82.567584 -276.439047 
L 58.827059 -263.81552 
L 43.78125 -252.296346 
z
" style="stroke: #4bacc6; stroke-opacity: 0.01"/>
    </defs>
    <g clip-path="url(#p43b07d4d18)">
     <use xlink:href="#mf8c217d832" x="0" y="279.835469" style="fill: #4bacc6; fill-opacity: 0.01; stroke: #4bacc6; stroke-opacity: 0.01"/>
    </g>
   </g>
   <g id="PolyCollection_3">
    <defs>
     <path id="m73b532fe00" d="M 43.78125 -260.240376 
L 43.78125 -112.460406 
L 58.827059 -132.683348 
L 82.567584 -169.741219 
L 116.027976 -194.571437 
L 139.768501 -198.610989 
L 158.183083 -202.168378 
L 173.228892 -203.836096 
L 185.949942 -204.74777 
L 223.249327 -206.843188 
L 276.61125 -209.156206 
L 276.61125 -288.565452 
L 276.61125 -288.565452 
L 223.249327 -288.89084 
L 185.949942 -288.101466 
L 173.228892 -288.25655 
L 158.183083 -287.58618 
L 139.768501 -287.745264 
L 116.027976 -286.192748 
L 82.567584 -282.791351 
L 58.827059 -269.925755 
L 43.78125 -260.240376 
z
" style="stroke: #9bbb59; stroke-opacity: 0.01"/>
    </defs>
    <g clip-path="url(#p43b07d4d18)">
     <use xlink:href="#m73b532fe00" x="0" y="279.835469" style="fill: #9bbb59; fill-opacity: 0.01; stroke: #9bbb59; stroke-opacity: 0.01"/>
    </g>
   </g>
   <g id="PolyCollection_4">
    <defs>
     <path id="me956265068" d="M 43.78125 -254.554203 
L 43.78125 -106.371074 
L 58.827059 -127.810856 
L 82.567584 -166.490211 
L 116.027976 -187.166496 
L 139.768501 -193.068916 
L 158.183083 -196.002287 
L 173.228892 -198.557631 
L 185.949942 -201.460488 
L 223.249327 -205.952869 
L 276.61125 -209.344046 
L 276.61125 -287.6042 
L 276.61125 -287.6042 
L 223.249327 -287.678771 
L 185.949942 -287.595556 
L 173.228892 -286.945762 
L 158.183083 -286.203571 
L 139.768501 -285.204497 
L 116.027976 -284.443797 
L 82.567584 -278.106752 
L 58.827059 -265.467485 
L 43.78125 -254.554203 
z
" style="stroke: #8064a2; stroke-opacity: 0.01"/>
    </defs>
    <g clip-path="url(#p43b07d4d18)">
     <use xlink:href="#me956265068" x="0" y="279.835469" style="fill: #8064a2; fill-opacity: 0.01; stroke: #8064a2; stroke-opacity: 0.01"/>
    </g>
   </g>
   <g id="PolyCollection_5">
    <defs>
     <path id="mdb85612ade" d="M 43.78125 -266.083186 
L 43.78125 -122.61407 
L 58.827059 -143.713957 
L 82.567584 -167.099414 
L 116.027976 -192.404204 
L 139.768501 -198.314126 
L 158.183083 -201.082331 
L 173.228892 -203.383503 
L 185.949942 -204.784717 
L 223.249327 -206.17123 
L 276.61125 -207.670286 
L 276.61125 -290.730141 
L 276.61125 -290.730141 
L 223.249327 -290.057649 
L 185.949942 -288.742542 
L 173.228892 -288.372283 
L 158.183083 -288.197508 
L 139.768501 -287.146003 
L 116.027976 -284.412396 
L 82.567584 -281.061218 
L 58.827059 -273.747521 
L 43.78125 -266.083186 
z
" style="stroke: #f9be00; stroke-opacity: 0.01"/>
    </defs>
    <g clip-path="url(#p43b07d4d18)">
     <use xlink:href="#mdb85612ade" x="0" y="279.835469" style="fill: #f9be00; fill-opacity: 0.01; stroke: #f9be00; stroke-opacity: 0.01"/>
    </g>
   </g>
   <g id="PolyCollection_6">
    <defs>
     <path id="m414080a629" d="M 43.78125 -255.90176 
L 43.78125 -105.30065 
L 58.827059 -137.61811 
L 82.567584 -166.428515 
L 116.027976 -192.890067 
L 139.768501 -199.101978 
L 158.183083 -202.602462 
L 173.228892 -204.671025 
L 185.949942 -207.71519 
L 223.249327 -209.168835 
L 276.61125 -212.774291 
L 276.61125 -292.179218 
L 276.61125 -292.179218 
L 223.249327 -290.531277 
L 185.949942 -289.479259 
L 173.228892 -287.765844 
L 158.183083 -287.69149 
L 139.768501 -286.282592 
L 116.027976 -283.853648 
L 82.567584 -280.638286 
L 58.827059 -270.120153 
L 43.78125 -255.90176 
z
" style="stroke: #ae682f; stroke-opacity: 0.01"/>
    </defs>
    <g clip-path="url(#p43b07d4d18)">
     <use xlink:href="#m414080a629" x="0" y="279.835469" style="fill: #ae682f; fill-opacity: 0.01; stroke: #ae682f; stroke-opacity: 0.01"/>
    </g>
   </g>
   <g id="PolyCollection_7">
    <defs>
     <path id="m9d169b34ee" d="M 43.78125 -258.022567 
L 43.78125 -105.169367 
L 58.827059 -130.404285 
L 82.567584 -152.374352 
L 116.027976 -176.24558 
L 139.768501 -188.498776 
L 158.183083 -194.5137 
L 173.228892 -198.602691 
L 185.949942 -200.037234 
L 223.249327 -204.968016 
L 276.61125 -206.981913 
L 276.61125 -283.867723 
L 276.61125 -283.867723 
L 223.249327 -283.949522 
L 185.949942 -284.071952 
L 173.228892 -284.040263 
L 158.183083 -284.227573 
L 139.768501 -283.349078 
L 116.027976 -282.761764 
L 82.567584 -277.327923 
L 58.827059 -268.701001 
L 43.78125 -258.022567 
z
" style="stroke: #f79646; stroke-opacity: 0.01"/>
    </defs>
    <g clip-path="url(#p43b07d4d18)">
     <use xlink:href="#m9d169b34ee" x="0" y="279.835469" style="fill: #f79646; fill-opacity: 0.01; stroke: #f79646; stroke-opacity: 0.01"/>
    </g>
   </g>
   <g id="PolyCollection_8">
    <defs>
     <path id="mb8d209b98b" d="M 43.78125 -270.751202 
L 43.78125 -154.312472 
L 58.827059 -174.948151 
L 82.567584 -191.63924 
L 116.027976 -200.997572 
L 139.768501 -204.010308 
L 158.183083 -204.969917 
L 173.228892 -204.969917 
L 185.949942 -204.969917 
L 223.249327 -204.969917 
L 276.61125 -204.969917 
L 276.61125 -289.853942 
L 276.61125 -289.853942 
L 223.249327 -289.853942 
L 185.949942 -289.853942 
L 173.228892 -289.853942 
L 158.183083 -289.853942 
L 139.768501 -289.424162 
L 116.027976 -288.691263 
L 82.567584 -283.424909 
L 58.827059 -276.930342 
L 43.78125 -270.751202 
z
" style="stroke: #6e4a2e; stroke-opacity: 0.01"/>
    </defs>
    <g clip-path="url(#p43b07d4d18)">
     <use xlink:href="#mb8d209b98b" x="0" y="279.835469" style="fill: #6e4a2e; fill-opacity: 0.01; stroke: #6e4a2e; stroke-opacity: 0.01"/>
    </g>
   </g>
   <g id="matplotlib.axis_1">
    <g id="xtick_1">
     <g id="line2d_1">
      <defs>
       <path id="mf3b9617017" d="M 0 0 
L 0 3.5 
" style="stroke: #000000; stroke-width: 0.8"/>
      </defs>
      <g>
       <use xlink:href="#mf3b9617017" x="43.78125" y="242.279219" style="stroke: #000000; stroke-width: 0.8"/>
      </g>
     </g>
     <g id="text_1">
      <!-- 120 -->
      <g transform="translate(34.2375 256.877656) scale(0.1 -0.1)">
       <defs>
        <path id="DejaVuSans-31" d="M 794 531 
L 1825 531 
L 1825 4091 
L 703 3866 
L 703 4441 
L 1819 4666 
L 2450 4666 
L 2450 531 
L 3481 531 
L 3481 0 
L 794 0 
L 794 531 
z
" transform="scale(0.015625)"/>
        <path id="DejaVuSans-32" d="M 1228 531 
L 3431 531 
L 3431 0 
L 469 0 
L 469 531 
Q 828 903 1448 1529 
Q 2069 2156 2228 2338 
Q 2531 2678 2651 2914 
Q 2772 3150 2772 3378 
Q 2772 3750 2511 3984 
Q 2250 4219 1831 4219 
Q 1534 4219 1204 4116 
Q 875 4013 500 3803 
L 500 4441 
Q 881 4594 1212 4672 
Q 1544 4750 1819 4750 
Q 2544 4750 2975 4387 
Q 3406 4025 3406 3419 
Q 3406 3131 3298 2873 
Q 3191 2616 2906 2266 
Q 2828 2175 2409 1742 
Q 1991 1309 1228 531 
z
" transform="scale(0.015625)"/>
        <path id="DejaVuSans-30" d="M 2034 4250 
Q 1547 4250 1301 3770 
Q 1056 3291 1056 2328 
Q 1056 1369 1301 889 
Q 1547 409 2034 409 
Q 2525 409 2770 889 
Q 3016 1369 3016 2328 
Q 3016 3291 2770 3770 
Q 2525 4250 2034 4250 
z
M 2034 4750 
Q 2819 4750 3233 4129 
Q 3647 3509 3647 2328 
Q 3647 1150 3233 529 
Q 2819 -91 2034 -91 
Q 1250 -91 836 529 
Q 422 1150 422 2328 
Q 422 3509 836 4129 
Q 1250 4750 2034 4750 
z
" transform="scale(0.015625)"/>
       </defs>
       <use xlink:href="#DejaVuSans-31"/>
       <use xlink:href="#DejaVuSans-32" x="63.623047"/>
       <use xlink:href="#DejaVuSans-30" x="127.246094"/>
      </g>
     </g>
    </g>
    <g id="xtick_2">
     <g id="line2d_2">
      <g>
       <use xlink:href="#mf3b9617017" x="82.567584" y="242.279219" style="stroke: #000000; stroke-width: 0.8"/>
      </g>
     </g>
     <g id="text_2">
      <!-- 192 -->
      <g transform="translate(73.023834 256.877656) scale(0.1 -0.1)">
       <defs>
        <path id="DejaVuSans-39" d="M 703 97 
L 703 672 
Q 941 559 1184 500 
Q 1428 441 1663 441 
Q 2288 441 2617 861 
Q 2947 1281 2994 2138 
Q 2813 1869 2534 1725 
Q 2256 1581 1919 1581 
Q 1219 1581 811 2004 
Q 403 2428 403 3163 
Q 403 3881 828 4315 
Q 1253 4750 1959 4750 
Q 2769 4750 3195 4129 
Q 3622 3509 3622 2328 
Q 3622 1225 3098 567 
Q 2575 -91 1691 -91 
Q 1453 -91 1209 -44 
Q 966 3 703 97 
z
M 1959 2075 
Q 2384 2075 2632 2365 
Q 2881 2656 2881 3163 
Q 2881 3666 2632 3958 
Q 2384 4250 1959 4250 
Q 1534 4250 1286 3958 
Q 1038 3666 1038 3163 
Q 1038 2656 1286 2365 
Q 1534 2075 1959 2075 
z
" transform="scale(0.015625)"/>
       </defs>
       <use xlink:href="#DejaVuSans-31"/>
       <use xlink:href="#DejaVuSans-39" x="63.623047"/>
       <use xlink:href="#DejaVuSans-32" x="127.246094"/>
      </g>
     </g>
    </g>
    <g id="xtick_3">
     <g id="line2d_3">
      <g>
       <use xlink:href="#mf3b9617017" x="116.027976" y="242.279219" style="stroke: #000000; stroke-width: 0.8"/>
      </g>
     </g>
     <g id="text_3">
      <!-- 288 -->
      <g transform="translate(106.484226 256.877656) scale(0.1 -0.1)">
       <defs>
        <path id="DejaVuSans-38" d="M 2034 2216 
Q 1584 2216 1326 1975 
Q 1069 1734 1069 1313 
Q 1069 891 1326 650 
Q 1584 409 2034 409 
Q 2484 409 2743 651 
Q 3003 894 3003 1313 
Q 3003 1734 2745 1975 
Q 2488 2216 2034 2216 
z
M 1403 2484 
Q 997 2584 770 2862 
Q 544 3141 544 3541 
Q 544 4100 942 4425 
Q 1341 4750 2034 4750 
Q 2731 4750 3128 4425 
Q 3525 4100 3525 3541 
Q 3525 3141 3298 2862 
Q 3072 2584 2669 2484 
Q 3125 2378 3379 2068 
Q 3634 1759 3634 1313 
Q 3634 634 3220 271 
Q 2806 -91 2034 -91 
Q 1263 -91 848 271 
Q 434 634 434 1313 
Q 434 1759 690 2068 
Q 947 2378 1403 2484 
z
M 1172 3481 
Q 1172 3119 1398 2916 
Q 1625 2713 2034 2713 
Q 2441 2713 2670 2916 
Q 2900 3119 2900 3481 
Q 2900 3844 2670 4047 
Q 2441 4250 2034 4250 
Q 1625 4250 1398 4047 
Q 1172 3844 1172 3481 
z
" transform="scale(0.015625)"/>
       </defs>
       <use xlink:href="#DejaVuSans-32"/>
       <use xlink:href="#DejaVuSans-38" x="63.623047"/>
       <use xlink:href="#DejaVuSans-38" x="127.246094"/>
      </g>
     </g>
    </g>
    <g id="xtick_4">
     <g id="line2d_4">
      <g>
       <use xlink:href="#mf3b9617017" x="158.183083" y="242.279219" style="stroke: #000000; stroke-width: 0.8"/>
      </g>
     </g>
     <g id="text_4">
      <!-- 480 -->
      <g transform="translate(148.639333 256.877656) scale(0.1 -0.1)">
       <defs>
        <path id="DejaVuSans-34" d="M 2419 4116 
L 825 1625 
L 2419 1625 
L 2419 4116 
z
M 2253 4666 
L 3047 4666 
L 3047 1625 
L 3713 1625 
L 3713 1100 
L 3047 1100 
L 3047 0 
L 2419 0 
L 2419 1100 
L 313 1100 
L 313 1709 
L 2253 4666 
z
" transform="scale(0.015625)"/>
       </defs>
       <use xlink:href="#DejaVuSans-34"/>
       <use xlink:href="#DejaVuSans-38" x="63.623047"/>
       <use xlink:href="#DejaVuSans-30" x="127.246094"/>
      </g>
     </g>
    </g>
    <g id="xtick_5">
     <g id="line2d_5">
      <g>
       <use xlink:href="#mf3b9617017" x="223.249327" y="242.279219" style="stroke: #000000; stroke-width: 0.8"/>
      </g>
     </g>
     <g id="text_5">
      <!-- 1056 -->
      <g transform="translate(210.524327 256.877656) scale(0.1 -0.1)">
       <defs>
        <path id="DejaVuSans-35" d="M 691 4666 
L 3169 4666 
L 3169 4134 
L 1269 4134 
L 1269 2991 
Q 1406 3038 1543 3061 
Q 1681 3084 1819 3084 
Q 2600 3084 3056 2656 
Q 3513 2228 3513 1497 
Q 3513 744 3044 326 
Q 2575 -91 1722 -91 
Q 1428 -91 1123 -41 
Q 819 9 494 109 
L 494 744 
Q 775 591 1075 516 
Q 1375 441 1709 441 
Q 2250 441 2565 725 
Q 2881 1009 2881 1497 
Q 2881 1984 2565 2268 
Q 2250 2553 1709 2553 
Q 1456 2553 1204 2497 
Q 953 2441 691 2322 
L 691 4666 
z
" transform="scale(0.015625)"/>
        <path id="DejaVuSans-36" d="M 2113 2584 
Q 1688 2584 1439 2293 
Q 1191 2003 1191 1497 
Q 1191 994 1439 701 
Q 1688 409 2113 409 
Q 2538 409 2786 701 
Q 3034 994 3034 1497 
Q 3034 2003 2786 2293 
Q 2538 2584 2113 2584 
z
M 3366 4563 
L 3366 3988 
Q 3128 4100 2886 4159 
Q 2644 4219 2406 4219 
Q 1781 4219 1451 3797 
Q 1122 3375 1075 2522 
Q 1259 2794 1537 2939 
Q 1816 3084 2150 3084 
Q 2853 3084 3261 2657 
Q 3669 2231 3669 1497 
Q 3669 778 3244 343 
Q 2819 -91 2113 -91 
Q 1303 -91 875 529 
Q 447 1150 447 2328 
Q 447 3434 972 4092 
Q 1497 4750 2381 4750 
Q 2619 4750 2861 4703 
Q 3103 4656 3366 4563 
z
" transform="scale(0.015625)"/>
       </defs>
       <use xlink:href="#DejaVuSans-31"/>
       <use xlink:href="#DejaVuSans-30" x="63.623047"/>
       <use xlink:href="#DejaVuSans-35" x="127.246094"/>
       <use xlink:href="#DejaVuSans-36" x="190.869141"/>
      </g>
     </g>
    </g>
    <g id="xtick_6">
     <g id="line2d_6">
      <g>
       <use xlink:href="#mf3b9617017" x="276.61125" y="242.279219" style="stroke: #000000; stroke-width: 0.8"/>
      </g>
     </g>
     <g id="text_6">
      <!-- 2016 -->
      <g transform="translate(263.88625 256.877656) scale(0.1 -0.1)">
       <use xlink:href="#DejaVuSans-32"/>
       <use xlink:href="#DejaVuSans-30" x="63.623047"/>
       <use xlink:href="#DejaVuSans-31" x="127.246094"/>
       <use xlink:href="#DejaVuSans-36" x="190.869141"/>
      </g>
     </g>
    </g>
    <g id="text_7">
     <!-- Total number of variants -->
     <g transform="translate(99.153281 270.555781) scale(0.1 -0.1)">
      <defs>
       <path id="DejaVuSans-54" d="M -19 4666 
L 3928 4666 
L 3928 4134 
L 2272 4134 
L 2272 0 
L 1638 0 
L 1638 4134 
L -19 4134 
L -19 4666 
z
" transform="scale(0.015625)"/>
       <path id="DejaVuSans-6f" d="M 1959 3097 
Q 1497 3097 1228 2736 
Q 959 2375 959 1747 
Q 959 1119 1226 758 
Q 1494 397 1959 397 
Q 2419 397 2687 759 
Q 2956 1122 2956 1747 
Q 2956 2369 2687 2733 
Q 2419 3097 1959 3097 
z
M 1959 3584 
Q 2709 3584 3137 3096 
Q 3566 2609 3566 1747 
Q 3566 888 3137 398 
Q 2709 -91 1959 -91 
Q 1206 -91 779 398 
Q 353 888 353 1747 
Q 353 2609 779 3096 
Q 1206 3584 1959 3584 
z
" transform="scale(0.015625)"/>
       <path id="DejaVuSans-74" d="M 1172 4494 
L 1172 3500 
L 2356 3500 
L 2356 3053 
L 1172 3053 
L 1172 1153 
Q 1172 725 1289 603 
Q 1406 481 1766 481 
L 2356 481 
L 2356 0 
L 1766 0 
Q 1100 0 847 248 
Q 594 497 594 1153 
L 594 3053 
L 172 3053 
L 172 3500 
L 594 3500 
L 594 4494 
L 1172 4494 
z
" transform="scale(0.015625)"/>
       <path id="DejaVuSans-61" d="M 2194 1759 
Q 1497 1759 1228 1600 
Q 959 1441 959 1056 
Q 959 750 1161 570 
Q 1363 391 1709 391 
Q 2188 391 2477 730 
Q 2766 1069 2766 1631 
L 2766 1759 
L 2194 1759 
z
M 3341 1997 
L 3341 0 
L 2766 0 
L 2766 531 
Q 2569 213 2275 61 
Q 1981 -91 1556 -91 
Q 1019 -91 701 211 
Q 384 513 384 1019 
Q 384 1609 779 1909 
Q 1175 2209 1959 2209 
L 2766 2209 
L 2766 2266 
Q 2766 2663 2505 2880 
Q 2244 3097 1772 3097 
Q 1472 3097 1187 3025 
Q 903 2953 641 2809 
L 641 3341 
Q 956 3463 1253 3523 
Q 1550 3584 1831 3584 
Q 2591 3584 2966 3190 
Q 3341 2797 3341 1997 
z
" transform="scale(0.015625)"/>
       <path id="DejaVuSans-6c" d="M 603 4863 
L 1178 4863 
L 1178 0 
L 603 0 
L 603 4863 
z
" transform="scale(0.015625)"/>
       <path id="DejaVuSans-20" transform="scale(0.015625)"/>
       <path id="DejaVuSans-6e" d="M 3513 2113 
L 3513 0 
L 2938 0 
L 2938 2094 
Q 2938 2591 2744 2837 
Q 2550 3084 2163 3084 
Q 1697 3084 1428 2787 
Q 1159 2491 1159 1978 
L 1159 0 
L 581 0 
L 581 3500 
L 1159 3500 
L 1159 2956 
Q 1366 3272 1645 3428 
Q 1925 3584 2291 3584 
Q 2894 3584 3203 3211 
Q 3513 2838 3513 2113 
z
" transform="scale(0.015625)"/>
       <path id="DejaVuSans-75" d="M 544 1381 
L 544 3500 
L 1119 3500 
L 1119 1403 
Q 1119 906 1312 657 
Q 1506 409 1894 409 
Q 2359 409 2629 706 
Q 2900 1003 2900 1516 
L 2900 3500 
L 3475 3500 
L 3475 0 
L 2900 0 
L 2900 538 
Q 2691 219 2414 64 
Q 2138 -91 1772 -91 
Q 1169 -91 856 284 
Q 544 659 544 1381 
z
M 1991 3584 
L 1991 3584 
z
" transform="scale(0.015625)"/>
       <path id="DejaVuSans-6d" d="M 3328 2828 
Q 3544 3216 3844 3400 
Q 4144 3584 4550 3584 
Q 5097 3584 5394 3201 
Q 5691 2819 5691 2113 
L 5691 0 
L 5113 0 
L 5113 2094 
Q 5113 2597 4934 2840 
Q 4756 3084 4391 3084 
Q 3944 3084 3684 2787 
Q 3425 2491 3425 1978 
L 3425 0 
L 2847 0 
L 2847 2094 
Q 2847 2600 2669 2842 
Q 2491 3084 2119 3084 
Q 1678 3084 1418 2786 
Q 1159 2488 1159 1978 
L 1159 0 
L 581 0 
L 581 3500 
L 1159 3500 
L 1159 2956 
Q 1356 3278 1631 3431 
Q 1906 3584 2284 3584 
Q 2666 3584 2933 3390 
Q 3200 3197 3328 2828 
z
" transform="scale(0.015625)"/>
       <path id="DejaVuSans-62" d="M 3116 1747 
Q 3116 2381 2855 2742 
Q 2594 3103 2138 3103 
Q 1681 3103 1420 2742 
Q 1159 2381 1159 1747 
Q 1159 1113 1420 752 
Q 1681 391 2138 391 
Q 2594 391 2855 752 
Q 3116 1113 3116 1747 
z
M 1159 2969 
Q 1341 3281 1617 3432 
Q 1894 3584 2278 3584 
Q 2916 3584 3314 3078 
Q 3713 2572 3713 1747 
Q 3713 922 3314 415 
Q 2916 -91 2278 -91 
Q 1894 -91 1617 61 
Q 1341 213 1159 525 
L 1159 0 
L 581 0 
L 581 4863 
L 1159 4863 
L 1159 2969 
z
" transform="scale(0.015625)"/>
       <path id="DejaVuSans-65" d="M 3597 1894 
L 3597 1613 
L 953 1613 
Q 991 1019 1311 708 
Q 1631 397 2203 397 
Q 2534 397 2845 478 
Q 3156 559 3463 722 
L 3463 178 
Q 3153 47 2828 -22 
Q 2503 -91 2169 -91 
Q 1331 -91 842 396 
Q 353 884 353 1716 
Q 353 2575 817 3079 
Q 1281 3584 2069 3584 
Q 2775 3584 3186 3129 
Q 3597 2675 3597 1894 
z
M 3022 2063 
Q 3016 2534 2758 2815 
Q 2500 3097 2075 3097 
Q 1594 3097 1305 2825 
Q 1016 2553 972 2059 
L 3022 2063 
z
" transform="scale(0.015625)"/>
       <path id="DejaVuSans-72" d="M 2631 2963 
Q 2534 3019 2420 3045 
Q 2306 3072 2169 3072 
Q 1681 3072 1420 2755 
Q 1159 2438 1159 1844 
L 1159 0 
L 581 0 
L 581 3500 
L 1159 3500 
L 1159 2956 
Q 1341 3275 1631 3429 
Q 1922 3584 2338 3584 
Q 2397 3584 2469 3576 
Q 2541 3569 2628 3553 
L 2631 2963 
z
" transform="scale(0.015625)"/>
       <path id="DejaVuSans-66" d="M 2375 4863 
L 2375 4384 
L 1825 4384 
Q 1516 4384 1395 4259 
Q 1275 4134 1275 3809 
L 1275 3500 
L 2222 3500 
L 2222 3053 
L 1275 3053 
L 1275 0 
L 697 0 
L 697 3053 
L 147 3053 
L 147 3500 
L 697 3500 
L 697 3744 
Q 697 4328 969 4595 
Q 1241 4863 1831 4863 
L 2375 4863 
z
" transform="scale(0.015625)"/>
       <path id="DejaVuSans-76" d="M 191 3500 
L 800 3500 
L 1894 563 
L 2988 3500 
L 3597 3500 
L 2284 0 
L 1503 0 
L 191 3500 
z
" transform="scale(0.015625)"/>
       <path id="DejaVuSans-69" d="M 603 3500 
L 1178 3500 
L 1178 0 
L 603 0 
L 603 3500 
z
M 603 4863 
L 1178 4863 
L 1178 4134 
L 603 4134 
L 603 4863 
z
" transform="scale(0.015625)"/>
       <path id="DejaVuSans-73" d="M 2834 3397 
L 2834 2853 
Q 2591 2978 2328 3040 
Q 2066 3103 1784 3103 
Q 1356 3103 1142 2972 
Q 928 2841 928 2578 
Q 928 2378 1081 2264 
Q 1234 2150 1697 2047 
L 1894 2003 
Q 2506 1872 2764 1633 
Q 3022 1394 3022 966 
Q 3022 478 2636 193 
Q 2250 -91 1575 -91 
Q 1294 -91 989 -36 
Q 684 19 347 128 
L 347 722 
Q 666 556 975 473 
Q 1284 391 1588 391 
Q 1994 391 2212 530 
Q 2431 669 2431 922 
Q 2431 1156 2273 1281 
Q 2116 1406 1581 1522 
L 1381 1569 
Q 847 1681 609 1914 
Q 372 2147 372 2553 
Q 372 3047 722 3315 
Q 1072 3584 1716 3584 
Q 2034 3584 2315 3537 
Q 2597 3491 2834 3397 
z
" transform="scale(0.015625)"/>
      </defs>
      <use xlink:href="#DejaVuSans-54"/>
      <use xlink:href="#DejaVuSans-6f" x="44.083984"/>
      <use xlink:href="#DejaVuSans-74" x="105.265625"/>
      <use xlink:href="#DejaVuSans-61" x="144.474609"/>
      <use xlink:href="#DejaVuSans-6c" x="205.753906"/>
      <use xlink:href="#DejaVuSans-20" x="233.537109"/>
      <use xlink:href="#DejaVuSans-6e" x="265.324219"/>
      <use xlink:href="#DejaVuSans-75" x="328.703125"/>
      <use xlink:href="#DejaVuSans-6d" x="392.082031"/>
      <use xlink:href="#DejaVuSans-62" x="489.494141"/>
      <use xlink:href="#DejaVuSans-65" x="552.970703"/>
      <use xlink:href="#DejaVuSans-72" x="614.494141"/>
      <use xlink:href="#DejaVuSans-20" x="655.607422"/>
      <use xlink:href="#DejaVuSans-6f" x="687.394531"/>
      <use xlink:href="#DejaVuSans-66" x="748.576172"/>
      <use xlink:href="#DejaVuSans-20" x="783.78125"/>
      <use xlink:href="#DejaVuSans-76" x="815.568359"/>
      <use xlink:href="#DejaVuSans-61" x="874.748047"/>
      <use xlink:href="#DejaVuSans-72" x="936.027344"/>
      <use xlink:href="#DejaVuSans-69" x="977.140625"/>
      <use xlink:href="#DejaVuSans-61" x="1004.923828"/>
      <use xlink:href="#DejaVuSans-6e" x="1066.203125"/>
      <use xlink:href="#DejaVuSans-74" x="1129.582031"/>
      <use xlink:href="#DejaVuSans-73" x="1168.791016"/>
     </g>
    </g>
   </g>
   <g id="matplotlib.axis_2">
    <g id="ytick_1">
     <g id="line2d_7">
      <defs>
       <path id="m4d373f5765" d="M 0 0 
L -3.5 0 
" style="stroke: #000000; stroke-width: 0.8"/>
      </defs>
      <g>
       <use xlink:href="#m4d373f5765" x="43.78125" y="242.279219" style="stroke: #000000; stroke-width: 0.8"/>
      </g>
     </g>
     <g id="text_8">
      <!-- 0.0 -->
      <g transform="translate(20.878125 246.078438) scale(0.1 -0.1)">
       <defs>
        <path id="DejaVuSans-2e" d="M 684 794 
L 1344 794 
L 1344 0 
L 684 0 
L 684 794 
z
" transform="scale(0.015625)"/>
       </defs>
       <use xlink:href="#DejaVuSans-30"/>
       <use xlink:href="#DejaVuSans-2e" x="63.623047"/>
       <use xlink:href="#DejaVuSans-30" x="95.410156"/>
      </g>
     </g>
    </g>
    <g id="ytick_2">
     <g id="line2d_8">
      <g>
       <use xlink:href="#m4d373f5765" x="43.78125" y="196.023219" style="stroke: #000000; stroke-width: 0.8"/>
      </g>
     </g>
     <g id="text_9">
      <!-- 0.2 -->
      <g transform="translate(20.878125 199.822438) scale(0.1 -0.1)">
       <use xlink:href="#DejaVuSans-30"/>
       <use xlink:href="#DejaVuSans-2e" x="63.623047"/>
       <use xlink:href="#DejaVuSans-32" x="95.410156"/>
      </g>
     </g>
    </g>
    <g id="ytick_3">
     <g id="line2d_9">
      <g>
       <use xlink:href="#m4d373f5765" x="43.78125" y="149.767219" style="stroke: #000000; stroke-width: 0.8"/>
      </g>
     </g>
     <g id="text_10">
      <!-- 0.4 -->
      <g transform="translate(20.878125 153.566438) scale(0.1 -0.1)">
       <use xlink:href="#DejaVuSans-30"/>
       <use xlink:href="#DejaVuSans-2e" x="63.623047"/>
       <use xlink:href="#DejaVuSans-34" x="95.410156"/>
      </g>
     </g>
    </g>
    <g id="ytick_4">
     <g id="line2d_10">
      <g>
       <use xlink:href="#m4d373f5765" x="43.78125" y="103.511219" style="stroke: #000000; stroke-width: 0.8"/>
      </g>
     </g>
     <g id="text_11">
      <!-- 0.6 -->
      <g transform="translate(20.878125 107.310437) scale(0.1 -0.1)">
       <use xlink:href="#DejaVuSans-30"/>
       <use xlink:href="#DejaVuSans-2e" x="63.623047"/>
       <use xlink:href="#DejaVuSans-36" x="95.410156"/>
      </g>
     </g>
    </g>
    <g id="ytick_5">
     <g id="line2d_11">
      <g>
       <use xlink:href="#m4d373f5765" x="43.78125" y="57.255219" style="stroke: #000000; stroke-width: 0.8"/>
      </g>
     </g>
     <g id="text_12">
      <!-- 0.8 -->
      <g transform="translate(20.878125 61.054438) scale(0.1 -0.1)">
       <use xlink:href="#DejaVuSans-30"/>
       <use xlink:href="#DejaVuSans-2e" x="63.623047"/>
       <use xlink:href="#DejaVuSans-38" x="95.410156"/>
      </g>
     </g>
    </g>
    <g id="ytick_6">
     <g id="line2d_12">
      <g>
       <use xlink:href="#m4d373f5765" x="43.78125" y="10.999219" style="stroke: #000000; stroke-width: 0.8"/>
      </g>
     </g>
     <g id="text_13">
      <!-- 1.0 -->
      <g transform="translate(20.878125 14.798438) scale(0.1 -0.1)">
       <use xlink:href="#DejaVuSans-31"/>
       <use xlink:href="#DejaVuSans-2e" x="63.623047"/>
       <use xlink:href="#DejaVuSans-30" x="95.410156"/>
      </g>
     </g>
    </g>
    <g id="text_14">
     <!-- Average max fitness achieved -->
     <g transform="translate(14.798438 202.054844) rotate(-90) scale(0.1 -0.1)">
      <defs>
       <path id="DejaVuSans-41" d="M 2188 4044 
L 1331 1722 
L 3047 1722 
L 2188 4044 
z
M 1831 4666 
L 2547 4666 
L 4325 0 
L 3669 0 
L 3244 1197 
L 1141 1197 
L 716 0 
L 50 0 
L 1831 4666 
z
" transform="scale(0.015625)"/>
       <path id="DejaVuSans-67" d="M 2906 1791 
Q 2906 2416 2648 2759 
Q 2391 3103 1925 3103 
Q 1463 3103 1205 2759 
Q 947 2416 947 1791 
Q 947 1169 1205 825 
Q 1463 481 1925 481 
Q 2391 481 2648 825 
Q 2906 1169 2906 1791 
z
M 3481 434 
Q 3481 -459 3084 -895 
Q 2688 -1331 1869 -1331 
Q 1566 -1331 1297 -1286 
Q 1028 -1241 775 -1147 
L 775 -588 
Q 1028 -725 1275 -790 
Q 1522 -856 1778 -856 
Q 2344 -856 2625 -561 
Q 2906 -266 2906 331 
L 2906 616 
Q 2728 306 2450 153 
Q 2172 0 1784 0 
Q 1141 0 747 490 
Q 353 981 353 1791 
Q 353 2603 747 3093 
Q 1141 3584 1784 3584 
Q 2172 3584 2450 3431 
Q 2728 3278 2906 2969 
L 2906 3500 
L 3481 3500 
L 3481 434 
z
" transform="scale(0.015625)"/>
       <path id="DejaVuSans-78" d="M 3513 3500 
L 2247 1797 
L 3578 0 
L 2900 0 
L 1881 1375 
L 863 0 
L 184 0 
L 1544 1831 
L 300 3500 
L 978 3500 
L 1906 2253 
L 2834 3500 
L 3513 3500 
z
" transform="scale(0.015625)"/>
       <path id="DejaVuSans-63" d="M 3122 3366 
L 3122 2828 
Q 2878 2963 2633 3030 
Q 2388 3097 2138 3097 
Q 1578 3097 1268 2742 
Q 959 2388 959 1747 
Q 959 1106 1268 751 
Q 1578 397 2138 397 
Q 2388 397 2633 464 
Q 2878 531 3122 666 
L 3122 134 
Q 2881 22 2623 -34 
Q 2366 -91 2075 -91 
Q 1284 -91 818 406 
Q 353 903 353 1747 
Q 353 2603 823 3093 
Q 1294 3584 2113 3584 
Q 2378 3584 2631 3529 
Q 2884 3475 3122 3366 
z
" transform="scale(0.015625)"/>
       <path id="DejaVuSans-68" d="M 3513 2113 
L 3513 0 
L 2938 0 
L 2938 2094 
Q 2938 2591 2744 2837 
Q 2550 3084 2163 3084 
Q 1697 3084 1428 2787 
Q 1159 2491 1159 1978 
L 1159 0 
L 581 0 
L 581 4863 
L 1159 4863 
L 1159 2956 
Q 1366 3272 1645 3428 
Q 1925 3584 2291 3584 
Q 2894 3584 3203 3211 
Q 3513 2838 3513 2113 
z
" transform="scale(0.015625)"/>
       <path id="DejaVuSans-64" d="M 2906 2969 
L 2906 4863 
L 3481 4863 
L 3481 0 
L 2906 0 
L 2906 525 
Q 2725 213 2448 61 
Q 2172 -91 1784 -91 
Q 1150 -91 751 415 
Q 353 922 353 1747 
Q 353 2572 751 3078 
Q 1150 3584 1784 3584 
Q 2172 3584 2448 3432 
Q 2725 3281 2906 2969 
z
M 947 1747 
Q 947 1113 1208 752 
Q 1469 391 1925 391 
Q 2381 391 2643 752 
Q 2906 1113 2906 1747 
Q 2906 2381 2643 2742 
Q 2381 3103 1925 3103 
Q 1469 3103 1208 2742 
Q 947 2381 947 1747 
z
" transform="scale(0.015625)"/>
      </defs>
      <use xlink:href="#DejaVuSans-41"/>
      <use xlink:href="#DejaVuSans-76" x="62.533203"/>
      <use xlink:href="#DejaVuSans-65" x="121.712891"/>
      <use xlink:href="#DejaVuSans-72" x="183.236328"/>
      <use xlink:href="#DejaVuSans-61" x="224.349609"/>
      <use xlink:href="#DejaVuSans-67" x="285.628906"/>
      <use xlink:href="#DejaVuSans-65" x="349.105469"/>
      <use xlink:href="#DejaVuSans-20" x="410.628906"/>
      <use xlink:href="#DejaVuSans-6d" x="442.416016"/>
      <use xlink:href="#DejaVuSans-61" x="539.828125"/>
      <use xlink:href="#DejaVuSans-78" x="601.107422"/>
      <use xlink:href="#DejaVuSans-20" x="660.287109"/>
      <use xlink:href="#DejaVuSans-66" x="692.074219"/>
      <use xlink:href="#DejaVuSans-69" x="727.279297"/>
      <use xlink:href="#DejaVuSans-74" x="755.0625"/>
      <use xlink:href="#DejaVuSans-6e" x="794.271484"/>
      <use xlink:href="#DejaVuSans-65" x="857.650391"/>
      <use xlink:href="#DejaVuSans-73" x="919.173828"/>
      <use xlink:href="#DejaVuSans-73" x="971.273438"/>
      <use xlink:href="#DejaVuSans-20" x="1023.373047"/>
      <use xlink:href="#DejaVuSans-61" x="1055.160156"/>
      <use xlink:href="#DejaVuSans-63" x="1116.439453"/>
      <use xlink:href="#DejaVuSans-68" x="1171.419922"/>
      <use xlink:href="#DejaVuSans-69" x="1234.798828"/>
      <use xlink:href="#DejaVuSans-65" x="1262.582031"/>
      <use xlink:href="#DejaVuSans-76" x="1324.105469"/>
      <use xlink:href="#DejaVuSans-65" x="1383.285156"/>
      <use xlink:href="#DejaVuSans-64" x="1444.808594"/>
     </g>
    </g>
   </g>
   <g id="line2d_13">
    <path d="M 43.78125 110.523912 
L 58.827059 95.62038 
L 82.567584 74.071213 
L 116.027976 59.32429 
L 139.768501 52.76232 
L 158.183083 50.38051 
L 173.228892 46.133104 
L 185.949942 42.853781 
L 223.249327 33.115567 
L 276.61125 27.761229 
" clip-path="url(#p43b07d4d18)" style="fill: none; stroke: #666666; stroke-width: 2; stroke-linecap: square"/>
    <defs>
     <path id="m642242dec3" d="M 0 3 
C 0.795609 3 1.55874 2.683901 2.12132 2.12132 
C 2.683901 1.55874 3 0.795609 3 0 
C 3 -0.795609 2.683901 -1.55874 2.12132 -2.12132 
C 1.55874 -2.683901 0.795609 -3 0 -3 
C -0.795609 -3 -1.55874 -2.683901 -2.12132 -2.12132 
C -2.683901 -1.55874 -3 -0.795609 -3 0 
C -3 0.795609 -2.683901 1.55874 -2.12132 2.12132 
C -1.55874 2.683901 -0.795609 3 0 3 
z
" style="stroke: #666666"/>
    </defs>
    <g clip-path="url(#p43b07d4d18)">
     <use xlink:href="#m642242dec3" x="43.78125" y="110.523912" style="fill: #666666; stroke: #666666"/>
     <use xlink:href="#m642242dec3" x="58.827059" y="95.62038" style="fill: #666666; stroke: #666666"/>
     <use xlink:href="#m642242dec3" x="82.567584" y="74.071213" style="fill: #666666; stroke: #666666"/>
     <use xlink:href="#m642242dec3" x="116.027976" y="59.32429" style="fill: #666666; stroke: #666666"/>
     <use xlink:href="#m642242dec3" x="139.768501" y="52.76232" style="fill: #666666; stroke: #666666"/>
     <use xlink:href="#m642242dec3" x="158.183083" y="50.38051" style="fill: #666666; stroke: #666666"/>
     <use xlink:href="#m642242dec3" x="173.228892" y="46.133104" style="fill: #666666; stroke: #666666"/>
     <use xlink:href="#m642242dec3" x="185.949942" y="42.853781" style="fill: #666666; stroke: #666666"/>
     <use xlink:href="#m642242dec3" x="223.249327" y="33.115567" style="fill: #666666; stroke: #666666"/>
     <use xlink:href="#m642242dec3" x="276.61125" y="27.761229" style="fill: #666666; stroke: #666666"/>
    </g>
   </g>
   <g id="line2d_14">
    <path d="M 43.78125 99.038245 
L 58.827059 80.238035 
L 82.567584 59.720787 
L 116.027976 44.417315 
L 139.768501 40.586671 
L 158.183083 38.361598 
L 173.228892 38.833185 
L 185.949942 37.997847 
L 223.249327 35.040295 
L 276.61125 32.479817 
" clip-path="url(#p43b07d4d18)" style="fill: none; stroke: #4bacc6; stroke-width: 2; stroke-linecap: square"/>
    <defs>
     <path id="mb440a411bd" d="M 0 3 
C 0.795609 3 1.55874 2.683901 2.12132 2.12132 
C 2.683901 1.55874 3 0.795609 3 0 
C 3 -0.795609 2.683901 -1.55874 2.12132 -2.12132 
C 1.55874 -2.683901 0.795609 -3 0 -3 
C -0.795609 -3 -1.55874 -2.683901 -2.12132 -2.12132 
C -2.683901 -1.55874 -3 -0.795609 -3 0 
C -3 0.795609 -2.683901 1.55874 -2.12132 2.12132 
C -1.55874 2.683901 -0.795609 3 0 3 
z
" style="stroke: #4bacc6"/>
    </defs>
    <g clip-path="url(#p43b07d4d18)">
     <use xlink:href="#mb440a411bd" x="43.78125" y="99.038245" style="fill: #4bacc6; stroke: #4bacc6"/>
     <use xlink:href="#mb440a411bd" x="58.827059" y="80.238035" style="fill: #4bacc6; stroke: #4bacc6"/>
     <use xlink:href="#mb440a411bd" x="82.567584" y="59.720787" style="fill: #4bacc6; stroke: #4bacc6"/>
     <use xlink:href="#mb440a411bd" x="116.027976" y="44.417315" style="fill: #4bacc6; stroke: #4bacc6"/>
     <use xlink:href="#mb440a411bd" x="139.768501" y="40.586671" style="fill: #4bacc6; stroke: #4bacc6"/>
     <use xlink:href="#mb440a411bd" x="158.183083" y="38.361598" style="fill: #4bacc6; stroke: #4bacc6"/>
     <use xlink:href="#mb440a411bd" x="173.228892" y="38.833185" style="fill: #4bacc6; stroke: #4bacc6"/>
     <use xlink:href="#mb440a411bd" x="185.949942" y="37.997847" style="fill: #4bacc6; stroke: #4bacc6"/>
     <use xlink:href="#mb440a411bd" x="223.249327" y="35.040295" style="fill: #4bacc6; stroke: #4bacc6"/>
     <use xlink:href="#mb440a411bd" x="276.61125" y="32.479817" style="fill: #4bacc6; stroke: #4bacc6"/>
    </g>
   </g>
   <g id="line2d_15">
    <path d="M 43.78125 93.485078 
L 58.827059 78.530917 
L 82.567584 53.569184 
L 116.027976 39.453376 
L 139.768501 36.657342 
L 158.183083 34.95819 
L 173.228892 33.789145 
L 185.949942 33.410851 
L 223.249327 31.968455 
L 276.61125 30.97464 
" clip-path="url(#p43b07d4d18)" style="fill: none; stroke: #9bbb59; stroke-width: 2; stroke-linecap: square"/>
    <defs>
     <path id="ma8a9b6df24" d="M 0 3 
C 0.795609 3 1.55874 2.683901 2.12132 2.12132 
C 2.683901 1.55874 3 0.795609 3 0 
C 3 -0.795609 2.683901 -1.55874 2.12132 -2.12132 
C 1.55874 -2.683901 0.795609 -3 0 -3 
C -0.795609 -3 -1.55874 -2.683901 -2.12132 -2.12132 
C -2.683901 -1.55874 -3 -0.795609 -3 0 
C -3 0.795609 -2.683901 1.55874 -2.12132 2.12132 
C -1.55874 2.683901 -0.795609 3 0 3 
z
" style="stroke: #9bbb59"/>
    </defs>
    <g clip-path="url(#p43b07d4d18)">
     <use xlink:href="#ma8a9b6df24" x="43.78125" y="93.485078" style="fill: #9bbb59; stroke: #9bbb59"/>
     <use xlink:href="#ma8a9b6df24" x="58.827059" y="78.530917" style="fill: #9bbb59; stroke: #9bbb59"/>
     <use xlink:href="#ma8a9b6df24" x="82.567584" y="53.569184" style="fill: #9bbb59; stroke: #9bbb59"/>
     <use xlink:href="#ma8a9b6df24" x="116.027976" y="39.453376" style="fill: #9bbb59; stroke: #9bbb59"/>
     <use xlink:href="#ma8a9b6df24" x="139.768501" y="36.657342" style="fill: #9bbb59; stroke: #9bbb59"/>
     <use xlink:href="#ma8a9b6df24" x="158.183083" y="34.95819" style="fill: #9bbb59; stroke: #9bbb59"/>
     <use xlink:href="#ma8a9b6df24" x="173.228892" y="33.789145" style="fill: #9bbb59; stroke: #9bbb59"/>
     <use xlink:href="#ma8a9b6df24" x="185.949942" y="33.410851" style="fill: #9bbb59; stroke: #9bbb59"/>
     <use xlink:href="#ma8a9b6df24" x="223.249327" y="31.968455" style="fill: #9bbb59; stroke: #9bbb59"/>
     <use xlink:href="#ma8a9b6df24" x="276.61125" y="30.97464" style="fill: #9bbb59; stroke: #9bbb59"/>
    </g>
   </g>
   <g id="line2d_16">
    <path d="M 43.78125 99.37283 
L 58.827059 83.196298 
L 82.567584 57.536988 
L 116.027976 44.030322 
L 139.768501 40.698762 
L 158.183083 38.73254 
L 173.228892 37.083772 
L 185.949942 35.307447 
L 223.249327 33.019648 
L 276.61125 31.361346 
" clip-path="url(#p43b07d4d18)" style="fill: none; stroke: #8064a2; stroke-width: 2; stroke-linecap: square"/>
    <defs>
     <path id="m5b6a5f08b7" d="M 0 3 
C 0.795609 3 1.55874 2.683901 2.12132 2.12132 
C 2.683901 1.55874 3 0.795609 3 0 
C 3 -0.795609 2.683901 -1.55874 2.12132 -2.12132 
C 1.55874 -2.683901 0.795609 -3 0 -3 
C -0.795609 -3 -1.55874 -2.683901 -2.12132 -2.12132 
C -2.683901 -1.55874 -3 -0.795609 -3 0 
C -3 0.795609 -2.683901 1.55874 -2.12132 2.12132 
C -1.55874 2.683901 -0.795609 3 0 3 
z
" style="stroke: #8064a2"/>
    </defs>
    <g clip-path="url(#p43b07d4d18)">
     <use xlink:href="#m5b6a5f08b7" x="43.78125" y="99.37283" style="fill: #8064a2; stroke: #8064a2"/>
     <use xlink:href="#m5b6a5f08b7" x="58.827059" y="83.196298" style="fill: #8064a2; stroke: #8064a2"/>
     <use xlink:href="#m5b6a5f08b7" x="82.567584" y="57.536988" style="fill: #8064a2; stroke: #8064a2"/>
     <use xlink:href="#m5b6a5f08b7" x="116.027976" y="44.030322" style="fill: #8064a2; stroke: #8064a2"/>
     <use xlink:href="#m5b6a5f08b7" x="139.768501" y="40.698762" style="fill: #8064a2; stroke: #8064a2"/>
     <use xlink:href="#m5b6a5f08b7" x="158.183083" y="38.73254" style="fill: #8064a2; stroke: #8064a2"/>
     <use xlink:href="#m5b6a5f08b7" x="173.228892" y="37.083772" style="fill: #8064a2; stroke: #8064a2"/>
     <use xlink:href="#m5b6a5f08b7" x="185.949942" y="35.307447" style="fill: #8064a2; stroke: #8064a2"/>
     <use xlink:href="#m5b6a5f08b7" x="223.249327" y="33.019648" style="fill: #8064a2; stroke: #8064a2"/>
     <use xlink:href="#m5b6a5f08b7" x="276.61125" y="31.361346" style="fill: #8064a2; stroke: #8064a2"/>
    </g>
   </g>
   <g id="line2d_17">
    <path d="M 43.78125 85.486841 
L 58.827059 71.10473 
L 82.567584 55.755153 
L 116.027976 41.427169 
L 139.768501 37.105404 
L 158.183083 35.19555 
L 173.228892 33.957576 
L 185.949942 33.07184 
L 223.249327 31.721029 
L 276.61125 30.635255 
" clip-path="url(#p43b07d4d18)" style="fill: none; stroke: #f9be00; stroke-width: 2; stroke-linecap: square"/>
    <defs>
     <path id="m6a336ecb83" d="M 0 3 
C 0.795609 3 1.55874 2.683901 2.12132 2.12132 
C 2.683901 1.55874 3 0.795609 3 0 
C 3 -0.795609 2.683901 -1.55874 2.12132 -2.12132 
C 1.55874 -2.683901 0.795609 -3 0 -3 
C -0.795609 -3 -1.55874 -2.683901 -2.12132 -2.12132 
C -2.683901 -1.55874 -3 -0.795609 -3 0 
C -3 0.795609 -2.683901 1.55874 -2.12132 2.12132 
C -1.55874 2.683901 -0.795609 3 0 3 
z
" style="stroke: #f9be00"/>
    </defs>
    <g clip-path="url(#p43b07d4d18)">
     <use xlink:href="#m6a336ecb83" x="43.78125" y="85.486841" style="fill: #f9be00; stroke: #f9be00"/>
     <use xlink:href="#m6a336ecb83" x="58.827059" y="71.10473" style="fill: #f9be00; stroke: #f9be00"/>
     <use xlink:href="#m6a336ecb83" x="82.567584" y="55.755153" style="fill: #f9be00; stroke: #f9be00"/>
     <use xlink:href="#m6a336ecb83" x="116.027976" y="41.427169" style="fill: #f9be00; stroke: #f9be00"/>
     <use xlink:href="#m6a336ecb83" x="139.768501" y="37.105404" style="fill: #f9be00; stroke: #f9be00"/>
     <use xlink:href="#m6a336ecb83" x="158.183083" y="35.19555" style="fill: #f9be00; stroke: #f9be00"/>
     <use xlink:href="#m6a336ecb83" x="173.228892" y="33.957576" style="fill: #f9be00; stroke: #f9be00"/>
     <use xlink:href="#m6a336ecb83" x="185.949942" y="33.07184" style="fill: #f9be00; stroke: #f9be00"/>
     <use xlink:href="#m6a336ecb83" x="223.249327" y="31.721029" style="fill: #f9be00; stroke: #f9be00"/>
     <use xlink:href="#m6a336ecb83" x="276.61125" y="30.635255" style="fill: #f9be00; stroke: #f9be00"/>
    </g>
   </g>
   <g id="line2d_18">
    <path d="M 43.78125 99.234264 
L 58.827059 75.966337 
L 82.567584 56.302068 
L 116.027976 41.463611 
L 139.768501 37.143184 
L 158.183083 34.688492 
L 173.228892 33.617034 
L 185.949942 31.238244 
L 223.249327 29.985413 
L 276.61125 27.358714 
" clip-path="url(#p43b07d4d18)" style="fill: none; stroke: #ae682f; stroke-width: 2; stroke-linecap: square"/>
    <defs>
     <path id="m0ce3be4252" d="M 0 3 
C 0.795609 3 1.55874 2.683901 2.12132 2.12132 
C 2.683901 1.55874 3 0.795609 3 0 
C 3 -0.795609 2.683901 -1.55874 2.12132 -2.12132 
C 1.55874 -2.683901 0.795609 -3 0 -3 
C -0.795609 -3 -1.55874 -2.683901 -2.12132 -2.12132 
C -2.683901 -1.55874 -3 -0.795609 -3 0 
C -3 0.795609 -2.683901 1.55874 -2.12132 2.12132 
C -1.55874 2.683901 -0.795609 3 0 3 
z
" style="stroke: #ae682f"/>
    </defs>
    <g clip-path="url(#p43b07d4d18)">
     <use xlink:href="#m0ce3be4252" x="43.78125" y="99.234264" style="fill: #ae682f; stroke: #ae682f"/>
     <use xlink:href="#m0ce3be4252" x="58.827059" y="75.966337" style="fill: #ae682f; stroke: #ae682f"/>
     <use xlink:href="#m0ce3be4252" x="82.567584" y="56.302068" style="fill: #ae682f; stroke: #ae682f"/>
     <use xlink:href="#m0ce3be4252" x="116.027976" y="41.463611" style="fill: #ae682f; stroke: #ae682f"/>
     <use xlink:href="#m0ce3be4252" x="139.768501" y="37.143184" style="fill: #ae682f; stroke: #ae682f"/>
     <use xlink:href="#m0ce3be4252" x="158.183083" y="34.688492" style="fill: #ae682f; stroke: #ae682f"/>
     <use xlink:href="#m0ce3be4252" x="173.228892" y="33.617034" style="fill: #ae682f; stroke: #ae682f"/>
     <use xlink:href="#m0ce3be4252" x="185.949942" y="31.238244" style="fill: #ae682f; stroke: #ae682f"/>
     <use xlink:href="#m0ce3be4252" x="223.249327" y="29.985413" style="fill: #ae682f; stroke: #ae682f"/>
     <use xlink:href="#m0ce3be4252" x="276.61125" y="27.358714" style="fill: #ae682f; stroke: #ae682f"/>
    </g>
   </g>
   <g id="line2d_19">
    <path d="M 43.78125 98.239501 
L 58.827059 80.282826 
L 82.567584 64.984331 
L 116.027976 50.331797 
L 139.768501 43.911542 
L 158.183083 40.464832 
L 173.228892 38.513992 
L 185.949942 37.780876 
L 223.249327 35.3767 
L 276.61125 34.410651 
" clip-path="url(#p43b07d4d18)" style="fill: none; stroke: #f79646; stroke-width: 2; stroke-linecap: square"/>
    <defs>
     <path id="mf2e765c997" d="M 0 3 
C 0.795609 3 1.55874 2.683901 2.12132 2.12132 
C 2.683901 1.55874 3 0.795609 3 0 
C 3 -0.795609 2.683901 -1.55874 2.12132 -2.12132 
C 1.55874 -2.683901 0.795609 -3 0 -3 
C -0.795609 -3 -1.55874 -2.683901 -2.12132 -2.12132 
C -2.683901 -1.55874 -3 -0.795609 -3 0 
C -3 0.795609 -2.683901 1.55874 -2.12132 2.12132 
C -1.55874 2.683901 -0.795609 3 0 3 
z
" style="stroke: #f79646"/>
    </defs>
    <g clip-path="url(#p43b07d4d18)">
     <use xlink:href="#mf2e765c997" x="43.78125" y="98.239501" style="fill: #f79646; stroke: #f79646"/>
     <use xlink:href="#mf2e765c997" x="58.827059" y="80.282826" style="fill: #f79646; stroke: #f79646"/>
     <use xlink:href="#mf2e765c997" x="82.567584" y="64.984331" style="fill: #f79646; stroke: #f79646"/>
     <use xlink:href="#mf2e765c997" x="116.027976" y="50.331797" style="fill: #f79646; stroke: #f79646"/>
     <use xlink:href="#mf2e765c997" x="139.768501" y="43.911542" style="fill: #f79646; stroke: #f79646"/>
     <use xlink:href="#mf2e765c997" x="158.183083" y="40.464832" style="fill: #f79646; stroke: #f79646"/>
     <use xlink:href="#mf2e765c997" x="173.228892" y="38.513992" style="fill: #f79646; stroke: #f79646"/>
     <use xlink:href="#mf2e765c997" x="185.949942" y="37.780876" style="fill: #f79646; stroke: #f79646"/>
     <use xlink:href="#mf2e765c997" x="223.249327" y="35.3767" style="fill: #f79646; stroke: #f79646"/>
     <use xlink:href="#mf2e765c997" x="276.61125" y="34.410651" style="fill: #f79646; stroke: #f79646"/>
    </g>
   </g>
   <g id="line2d_20">
    <path d="M 43.78125 67.303632 
L 58.827059 53.896223 
L 82.567584 42.303394 
L 116.027976 34.991051 
L 139.768501 33.118234 
L 158.183083 32.423539 
L 173.228892 32.423539 
L 185.949942 32.423539 
L 223.249327 32.423539 
L 276.61125 32.423539 
" clip-path="url(#p43b07d4d18)" style="fill: none; stroke-dasharray: 7.4,3.2; stroke-dashoffset: 0; stroke: #6e4a2e; stroke-width: 2"/>
    <defs>
     <path id="m63649df6e2" d="M 0 3 
C 0.795609 3 1.55874 2.683901 2.12132 2.12132 
C 2.683901 1.55874 3 0.795609 3 0 
C 3 -0.795609 2.683901 -1.55874 2.12132 -2.12132 
C 1.55874 -2.683901 0.795609 -3 0 -3 
C -0.795609 -3 -1.55874 -2.683901 -2.12132 -2.12132 
C -2.683901 -1.55874 -3 -0.795609 -3 0 
C -3 0.795609 -2.683901 1.55874 -2.12132 2.12132 
C -1.55874 2.683901 -0.795609 3 0 3 
z
" style="stroke: #6e4a2e"/>
    </defs>
    <g clip-path="url(#p43b07d4d18)">
     <use xlink:href="#m63649df6e2" x="43.78125" y="67.303632" style="fill: #6e4a2e; stroke: #6e4a2e"/>
     <use xlink:href="#m63649df6e2" x="58.827059" y="53.896223" style="fill: #6e4a2e; stroke: #6e4a2e"/>
     <use xlink:href="#m63649df6e2" x="82.567584" y="42.303394" style="fill: #6e4a2e; stroke: #6e4a2e"/>
     <use xlink:href="#m63649df6e2" x="116.027976" y="34.991051" style="fill: #6e4a2e; stroke: #6e4a2e"/>
     <use xlink:href="#m63649df6e2" x="139.768501" y="33.118234" style="fill: #6e4a2e; stroke: #6e4a2e"/>
     <use xlink:href="#m63649df6e2" x="158.183083" y="32.423539" style="fill: #6e4a2e; stroke: #6e4a2e"/>
     <use xlink:href="#m63649df6e2" x="173.228892" y="32.423539" style="fill: #6e4a2e; stroke: #6e4a2e"/>
     <use xlink:href="#m63649df6e2" x="185.949942" y="32.423539" style="fill: #6e4a2e; stroke: #6e4a2e"/>
     <use xlink:href="#m63649df6e2" x="223.249327" y="32.423539" style="fill: #6e4a2e; stroke: #6e4a2e"/>
     <use xlink:href="#m63649df6e2" x="276.61125" y="32.423539" style="fill: #6e4a2e; stroke: #6e4a2e"/>
    </g>
   </g>
   <g id="line2d_21">
    <path d="M 158.183083 242.279219 
L 158.183083 10.999219 
" clip-path="url(#p43b07d4d18)" style="fill: none; stroke-dasharray: 0.5,0.825; stroke-dashoffset: 0; stroke: #808080; stroke-width: 0.5"/>
   </g>
   <g id="patch_3">
    <path d="M 43.78125 242.279219 
L 43.78125 10.999219 
" style="fill: none; stroke: #000000; stroke-width: 0.8; stroke-linejoin: miter; stroke-linecap: square"/>
   </g>
   <g id="patch_4">
    <path d="M 276.61125 242.279219 
L 276.61125 10.999219 
" style="fill: none; stroke: #000000; stroke-width: 0.8; stroke-linejoin: miter; stroke-linecap: square"/>
   </g>
   <g id="patch_5">
    <path d="M 43.78125 242.279219 
L 276.61125 242.279219 
" style="fill: none; stroke: #000000; stroke-width: 0.8; stroke-linejoin: miter; stroke-linecap: square"/>
   </g>
   <g id="patch_6">
    <path d="M 43.78125 10.999219 
L 276.61125 10.999219 
" style="fill: none; stroke: #000000; stroke-width: 0.8; stroke-linejoin: miter; stroke-linecap: square"/>
   </g>
  </g>
  <g id="axes_2">
   <g id="patch_7">
    <path d="M 337.20125 242.279219 
L 570.03125 242.279219 
L 570.03125 10.999219 
L 337.20125 10.999219 
z
" style="fill: #ffffff"/>
   </g>
   <g id="PolyCollection_9">
    <path d="M 337.20125 164.977647 
L 337.20125 285.659723 
L 352.247059 290.218139 
L 375.987584 287.03054 
L 409.447976 281.254602 
L 433.188501 275.769879 
L 451.603083 269.576655 
L 466.648892 261.300537 
L 479.369942 254.735885 
L 516.669327 226.360365 
L 570.03125 208.328968 
L 570.03125 -15.183331 
L 570.03125 -15.183331 
L 516.669327 -3.148328 
L 479.369942 24.754286 
L 466.648892 33.608301 
L 451.603083 46.918316 
L 433.188501 59.227492 
L 409.447976 73.016102 
L 375.987584 94.222831 
L 352.247059 129.581898 
L 337.20125 164.977647 
z
" clip-path="url(#pa0c4792fde)" style="fill: #666666; fill-opacity: 0.01; stroke: #666666; stroke-opacity: 0.01"/>
   </g>
   <g id="PolyCollection_10">
    <path d="M 337.20125 156.162302 
L 337.20125 287.536669 
L 352.247059 290.180786 
L 375.987584 280.447734 
L 409.447976 255.416182 
L 433.188501 246.166057 
L 451.603083 241.602201 
L 466.648892 244.665356 
L 479.369942 241.989596 
L 516.669327 227.662582 
L 570.03125 215.510543 
L 570.03125 -10.800905 
L 570.03125 -10.800905 
L 516.669327 -2.137744 
L 479.369942 10.517908 
L 466.648892 13.238681 
L 451.603083 10.13437 
L 433.188501 14.821714 
L 409.447976 25.615856 
L 375.987584 70.739237 
L 352.247059 131.161118 
L 337.20125 156.162302 
z
" clip-path="url(#pa0c4792fde)" style="fill: #4bacc6; fill-opacity: 0.01; stroke: #4bacc6; stroke-opacity: 0.01"/>
   </g>
   <g id="PolyCollection_11">
    <path d="M 337.20125 125.700223 
L 337.20125 290.245148 
L 352.247059 286.357145 
L 375.987584 256.760991 
L 409.447976 220.125523 
L 433.188501 208.817599 
L 451.603083 201.845258 
L 466.648892 197.209959 
L 479.369942 193.518982 
L 516.669327 185.346433 
L 570.03125 180.834177 
L 570.03125 -27.777073 
L 570.03125 -27.777073 
L 516.669327 -26.121862 
L 479.369942 -22.730411 
L 466.648892 -21.024855 
L 451.603083 -18.721754 
L 433.188501 -14.901028 
L 409.447976 -7.706553 
L 375.987584 27.35478 
L 352.247059 91.041559 
L 337.20125 125.700223 
z
" clip-path="url(#pa0c4792fde)" style="fill: #9bbb59; fill-opacity: 0.01; stroke: #9bbb59; stroke-opacity: 0.01"/>
   </g>
   <g id="PolyCollection_12">
    <path d="M 337.20125 146.156195 
L 337.20125 289.062509 
L 352.247059 289.577832 
L 375.987584 275.769879 
L 409.447976 246.166057 
L 433.188501 237.255925 
L 451.603083 229.380477 
L 466.648892 219.213399 
L 479.369942 204.868331 
L 516.669327 189.750705 
L 570.03125 181.972601 
L 570.03125 -27.37363 
L 570.03125 -27.37363 
L 516.669327 -24.358668 
L 479.369942 -17.119227 
L 466.648892 -8.336295 
L 451.603083 -0.771906 
L 433.188501 6.00038 
L 409.447976 14.821714 
L 375.987584 59.227492 
L 352.247059 111.719806 
L 337.20125 146.156195 
z
" clip-path="url(#pa0c4792fde)" style="fill: #8064a2; fill-opacity: 0.01; stroke: #8064a2; stroke-opacity: 0.01"/>
   </g>
   <g id="PolyCollection_13">
    <path d="M 337.20125 105.469863 
L 337.20125 288.889375 
L 352.247059 278.751533 
L 375.987584 256.426765 
L 409.447976 231.918099 
L 433.188501 215.978185 
L 451.603083 209.304805 
L 466.648892 204.368157 
L 479.369942 198.250624 
L 516.669327 177.957207 
L 570.03125 172.066486 
L 570.03125 -30.573382 
L 570.03125 -30.573382 
L 516.669327 -28.754769 
L 479.369942 -20.523653 
L 466.648892 -17.389986 
L 451.603083 -14.617301 
L 433.188501 -10.497614 
L 409.447976 1.316072 
L 375.987584 26.918072 
L 352.247059 66.267971 
L 337.20125 105.469863 
z
" clip-path="url(#pa0c4792fde)" style="fill: #f9be00; fill-opacity: 0.01; stroke: #f9be00; stroke-opacity: 0.01"/>
   </g>
   <g id="PolyCollection_14">
    <path d="M 337.20125 135.996028 
L 337.20125 289.971476 
L 352.247059 286.357145 
L 375.987584 268.742643 
L 409.447976 236.043519 
L 433.188501 219.213399 
L 451.603083 209.304805 
L 466.648892 207.347418 
L 479.369942 195.637437 
L 516.669327 179.113342 
L 570.03125 163.494287 
L 570.03125 -32.79425 
L 570.03125 -32.79425 
L 516.669327 -28.369038 
L 479.369942 -21.765133 
L 466.648892 -15.743647 
L 451.603083 -14.617301 
L 433.188501 -8.336295 
L 409.447976 4.899985 
L 375.987584 45.439528 
L 352.247059 91.041559 
L 337.20125 135.996028 
z
" clip-path="url(#pa0c4792fde)" style="fill: #ae682f; fill-opacity: 0.01; stroke: #ae682f; stroke-opacity: 0.01"/>
   </g>
   <g id="PolyCollection_15">
    <path d="M 337.20125 142.690593 
L 337.20125 289.444378 
L 352.247059 288.100864 
L 375.987584 278.969461 
L 409.447976 262.239061 
L 433.188501 249.105593 
L 451.603083 241.602201 
L 466.648892 235.636802 
L 479.369942 233.583817 
L 516.669327 220.579561 
L 570.03125 217.835054 
L 570.03125 -9.27075 
L 570.03125 -9.27075 
L 516.669327 -7.389657 
L 479.369942 2.734087 
L 466.648892 4.535769 
L 451.603083 10.13437 
L 433.188501 18.049645 
L 409.447976 34.982577 
L 375.987584 66.820976 
L 352.247059 100.090907 
L 337.20125 142.690593 
z
" clip-path="url(#pa0c4792fde)" style="fill: #f79646; fill-opacity: 0.01; stroke: #f79646; stroke-opacity: 0.01"/>
   </g>
   <g id="PolyCollection_16">
    <path d="M 337.20125 89.78415 
L 337.20125 286.072687 
L 352.247059 267.610591 
L 375.987584 232.753555 
L 409.447976 186.457461 
L 433.188501 179.113342 
L 451.603083 176.793848 
L 466.648892 176.793848 
L 479.369942 176.793848 
L 516.669327 176.793848 
L 570.03125 176.793848 
L 570.03125 -29.133278 
L 570.03125 -29.133278 
L 516.669327 -29.133278 
L 479.369942 -29.133278 
L 466.648892 -29.133278 
L 451.603083 -29.133278 
L 433.188501 -28.369038 
L 409.447976 -25.691024 
L 375.987584 2.022483 
L 352.247059 43.487847 
L 337.20125 89.78415 
z
" clip-path="url(#pa0c4792fde)" style="fill: #6e4a2e; fill-opacity: 0.01; stroke: #6e4a2e; stroke-opacity: 0.01"/>
   </g>
   <g id="matplotlib.axis_3">
    <g id="xtick_7">
     <g id="line2d_22">
      <g>
       <use xlink:href="#mf3b9617017" x="337.20125" y="242.279219" style="stroke: #000000; stroke-width: 0.8"/>
      </g>
     </g>
     <g id="text_15">
      <!-- 120 -->
      <g transform="translate(327.6575 256.877656) scale(0.1 -0.1)">
       <use xlink:href="#DejaVuSans-31"/>
       <use xlink:href="#DejaVuSans-32" x="63.623047"/>
       <use xlink:href="#DejaVuSans-30" x="127.246094"/>
      </g>
     </g>
    </g>
    <g id="xtick_8">
     <g id="line2d_23">
      <g>
       <use xlink:href="#mf3b9617017" x="375.987584" y="242.279219" style="stroke: #000000; stroke-width: 0.8"/>
      </g>
     </g>
     <g id="text_16">
      <!-- 192 -->
      <g transform="translate(366.443834 256.877656) scale(0.1 -0.1)">
       <use xlink:href="#DejaVuSans-31"/>
       <use xlink:href="#DejaVuSans-39" x="63.623047"/>
       <use xlink:href="#DejaVuSans-32" x="127.246094"/>
      </g>
     </g>
    </g>
    <g id="xtick_9">
     <g id="line2d_24">
      <g>
       <use xlink:href="#mf3b9617017" x="409.447976" y="242.279219" style="stroke: #000000; stroke-width: 0.8"/>
      </g>
     </g>
     <g id="text_17">
      <!-- 288 -->
      <g transform="translate(399.904226 256.877656) scale(0.1 -0.1)">
       <use xlink:href="#DejaVuSans-32"/>
       <use xlink:href="#DejaVuSans-38" x="63.623047"/>
       <use xlink:href="#DejaVuSans-38" x="127.246094"/>
      </g>
     </g>
    </g>
    <g id="xtick_10">
     <g id="line2d_25">
      <g>
       <use xlink:href="#mf3b9617017" x="451.603083" y="242.279219" style="stroke: #000000; stroke-width: 0.8"/>
      </g>
     </g>
     <g id="text_18">
      <!-- 480 -->
      <g transform="translate(442.059333 256.877656) scale(0.1 -0.1)">
       <use xlink:href="#DejaVuSans-34"/>
       <use xlink:href="#DejaVuSans-38" x="63.623047"/>
       <use xlink:href="#DejaVuSans-30" x="127.246094"/>
      </g>
     </g>
    </g>
    <g id="xtick_11">
     <g id="line2d_26">
      <g>
       <use xlink:href="#mf3b9617017" x="516.669327" y="242.279219" style="stroke: #000000; stroke-width: 0.8"/>
      </g>
     </g>
     <g id="text_19">
      <!-- 1056 -->
      <g transform="translate(503.944327 256.877656) scale(0.1 -0.1)">
       <use xlink:href="#DejaVuSans-31"/>
       <use xlink:href="#DejaVuSans-30" x="63.623047"/>
       <use xlink:href="#DejaVuSans-35" x="127.246094"/>
       <use xlink:href="#DejaVuSans-36" x="190.869141"/>
      </g>
     </g>
    </g>
    <g id="xtick_12">
     <g id="line2d_27">
      <g>
       <use xlink:href="#mf3b9617017" x="570.03125" y="242.279219" style="stroke: #000000; stroke-width: 0.8"/>
      </g>
     </g>
     <g id="text_20">
      <!-- 2016 -->
      <g transform="translate(557.30625 256.877656) scale(0.1 -0.1)">
       <use xlink:href="#DejaVuSans-32"/>
       <use xlink:href="#DejaVuSans-30" x="63.623047"/>
       <use xlink:href="#DejaVuSans-31" x="127.246094"/>
       <use xlink:href="#DejaVuSans-36" x="190.869141"/>
      </g>
     </g>
    </g>
    <g id="text_21">
     <!-- Total number of variants -->
     <g transform="translate(392.573281 270.555781) scale(0.1 -0.1)">
      <use xlink:href="#DejaVuSans-54"/>
      <use xlink:href="#DejaVuSans-6f" x="44.083984"/>
      <use xlink:href="#DejaVuSans-74" x="105.265625"/>
      <use xlink:href="#DejaVuSans-61" x="144.474609"/>
      <use xlink:href="#DejaVuSans-6c" x="205.753906"/>
      <use xlink:href="#DejaVuSans-20" x="233.537109"/>
      <use xlink:href="#DejaVuSans-6e" x="265.324219"/>
      <use xlink:href="#DejaVuSans-75" x="328.703125"/>
      <use xlink:href="#DejaVuSans-6d" x="392.082031"/>
      <use xlink:href="#DejaVuSans-62" x="489.494141"/>
      <use xlink:href="#DejaVuSans-65" x="552.970703"/>
      <use xlink:href="#DejaVuSans-72" x="614.494141"/>
      <use xlink:href="#DejaVuSans-20" x="655.607422"/>
      <use xlink:href="#DejaVuSans-6f" x="687.394531"/>
      <use xlink:href="#DejaVuSans-66" x="748.576172"/>
      <use xlink:href="#DejaVuSans-20" x="783.78125"/>
      <use xlink:href="#DejaVuSans-76" x="815.568359"/>
      <use xlink:href="#DejaVuSans-61" x="874.748047"/>
      <use xlink:href="#DejaVuSans-72" x="936.027344"/>
      <use xlink:href="#DejaVuSans-69" x="977.140625"/>
      <use xlink:href="#DejaVuSans-61" x="1004.923828"/>
      <use xlink:href="#DejaVuSans-6e" x="1066.203125"/>
      <use xlink:href="#DejaVuSans-74" x="1129.582031"/>
      <use xlink:href="#DejaVuSans-73" x="1168.791016"/>
     </g>
    </g>
   </g>
   <g id="matplotlib.axis_4">
    <g id="ytick_7">
     <g id="line2d_28">
      <g>
       <use xlink:href="#m4d373f5765" x="337.20125" y="242.279219" style="stroke: #000000; stroke-width: 0.8"/>
      </g>
     </g>
     <g id="text_22">
      <!-- 0.0 -->
      <g transform="translate(314.298125 246.078438) scale(0.1 -0.1)">
       <use xlink:href="#DejaVuSans-30"/>
       <use xlink:href="#DejaVuSans-2e" x="63.623047"/>
       <use xlink:href="#DejaVuSans-30" x="95.410156"/>
      </g>
     </g>
    </g>
    <g id="ytick_8">
     <g id="line2d_29">
      <g>
       <use xlink:href="#m4d373f5765" x="337.20125" y="196.023219" style="stroke: #000000; stroke-width: 0.8"/>
      </g>
     </g>
     <g id="text_23">
      <!-- 0.2 -->
      <g transform="translate(314.298125 199.822438) scale(0.1 -0.1)">
       <use xlink:href="#DejaVuSans-30"/>
       <use xlink:href="#DejaVuSans-2e" x="63.623047"/>
       <use xlink:href="#DejaVuSans-32" x="95.410156"/>
      </g>
     </g>
    </g>
    <g id="ytick_9">
     <g id="line2d_30">
      <g>
       <use xlink:href="#m4d373f5765" x="337.20125" y="149.767219" style="stroke: #000000; stroke-width: 0.8"/>
      </g>
     </g>
     <g id="text_24">
      <!-- 0.4 -->
      <g transform="translate(314.298125 153.566438) scale(0.1 -0.1)">
       <use xlink:href="#DejaVuSans-30"/>
       <use xlink:href="#DejaVuSans-2e" x="63.623047"/>
       <use xlink:href="#DejaVuSans-34" x="95.410156"/>
      </g>
     </g>
    </g>
    <g id="ytick_10">
     <g id="line2d_31">
      <g>
       <use xlink:href="#m4d373f5765" x="337.20125" y="103.511219" style="stroke: #000000; stroke-width: 0.8"/>
      </g>
     </g>
     <g id="text_25">
      <!-- 0.6 -->
      <g transform="translate(314.298125 107.310437) scale(0.1 -0.1)">
       <use xlink:href="#DejaVuSans-30"/>
       <use xlink:href="#DejaVuSans-2e" x="63.623047"/>
       <use xlink:href="#DejaVuSans-36" x="95.410156"/>
      </g>
     </g>
    </g>
    <g id="ytick_11">
     <g id="line2d_32">
      <g>
       <use xlink:href="#m4d373f5765" x="337.20125" y="57.255219" style="stroke: #000000; stroke-width: 0.8"/>
      </g>
     </g>
     <g id="text_26">
      <!-- 0.8 -->
      <g transform="translate(314.298125 61.054438) scale(0.1 -0.1)">
       <use xlink:href="#DejaVuSans-30"/>
       <use xlink:href="#DejaVuSans-2e" x="63.623047"/>
       <use xlink:href="#DejaVuSans-38" x="95.410156"/>
      </g>
     </g>
    </g>
    <g id="ytick_12">
     <g id="line2d_33">
      <g>
       <use xlink:href="#m4d373f5765" x="337.20125" y="10.999219" style="stroke: #000000; stroke-width: 0.8"/>
      </g>
     </g>
     <g id="text_27">
      <!-- 1.0 -->
      <g transform="translate(314.298125 14.798438) scale(0.1 -0.1)">
       <use xlink:href="#DejaVuSans-31"/>
       <use xlink:href="#DejaVuSans-2e" x="63.623047"/>
       <use xlink:href="#DejaVuSans-30" x="95.410156"/>
      </g>
     </g>
    </g>
    <g id="text_28">
     <!-- Fraction reaching the global optimum -->
     <g transform="translate(308.218438 220.636094) rotate(-90) scale(0.1 -0.1)">
      <defs>
       <path id="DejaVuSans-46" d="M 628 4666 
L 3309 4666 
L 3309 4134 
L 1259 4134 
L 1259 2759 
L 3109 2759 
L 3109 2228 
L 1259 2228 
L 1259 0 
L 628 0 
L 628 4666 
z
" transform="scale(0.015625)"/>
       <path id="DejaVuSans-70" d="M 1159 525 
L 1159 -1331 
L 581 -1331 
L 581 3500 
L 1159 3500 
L 1159 2969 
Q 1341 3281 1617 3432 
Q 1894 3584 2278 3584 
Q 2916 3584 3314 3078 
Q 3713 2572 3713 1747 
Q 3713 922 3314 415 
Q 2916 -91 2278 -91 
Q 1894 -91 1617 61 
Q 1341 213 1159 525 
z
M 3116 1747 
Q 3116 2381 2855 2742 
Q 2594 3103 2138 3103 
Q 1681 3103 1420 2742 
Q 1159 2381 1159 1747 
Q 1159 1113 1420 752 
Q 1681 391 2138 391 
Q 2594 391 2855 752 
Q 3116 1113 3116 1747 
z
" transform="scale(0.015625)"/>
      </defs>
      <use xlink:href="#DejaVuSans-46"/>
      <use xlink:href="#DejaVuSans-72" x="50.269531"/>
      <use xlink:href="#DejaVuSans-61" x="91.382812"/>
      <use xlink:href="#DejaVuSans-63" x="152.662109"/>
      <use xlink:href="#DejaVuSans-74" x="207.642578"/>
      <use xlink:href="#DejaVuSans-69" x="246.851562"/>
      <use xlink:href="#DejaVuSans-6f" x="274.634766"/>
      <use xlink:href="#DejaVuSans-6e" x="335.816406"/>
      <use xlink:href="#DejaVuSans-20" x="399.195312"/>
      <use xlink:href="#DejaVuSans-72" x="430.982422"/>
      <use xlink:href="#DejaVuSans-65" x="469.845703"/>
      <use xlink:href="#DejaVuSans-61" x="531.369141"/>
      <use xlink:href="#DejaVuSans-63" x="592.648438"/>
      <use xlink:href="#DejaVuSans-68" x="647.628906"/>
      <use xlink:href="#DejaVuSans-69" x="711.007812"/>
      <use xlink:href="#DejaVuSans-6e" x="738.791016"/>
      <use xlink:href="#DejaVuSans-67" x="802.169922"/>
      <use xlink:href="#DejaVuSans-20" x="865.646484"/>
      <use xlink:href="#DejaVuSans-74" x="897.433594"/>
      <use xlink:href="#DejaVuSans-68" x="936.642578"/>
      <use xlink:href="#DejaVuSans-65" x="1000.021484"/>
      <use xlink:href="#DejaVuSans-20" x="1061.544922"/>
      <use xlink:href="#DejaVuSans-67" x="1093.332031"/>
      <use xlink:href="#DejaVuSans-6c" x="1156.808594"/>
      <use xlink:href="#DejaVuSans-6f" x="1184.591797"/>
      <use xlink:href="#DejaVuSans-62" x="1245.773438"/>
      <use xlink:href="#DejaVuSans-61" x="1309.25"/>
      <use xlink:href="#DejaVuSans-6c" x="1370.529297"/>
      <use xlink:href="#DejaVuSans-20" x="1398.3125"/>
      <use xlink:href="#DejaVuSans-6f" x="1430.099609"/>
      <use xlink:href="#DejaVuSans-70" x="1491.28125"/>
      <use xlink:href="#DejaVuSans-74" x="1554.757812"/>
      <use xlink:href="#DejaVuSans-69" x="1593.966797"/>
      <use xlink:href="#DejaVuSans-6d" x="1621.75"/>
      <use xlink:href="#DejaVuSans-75" x="1719.162109"/>
      <use xlink:href="#DejaVuSans-6d" x="1782.541016"/>
     </g>
    </g>
   </g>
   <g id="line2d_34">
    <path d="M 337.20125 225.318685 
L 352.247059 209.900019 
L 375.987584 190.626685 
L 409.447976 177.135352 
L 433.188501 167.498685 
L 451.603083 158.247485 
L 466.648892 147.454419 
L 479.369942 139.745085 
L 516.669327 111.606019 
L 570.03125 96.572819 
" clip-path="url(#pa0c4792fde)" style="fill: none; stroke: #666666; stroke-width: 2; stroke-linecap: square"/>
    <g clip-path="url(#pa0c4792fde)">
     <use xlink:href="#m642242dec3" x="337.20125" y="225.318685" style="fill: #666666; stroke: #666666"/>
     <use xlink:href="#m642242dec3" x="352.247059" y="209.900019" style="fill: #666666; stroke: #666666"/>
     <use xlink:href="#m642242dec3" x="375.987584" y="190.626685" style="fill: #666666; stroke: #666666"/>
     <use xlink:href="#m642242dec3" x="409.447976" y="177.135352" style="fill: #666666; stroke: #666666"/>
     <use xlink:href="#m642242dec3" x="433.188501" y="167.498685" style="fill: #666666; stroke: #666666"/>
     <use xlink:href="#m642242dec3" x="451.603083" y="158.247485" style="fill: #666666; stroke: #666666"/>
     <use xlink:href="#m642242dec3" x="466.648892" y="147.454419" style="fill: #666666; stroke: #666666"/>
     <use xlink:href="#m642242dec3" x="479.369942" y="139.745085" style="fill: #666666; stroke: #666666"/>
     <use xlink:href="#m642242dec3" x="516.669327" y="111.606019" style="fill: #666666; stroke: #666666"/>
     <use xlink:href="#m642242dec3" x="570.03125" y="96.572819" style="fill: #666666; stroke: #666666"/>
    </g>
   </g>
   <g id="line2d_35">
    <path d="M 337.20125 221.849485 
L 352.247059 210.670952 
L 375.987584 175.593485 
L 409.447976 140.516019 
L 433.188501 130.493885 
L 451.603083 125.868285 
L 466.648892 128.952019 
L 479.369942 126.253752 
L 516.669327 112.762419 
L 570.03125 102.354819 
" clip-path="url(#pa0c4792fde)" style="fill: none; stroke: #4bacc6; stroke-width: 2; stroke-linecap: square"/>
    <g clip-path="url(#pa0c4792fde)">
     <use xlink:href="#mb440a411bd" x="337.20125" y="221.849485" style="fill: #4bacc6; stroke: #4bacc6"/>
     <use xlink:href="#mb440a411bd" x="352.247059" y="210.670952" style="fill: #4bacc6; stroke: #4bacc6"/>
     <use xlink:href="#mb440a411bd" x="375.987584" y="175.593485" style="fill: #4bacc6; stroke: #4bacc6"/>
     <use xlink:href="#mb440a411bd" x="409.447976" y="140.516019" style="fill: #4bacc6; stroke: #4bacc6"/>
     <use xlink:href="#mb440a411bd" x="433.188501" y="130.493885" style="fill: #4bacc6; stroke: #4bacc6"/>
     <use xlink:href="#mb440a411bd" x="451.603083" y="125.868285" style="fill: #4bacc6; stroke: #4bacc6"/>
     <use xlink:href="#mb440a411bd" x="466.648892" y="128.952019" style="fill: #4bacc6; stroke: #4bacc6"/>
     <use xlink:href="#mb440a411bd" x="479.369942" y="126.253752" style="fill: #4bacc6; stroke: #4bacc6"/>
     <use xlink:href="#mb440a411bd" x="516.669327" y="112.762419" style="fill: #4bacc6; stroke: #4bacc6"/>
     <use xlink:href="#mb440a411bd" x="570.03125" y="102.354819" style="fill: #4bacc6; stroke: #4bacc6"/>
    </g>
   </g>
   <g id="line2d_36">
    <path d="M 337.20125 207.972685 
L 352.247059 188.699352 
L 375.987584 142.057885 
L 409.447976 106.209485 
L 433.188501 96.958285 
L 451.603083 91.561752 
L 466.648892 88.092552 
L 479.369942 85.394285 
L 516.669327 79.612285 
L 570.03125 76.528552 
" clip-path="url(#pa0c4792fde)" style="fill: none; stroke: #9bbb59; stroke-width: 2; stroke-linecap: square"/>
    <g clip-path="url(#pa0c4792fde)">
     <use xlink:href="#ma8a9b6df24" x="337.20125" y="207.972685" style="fill: #9bbb59; stroke: #9bbb59"/>
     <use xlink:href="#ma8a9b6df24" x="352.247059" y="188.699352" style="fill: #9bbb59; stroke: #9bbb59"/>
     <use xlink:href="#ma8a9b6df24" x="375.987584" y="142.057885" style="fill: #9bbb59; stroke: #9bbb59"/>
     <use xlink:href="#ma8a9b6df24" x="409.447976" y="106.209485" style="fill: #9bbb59; stroke: #9bbb59"/>
     <use xlink:href="#ma8a9b6df24" x="433.188501" y="96.958285" style="fill: #9bbb59; stroke: #9bbb59"/>
     <use xlink:href="#ma8a9b6df24" x="451.603083" y="91.561752" style="fill: #9bbb59; stroke: #9bbb59"/>
     <use xlink:href="#ma8a9b6df24" x="466.648892" y="88.092552" style="fill: #9bbb59; stroke: #9bbb59"/>
     <use xlink:href="#ma8a9b6df24" x="479.369942" y="85.394285" style="fill: #9bbb59; stroke: #9bbb59"/>
     <use xlink:href="#ma8a9b6df24" x="516.669327" y="79.612285" style="fill: #9bbb59; stroke: #9bbb59"/>
     <use xlink:href="#ma8a9b6df24" x="570.03125" y="76.528552" style="fill: #9bbb59; stroke: #9bbb59"/>
    </g>
   </g>
   <g id="line2d_37">
    <path d="M 337.20125 217.609352 
L 352.247059 200.648819 
L 375.987584 167.498685 
L 409.447976 130.493885 
L 433.188501 121.628152 
L 451.603083 114.304285 
L 466.648892 105.438552 
L 479.369942 93.874552 
L 516.669327 82.696019 
L 570.03125 77.299485 
" clip-path="url(#pa0c4792fde)" style="fill: none; stroke: #8064a2; stroke-width: 2; stroke-linecap: square"/>
    <g clip-path="url(#pa0c4792fde)">
     <use xlink:href="#m5b6a5f08b7" x="337.20125" y="217.609352" style="fill: #8064a2; stroke: #8064a2"/>
     <use xlink:href="#m5b6a5f08b7" x="352.247059" y="200.648819" style="fill: #8064a2; stroke: #8064a2"/>
     <use xlink:href="#m5b6a5f08b7" x="375.987584" y="167.498685" style="fill: #8064a2; stroke: #8064a2"/>
     <use xlink:href="#m5b6a5f08b7" x="409.447976" y="130.493885" style="fill: #8064a2; stroke: #8064a2"/>
     <use xlink:href="#m5b6a5f08b7" x="433.188501" y="121.628152" style="fill: #8064a2; stroke: #8064a2"/>
     <use xlink:href="#m5b6a5f08b7" x="451.603083" y="114.304285" style="fill: #8064a2; stroke: #8064a2"/>
     <use xlink:href="#m5b6a5f08b7" x="466.648892" y="105.438552" style="fill: #8064a2; stroke: #8064a2"/>
     <use xlink:href="#m5b6a5f08b7" x="479.369942" y="93.874552" style="fill: #8064a2; stroke: #8064a2"/>
     <use xlink:href="#m5b6a5f08b7" x="516.669327" y="82.696019" style="fill: #8064a2; stroke: #8064a2"/>
     <use xlink:href="#m5b6a5f08b7" x="570.03125" y="77.299485" style="fill: #8064a2; stroke: #8064a2"/>
    </g>
   </g>
   <g id="line2d_38">
    <path d="M 337.20125 197.179619 
L 352.247059 172.509752 
L 375.987584 141.672419 
L 409.447976 116.617085 
L 433.188501 102.740285 
L 451.603083 97.343752 
L 466.648892 93.489085 
L 479.369942 88.863485 
L 516.669327 74.601219 
L 570.03125 70.746552 
" clip-path="url(#pa0c4792fde)" style="fill: none; stroke: #f9be00; stroke-width: 2; stroke-linecap: square"/>
    <g clip-path="url(#pa0c4792fde)">
     <use xlink:href="#m6a336ecb83" x="337.20125" y="197.179619" style="fill: #f9be00; stroke: #f9be00"/>
     <use xlink:href="#m6a336ecb83" x="352.247059" y="172.509752" style="fill: #f9be00; stroke: #f9be00"/>
     <use xlink:href="#m6a336ecb83" x="375.987584" y="141.672419" style="fill: #f9be00; stroke: #f9be00"/>
     <use xlink:href="#m6a336ecb83" x="409.447976" y="116.617085" style="fill: #f9be00; stroke: #f9be00"/>
     <use xlink:href="#m6a336ecb83" x="433.188501" y="102.740285" style="fill: #f9be00; stroke: #f9be00"/>
     <use xlink:href="#m6a336ecb83" x="451.603083" y="97.343752" style="fill: #f9be00; stroke: #f9be00"/>
     <use xlink:href="#m6a336ecb83" x="466.648892" y="93.489085" style="fill: #f9be00; stroke: #f9be00"/>
     <use xlink:href="#m6a336ecb83" x="479.369942" y="88.863485" style="fill: #f9be00; stroke: #f9be00"/>
     <use xlink:href="#m6a336ecb83" x="516.669327" y="74.601219" style="fill: #f9be00; stroke: #f9be00"/>
     <use xlink:href="#m6a336ecb83" x="570.03125" y="70.746552" style="fill: #f9be00; stroke: #f9be00"/>
    </g>
   </g>
   <g id="line2d_39">
    <path d="M 337.20125 212.983752 
L 352.247059 188.699352 
L 375.987584 157.091085 
L 409.447976 120.471752 
L 433.188501 105.438552 
L 451.603083 97.343752 
L 466.648892 95.801885 
L 479.369942 86.936152 
L 516.669327 75.372152 
L 570.03125 65.350019 
" clip-path="url(#pa0c4792fde)" style="fill: none; stroke: #ae682f; stroke-width: 2; stroke-linecap: square"/>
    <g clip-path="url(#pa0c4792fde)">
     <use xlink:href="#m0ce3be4252" x="337.20125" y="212.983752" style="fill: #ae682f; stroke: #ae682f"/>
     <use xlink:href="#m0ce3be4252" x="352.247059" y="188.699352" style="fill: #ae682f; stroke: #ae682f"/>
     <use xlink:href="#m0ce3be4252" x="375.987584" y="157.091085" style="fill: #ae682f; stroke: #ae682f"/>
     <use xlink:href="#m0ce3be4252" x="409.447976" y="120.471752" style="fill: #ae682f; stroke: #ae682f"/>
     <use xlink:href="#m0ce3be4252" x="433.188501" y="105.438552" style="fill: #ae682f; stroke: #ae682f"/>
     <use xlink:href="#m0ce3be4252" x="451.603083" y="97.343752" style="fill: #ae682f; stroke: #ae682f"/>
     <use xlink:href="#m0ce3be4252" x="466.648892" y="95.801885" style="fill: #ae682f; stroke: #ae682f"/>
     <use xlink:href="#m0ce3be4252" x="479.369942" y="86.936152" style="fill: #ae682f; stroke: #ae682f"/>
     <use xlink:href="#m0ce3be4252" x="516.669327" y="75.372152" style="fill: #ae682f; stroke: #ae682f"/>
     <use xlink:href="#m0ce3be4252" x="570.03125" y="65.350019" style="fill: #ae682f; stroke: #ae682f"/>
    </g>
   </g>
   <g id="line2d_40">
    <path d="M 337.20125 216.067485 
L 352.247059 194.095885 
L 375.987584 172.895219 
L 409.447976 148.610819 
L 433.188501 133.577619 
L 451.603083 125.868285 
L 466.648892 120.086285 
L 479.369942 118.158952 
L 516.669327 106.594952 
L 570.03125 104.282152 
" clip-path="url(#pa0c4792fde)" style="fill: none; stroke: #f79646; stroke-width: 2; stroke-linecap: square"/>
    <g clip-path="url(#pa0c4792fde)">
     <use xlink:href="#mf2e765c997" x="337.20125" y="216.067485" style="fill: #f79646; stroke: #f79646"/>
     <use xlink:href="#mf2e765c997" x="352.247059" y="194.095885" style="fill: #f79646; stroke: #f79646"/>
     <use xlink:href="#mf2e765c997" x="375.987584" y="172.895219" style="fill: #f79646; stroke: #f79646"/>
     <use xlink:href="#mf2e765c997" x="409.447976" y="148.610819" style="fill: #f79646; stroke: #f79646"/>
     <use xlink:href="#mf2e765c997" x="433.188501" y="133.577619" style="fill: #f79646; stroke: #f79646"/>
     <use xlink:href="#mf2e765c997" x="451.603083" y="125.868285" style="fill: #f79646; stroke: #f79646"/>
     <use xlink:href="#mf2e765c997" x="466.648892" y="120.086285" style="fill: #f79646; stroke: #f79646"/>
     <use xlink:href="#mf2e765c997" x="479.369942" y="118.158952" style="fill: #f79646; stroke: #f79646"/>
     <use xlink:href="#mf2e765c997" x="516.669327" y="106.594952" style="fill: #f79646; stroke: #f79646"/>
     <use xlink:href="#mf2e765c997" x="570.03125" y="104.282152" style="fill: #f79646; stroke: #f79646"/>
    </g>
   </g>
   <g id="line2d_41">
    <path d="M 337.20125 187.928419 
L 352.247059 155.549219 
L 375.987584 117.388019 
L 409.447976 80.383219 
L 433.188501 75.372152 
L 451.603083 73.830285 
L 466.648892 73.830285 
L 479.369942 73.830285 
L 516.669327 73.830285 
L 570.03125 73.830285 
" clip-path="url(#pa0c4792fde)" style="fill: none; stroke-dasharray: 7.4,3.2; stroke-dashoffset: 0; stroke: #6e4a2e; stroke-width: 2"/>
    <g clip-path="url(#pa0c4792fde)">
     <use xlink:href="#m63649df6e2" x="337.20125" y="187.928419" style="fill: #6e4a2e; stroke: #6e4a2e"/>
     <use xlink:href="#m63649df6e2" x="352.247059" y="155.549219" style="fill: #6e4a2e; stroke: #6e4a2e"/>
     <use xlink:href="#m63649df6e2" x="375.987584" y="117.388019" style="fill: #6e4a2e; stroke: #6e4a2e"/>
     <use xlink:href="#m63649df6e2" x="409.447976" y="80.383219" style="fill: #6e4a2e; stroke: #6e4a2e"/>
     <use xlink:href="#m63649df6e2" x="433.188501" y="75.372152" style="fill: #6e4a2e; stroke: #6e4a2e"/>
     <use xlink:href="#m63649df6e2" x="451.603083" y="73.830285" style="fill: #6e4a2e; stroke: #6e4a2e"/>
     <use xlink:href="#m63649df6e2" x="466.648892" y="73.830285" style="fill: #6e4a2e; stroke: #6e4a2e"/>
     <use xlink:href="#m63649df6e2" x="479.369942" y="73.830285" style="fill: #6e4a2e; stroke: #6e4a2e"/>
     <use xlink:href="#m63649df6e2" x="516.669327" y="73.830285" style="fill: #6e4a2e; stroke: #6e4a2e"/>
     <use xlink:href="#m63649df6e2" x="570.03125" y="73.830285" style="fill: #6e4a2e; stroke: #6e4a2e"/>
    </g>
   </g>
   <g id="line2d_42">
    <path d="M 451.603083 242.279219 
L 451.603083 10.999219 
" clip-path="url(#pa0c4792fde)" style="fill: none; stroke-dasharray: 0.5,0.825; stroke-dashoffset: 0; stroke: #808080; stroke-width: 0.5"/>
   </g>
   <g id="patch_8">
    <path d="M 337.20125 242.279219 
L 337.20125 10.999219 
" style="fill: none; stroke: #000000; stroke-width: 0.8; stroke-linejoin: miter; stroke-linecap: square"/>
   </g>
   <g id="patch_9">
    <path d="M 570.03125 242.279219 
L 570.03125 10.999219 
" style="fill: none; stroke: #000000; stroke-width: 0.8; stroke-linejoin: miter; stroke-linecap: square"/>
   </g>
   <g id="patch_10">
    <path d="M 337.20125 242.279219 
L 570.03125 242.279219 
" style="fill: none; stroke: #000000; stroke-width: 0.8; stroke-linejoin: miter; stroke-linecap: square"/>
   </g>
   <g id="patch_11">
    <path d="M 337.20125 10.999219 
L 570.03125 10.999219 
" style="fill: none; stroke: #000000; stroke-width: 0.8; stroke-linejoin: miter; stroke-linecap: square"/>
   </g>
   <g id="legend_1">
    <g id="patch_12">
     <path d="M 577.03125 141.840031 
L 703.176563 141.840031 
Q 705.176563 141.840031 705.176563 139.840031 
L 705.176563 12.217219 
Q 705.176563 10.217219 703.176563 10.217219 
L 577.03125 10.217219 
Q 575.03125 10.217219 575.03125 12.217219 
L 575.03125 139.840031 
Q 575.03125 141.840031 577.03125 141.840031 
z
" style="fill: #ffffff; opacity: 0.8; stroke: #cccccc; stroke-linejoin: miter"/>
    </g>
    <g id="line2d_43">
     <path d="M 579.03125 18.315656 
L 589.03125 18.315656 
L 599.03125 18.315656 
" style="fill: none; stroke: #666666; stroke-width: 2; stroke-linecap: square"/>
     <g>
      <use xlink:href="#m642242dec3" x="589.03125" y="18.315656" style="fill: #666666; stroke: #666666"/>
     </g>
    </g>
    <g id="text_29">
     <!-- Random sampling -->
     <g transform="translate(607.03125 21.815656) scale(0.1 -0.1)">
      <defs>
       <path id="DejaVuSans-52" d="M 2841 2188 
Q 3044 2119 3236 1894 
Q 3428 1669 3622 1275 
L 4263 0 
L 3584 0 
L 2988 1197 
Q 2756 1666 2539 1819 
Q 2322 1972 1947 1972 
L 1259 1972 
L 1259 0 
L 628 0 
L 628 4666 
L 2053 4666 
Q 2853 4666 3247 4331 
Q 3641 3997 3641 3322 
Q 3641 2881 3436 2590 
Q 3231 2300 2841 2188 
z
M 1259 4147 
L 1259 2491 
L 2053 2491 
Q 2509 2491 2742 2702 
Q 2975 2913 2975 3322 
Q 2975 3731 2742 3939 
Q 2509 4147 2053 4147 
L 1259 4147 
z
" transform="scale(0.015625)"/>
      </defs>
      <use xlink:href="#DejaVuSans-52"/>
      <use xlink:href="#DejaVuSans-61" x="67.232422"/>
      <use xlink:href="#DejaVuSans-6e" x="128.511719"/>
      <use xlink:href="#DejaVuSans-64" x="191.890625"/>
      <use xlink:href="#DejaVuSans-6f" x="255.367188"/>
      <use xlink:href="#DejaVuSans-6d" x="316.548828"/>
      <use xlink:href="#DejaVuSans-20" x="413.960938"/>
      <use xlink:href="#DejaVuSans-73" x="445.748047"/>
      <use xlink:href="#DejaVuSans-61" x="497.847656"/>
      <use xlink:href="#DejaVuSans-6d" x="559.126953"/>
      <use xlink:href="#DejaVuSans-70" x="656.539062"/>
      <use xlink:href="#DejaVuSans-6c" x="720.015625"/>
      <use xlink:href="#DejaVuSans-69" x="747.798828"/>
      <use xlink:href="#DejaVuSans-6e" x="775.582031"/>
      <use xlink:href="#DejaVuSans-67" x="838.960938"/>
     </g>
    </g>
    <g id="line2d_44">
     <path d="M 579.03125 32.993781 
L 589.03125 32.993781 
L 599.03125 32.993781 
" style="fill: none; stroke: #4bacc6; stroke-width: 2; stroke-linecap: square"/>
     <g>
      <use xlink:href="#mb440a411bd" x="589.03125" y="32.993781" style="fill: #4bacc6; stroke: #4bacc6"/>
     </g>
    </g>
    <g id="text_30">
     <!-- Hamming distance -->
     <g transform="translate(607.03125 36.493781) scale(0.1 -0.1)">
      <defs>
       <path id="DejaVuSans-48" d="M 628 4666 
L 1259 4666 
L 1259 2753 
L 3553 2753 
L 3553 4666 
L 4184 4666 
L 4184 0 
L 3553 0 
L 3553 2222 
L 1259 2222 
L 1259 0 
L 628 0 
L 628 4666 
z
" transform="scale(0.015625)"/>
      </defs>
      <use xlink:href="#DejaVuSans-48"/>
      <use xlink:href="#DejaVuSans-61" x="75.195312"/>
      <use xlink:href="#DejaVuSans-6d" x="136.474609"/>
      <use xlink:href="#DejaVuSans-6d" x="233.886719"/>
      <use xlink:href="#DejaVuSans-69" x="331.298828"/>
      <use xlink:href="#DejaVuSans-6e" x="359.082031"/>
      <use xlink:href="#DejaVuSans-67" x="422.460938"/>
      <use xlink:href="#DejaVuSans-20" x="485.9375"/>
      <use xlink:href="#DejaVuSans-64" x="517.724609"/>
      <use xlink:href="#DejaVuSans-69" x="581.201172"/>
      <use xlink:href="#DejaVuSans-73" x="608.984375"/>
      <use xlink:href="#DejaVuSans-74" x="661.083984"/>
      <use xlink:href="#DejaVuSans-61" x="700.292969"/>
      <use xlink:href="#DejaVuSans-6e" x="761.572266"/>
      <use xlink:href="#DejaVuSans-63" x="824.951172"/>
      <use xlink:href="#DejaVuSans-65" x="879.931641"/>
     </g>
    </g>
    <g id="line2d_45">
     <path d="M 579.03125 47.671906 
L 589.03125 47.671906 
L 599.03125 47.671906 
" style="fill: none; stroke: #9bbb59; stroke-width: 2; stroke-linecap: square"/>
     <g>
      <use xlink:href="#ma8a9b6df24" x="589.03125" y="47.671906" style="fill: #9bbb59; stroke: #9bbb59"/>
     </g>
    </g>
    <g id="text_31">
     <!-- EVmutation -->
     <g transform="translate(607.03125 51.171906) scale(0.1 -0.1)">
      <defs>
       <path id="DejaVuSans-45" d="M 628 4666 
L 3578 4666 
L 3578 4134 
L 1259 4134 
L 1259 2753 
L 3481 2753 
L 3481 2222 
L 1259 2222 
L 1259 531 
L 3634 531 
L 3634 0 
L 628 0 
L 628 4666 
z
" transform="scale(0.015625)"/>
       <path id="DejaVuSans-56" d="M 1831 0 
L 50 4666 
L 709 4666 
L 2188 738 
L 3669 4666 
L 4325 4666 
L 2547 0 
L 1831 0 
z
" transform="scale(0.015625)"/>
      </defs>
      <use xlink:href="#DejaVuSans-45"/>
      <use xlink:href="#DejaVuSans-56" x="63.183594"/>
      <use xlink:href="#DejaVuSans-6d" x="131.591797"/>
      <use xlink:href="#DejaVuSans-75" x="229.003906"/>
      <use xlink:href="#DejaVuSans-74" x="292.382812"/>
      <use xlink:href="#DejaVuSans-61" x="331.591797"/>
      <use xlink:href="#DejaVuSans-74" x="392.871094"/>
      <use xlink:href="#DejaVuSans-69" x="432.080078"/>
      <use xlink:href="#DejaVuSans-6f" x="459.863281"/>
      <use xlink:href="#DejaVuSans-6e" x="521.044922"/>
     </g>
    </g>
    <g id="line2d_46">
     <path d="M 579.03125 62.350031 
L 589.03125 62.350031 
L 599.03125 62.350031 
" style="fill: none; stroke: #8064a2; stroke-width: 2; stroke-linecap: square"/>
     <g>
      <use xlink:href="#m5b6a5f08b7" x="589.03125" y="62.350031" style="fill: #8064a2; stroke: #8064a2"/>
     </g>
    </g>
    <g id="text_32">
     <!-- ESM -->
     <g transform="translate(607.03125 65.850031) scale(0.1 -0.1)">
      <defs>
       <path id="DejaVuSans-53" d="M 3425 4513 
L 3425 3897 
Q 3066 4069 2747 4153 
Q 2428 4238 2131 4238 
Q 1616 4238 1336 4038 
Q 1056 3838 1056 3469 
Q 1056 3159 1242 3001 
Q 1428 2844 1947 2747 
L 2328 2669 
Q 3034 2534 3370 2195 
Q 3706 1856 3706 1288 
Q 3706 609 3251 259 
Q 2797 -91 1919 -91 
Q 1588 -91 1214 -16 
Q 841 59 441 206 
L 441 856 
Q 825 641 1194 531 
Q 1563 422 1919 422 
Q 2459 422 2753 634 
Q 3047 847 3047 1241 
Q 3047 1584 2836 1778 
Q 2625 1972 2144 2069 
L 1759 2144 
Q 1053 2284 737 2584 
Q 422 2884 422 3419 
Q 422 4038 858 4394 
Q 1294 4750 2059 4750 
Q 2388 4750 2728 4690 
Q 3069 4631 3425 4513 
z
" transform="scale(0.015625)"/>
       <path id="DejaVuSans-4d" d="M 628 4666 
L 1569 4666 
L 2759 1491 
L 3956 4666 
L 4897 4666 
L 4897 0 
L 4281 0 
L 4281 4097 
L 3078 897 
L 2444 897 
L 1241 4097 
L 1241 0 
L 628 0 
L 628 4666 
z
" transform="scale(0.015625)"/>
      </defs>
      <use xlink:href="#DejaVuSans-45"/>
      <use xlink:href="#DejaVuSans-53" x="63.183594"/>
      <use xlink:href="#DejaVuSans-4d" x="126.660156"/>
     </g>
    </g>
    <g id="line2d_47">
     <path d="M 579.03125 77.028156 
L 589.03125 77.028156 
L 599.03125 77.028156 
" style="fill: none; stroke: #f9be00; stroke-width: 2; stroke-linecap: square"/>
     <g>
      <use xlink:href="#m6a336ecb83" x="589.03125" y="77.028156" style="fill: #f9be00; stroke: #f9be00"/>
     </g>
    </g>
    <g id="text_33">
     <!-- ESM-IF -->
     <g transform="translate(607.03125 80.528156) scale(0.1 -0.1)">
      <defs>
       <path id="DejaVuSans-2d" d="M 313 2009 
L 1997 2009 
L 1997 1497 
L 313 1497 
L 313 2009 
z
" transform="scale(0.015625)"/>
       <path id="DejaVuSans-49" d="M 628 4666 
L 1259 4666 
L 1259 0 
L 628 0 
L 628 4666 
z
" transform="scale(0.015625)"/>
      </defs>
      <use xlink:href="#DejaVuSans-45"/>
      <use xlink:href="#DejaVuSans-53" x="63.183594"/>
      <use xlink:href="#DejaVuSans-4d" x="126.660156"/>
      <use xlink:href="#DejaVuSans-2d" x="212.939453"/>
      <use xlink:href="#DejaVuSans-49" x="249.023438"/>
      <use xlink:href="#DejaVuSans-46" x="278.515625"/>
     </g>
    </g>
    <g id="line2d_48">
     <path d="M 579.03125 91.706281 
L 589.03125 91.706281 
L 599.03125 91.706281 
" style="fill: none; stroke: #ae682f; stroke-width: 2; stroke-linecap: square"/>
     <g>
      <use xlink:href="#m0ce3be4252" x="589.03125" y="91.706281" style="fill: #ae682f; stroke: #ae682f"/>
     </g>
    </g>
    <g id="text_34">
     <!-- CoVES -->
     <g transform="translate(607.03125 95.206281) scale(0.1 -0.1)">
      <defs>
       <path id="DejaVuSans-43" d="M 4122 4306 
L 4122 3641 
Q 3803 3938 3442 4084 
Q 3081 4231 2675 4231 
Q 1875 4231 1450 3742 
Q 1025 3253 1025 2328 
Q 1025 1406 1450 917 
Q 1875 428 2675 428 
Q 3081 428 3442 575 
Q 3803 722 4122 1019 
L 4122 359 
Q 3791 134 3420 21 
Q 3050 -91 2638 -91 
Q 1578 -91 968 557 
Q 359 1206 359 2328 
Q 359 3453 968 4101 
Q 1578 4750 2638 4750 
Q 3056 4750 3426 4639 
Q 3797 4528 4122 4306 
z
" transform="scale(0.015625)"/>
      </defs>
      <use xlink:href="#DejaVuSans-43"/>
      <use xlink:href="#DejaVuSans-6f" x="69.824219"/>
      <use xlink:href="#DejaVuSans-56" x="131.005859"/>
      <use xlink:href="#DejaVuSans-45" x="199.414062"/>
      <use xlink:href="#DejaVuSans-53" x="262.597656"/>
     </g>
    </g>
    <g id="line2d_49">
     <path d="M 579.03125 106.384406 
L 589.03125 106.384406 
L 599.03125 106.384406 
" style="fill: none; stroke: #f79646; stroke-width: 2; stroke-linecap: square"/>
     <g>
      <use xlink:href="#mf2e765c997" x="589.03125" y="106.384406" style="fill: #f79646; stroke: #f79646"/>
     </g>
    </g>
    <g id="text_35">
     <!-- Triad -->
     <g transform="translate(607.03125 109.884406) scale(0.1 -0.1)">
      <use xlink:href="#DejaVuSans-54"/>
      <use xlink:href="#DejaVuSans-72" x="46.333984"/>
      <use xlink:href="#DejaVuSans-69" x="87.447266"/>
      <use xlink:href="#DejaVuSans-61" x="115.230469"/>
      <use xlink:href="#DejaVuSans-64" x="176.509766"/>
     </g>
    </g>
    <g id="line2d_50">
     <path d="M 579.03125 127.701281 
L 589.03125 127.701281 
L 599.03125 127.701281 
" style="fill: none; stroke-dasharray: 12,4; stroke-dashoffset: 0; stroke: #6e4a2e; stroke-width: 2"/>
     <g>
      <use xlink:href="#m63649df6e2" x="589.03125" y="127.701281" style="fill: #6e4a2e; stroke: #6e4a2e"/>
     </g>
    </g>
    <g id="text_36">
     <!-- Hamming distance -->
     <g transform="translate(607.03125 124.562531) scale(0.1 -0.1)">
      <use xlink:href="#DejaVuSans-48"/>
      <use xlink:href="#DejaVuSans-61" x="75.195312"/>
      <use xlink:href="#DejaVuSans-6d" x="136.474609"/>
      <use xlink:href="#DejaVuSans-6d" x="233.886719"/>
      <use xlink:href="#DejaVuSans-69" x="331.298828"/>
      <use xlink:href="#DejaVuSans-6e" x="359.082031"/>
      <use xlink:href="#DejaVuSans-67" x="422.460938"/>
      <use xlink:href="#DejaVuSans-20" x="485.9375"/>
      <use xlink:href="#DejaVuSans-64" x="517.724609"/>
      <use xlink:href="#DejaVuSans-69" x="581.201172"/>
      <use xlink:href="#DejaVuSans-73" x="608.984375"/>
      <use xlink:href="#DejaVuSans-74" x="661.083984"/>
      <use xlink:href="#DejaVuSans-61" x="700.292969"/>
      <use xlink:href="#DejaVuSans-6e" x="761.572266"/>
      <use xlink:href="#DejaVuSans-63" x="824.951172"/>
      <use xlink:href="#DejaVuSans-65" x="879.931641"/>
     </g>
     <!-- EVmutation -->
     <g transform="translate(607.03125 135.760344) scale(0.1 -0.1)">
      <use xlink:href="#DejaVuSans-45"/>
      <use xlink:href="#DejaVuSans-56" x="63.183594"/>
      <use xlink:href="#DejaVuSans-6d" x="131.591797"/>
      <use xlink:href="#DejaVuSans-75" x="229.003906"/>
      <use xlink:href="#DejaVuSans-74" x="292.382812"/>
      <use xlink:href="#DejaVuSans-61" x="331.591797"/>
      <use xlink:href="#DejaVuSans-74" x="392.871094"/>
      <use xlink:href="#DejaVuSans-69" x="432.080078"/>
      <use xlink:href="#DejaVuSans-6f" x="459.863281"/>
      <use xlink:href="#DejaVuSans-6e" x="521.044922"/>
     </g>
    </g>
   </g>
  </g>
 </g>
 <defs>
  <clipPath id="p43b07d4d18">
   <rect x="43.78125" y="10.999219" width="232.83" height="231.28"/>
  </clipPath>
  <clipPath id="pa0c4792fde">
   <rect x="337.20125" y="10.999219" width="232.83" height="231.28"/>
  </clipPath>
 </defs>
</svg>
