<?xml version="1.0" encoding="utf-8" standalone="no"?>
<!DOCTYPE svg PUBLIC "-//W3C//DTD SVG 1.1//EN"
  "http://www.w3.org/Graphics/SVG/1.1/DTD/svg11.dtd">
<svg xmlns:xlink="http://www.w3.org/1999/xlink" width="445.675312pt" height="272.839437pt" viewBox="0 0 445.675312 272.839437" xmlns="http://www.w3.org/2000/svg" version="1.1">
 <metadata>
  <rdf:RDF xmlns:dc="http://purl.org/dc/elements/1.1/" xmlns:cc="http://creativecommons.org/ns#" xmlns:rdf="http://www.w3.org/1999/02/22-rdf-syntax-ns#">
   <cc:Work>
    <dc:type rdf:resource="http://purl.org/dc/dcmitype/StillImage"/>
    <dc:date>2024-10-16T21:50:34.731943</dc:date>
    <dc:format>image/svg+xml</dc:format>
    <dc:creator>
     <cc:Agent>
      <dc:title>Matplotlib v3.8.4, https://matplotlib.org/</dc:title>
     </cc:Agent>
    </dc:creator>
   </cc:Work>
  </rdf:RDF>
 </metadata>
 <defs>
  <style type="text/css">*{stroke-linejoin: round; stroke-linecap: butt}</style>
 </defs>
 <g id="figure_1">
  <g id="patch_1">
   <path d="M -0 272.839437 
L 445.675313 272.839437 
L 445.675313 0 
L -0 0 
z
" style="fill: #ffffff"/>
  </g>
  <g id="axes_1">
   <g id="patch_2">
    <path d="M 43.78125 218.92225 
L 89.63625 218.92225 
L 89.63625 31.99625 
L 43.78125 31.99625 
z
" style="fill: #ffffff"/>
   </g>
   <g id="matplotlib.axis_1">
    <g id="xtick_1">
     <g id="line2d_1">
      <defs>
       <path id="m35b4831942" d="M 0 0 
L 0 3.5 
" style="stroke: #000000; stroke-width: 0.8"/>
      </defs>
      <g>
       <use xlink:href="#m35b4831942" x="55.245" y="218.92225" style="stroke: #000000; stroke-width: 0.8"/>
      </g>
     </g>
     <g id="text_1">
      <!-- Binding -->
      <g transform="translate(58.004375 263.711312) rotate(-90) scale(0.1 -0.1)">
       <defs>
        <path id="DejaVuSans-42" d="M 1259 2228 
L 1259 519 
L 2272 519 
Q 2781 519 3026 730 
Q 3272 941 3272 1375 
Q 3272 1813 3026 2020 
Q 2781 2228 2272 2228 
L 1259 2228 
z
M 1259 4147 
L 1259 2741 
L 2194 2741 
Q 2656 2741 2882 2914 
Q 3109 3088 3109 3444 
Q 3109 3797 2882 3972 
Q 2656 4147 2194 4147 
L 1259 4147 
z
M 628 4666 
L 2241 4666 
Q 2963 4666 3353 4366 
Q 3744 4066 3744 3513 
Q 3744 3084 3544 2831 
Q 3344 2578 2956 2516 
Q 3422 2416 3680 2098 
Q 3938 1781 3938 1306 
Q 3938 681 3513 340 
Q 3088 0 2303 0 
L 628 0 
L 628 4666 
z
" transform="scale(0.015625)"/>
        <path id="DejaVuSans-69" d="M 603 3500 
L 1178 3500 
L 1178 0 
L 603 0 
L 603 3500 
z
M 603 4863 
L 1178 4863 
L 1178 4134 
L 603 4134 
L 603 4863 
z
" transform="scale(0.015625)"/>
        <path id="DejaVuSans-6e" d="M 3513 2113 
L 3513 0 
L 2938 0 
L 2938 2094 
Q 2938 2591 2744 2837 
Q 2550 3084 2163 3084 
Q 1697 3084 1428 2787 
Q 1159 2491 1159 1978 
L 1159 0 
L 581 0 
L 581 3500 
L 1159 3500 
L 1159 2956 
Q 1366 3272 1645 3428 
Q 1925 3584 2291 3584 
Q 2894 3584 3203 3211 
Q 3513 2838 3513 2113 
z
" transform="scale(0.015625)"/>
        <path id="DejaVuSans-64" d="M 2906 2969 
L 2906 4863 
L 3481 4863 
L 3481 0 
L 2906 0 
L 2906 525 
Q 2725 213 2448 61 
Q 2172 -91 1784 -91 
Q 1150 -91 751 415 
Q 353 922 353 1747 
Q 353 2572 751 3078 
Q 1150 3584 1784 3584 
Q 2172 3584 2448 3432 
Q 2725 3281 2906 2969 
z
M 947 1747 
Q 947 1113 1208 752 
Q 1469 391 1925 391 
Q 2381 391 2643 752 
Q 2906 1113 2906 1747 
Q 2906 2381 2643 2742 
Q 2381 3103 1925 3103 
Q 1469 3103 1208 2742 
Q 947 2381 947 1747 
z
" transform="scale(0.015625)"/>
        <path id="DejaVuSans-67" d="M 2906 1791 
Q 2906 2416 2648 2759 
Q 2391 3103 1925 3103 
Q 1463 3103 1205 2759 
Q 947 2416 947 1791 
Q 947 1169 1205 825 
Q 1463 481 1925 481 
Q 2391 481 2648 825 
Q 2906 1169 2906 1791 
z
M 3481 434 
Q 3481 -459 3084 -895 
Q 2688 -1331 1869 -1331 
Q 1566 -1331 1297 -1286 
Q 1028 -1241 775 -1147 
L 775 -588 
Q 1028 -725 1275 -790 
Q 1522 -856 1778 -856 
Q 2344 -856 2625 -561 
Q 2906 -266 2906 331 
L 2906 616 
Q 2728 306 2450 153 
Q 2172 0 1784 0 
Q 1141 0 747 490 
Q 353 981 353 1791 
Q 353 2603 747 3093 
Q 1141 3584 1784 3584 
Q 2172 3584 2450 3431 
Q 2728 3278 2906 2969 
L 2906 3500 
L 3481 3500 
L 3481 434 
z
" transform="scale(0.015625)"/>
       </defs>
       <use xlink:href="#DejaVuSans-42"/>
       <use xlink:href="#DejaVuSans-69" x="68.603516"/>
       <use xlink:href="#DejaVuSans-6e" x="96.386719"/>
       <use xlink:href="#DejaVuSans-64" x="159.765625"/>
       <use xlink:href="#DejaVuSans-69" x="223.242188"/>
       <use xlink:href="#DejaVuSans-6e" x="251.025391"/>
       <use xlink:href="#DejaVuSans-67" x="314.404297"/>
      </g>
     </g>
    </g>
    <g id="xtick_2">
     <g id="line2d_2">
      <g>
       <use xlink:href="#m35b4831942" x="78.1725" y="218.92225" style="stroke: #000000; stroke-width: 0.8"/>
      </g>
     </g>
     <g id="text_2">
      <!-- Enzyme -->
      <g transform="translate(75.332969 265.639437) rotate(-90) scale(0.1 -0.1)">
       <defs>
        <path id="DejaVuSans-45" d="M 628 4666 
L 3578 4666 
L 3578 4134 
L 1259 4134 
L 1259 2753 
L 3481 2753 
L 3481 2222 
L 1259 2222 
L 1259 531 
L 3634 531 
L 3634 0 
L 628 0 
L 628 4666 
z
" transform="scale(0.015625)"/>
        <path id="DejaVuSans-7a" d="M 353 3500 
L 3084 3500 
L 3084 2975 
L 922 459 
L 3084 459 
L 3084 0 
L 275 0 
L 275 525 
L 2438 3041 
L 353 3041 
L 353 3500 
z
" transform="scale(0.015625)"/>
        <path id="DejaVuSans-79" d="M 2059 -325 
Q 1816 -950 1584 -1140 
Q 1353 -1331 966 -1331 
L 506 -1331 
L 506 -850 
L 844 -850 
Q 1081 -850 1212 -737 
Q 1344 -625 1503 -206 
L 1606 56 
L 191 3500 
L 800 3500 
L 1894 763 
L 2988 3500 
L 3597 3500 
L 2059 -325 
z
" transform="scale(0.015625)"/>
        <path id="DejaVuSans-6d" d="M 3328 2828 
Q 3544 3216 3844 3400 
Q 4144 3584 4550 3584 
Q 5097 3584 5394 3201 
Q 5691 2819 5691 2113 
L 5691 0 
L 5113 0 
L 5113 2094 
Q 5113 2597 4934 2840 
Q 4756 3084 4391 3084 
Q 3944 3084 3684 2787 
Q 3425 2491 3425 1978 
L 3425 0 
L 2847 0 
L 2847 2094 
Q 2847 2600 2669 2842 
Q 2491 3084 2119 3084 
Q 1678 3084 1418 2786 
Q 1159 2488 1159 1978 
L 1159 0 
L 581 0 
L 581 3500 
L 1159 3500 
L 1159 2956 
Q 1356 3278 1631 3431 
Q 1906 3584 2284 3584 
Q 2666 3584 2933 3390 
Q 3200 3197 3328 2828 
z
" transform="scale(0.015625)"/>
        <path id="DejaVuSans-65" d="M 3597 1894 
L 3597 1613 
L 953 1613 
Q 991 1019 1311 708 
Q 1631 397 2203 397 
Q 2534 397 2845 478 
Q 3156 559 3463 722 
L 3463 178 
Q 3153 47 2828 -22 
Q 2503 -91 2169 -91 
Q 1331 -91 842 396 
Q 353 884 353 1716 
Q 353 2575 817 3079 
Q 1281 3584 2069 3584 
Q 2775 3584 3186 3129 
Q 3597 2675 3597 1894 
z
M 3022 2063 
Q 3016 2534 2758 2815 
Q 2500 3097 2075 3097 
Q 1594 3097 1305 2825 
Q 1016 2553 972 2059 
L 3022 2063 
z
" transform="scale(0.015625)"/>
       </defs>
       <use xlink:href="#DejaVuSans-45"/>
       <use xlink:href="#DejaVuSans-6e" x="63.183594"/>
       <use xlink:href="#DejaVuSans-7a" x="126.5625"/>
       <use xlink:href="#DejaVuSans-79" x="179.052734"/>
       <use xlink:href="#DejaVuSans-6d" x="238.232422"/>
       <use xlink:href="#DejaVuSans-65" x="335.644531"/>
      </g>
      <!-- activity -->
      <g transform="translate(86.530781 264.211312) rotate(-90) scale(0.1 -0.1)">
       <defs>
        <path id="DejaVuSans-61" d="M 2194 1759 
Q 1497 1759 1228 1600 
Q 959 1441 959 1056 
Q 959 750 1161 570 
Q 1363 391 1709 391 
Q 2188 391 2477 730 
Q 2766 1069 2766 1631 
L 2766 1759 
L 2194 1759 
z
M 3341 1997 
L 3341 0 
L 2766 0 
L 2766 531 
Q 2569 213 2275 61 
Q 1981 -91 1556 -91 
Q 1019 -91 701 211 
Q 384 513 384 1019 
Q 384 1609 779 1909 
Q 1175 2209 1959 2209 
L 2766 2209 
L 2766 2266 
Q 2766 2663 2505 2880 
Q 2244 3097 1772 3097 
Q 1472 3097 1187 3025 
Q 903 2953 641 2809 
L 641 3341 
Q 956 3463 1253 3523 
Q 1550 3584 1831 3584 
Q 2591 3584 2966 3190 
Q 3341 2797 3341 1997 
z
" transform="scale(0.015625)"/>
        <path id="DejaVuSans-63" d="M 3122 3366 
L 3122 2828 
Q 2878 2963 2633 3030 
Q 2388 3097 2138 3097 
Q 1578 3097 1268 2742 
Q 959 2388 959 1747 
Q 959 1106 1268 751 
Q 1578 397 2138 397 
Q 2388 397 2633 464 
Q 2878 531 3122 666 
L 3122 134 
Q 2881 22 2623 -34 
Q 2366 -91 2075 -91 
Q 1284 -91 818 406 
Q 353 903 353 1747 
Q 353 2603 823 3093 
Q 1294 3584 2113 3584 
Q 2378 3584 2631 3529 
Q 2884 3475 3122 3366 
z
" transform="scale(0.015625)"/>
        <path id="DejaVuSans-74" d="M 1172 4494 
L 1172 3500 
L 2356 3500 
L 2356 3053 
L 1172 3053 
L 1172 1153 
Q 1172 725 1289 603 
Q 1406 481 1766 481 
L 2356 481 
L 2356 0 
L 1766 0 
Q 1100 0 847 248 
Q 594 497 594 1153 
L 594 3053 
L 172 3053 
L 172 3500 
L 594 3500 
L 594 4494 
L 1172 4494 
z
" transform="scale(0.015625)"/>
        <path id="DejaVuSans-76" d="M 191 3500 
L 800 3500 
L 1894 563 
L 2988 3500 
L 3597 3500 
L 2284 0 
L 1503 0 
L 191 3500 
z
" transform="scale(0.015625)"/>
       </defs>
       <use xlink:href="#DejaVuSans-61"/>
       <use xlink:href="#DejaVuSans-63" x="61.279297"/>
       <use xlink:href="#DejaVuSans-74" x="116.259766"/>
       <use xlink:href="#DejaVuSans-69" x="155.46875"/>
       <use xlink:href="#DejaVuSans-76" x="183.251953"/>
       <use xlink:href="#DejaVuSans-69" x="242.431641"/>
       <use xlink:href="#DejaVuSans-74" x="270.214844"/>
       <use xlink:href="#DejaVuSans-79" x="309.423828"/>
      </g>
     </g>
    </g>
   </g>
   <g id="matplotlib.axis_2">
    <g id="ytick_1">
     <g id="line2d_3">
      <defs>
       <path id="md4e6554b5c" d="M 0 0 
L -3.5 0 
" style="stroke: #000000; stroke-width: 0.8"/>
      </defs>
      <g>
       <use xlink:href="#md4e6554b5c" x="43.78125" y="218.92225" style="stroke: #000000; stroke-width: 0.8"/>
      </g>
     </g>
     <g id="text_3">
      <!-- 0.4 -->
      <g transform="translate(20.878125 222.721469) scale(0.1 -0.1)">
       <defs>
        <path id="DejaVuSans-30" d="M 2034 4250 
Q 1547 4250 1301 3770 
Q 1056 3291 1056 2328 
Q 1056 1369 1301 889 
Q 1547 409 2034 409 
Q 2525 409 2770 889 
Q 3016 1369 3016 2328 
Q 3016 3291 2770 3770 
Q 2525 4250 2034 4250 
z
M 2034 4750 
Q 2819 4750 3233 4129 
Q 3647 3509 3647 2328 
Q 3647 1150 3233 529 
Q 2819 -91 2034 -91 
Q 1250 -91 836 529 
Q 422 1150 422 2328 
Q 422 3509 836 4129 
Q 1250 4750 2034 4750 
z
" transform="scale(0.015625)"/>
        <path id="DejaVuSans-2e" d="M 684 794 
L 1344 794 
L 1344 0 
L 684 0 
L 684 794 
z
" transform="scale(0.015625)"/>
        <path id="DejaVuSans-34" d="M 2419 4116 
L 825 1625 
L 2419 1625 
L 2419 4116 
z
M 2253 4666 
L 3047 4666 
L 3047 1625 
L 3713 1625 
L 3713 1100 
L 3047 1100 
L 3047 0 
L 2419 0 
L 2419 1100 
L 313 1100 
L 313 1709 
L 2253 4666 
z
" transform="scale(0.015625)"/>
       </defs>
       <use xlink:href="#DejaVuSans-30"/>
       <use xlink:href="#DejaVuSans-2e" x="63.623047"/>
       <use xlink:href="#DejaVuSans-34" x="95.410156"/>
      </g>
     </g>
    </g>
    <g id="ytick_2">
     <g id="line2d_4">
      <g>
       <use xlink:href="#md4e6554b5c" x="43.78125" y="187.767917" style="stroke: #000000; stroke-width: 0.8"/>
      </g>
     </g>
     <g id="text_4">
      <!-- 0.5 -->
      <g transform="translate(20.878125 191.567135) scale(0.1 -0.1)">
       <defs>
        <path id="DejaVuSans-35" d="M 691 4666 
L 3169 4666 
L 3169 4134 
L 1269 4134 
L 1269 2991 
Q 1406 3038 1543 3061 
Q 1681 3084 1819 3084 
Q 2600 3084 3056 2656 
Q 3513 2228 3513 1497 
Q 3513 744 3044 326 
Q 2575 -91 1722 -91 
Q 1428 -91 1123 -41 
Q 819 9 494 109 
L 494 744 
Q 775 591 1075 516 
Q 1375 441 1709 441 
Q 2250 441 2565 725 
Q 2881 1009 2881 1497 
Q 2881 1984 2565 2268 
Q 2250 2553 1709 2553 
Q 1456 2553 1204 2497 
Q 953 2441 691 2322 
L 691 4666 
z
" transform="scale(0.015625)"/>
       </defs>
       <use xlink:href="#DejaVuSans-30"/>
       <use xlink:href="#DejaVuSans-2e" x="63.623047"/>
       <use xlink:href="#DejaVuSans-35" x="95.410156"/>
      </g>
     </g>
    </g>
    <g id="ytick_3">
     <g id="line2d_5">
      <g>
       <use xlink:href="#md4e6554b5c" x="43.78125" y="156.613583" style="stroke: #000000; stroke-width: 0.8"/>
      </g>
     </g>
     <g id="text_5">
      <!-- 0.6 -->
      <g transform="translate(20.878125 160.412802) scale(0.1 -0.1)">
       <defs>
        <path id="DejaVuSans-36" d="M 2113 2584 
Q 1688 2584 1439 2293 
Q 1191 2003 1191 1497 
Q 1191 994 1439 701 
Q 1688 409 2113 409 
Q 2538 409 2786 701 
Q 3034 994 3034 1497 
Q 3034 2003 2786 2293 
Q 2538 2584 2113 2584 
z
M 3366 4563 
L 3366 3988 
Q 3128 4100 2886 4159 
Q 2644 4219 2406 4219 
Q 1781 4219 1451 3797 
Q 1122 3375 1075 2522 
Q 1259 2794 1537 2939 
Q 1816 3084 2150 3084 
Q 2853 3084 3261 2657 
Q 3669 2231 3669 1497 
Q 3669 778 3244 343 
Q 2819 -91 2113 -91 
Q 1303 -91 875 529 
Q 447 1150 447 2328 
Q 447 3434 972 4092 
Q 1497 4750 2381 4750 
Q 2619 4750 2861 4703 
Q 3103 4656 3366 4563 
z
" transform="scale(0.015625)"/>
       </defs>
       <use xlink:href="#DejaVuSans-30"/>
       <use xlink:href="#DejaVuSans-2e" x="63.623047"/>
       <use xlink:href="#DejaVuSans-36" x="95.410156"/>
      </g>
     </g>
    </g>
    <g id="ytick_4">
     <g id="line2d_6">
      <g>
       <use xlink:href="#md4e6554b5c" x="43.78125" y="125.45925" style="stroke: #000000; stroke-width: 0.8"/>
      </g>
     </g>
     <g id="text_6">
      <!-- 0.7 -->
      <g transform="translate(20.878125 129.258469) scale(0.1 -0.1)">
       <defs>
        <path id="DejaVuSans-37" d="M 525 4666 
L 3525 4666 
L 3525 4397 
L 1831 0 
L 1172 0 
L 2766 4134 
L 525 4134 
L 525 4666 
z
" transform="scale(0.015625)"/>
       </defs>
       <use xlink:href="#DejaVuSans-30"/>
       <use xlink:href="#DejaVuSans-2e" x="63.623047"/>
       <use xlink:href="#DejaVuSans-37" x="95.410156"/>
      </g>
     </g>
    </g>
    <g id="ytick_5">
     <g id="line2d_7">
      <g>
       <use xlink:href="#md4e6554b5c" x="43.78125" y="94.304917" style="stroke: #000000; stroke-width: 0.8"/>
      </g>
     </g>
     <g id="text_7">
      <!-- 0.8 -->
      <g transform="translate(20.878125 98.104135) scale(0.1 -0.1)">
       <defs>
        <path id="DejaVuSans-38" d="M 2034 2216 
Q 1584 2216 1326 1975 
Q 1069 1734 1069 1313 
Q 1069 891 1326 650 
Q 1584 409 2034 409 
Q 2484 409 2743 651 
Q 3003 894 3003 1313 
Q 3003 1734 2745 1975 
Q 2488 2216 2034 2216 
z
M 1403 2484 
Q 997 2584 770 2862 
Q 544 3141 544 3541 
Q 544 4100 942 4425 
Q 1341 4750 2034 4750 
Q 2731 4750 3128 4425 
Q 3525 4100 3525 3541 
Q 3525 3141 3298 2862 
Q 3072 2584 2669 2484 
Q 3125 2378 3379 2068 
Q 3634 1759 3634 1313 
Q 3634 634 3220 271 
Q 2806 -91 2034 -91 
Q 1263 -91 848 271 
Q 434 634 434 1313 
Q 434 1759 690 2068 
Q 947 2378 1403 2484 
z
M 1172 3481 
Q 1172 3119 1398 2916 
Q 1625 2713 2034 2713 
Q 2441 2713 2670 2916 
Q 2900 3119 2900 3481 
Q 2900 3844 2670 4047 
Q 2441 4250 2034 4250 
Q 1625 4250 1398 4047 
Q 1172 3844 1172 3481 
z
" transform="scale(0.015625)"/>
       </defs>
       <use xlink:href="#DejaVuSans-30"/>
       <use xlink:href="#DejaVuSans-2e" x="63.623047"/>
       <use xlink:href="#DejaVuSans-38" x="95.410156"/>
      </g>
     </g>
    </g>
    <g id="ytick_6">
     <g id="line2d_8">
      <g>
       <use xlink:href="#md4e6554b5c" x="43.78125" y="63.150583" style="stroke: #000000; stroke-width: 0.8"/>
      </g>
     </g>
     <g id="text_8">
      <!-- 0.9 -->
      <g transform="translate(20.878125 66.949802) scale(0.1 -0.1)">
       <defs>
        <path id="DejaVuSans-39" d="M 703 97 
L 703 672 
Q 941 559 1184 500 
Q 1428 441 1663 441 
Q 2288 441 2617 861 
Q 2947 1281 2994 2138 
Q 2813 1869 2534 1725 
Q 2256 1581 1919 1581 
Q 1219 1581 811 2004 
Q 403 2428 403 3163 
Q 403 3881 828 4315 
Q 1253 4750 1959 4750 
Q 2769 4750 3195 4129 
Q 3622 3509 3622 2328 
Q 3622 1225 3098 567 
Q 2575 -91 1691 -91 
Q 1453 -91 1209 -44 
Q 966 3 703 97 
z
M 1959 2075 
Q 2384 2075 2632 2365 
Q 2881 2656 2881 3163 
Q 2881 3666 2632 3958 
Q 2384 4250 1959 4250 
Q 1534 4250 1286 3958 
Q 1038 3666 1038 3163 
Q 1038 2656 1286 2365 
Q 1534 2075 1959 2075 
z
" transform="scale(0.015625)"/>
       </defs>
       <use xlink:href="#DejaVuSans-30"/>
       <use xlink:href="#DejaVuSans-2e" x="63.623047"/>
       <use xlink:href="#DejaVuSans-39" x="95.410156"/>
      </g>
     </g>
    </g>
    <g id="ytick_7">
     <g id="line2d_9">
      <g>
       <use xlink:href="#md4e6554b5c" x="43.78125" y="31.99625" style="stroke: #000000; stroke-width: 0.8"/>
      </g>
     </g>
     <g id="text_9">
      <!-- 1.0 -->
      <g transform="translate(20.878125 35.795469) scale(0.1 -0.1)">
       <defs>
        <path id="DejaVuSans-31" d="M 794 531 
L 1825 531 
L 1825 4091 
L 703 3866 
L 703 4441 
L 1819 4666 
L 2450 4666 
L 2450 531 
L 3481 531 
L 3481 0 
L 794 0 
L 794 531 
z
" transform="scale(0.015625)"/>
       </defs>
       <use xlink:href="#DejaVuSans-31"/>
       <use xlink:href="#DejaVuSans-2e" x="63.623047"/>
       <use xlink:href="#DejaVuSans-30" x="95.410156"/>
      </g>
     </g>
    </g>
    <g id="text_10">
     <!-- ROC-AUC -->
     <g transform="translate(14.798438 148.623312) rotate(-90) scale(0.1 -0.1)">
      <defs>
       <path id="DejaVuSans-52" d="M 2841 2188 
Q 3044 2119 3236 1894 
Q 3428 1669 3622 1275 
L 4263 0 
L 3584 0 
L 2988 1197 
Q 2756 1666 2539 1819 
Q 2322 1972 1947 1972 
L 1259 1972 
L 1259 0 
L 628 0 
L 628 4666 
L 2053 4666 
Q 2853 4666 3247 4331 
Q 3641 3997 3641 3322 
Q 3641 2881 3436 2590 
Q 3231 2300 2841 2188 
z
M 1259 4147 
L 1259 2491 
L 2053 2491 
Q 2509 2491 2742 2702 
Q 2975 2913 2975 3322 
Q 2975 3731 2742 3939 
Q 2509 4147 2053 4147 
L 1259 4147 
z
" transform="scale(0.015625)"/>
       <path id="DejaVuSans-4f" d="M 2522 4238 
Q 1834 4238 1429 3725 
Q 1025 3213 1025 2328 
Q 1025 1447 1429 934 
Q 1834 422 2522 422 
Q 3209 422 3611 934 
Q 4013 1447 4013 2328 
Q 4013 3213 3611 3725 
Q 3209 4238 2522 4238 
z
M 2522 4750 
Q 3503 4750 4090 4092 
Q 4678 3434 4678 2328 
Q 4678 1225 4090 567 
Q 3503 -91 2522 -91 
Q 1538 -91 948 565 
Q 359 1222 359 2328 
Q 359 3434 948 4092 
Q 1538 4750 2522 4750 
z
" transform="scale(0.015625)"/>
       <path id="DejaVuSans-43" d="M 4122 4306 
L 4122 3641 
Q 3803 3938 3442 4084 
Q 3081 4231 2675 4231 
Q 1875 4231 1450 3742 
Q 1025 3253 1025 2328 
Q 1025 1406 1450 917 
Q 1875 428 2675 428 
Q 3081 428 3442 575 
Q 3803 722 4122 1019 
L 4122 359 
Q 3791 134 3420 21 
Q 3050 -91 2638 -91 
Q 1578 -91 968 557 
Q 359 1206 359 2328 
Q 359 3453 968 4101 
Q 1578 4750 2638 4750 
Q 3056 4750 3426 4639 
Q 3797 4528 4122 4306 
z
" transform="scale(0.015625)"/>
       <path id="DejaVuSans-2d" d="M 313 2009 
L 1997 2009 
L 1997 1497 
L 313 1497 
L 313 2009 
z
" transform="scale(0.015625)"/>
       <path id="DejaVuSans-41" d="M 2188 4044 
L 1331 1722 
L 3047 1722 
L 2188 4044 
z
M 1831 4666 
L 2547 4666 
L 4325 0 
L 3669 0 
L 3244 1197 
L 1141 1197 
L 716 0 
L 50 0 
L 1831 4666 
z
" transform="scale(0.015625)"/>
       <path id="DejaVuSans-55" d="M 556 4666 
L 1191 4666 
L 1191 1831 
Q 1191 1081 1462 751 
Q 1734 422 2344 422 
Q 2950 422 3222 751 
Q 3494 1081 3494 1831 
L 3494 4666 
L 4128 4666 
L 4128 1753 
Q 4128 841 3676 375 
Q 3225 -91 2344 -91 
Q 1459 -91 1007 375 
Q 556 841 556 1753 
L 556 4666 
z
" transform="scale(0.015625)"/>
      </defs>
      <use xlink:href="#DejaVuSans-52"/>
      <use xlink:href="#DejaVuSans-4f" x="69.482422"/>
      <use xlink:href="#DejaVuSans-43" x="148.193359"/>
      <use xlink:href="#DejaVuSans-2d" x="218.017578"/>
      <use xlink:href="#DejaVuSans-41" x="251.851562"/>
      <use xlink:href="#DejaVuSans-55" x="320.259766"/>
      <use xlink:href="#DejaVuSans-43" x="393.453125"/>
     </g>
    </g>
   </g>
   <g id="patch_3">
    <path d="M 48.36675 169.530426 
L 62.12325 169.530426 
L 62.12325 165.562963 
L 48.36675 165.562963 
L 48.36675 169.530426 
L 48.36675 169.530426 
z
" clip-path="url(#p155044ffe9)" style="fill: none; stroke: #666666; stroke-linejoin: miter"/>
   </g>
   <g id="line2d_10">
    <path d="M 55.245 169.530426 
L 55.245 171.53572 
" clip-path="url(#p155044ffe9)" style="fill: none; stroke: #3f3f3f"/>
   </g>
   <g id="line2d_11">
    <path d="M 55.245 165.562963 
L 55.245 163.600795 
" clip-path="url(#p155044ffe9)" style="fill: none; stroke: #3f3f3f"/>
   </g>
   <g id="line2d_12">
    <path d="M 51.805875 171.53572 
L 58.684125 171.53572 
" clip-path="url(#p155044ffe9)" style="fill: none; stroke: #3f3f3f; stroke-linecap: square"/>
   </g>
   <g id="line2d_13">
    <path d="M 51.805875 163.600795 
L 58.684125 163.600795 
" clip-path="url(#p155044ffe9)" style="fill: none; stroke: #3f3f3f; stroke-linecap: square"/>
   </g>
   <g id="line2d_14"/>
   <g id="patch_4">
    <path d="M 71.29425 167.821224 
L 85.05075 167.821224 
L 85.05075 119.236729 
L 71.29425 119.236729 
L 71.29425 167.821224 
L 71.29425 167.821224 
z
" clip-path="url(#p155044ffe9)" style="fill: none; stroke: #666666; stroke-linejoin: miter"/>
   </g>
   <g id="line2d_15">
    <path d="M 78.1725 167.821224 
L 78.1725 169.537089 
" clip-path="url(#p155044ffe9)" style="fill: none; stroke: #3f3f3f"/>
   </g>
   <g id="line2d_16">
    <path d="M 78.1725 119.236729 
L 78.1725 73.673503 
" clip-path="url(#p155044ffe9)" style="fill: none; stroke: #3f3f3f"/>
   </g>
   <g id="line2d_17">
    <path d="M 74.733375 169.537089 
L 81.611625 169.537089 
" clip-path="url(#p155044ffe9)" style="fill: none; stroke: #3f3f3f; stroke-linecap: square"/>
   </g>
   <g id="line2d_18">
    <path d="M 74.733375 73.673503 
L 81.611625 73.673503 
" clip-path="url(#p155044ffe9)" style="fill: none; stroke: #3f3f3f; stroke-linecap: square"/>
   </g>
   <g id="line2d_19"/>
   <g id="line2d_20">
    <path d="M 43.78125 187.767917 
L 89.63625 187.767917 
" clip-path="url(#p155044ffe9)" style="fill: none; stroke-dasharray: 4.44,1.92; stroke-dashoffset: 0; stroke: #808080; stroke-width: 1.2"/>
   </g>
   <g id="line2d_21">
    <path d="M 48.36675 167.525131 
L 62.12325 167.525131 
" clip-path="url(#p155044ffe9)" style="fill: none; stroke: #3f3f3f"/>
   </g>
   <g id="line2d_22">
    <path d="M 71.29425 153.526198 
L 85.05075 153.526198 
" clip-path="url(#p155044ffe9)" style="fill: none; stroke: #3f3f3f"/>
   </g>
   <g id="patch_5">
    <path d="M 43.78125 218.92225 
L 43.78125 31.99625 
" style="fill: none; stroke: #000000; stroke-width: 0.8; stroke-linejoin: miter; stroke-linecap: square"/>
   </g>
   <g id="patch_6">
    <path d="M 43.78125 218.92225 
L 89.63625 218.92225 
" style="fill: none; stroke: #000000; stroke-width: 0.8; stroke-linejoin: miter; stroke-linecap: square"/>
   </g>
   <g id="PathCollection_1">
    <defs>
     <path id="C0_0_9c3c4e82e8" d="M 0 3.75 
C 0.994512 3.75 1.948425 3.354876 2.65165 2.65165 
C 3.354876 1.948425 3.75 0.994512 3.75 -0 
C 3.75 -0.994512 3.354876 -1.948425 2.65165 -2.65165 
C 1.948425 -3.354876 0.994512 -3.75 0 -3.75 
C -0.994512 -3.75 -1.948425 -3.354876 -2.65165 -2.65165 
C -3.354876 -1.948425 -3.75 -0.994512 -3.75 0 
C -3.75 0.994512 -3.354876 1.948425 -2.65165 2.65165 
C -1.948425 3.354876 -0.994512 3.75 0 3.75 
z
"/>
    </defs>
    <g clip-path="url(#p155044ffe9)">
     <use xlink:href="#C0_0_9c3c4e82e8" x="57.041829" y="163.600795" style="fill: #ff7f0e; fill-opacity: 0.8"/>
    </g>
    <g clip-path="url(#p155044ffe9)">
     <use xlink:href="#C0_0_9c3c4e82e8" x="56.179742" y="171.53572" style="fill: #2ca02c; fill-opacity: 0.8"/>
    </g>
    <g clip-path="url(#p155044ffe9)">
     <use xlink:href="#C0_0_9c3c4e82e8" x="55.288484" y="167.525131" style="fill: #d62728; fill-opacity: 0.8"/>
    </g>
   </g>
   <g id="PathCollection_2">
    <defs>
     <path id="C1_0_7a0b7b9172" d="M 0 3.75 
C 0.994512 3.75 1.948425 3.354876 2.65165 2.65165 
C 3.354876 1.948425 3.75 0.994512 3.75 -0 
C 3.75 -0.994512 3.354876 -1.948425 2.65165 -2.65165 
C 1.948425 -3.354876 0.994512 -3.75 0 -3.75 
C -0.994512 -3.75 -1.948425 -3.354876 -2.65165 -2.65165 
C -3.354876 -1.948425 -3.75 -0.994512 -3.75 0 
C -3.75 0.994512 -3.354876 1.948425 -2.65165 2.65165 
C -1.948425 3.354876 -0.994512 3.75 0 3.75 
z
"/>
    </defs>
    <g clip-path="url(#p155044ffe9)">
     <use xlink:href="#C1_0_7a0b7b9172" x="76.478426" y="119.236729" style="fill: #1f77b4; fill-opacity: 0.8"/>
    </g>
    <g clip-path="url(#p155044ffe9)">
     <use xlink:href="#C1_0_7a0b7b9172" x="78.442284" y="148.550919" style="fill: #9467bd; fill-opacity: 0.8"/>
    </g>
    <g clip-path="url(#p155044ffe9)">
     <use xlink:href="#C1_0_7a0b7b9172" x="78.173109" y="169.537089" style="fill: #8c564b; fill-opacity: 0.8"/>
    </g>
    <g clip-path="url(#p155044ffe9)">
     <use xlink:href="#C1_0_7a0b7b9172" x="76.204578" y="153.526198" style="fill: #e377c2; fill-opacity: 0.8"/>
    </g>
    <g clip-path="url(#p155044ffe9)">
     <use xlink:href="#C1_0_7a0b7b9172" x="77.37544" y="167.94337" style="fill: #7f7f7f; fill-opacity: 0.8"/>
    </g>
    <g clip-path="url(#p155044ffe9)">
     <use xlink:href="#C1_0_7a0b7b9172" x="78.412309" y="73.673503" style="fill: #bcbd22; fill-opacity: 0.8"/>
    </g>
    <g clip-path="url(#p155044ffe9)">
     <use xlink:href="#C1_0_7a0b7b9172" x="75.957018" y="111.322746" style="fill: #17becf; fill-opacity: 0.8"/>
    </g>
    <g clip-path="url(#p155044ffe9)">
     <use xlink:href="#C1_0_7a0b7b9172" x="76.948285" y="167.821224" style="fill: #3a0183; fill-opacity: 0.8"/>
    </g>
    <g clip-path="url(#p155044ffe9)">
     <use xlink:href="#C1_0_7a0b7b9172" x="76.069638" y="157.03371" style="fill: #004301; fill-opacity: 0.8"/>
    </g>
   </g>
   <g id="line2d_23"/>
   <g id="line2d_24"/>
   <g id="line2d_25"/>
   <g id="line2d_26"/>
   <g id="line2d_27"/>
   <g id="line2d_28"/>
   <g id="line2d_29"/>
   <g id="line2d_30"/>
   <g id="line2d_31"/>
   <g id="line2d_32"/>
   <g id="line2d_33"/>
   <g id="line2d_34"/>
   <g id="text_11">
    <!-- * -->
    <g style="fill: #808080" transform="translate(65.355125 45.493729) scale(0.1 -0.1)">
     <defs>
      <path id="DejaVuSans-2a" d="M 3009 3897 
L 1888 3291 
L 3009 2681 
L 2828 2375 
L 1778 3009 
L 1778 1831 
L 1422 1831 
L 1422 3009 
L 372 2375 
L 191 2681 
L 1313 3291 
L 191 3897 
L 372 4206 
L 1422 3572 
L 1422 4750 
L 1778 4750 
L 1778 3572 
L 2828 4206 
L 3009 3897 
z
" transform="scale(0.015625)"/>
     </defs>
     <use xlink:href="#DejaVuSans-2a"/>
    </g>
   </g>
   <g id="text_12">
    <!-- Hamming -->
    <g transform="translate(42.411875 14.798437) scale(0.1 -0.1)">
     <defs>
      <path id="DejaVuSans-48" d="M 628 4666 
L 1259 4666 
L 1259 2753 
L 3553 2753 
L 3553 4666 
L 4184 4666 
L 4184 0 
L 3553 0 
L 3553 2222 
L 1259 2222 
L 1259 0 
L 628 0 
L 628 4666 
z
" transform="scale(0.015625)"/>
     </defs>
     <use xlink:href="#DejaVuSans-48"/>
     <use xlink:href="#DejaVuSans-61" x="75.195312"/>
     <use xlink:href="#DejaVuSans-6d" x="136.474609"/>
     <use xlink:href="#DejaVuSans-6d" x="233.886719"/>
     <use xlink:href="#DejaVuSans-69" x="331.298828"/>
     <use xlink:href="#DejaVuSans-6e" x="359.082031"/>
     <use xlink:href="#DejaVuSans-67" x="422.460938"/>
    </g>
    <!-- distance -->
    <g transform="translate(45.522031 25.99625) scale(0.1 -0.1)">
     <defs>
      <path id="DejaVuSans-73" d="M 2834 3397 
L 2834 2853 
Q 2591 2978 2328 3040 
Q 2066 3103 1784 3103 
Q 1356 3103 1142 2972 
Q 928 2841 928 2578 
Q 928 2378 1081 2264 
Q 1234 2150 1697 2047 
L 1894 2003 
Q 2506 1872 2764 1633 
Q 3022 1394 3022 966 
Q 3022 478 2636 193 
Q 2250 -91 1575 -91 
Q 1294 -91 989 -36 
Q 684 19 347 128 
L 347 722 
Q 666 556 975 473 
Q 1284 391 1588 391 
Q 1994 391 2212 530 
Q 2431 669 2431 922 
Q 2431 1156 2273 1281 
Q 2116 1406 1581 1522 
L 1381 1569 
Q 847 1681 609 1914 
Q 372 2147 372 2553 
Q 372 3047 722 3315 
Q 1072 3584 1716 3584 
Q 2034 3584 2315 3537 
Q 2597 3491 2834 3397 
z
" transform="scale(0.015625)"/>
     </defs>
     <use xlink:href="#DejaVuSans-64"/>
     <use xlink:href="#DejaVuSans-69" x="63.476562"/>
     <use xlink:href="#DejaVuSans-73" x="91.259766"/>
     <use xlink:href="#DejaVuSans-74" x="143.359375"/>
     <use xlink:href="#DejaVuSans-61" x="182.568359"/>
     <use xlink:href="#DejaVuSans-6e" x="243.847656"/>
     <use xlink:href="#DejaVuSans-63" x="307.226562"/>
     <use xlink:href="#DejaVuSans-65" x="362.207031"/>
    </g>
   </g>
  </g>
  <g id="axes_2">
   <g id="patch_7">
    <path d="M 98.13625 218.92225 
L 143.99125 218.92225 
L 143.99125 31.99625 
L 98.13625 31.99625 
z
" style="fill: #ffffff"/>
   </g>
   <g id="matplotlib.axis_3">
    <g id="xtick_3">
     <g id="line2d_35">
      <g>
       <use xlink:href="#m35b4831942" x="109.6" y="218.92225" style="stroke: #000000; stroke-width: 0.8"/>
      </g>
     </g>
     <g id="text_13">
      <!-- Binding -->
      <g transform="translate(112.359375 263.711312) rotate(-90) scale(0.1 -0.1)">
       <use xlink:href="#DejaVuSans-42"/>
       <use xlink:href="#DejaVuSans-69" x="68.603516"/>
       <use xlink:href="#DejaVuSans-6e" x="96.386719"/>
       <use xlink:href="#DejaVuSans-64" x="159.765625"/>
       <use xlink:href="#DejaVuSans-69" x="223.242188"/>
       <use xlink:href="#DejaVuSans-6e" x="251.025391"/>
       <use xlink:href="#DejaVuSans-67" x="314.404297"/>
      </g>
     </g>
    </g>
    <g id="xtick_4">
     <g id="line2d_36">
      <g>
       <use xlink:href="#m35b4831942" x="132.5275" y="218.92225" style="stroke: #000000; stroke-width: 0.8"/>
      </g>
     </g>
     <g id="text_14">
      <!-- Enzyme -->
      <g transform="translate(129.687969 265.639437) rotate(-90) scale(0.1 -0.1)">
       <use xlink:href="#DejaVuSans-45"/>
       <use xlink:href="#DejaVuSans-6e" x="63.183594"/>
       <use xlink:href="#DejaVuSans-7a" x="126.5625"/>
       <use xlink:href="#DejaVuSans-79" x="179.052734"/>
       <use xlink:href="#DejaVuSans-6d" x="238.232422"/>
       <use xlink:href="#DejaVuSans-65" x="335.644531"/>
      </g>
      <!-- activity -->
      <g transform="translate(140.885781 264.211312) rotate(-90) scale(0.1 -0.1)">
       <use xlink:href="#DejaVuSans-61"/>
       <use xlink:href="#DejaVuSans-63" x="61.279297"/>
       <use xlink:href="#DejaVuSans-74" x="116.259766"/>
       <use xlink:href="#DejaVuSans-69" x="155.46875"/>
       <use xlink:href="#DejaVuSans-76" x="183.251953"/>
       <use xlink:href="#DejaVuSans-69" x="242.431641"/>
       <use xlink:href="#DejaVuSans-74" x="270.214844"/>
       <use xlink:href="#DejaVuSans-79" x="309.423828"/>
      </g>
     </g>
    </g>
   </g>
   <g id="matplotlib.axis_4">
    <g id="ytick_8">
     <g id="line2d_37">
      <g>
       <use xlink:href="#md4e6554b5c" x="98.13625" y="218.92225" style="stroke: #000000; stroke-width: 0.8"/>
      </g>
     </g>
    </g>
    <g id="ytick_9">
     <g id="line2d_38">
      <g>
       <use xlink:href="#md4e6554b5c" x="98.13625" y="187.767917" style="stroke: #000000; stroke-width: 0.8"/>
      </g>
     </g>
    </g>
    <g id="ytick_10">
     <g id="line2d_39">
      <g>
       <use xlink:href="#md4e6554b5c" x="98.13625" y="156.613583" style="stroke: #000000; stroke-width: 0.8"/>
      </g>
     </g>
    </g>
    <g id="ytick_11">
     <g id="line2d_40">
      <g>
       <use xlink:href="#md4e6554b5c" x="98.13625" y="125.45925" style="stroke: #000000; stroke-width: 0.8"/>
      </g>
     </g>
    </g>
    <g id="ytick_12">
     <g id="line2d_41">
      <g>
       <use xlink:href="#md4e6554b5c" x="98.13625" y="94.304917" style="stroke: #000000; stroke-width: 0.8"/>
      </g>
     </g>
    </g>
    <g id="ytick_13">
     <g id="line2d_42">
      <g>
       <use xlink:href="#md4e6554b5c" x="98.13625" y="63.150583" style="stroke: #000000; stroke-width: 0.8"/>
      </g>
     </g>
    </g>
    <g id="ytick_14">
     <g id="line2d_43">
      <g>
       <use xlink:href="#md4e6554b5c" x="98.13625" y="31.99625" style="stroke: #000000; stroke-width: 0.8"/>
      </g>
     </g>
    </g>
   </g>
   <g id="patch_8">
    <path d="M 102.72175 142.329188 
L 116.47825 142.329188 
L 116.47825 130.205567 
L 102.72175 130.205567 
L 102.72175 142.329188 
L 102.72175 142.329188 
z
" clip-path="url(#paee4c27542)" style="fill: none; stroke: #666666; stroke-linejoin: miter"/>
   </g>
   <g id="line2d_44">
    <path d="M 109.6 142.329188 
L 109.6 147.986914 
" clip-path="url(#paee4c27542)" style="fill: none; stroke: #3f3f3f"/>
   </g>
   <g id="line2d_45">
    <path d="M 109.6 130.205567 
L 109.6 123.739672 
" clip-path="url(#paee4c27542)" style="fill: none; stroke: #3f3f3f"/>
   </g>
   <g id="line2d_46">
    <path d="M 106.160875 147.986914 
L 113.039125 147.986914 
" clip-path="url(#paee4c27542)" style="fill: none; stroke: #3f3f3f; stroke-linecap: square"/>
   </g>
   <g id="line2d_47">
    <path d="M 106.160875 123.739672 
L 113.039125 123.739672 
" clip-path="url(#paee4c27542)" style="fill: none; stroke: #3f3f3f; stroke-linecap: square"/>
   </g>
   <g id="line2d_48"/>
   <g id="patch_9">
    <path d="M 125.64925 148.41011 
L 139.40575 148.41011 
L 139.40575 72.028095 
L 125.64925 72.028095 
L 125.64925 148.41011 
L 125.64925 148.41011 
z
" clip-path="url(#paee4c27542)" style="fill: none; stroke: #666666; stroke-linejoin: miter"/>
   </g>
   <g id="line2d_49">
    <path d="M 132.5275 148.41011 
L 132.5275 182.98968 
" clip-path="url(#paee4c27542)" style="fill: none; stroke: #3f3f3f"/>
   </g>
   <g id="line2d_50">
    <path d="M 132.5275 72.028095 
L 132.5275 59.173802 
" clip-path="url(#paee4c27542)" style="fill: none; stroke: #3f3f3f"/>
   </g>
   <g id="line2d_51">
    <path d="M 129.088375 182.98968 
L 135.966625 182.98968 
" clip-path="url(#paee4c27542)" style="fill: none; stroke: #3f3f3f; stroke-linecap: square"/>
   </g>
   <g id="line2d_52">
    <path d="M 129.088375 59.173802 
L 135.966625 59.173802 
" clip-path="url(#paee4c27542)" style="fill: none; stroke: #3f3f3f; stroke-linecap: square"/>
   </g>
   <g id="line2d_53"/>
   <g id="line2d_54">
    <path d="M 98.13625 187.767917 
L 143.99125 187.767917 
" clip-path="url(#paee4c27542)" style="fill: none; stroke-dasharray: 4.44,1.92; stroke-dashoffset: 0; stroke: #808080; stroke-width: 1.2"/>
   </g>
   <g id="line2d_55">
    <path d="M 102.72175 136.671462 
L 116.47825 136.671462 
" clip-path="url(#paee4c27542)" style="fill: none; stroke: #3f3f3f"/>
   </g>
   <g id="line2d_56">
    <path d="M 125.64925 96.455026 
L 139.40575 96.455026 
" clip-path="url(#paee4c27542)" style="fill: none; stroke: #3f3f3f"/>
   </g>
   <g id="patch_10">
    <path d="M 98.13625 218.92225 
L 98.13625 31.99625 
" style="fill: none; stroke: #000000; stroke-width: 0.8; stroke-linejoin: miter; stroke-linecap: square"/>
   </g>
   <g id="patch_11">
    <path d="M 98.13625 218.92225 
L 143.99125 218.92225 
" style="fill: none; stroke: #000000; stroke-width: 0.8; stroke-linejoin: miter; stroke-linecap: square"/>
   </g>
   <g id="PathCollection_3">
    <defs>
     <path id="C2_0_7edc599bc8" d="M 0 3.75 
C 0.994512 3.75 1.948425 3.354876 2.65165 2.65165 
C 3.354876 1.948425 3.75 0.994512 3.75 -0 
C 3.75 -0.994512 3.354876 -1.948425 2.65165 -2.65165 
C 1.948425 -3.354876 0.994512 -3.75 0 -3.75 
C -0.994512 -3.75 -1.948425 -3.354876 -2.65165 -2.65165 
C -3.354876 -1.948425 -3.75 -0.994512 -3.75 0 
C -3.75 0.994512 -3.354876 1.948425 -2.65165 2.65165 
C -1.948425 3.354876 -0.994512 3.75 0 3.75 
z
"/>
    </defs>
    <g clip-path="url(#paee4c27542)">
     <use xlink:href="#C2_0_7edc599bc8" x="111.323336" y="147.986914" style="fill: #ff7f0e; fill-opacity: 0.8"/>
    </g>
    <g clip-path="url(#paee4c27542)">
     <use xlink:href="#C2_0_7edc599bc8" x="107.531882" y="136.671462" style="fill: #2ca02c; fill-opacity: 0.8"/>
    </g>
    <g clip-path="url(#paee4c27542)">
     <use xlink:href="#C2_0_7edc599bc8" x="111.693643" y="123.739672" style="fill: #d62728; fill-opacity: 0.8"/>
    </g>
   </g>
   <g id="PathCollection_4">
    <defs>
     <path id="C3_0_528b46d998" d="M 0 3.75 
C 0.994512 3.75 1.948425 3.354876 2.65165 2.65165 
C 3.354876 1.948425 3.75 0.994512 3.75 -0 
C 3.75 -0.994512 3.354876 -1.948425 2.65165 -2.65165 
C 1.948425 -3.354876 0.994512 -3.75 0 -3.75 
C -0.994512 -3.75 -1.948425 -3.354876 -2.65165 -2.65165 
C -3.354876 -1.948425 -3.75 -0.994512 -3.75 0 
C -3.75 0.994512 -3.354876 1.948425 -2.65165 2.65165 
C -1.948425 3.354876 -0.994512 3.75 0 3.75 
z
"/>
    </defs>
    <g clip-path="url(#paee4c27542)">
     <use xlink:href="#C3_0_528b46d998" x="132.192485" y="59.173802" style="fill: #1f77b4; fill-opacity: 0.8"/>
    </g>
    <g clip-path="url(#paee4c27542)">
     <use xlink:href="#C3_0_528b46d998" x="132.869074" y="148.41011" style="fill: #9467bd; fill-opacity: 0.8"/>
    </g>
    <g clip-path="url(#paee4c27542)">
     <use xlink:href="#C3_0_528b46d998" x="130.383556" y="161.344116" style="fill: #8c564b; fill-opacity: 0.8"/>
    </g>
    <g clip-path="url(#paee4c27542)">
     <use xlink:href="#C3_0_528b46d998" x="130.33272" y="98.764908" style="fill: #e377c2; fill-opacity: 0.8"/>
    </g>
    <g clip-path="url(#paee4c27542)">
     <use xlink:href="#C3_0_528b46d998" x="131.126194" y="182.98968" style="fill: #7f7f7f; fill-opacity: 0.8"/>
    </g>
    <g clip-path="url(#paee4c27542)">
     <use xlink:href="#C3_0_528b46d998" x="131.678525" y="71.439082" style="fill: #bcbd22; fill-opacity: 0.8"/>
    </g>
    <g clip-path="url(#paee4c27542)">
     <use xlink:href="#C3_0_528b46d998" x="131.333757" y="72.028095" style="fill: #17becf; fill-opacity: 0.8"/>
    </g>
    <g clip-path="url(#paee4c27542)">
     <use xlink:href="#C3_0_528b46d998" x="134.200991" y="96.455026" style="fill: #3a0183; fill-opacity: 0.8"/>
    </g>
    <g clip-path="url(#paee4c27542)">
     <use xlink:href="#C3_0_528b46d998" x="132.452427" y="89.258045" style="fill: #004301; fill-opacity: 0.8"/>
    </g>
   </g>
   <g id="line2d_57"/>
   <g id="line2d_58"/>
   <g id="line2d_59"/>
   <g id="line2d_60"/>
   <g id="line2d_61"/>
   <g id="line2d_62"/>
   <g id="line2d_63"/>
   <g id="line2d_64"/>
   <g id="line2d_65"/>
   <g id="line2d_66"/>
   <g id="line2d_67"/>
   <g id="line2d_68"/>
   <g id="text_15">
    <!-- EVmutation -->
    <g transform="translate(91.843437 25.99625) scale(0.1 -0.1)">
     <defs>
      <path id="DejaVuSans-56" d="M 1831 0 
L 50 4666 
L 709 4666 
L 2188 738 
L 3669 4666 
L 4325 4666 
L 2547 0 
L 1831 0 
z
" transform="scale(0.015625)"/>
      <path id="DejaVuSans-75" d="M 544 1381 
L 544 3500 
L 1119 3500 
L 1119 1403 
Q 1119 906 1312 657 
Q 1506 409 1894 409 
Q 2359 409 2629 706 
Q 2900 1003 2900 1516 
L 2900 3500 
L 3475 3500 
L 3475 0 
L 2900 0 
L 2900 538 
Q 2691 219 2414 64 
Q 2138 -91 1772 -91 
Q 1169 -91 856 284 
Q 544 659 544 1381 
z
M 1991 3584 
L 1991 3584 
z
" transform="scale(0.015625)"/>
      <path id="DejaVuSans-6f" d="M 1959 3097 
Q 1497 3097 1228 2736 
Q 959 2375 959 1747 
Q 959 1119 1226 758 
Q 1494 397 1959 397 
Q 2419 397 2687 759 
Q 2956 1122 2956 1747 
Q 2956 2369 2687 2733 
Q 2419 3097 1959 3097 
z
M 1959 3584 
Q 2709 3584 3137 3096 
Q 3566 2609 3566 1747 
Q 3566 888 3137 398 
Q 2709 -91 1959 -91 
Q 1206 -91 779 398 
Q 353 888 353 1747 
Q 353 2609 779 3096 
Q 1206 3584 1959 3584 
z
" transform="scale(0.015625)"/>
     </defs>
     <use xlink:href="#DejaVuSans-45"/>
     <use xlink:href="#DejaVuSans-56" x="63.183594"/>
     <use xlink:href="#DejaVuSans-6d" x="131.591797"/>
     <use xlink:href="#DejaVuSans-75" x="229.003906"/>
     <use xlink:href="#DejaVuSans-74" x="292.382812"/>
     <use xlink:href="#DejaVuSans-61" x="331.591797"/>
     <use xlink:href="#DejaVuSans-74" x="392.871094"/>
     <use xlink:href="#DejaVuSans-69" x="432.080078"/>
     <use xlink:href="#DejaVuSans-6f" x="459.863281"/>
     <use xlink:href="#DejaVuSans-6e" x="521.044922"/>
    </g>
   </g>
  </g>
  <g id="axes_3">
   <g id="patch_12">
    <path d="M 152.49125 218.92225 
L 198.34625 218.92225 
L 198.34625 31.99625 
L 152.49125 31.99625 
z
" style="fill: #ffffff"/>
   </g>
   <g id="matplotlib.axis_5">
    <g id="xtick_5">
     <g id="line2d_69">
      <g>
       <use xlink:href="#m35b4831942" x="163.955" y="218.92225" style="stroke: #000000; stroke-width: 0.8"/>
      </g>
     </g>
     <g id="text_16">
      <!-- Binding -->
      <g transform="translate(166.714375 263.711312) rotate(-90) scale(0.1 -0.1)">
       <use xlink:href="#DejaVuSans-42"/>
       <use xlink:href="#DejaVuSans-69" x="68.603516"/>
       <use xlink:href="#DejaVuSans-6e" x="96.386719"/>
       <use xlink:href="#DejaVuSans-64" x="159.765625"/>
       <use xlink:href="#DejaVuSans-69" x="223.242188"/>
       <use xlink:href="#DejaVuSans-6e" x="251.025391"/>
       <use xlink:href="#DejaVuSans-67" x="314.404297"/>
      </g>
     </g>
    </g>
    <g id="xtick_6">
     <g id="line2d_70">
      <g>
       <use xlink:href="#m35b4831942" x="186.8825" y="218.92225" style="stroke: #000000; stroke-width: 0.8"/>
      </g>
     </g>
     <g id="text_17">
      <!-- Enzyme -->
      <g transform="translate(184.042969 265.639437) rotate(-90) scale(0.1 -0.1)">
       <use xlink:href="#DejaVuSans-45"/>
       <use xlink:href="#DejaVuSans-6e" x="63.183594"/>
       <use xlink:href="#DejaVuSans-7a" x="126.5625"/>
       <use xlink:href="#DejaVuSans-79" x="179.052734"/>
       <use xlink:href="#DejaVuSans-6d" x="238.232422"/>
       <use xlink:href="#DejaVuSans-65" x="335.644531"/>
      </g>
      <!-- activity -->
      <g transform="translate(195.240781 264.211312) rotate(-90) scale(0.1 -0.1)">
       <use xlink:href="#DejaVuSans-61"/>
       <use xlink:href="#DejaVuSans-63" x="61.279297"/>
       <use xlink:href="#DejaVuSans-74" x="116.259766"/>
       <use xlink:href="#DejaVuSans-69" x="155.46875"/>
       <use xlink:href="#DejaVuSans-76" x="183.251953"/>
       <use xlink:href="#DejaVuSans-69" x="242.431641"/>
       <use xlink:href="#DejaVuSans-74" x="270.214844"/>
       <use xlink:href="#DejaVuSans-79" x="309.423828"/>
      </g>
     </g>
    </g>
   </g>
   <g id="matplotlib.axis_6">
    <g id="ytick_15">
     <g id="line2d_71">
      <g>
       <use xlink:href="#md4e6554b5c" x="152.49125" y="218.92225" style="stroke: #000000; stroke-width: 0.8"/>
      </g>
     </g>
    </g>
    <g id="ytick_16">
     <g id="line2d_72">
      <g>
       <use xlink:href="#md4e6554b5c" x="152.49125" y="187.767917" style="stroke: #000000; stroke-width: 0.8"/>
      </g>
     </g>
    </g>
    <g id="ytick_17">
     <g id="line2d_73">
      <g>
       <use xlink:href="#md4e6554b5c" x="152.49125" y="156.613583" style="stroke: #000000; stroke-width: 0.8"/>
      </g>
     </g>
    </g>
    <g id="ytick_18">
     <g id="line2d_74">
      <g>
       <use xlink:href="#md4e6554b5c" x="152.49125" y="125.45925" style="stroke: #000000; stroke-width: 0.8"/>
      </g>
     </g>
    </g>
    <g id="ytick_19">
     <g id="line2d_75">
      <g>
       <use xlink:href="#md4e6554b5c" x="152.49125" y="94.304917" style="stroke: #000000; stroke-width: 0.8"/>
      </g>
     </g>
    </g>
    <g id="ytick_20">
     <g id="line2d_76">
      <g>
       <use xlink:href="#md4e6554b5c" x="152.49125" y="63.150583" style="stroke: #000000; stroke-width: 0.8"/>
      </g>
     </g>
    </g>
    <g id="ytick_21">
     <g id="line2d_77">
      <g>
       <use xlink:href="#md4e6554b5c" x="152.49125" y="31.99625" style="stroke: #000000; stroke-width: 0.8"/>
      </g>
     </g>
    </g>
   </g>
   <g id="patch_13">
    <path d="M 157.07675 147.306172 
L 170.83325 147.306172 
L 170.83325 116.467649 
L 157.07675 116.467649 
L 157.07675 147.306172 
L 157.07675 147.306172 
z
" clip-path="url(#p41926ebe78)" style="fill: none; stroke: #666666; stroke-linejoin: miter"/>
   </g>
   <g id="line2d_78">
    <path d="M 163.955 147.306172 
L 163.955 169.694099 
" clip-path="url(#p41926ebe78)" style="fill: none; stroke: #3f3f3f"/>
   </g>
   <g id="line2d_79">
    <path d="M 163.955 116.467649 
L 163.955 108.017053 
" clip-path="url(#p41926ebe78)" style="fill: none; stroke: #3f3f3f"/>
   </g>
   <g id="line2d_80">
    <path d="M 160.515875 169.694099 
L 167.394125 169.694099 
" clip-path="url(#p41926ebe78)" style="fill: none; stroke: #3f3f3f; stroke-linecap: square"/>
   </g>
   <g id="line2d_81">
    <path d="M 160.515875 108.017053 
L 167.394125 108.017053 
" clip-path="url(#p41926ebe78)" style="fill: none; stroke: #3f3f3f; stroke-linecap: square"/>
   </g>
   <g id="line2d_82"/>
   <g id="patch_14">
    <path d="M 180.00425 154.181037 
L 193.76075 154.181037 
L 193.76075 79.166496 
L 180.00425 79.166496 
L 180.00425 154.181037 
L 180.00425 154.181037 
z
" clip-path="url(#p41926ebe78)" style="fill: none; stroke: #666666; stroke-linejoin: miter"/>
   </g>
   <g id="line2d_83">
    <path d="M 186.8825 154.181037 
L 186.8825 180.113638 
" clip-path="url(#p41926ebe78)" style="fill: none; stroke: #3f3f3f"/>
   </g>
   <g id="line2d_84">
    <path d="M 186.8825 79.166496 
L 186.8825 69.112843 
" clip-path="url(#p41926ebe78)" style="fill: none; stroke: #3f3f3f"/>
   </g>
   <g id="line2d_85">
    <path d="M 183.443375 180.113638 
L 190.321625 180.113638 
" clip-path="url(#p41926ebe78)" style="fill: none; stroke: #3f3f3f; stroke-linecap: square"/>
   </g>
   <g id="line2d_86">
    <path d="M 183.443375 69.112843 
L 190.321625 69.112843 
" clip-path="url(#p41926ebe78)" style="fill: none; stroke: #3f3f3f; stroke-linecap: square"/>
   </g>
   <g id="line2d_87"/>
   <g id="line2d_88">
    <path d="M 152.49125 187.767917 
L 198.34625 187.767917 
" clip-path="url(#p41926ebe78)" style="fill: none; stroke-dasharray: 4.44,1.92; stroke-dashoffset: 0; stroke: #808080; stroke-width: 1.2"/>
   </g>
   <g id="line2d_89">
    <path d="M 157.07675 124.918245 
L 170.83325 124.918245 
" clip-path="url(#p41926ebe78)" style="fill: none; stroke: #3f3f3f"/>
   </g>
   <g id="line2d_90">
    <path d="M 180.00425 108.454114 
L 193.76075 108.454114 
" clip-path="url(#p41926ebe78)" style="fill: none; stroke: #3f3f3f"/>
   </g>
   <g id="patch_15">
    <path d="M 152.49125 218.92225 
L 152.49125 31.99625 
" style="fill: none; stroke: #000000; stroke-width: 0.8; stroke-linejoin: miter; stroke-linecap: square"/>
   </g>
   <g id="patch_16">
    <path d="M 152.49125 218.92225 
L 198.34625 218.92225 
" style="fill: none; stroke: #000000; stroke-width: 0.8; stroke-linejoin: miter; stroke-linecap: square"/>
   </g>
   <g id="PathCollection_5">
    <defs>
     <path id="C4_0_74471268f2" d="M 0 3.75 
C 0.994512 3.75 1.948425 3.354876 2.65165 2.65165 
C 3.354876 1.948425 3.75 0.994512 3.75 -0 
C 3.75 -0.994512 3.354876 -1.948425 2.65165 -2.65165 
C 1.948425 -3.354876 0.994512 -3.75 0 -3.75 
C -0.994512 -3.75 -1.948425 -3.354876 -2.65165 -2.65165 
C -3.354876 -1.948425 -3.75 -0.994512 -3.75 0 
C -3.75 0.994512 -3.354876 1.948425 -2.65165 2.65165 
C -1.948425 3.354876 -0.994512 3.75 0 3.75 
z
"/>
    </defs>
    <g clip-path="url(#p41926ebe78)">
     <use xlink:href="#C4_0_74471268f2" x="163.899072" y="169.694099" style="fill: #ff7f0e; fill-opacity: 0.8"/>
    </g>
    <g clip-path="url(#p41926ebe78)">
     <use xlink:href="#C4_0_74471268f2" x="161.889458" y="124.918245" style="fill: #2ca02c; fill-opacity: 0.8"/>
    </g>
    <g clip-path="url(#p41926ebe78)">
     <use xlink:href="#C4_0_74471268f2" x="163.182147" y="108.017053" style="fill: #d62728; fill-opacity: 0.8"/>
    </g>
   </g>
   <g id="PathCollection_6">
    <defs>
     <path id="C5_0_b2950e470d" d="M 0 3.75 
C 0.994512 3.75 1.948425 3.354876 2.65165 2.65165 
C 3.354876 1.948425 3.75 0.994512 3.75 -0 
C 3.75 -0.994512 3.354876 -1.948425 2.65165 -2.65165 
C 1.948425 -3.354876 0.994512 -3.75 0 -3.75 
C -0.994512 -3.75 -1.948425 -3.354876 -2.65165 -2.65165 
C -3.354876 -1.948425 -3.75 -0.994512 -3.75 0 
C -3.75 0.994512 -3.354876 1.948425 -2.65165 2.65165 
C -1.948425 3.354876 -0.994512 3.75 0 3.75 
z
"/>
    </defs>
    <g clip-path="url(#p41926ebe78)">
     <use xlink:href="#C5_0_b2950e470d" x="186.830596" y="79.166496" style="fill: #1f77b4; fill-opacity: 0.8"/>
    </g>
    <g clip-path="url(#p41926ebe78)">
     <use xlink:href="#C5_0_b2950e470d" x="186.454349" y="154.181037" style="fill: #9467bd; fill-opacity: 0.8"/>
    </g>
    <g clip-path="url(#p41926ebe78)">
     <use xlink:href="#C5_0_b2950e470d" x="188.975898" y="165.957318" style="fill: #8c564b; fill-opacity: 0.8"/>
    </g>
    <g clip-path="url(#p41926ebe78)">
     <use xlink:href="#C5_0_b2950e470d" x="188.018232" y="111.230028" style="fill: #e377c2; fill-opacity: 0.8"/>
    </g>
    <g clip-path="url(#p41926ebe78)">
     <use xlink:href="#C5_0_b2950e470d" x="185.512546" y="180.113638" style="fill: #7f7f7f; fill-opacity: 0.8"/>
    </g>
    <g clip-path="url(#p41926ebe78)">
     <use xlink:href="#C5_0_b2950e470d" x="188.73198" y="69.112843" style="fill: #bcbd22; fill-opacity: 0.8"/>
    </g>
    <g clip-path="url(#p41926ebe78)">
     <use xlink:href="#C5_0_b2950e470d" x="185.70117" y="77.83133" style="fill: #17becf; fill-opacity: 0.8"/>
    </g>
    <g clip-path="url(#p41926ebe78)">
     <use xlink:href="#C5_0_b2950e470d" x="185.481428" y="108.296132" style="fill: #3a0183; fill-opacity: 0.8"/>
    </g>
    <g clip-path="url(#p41926ebe78)">
     <use xlink:href="#C5_0_b2950e470d" x="187.421275" y="108.454114" style="fill: #004301; fill-opacity: 0.8"/>
    </g>
   </g>
   <g id="line2d_91"/>
   <g id="line2d_92"/>
   <g id="line2d_93"/>
   <g id="line2d_94"/>
   <g id="line2d_95"/>
   <g id="line2d_96"/>
   <g id="line2d_97"/>
   <g id="line2d_98"/>
   <g id="line2d_99"/>
   <g id="line2d_100"/>
   <g id="line2d_101"/>
   <g id="line2d_102"/>
   <g id="text_18">
    <!-- ESM -->
    <g transform="translate(164.771094 25.99625) scale(0.1 -0.1)">
     <defs>
      <path id="DejaVuSans-53" d="M 3425 4513 
L 3425 3897 
Q 3066 4069 2747 4153 
Q 2428 4238 2131 4238 
Q 1616 4238 1336 4038 
Q 1056 3838 1056 3469 
Q 1056 3159 1242 3001 
Q 1428 2844 1947 2747 
L 2328 2669 
Q 3034 2534 3370 2195 
Q 3706 1856 3706 1288 
Q 3706 609 3251 259 
Q 2797 -91 1919 -91 
Q 1588 -91 1214 -16 
Q 841 59 441 206 
L 441 856 
Q 825 641 1194 531 
Q 1563 422 1919 422 
Q 2459 422 2753 634 
Q 3047 847 3047 1241 
Q 3047 1584 2836 1778 
Q 2625 1972 2144 2069 
L 1759 2144 
Q 1053 2284 737 2584 
Q 422 2884 422 3419 
Q 422 4038 858 4394 
Q 1294 4750 2059 4750 
Q 2388 4750 2728 4690 
Q 3069 4631 3425 4513 
z
" transform="scale(0.015625)"/>
      <path id="DejaVuSans-4d" d="M 628 4666 
L 1569 4666 
L 2759 1491 
L 3956 4666 
L 4897 4666 
L 4897 0 
L 4281 0 
L 4281 4097 
L 3078 897 
L 2444 897 
L 1241 4097 
L 1241 0 
L 628 0 
L 628 4666 
z
" transform="scale(0.015625)"/>
     </defs>
     <use xlink:href="#DejaVuSans-45"/>
     <use xlink:href="#DejaVuSans-53" x="63.183594"/>
     <use xlink:href="#DejaVuSans-4d" x="126.660156"/>
    </g>
   </g>
  </g>
  <g id="axes_4">
   <g id="patch_17">
    <path d="M 206.84625 218.92225 
L 252.70125 218.92225 
L 252.70125 31.99625 
L 206.84625 31.99625 
z
" style="fill: #ffffff"/>
   </g>
   <g id="matplotlib.axis_7">
    <g id="xtick_7">
     <g id="line2d_103">
      <g>
       <use xlink:href="#m35b4831942" x="218.31" y="218.92225" style="stroke: #000000; stroke-width: 0.8"/>
      </g>
     </g>
     <g id="text_19">
      <!-- Binding -->
      <g transform="translate(221.069375 263.711312) rotate(-90) scale(0.1 -0.1)">
       <use xlink:href="#DejaVuSans-42"/>
       <use xlink:href="#DejaVuSans-69" x="68.603516"/>
       <use xlink:href="#DejaVuSans-6e" x="96.386719"/>
       <use xlink:href="#DejaVuSans-64" x="159.765625"/>
       <use xlink:href="#DejaVuSans-69" x="223.242188"/>
       <use xlink:href="#DejaVuSans-6e" x="251.025391"/>
       <use xlink:href="#DejaVuSans-67" x="314.404297"/>
      </g>
     </g>
    </g>
    <g id="xtick_8">
     <g id="line2d_104">
      <g>
       <use xlink:href="#m35b4831942" x="241.2375" y="218.92225" style="stroke: #000000; stroke-width: 0.8"/>
      </g>
     </g>
     <g id="text_20">
      <!-- Enzyme -->
      <g transform="translate(238.397969 265.639437) rotate(-90) scale(0.1 -0.1)">
       <use xlink:href="#DejaVuSans-45"/>
       <use xlink:href="#DejaVuSans-6e" x="63.183594"/>
       <use xlink:href="#DejaVuSans-7a" x="126.5625"/>
       <use xlink:href="#DejaVuSans-79" x="179.052734"/>
       <use xlink:href="#DejaVuSans-6d" x="238.232422"/>
       <use xlink:href="#DejaVuSans-65" x="335.644531"/>
      </g>
      <!-- activity -->
      <g transform="translate(249.595781 264.211312) rotate(-90) scale(0.1 -0.1)">
       <use xlink:href="#DejaVuSans-61"/>
       <use xlink:href="#DejaVuSans-63" x="61.279297"/>
       <use xlink:href="#DejaVuSans-74" x="116.259766"/>
       <use xlink:href="#DejaVuSans-69" x="155.46875"/>
       <use xlink:href="#DejaVuSans-76" x="183.251953"/>
       <use xlink:href="#DejaVuSans-69" x="242.431641"/>
       <use xlink:href="#DejaVuSans-74" x="270.214844"/>
       <use xlink:href="#DejaVuSans-79" x="309.423828"/>
      </g>
     </g>
    </g>
   </g>
   <g id="matplotlib.axis_8">
    <g id="ytick_22">
     <g id="line2d_105">
      <g>
       <use xlink:href="#md4e6554b5c" x="206.84625" y="218.92225" style="stroke: #000000; stroke-width: 0.8"/>
      </g>
     </g>
    </g>
    <g id="ytick_23">
     <g id="line2d_106">
      <g>
       <use xlink:href="#md4e6554b5c" x="206.84625" y="187.767917" style="stroke: #000000; stroke-width: 0.8"/>
      </g>
     </g>
    </g>
    <g id="ytick_24">
     <g id="line2d_107">
      <g>
       <use xlink:href="#md4e6554b5c" x="206.84625" y="156.613583" style="stroke: #000000; stroke-width: 0.8"/>
      </g>
     </g>
    </g>
    <g id="ytick_25">
     <g id="line2d_108">
      <g>
       <use xlink:href="#md4e6554b5c" x="206.84625" y="125.45925" style="stroke: #000000; stroke-width: 0.8"/>
      </g>
     </g>
    </g>
    <g id="ytick_26">
     <g id="line2d_109">
      <g>
       <use xlink:href="#md4e6554b5c" x="206.84625" y="94.304917" style="stroke: #000000; stroke-width: 0.8"/>
      </g>
     </g>
    </g>
    <g id="ytick_27">
     <g id="line2d_110">
      <g>
       <use xlink:href="#md4e6554b5c" x="206.84625" y="63.150583" style="stroke: #000000; stroke-width: 0.8"/>
      </g>
     </g>
    </g>
    <g id="ytick_28">
     <g id="line2d_111">
      <g>
       <use xlink:href="#md4e6554b5c" x="206.84625" y="31.99625" style="stroke: #000000; stroke-width: 0.8"/>
      </g>
     </g>
    </g>
   </g>
   <g id="patch_18">
    <path d="M 211.43175 120.436492 
L 225.18825 120.436492 
L 225.18825 85.979858 
L 211.43175 85.979858 
L 211.43175 120.436492 
L 211.43175 120.436492 
z
" clip-path="url(#pbedff8476e)" style="fill: none; stroke: #666666; stroke-linejoin: miter"/>
   </g>
   <g id="line2d_112">
    <path d="M 218.31 120.436492 
L 218.31 124.777889 
" clip-path="url(#pbedff8476e)" style="fill: none; stroke: #3f3f3f"/>
   </g>
   <g id="line2d_113">
    <path d="M 218.31 85.979858 
L 218.31 55.86462 
" clip-path="url(#pbedff8476e)" style="fill: none; stroke: #3f3f3f"/>
   </g>
   <g id="line2d_114">
    <path d="M 214.870875 124.777889 
L 221.749125 124.777889 
" clip-path="url(#pbedff8476e)" style="fill: none; stroke: #3f3f3f; stroke-linecap: square"/>
   </g>
   <g id="line2d_115">
    <path d="M 214.870875 55.86462 
L 221.749125 55.86462 
" clip-path="url(#pbedff8476e)" style="fill: none; stroke: #3f3f3f; stroke-linecap: square"/>
   </g>
   <g id="line2d_116"/>
   <g id="patch_19">
    <path d="M 234.35925 164.890247 
L 248.11575 164.890247 
L 248.11575 78.982361 
L 234.35925 78.982361 
L 234.35925 164.890247 
L 234.35925 164.890247 
z
" clip-path="url(#pbedff8476e)" style="fill: none; stroke: #666666; stroke-linejoin: miter"/>
   </g>
   <g id="line2d_117">
    <path d="M 241.2375 164.890247 
L 241.2375 175.278364 
" clip-path="url(#pbedff8476e)" style="fill: none; stroke: #3f3f3f"/>
   </g>
   <g id="line2d_118">
    <path d="M 241.2375 78.982361 
L 241.2375 64.200845 
" clip-path="url(#pbedff8476e)" style="fill: none; stroke: #3f3f3f"/>
   </g>
   <g id="line2d_119">
    <path d="M 237.798375 175.278364 
L 244.676625 175.278364 
" clip-path="url(#pbedff8476e)" style="fill: none; stroke: #3f3f3f; stroke-linecap: square"/>
   </g>
   <g id="line2d_120">
    <path d="M 237.798375 64.200845 
L 244.676625 64.200845 
" clip-path="url(#pbedff8476e)" style="fill: none; stroke: #3f3f3f; stroke-linecap: square"/>
   </g>
   <g id="line2d_121"/>
   <g id="line2d_122">
    <path d="M 206.84625 187.767917 
L 252.70125 187.767917 
" clip-path="url(#pbedff8476e)" style="fill: none; stroke-dasharray: 4.44,1.92; stroke-dashoffset: 0; stroke: #808080; stroke-width: 1.2"/>
   </g>
   <g id="line2d_123">
    <path d="M 211.43175 116.095095 
L 225.18825 116.095095 
" clip-path="url(#pbedff8476e)" style="fill: none; stroke: #3f3f3f"/>
   </g>
   <g id="line2d_124">
    <path d="M 234.35925 111.359729 
L 248.11575 111.359729 
" clip-path="url(#pbedff8476e)" style="fill: none; stroke: #3f3f3f"/>
   </g>
   <g id="patch_20">
    <path d="M 206.84625 218.92225 
L 206.84625 31.99625 
" style="fill: none; stroke: #000000; stroke-width: 0.8; stroke-linejoin: miter; stroke-linecap: square"/>
   </g>
   <g id="patch_21">
    <path d="M 206.84625 218.92225 
L 252.70125 218.92225 
" style="fill: none; stroke: #000000; stroke-width: 0.8; stroke-linejoin: miter; stroke-linecap: square"/>
   </g>
   <g id="PathCollection_7">
    <defs>
     <path id="C6_0_77fbe97f27" d="M 0 3.75 
C 0.994512 3.75 1.948425 3.354876 2.65165 2.65165 
C 3.354876 1.948425 3.75 0.994512 3.75 -0 
C 3.75 -0.994512 3.354876 -1.948425 2.65165 -2.65165 
C 1.948425 -3.354876 0.994512 -3.75 0 -3.75 
C -0.994512 -3.75 -1.948425 -3.354876 -2.65165 -2.65165 
C -3.354876 -1.948425 -3.75 -0.994512 -3.75 0 
C -3.75 0.994512 -3.354876 1.948425 -2.65165 2.65165 
C -1.948425 3.354876 -0.994512 3.75 0 3.75 
z
"/>
    </defs>
    <g clip-path="url(#pbedff8476e)">
     <use xlink:href="#C6_0_77fbe97f27" x="219.91185" y="124.777889" style="fill: #ff7f0e; fill-opacity: 0.8"/>
    </g>
    <g clip-path="url(#pbedff8476e)">
     <use xlink:href="#C6_0_77fbe97f27" x="220.519451" y="116.095095" style="fill: #2ca02c; fill-opacity: 0.8"/>
    </g>
    <g clip-path="url(#pbedff8476e)">
     <use xlink:href="#C6_0_77fbe97f27" x="216.140269" y="55.86462" style="fill: #d62728; fill-opacity: 0.8"/>
    </g>
   </g>
   <g id="PathCollection_8">
    <defs>
     <path id="C7_0_7d7a8c4ae9" d="M 0 3.75 
C 0.994512 3.75 1.948425 3.354876 2.65165 2.65165 
C 3.354876 1.948425 3.75 0.994512 3.75 -0 
C 3.75 -0.994512 3.354876 -1.948425 2.65165 -2.65165 
C 1.948425 -3.354876 0.994512 -3.75 0 -3.75 
C -0.994512 -3.75 -1.948425 -3.354876 -2.65165 -2.65165 
C -3.354876 -1.948425 -3.75 -0.994512 -3.75 0 
C -3.75 0.994512 -3.354876 1.948425 -2.65165 2.65165 
C -1.948425 3.354876 -0.994512 3.75 0 3.75 
z
"/>
    </defs>
    <g clip-path="url(#pbedff8476e)">
     <use xlink:href="#C7_0_7d7a8c4ae9" x="239.657948" y="64.200845" style="fill: #1f77b4; fill-opacity: 0.8"/>
    </g>
    <g clip-path="url(#pbedff8476e)">
     <use xlink:href="#C7_0_7d7a8c4ae9" x="242.647032" y="175.063692" style="fill: #9467bd; fill-opacity: 0.8"/>
    </g>
    <g clip-path="url(#pbedff8476e)">
     <use xlink:href="#C7_0_7d7a8c4ae9" x="239.459918" y="164.890247" style="fill: #8c564b; fill-opacity: 0.8"/>
    </g>
    <g clip-path="url(#pbedff8476e)">
     <use xlink:href="#C7_0_7d7a8c4ae9" x="241.911614" y="111.359729" style="fill: #e377c2; fill-opacity: 0.8"/>
    </g>
    <g clip-path="url(#pbedff8476e)">
     <use xlink:href="#C7_0_7d7a8c4ae9" x="242.530016" y="175.278364" style="fill: #7f7f7f; fill-opacity: 0.8"/>
    </g>
    <g clip-path="url(#pbedff8476e)">
     <use xlink:href="#C7_0_7d7a8c4ae9" x="239.572761" y="78.982361" style="fill: #bcbd22; fill-opacity: 0.8"/>
    </g>
    <g clip-path="url(#pbedff8476e)">
     <use xlink:href="#C7_0_7d7a8c4ae9" x="243.055004" y="71.38986" style="fill: #17becf; fill-opacity: 0.8"/>
    </g>
    <g clip-path="url(#pbedff8476e)">
     <use xlink:href="#C7_0_7d7a8c4ae9" x="243.43515" y="132.867733" style="fill: #3a0183; fill-opacity: 0.8"/>
    </g>
    <g clip-path="url(#pbedff8476e)">
     <use xlink:href="#C7_0_7d7a8c4ae9" x="243.501735" y="93.842197" style="fill: #004301; fill-opacity: 0.8"/>
    </g>
   </g>
   <g id="line2d_125"/>
   <g id="line2d_126"/>
   <g id="line2d_127"/>
   <g id="line2d_128"/>
   <g id="line2d_129"/>
   <g id="line2d_130"/>
   <g id="line2d_131"/>
   <g id="line2d_132"/>
   <g id="line2d_133"/>
   <g id="line2d_134"/>
   <g id="line2d_135"/>
   <g id="line2d_136"/>
   <g id="text_21">
    <!-- ESM-IF -->
    <g transform="translate(212.971406 25.99625) scale(0.1 -0.1)">
     <defs>
      <path id="DejaVuSans-49" d="M 628 4666 
L 1259 4666 
L 1259 0 
L 628 0 
L 628 4666 
z
" transform="scale(0.015625)"/>
      <path id="DejaVuSans-46" d="M 628 4666 
L 3309 4666 
L 3309 4134 
L 1259 4134 
L 1259 2759 
L 3109 2759 
L 3109 2228 
L 1259 2228 
L 1259 0 
L 628 0 
L 628 4666 
z
" transform="scale(0.015625)"/>
     </defs>
     <use xlink:href="#DejaVuSans-45"/>
     <use xlink:href="#DejaVuSans-53" x="63.183594"/>
     <use xlink:href="#DejaVuSans-4d" x="126.660156"/>
     <use xlink:href="#DejaVuSans-2d" x="212.939453"/>
     <use xlink:href="#DejaVuSans-49" x="249.023438"/>
     <use xlink:href="#DejaVuSans-46" x="278.515625"/>
    </g>
   </g>
  </g>
  <g id="axes_5">
   <g id="patch_22">
    <path d="M 261.20125 218.92225 
L 307.05625 218.92225 
L 307.05625 31.99625 
L 261.20125 31.99625 
z
" style="fill: #ffffff"/>
   </g>
   <g id="matplotlib.axis_9">
    <g id="xtick_9">
     <g id="line2d_137">
      <g>
       <use xlink:href="#m35b4831942" x="272.665" y="218.92225" style="stroke: #000000; stroke-width: 0.8"/>
      </g>
     </g>
     <g id="text_22">
      <!-- Binding -->
      <g transform="translate(275.424375 263.711312) rotate(-90) scale(0.1 -0.1)">
       <use xlink:href="#DejaVuSans-42"/>
       <use xlink:href="#DejaVuSans-69" x="68.603516"/>
       <use xlink:href="#DejaVuSans-6e" x="96.386719"/>
       <use xlink:href="#DejaVuSans-64" x="159.765625"/>
       <use xlink:href="#DejaVuSans-69" x="223.242188"/>
       <use xlink:href="#DejaVuSans-6e" x="251.025391"/>
       <use xlink:href="#DejaVuSans-67" x="314.404297"/>
      </g>
     </g>
    </g>
    <g id="xtick_10">
     <g id="line2d_138">
      <g>
       <use xlink:href="#m35b4831942" x="295.5925" y="218.92225" style="stroke: #000000; stroke-width: 0.8"/>
      </g>
     </g>
     <g id="text_23">
      <!-- Enzyme -->
      <g transform="translate(292.752969 265.639437) rotate(-90) scale(0.1 -0.1)">
       <use xlink:href="#DejaVuSans-45"/>
       <use xlink:href="#DejaVuSans-6e" x="63.183594"/>
       <use xlink:href="#DejaVuSans-7a" x="126.5625"/>
       <use xlink:href="#DejaVuSans-79" x="179.052734"/>
       <use xlink:href="#DejaVuSans-6d" x="238.232422"/>
       <use xlink:href="#DejaVuSans-65" x="335.644531"/>
      </g>
      <!-- activity -->
      <g transform="translate(303.950781 264.211312) rotate(-90) scale(0.1 -0.1)">
       <use xlink:href="#DejaVuSans-61"/>
       <use xlink:href="#DejaVuSans-63" x="61.279297"/>
       <use xlink:href="#DejaVuSans-74" x="116.259766"/>
       <use xlink:href="#DejaVuSans-69" x="155.46875"/>
       <use xlink:href="#DejaVuSans-76" x="183.251953"/>
       <use xlink:href="#DejaVuSans-69" x="242.431641"/>
       <use xlink:href="#DejaVuSans-74" x="270.214844"/>
       <use xlink:href="#DejaVuSans-79" x="309.423828"/>
      </g>
     </g>
    </g>
   </g>
   <g id="matplotlib.axis_10">
    <g id="ytick_29">
     <g id="line2d_139">
      <g>
       <use xlink:href="#md4e6554b5c" x="261.20125" y="218.92225" style="stroke: #000000; stroke-width: 0.8"/>
      </g>
     </g>
    </g>
    <g id="ytick_30">
     <g id="line2d_140">
      <g>
       <use xlink:href="#md4e6554b5c" x="261.20125" y="187.767917" style="stroke: #000000; stroke-width: 0.8"/>
      </g>
     </g>
    </g>
    <g id="ytick_31">
     <g id="line2d_141">
      <g>
       <use xlink:href="#md4e6554b5c" x="261.20125" y="156.613583" style="stroke: #000000; stroke-width: 0.8"/>
      </g>
     </g>
    </g>
    <g id="ytick_32">
     <g id="line2d_142">
      <g>
       <use xlink:href="#md4e6554b5c" x="261.20125" y="125.45925" style="stroke: #000000; stroke-width: 0.8"/>
      </g>
     </g>
    </g>
    <g id="ytick_33">
     <g id="line2d_143">
      <g>
       <use xlink:href="#md4e6554b5c" x="261.20125" y="94.304917" style="stroke: #000000; stroke-width: 0.8"/>
      </g>
     </g>
    </g>
    <g id="ytick_34">
     <g id="line2d_144">
      <g>
       <use xlink:href="#md4e6554b5c" x="261.20125" y="63.150583" style="stroke: #000000; stroke-width: 0.8"/>
      </g>
     </g>
    </g>
    <g id="ytick_35">
     <g id="line2d_145">
      <g>
       <use xlink:href="#md4e6554b5c" x="261.20125" y="31.99625" style="stroke: #000000; stroke-width: 0.8"/>
      </g>
     </g>
    </g>
   </g>
   <g id="patch_23">
    <path d="M 265.78675 123.280015 
L 279.54325 123.280015 
L 279.54325 84.522633 
L 265.78675 84.522633 
L 265.78675 123.280015 
L 265.78675 123.280015 
z
" clip-path="url(#p0c82dabd9e)" style="fill: none; stroke: #666666; stroke-linejoin: miter"/>
   </g>
   <g id="line2d_146">
    <path d="M 272.665 123.280015 
L 272.665 135.528856 
" clip-path="url(#p0c82dabd9e)" style="fill: none; stroke: #3f3f3f"/>
   </g>
   <g id="line2d_147">
    <path d="M 272.665 84.522633 
L 272.665 58.014093 
" clip-path="url(#p0c82dabd9e)" style="fill: none; stroke: #3f3f3f"/>
   </g>
   <g id="line2d_148">
    <path d="M 269.225875 135.528856 
L 276.104125 135.528856 
" clip-path="url(#p0c82dabd9e)" style="fill: none; stroke: #3f3f3f; stroke-linecap: square"/>
   </g>
   <g id="line2d_149">
    <path d="M 269.225875 58.014093 
L 276.104125 58.014093 
" clip-path="url(#p0c82dabd9e)" style="fill: none; stroke: #3f3f3f; stroke-linecap: square"/>
   </g>
   <g id="line2d_150"/>
   <g id="patch_24">
    <path d="M 288.71425 157.928119 
L 302.47075 157.928119 
L 302.47075 102.490749 
L 288.71425 102.490749 
L 288.71425 157.928119 
L 288.71425 157.928119 
z
" clip-path="url(#p0c82dabd9e)" style="fill: none; stroke: #666666; stroke-linejoin: miter"/>
   </g>
   <g id="line2d_151">
    <path d="M 295.5925 157.928119 
L 295.5925 195.378789 
" clip-path="url(#p0c82dabd9e)" style="fill: none; stroke: #3f3f3f"/>
   </g>
   <g id="line2d_152">
    <path d="M 295.5925 102.490749 
L 295.5925 86.394612 
" clip-path="url(#p0c82dabd9e)" style="fill: none; stroke: #3f3f3f"/>
   </g>
   <g id="line2d_153">
    <path d="M 292.153375 195.378789 
L 299.031625 195.378789 
" clip-path="url(#p0c82dabd9e)" style="fill: none; stroke: #3f3f3f; stroke-linecap: square"/>
   </g>
   <g id="line2d_154">
    <path d="M 292.153375 86.394612 
L 299.031625 86.394612 
" clip-path="url(#p0c82dabd9e)" style="fill: none; stroke: #3f3f3f; stroke-linecap: square"/>
   </g>
   <g id="line2d_155"/>
   <g id="line2d_156">
    <path d="M 261.20125 187.767917 
L 307.05625 187.767917 
" clip-path="url(#p0c82dabd9e)" style="fill: none; stroke-dasharray: 4.44,1.92; stroke-dashoffset: 0; stroke: #808080; stroke-width: 1.2"/>
   </g>
   <g id="line2d_157">
    <path d="M 265.78675 111.031173 
L 279.54325 111.031173 
" clip-path="url(#p0c82dabd9e)" style="fill: none; stroke: #3f3f3f"/>
   </g>
   <g id="line2d_158">
    <path d="M 288.71425 146.331608 
L 302.47075 146.331608 
" clip-path="url(#p0c82dabd9e)" style="fill: none; stroke: #3f3f3f"/>
   </g>
   <g id="patch_25">
    <path d="M 261.20125 218.92225 
L 261.20125 31.99625 
" style="fill: none; stroke: #000000; stroke-width: 0.8; stroke-linejoin: miter; stroke-linecap: square"/>
   </g>
   <g id="patch_26">
    <path d="M 261.20125 218.92225 
L 307.05625 218.92225 
" style="fill: none; stroke: #000000; stroke-width: 0.8; stroke-linejoin: miter; stroke-linecap: square"/>
   </g>
   <g id="PathCollection_9">
    <defs>
     <path id="C8_0_af5187d077" d="M 0 3.75 
C 0.994512 3.75 1.948425 3.354876 2.65165 2.65165 
C 3.354876 1.948425 3.75 0.994512 3.75 -0 
C 3.75 -0.994512 3.354876 -1.948425 2.65165 -2.65165 
C 1.948425 -3.354876 0.994512 -3.75 0 -3.75 
C -0.994512 -3.75 -1.948425 -3.354876 -2.65165 -2.65165 
C -3.354876 -1.948425 -3.75 -0.994512 -3.75 0 
C -3.75 0.994512 -3.354876 1.948425 -2.65165 2.65165 
C -1.948425 3.354876 -0.994512 3.75 0 3.75 
z
"/>
    </defs>
    <g clip-path="url(#p0c82dabd9e)">
     <use xlink:href="#C8_0_af5187d077" x="270.494824" y="135.528856" style="fill: #ff7f0e; fill-opacity: 0.8"/>
    </g>
    <g clip-path="url(#p0c82dabd9e)">
     <use xlink:href="#C8_0_af5187d077" x="274.446744" y="111.031173" style="fill: #2ca02c; fill-opacity: 0.8"/>
    </g>
    <g clip-path="url(#p0c82dabd9e)">
     <use xlink:href="#C8_0_af5187d077" x="270.919921" y="58.014093" style="fill: #d62728; fill-opacity: 0.8"/>
    </g>
   </g>
   <g id="PathCollection_10">
    <defs>
     <path id="C9_0_d28df8c445" d="M 0 3.75 
C 0.994512 3.75 1.948425 3.354876 2.65165 2.65165 
C 3.354876 1.948425 3.75 0.994512 3.75 -0 
C 3.75 -0.994512 3.354876 -1.948425 2.65165 -2.65165 
C 1.948425 -3.354876 0.994512 -3.75 0 -3.75 
C -0.994512 -3.75 -1.948425 -3.354876 -2.65165 -2.65165 
C -3.354876 -1.948425 -3.75 -0.994512 -3.75 0 
C -3.75 0.994512 -3.354876 1.948425 -2.65165 2.65165 
C -1.948425 3.354876 -0.994512 3.75 0 3.75 
z
"/>
    </defs>
    <g clip-path="url(#p0c82dabd9e)">
     <use xlink:href="#C9_0_d28df8c445" x="294.786739" y="195.378789" style="fill: #1f77b4; fill-opacity: 0.8"/>
    </g>
    <g clip-path="url(#p0c82dabd9e)">
     <use xlink:href="#C9_0_d28df8c445" x="297.378671" y="146.331608" style="fill: #9467bd; fill-opacity: 0.8"/>
    </g>
    <g clip-path="url(#p0c82dabd9e)">
     <use xlink:href="#C9_0_d28df8c445" x="294.614115" y="167.729139" style="fill: #8c564b; fill-opacity: 0.8"/>
    </g>
    <g clip-path="url(#p0c82dabd9e)">
     <use xlink:href="#C9_0_d28df8c445" x="293.811698" y="107.086296" style="fill: #e377c2; fill-opacity: 0.8"/>
    </g>
    <g clip-path="url(#p0c82dabd9e)">
     <use xlink:href="#C9_0_d28df8c445" x="293.407594" y="157.928119" style="fill: #7f7f7f; fill-opacity: 0.8"/>
    </g>
    <g clip-path="url(#p0c82dabd9e)">
     <use xlink:href="#C9_0_d28df8c445" x="297.50559" y="86.394612" style="fill: #bcbd22; fill-opacity: 0.8"/>
    </g>
    <g clip-path="url(#p0c82dabd9e)">
     <use xlink:href="#C9_0_d28df8c445" x="295.426425" y="95.946909" style="fill: #17becf; fill-opacity: 0.8"/>
    </g>
    <g clip-path="url(#p0c82dabd9e)">
     <use xlink:href="#C9_0_d28df8c445" x="296.937377" y="157.892059" style="fill: #3a0183; fill-opacity: 0.8"/>
    </g>
    <g clip-path="url(#p0c82dabd9e)">
     <use xlink:href="#C9_0_d28df8c445" x="297.879634" y="102.490749" style="fill: #004301; fill-opacity: 0.8"/>
    </g>
   </g>
   <g id="line2d_159"/>
   <g id="line2d_160"/>
   <g id="line2d_161"/>
   <g id="line2d_162"/>
   <g id="line2d_163"/>
   <g id="line2d_164"/>
   <g id="line2d_165"/>
   <g id="line2d_166"/>
   <g id="line2d_167"/>
   <g id="line2d_168"/>
   <g id="line2d_169"/>
   <g id="line2d_170"/>
   <g id="text_24">
    <!-- CoVES -->
    <g transform="translate(267.824062 25.99625) scale(0.1 -0.1)">
     <use xlink:href="#DejaVuSans-43"/>
     <use xlink:href="#DejaVuSans-6f" x="69.824219"/>
     <use xlink:href="#DejaVuSans-56" x="131.005859"/>
     <use xlink:href="#DejaVuSans-45" x="199.414062"/>
     <use xlink:href="#DejaVuSans-53" x="262.597656"/>
    </g>
   </g>
  </g>
  <g id="axes_6">
   <g id="patch_27">
    <path d="M 315.55625 218.92225 
L 361.41125 218.92225 
L 361.41125 31.99625 
L 315.55625 31.99625 
z
" style="fill: #ffffff"/>
   </g>
   <g id="matplotlib.axis_11">
    <g id="xtick_11">
     <g id="line2d_171">
      <g>
       <use xlink:href="#m35b4831942" x="327.02" y="218.92225" style="stroke: #000000; stroke-width: 0.8"/>
      </g>
     </g>
     <g id="text_25">
      <!-- Binding -->
      <g transform="translate(329.779375 263.711312) rotate(-90) scale(0.1 -0.1)">
       <use xlink:href="#DejaVuSans-42"/>
       <use xlink:href="#DejaVuSans-69" x="68.603516"/>
       <use xlink:href="#DejaVuSans-6e" x="96.386719"/>
       <use xlink:href="#DejaVuSans-64" x="159.765625"/>
       <use xlink:href="#DejaVuSans-69" x="223.242188"/>
       <use xlink:href="#DejaVuSans-6e" x="251.025391"/>
       <use xlink:href="#DejaVuSans-67" x="314.404297"/>
      </g>
     </g>
    </g>
    <g id="xtick_12">
     <g id="line2d_172">
      <g>
       <use xlink:href="#m35b4831942" x="349.9475" y="218.92225" style="stroke: #000000; stroke-width: 0.8"/>
      </g>
     </g>
     <g id="text_26">
      <!-- Enzyme -->
      <g transform="translate(347.107969 265.639437) rotate(-90) scale(0.1 -0.1)">
       <use xlink:href="#DejaVuSans-45"/>
       <use xlink:href="#DejaVuSans-6e" x="63.183594"/>
       <use xlink:href="#DejaVuSans-7a" x="126.5625"/>
       <use xlink:href="#DejaVuSans-79" x="179.052734"/>
       <use xlink:href="#DejaVuSans-6d" x="238.232422"/>
       <use xlink:href="#DejaVuSans-65" x="335.644531"/>
      </g>
      <!-- activity -->
      <g transform="translate(358.305781 264.211312) rotate(-90) scale(0.1 -0.1)">
       <use xlink:href="#DejaVuSans-61"/>
       <use xlink:href="#DejaVuSans-63" x="61.279297"/>
       <use xlink:href="#DejaVuSans-74" x="116.259766"/>
       <use xlink:href="#DejaVuSans-69" x="155.46875"/>
       <use xlink:href="#DejaVuSans-76" x="183.251953"/>
       <use xlink:href="#DejaVuSans-69" x="242.431641"/>
       <use xlink:href="#DejaVuSans-74" x="270.214844"/>
       <use xlink:href="#DejaVuSans-79" x="309.423828"/>
      </g>
     </g>
    </g>
   </g>
   <g id="matplotlib.axis_12">
    <g id="ytick_36">
     <g id="line2d_173">
      <g>
       <use xlink:href="#md4e6554b5c" x="315.55625" y="218.92225" style="stroke: #000000; stroke-width: 0.8"/>
      </g>
     </g>
    </g>
    <g id="ytick_37">
     <g id="line2d_174">
      <g>
       <use xlink:href="#md4e6554b5c" x="315.55625" y="187.767917" style="stroke: #000000; stroke-width: 0.8"/>
      </g>
     </g>
    </g>
    <g id="ytick_38">
     <g id="line2d_175">
      <g>
       <use xlink:href="#md4e6554b5c" x="315.55625" y="156.613583" style="stroke: #000000; stroke-width: 0.8"/>
      </g>
     </g>
    </g>
    <g id="ytick_39">
     <g id="line2d_176">
      <g>
       <use xlink:href="#md4e6554b5c" x="315.55625" y="125.45925" style="stroke: #000000; stroke-width: 0.8"/>
      </g>
     </g>
    </g>
    <g id="ytick_40">
     <g id="line2d_177">
      <g>
       <use xlink:href="#md4e6554b5c" x="315.55625" y="94.304917" style="stroke: #000000; stroke-width: 0.8"/>
      </g>
     </g>
    </g>
    <g id="ytick_41">
     <g id="line2d_178">
      <g>
       <use xlink:href="#md4e6554b5c" x="315.55625" y="63.150583" style="stroke: #000000; stroke-width: 0.8"/>
      </g>
     </g>
    </g>
    <g id="ytick_42">
     <g id="line2d_179">
      <g>
       <use xlink:href="#md4e6554b5c" x="315.55625" y="31.99625" style="stroke: #000000; stroke-width: 0.8"/>
      </g>
     </g>
    </g>
   </g>
   <g id="patch_28">
    <path d="M 320.14175 130.493738 
L 333.89825 130.493738 
L 333.89825 90.895764 
L 320.14175 90.895764 
L 320.14175 130.493738 
L 320.14175 130.493738 
z
" clip-path="url(#pab17bddc6f)" style="fill: none; stroke: #666666; stroke-linejoin: miter"/>
   </g>
   <g id="line2d_180">
    <path d="M 327.02 130.493738 
L 327.02 140.398132 
" clip-path="url(#pab17bddc6f)" style="fill: none; stroke: #3f3f3f"/>
   </g>
   <g id="line2d_181">
    <path d="M 327.02 90.895764 
L 327.02 61.202183 
" clip-path="url(#pab17bddc6f)" style="fill: none; stroke: #3f3f3f"/>
   </g>
   <g id="line2d_182">
    <path d="M 323.580875 140.398132 
L 330.459125 140.398132 
" clip-path="url(#pab17bddc6f)" style="fill: none; stroke: #3f3f3f; stroke-linecap: square"/>
   </g>
   <g id="line2d_183">
    <path d="M 323.580875 61.202183 
L 330.459125 61.202183 
" clip-path="url(#pab17bddc6f)" style="fill: none; stroke: #3f3f3f; stroke-linecap: square"/>
   </g>
   <g id="line2d_184"/>
   <g id="patch_29">
    <path d="M 343.06925 186.301935 
L 356.82575 186.301935 
L 356.82575 109.353683 
L 343.06925 109.353683 
L 343.06925 186.301935 
L 343.06925 186.301935 
z
" clip-path="url(#pab17bddc6f)" style="fill: none; stroke: #666666; stroke-linejoin: miter"/>
   </g>
   <g id="line2d_185">
    <path d="M 349.9475 186.301935 
L 349.9475 202.647778 
" clip-path="url(#pab17bddc6f)" style="fill: none; stroke: #3f3f3f"/>
   </g>
   <g id="line2d_186">
    <path d="M 349.9475 109.353683 
L 349.9475 73.403506 
" clip-path="url(#pab17bddc6f)" style="fill: none; stroke: #3f3f3f"/>
   </g>
   <g id="line2d_187">
    <path d="M 346.508375 202.647778 
L 353.386625 202.647778 
" clip-path="url(#pab17bddc6f)" style="fill: none; stroke: #3f3f3f; stroke-linecap: square"/>
   </g>
   <g id="line2d_188">
    <path d="M 346.508375 73.403506 
L 353.386625 73.403506 
" clip-path="url(#pab17bddc6f)" style="fill: none; stroke: #3f3f3f; stroke-linecap: square"/>
   </g>
   <g id="line2d_189"/>
   <g id="line2d_190">
    <path d="M 315.55625 187.767917 
L 361.41125 187.767917 
" clip-path="url(#pab17bddc6f)" style="fill: none; stroke-dasharray: 4.44,1.92; stroke-dashoffset: 0; stroke: #808080; stroke-width: 1.2"/>
   </g>
   <g id="line2d_191">
    <path d="M 320.14175 120.589344 
L 333.89825 120.589344 
" clip-path="url(#pab17bddc6f)" style="fill: none; stroke: #3f3f3f"/>
   </g>
   <g id="line2d_192">
    <path d="M 343.06925 132.90914 
L 356.82575 132.90914 
" clip-path="url(#pab17bddc6f)" style="fill: none; stroke: #3f3f3f"/>
   </g>
   <g id="patch_30">
    <path d="M 315.55625 218.92225 
L 315.55625 31.99625 
" style="fill: none; stroke: #000000; stroke-width: 0.8; stroke-linejoin: miter; stroke-linecap: square"/>
   </g>
   <g id="patch_31">
    <path d="M 315.55625 218.92225 
L 361.41125 218.92225 
" style="fill: none; stroke: #000000; stroke-width: 0.8; stroke-linejoin: miter; stroke-linecap: square"/>
   </g>
   <g id="PathCollection_11">
    <defs>
     <path id="Ca_0_3a2d9b5a83" d="M 0 3.75 
C 0.994512 3.75 1.948425 3.354876 2.65165 2.65165 
C 3.354876 1.948425 3.75 0.994512 3.75 -0 
C 3.75 -0.994512 3.354876 -1.948425 2.65165 -2.65165 
C 1.948425 -3.354876 0.994512 -3.75 0 -3.75 
C -0.994512 -3.75 -1.948425 -3.354876 -2.65165 -2.65165 
C -3.354876 -1.948425 -3.75 -0.994512 -3.75 0 
C -3.75 0.994512 -3.354876 1.948425 -2.65165 2.65165 
C -1.948425 3.354876 -0.994512 3.75 0 3.75 
z
"/>
    </defs>
    <g clip-path="url(#pab17bddc6f)">
     <use xlink:href="#Ca_0_3a2d9b5a83" x="325.473942" y="120.589344" style="fill: #ff7f0e; fill-opacity: 0.8"/>
    </g>
    <g clip-path="url(#pab17bddc6f)">
     <use xlink:href="#Ca_0_3a2d9b5a83" x="325.528202" y="140.398132" style="fill: #2ca02c; fill-opacity: 0.8"/>
    </g>
    <g clip-path="url(#pab17bddc6f)">
     <use xlink:href="#Ca_0_3a2d9b5a83" x="327.426263" y="61.202183" style="fill: #d62728; fill-opacity: 0.8"/>
    </g>
   </g>
   <g id="PathCollection_12">
    <defs>
     <path id="Cb_0_4a5a9f7be4" d="M 0 3.75 
C 0.994512 3.75 1.948425 3.354876 2.65165 2.65165 
C 3.354876 1.948425 3.75 0.994512 3.75 -0 
C 3.75 -0.994512 3.354876 -1.948425 2.65165 -2.65165 
C 1.948425 -3.354876 0.994512 -3.75 0 -3.75 
C -0.994512 -3.75 -1.948425 -3.354876 -2.65165 -2.65165 
C -3.354876 -1.948425 -3.75 -0.994512 -3.75 0 
C -3.75 0.994512 -3.354876 1.948425 -2.65165 2.65165 
C -1.948425 3.354876 -0.994512 3.75 0 3.75 
z
"/>
    </defs>
    <g clip-path="url(#pab17bddc6f)">
     <use xlink:href="#Cb_0_4a5a9f7be4" x="350.466549" y="202.647778" style="fill: #1f77b4; fill-opacity: 0.8"/>
    </g>
    <g clip-path="url(#pab17bddc6f)">
     <use xlink:href="#Cb_0_4a5a9f7be4" x="350.829025" y="187.336566" style="fill: #9467bd; fill-opacity: 0.8"/>
    </g>
    <g clip-path="url(#pab17bddc6f)">
     <use xlink:href="#Cb_0_4a5a9f7be4" x="350.925776" y="153.724712" style="fill: #8c564b; fill-opacity: 0.8"/>
    </g>
    <g clip-path="url(#pab17bddc6f)">
     <use xlink:href="#Cb_0_4a5a9f7be4" x="351.352619" y="109.353683" style="fill: #e377c2; fill-opacity: 0.8"/>
    </g>
    <g clip-path="url(#pab17bddc6f)">
     <use xlink:href="#Cb_0_4a5a9f7be4" x="350.309893" y="186.301935" style="fill: #7f7f7f; fill-opacity: 0.8"/>
    </g>
    <g clip-path="url(#pab17bddc6f)">
     <use xlink:href="#Cb_0_4a5a9f7be4" x="349.099273" y="73.403506" style="fill: #bcbd22; fill-opacity: 0.8"/>
    </g>
    <g clip-path="url(#pab17bddc6f)">
     <use xlink:href="#Cb_0_4a5a9f7be4" x="351.858781" y="80.866098" style="fill: #17becf; fill-opacity: 0.8"/>
    </g>
    <g clip-path="url(#pab17bddc6f)">
     <use xlink:href="#Cb_0_4a5a9f7be4" x="352.08336" y="132.90914" style="fill: #3a0183; fill-opacity: 0.8"/>
    </g>
    <g clip-path="url(#pab17bddc6f)">
     <use xlink:href="#Cb_0_4a5a9f7be4" x="348.91157" y="122.43559" style="fill: #004301; fill-opacity: 0.8"/>
    </g>
   </g>
   <g id="line2d_193"/>
   <g id="line2d_194"/>
   <g id="line2d_195"/>
   <g id="line2d_196"/>
   <g id="line2d_197"/>
   <g id="line2d_198"/>
   <g id="line2d_199"/>
   <g id="line2d_200"/>
   <g id="line2d_201"/>
   <g id="line2d_202"/>
   <g id="line2d_203"/>
   <g id="line2d_204"/>
   <g id="text_27">
    <!-- Triad -->
    <g transform="translate(326.484531 25.99625) scale(0.1 -0.1)">
     <defs>
      <path id="DejaVuSans-54" d="M -19 4666 
L 3928 4666 
L 3928 4134 
L 2272 4134 
L 2272 0 
L 1638 0 
L 1638 4134 
L -19 4134 
L -19 4666 
z
" transform="scale(0.015625)"/>
      <path id="DejaVuSans-72" d="M 2631 2963 
Q 2534 3019 2420 3045 
Q 2306 3072 2169 3072 
Q 1681 3072 1420 2755 
Q 1159 2438 1159 1844 
L 1159 0 
L 581 0 
L 581 3500 
L 1159 3500 
L 1159 2956 
Q 1341 3275 1631 3429 
Q 1922 3584 2338 3584 
Q 2397 3584 2469 3576 
Q 2541 3569 2628 3553 
L 2631 2963 
z
" transform="scale(0.015625)"/>
     </defs>
     <use xlink:href="#DejaVuSans-54"/>
     <use xlink:href="#DejaVuSans-72" x="46.333984"/>
     <use xlink:href="#DejaVuSans-69" x="87.447266"/>
     <use xlink:href="#DejaVuSans-61" x="115.230469"/>
     <use xlink:href="#DejaVuSans-64" x="176.509766"/>
    </g>
   </g>
   <g id="legend_1">
    <g id="patch_32">
     <path d="M 368.41125 211.4606 
L 436.475312 211.4606 
Q 438.475312 211.4606 438.475312 209.4606 
L 438.475312 34.3231 
Q 438.475312 32.3231 436.475312 32.3231 
L 368.41125 32.3231 
Q 366.41125 32.3231 366.41125 34.3231 
L 366.41125 209.4606 
Q 366.41125 211.4606 368.41125 211.4606 
z
" style="fill: #ffffff; opacity: 0.8; stroke: #cccccc; stroke-linejoin: miter"/>
    </g>
    <g id="line2d_205">
     <defs>
      <path id="m4b7803f086" d="M 0 3.75 
C 0.994512 3.75 1.948425 3.354876 2.65165 2.65165 
C 3.354876 1.948425 3.75 0.994512 3.75 0 
C 3.75 -0.994512 3.354876 -1.948425 2.65165 -2.65165 
C 1.948425 -3.354876 0.994512 -3.75 0 -3.75 
C -0.994512 -3.75 -1.948425 -3.354876 -2.65165 -2.65165 
C -3.354876 -1.948425 -3.75 -0.994512 -3.75 0 
C -3.75 0.994512 -3.354876 1.948425 -2.65165 2.65165 
C -1.948425 3.354876 -0.994512 3.75 0 3.75 
z
"/>
     </defs>
     <g>
      <use xlink:href="#m4b7803f086" x="380.41125" y="40.421537" style="fill: #1f77b4; fill-opacity: 0.8"/>
     </g>
    </g>
    <g id="text_28">
     <!-- DHFR -->
     <g transform="translate(398.41125 43.921537) scale(0.1 -0.1)">
      <defs>
       <path id="DejaVuSans-44" d="M 1259 4147 
L 1259 519 
L 2022 519 
Q 2988 519 3436 956 
Q 3884 1394 3884 2338 
Q 3884 3275 3436 3711 
Q 2988 4147 2022 4147 
L 1259 4147 
z
M 628 4666 
L 1925 4666 
Q 3281 4666 3915 4102 
Q 4550 3538 4550 2338 
Q 4550 1131 3912 565 
Q 3275 0 1925 0 
L 628 0 
L 628 4666 
z
" transform="scale(0.015625)"/>
      </defs>
      <use xlink:href="#DejaVuSans-44"/>
      <use xlink:href="#DejaVuSans-48" x="77.001953"/>
      <use xlink:href="#DejaVuSans-46" x="152.197266"/>
      <use xlink:href="#DejaVuSans-52" x="209.716797"/>
     </g>
    </g>
    <g id="line2d_206">
     <defs>
      <path id="mbea29cc3b1" d="M 0 3.75 
C 0.994512 3.75 1.948425 3.354876 2.65165 2.65165 
C 3.354876 1.948425 3.75 0.994512 3.75 0 
C 3.75 -0.994512 3.354876 -1.948425 2.65165 -2.65165 
C 1.948425 -3.354876 0.994512 -3.75 0 -3.75 
C -0.994512 -3.75 -1.948425 -3.354876 -2.65165 -2.65165 
C -3.354876 -1.948425 -3.75 -0.994512 -3.75 0 
C -3.75 0.994512 -3.354876 1.948425 -2.65165 2.65165 
C -1.948425 3.354876 -0.994512 3.75 0 3.75 
z
"/>
     </defs>
     <g>
      <use xlink:href="#mbea29cc3b1" x="380.41125" y="55.099662" style="fill: #ff7f0e; fill-opacity: 0.8"/>
     </g>
    </g>
    <g id="text_29">
     <!-- GB1 -->
     <g transform="translate(398.41125 58.599662) scale(0.1 -0.1)">
      <defs>
       <path id="DejaVuSans-47" d="M 3809 666 
L 3809 1919 
L 2778 1919 
L 2778 2438 
L 4434 2438 
L 4434 434 
Q 4069 175 3628 42 
Q 3188 -91 2688 -91 
Q 1594 -91 976 548 
Q 359 1188 359 2328 
Q 359 3472 976 4111 
Q 1594 4750 2688 4750 
Q 3144 4750 3555 4637 
Q 3966 4525 4313 4306 
L 4313 3634 
Q 3963 3931 3569 4081 
Q 3175 4231 2741 4231 
Q 1884 4231 1454 3753 
Q 1025 3275 1025 2328 
Q 1025 1384 1454 906 
Q 1884 428 2741 428 
Q 3075 428 3337 486 
Q 3600 544 3809 666 
z
" transform="scale(0.015625)"/>
      </defs>
      <use xlink:href="#DejaVuSans-47"/>
      <use xlink:href="#DejaVuSans-42" x="77.490234"/>
      <use xlink:href="#DejaVuSans-31" x="146.09375"/>
     </g>
    </g>
    <g id="line2d_207">
     <defs>
      <path id="med0e9f5b84" d="M 0 3.75 
C 0.994512 3.75 1.948425 3.354876 2.65165 2.65165 
C 3.354876 1.948425 3.75 0.994512 3.75 0 
C 3.75 -0.994512 3.354876 -1.948425 2.65165 -2.65165 
C 1.948425 -3.354876 0.994512 -3.75 0 -3.75 
C -0.994512 -3.75 -1.948425 -3.354876 -2.65165 -2.65165 
C -3.354876 -1.948425 -3.75 -0.994512 -3.75 0 
C -3.75 0.994512 -3.354876 1.948425 -2.65165 2.65165 
C -1.948425 3.354876 -0.994512 3.75 0 3.75 
z
"/>
     </defs>
     <g>
      <use xlink:href="#med0e9f5b84" x="380.41125" y="69.777787" style="fill: #2ca02c; fill-opacity: 0.8"/>
     </g>
    </g>
    <g id="text_30">
     <!-- ParD2 -->
     <g transform="translate(398.41125 73.277787) scale(0.1 -0.1)">
      <defs>
       <path id="DejaVuSans-50" d="M 1259 4147 
L 1259 2394 
L 2053 2394 
Q 2494 2394 2734 2622 
Q 2975 2850 2975 3272 
Q 2975 3691 2734 3919 
Q 2494 4147 2053 4147 
L 1259 4147 
z
M 628 4666 
L 2053 4666 
Q 2838 4666 3239 4311 
Q 3641 3956 3641 3272 
Q 3641 2581 3239 2228 
Q 2838 1875 2053 1875 
L 1259 1875 
L 1259 0 
L 628 0 
L 628 4666 
z
" transform="scale(0.015625)"/>
       <path id="DejaVuSans-32" d="M 1228 531 
L 3431 531 
L 3431 0 
L 469 0 
L 469 531 
Q 828 903 1448 1529 
Q 2069 2156 2228 2338 
Q 2531 2678 2651 2914 
Q 2772 3150 2772 3378 
Q 2772 3750 2511 3984 
Q 2250 4219 1831 4219 
Q 1534 4219 1204 4116 
Q 875 4013 500 3803 
L 500 4441 
Q 881 4594 1212 4672 
Q 1544 4750 1819 4750 
Q 2544 4750 2975 4387 
Q 3406 4025 3406 3419 
Q 3406 3131 3298 2873 
Q 3191 2616 2906 2266 
Q 2828 2175 2409 1742 
Q 1991 1309 1228 531 
z
" transform="scale(0.015625)"/>
      </defs>
      <use xlink:href="#DejaVuSans-50"/>
      <use xlink:href="#DejaVuSans-61" x="55.802734"/>
      <use xlink:href="#DejaVuSans-72" x="117.082031"/>
      <use xlink:href="#DejaVuSans-44" x="158.195312"/>
      <use xlink:href="#DejaVuSans-32" x="235.197266"/>
     </g>
    </g>
    <g id="line2d_208">
     <defs>
      <path id="mfe0d59ce2e" d="M 0 3.75 
C 0.994512 3.75 1.948425 3.354876 2.65165 2.65165 
C 3.354876 1.948425 3.75 0.994512 3.75 0 
C 3.75 -0.994512 3.354876 -1.948425 2.65165 -2.65165 
C 1.948425 -3.354876 0.994512 -3.75 0 -3.75 
C -0.994512 -3.75 -1.948425 -3.354876 -2.65165 -2.65165 
C -3.354876 -1.948425 -3.75 -0.994512 -3.75 0 
C -3.75 0.994512 -3.354876 1.948425 -2.65165 2.65165 
C -1.948425 3.354876 -0.994512 3.75 0 3.75 
z
"/>
     </defs>
     <g>
      <use xlink:href="#mfe0d59ce2e" x="380.41125" y="84.455912" style="fill: #d62728; fill-opacity: 0.8"/>
     </g>
    </g>
    <g id="text_31">
     <!-- ParD3 -->
     <g transform="translate(398.41125 87.955912) scale(0.1 -0.1)">
      <defs>
       <path id="DejaVuSans-33" d="M 2597 2516 
Q 3050 2419 3304 2112 
Q 3559 1806 3559 1356 
Q 3559 666 3084 287 
Q 2609 -91 1734 -91 
Q 1441 -91 1130 -33 
Q 819 25 488 141 
L 488 750 
Q 750 597 1062 519 
Q 1375 441 1716 441 
Q 2309 441 2620 675 
Q 2931 909 2931 1356 
Q 2931 1769 2642 2001 
Q 2353 2234 1838 2234 
L 1294 2234 
L 1294 2753 
L 1863 2753 
Q 2328 2753 2575 2939 
Q 2822 3125 2822 3475 
Q 2822 3834 2567 4026 
Q 2313 4219 1838 4219 
Q 1578 4219 1281 4162 
Q 984 4106 628 3988 
L 628 4550 
Q 988 4650 1302 4700 
Q 1616 4750 1894 4750 
Q 2613 4750 3031 4423 
Q 3450 4097 3450 3541 
Q 3450 3153 3228 2886 
Q 3006 2619 2597 2516 
z
" transform="scale(0.015625)"/>
      </defs>
      <use xlink:href="#DejaVuSans-50"/>
      <use xlink:href="#DejaVuSans-61" x="55.802734"/>
      <use xlink:href="#DejaVuSans-72" x="117.082031"/>
      <use xlink:href="#DejaVuSans-44" x="158.195312"/>
      <use xlink:href="#DejaVuSans-33" x="235.197266"/>
     </g>
    </g>
    <g id="line2d_209">
     <defs>
      <path id="md0cb3ffdc0" d="M 0 3.75 
C 0.994512 3.75 1.948425 3.354876 2.65165 2.65165 
C 3.354876 1.948425 3.75 0.994512 3.75 0 
C 3.75 -0.994512 3.354876 -1.948425 2.65165 -2.65165 
C 1.948425 -3.354876 0.994512 -3.75 0 -3.75 
C -0.994512 -3.75 -1.948425 -3.354876 -2.65165 -2.65165 
C -3.354876 -1.948425 -3.75 -0.994512 -3.75 0 
C -3.75 0.994512 -3.354876 1.948425 -2.65165 2.65165 
C -1.948425 3.354876 -0.994512 3.75 0 3.75 
z
"/>
     </defs>
     <g>
      <use xlink:href="#md0cb3ffdc0" x="380.41125" y="99.134037" style="fill: #9467bd; fill-opacity: 0.8"/>
     </g>
    </g>
    <g id="text_32">
     <!-- T7 -->
     <g transform="translate(398.41125 102.634037) scale(0.1 -0.1)">
      <use xlink:href="#DejaVuSans-54"/>
      <use xlink:href="#DejaVuSans-37" x="61.083984"/>
     </g>
    </g>
    <g id="line2d_210">
     <defs>
      <path id="mb1a4830360" d="M 0 3.75 
C 0.994512 3.75 1.948425 3.354876 2.65165 2.65165 
C 3.354876 1.948425 3.75 0.994512 3.75 0 
C 3.75 -0.994512 3.354876 -1.948425 2.65165 -2.65165 
C 1.948425 -3.354876 0.994512 -3.75 0 -3.75 
C -0.994512 -3.75 -1.948425 -3.354876 -2.65165 -2.65165 
C -3.354876 -1.948425 -3.75 -0.994512 -3.75 0 
C -3.75 0.994512 -3.354876 1.948425 -2.65165 2.65165 
C -1.948425 3.354876 -0.994512 3.75 0 3.75 
z
"/>
     </defs>
     <g>
      <use xlink:href="#mb1a4830360" x="380.41125" y="113.812162" style="fill: #8c564b; fill-opacity: 0.8"/>
     </g>
    </g>
    <g id="text_33">
     <!-- TEV -->
     <g transform="translate(398.41125 117.312162) scale(0.1 -0.1)">
      <use xlink:href="#DejaVuSans-54"/>
      <use xlink:href="#DejaVuSans-45" x="61.083984"/>
      <use xlink:href="#DejaVuSans-56" x="124.267578"/>
     </g>
    </g>
    <g id="line2d_211">
     <defs>
      <path id="m618a2b8471" d="M 0 3.75 
C 0.994512 3.75 1.948425 3.354876 2.65165 2.65165 
C 3.354876 1.948425 3.75 0.994512 3.75 0 
C 3.75 -0.994512 3.354876 -1.948425 2.65165 -2.65165 
C 1.948425 -3.354876 0.994512 -3.75 0 -3.75 
C -0.994512 -3.75 -1.948425 -3.354876 -2.65165 -2.65165 
C -3.354876 -1.948425 -3.75 -0.994512 -3.75 0 
C -3.75 0.994512 -3.354876 1.948425 -2.65165 2.65165 
C -1.948425 3.354876 -0.994512 3.75 0 3.75 
z
"/>
     </defs>
     <g>
      <use xlink:href="#m618a2b8471" x="380.41125" y="128.490287" style="fill: #e377c2; fill-opacity: 0.8"/>
     </g>
    </g>
    <g id="text_34">
     <!-- TrpB3D -->
     <g transform="translate(398.41125 131.990287) scale(0.1 -0.1)">
      <defs>
       <path id="DejaVuSans-70" d="M 1159 525 
L 1159 -1331 
L 581 -1331 
L 581 3500 
L 1159 3500 
L 1159 2969 
Q 1341 3281 1617 3432 
Q 1894 3584 2278 3584 
Q 2916 3584 3314 3078 
Q 3713 2572 3713 1747 
Q 3713 922 3314 415 
Q 2916 -91 2278 -91 
Q 1894 -91 1617 61 
Q 1341 213 1159 525 
z
M 3116 1747 
Q 3116 2381 2855 2742 
Q 2594 3103 2138 3103 
Q 1681 3103 1420 2742 
Q 1159 2381 1159 1747 
Q 1159 1113 1420 752 
Q 1681 391 2138 391 
Q 2594 391 2855 752 
Q 3116 1113 3116 1747 
z
" transform="scale(0.015625)"/>
      </defs>
      <use xlink:href="#DejaVuSans-54"/>
      <use xlink:href="#DejaVuSans-72" x="46.333984"/>
      <use xlink:href="#DejaVuSans-70" x="87.447266"/>
      <use xlink:href="#DejaVuSans-42" x="150.923828"/>
      <use xlink:href="#DejaVuSans-33" x="219.527344"/>
      <use xlink:href="#DejaVuSans-44" x="283.150391"/>
     </g>
    </g>
    <g id="line2d_212">
     <defs>
      <path id="m053b6af577" d="M 0 3.75 
C 0.994512 3.75 1.948425 3.354876 2.65165 2.65165 
C 3.354876 1.948425 3.75 0.994512 3.75 0 
C 3.75 -0.994512 3.354876 -1.948425 2.65165 -2.65165 
C 1.948425 -3.354876 0.994512 -3.75 0 -3.75 
C -0.994512 -3.75 -1.948425 -3.354876 -2.65165 -2.65165 
C -3.354876 -1.948425 -3.75 -0.994512 -3.75 0 
C -3.75 0.994512 -3.354876 1.948425 -2.65165 2.65165 
C -1.948425 3.354876 -0.994512 3.75 0 3.75 
z
"/>
     </defs>
     <g>
      <use xlink:href="#m053b6af577" x="380.41125" y="143.168412" style="fill: #7f7f7f; fill-opacity: 0.8"/>
     </g>
    </g>
    <g id="text_35">
     <!-- TrpB3E -->
     <g transform="translate(398.41125 146.668412) scale(0.1 -0.1)">
      <use xlink:href="#DejaVuSans-54"/>
      <use xlink:href="#DejaVuSans-72" x="46.333984"/>
      <use xlink:href="#DejaVuSans-70" x="87.447266"/>
      <use xlink:href="#DejaVuSans-42" x="150.923828"/>
      <use xlink:href="#DejaVuSans-33" x="219.527344"/>
      <use xlink:href="#DejaVuSans-45" x="283.150391"/>
     </g>
    </g>
    <g id="line2d_213">
     <defs>
      <path id="m0049d4fef9" d="M 0 3.75 
C 0.994512 3.75 1.948425 3.354876 2.65165 2.65165 
C 3.354876 1.948425 3.75 0.994512 3.75 0 
C 3.75 -0.994512 3.354876 -1.948425 2.65165 -2.65165 
C 1.948425 -3.354876 0.994512 -3.75 0 -3.75 
C -0.994512 -3.75 -1.948425 -3.354876 -2.65165 -2.65165 
C -3.354876 -1.948425 -3.75 -0.994512 -3.75 0 
C -3.75 0.994512 -3.354876 1.948425 -2.65165 2.65165 
C -1.948425 3.354876 -0.994512 3.75 0 3.75 
z
"/>
     </defs>
     <g>
      <use xlink:href="#m0049d4fef9" x="380.41125" y="157.846537" style="fill: #bcbd22; fill-opacity: 0.8"/>
     </g>
    </g>
    <g id="text_36">
     <!-- TrpB3F -->
     <g transform="translate(398.41125 161.346537) scale(0.1 -0.1)">
      <use xlink:href="#DejaVuSans-54"/>
      <use xlink:href="#DejaVuSans-72" x="46.333984"/>
      <use xlink:href="#DejaVuSans-70" x="87.447266"/>
      <use xlink:href="#DejaVuSans-42" x="150.923828"/>
      <use xlink:href="#DejaVuSans-33" x="219.527344"/>
      <use xlink:href="#DejaVuSans-46" x="283.150391"/>
     </g>
    </g>
    <g id="line2d_214">
     <defs>
      <path id="m1183e0d3bd" d="M 0 3.75 
C 0.994512 3.75 1.948425 3.354876 2.65165 2.65165 
C 3.354876 1.948425 3.75 0.994512 3.75 0 
C 3.75 -0.994512 3.354876 -1.948425 2.65165 -2.65165 
C 1.948425 -3.354876 0.994512 -3.75 0 -3.75 
C -0.994512 -3.75 -1.948425 -3.354876 -2.65165 -2.65165 
C -3.354876 -1.948425 -3.75 -0.994512 -3.75 0 
C -3.75 0.994512 -3.354876 1.948425 -2.65165 2.65165 
C -1.948425 3.354876 -0.994512 3.75 0 3.75 
z
"/>
     </defs>
     <g>
      <use xlink:href="#m1183e0d3bd" x="380.41125" y="172.524662" style="fill: #17becf; fill-opacity: 0.8"/>
     </g>
    </g>
    <g id="text_37">
     <!-- TrpB3G -->
     <g transform="translate(398.41125 176.024662) scale(0.1 -0.1)">
      <use xlink:href="#DejaVuSans-54"/>
      <use xlink:href="#DejaVuSans-72" x="46.333984"/>
      <use xlink:href="#DejaVuSans-70" x="87.447266"/>
      <use xlink:href="#DejaVuSans-42" x="150.923828"/>
      <use xlink:href="#DejaVuSans-33" x="219.527344"/>
      <use xlink:href="#DejaVuSans-47" x="283.150391"/>
     </g>
    </g>
    <g id="line2d_215">
     <defs>
      <path id="m6f8a12721f" d="M 0 3.75 
C 0.994512 3.75 1.948425 3.354876 2.65165 2.65165 
C 3.354876 1.948425 3.75 0.994512 3.75 0 
C 3.75 -0.994512 3.354876 -1.948425 2.65165 -2.65165 
C 1.948425 -3.354876 0.994512 -3.75 0 -3.75 
C -0.994512 -3.75 -1.948425 -3.354876 -2.65165 -2.65165 
C -3.354876 -1.948425 -3.75 -0.994512 -3.75 0 
C -3.75 0.994512 -3.354876 1.948425 -2.65165 2.65165 
C -1.948425 3.354876 -0.994512 3.75 0 3.75 
z
"/>
     </defs>
     <g>
      <use xlink:href="#m6f8a12721f" x="380.41125" y="187.202787" style="fill: #3a0183; fill-opacity: 0.8"/>
     </g>
    </g>
    <g id="text_38">
     <!-- TrpB3I -->
     <g transform="translate(398.41125 190.702787) scale(0.1 -0.1)">
      <use xlink:href="#DejaVuSans-54"/>
      <use xlink:href="#DejaVuSans-72" x="46.333984"/>
      <use xlink:href="#DejaVuSans-70" x="87.447266"/>
      <use xlink:href="#DejaVuSans-42" x="150.923828"/>
      <use xlink:href="#DejaVuSans-33" x="219.527344"/>
      <use xlink:href="#DejaVuSans-49" x="283.150391"/>
     </g>
    </g>
    <g id="line2d_216">
     <defs>
      <path id="mba72dc1d41" d="M 0 3.75 
C 0.994512 3.75 1.948425 3.354876 2.65165 2.65165 
C 3.354876 1.948425 3.75 0.994512 3.75 0 
C 3.75 -0.994512 3.354876 -1.948425 2.65165 -2.65165 
C 1.948425 -3.354876 0.994512 -3.75 0 -3.75 
C -0.994512 -3.75 -1.948425 -3.354876 -2.65165 -2.65165 
C -3.354876 -1.948425 -3.75 -0.994512 -3.75 0 
C -3.75 0.994512 -3.354876 1.948425 -2.65165 2.65165 
C -1.948425 3.354876 -0.994512 3.75 0 3.75 
z
"/>
     </defs>
     <g>
      <use xlink:href="#mba72dc1d41" x="380.41125" y="201.880912" style="fill: #004301; fill-opacity: 0.8"/>
     </g>
    </g>
    <g id="text_39">
     <!-- TrpB4 -->
     <g transform="translate(398.41125 205.380912) scale(0.1 -0.1)">
      <use xlink:href="#DejaVuSans-54"/>
      <use xlink:href="#DejaVuSans-72" x="46.333984"/>
      <use xlink:href="#DejaVuSans-70" x="87.447266"/>
      <use xlink:href="#DejaVuSans-42" x="150.923828"/>
      <use xlink:href="#DejaVuSans-34" x="219.527344"/>
     </g>
    </g>
   </g>
  </g>
 </g>
 <defs>
  <clipPath id="p155044ffe9">
   <rect x="43.78125" y="31.99625" width="45.855" height="186.926"/>
  </clipPath>
  <clipPath id="paee4c27542">
   <rect x="98.13625" y="31.99625" width="45.855" height="186.926"/>
  </clipPath>
  <clipPath id="p41926ebe78">
   <rect x="152.49125" y="31.99625" width="45.855" height="186.926"/>
  </clipPath>
  <clipPath id="pbedff8476e">
   <rect x="206.84625" y="31.99625" width="45.855" height="186.926"/>
  </clipPath>
  <clipPath id="p0c82dabd9e">
   <rect x="261.20125" y="31.99625" width="45.855" height="186.926"/>
  </clipPath>
  <clipPath id="pab17bddc6f">
   <rect x="315.55625" y="31.99625" width="45.855" height="186.926"/>
  </clipPath>
 </defs>
</svg>
