<?xml version="1.0" encoding="utf-8" standalone="no"?>
<!DOCTYPE svg PUBLIC "-//W3C//DTD SVG 1.1//EN"
  "http://www.w3.org/Graphics/SVG/1.1/DTD/svg11.dtd">
<svg xmlns:xlink="http://www.w3.org/1999/xlink" width="748.5025pt" height="279.835469pt" viewBox="0 0 748.5025 279.835469" xmlns="http://www.w3.org/2000/svg" version="1.1">
 <metadata>
  <rdf:RDF xmlns:dc="http://purl.org/dc/elements/1.1/" xmlns:cc="http://creativecommons.org/ns#" xmlns:rdf="http://www.w3.org/1999/02/22-rdf-syntax-ns#">
   <cc:Work>
    <dc:type rdf:resource="http://purl.org/dc/dcmitype/StillImage"/>
    <dc:date>2024-10-16T21:49:47.670223</dc:date>
    <dc:format>image/svg+xml</dc:format>
    <dc:creator>
     <cc:Agent>
      <dc:title>Matplotlib v3.8.4, https://matplotlib.org/</dc:title>
     </cc:Agent>
    </dc:creator>
   </cc:Work>
  </rdf:RDF>
 </metadata>
 <defs>
  <style type="text/css">*{stroke-linejoin: round; stroke-linecap: butt}</style>
 </defs>
 <g id="figure_1">
  <g id="patch_1">
   <path d="M 0 279.835469 
L 748.5025 279.835469 
L 748.5025 0 
L 0 0 
z
" style="fill: #ffffff"/>
  </g>
  <g id="axes_1">
   <g id="patch_2">
    <path d="M 43.78125 242.279219 
L 288.35625 242.279219 
L 288.35625 10.999219 
L 43.78125 10.999219 
z
" style="fill: #ffffff"/>
   </g>
   <g id="PolyCollection_1">
    <defs>
     <path id="m1f5554799c" d="M 43.78125 -120.178891 
L 43.78125 -29.778774 
L 59.586038 -30.831607 
L 84.524143 -32.564805 
L 119.672428 -39.135835 
L 144.610533 -46.30861 
L 163.95403 -55.925732 
L 179.758818 -68.694784 
L 193.121575 -79.417965 
L 232.30251 -98.214076 
L 288.35625 -128.587224 
L 288.35625 -279.094863 
L 288.35625 -279.094863 
L 232.30251 -268.776068 
L 193.121575 -250.865373 
L 179.758818 -244.718715 
L 163.95403 -228.820541 
L 144.610533 -211.384374 
L 119.672428 -193.306637 
L 84.524143 -163.528727 
L 59.586038 -136.898662 
L 43.78125 -120.178891 
z
" style="stroke: #666666; stroke-opacity: 0.01"/>
    </defs>
    <g clip-path="url(#pf35e686885)">
     <use xlink:href="#m1f5554799c" x="0" y="279.835469" style="fill: #666666; fill-opacity: 0.01; stroke: #666666; stroke-opacity: 0.01"/>
    </g>
   </g>
   <g id="PolyCollection_2">
    <defs>
     <path id="m0e2cd96235" d="M 43.78125 -124.868712 
L 43.78125 -30.987164 
L 59.586038 -32.081417 
L 84.524143 -54.00198 
L 119.672428 -91.306068 
L 144.610533 -109.077328 
L 163.95403 -138.39394 
L 179.758818 -151.034054 
L 193.121575 -176.971102 
L 232.30251 -243.102288 
L 288.35625 -268.83625 
L 288.35625 -268.83625 
L 288.35625 -268.83625 
L 232.30251 -285.001965 
L 193.121575 -287.098125 
L 179.758818 -279.304317 
L 163.95403 -277.77507 
L 144.610533 -267.10967 
L 119.672428 -259.086428 
L 84.524143 -220.587813 
L 59.586038 -170.639983 
L 43.78125 -124.868712 
z
" style="stroke: #9bbb59; stroke-opacity: 0.01"/>
    </defs>
    <g clip-path="url(#pf35e686885)">
     <use xlink:href="#m0e2cd96235" x="0" y="279.835469" style="fill: #9bbb59; fill-opacity: 0.01; stroke: #9bbb59; stroke-opacity: 0.01"/>
    </g>
   </g>
   <g id="PolyCollection_3">
    <defs>
     <path id="m63fa991fae" d="M 43.78125 -151.18265 
L 43.78125 -28.402461 
L 59.586038 -41.066263 
L 84.524143 -69.786528 
L 119.672428 -104.765606 
L 144.610533 -124.588269 
L 163.95403 -138.932239 
L 179.758818 -152.441158 
L 193.121575 -172.075358 
L 232.30251 -241.022583 
L 288.35625 -268.83625 
L 288.35625 -268.83625 
L 288.35625 -268.83625 
L 232.30251 -286.696111 
L 193.121575 -291.240146 
L 179.758818 -285.909325 
L 163.95403 -286.507321 
L 144.610533 -283.645756 
L 119.672428 -274.543544 
L 84.524143 -251.166762 
L 59.586038 -203.951878 
L 43.78125 -151.18265 
z
" style="stroke: #8b946e; stroke-opacity: 0.01"/>
    </defs>
    <g clip-path="url(#pf35e686885)">
     <use xlink:href="#m63fa991fae" x="0" y="279.835469" style="fill: #8b946e; fill-opacity: 0.01; stroke: #8b946e; stroke-opacity: 0.01"/>
    </g>
   </g>
   <g id="PolyCollection_4">
    <defs>
     <path id="m8839835cdf" d="M 43.78125 -120.248285 
L 43.78125 -33.19853 
L 59.586038 -32.895109 
L 84.524143 -51.572508 
L 119.672428 -94.302187 
L 144.610533 -110.650619 
L 163.95403 -127.818007 
L 179.758818 -136.384473 
L 193.121575 -158.68327 
L 232.30251 -242.765705 
L 288.35625 -268.83625 
L 288.35625 -268.83625 
L 288.35625 -268.83625 
L 232.30251 -284.944538 
L 193.121575 -289.660686 
L 179.758818 -278.195852 
L 163.95403 -277.005704 
L 144.610533 -266.520344 
L 119.672428 -265.206721 
L 84.524143 -220.389456 
L 59.586038 -167.567472 
L 43.78125 -120.248285 
z
" style="stroke: #8064a2; stroke-opacity: 0.01"/>
    </defs>
    <g clip-path="url(#pf35e686885)">
     <use xlink:href="#m8839835cdf" x="0" y="279.835469" style="fill: #8064a2; fill-opacity: 0.01; stroke: #8064a2; stroke-opacity: 0.01"/>
    </g>
   </g>
   <g id="PolyCollection_5">
    <defs>
     <path id="m73943c7872" d="M 43.78125 -144.971187 
L 43.78125 -28.914885 
L 59.586038 -38.812271 
L 84.524143 -57.381525 
L 119.672428 -106.796068 
L 144.610533 -125.647393 
L 163.95403 -150.01473 
L 179.758818 -164.988031 
L 193.121575 -183.849901 
L 232.30251 -245.711409 
L 288.35625 -268.83625 
L 288.35625 -268.83625 
L 288.35625 -268.83625 
L 232.30251 -284.0692 
L 193.121575 -290.946895 
L 179.758818 -287.473264 
L 163.95403 -285.992328 
L 144.610533 -280.017706 
L 119.672428 -274.184532 
L 84.524143 -228.615475 
L 59.586038 -192.574995 
L 43.78125 -144.971187 
z
" style="stroke: #897a8f; stroke-opacity: 0.01"/>
    </defs>
    <g clip-path="url(#pf35e686885)">
     <use xlink:href="#m73943c7872" x="0" y="279.835469" style="fill: #897a8f; fill-opacity: 0.01; stroke: #897a8f; stroke-opacity: 0.01"/>
    </g>
   </g>
   <g id="PolyCollection_6">
    <defs>
     <path id="m1a68c6ef0d" d="M 43.78125 -147.186732 
L 43.78125 -27.310372 
L 59.586038 -33.529102 
L 84.524143 -62.486878 
L 119.672428 -104.843797 
L 144.610533 -110.478269 
L 163.95403 -138.254542 
L 179.758818 -155.614863 
L 193.121575 -174.327599 
L 232.30251 -243.729627 
L 288.35625 -268.83625 
L 288.35625 -268.83625 
L 288.35625 -268.83625 
L 232.30251 -285.361203 
L 193.121575 -292.862649 
L 179.758818 -288.140962 
L 163.95403 -282.915134 
L 144.610533 -272.203926 
L 119.672428 -272.34631 
L 84.524143 -240.052561 
L 59.586038 -181.563826 
L 43.78125 -147.186732 
z
" style="stroke: #f9be00; stroke-opacity: 0.01"/>
    </defs>
    <g clip-path="url(#pf35e686885)">
     <use xlink:href="#m1a68c6ef0d" x="0" y="279.835469" style="fill: #f9be00; fill-opacity: 0.01; stroke: #f9be00; stroke-opacity: 0.01"/>
    </g>
   </g>
   <g id="PolyCollection_7">
    <defs>
     <path id="meb0776e15e" d="M 43.78125 -144.971187 
L 43.78125 -28.914885 
L 59.586038 -38.812271 
L 84.524143 -57.381525 
L 119.672428 -106.796068 
L 144.610533 -125.647393 
L 163.95403 -150.01473 
L 179.758818 -164.988031 
L 193.121575 -183.849901 
L 232.30251 -245.711409 
L 288.35625 -268.83625 
L 288.35625 -268.83625 
L 288.35625 -268.83625 
L 232.30251 -284.0692 
L 193.121575 -290.946895 
L 179.758818 -287.473264 
L 163.95403 -285.992328 
L 144.610533 -280.017706 
L 119.672428 -274.184532 
L 84.524143 -228.615475 
L 59.586038 -192.574995 
L 43.78125 -144.971187 
z
" style="stroke: #d6b969; stroke-opacity: 0.01"/>
    </defs>
    <g clip-path="url(#pf35e686885)">
     <use xlink:href="#meb0776e15e" x="0" y="279.835469" style="fill: #d6b969; fill-opacity: 0.01; stroke: #d6b969; stroke-opacity: 0.01"/>
    </g>
   </g>
   <g id="PolyCollection_8">
    <defs>
     <path id="m297c201852" d="M 43.78125 -182.036935 
L 43.78125 -28.421663 
L 59.586038 -37.637897 
L 84.524143 -70.41778 
L 119.672428 -101.717875 
L 144.610533 -118.366349 
L 163.95403 -136.281935 
L 179.758818 -157.17859 
L 193.121575 -178.705725 
L 232.30251 -250.266988 
L 288.35625 -268.83625 
L 288.35625 -268.83625 
L 288.35625 -268.83625 
L 232.30251 -281.046003 
L 193.121575 -291.81005 
L 179.758818 -287.840111 
L 163.95403 -284.237963 
L 144.610533 -280.028359 
L 119.672428 -273.82207 
L 84.524143 -252.502308 
L 59.586038 -206.544451 
L 43.78125 -182.036935 
z
" style="stroke: #f79646; stroke-opacity: 0.01"/>
    </defs>
    <g clip-path="url(#pf35e686885)">
     <use xlink:href="#m297c201852" x="0" y="279.835469" style="fill: #f79646; fill-opacity: 0.01; stroke: #f79646; stroke-opacity: 0.01"/>
    </g>
   </g>
   <g id="PolyCollection_9">
    <defs>
     <path id="m7548561c04" d="M 43.78125 -126.273986 
L 43.78125 -29.003452 
L 59.586038 -33.765025 
L 84.524143 -54.224455 
L 119.672428 -101.78944 
L 144.610533 -118.188387 
L 163.95403 -139.295878 
L 179.758818 -155.230744 
L 193.121575 -172.392507 
L 232.30251 -243.537012 
L 288.35625 -268.83625 
L 288.35625 -268.83625 
L 288.35625 -268.83625 
L 232.30251 -285.28563 
L 193.121575 -292.264636 
L 179.758818 -287.705788 
L 163.95403 -282.878603 
L 144.610533 -275.096681 
L 119.672428 -267.563054 
L 84.524143 -224.851242 
L 59.586038 -169.052025 
L 43.78125 -126.273986 
z
" style="stroke: #c58a6c; stroke-opacity: 0.01"/>
    </defs>
    <g clip-path="url(#pf35e686885)">
     <use xlink:href="#m7548561c04" x="0" y="279.835469" style="fill: #c58a6c; fill-opacity: 0.01; stroke: #c58a6c; stroke-opacity: 0.01"/>
    </g>
   </g>
   <g id="matplotlib.axis_1">
    <g id="xtick_1">
     <g id="line2d_1">
      <defs>
       <path id="m497c131e64" d="M 0 0 
L 0 3.5 
" style="stroke: #000000; stroke-width: 0.8"/>
      </defs>
      <g>
       <use xlink:href="#m497c131e64" x="43.78125" y="242.279219" style="stroke: #000000; stroke-width: 0.8"/>
      </g>
     </g>
     <g id="text_1">
      <!-- 120 -->
      <g transform="translate(34.2375 256.877656) scale(0.1 -0.1)">
       <defs>
        <path id="DejaVuSans-31" d="M 794 531 
L 1825 531 
L 1825 4091 
L 703 3866 
L 703 4441 
L 1819 4666 
L 2450 4666 
L 2450 531 
L 3481 531 
L 3481 0 
L 794 0 
L 794 531 
z
" transform="scale(0.015625)"/>
        <path id="DejaVuSans-32" d="M 1228 531 
L 3431 531 
L 3431 0 
L 469 0 
L 469 531 
Q 828 903 1448 1529 
Q 2069 2156 2228 2338 
Q 2531 2678 2651 2914 
Q 2772 3150 2772 3378 
Q 2772 3750 2511 3984 
Q 2250 4219 1831 4219 
Q 1534 4219 1204 4116 
Q 875 4013 500 3803 
L 500 4441 
Q 881 4594 1212 4672 
Q 1544 4750 1819 4750 
Q 2544 4750 2975 4387 
Q 3406 4025 3406 3419 
Q 3406 3131 3298 2873 
Q 3191 2616 2906 2266 
Q 2828 2175 2409 1742 
Q 1991 1309 1228 531 
z
" transform="scale(0.015625)"/>
        <path id="DejaVuSans-30" d="M 2034 4250 
Q 1547 4250 1301 3770 
Q 1056 3291 1056 2328 
Q 1056 1369 1301 889 
Q 1547 409 2034 409 
Q 2525 409 2770 889 
Q 3016 1369 3016 2328 
Q 3016 3291 2770 3770 
Q 2525 4250 2034 4250 
z
M 2034 4750 
Q 2819 4750 3233 4129 
Q 3647 3509 3647 2328 
Q 3647 1150 3233 529 
Q 2819 -91 2034 -91 
Q 1250 -91 836 529 
Q 422 1150 422 2328 
Q 422 3509 836 4129 
Q 1250 4750 2034 4750 
z
" transform="scale(0.015625)"/>
       </defs>
       <use xlink:href="#DejaVuSans-31"/>
       <use xlink:href="#DejaVuSans-32" x="63.623047"/>
       <use xlink:href="#DejaVuSans-30" x="127.246094"/>
      </g>
     </g>
    </g>
    <g id="xtick_2">
     <g id="line2d_2">
      <g>
       <use xlink:href="#m497c131e64" x="84.524143" y="242.279219" style="stroke: #000000; stroke-width: 0.8"/>
      </g>
     </g>
     <g id="text_2">
      <!-- 192 -->
      <g transform="translate(74.980393 256.877656) scale(0.1 -0.1)">
       <defs>
        <path id="DejaVuSans-39" d="M 703 97 
L 703 672 
Q 941 559 1184 500 
Q 1428 441 1663 441 
Q 2288 441 2617 861 
Q 2947 1281 2994 2138 
Q 2813 1869 2534 1725 
Q 2256 1581 1919 1581 
Q 1219 1581 811 2004 
Q 403 2428 403 3163 
Q 403 3881 828 4315 
Q 1253 4750 1959 4750 
Q 2769 4750 3195 4129 
Q 3622 3509 3622 2328 
Q 3622 1225 3098 567 
Q 2575 -91 1691 -91 
Q 1453 -91 1209 -44 
Q 966 3 703 97 
z
M 1959 2075 
Q 2384 2075 2632 2365 
Q 2881 2656 2881 3163 
Q 2881 3666 2632 3958 
Q 2384 4250 1959 4250 
Q 1534 4250 1286 3958 
Q 1038 3666 1038 3163 
Q 1038 2656 1286 2365 
Q 1534 2075 1959 2075 
z
" transform="scale(0.015625)"/>
       </defs>
       <use xlink:href="#DejaVuSans-31"/>
       <use xlink:href="#DejaVuSans-39" x="63.623047"/>
       <use xlink:href="#DejaVuSans-32" x="127.246094"/>
      </g>
     </g>
    </g>
    <g id="xtick_3">
     <g id="line2d_3">
      <g>
       <use xlink:href="#m497c131e64" x="119.672428" y="242.279219" style="stroke: #000000; stroke-width: 0.8"/>
      </g>
     </g>
     <g id="text_3">
      <!-- 288 -->
      <g transform="translate(110.128678 256.877656) scale(0.1 -0.1)">
       <defs>
        <path id="DejaVuSans-38" d="M 2034 2216 
Q 1584 2216 1326 1975 
Q 1069 1734 1069 1313 
Q 1069 891 1326 650 
Q 1584 409 2034 409 
Q 2484 409 2743 651 
Q 3003 894 3003 1313 
Q 3003 1734 2745 1975 
Q 2488 2216 2034 2216 
z
M 1403 2484 
Q 997 2584 770 2862 
Q 544 3141 544 3541 
Q 544 4100 942 4425 
Q 1341 4750 2034 4750 
Q 2731 4750 3128 4425 
Q 3525 4100 3525 3541 
Q 3525 3141 3298 2862 
Q 3072 2584 2669 2484 
Q 3125 2378 3379 2068 
Q 3634 1759 3634 1313 
Q 3634 634 3220 271 
Q 2806 -91 2034 -91 
Q 1263 -91 848 271 
Q 434 634 434 1313 
Q 434 1759 690 2068 
Q 947 2378 1403 2484 
z
M 1172 3481 
Q 1172 3119 1398 2916 
Q 1625 2713 2034 2713 
Q 2441 2713 2670 2916 
Q 2900 3119 2900 3481 
Q 2900 3844 2670 4047 
Q 2441 4250 2034 4250 
Q 1625 4250 1398 4047 
Q 1172 3844 1172 3481 
z
" transform="scale(0.015625)"/>
       </defs>
       <use xlink:href="#DejaVuSans-32"/>
       <use xlink:href="#DejaVuSans-38" x="63.623047"/>
       <use xlink:href="#DejaVuSans-38" x="127.246094"/>
      </g>
     </g>
    </g>
    <g id="xtick_4">
     <g id="line2d_4">
      <g>
       <use xlink:href="#m497c131e64" x="163.95403" y="242.279219" style="stroke: #000000; stroke-width: 0.8"/>
      </g>
     </g>
     <g id="text_4">
      <!-- 480 -->
      <g transform="translate(154.41028 256.877656) scale(0.1 -0.1)">
       <defs>
        <path id="DejaVuSans-34" d="M 2419 4116 
L 825 1625 
L 2419 1625 
L 2419 4116 
z
M 2253 4666 
L 3047 4666 
L 3047 1625 
L 3713 1625 
L 3713 1100 
L 3047 1100 
L 3047 0 
L 2419 0 
L 2419 1100 
L 313 1100 
L 313 1709 
L 2253 4666 
z
" transform="scale(0.015625)"/>
       </defs>
       <use xlink:href="#DejaVuSans-34"/>
       <use xlink:href="#DejaVuSans-38" x="63.623047"/>
       <use xlink:href="#DejaVuSans-30" x="127.246094"/>
      </g>
     </g>
    </g>
    <g id="xtick_5">
     <g id="line2d_5">
      <g>
       <use xlink:href="#m497c131e64" x="232.30251" y="242.279219" style="stroke: #000000; stroke-width: 0.8"/>
      </g>
     </g>
     <g id="text_5">
      <!-- 1056 -->
      <g transform="translate(219.57751 256.877656) scale(0.1 -0.1)">
       <defs>
        <path id="DejaVuSans-35" d="M 691 4666 
L 3169 4666 
L 3169 4134 
L 1269 4134 
L 1269 2991 
Q 1406 3038 1543 3061 
Q 1681 3084 1819 3084 
Q 2600 3084 3056 2656 
Q 3513 2228 3513 1497 
Q 3513 744 3044 326 
Q 2575 -91 1722 -91 
Q 1428 -91 1123 -41 
Q 819 9 494 109 
L 494 744 
Q 775 591 1075 516 
Q 1375 441 1709 441 
Q 2250 441 2565 725 
Q 2881 1009 2881 1497 
Q 2881 1984 2565 2268 
Q 2250 2553 1709 2553 
Q 1456 2553 1204 2497 
Q 953 2441 691 2322 
L 691 4666 
z
" transform="scale(0.015625)"/>
        <path id="DejaVuSans-36" d="M 2113 2584 
Q 1688 2584 1439 2293 
Q 1191 2003 1191 1497 
Q 1191 994 1439 701 
Q 1688 409 2113 409 
Q 2538 409 2786 701 
Q 3034 994 3034 1497 
Q 3034 2003 2786 2293 
Q 2538 2584 2113 2584 
z
M 3366 4563 
L 3366 3988 
Q 3128 4100 2886 4159 
Q 2644 4219 2406 4219 
Q 1781 4219 1451 3797 
Q 1122 3375 1075 2522 
Q 1259 2794 1537 2939 
Q 1816 3084 2150 3084 
Q 2853 3084 3261 2657 
Q 3669 2231 3669 1497 
Q 3669 778 3244 343 
Q 2819 -91 2113 -91 
Q 1303 -91 875 529 
Q 447 1150 447 2328 
Q 447 3434 972 4092 
Q 1497 4750 2381 4750 
Q 2619 4750 2861 4703 
Q 3103 4656 3366 4563 
z
" transform="scale(0.015625)"/>
       </defs>
       <use xlink:href="#DejaVuSans-31"/>
       <use xlink:href="#DejaVuSans-30" x="63.623047"/>
       <use xlink:href="#DejaVuSans-35" x="127.246094"/>
       <use xlink:href="#DejaVuSans-36" x="190.869141"/>
      </g>
     </g>
    </g>
    <g id="xtick_6">
     <g id="line2d_6">
      <g>
       <use xlink:href="#m497c131e64" x="288.35625" y="242.279219" style="stroke: #000000; stroke-width: 0.8"/>
      </g>
     </g>
     <g id="text_6">
      <!-- 2016 -->
      <g transform="translate(275.63125 256.877656) scale(0.1 -0.1)">
       <use xlink:href="#DejaVuSans-32"/>
       <use xlink:href="#DejaVuSans-30" x="63.623047"/>
       <use xlink:href="#DejaVuSans-31" x="127.246094"/>
       <use xlink:href="#DejaVuSans-36" x="190.869141"/>
      </g>
     </g>
    </g>
    <g id="text_7">
     <!-- Total number of variants -->
     <g transform="translate(105.025781 270.555781) scale(0.1 -0.1)">
      <defs>
       <path id="DejaVuSans-54" d="M -19 4666 
L 3928 4666 
L 3928 4134 
L 2272 4134 
L 2272 0 
L 1638 0 
L 1638 4134 
L -19 4134 
L -19 4666 
z
" transform="scale(0.015625)"/>
       <path id="DejaVuSans-6f" d="M 1959 3097 
Q 1497 3097 1228 2736 
Q 959 2375 959 1747 
Q 959 1119 1226 758 
Q 1494 397 1959 397 
Q 2419 397 2687 759 
Q 2956 1122 2956 1747 
Q 2956 2369 2687 2733 
Q 2419 3097 1959 3097 
z
M 1959 3584 
Q 2709 3584 3137 3096 
Q 3566 2609 3566 1747 
Q 3566 888 3137 398 
Q 2709 -91 1959 -91 
Q 1206 -91 779 398 
Q 353 888 353 1747 
Q 353 2609 779 3096 
Q 1206 3584 1959 3584 
z
" transform="scale(0.015625)"/>
       <path id="DejaVuSans-74" d="M 1172 4494 
L 1172 3500 
L 2356 3500 
L 2356 3053 
L 1172 3053 
L 1172 1153 
Q 1172 725 1289 603 
Q 1406 481 1766 481 
L 2356 481 
L 2356 0 
L 1766 0 
Q 1100 0 847 248 
Q 594 497 594 1153 
L 594 3053 
L 172 3053 
L 172 3500 
L 594 3500 
L 594 4494 
L 1172 4494 
z
" transform="scale(0.015625)"/>
       <path id="DejaVuSans-61" d="M 2194 1759 
Q 1497 1759 1228 1600 
Q 959 1441 959 1056 
Q 959 750 1161 570 
Q 1363 391 1709 391 
Q 2188 391 2477 730 
Q 2766 1069 2766 1631 
L 2766 1759 
L 2194 1759 
z
M 3341 1997 
L 3341 0 
L 2766 0 
L 2766 531 
Q 2569 213 2275 61 
Q 1981 -91 1556 -91 
Q 1019 -91 701 211 
Q 384 513 384 1019 
Q 384 1609 779 1909 
Q 1175 2209 1959 2209 
L 2766 2209 
L 2766 2266 
Q 2766 2663 2505 2880 
Q 2244 3097 1772 3097 
Q 1472 3097 1187 3025 
Q 903 2953 641 2809 
L 641 3341 
Q 956 3463 1253 3523 
Q 1550 3584 1831 3584 
Q 2591 3584 2966 3190 
Q 3341 2797 3341 1997 
z
" transform="scale(0.015625)"/>
       <path id="DejaVuSans-6c" d="M 603 4863 
L 1178 4863 
L 1178 0 
L 603 0 
L 603 4863 
z
" transform="scale(0.015625)"/>
       <path id="DejaVuSans-20" transform="scale(0.015625)"/>
       <path id="DejaVuSans-6e" d="M 3513 2113 
L 3513 0 
L 2938 0 
L 2938 2094 
Q 2938 2591 2744 2837 
Q 2550 3084 2163 3084 
Q 1697 3084 1428 2787 
Q 1159 2491 1159 1978 
L 1159 0 
L 581 0 
L 581 3500 
L 1159 3500 
L 1159 2956 
Q 1366 3272 1645 3428 
Q 1925 3584 2291 3584 
Q 2894 3584 3203 3211 
Q 3513 2838 3513 2113 
z
" transform="scale(0.015625)"/>
       <path id="DejaVuSans-75" d="M 544 1381 
L 544 3500 
L 1119 3500 
L 1119 1403 
Q 1119 906 1312 657 
Q 1506 409 1894 409 
Q 2359 409 2629 706 
Q 2900 1003 2900 1516 
L 2900 3500 
L 3475 3500 
L 3475 0 
L 2900 0 
L 2900 538 
Q 2691 219 2414 64 
Q 2138 -91 1772 -91 
Q 1169 -91 856 284 
Q 544 659 544 1381 
z
M 1991 3584 
L 1991 3584 
z
" transform="scale(0.015625)"/>
       <path id="DejaVuSans-6d" d="M 3328 2828 
Q 3544 3216 3844 3400 
Q 4144 3584 4550 3584 
Q 5097 3584 5394 3201 
Q 5691 2819 5691 2113 
L 5691 0 
L 5113 0 
L 5113 2094 
Q 5113 2597 4934 2840 
Q 4756 3084 4391 3084 
Q 3944 3084 3684 2787 
Q 3425 2491 3425 1978 
L 3425 0 
L 2847 0 
L 2847 2094 
Q 2847 2600 2669 2842 
Q 2491 3084 2119 3084 
Q 1678 3084 1418 2786 
Q 1159 2488 1159 1978 
L 1159 0 
L 581 0 
L 581 3500 
L 1159 3500 
L 1159 2956 
Q 1356 3278 1631 3431 
Q 1906 3584 2284 3584 
Q 2666 3584 2933 3390 
Q 3200 3197 3328 2828 
z
" transform="scale(0.015625)"/>
       <path id="DejaVuSans-62" d="M 3116 1747 
Q 3116 2381 2855 2742 
Q 2594 3103 2138 3103 
Q 1681 3103 1420 2742 
Q 1159 2381 1159 1747 
Q 1159 1113 1420 752 
Q 1681 391 2138 391 
Q 2594 391 2855 752 
Q 3116 1113 3116 1747 
z
M 1159 2969 
Q 1341 3281 1617 3432 
Q 1894 3584 2278 3584 
Q 2916 3584 3314 3078 
Q 3713 2572 3713 1747 
Q 3713 922 3314 415 
Q 2916 -91 2278 -91 
Q 1894 -91 1617 61 
Q 1341 213 1159 525 
L 1159 0 
L 581 0 
L 581 4863 
L 1159 4863 
L 1159 2969 
z
" transform="scale(0.015625)"/>
       <path id="DejaVuSans-65" d="M 3597 1894 
L 3597 1613 
L 953 1613 
Q 991 1019 1311 708 
Q 1631 397 2203 397 
Q 2534 397 2845 478 
Q 3156 559 3463 722 
L 3463 178 
Q 3153 47 2828 -22 
Q 2503 -91 2169 -91 
Q 1331 -91 842 396 
Q 353 884 353 1716 
Q 353 2575 817 3079 
Q 1281 3584 2069 3584 
Q 2775 3584 3186 3129 
Q 3597 2675 3597 1894 
z
M 3022 2063 
Q 3016 2534 2758 2815 
Q 2500 3097 2075 3097 
Q 1594 3097 1305 2825 
Q 1016 2553 972 2059 
L 3022 2063 
z
" transform="scale(0.015625)"/>
       <path id="DejaVuSans-72" d="M 2631 2963 
Q 2534 3019 2420 3045 
Q 2306 3072 2169 3072 
Q 1681 3072 1420 2755 
Q 1159 2438 1159 1844 
L 1159 0 
L 581 0 
L 581 3500 
L 1159 3500 
L 1159 2956 
Q 1341 3275 1631 3429 
Q 1922 3584 2338 3584 
Q 2397 3584 2469 3576 
Q 2541 3569 2628 3553 
L 2631 2963 
z
" transform="scale(0.015625)"/>
       <path id="DejaVuSans-66" d="M 2375 4863 
L 2375 4384 
L 1825 4384 
Q 1516 4384 1395 4259 
Q 1275 4134 1275 3809 
L 1275 3500 
L 2222 3500 
L 2222 3053 
L 1275 3053 
L 1275 0 
L 697 0 
L 697 3053 
L 147 3053 
L 147 3500 
L 697 3500 
L 697 3744 
Q 697 4328 969 4595 
Q 1241 4863 1831 4863 
L 2375 4863 
z
" transform="scale(0.015625)"/>
       <path id="DejaVuSans-76" d="M 191 3500 
L 800 3500 
L 1894 563 
L 2988 3500 
L 3597 3500 
L 2284 0 
L 1503 0 
L 191 3500 
z
" transform="scale(0.015625)"/>
       <path id="DejaVuSans-69" d="M 603 3500 
L 1178 3500 
L 1178 0 
L 603 0 
L 603 3500 
z
M 603 4863 
L 1178 4863 
L 1178 4134 
L 603 4134 
L 603 4863 
z
" transform="scale(0.015625)"/>
       <path id="DejaVuSans-73" d="M 2834 3397 
L 2834 2853 
Q 2591 2978 2328 3040 
Q 2066 3103 1784 3103 
Q 1356 3103 1142 2972 
Q 928 2841 928 2578 
Q 928 2378 1081 2264 
Q 1234 2150 1697 2047 
L 1894 2003 
Q 2506 1872 2764 1633 
Q 3022 1394 3022 966 
Q 3022 478 2636 193 
Q 2250 -91 1575 -91 
Q 1294 -91 989 -36 
Q 684 19 347 128 
L 347 722 
Q 666 556 975 473 
Q 1284 391 1588 391 
Q 1994 391 2212 530 
Q 2431 669 2431 922 
Q 2431 1156 2273 1281 
Q 2116 1406 1581 1522 
L 1381 1569 
Q 847 1681 609 1914 
Q 372 2147 372 2553 
Q 372 3047 722 3315 
Q 1072 3584 1716 3584 
Q 2034 3584 2315 3537 
Q 2597 3491 2834 3397 
z
" transform="scale(0.015625)"/>
      </defs>
      <use xlink:href="#DejaVuSans-54"/>
      <use xlink:href="#DejaVuSans-6f" x="44.083984"/>
      <use xlink:href="#DejaVuSans-74" x="105.265625"/>
      <use xlink:href="#DejaVuSans-61" x="144.474609"/>
      <use xlink:href="#DejaVuSans-6c" x="205.753906"/>
      <use xlink:href="#DejaVuSans-20" x="233.537109"/>
      <use xlink:href="#DejaVuSans-6e" x="265.324219"/>
      <use xlink:href="#DejaVuSans-75" x="328.703125"/>
      <use xlink:href="#DejaVuSans-6d" x="392.082031"/>
      <use xlink:href="#DejaVuSans-62" x="489.494141"/>
      <use xlink:href="#DejaVuSans-65" x="552.970703"/>
      <use xlink:href="#DejaVuSans-72" x="614.494141"/>
      <use xlink:href="#DejaVuSans-20" x="655.607422"/>
      <use xlink:href="#DejaVuSans-6f" x="687.394531"/>
      <use xlink:href="#DejaVuSans-66" x="748.576172"/>
      <use xlink:href="#DejaVuSans-20" x="783.78125"/>
      <use xlink:href="#DejaVuSans-76" x="815.568359"/>
      <use xlink:href="#DejaVuSans-61" x="874.748047"/>
      <use xlink:href="#DejaVuSans-72" x="936.027344"/>
      <use xlink:href="#DejaVuSans-69" x="977.140625"/>
      <use xlink:href="#DejaVuSans-61" x="1004.923828"/>
      <use xlink:href="#DejaVuSans-6e" x="1066.203125"/>
      <use xlink:href="#DejaVuSans-74" x="1129.582031"/>
      <use xlink:href="#DejaVuSans-73" x="1168.791016"/>
     </g>
    </g>
   </g>
   <g id="matplotlib.axis_2">
    <g id="ytick_1">
     <g id="line2d_7">
      <defs>
       <path id="m25608b6120" d="M 0 0 
L -3.5 0 
" style="stroke: #000000; stroke-width: 0.8"/>
      </defs>
      <g>
       <use xlink:href="#m25608b6120" x="43.78125" y="242.279219" style="stroke: #000000; stroke-width: 0.8"/>
      </g>
     </g>
     <g id="text_8">
      <!-- 0.0 -->
      <g transform="translate(20.878125 246.078438) scale(0.1 -0.1)">
       <defs>
        <path id="DejaVuSans-2e" d="M 684 794 
L 1344 794 
L 1344 0 
L 684 0 
L 684 794 
z
" transform="scale(0.015625)"/>
       </defs>
       <use xlink:href="#DejaVuSans-30"/>
       <use xlink:href="#DejaVuSans-2e" x="63.623047"/>
       <use xlink:href="#DejaVuSans-30" x="95.410156"/>
      </g>
     </g>
    </g>
    <g id="ytick_2">
     <g id="line2d_8">
      <g>
       <use xlink:href="#m25608b6120" x="43.78125" y="196.023219" style="stroke: #000000; stroke-width: 0.8"/>
      </g>
     </g>
     <g id="text_9">
      <!-- 0.2 -->
      <g transform="translate(20.878125 199.822438) scale(0.1 -0.1)">
       <use xlink:href="#DejaVuSans-30"/>
       <use xlink:href="#DejaVuSans-2e" x="63.623047"/>
       <use xlink:href="#DejaVuSans-32" x="95.410156"/>
      </g>
     </g>
    </g>
    <g id="ytick_3">
     <g id="line2d_9">
      <g>
       <use xlink:href="#m25608b6120" x="43.78125" y="149.767219" style="stroke: #000000; stroke-width: 0.8"/>
      </g>
     </g>
     <g id="text_10">
      <!-- 0.4 -->
      <g transform="translate(20.878125 153.566438) scale(0.1 -0.1)">
       <use xlink:href="#DejaVuSans-30"/>
       <use xlink:href="#DejaVuSans-2e" x="63.623047"/>
       <use xlink:href="#DejaVuSans-34" x="95.410156"/>
      </g>
     </g>
    </g>
    <g id="ytick_4">
     <g id="line2d_10">
      <g>
       <use xlink:href="#m25608b6120" x="43.78125" y="103.511219" style="stroke: #000000; stroke-width: 0.8"/>
      </g>
     </g>
     <g id="text_11">
      <!-- 0.6 -->
      <g transform="translate(20.878125 107.310437) scale(0.1 -0.1)">
       <use xlink:href="#DejaVuSans-30"/>
       <use xlink:href="#DejaVuSans-2e" x="63.623047"/>
       <use xlink:href="#DejaVuSans-36" x="95.410156"/>
      </g>
     </g>
    </g>
    <g id="ytick_5">
     <g id="line2d_11">
      <g>
       <use xlink:href="#m25608b6120" x="43.78125" y="57.255219" style="stroke: #000000; stroke-width: 0.8"/>
      </g>
     </g>
     <g id="text_12">
      <!-- 0.8 -->
      <g transform="translate(20.878125 61.054438) scale(0.1 -0.1)">
       <use xlink:href="#DejaVuSans-30"/>
       <use xlink:href="#DejaVuSans-2e" x="63.623047"/>
       <use xlink:href="#DejaVuSans-38" x="95.410156"/>
      </g>
     </g>
    </g>
    <g id="ytick_6">
     <g id="line2d_12">
      <g>
       <use xlink:href="#m25608b6120" x="43.78125" y="10.999219" style="stroke: #000000; stroke-width: 0.8"/>
      </g>
     </g>
     <g id="text_13">
      <!-- 1.0 -->
      <g transform="translate(20.878125 14.798438) scale(0.1 -0.1)">
       <use xlink:href="#DejaVuSans-31"/>
       <use xlink:href="#DejaVuSans-2e" x="63.623047"/>
       <use xlink:href="#DejaVuSans-30" x="95.410156"/>
      </g>
     </g>
    </g>
    <g id="text_14">
     <!-- Average max fitness achieved -->
     <g transform="translate(14.798438 202.054844) rotate(-90) scale(0.1 -0.1)">
      <defs>
       <path id="DejaVuSans-41" d="M 2188 4044 
L 1331 1722 
L 3047 1722 
L 2188 4044 
z
M 1831 4666 
L 2547 4666 
L 4325 0 
L 3669 0 
L 3244 1197 
L 1141 1197 
L 716 0 
L 50 0 
L 1831 4666 
z
" transform="scale(0.015625)"/>
       <path id="DejaVuSans-67" d="M 2906 1791 
Q 2906 2416 2648 2759 
Q 2391 3103 1925 3103 
Q 1463 3103 1205 2759 
Q 947 2416 947 1791 
Q 947 1169 1205 825 
Q 1463 481 1925 481 
Q 2391 481 2648 825 
Q 2906 1169 2906 1791 
z
M 3481 434 
Q 3481 -459 3084 -895 
Q 2688 -1331 1869 -1331 
Q 1566 -1331 1297 -1286 
Q 1028 -1241 775 -1147 
L 775 -588 
Q 1028 -725 1275 -790 
Q 1522 -856 1778 -856 
Q 2344 -856 2625 -561 
Q 2906 -266 2906 331 
L 2906 616 
Q 2728 306 2450 153 
Q 2172 0 1784 0 
Q 1141 0 747 490 
Q 353 981 353 1791 
Q 353 2603 747 3093 
Q 1141 3584 1784 3584 
Q 2172 3584 2450 3431 
Q 2728 3278 2906 2969 
L 2906 3500 
L 3481 3500 
L 3481 434 
z
" transform="scale(0.015625)"/>
       <path id="DejaVuSans-78" d="M 3513 3500 
L 2247 1797 
L 3578 0 
L 2900 0 
L 1881 1375 
L 863 0 
L 184 0 
L 1544 1831 
L 300 3500 
L 978 3500 
L 1906 2253 
L 2834 3500 
L 3513 3500 
z
" transform="scale(0.015625)"/>
       <path id="DejaVuSans-63" d="M 3122 3366 
L 3122 2828 
Q 2878 2963 2633 3030 
Q 2388 3097 2138 3097 
Q 1578 3097 1268 2742 
Q 959 2388 959 1747 
Q 959 1106 1268 751 
Q 1578 397 2138 397 
Q 2388 397 2633 464 
Q 2878 531 3122 666 
L 3122 134 
Q 2881 22 2623 -34 
Q 2366 -91 2075 -91 
Q 1284 -91 818 406 
Q 353 903 353 1747 
Q 353 2603 823 3093 
Q 1294 3584 2113 3584 
Q 2378 3584 2631 3529 
Q 2884 3475 3122 3366 
z
" transform="scale(0.015625)"/>
       <path id="DejaVuSans-68" d="M 3513 2113 
L 3513 0 
L 2938 0 
L 2938 2094 
Q 2938 2591 2744 2837 
Q 2550 3084 2163 3084 
Q 1697 3084 1428 2787 
Q 1159 2491 1159 1978 
L 1159 0 
L 581 0 
L 581 4863 
L 1159 4863 
L 1159 2956 
Q 1366 3272 1645 3428 
Q 1925 3584 2291 3584 
Q 2894 3584 3203 3211 
Q 3513 2838 3513 2113 
z
" transform="scale(0.015625)"/>
       <path id="DejaVuSans-64" d="M 2906 2969 
L 2906 4863 
L 3481 4863 
L 3481 0 
L 2906 0 
L 2906 525 
Q 2725 213 2448 61 
Q 2172 -91 1784 -91 
Q 1150 -91 751 415 
Q 353 922 353 1747 
Q 353 2572 751 3078 
Q 1150 3584 1784 3584 
Q 2172 3584 2448 3432 
Q 2725 3281 2906 2969 
z
M 947 1747 
Q 947 1113 1208 752 
Q 1469 391 1925 391 
Q 2381 391 2643 752 
Q 2906 1113 2906 1747 
Q 2906 2381 2643 2742 
Q 2381 3103 1925 3103 
Q 1469 3103 1208 2742 
Q 947 2381 947 1747 
z
" transform="scale(0.015625)"/>
      </defs>
      <use xlink:href="#DejaVuSans-41"/>
      <use xlink:href="#DejaVuSans-76" x="62.533203"/>
      <use xlink:href="#DejaVuSans-65" x="121.712891"/>
      <use xlink:href="#DejaVuSans-72" x="183.236328"/>
      <use xlink:href="#DejaVuSans-61" x="224.349609"/>
      <use xlink:href="#DejaVuSans-67" x="285.628906"/>
      <use xlink:href="#DejaVuSans-65" x="349.105469"/>
      <use xlink:href="#DejaVuSans-20" x="410.628906"/>
      <use xlink:href="#DejaVuSans-6d" x="442.416016"/>
      <use xlink:href="#DejaVuSans-61" x="539.828125"/>
      <use xlink:href="#DejaVuSans-78" x="601.107422"/>
      <use xlink:href="#DejaVuSans-20" x="660.287109"/>
      <use xlink:href="#DejaVuSans-66" x="692.074219"/>
      <use xlink:href="#DejaVuSans-69" x="727.279297"/>
      <use xlink:href="#DejaVuSans-74" x="755.0625"/>
      <use xlink:href="#DejaVuSans-6e" x="794.271484"/>
      <use xlink:href="#DejaVuSans-65" x="857.650391"/>
      <use xlink:href="#DejaVuSans-73" x="919.173828"/>
      <use xlink:href="#DejaVuSans-73" x="971.273438"/>
      <use xlink:href="#DejaVuSans-20" x="1023.373047"/>
      <use xlink:href="#DejaVuSans-61" x="1055.160156"/>
      <use xlink:href="#DejaVuSans-63" x="1116.439453"/>
      <use xlink:href="#DejaVuSans-68" x="1171.419922"/>
      <use xlink:href="#DejaVuSans-69" x="1234.798828"/>
      <use xlink:href="#DejaVuSans-65" x="1262.582031"/>
      <use xlink:href="#DejaVuSans-76" x="1324.105469"/>
      <use xlink:href="#DejaVuSans-65" x="1383.285156"/>
      <use xlink:href="#DejaVuSans-64" x="1444.808594"/>
     </g>
    </g>
   </g>
   <g id="line2d_13">
    <path d="M 43.78125 204.856637 
L 59.586038 195.970334 
L 84.524143 181.788703 
L 119.672428 163.614233 
L 144.610533 150.988977 
L 163.95403 137.462332 
L 179.758818 123.128719 
L 193.121575 114.6938 
L 232.30251 96.340397 
L 288.35625 75.994425 
" clip-path="url(#pf35e686885)" style="fill: none; stroke: #666666; stroke-width: 2; stroke-linecap: square"/>
    <defs>
     <path id="m4ee611726c" d="M 0 3 
C 0.795609 3 1.55874 2.683901 2.12132 2.12132 
C 2.683901 1.55874 3 0.795609 3 0 
C 3 -0.795609 2.683901 -1.55874 2.12132 -2.12132 
C 1.55874 -2.683901 0.795609 -3 0 -3 
C -0.795609 -3 -1.55874 -2.683901 -2.12132 -2.12132 
C -2.683901 -1.55874 -3 -0.795609 -3 0 
C -3 0.795609 -2.683901 1.55874 -2.12132 2.12132 
C -1.55874 2.683901 -0.795609 3 0 3 
z
" style="stroke: #666666"/>
    </defs>
    <g clip-path="url(#pf35e686885)">
     <use xlink:href="#m4ee611726c" x="43.78125" y="204.856637" style="fill: #666666; stroke: #666666"/>
     <use xlink:href="#m4ee611726c" x="59.586038" y="195.970334" style="fill: #666666; stroke: #666666"/>
     <use xlink:href="#m4ee611726c" x="84.524143" y="181.788703" style="fill: #666666; stroke: #666666"/>
     <use xlink:href="#m4ee611726c" x="119.672428" y="163.614233" style="fill: #666666; stroke: #666666"/>
     <use xlink:href="#m4ee611726c" x="144.610533" y="150.988977" style="fill: #666666; stroke: #666666"/>
     <use xlink:href="#m4ee611726c" x="163.95403" y="137.462332" style="fill: #666666; stroke: #666666"/>
     <use xlink:href="#m4ee611726c" x="179.758818" y="123.128719" style="fill: #666666; stroke: #666666"/>
     <use xlink:href="#m4ee611726c" x="193.121575" y="114.6938" style="fill: #666666; stroke: #666666"/>
     <use xlink:href="#m4ee611726c" x="232.30251" y="96.340397" style="fill: #666666; stroke: #666666"/>
     <use xlink:href="#m4ee611726c" x="288.35625" y="75.994425" style="fill: #666666; stroke: #666666"/>
    </g>
   </g>
   <g id="line2d_14">
    <path d="M 43.78125 201.907531 
L 59.586038 178.474769 
L 84.524143 142.540572 
L 119.672428 104.639221 
L 144.610533 91.74197 
L 163.95403 71.750963 
L 179.758818 64.666283 
L 193.121575 47.800855 
L 232.30251 15.783342 
L 288.35625 10.999219 
" clip-path="url(#pf35e686885)" style="fill: none; stroke: #9bbb59; stroke-width: 2; stroke-linecap: square"/>
    <defs>
     <path id="mcb2b0e5f1b" d="M 0 3 
C 0.795609 3 1.55874 2.683901 2.12132 2.12132 
C 2.683901 1.55874 3 0.795609 3 0 
C 3 -0.795609 2.683901 -1.55874 2.12132 -2.12132 
C 1.55874 -2.683901 0.795609 -3 0 -3 
C -0.795609 -3 -1.55874 -2.683901 -2.12132 -2.12132 
C -2.683901 -1.55874 -3 -0.795609 -3 0 
C -3 0.795609 -2.683901 1.55874 -2.12132 2.12132 
C -1.55874 2.683901 -0.795609 3 0 3 
z
" style="stroke: #9bbb59"/>
    </defs>
    <g clip-path="url(#pf35e686885)">
     <use xlink:href="#mcb2b0e5f1b" x="43.78125" y="201.907531" style="fill: #9bbb59; stroke: #9bbb59"/>
     <use xlink:href="#mcb2b0e5f1b" x="59.586038" y="178.474769" style="fill: #9bbb59; stroke: #9bbb59"/>
     <use xlink:href="#mcb2b0e5f1b" x="84.524143" y="142.540572" style="fill: #9bbb59; stroke: #9bbb59"/>
     <use xlink:href="#mcb2b0e5f1b" x="119.672428" y="104.639221" style="fill: #9bbb59; stroke: #9bbb59"/>
     <use xlink:href="#mcb2b0e5f1b" x="144.610533" y="91.74197" style="fill: #9bbb59; stroke: #9bbb59"/>
     <use xlink:href="#mcb2b0e5f1b" x="163.95403" y="71.750963" style="fill: #9bbb59; stroke: #9bbb59"/>
     <use xlink:href="#mcb2b0e5f1b" x="179.758818" y="64.666283" style="fill: #9bbb59; stroke: #9bbb59"/>
     <use xlink:href="#mcb2b0e5f1b" x="193.121575" y="47.800855" style="fill: #9bbb59; stroke: #9bbb59"/>
     <use xlink:href="#mcb2b0e5f1b" x="232.30251" y="15.783342" style="fill: #9bbb59; stroke: #9bbb59"/>
     <use xlink:href="#mcb2b0e5f1b" x="288.35625" y="10.999219" style="fill: #9bbb59; stroke: #9bbb59"/>
    </g>
   </g>
   <g id="line2d_15">
    <path d="M 43.78125 190.042913 
L 59.586038 157.326399 
L 84.524143 119.358823 
L 119.672428 90.180894 
L 144.610533 75.718456 
L 163.95403 67.115689 
L 179.758818 60.660227 
L 193.121575 48.177717 
L 232.30251 15.976122 
L 288.35625 10.999219 
" clip-path="url(#pf35e686885)" style="fill: none; stroke-dasharray: 7.4,3.2; stroke-dashoffset: 0; stroke: #8b946e; stroke-width: 2"/>
    <defs>
     <path id="m104797bb43" d="M 0 3 
C 0.795609 3 1.55874 2.683901 2.12132 2.12132 
C 2.683901 1.55874 3 0.795609 3 0 
C 3 -0.795609 2.683901 -1.55874 2.12132 -2.12132 
C 1.55874 -2.683901 0.795609 -3 0 -3 
C -0.795609 -3 -1.55874 -2.683901 -2.12132 -2.12132 
C -2.683901 -1.55874 -3 -0.795609 -3 0 
C -3 0.795609 -2.683901 1.55874 -2.12132 2.12132 
C -1.55874 2.683901 -0.795609 3 0 3 
z
" style="stroke: #8b946e"/>
    </defs>
    <g clip-path="url(#pf35e686885)">
     <use xlink:href="#m104797bb43" x="43.78125" y="190.042913" style="fill: #8b946e; stroke: #8b946e"/>
     <use xlink:href="#m104797bb43" x="59.586038" y="157.326399" style="fill: #8b946e; stroke: #8b946e"/>
     <use xlink:href="#m104797bb43" x="84.524143" y="119.358823" style="fill: #8b946e; stroke: #8b946e"/>
     <use xlink:href="#m104797bb43" x="119.672428" y="90.180894" style="fill: #8b946e; stroke: #8b946e"/>
     <use xlink:href="#m104797bb43" x="144.610533" y="75.718456" style="fill: #8b946e; stroke: #8b946e"/>
     <use xlink:href="#m104797bb43" x="163.95403" y="67.115689" style="fill: #8b946e; stroke: #8b946e"/>
     <use xlink:href="#m104797bb43" x="179.758818" y="60.660227" style="fill: #8b946e; stroke: #8b946e"/>
     <use xlink:href="#m104797bb43" x="193.121575" y="48.177717" style="fill: #8b946e; stroke: #8b946e"/>
     <use xlink:href="#m104797bb43" x="232.30251" y="15.976122" style="fill: #8b946e; stroke: #8b946e"/>
     <use xlink:href="#m104797bb43" x="288.35625" y="10.999219" style="fill: #8b946e; stroke: #8b946e"/>
    </g>
   </g>
   <g id="line2d_16">
    <path d="M 43.78125 203.112061 
L 59.586038 179.604179 
L 84.524143 143.854487 
L 119.672428 100.081014 
L 144.610533 91.249988 
L 163.95403 77.423613 
L 179.758818 72.545306 
L 193.121575 55.663491 
L 232.30251 15.980347 
L 288.35625 10.999219 
" clip-path="url(#pf35e686885)" style="fill: none; stroke: #8064a2; stroke-width: 2; stroke-linecap: square"/>
    <defs>
     <path id="m6994708759" d="M 0 3 
C 0.795609 3 1.55874 2.683901 2.12132 2.12132 
C 2.683901 1.55874 3 0.795609 3 0 
C 3 -0.795609 2.683901 -1.55874 2.12132 -2.12132 
C 1.55874 -2.683901 0.795609 -3 0 -3 
C -0.795609 -3 -1.55874 -2.683901 -2.12132 -2.12132 
C -2.683901 -1.55874 -3 -0.795609 -3 0 
C -3 0.795609 -2.683901 1.55874 -2.12132 2.12132 
C -1.55874 2.683901 -0.795609 3 0 3 
z
" style="stroke: #8064a2"/>
    </defs>
    <g clip-path="url(#pf35e686885)">
     <use xlink:href="#m6994708759" x="43.78125" y="203.112061" style="fill: #8064a2; stroke: #8064a2"/>
     <use xlink:href="#m6994708759" x="59.586038" y="179.604179" style="fill: #8064a2; stroke: #8064a2"/>
     <use xlink:href="#m6994708759" x="84.524143" y="143.854487" style="fill: #8064a2; stroke: #8064a2"/>
     <use xlink:href="#m6994708759" x="119.672428" y="100.081014" style="fill: #8064a2; stroke: #8064a2"/>
     <use xlink:href="#m6994708759" x="144.610533" y="91.249988" style="fill: #8064a2; stroke: #8064a2"/>
     <use xlink:href="#m6994708759" x="163.95403" y="77.423613" style="fill: #8064a2; stroke: #8064a2"/>
     <use xlink:href="#m6994708759" x="179.758818" y="72.545306" style="fill: #8064a2; stroke: #8064a2"/>
     <use xlink:href="#m6994708759" x="193.121575" y="55.663491" style="fill: #8064a2; stroke: #8064a2"/>
     <use xlink:href="#m6994708759" x="232.30251" y="15.980347" style="fill: #8064a2; stroke: #8064a2"/>
     <use xlink:href="#m6994708759" x="288.35625" y="10.999219" style="fill: #8064a2; stroke: #8064a2"/>
    </g>
   </g>
   <g id="line2d_17">
    <path d="M 43.78125 192.892433 
L 59.586038 164.141836 
L 84.524143 136.836969 
L 119.672428 89.345169 
L 144.610533 77.002919 
L 163.95403 61.83194 
L 179.758818 53.604821 
L 193.121575 42.43707 
L 232.30251 14.945164 
L 288.35625 10.999219 
" clip-path="url(#pf35e686885)" style="fill: none; stroke-dasharray: 7.4,3.2; stroke-dashoffset: 0; stroke: #897a8f; stroke-width: 2"/>
    <defs>
     <path id="ma3807d3e17" d="M 0 3 
C 0.795609 3 1.55874 2.683901 2.12132 2.12132 
C 2.683901 1.55874 3 0.795609 3 0 
C 3 -0.795609 2.683901 -1.55874 2.12132 -2.12132 
C 1.55874 -2.683901 0.795609 -3 0 -3 
C -0.795609 -3 -1.55874 -2.683901 -2.12132 -2.12132 
C -2.683901 -1.55874 -3 -0.795609 -3 0 
C -3 0.795609 -2.683901 1.55874 -2.12132 2.12132 
C -1.55874 2.683901 -0.795609 3 0 3 
z
" style="stroke: #897a8f"/>
    </defs>
    <g clip-path="url(#pf35e686885)">
     <use xlink:href="#ma3807d3e17" x="43.78125" y="192.892433" style="fill: #897a8f; stroke: #897a8f"/>
     <use xlink:href="#ma3807d3e17" x="59.586038" y="164.141836" style="fill: #897a8f; stroke: #897a8f"/>
     <use xlink:href="#ma3807d3e17" x="84.524143" y="136.836969" style="fill: #897a8f; stroke: #897a8f"/>
     <use xlink:href="#ma3807d3e17" x="119.672428" y="89.345169" style="fill: #897a8f; stroke: #897a8f"/>
     <use xlink:href="#ma3807d3e17" x="144.610533" y="77.002919" style="fill: #897a8f; stroke: #897a8f"/>
     <use xlink:href="#ma3807d3e17" x="163.95403" y="61.83194" style="fill: #897a8f; stroke: #897a8f"/>
     <use xlink:href="#ma3807d3e17" x="179.758818" y="53.604821" style="fill: #897a8f; stroke: #897a8f"/>
     <use xlink:href="#ma3807d3e17" x="193.121575" y="42.43707" style="fill: #897a8f; stroke: #897a8f"/>
     <use xlink:href="#ma3807d3e17" x="232.30251" y="14.945164" style="fill: #897a8f; stroke: #897a8f"/>
     <use xlink:href="#ma3807d3e17" x="288.35625" y="10.999219" style="fill: #897a8f; stroke: #897a8f"/>
    </g>
   </g>
   <g id="line2d_18">
    <path d="M 43.78125 192.586917 
L 59.586038 172.289005 
L 84.524143 128.565749 
L 119.672428 91.240415 
L 144.610533 88.494371 
L 163.95403 69.250631 
L 179.758818 57.957556 
L 193.121575 46.240345 
L 232.30251 15.290053 
L 288.35625 10.999219 
" clip-path="url(#pf35e686885)" style="fill: none; stroke: #f9be00; stroke-width: 2; stroke-linecap: square"/>
    <defs>
     <path id="md5a1ac7940" d="M 0 3 
C 0.795609 3 1.55874 2.683901 2.12132 2.12132 
C 2.683901 1.55874 3 0.795609 3 0 
C 3 -0.795609 2.683901 -1.55874 2.12132 -2.12132 
C 1.55874 -2.683901 0.795609 -3 0 -3 
C -0.795609 -3 -1.55874 -2.683901 -2.12132 -2.12132 
C -2.683901 -1.55874 -3 -0.795609 -3 0 
C -3 0.795609 -2.683901 1.55874 -2.12132 2.12132 
C -1.55874 2.683901 -0.795609 3 0 3 
z
" style="stroke: #f9be00"/>
    </defs>
    <g clip-path="url(#pf35e686885)">
     <use xlink:href="#md5a1ac7940" x="43.78125" y="192.586917" style="fill: #f9be00; stroke: #f9be00"/>
     <use xlink:href="#md5a1ac7940" x="59.586038" y="172.289005" style="fill: #f9be00; stroke: #f9be00"/>
     <use xlink:href="#md5a1ac7940" x="84.524143" y="128.565749" style="fill: #f9be00; stroke: #f9be00"/>
     <use xlink:href="#md5a1ac7940" x="119.672428" y="91.240415" style="fill: #f9be00; stroke: #f9be00"/>
     <use xlink:href="#md5a1ac7940" x="144.610533" y="88.494371" style="fill: #f9be00; stroke: #f9be00"/>
     <use xlink:href="#md5a1ac7940" x="163.95403" y="69.250631" style="fill: #f9be00; stroke: #f9be00"/>
     <use xlink:href="#md5a1ac7940" x="179.758818" y="57.957556" style="fill: #f9be00; stroke: #f9be00"/>
     <use xlink:href="#md5a1ac7940" x="193.121575" y="46.240345" style="fill: #f9be00; stroke: #f9be00"/>
     <use xlink:href="#md5a1ac7940" x="232.30251" y="15.290053" style="fill: #f9be00; stroke: #f9be00"/>
     <use xlink:href="#md5a1ac7940" x="288.35625" y="10.999219" style="fill: #f9be00; stroke: #f9be00"/>
    </g>
   </g>
   <g id="line2d_19">
    <path d="M 43.78125 192.892433 
L 59.586038 164.141836 
L 84.524143 136.836969 
L 119.672428 89.345169 
L 144.610533 77.002919 
L 163.95403 61.83194 
L 179.758818 53.604821 
L 193.121575 42.43707 
L 232.30251 14.945164 
L 288.35625 10.999219 
" clip-path="url(#pf35e686885)" style="fill: none; stroke-dasharray: 7.4,3.2; stroke-dashoffset: 0; stroke: #d6b969; stroke-width: 2"/>
    <defs>
     <path id="m0b5359c48d" d="M 0 3 
C 0.795609 3 1.55874 2.683901 2.12132 2.12132 
C 2.683901 1.55874 3 0.795609 3 0 
C 3 -0.795609 2.683901 -1.55874 2.12132 -2.12132 
C 1.55874 -2.683901 0.795609 -3 0 -3 
C -0.795609 -3 -1.55874 -2.683901 -2.12132 -2.12132 
C -2.683901 -1.55874 -3 -0.795609 -3 0 
C -3 0.795609 -2.683901 1.55874 -2.12132 2.12132 
C -1.55874 2.683901 -0.795609 3 0 3 
z
" style="stroke: #d6b969"/>
    </defs>
    <g clip-path="url(#pf35e686885)">
     <use xlink:href="#m0b5359c48d" x="43.78125" y="192.892433" style="fill: #d6b969; stroke: #d6b969"/>
     <use xlink:href="#m0b5359c48d" x="59.586038" y="164.141836" style="fill: #d6b969; stroke: #d6b969"/>
     <use xlink:href="#m0b5359c48d" x="84.524143" y="136.836969" style="fill: #d6b969; stroke: #d6b969"/>
     <use xlink:href="#m0b5359c48d" x="119.672428" y="89.345169" style="fill: #d6b969; stroke: #d6b969"/>
     <use xlink:href="#m0b5359c48d" x="144.610533" y="77.002919" style="fill: #d6b969; stroke: #d6b969"/>
     <use xlink:href="#m0b5359c48d" x="163.95403" y="61.83194" style="fill: #d6b969; stroke: #d6b969"/>
     <use xlink:href="#m0b5359c48d" x="179.758818" y="53.604821" style="fill: #d6b969; stroke: #d6b969"/>
     <use xlink:href="#m0b5359c48d" x="193.121575" y="42.43707" style="fill: #d6b969; stroke: #d6b969"/>
     <use xlink:href="#m0b5359c48d" x="232.30251" y="14.945164" style="fill: #d6b969; stroke: #d6b969"/>
     <use xlink:href="#m0b5359c48d" x="288.35625" y="10.999219" style="fill: #d6b969; stroke: #d6b969"/>
    </g>
   </g>
   <g id="line2d_20">
    <path d="M 43.78125 174.60617 
L 59.586038 157.744294 
L 84.524143 118.375425 
L 119.672428 92.065496 
L 144.610533 80.638115 
L 163.95403 69.57552 
L 179.758818 57.326118 
L 193.121575 44.577581 
L 232.30251 14.178973 
L 288.35625 10.999219 
" clip-path="url(#pf35e686885)" style="fill: none; stroke: #f79646; stroke-width: 2; stroke-linecap: square"/>
    <defs>
     <path id="m85509c8849" d="M 0 3 
C 0.795609 3 1.55874 2.683901 2.12132 2.12132 
C 2.683901 1.55874 3 0.795609 3 0 
C 3 -0.795609 2.683901 -1.55874 2.12132 -2.12132 
C 1.55874 -2.683901 0.795609 -3 0 -3 
C -0.795609 -3 -1.55874 -2.683901 -2.12132 -2.12132 
C -2.683901 -1.55874 -3 -0.795609 -3 0 
C -3 0.795609 -2.683901 1.55874 -2.12132 2.12132 
C -1.55874 2.683901 -0.795609 3 0 3 
z
" style="stroke: #f79646"/>
    </defs>
    <g clip-path="url(#pf35e686885)">
     <use xlink:href="#m85509c8849" x="43.78125" y="174.60617" style="fill: #f79646; stroke: #f79646"/>
     <use xlink:href="#m85509c8849" x="59.586038" y="157.744294" style="fill: #f79646; stroke: #f79646"/>
     <use xlink:href="#m85509c8849" x="84.524143" y="118.375425" style="fill: #f79646; stroke: #f79646"/>
     <use xlink:href="#m85509c8849" x="119.672428" y="92.065496" style="fill: #f79646; stroke: #f79646"/>
     <use xlink:href="#m85509c8849" x="144.610533" y="80.638115" style="fill: #f79646; stroke: #f79646"/>
     <use xlink:href="#m85509c8849" x="163.95403" y="69.57552" style="fill: #f79646; stroke: #f79646"/>
     <use xlink:href="#m85509c8849" x="179.758818" y="57.326118" style="fill: #f79646; stroke: #f79646"/>
     <use xlink:href="#m85509c8849" x="193.121575" y="44.577581" style="fill: #f79646; stroke: #f79646"/>
     <use xlink:href="#m85509c8849" x="232.30251" y="14.178973" style="fill: #f79646; stroke: #f79646"/>
     <use xlink:href="#m85509c8849" x="288.35625" y="10.999219" style="fill: #f79646; stroke: #f79646"/>
    </g>
   </g>
   <g id="line2d_21">
    <path d="M 43.78125 202.19675 
L 59.586038 178.426944 
L 84.524143 140.29762 
L 119.672428 95.159222 
L 144.610533 83.192935 
L 163.95403 68.748228 
L 179.758818 58.367203 
L 193.121575 47.506897 
L 232.30251 15.424148 
L 288.35625 10.999219 
" clip-path="url(#pf35e686885)" style="fill: none; stroke-dasharray: 7.4,3.2; stroke-dashoffset: 0; stroke: #c58a6c; stroke-width: 2"/>
    <defs>
     <path id="m14bd8137b5" d="M 0 3 
C 0.795609 3 1.55874 2.683901 2.12132 2.12132 
C 2.683901 1.55874 3 0.795609 3 0 
C 3 -0.795609 2.683901 -1.55874 2.12132 -2.12132 
C 1.55874 -2.683901 0.795609 -3 0 -3 
C -0.795609 -3 -1.55874 -2.683901 -2.12132 -2.12132 
C -2.683901 -1.55874 -3 -0.795609 -3 0 
C -3 0.795609 -2.683901 1.55874 -2.12132 2.12132 
C -1.55874 2.683901 -0.795609 3 0 3 
z
" style="stroke: #c58a6c"/>
    </defs>
    <g clip-path="url(#pf35e686885)">
     <use xlink:href="#m14bd8137b5" x="43.78125" y="202.19675" style="fill: #c58a6c; stroke: #c58a6c"/>
     <use xlink:href="#m14bd8137b5" x="59.586038" y="178.426944" style="fill: #c58a6c; stroke: #c58a6c"/>
     <use xlink:href="#m14bd8137b5" x="84.524143" y="140.29762" style="fill: #c58a6c; stroke: #c58a6c"/>
     <use xlink:href="#m14bd8137b5" x="119.672428" y="95.159222" style="fill: #c58a6c; stroke: #c58a6c"/>
     <use xlink:href="#m14bd8137b5" x="144.610533" y="83.192935" style="fill: #c58a6c; stroke: #c58a6c"/>
     <use xlink:href="#m14bd8137b5" x="163.95403" y="68.748228" style="fill: #c58a6c; stroke: #c58a6c"/>
     <use xlink:href="#m14bd8137b5" x="179.758818" y="58.367203" style="fill: #c58a6c; stroke: #c58a6c"/>
     <use xlink:href="#m14bd8137b5" x="193.121575" y="47.506897" style="fill: #c58a6c; stroke: #c58a6c"/>
     <use xlink:href="#m14bd8137b5" x="232.30251" y="15.424148" style="fill: #c58a6c; stroke: #c58a6c"/>
     <use xlink:href="#m14bd8137b5" x="288.35625" y="10.999219" style="fill: #c58a6c; stroke: #c58a6c"/>
    </g>
   </g>
   <g id="line2d_22">
    <path d="M 163.95403 242.279219 
L 163.95403 10.999219 
" clip-path="url(#pf35e686885)" style="fill: none; stroke-dasharray: 0.5,0.825; stroke-dashoffset: 0; stroke: #808080; stroke-width: 0.5"/>
   </g>
   <g id="line2d_23">
    <path d="M 84.524143 242.279219 
L 84.524143 10.999219 
" clip-path="url(#pf35e686885)" style="fill: none; stroke-dasharray: 0.5,0.825; stroke-dashoffset: 0; stroke: #808080; stroke-width: 0.5"/>
   </g>
   <g id="patch_3">
    <path d="M 43.78125 242.279219 
L 43.78125 10.999219 
" style="fill: none; stroke: #000000; stroke-width: 0.8; stroke-linejoin: miter; stroke-linecap: square"/>
   </g>
   <g id="patch_4">
    <path d="M 288.35625 242.279219 
L 288.35625 10.999219 
" style="fill: none; stroke: #000000; stroke-width: 0.8; stroke-linejoin: miter; stroke-linecap: square"/>
   </g>
   <g id="patch_5">
    <path d="M 43.78125 242.279219 
L 288.35625 242.279219 
" style="fill: none; stroke: #000000; stroke-width: 0.8; stroke-linejoin: miter; stroke-linecap: square"/>
   </g>
   <g id="patch_6">
    <path d="M 43.78125 10.999219 
L 288.35625 10.999219 
" style="fill: none; stroke: #000000; stroke-width: 0.8; stroke-linejoin: miter; stroke-linecap: square"/>
   </g>
  </g>
  <g id="axes_2">
   <g id="patch_7">
    <path d="M 348.94625 242.279219 
L 593.52125 242.279219 
L 593.52125 10.999219 
L 348.94625 10.999219 
z
" style="fill: #ffffff"/>
   </g>
   <g id="PolyCollection_10">
    <defs>
     <path id="mc0dbd15997" d="M 348.94625 -84.047067 
L 348.94625 -4.942233 
L 364.751038 -1.372281 
L 389.689143 5.412634 
L 424.837428 10.546383 
L 449.775533 9.207395 
L 469.11903 6.401477 
L 484.923818 -0.688477 
L 498.286575 -1.34641 
L 537.46751 -20.257188 
L 593.52125 -33.849042 
L 593.52125 -265.605058 
L 593.52125 -265.605058 
L 537.46751 -249.130512 
L 498.286575 -214.84689 
L 484.923818 -213.192023 
L 469.11903 -190.215577 
L 449.775533 -174.519095 
L 424.837428 -152.730083 
L 389.689143 -112.904334 
L 364.751038 -92.242619 
L 348.94625 -84.047067 
z
" style="stroke: #666666; stroke-opacity: 0.01"/>
    </defs>
    <g clip-path="url(#p823fea0878)">
     <use xlink:href="#mc0dbd15997" x="0" y="279.835469" style="fill: #666666; fill-opacity: 0.01; stroke: #666666; stroke-opacity: 0.01"/>
    </g>
   </g>
   <g id="PolyCollection_11">
    <path d="M 348.94625 210.62682 
L 348.94625 266.993217 
L 364.751038 287.282034 
L 389.689143 289.042864 
L 424.837428 273.478313 
L 449.775533 268.648808 
L 469.11903 256.618823 
L 484.923818 252.506536 
L 498.286575 225.238069 
L 537.46751 86.347302 
L 593.52125 10.999219 
L 593.52125 10.999219 
L 593.52125 10.999219 
L 537.46751 -31.969665 
L 498.286575 -4.338832 
L 484.923818 21.587102 
L 469.11903 26.726014 
L 449.775533 44.76243 
L 424.837428 53.809724 
L 389.689143 105.316373 
L 364.751038 157.958804 
L 348.94625 210.62682 
z
" clip-path="url(#p823fea0878)" style="fill: #9bbb59; fill-opacity: 0.01; stroke: #9bbb59; stroke-opacity: 0.01"/>
   </g>
   <g id="PolyCollection_12">
    <path d="M 348.94625 183.806006 
L 348.94625 279.937231 
L 364.751038 290.180081 
L 389.689143 277.128845 
L 424.837428 256.618823 
L 449.775533 245.986427 
L 469.11903 231.691336 
L 484.923818 231.691336 
L 498.286575 201.009887 
L 537.46751 73.096016 
L 593.52125 10.999219 
L 593.52125 10.999219 
L 593.52125 10.999219 
L 537.46751 -27.969579 
L 498.286575 -19.42825 
L 484.923818 0.771902 
L 469.11903 0.771902 
L 449.775533 14.23041 
L 424.837428 26.726014 
L 389.689143 61.723192 
L 364.751038 118.055957 
L 348.94625 183.806006 
z
" clip-path="url(#p823fea0878)" style="fill: #8b946e; fill-opacity: 0.01; stroke: #8b946e; stroke-opacity: 0.01"/>
   </g>
   <g id="PolyCollection_13">
    <path d="M 348.94625 205.193166 
L 348.94625 270.114072 
L 364.751038 286.003235 
L 389.689143 288.469229 
L 424.837428 265.169903 
L 449.775533 272.706687 
L 469.11903 253.5523 
L 484.923818 257.617269 
L 498.286575 223.911773 
L 537.46751 89.415235 
L 593.52125 10.999219 
L 593.52125 10.999219 
L 593.52125 10.999219 
L 537.46751 -32.724798 
L 498.286575 -5.325335 
L 484.923818 28.040368 
L 469.11903 22.854137 
L 449.775533 52.26855 
L 424.837428 38.990135 
L 389.689143 101.264408 
L 364.751038 163.863202 
L 348.94625 205.193166 
z
" clip-path="url(#p823fea0878)" style="fill: #8064a2; fill-opacity: 0.01; stroke: #8064a2; stroke-opacity: 0.01"/>
   </g>
   <g id="PolyCollection_14">
    <path d="M 348.94625 183.806006 
L 348.94625 279.937231 
L 364.751038 289.650567 
L 389.689143 285.795674 
L 424.837428 254.586295 
L 449.775533 243.720011 
L 469.11903 227.854883 
L 484.923818 219.860674 
L 498.286575 196.345317 
L 537.46751 73.096016 
L 593.52125 10.999219 
L 593.52125 10.999219 
L 593.52125 10.999219 
L 537.46751 -27.969579 
L 498.286575 -21.702079 
L 484.923818 -8.212637 
L 469.11903 -2.330046 
L 449.775533 11.871227 
L 424.837428 24.132942 
L 389.689143 87.748363 
L 364.751038 141.713471 
L 348.94625 183.806006 
z
" clip-path="url(#p823fea0878)" style="fill: #897a8f; fill-opacity: 0.01; stroke: #897a8f; stroke-opacity: 0.01"/>
   </g>
   <g id="PolyCollection_15">
    <path d="M 348.94625 187.592849 
L 348.94625 278.463188 
L 364.751038 288.709332 
L 389.689143 285.335799 
L 424.837428 263.355142 
L 449.775533 261.491074 
L 469.11903 242.569407 
L 484.923818 223.911773 
L 498.286575 196.345317 
L 537.46751 69.472431 
L 593.52125 10.999219 
L 593.52125 10.999219 
L 593.52125 10.999219 
L 537.46751 -26.658794 
L 498.286575 -21.702079 
L 484.923818 -5.325335 
L 469.11903 10.70903 
L 449.775533 33.417763 
L 424.837428 36.179296 
L 389.689143 85.895438 
L 364.751038 149.593106 
L 348.94625 187.592849 
z
" clip-path="url(#p823fea0878)" style="fill: #f9be00; fill-opacity: 0.01; stroke: #f9be00; stroke-opacity: 0.01"/>
   </g>
   <g id="PolyCollection_16">
    <path d="M 348.94625 183.806006 
L 348.94625 279.937231 
L 364.751038 289.650567 
L 389.689143 285.795674 
L 424.837428 254.586295 
L 449.775533 243.720011 
L 469.11903 227.854883 
L 484.923818 219.860674 
L 498.286575 196.345317 
L 537.46751 73.096016 
L 593.52125 10.999219 
L 593.52125 10.999219 
L 593.52125 10.999219 
L 537.46751 -27.969579 
L 498.286575 -21.702079 
L 484.923818 -8.212637 
L 469.11903 -2.330046 
L 449.775533 11.871227 
L 424.837428 24.132942 
L 389.689143 87.748363 
L 364.751038 141.713471 
L 348.94625 183.806006 
z
" clip-path="url(#p823fea0878)" style="fill: #d6b969; fill-opacity: 0.01; stroke: #d6b969; stroke-opacity: 0.01"/>
   </g>
   <g id="PolyCollection_17">
    <path d="M 348.94625 129.447475 
L 348.94625 290.352563 
L 364.751038 289.295055 
L 389.689143 276.426955 
L 424.837428 257.617269 
L 449.775533 243.720011 
L 469.11903 242.569407 
L 484.923818 230.4243 
L 498.286575 196.345317 
L 537.46751 76.579208 
L 593.52125 10.999219 
L 593.52125 10.999219 
L 593.52125 10.999219 
L 537.46751 -29.139971 
L 498.286575 -21.702079 
L 484.923818 -0.273863 
L 469.11903 10.70903 
L 449.775533 11.871227 
L 424.837428 28.040368 
L 389.689143 60.112282 
L 364.751038 107.376983 
L 348.94625 129.447475 
z
" clip-path="url(#p823fea0878)" style="fill: #f79646; fill-opacity: 0.01; stroke: #f79646; stroke-opacity: 0.01"/>
   </g>
   <g id="PolyCollection_18">
    <path d="M 348.94625 200.298029 
L 348.94625 272.696409 
L 364.751038 286.678962 
L 389.689143 287.807443 
L 424.837428 267.798141 
L 449.775533 257.617269 
L 469.11903 243.720011 
L 484.923818 225.238069 
L 498.286575 202.53757 
L 537.46751 73.096016 
L 593.52125 10.999219 
L 593.52125 10.999219 
L 593.52125 10.999219 
L 537.46751 -27.969579 
L 498.286575 -18.643133 
L 484.923818 -4.338832 
L 469.11903 11.871227 
L 449.775533 28.040368 
L 424.837428 43.300296 
L 389.689143 97.300595 
L 364.751038 160.874675 
L 348.94625 200.298029 
z
" clip-path="url(#p823fea0878)" style="fill: #c58a6c; fill-opacity: 0.01; stroke: #c58a6c; stroke-opacity: 0.01"/>
   </g>
   <g id="matplotlib.axis_3">
    <g id="xtick_7">
     <g id="line2d_24">
      <g>
       <use xlink:href="#m497c131e64" x="348.94625" y="242.279219" style="stroke: #000000; stroke-width: 0.8"/>
      </g>
     </g>
     <g id="text_15">
      <!-- 120 -->
      <g transform="translate(339.4025 256.877656) scale(0.1 -0.1)">
       <use xlink:href="#DejaVuSans-31"/>
       <use xlink:href="#DejaVuSans-32" x="63.623047"/>
       <use xlink:href="#DejaVuSans-30" x="127.246094"/>
      </g>
     </g>
    </g>
    <g id="xtick_8">
     <g id="line2d_25">
      <g>
       <use xlink:href="#m497c131e64" x="389.689143" y="242.279219" style="stroke: #000000; stroke-width: 0.8"/>
      </g>
     </g>
     <g id="text_16">
      <!-- 192 -->
      <g transform="translate(380.145393 256.877656) scale(0.1 -0.1)">
       <use xlink:href="#DejaVuSans-31"/>
       <use xlink:href="#DejaVuSans-39" x="63.623047"/>
       <use xlink:href="#DejaVuSans-32" x="127.246094"/>
      </g>
     </g>
    </g>
    <g id="xtick_9">
     <g id="line2d_26">
      <g>
       <use xlink:href="#m497c131e64" x="424.837428" y="242.279219" style="stroke: #000000; stroke-width: 0.8"/>
      </g>
     </g>
     <g id="text_17">
      <!-- 288 -->
      <g transform="translate(415.293678 256.877656) scale(0.1 -0.1)">
       <use xlink:href="#DejaVuSans-32"/>
       <use xlink:href="#DejaVuSans-38" x="63.623047"/>
       <use xlink:href="#DejaVuSans-38" x="127.246094"/>
      </g>
     </g>
    </g>
    <g id="xtick_10">
     <g id="line2d_27">
      <g>
       <use xlink:href="#m497c131e64" x="469.11903" y="242.279219" style="stroke: #000000; stroke-width: 0.8"/>
      </g>
     </g>
     <g id="text_18">
      <!-- 480 -->
      <g transform="translate(459.57528 256.877656) scale(0.1 -0.1)">
       <use xlink:href="#DejaVuSans-34"/>
       <use xlink:href="#DejaVuSans-38" x="63.623047"/>
       <use xlink:href="#DejaVuSans-30" x="127.246094"/>
      </g>
     </g>
    </g>
    <g id="xtick_11">
     <g id="line2d_28">
      <g>
       <use xlink:href="#m497c131e64" x="537.46751" y="242.279219" style="stroke: #000000; stroke-width: 0.8"/>
      </g>
     </g>
     <g id="text_19">
      <!-- 1056 -->
      <g transform="translate(524.74251 256.877656) scale(0.1 -0.1)">
       <use xlink:href="#DejaVuSans-31"/>
       <use xlink:href="#DejaVuSans-30" x="63.623047"/>
       <use xlink:href="#DejaVuSans-35" x="127.246094"/>
       <use xlink:href="#DejaVuSans-36" x="190.869141"/>
      </g>
     </g>
    </g>
    <g id="xtick_12">
     <g id="line2d_29">
      <g>
       <use xlink:href="#m497c131e64" x="593.52125" y="242.279219" style="stroke: #000000; stroke-width: 0.8"/>
      </g>
     </g>
     <g id="text_20">
      <!-- 2016 -->
      <g transform="translate(580.79625 256.877656) scale(0.1 -0.1)">
       <use xlink:href="#DejaVuSans-32"/>
       <use xlink:href="#DejaVuSans-30" x="63.623047"/>
       <use xlink:href="#DejaVuSans-31" x="127.246094"/>
       <use xlink:href="#DejaVuSans-36" x="190.869141"/>
      </g>
     </g>
    </g>
    <g id="text_21">
     <!-- Total number of variants -->
     <g transform="translate(410.190781 270.555781) scale(0.1 -0.1)">
      <use xlink:href="#DejaVuSans-54"/>
      <use xlink:href="#DejaVuSans-6f" x="44.083984"/>
      <use xlink:href="#DejaVuSans-74" x="105.265625"/>
      <use xlink:href="#DejaVuSans-61" x="144.474609"/>
      <use xlink:href="#DejaVuSans-6c" x="205.753906"/>
      <use xlink:href="#DejaVuSans-20" x="233.537109"/>
      <use xlink:href="#DejaVuSans-6e" x="265.324219"/>
      <use xlink:href="#DejaVuSans-75" x="328.703125"/>
      <use xlink:href="#DejaVuSans-6d" x="392.082031"/>
      <use xlink:href="#DejaVuSans-62" x="489.494141"/>
      <use xlink:href="#DejaVuSans-65" x="552.970703"/>
      <use xlink:href="#DejaVuSans-72" x="614.494141"/>
      <use xlink:href="#DejaVuSans-20" x="655.607422"/>
      <use xlink:href="#DejaVuSans-6f" x="687.394531"/>
      <use xlink:href="#DejaVuSans-66" x="748.576172"/>
      <use xlink:href="#DejaVuSans-20" x="783.78125"/>
      <use xlink:href="#DejaVuSans-76" x="815.568359"/>
      <use xlink:href="#DejaVuSans-61" x="874.748047"/>
      <use xlink:href="#DejaVuSans-72" x="936.027344"/>
      <use xlink:href="#DejaVuSans-69" x="977.140625"/>
      <use xlink:href="#DejaVuSans-61" x="1004.923828"/>
      <use xlink:href="#DejaVuSans-6e" x="1066.203125"/>
      <use xlink:href="#DejaVuSans-74" x="1129.582031"/>
      <use xlink:href="#DejaVuSans-73" x="1168.791016"/>
     </g>
    </g>
   </g>
   <g id="matplotlib.axis_4">
    <g id="ytick_7">
     <g id="line2d_30">
      <g>
       <use xlink:href="#m25608b6120" x="348.94625" y="242.279219" style="stroke: #000000; stroke-width: 0.8"/>
      </g>
     </g>
     <g id="text_22">
      <!-- 0.0 -->
      <g transform="translate(326.043125 246.078438) scale(0.1 -0.1)">
       <use xlink:href="#DejaVuSans-30"/>
       <use xlink:href="#DejaVuSans-2e" x="63.623047"/>
       <use xlink:href="#DejaVuSans-30" x="95.410156"/>
      </g>
     </g>
    </g>
    <g id="ytick_8">
     <g id="line2d_31">
      <g>
       <use xlink:href="#m25608b6120" x="348.94625" y="196.023219" style="stroke: #000000; stroke-width: 0.8"/>
      </g>
     </g>
     <g id="text_23">
      <!-- 0.2 -->
      <g transform="translate(326.043125 199.822438) scale(0.1 -0.1)">
       <use xlink:href="#DejaVuSans-30"/>
       <use xlink:href="#DejaVuSans-2e" x="63.623047"/>
       <use xlink:href="#DejaVuSans-32" x="95.410156"/>
      </g>
     </g>
    </g>
    <g id="ytick_9">
     <g id="line2d_32">
      <g>
       <use xlink:href="#m25608b6120" x="348.94625" y="149.767219" style="stroke: #000000; stroke-width: 0.8"/>
      </g>
     </g>
     <g id="text_24">
      <!-- 0.4 -->
      <g transform="translate(326.043125 153.566438) scale(0.1 -0.1)">
       <use xlink:href="#DejaVuSans-30"/>
       <use xlink:href="#DejaVuSans-2e" x="63.623047"/>
       <use xlink:href="#DejaVuSans-34" x="95.410156"/>
      </g>
     </g>
    </g>
    <g id="ytick_10">
     <g id="line2d_33">
      <g>
       <use xlink:href="#m25608b6120" x="348.94625" y="103.511219" style="stroke: #000000; stroke-width: 0.8"/>
      </g>
     </g>
     <g id="text_25">
      <!-- 0.6 -->
      <g transform="translate(326.043125 107.310437) scale(0.1 -0.1)">
       <use xlink:href="#DejaVuSans-30"/>
       <use xlink:href="#DejaVuSans-2e" x="63.623047"/>
       <use xlink:href="#DejaVuSans-36" x="95.410156"/>
      </g>
     </g>
    </g>
    <g id="ytick_11">
     <g id="line2d_34">
      <g>
       <use xlink:href="#m25608b6120" x="348.94625" y="57.255219" style="stroke: #000000; stroke-width: 0.8"/>
      </g>
     </g>
     <g id="text_26">
      <!-- 0.8 -->
      <g transform="translate(326.043125 61.054438) scale(0.1 -0.1)">
       <use xlink:href="#DejaVuSans-30"/>
       <use xlink:href="#DejaVuSans-2e" x="63.623047"/>
       <use xlink:href="#DejaVuSans-38" x="95.410156"/>
      </g>
     </g>
    </g>
    <g id="ytick_12">
     <g id="line2d_35">
      <g>
       <use xlink:href="#m25608b6120" x="348.94625" y="10.999219" style="stroke: #000000; stroke-width: 0.8"/>
      </g>
     </g>
     <g id="text_27">
      <!-- 1.0 -->
      <g transform="translate(326.043125 14.798438) scale(0.1 -0.1)">
       <use xlink:href="#DejaVuSans-31"/>
       <use xlink:href="#DejaVuSans-2e" x="63.623047"/>
       <use xlink:href="#DejaVuSans-30" x="95.410156"/>
      </g>
     </g>
    </g>
    <g id="text_28">
     <!-- Fraction reaching the global optimum -->
     <g transform="translate(319.963438 220.636094) rotate(-90) scale(0.1 -0.1)">
      <defs>
       <path id="DejaVuSans-46" d="M 628 4666 
L 3309 4666 
L 3309 4134 
L 1259 4134 
L 1259 2759 
L 3109 2759 
L 3109 2228 
L 1259 2228 
L 1259 0 
L 628 0 
L 628 4666 
z
" transform="scale(0.015625)"/>
       <path id="DejaVuSans-70" d="M 1159 525 
L 1159 -1331 
L 581 -1331 
L 581 3500 
L 1159 3500 
L 1159 2969 
Q 1341 3281 1617 3432 
Q 1894 3584 2278 3584 
Q 2916 3584 3314 3078 
Q 3713 2572 3713 1747 
Q 3713 922 3314 415 
Q 2916 -91 2278 -91 
Q 1894 -91 1617 61 
Q 1341 213 1159 525 
z
M 3116 1747 
Q 3116 2381 2855 2742 
Q 2594 3103 2138 3103 
Q 1681 3103 1420 2742 
Q 1159 2381 1159 1747 
Q 1159 1113 1420 752 
Q 1681 391 2138 391 
Q 2594 391 2855 752 
Q 3116 1113 3116 1747 
z
" transform="scale(0.015625)"/>
      </defs>
      <use xlink:href="#DejaVuSans-46"/>
      <use xlink:href="#DejaVuSans-72" x="50.269531"/>
      <use xlink:href="#DejaVuSans-61" x="91.382812"/>
      <use xlink:href="#DejaVuSans-63" x="152.662109"/>
      <use xlink:href="#DejaVuSans-74" x="207.642578"/>
      <use xlink:href="#DejaVuSans-69" x="246.851562"/>
      <use xlink:href="#DejaVuSans-6f" x="274.634766"/>
      <use xlink:href="#DejaVuSans-6e" x="335.816406"/>
      <use xlink:href="#DejaVuSans-20" x="399.195312"/>
      <use xlink:href="#DejaVuSans-72" x="430.982422"/>
      <use xlink:href="#DejaVuSans-65" x="469.845703"/>
      <use xlink:href="#DejaVuSans-61" x="531.369141"/>
      <use xlink:href="#DejaVuSans-63" x="592.648438"/>
      <use xlink:href="#DejaVuSans-68" x="647.628906"/>
      <use xlink:href="#DejaVuSans-69" x="711.007812"/>
      <use xlink:href="#DejaVuSans-6e" x="738.791016"/>
      <use xlink:href="#DejaVuSans-67" x="802.169922"/>
      <use xlink:href="#DejaVuSans-20" x="865.646484"/>
      <use xlink:href="#DejaVuSans-74" x="897.433594"/>
      <use xlink:href="#DejaVuSans-68" x="936.642578"/>
      <use xlink:href="#DejaVuSans-65" x="1000.021484"/>
      <use xlink:href="#DejaVuSans-20" x="1061.544922"/>
      <use xlink:href="#DejaVuSans-67" x="1093.332031"/>
      <use xlink:href="#DejaVuSans-6c" x="1156.808594"/>
      <use xlink:href="#DejaVuSans-6f" x="1184.591797"/>
      <use xlink:href="#DejaVuSans-62" x="1245.773438"/>
      <use xlink:href="#DejaVuSans-61" x="1309.25"/>
      <use xlink:href="#DejaVuSans-6c" x="1370.529297"/>
      <use xlink:href="#DejaVuSans-20" x="1398.3125"/>
      <use xlink:href="#DejaVuSans-6f" x="1430.099609"/>
      <use xlink:href="#DejaVuSans-70" x="1491.28125"/>
      <use xlink:href="#DejaVuSans-74" x="1554.757812"/>
      <use xlink:href="#DejaVuSans-69" x="1593.966797"/>
      <use xlink:href="#DejaVuSans-6d" x="1621.75"/>
      <use xlink:href="#DejaVuSans-75" x="1719.162109"/>
      <use xlink:href="#DejaVuSans-6d" x="1782.541016"/>
     </g>
    </g>
   </g>
   <g id="line2d_36">
    <path d="M 348.94625 235.340819 
L 364.751038 233.028019 
L 389.689143 226.089619 
L 424.837428 208.743619 
L 449.775533 197.179619 
L 469.11903 187.928419 
L 484.923818 172.895219 
L 498.286575 171.738819 
L 537.46751 145.141619 
L 593.52125 130.108419 
" clip-path="url(#p823fea0878)" style="fill: none; stroke: #666666; stroke-width: 2; stroke-linecap: square"/>
    <g clip-path="url(#p823fea0878)">
     <use xlink:href="#m4ee611726c" x="348.94625" y="235.340819" style="fill: #666666; stroke: #666666"/>
     <use xlink:href="#m4ee611726c" x="364.751038" y="233.028019" style="fill: #666666; stroke: #666666"/>
     <use xlink:href="#m4ee611726c" x="389.689143" y="226.089619" style="fill: #666666; stroke: #666666"/>
     <use xlink:href="#m4ee611726c" x="424.837428" y="208.743619" style="fill: #666666; stroke: #666666"/>
     <use xlink:href="#m4ee611726c" x="449.775533" y="197.179619" style="fill: #666666; stroke: #666666"/>
     <use xlink:href="#m4ee611726c" x="469.11903" y="187.928419" style="fill: #666666; stroke: #666666"/>
     <use xlink:href="#m4ee611726c" x="484.923818" y="172.895219" style="fill: #666666; stroke: #666666"/>
     <use xlink:href="#m4ee611726c" x="498.286575" y="171.738819" style="fill: #666666; stroke: #666666"/>
     <use xlink:href="#m4ee611726c" x="537.46751" y="145.141619" style="fill: #666666; stroke: #666666"/>
     <use xlink:href="#m4ee611726c" x="593.52125" y="130.108419" style="fill: #666666; stroke: #666666"/>
    </g>
   </g>
   <g id="line2d_37">
    <path d="M 348.94625 238.810019 
L 364.751038 222.620419 
L 389.689143 197.179619 
L 424.837428 163.644019 
L 449.775533 156.705619 
L 469.11903 141.672419 
L 484.923818 137.046819 
L 498.286575 110.449619 
L 537.46751 27.188819 
L 593.52125 10.999219 
" clip-path="url(#p823fea0878)" style="fill: none; stroke: #9bbb59; stroke-width: 2; stroke-linecap: square"/>
    <g clip-path="url(#p823fea0878)">
     <use xlink:href="#mcb2b0e5f1b" x="348.94625" y="238.810019" style="fill: #9bbb59; stroke: #9bbb59"/>
     <use xlink:href="#mcb2b0e5f1b" x="364.751038" y="222.620419" style="fill: #9bbb59; stroke: #9bbb59"/>
     <use xlink:href="#mcb2b0e5f1b" x="389.689143" y="197.179619" style="fill: #9bbb59; stroke: #9bbb59"/>
     <use xlink:href="#mcb2b0e5f1b" x="424.837428" y="163.644019" style="fill: #9bbb59; stroke: #9bbb59"/>
     <use xlink:href="#mcb2b0e5f1b" x="449.775533" y="156.705619" style="fill: #9bbb59; stroke: #9bbb59"/>
     <use xlink:href="#mcb2b0e5f1b" x="469.11903" y="141.672419" style="fill: #9bbb59; stroke: #9bbb59"/>
     <use xlink:href="#mcb2b0e5f1b" x="484.923818" y="137.046819" style="fill: #9bbb59; stroke: #9bbb59"/>
     <use xlink:href="#mcb2b0e5f1b" x="498.286575" y="110.449619" style="fill: #9bbb59; stroke: #9bbb59"/>
     <use xlink:href="#mcb2b0e5f1b" x="537.46751" y="27.188819" style="fill: #9bbb59; stroke: #9bbb59"/>
     <use xlink:href="#mcb2b0e5f1b" x="593.52125" y="10.999219" style="fill: #9bbb59; stroke: #9bbb59"/>
    </g>
   </g>
   <g id="line2d_38">
    <path d="M 348.94625 231.871619 
L 364.751038 204.118019 
L 389.689143 169.426019 
L 424.837428 141.672419 
L 449.775533 130.108419 
L 469.11903 116.231619 
L 484.923818 116.231619 
L 498.286575 90.790819 
L 537.46751 22.563219 
L 593.52125 10.999219 
" clip-path="url(#p823fea0878)" style="fill: none; stroke-dasharray: 7.4,3.2; stroke-dashoffset: 0; stroke: #8b946e; stroke-width: 2"/>
    <g clip-path="url(#p823fea0878)">
     <use xlink:href="#m104797bb43" x="348.94625" y="231.871619" style="fill: #8b946e; stroke: #8b946e"/>
     <use xlink:href="#m104797bb43" x="364.751038" y="204.118019" style="fill: #8b946e; stroke: #8b946e"/>
     <use xlink:href="#m104797bb43" x="389.689143" y="169.426019" style="fill: #8b946e; stroke: #8b946e"/>
     <use xlink:href="#m104797bb43" x="424.837428" y="141.672419" style="fill: #8b946e; stroke: #8b946e"/>
     <use xlink:href="#m104797bb43" x="449.775533" y="130.108419" style="fill: #8b946e; stroke: #8b946e"/>
     <use xlink:href="#m104797bb43" x="469.11903" y="116.231619" style="fill: #8b946e; stroke: #8b946e"/>
     <use xlink:href="#m104797bb43" x="484.923818" y="116.231619" style="fill: #8b946e; stroke: #8b946e"/>
     <use xlink:href="#m104797bb43" x="498.286575" y="90.790819" style="fill: #8b946e; stroke: #8b946e"/>
     <use xlink:href="#m104797bb43" x="537.46751" y="22.563219" style="fill: #8b946e; stroke: #8b946e"/>
     <use xlink:href="#m104797bb43" x="593.52125" y="10.999219" style="fill: #8b946e; stroke: #8b946e"/>
    </g>
   </g>
   <g id="line2d_39">
    <path d="M 348.94625 237.653619 
L 364.751038 224.933219 
L 389.689143 194.866819 
L 424.837428 152.080019 
L 449.775533 162.487619 
L 469.11903 138.203219 
L 484.923818 142.828819 
L 498.286575 109.293219 
L 537.46751 28.345219 
L 593.52125 10.999219 
" clip-path="url(#p823fea0878)" style="fill: none; stroke: #8064a2; stroke-width: 2; stroke-linecap: square"/>
    <g clip-path="url(#p823fea0878)">
     <use xlink:href="#m6994708759" x="348.94625" y="237.653619" style="fill: #8064a2; stroke: #8064a2"/>
     <use xlink:href="#m6994708759" x="364.751038" y="224.933219" style="fill: #8064a2; stroke: #8064a2"/>
     <use xlink:href="#m6994708759" x="389.689143" y="194.866819" style="fill: #8064a2; stroke: #8064a2"/>
     <use xlink:href="#m6994708759" x="424.837428" y="152.080019" style="fill: #8064a2; stroke: #8064a2"/>
     <use xlink:href="#m6994708759" x="449.775533" y="162.487619" style="fill: #8064a2; stroke: #8064a2"/>
     <use xlink:href="#m6994708759" x="469.11903" y="138.203219" style="fill: #8064a2; stroke: #8064a2"/>
     <use xlink:href="#m6994708759" x="484.923818" y="142.828819" style="fill: #8064a2; stroke: #8064a2"/>
     <use xlink:href="#m6994708759" x="498.286575" y="109.293219" style="fill: #8064a2; stroke: #8064a2"/>
     <use xlink:href="#m6994708759" x="537.46751" y="28.345219" style="fill: #8064a2; stroke: #8064a2"/>
     <use xlink:href="#m6994708759" x="593.52125" y="10.999219" style="fill: #8064a2; stroke: #8064a2"/>
    </g>
   </g>
   <g id="line2d_40">
    <path d="M 348.94625 231.871619 
L 364.751038 215.682019 
L 389.689143 186.772019 
L 424.837428 139.359619 
L 449.775533 127.795619 
L 469.11903 112.762419 
L 484.923818 105.824019 
L 498.286575 87.321619 
L 537.46751 22.563219 
L 593.52125 10.999219 
" clip-path="url(#p823fea0878)" style="fill: none; stroke-dasharray: 7.4,3.2; stroke-dashoffset: 0; stroke: #897a8f; stroke-width: 2"/>
    <g clip-path="url(#p823fea0878)">
     <use xlink:href="#ma3807d3e17" x="348.94625" y="231.871619" style="fill: #897a8f; stroke: #897a8f"/>
     <use xlink:href="#ma3807d3e17" x="364.751038" y="215.682019" style="fill: #897a8f; stroke: #897a8f"/>
     <use xlink:href="#ma3807d3e17" x="389.689143" y="186.772019" style="fill: #897a8f; stroke: #897a8f"/>
     <use xlink:href="#ma3807d3e17" x="424.837428" y="139.359619" style="fill: #897a8f; stroke: #897a8f"/>
     <use xlink:href="#ma3807d3e17" x="449.775533" y="127.795619" style="fill: #897a8f; stroke: #897a8f"/>
     <use xlink:href="#ma3807d3e17" x="469.11903" y="112.762419" style="fill: #897a8f; stroke: #897a8f"/>
     <use xlink:href="#ma3807d3e17" x="484.923818" y="105.824019" style="fill: #897a8f; stroke: #897a8f"/>
     <use xlink:href="#ma3807d3e17" x="498.286575" y="87.321619" style="fill: #897a8f; stroke: #897a8f"/>
     <use xlink:href="#ma3807d3e17" x="537.46751" y="22.563219" style="fill: #897a8f; stroke: #897a8f"/>
     <use xlink:href="#ma3807d3e17" x="593.52125" y="10.999219" style="fill: #897a8f; stroke: #897a8f"/>
    </g>
   </g>
   <g id="line2d_41">
    <path d="M 348.94625 233.028019 
L 364.751038 219.151219 
L 389.689143 185.615619 
L 424.837428 149.767219 
L 449.775533 147.454419 
L 469.11903 126.639219 
L 484.923818 109.293219 
L 498.286575 87.321619 
L 537.46751 21.406819 
L 593.52125 10.999219 
" clip-path="url(#p823fea0878)" style="fill: none; stroke: #f9be00; stroke-width: 2; stroke-linecap: square"/>
    <g clip-path="url(#p823fea0878)">
     <use xlink:href="#md5a1ac7940" x="348.94625" y="233.028019" style="fill: #f9be00; stroke: #f9be00"/>
     <use xlink:href="#md5a1ac7940" x="364.751038" y="219.151219" style="fill: #f9be00; stroke: #f9be00"/>
     <use xlink:href="#md5a1ac7940" x="389.689143" y="185.615619" style="fill: #f9be00; stroke: #f9be00"/>
     <use xlink:href="#md5a1ac7940" x="424.837428" y="149.767219" style="fill: #f9be00; stroke: #f9be00"/>
     <use xlink:href="#md5a1ac7940" x="449.775533" y="147.454419" style="fill: #f9be00; stroke: #f9be00"/>
     <use xlink:href="#md5a1ac7940" x="469.11903" y="126.639219" style="fill: #f9be00; stroke: #f9be00"/>
     <use xlink:href="#md5a1ac7940" x="484.923818" y="109.293219" style="fill: #f9be00; stroke: #f9be00"/>
     <use xlink:href="#md5a1ac7940" x="498.286575" y="87.321619" style="fill: #f9be00; stroke: #f9be00"/>
     <use xlink:href="#md5a1ac7940" x="537.46751" y="21.406819" style="fill: #f9be00; stroke: #f9be00"/>
     <use xlink:href="#md5a1ac7940" x="593.52125" y="10.999219" style="fill: #f9be00; stroke: #f9be00"/>
    </g>
   </g>
   <g id="line2d_42">
    <path d="M 348.94625 231.871619 
L 364.751038 215.682019 
L 389.689143 186.772019 
L 424.837428 139.359619 
L 449.775533 127.795619 
L 469.11903 112.762419 
L 484.923818 105.824019 
L 498.286575 87.321619 
L 537.46751 22.563219 
L 593.52125 10.999219 
" clip-path="url(#p823fea0878)" style="fill: none; stroke-dasharray: 7.4,3.2; stroke-dashoffset: 0; stroke: #d6b969; stroke-width: 2"/>
    <g clip-path="url(#p823fea0878)">
     <use xlink:href="#m0b5359c48d" x="348.94625" y="231.871619" style="fill: #d6b969; stroke: #d6b969"/>
     <use xlink:href="#m0b5359c48d" x="364.751038" y="215.682019" style="fill: #d6b969; stroke: #d6b969"/>
     <use xlink:href="#m0b5359c48d" x="389.689143" y="186.772019" style="fill: #d6b969; stroke: #d6b969"/>
     <use xlink:href="#m0b5359c48d" x="424.837428" y="139.359619" style="fill: #d6b969; stroke: #d6b969"/>
     <use xlink:href="#m0b5359c48d" x="449.775533" y="127.795619" style="fill: #d6b969; stroke: #d6b969"/>
     <use xlink:href="#m0b5359c48d" x="469.11903" y="112.762419" style="fill: #d6b969; stroke: #d6b969"/>
     <use xlink:href="#m0b5359c48d" x="484.923818" y="105.824019" style="fill: #d6b969; stroke: #d6b969"/>
     <use xlink:href="#m0b5359c48d" x="498.286575" y="87.321619" style="fill: #d6b969; stroke: #d6b969"/>
     <use xlink:href="#m0b5359c48d" x="537.46751" y="22.563219" style="fill: #d6b969; stroke: #d6b969"/>
     <use xlink:href="#m0b5359c48d" x="593.52125" y="10.999219" style="fill: #d6b969; stroke: #d6b969"/>
    </g>
   </g>
   <g id="line2d_43">
    <path d="M 348.94625 209.900019 
L 364.751038 198.336019 
L 389.689143 168.269619 
L 424.837428 142.828819 
L 449.775533 127.795619 
L 469.11903 126.639219 
L 484.923818 115.075219 
L 498.286575 87.321619 
L 537.46751 23.719619 
L 593.52125 10.999219 
" clip-path="url(#p823fea0878)" style="fill: none; stroke: #f79646; stroke-width: 2; stroke-linecap: square"/>
    <g clip-path="url(#p823fea0878)">
     <use xlink:href="#m85509c8849" x="348.94625" y="209.900019" style="fill: #f79646; stroke: #f79646"/>
     <use xlink:href="#m85509c8849" x="364.751038" y="198.336019" style="fill: #f79646; stroke: #f79646"/>
     <use xlink:href="#m85509c8849" x="389.689143" y="168.269619" style="fill: #f79646; stroke: #f79646"/>
     <use xlink:href="#m85509c8849" x="424.837428" y="142.828819" style="fill: #f79646; stroke: #f79646"/>
     <use xlink:href="#m85509c8849" x="449.775533" y="127.795619" style="fill: #f79646; stroke: #f79646"/>
     <use xlink:href="#m85509c8849" x="469.11903" y="126.639219" style="fill: #f79646; stroke: #f79646"/>
     <use xlink:href="#m85509c8849" x="484.923818" y="115.075219" style="fill: #f79646; stroke: #f79646"/>
     <use xlink:href="#m85509c8849" x="498.286575" y="87.321619" style="fill: #f79646; stroke: #f79646"/>
     <use xlink:href="#m85509c8849" x="537.46751" y="23.719619" style="fill: #f79646; stroke: #f79646"/>
     <use xlink:href="#m85509c8849" x="593.52125" y="10.999219" style="fill: #f79646; stroke: #f79646"/>
    </g>
   </g>
   <g id="line2d_44">
    <path d="M 348.94625 236.497219 
L 364.751038 223.776819 
L 389.689143 192.554019 
L 424.837428 155.549219 
L 449.775533 142.828819 
L 469.11903 127.795619 
L 484.923818 110.449619 
L 498.286575 91.947219 
L 537.46751 22.563219 
L 593.52125 10.999219 
" clip-path="url(#p823fea0878)" style="fill: none; stroke-dasharray: 7.4,3.2; stroke-dashoffset: 0; stroke: #c58a6c; stroke-width: 2"/>
    <g clip-path="url(#p823fea0878)">
     <use xlink:href="#m14bd8137b5" x="348.94625" y="236.497219" style="fill: #c58a6c; stroke: #c58a6c"/>
     <use xlink:href="#m14bd8137b5" x="364.751038" y="223.776819" style="fill: #c58a6c; stroke: #c58a6c"/>
     <use xlink:href="#m14bd8137b5" x="389.689143" y="192.554019" style="fill: #c58a6c; stroke: #c58a6c"/>
     <use xlink:href="#m14bd8137b5" x="424.837428" y="155.549219" style="fill: #c58a6c; stroke: #c58a6c"/>
     <use xlink:href="#m14bd8137b5" x="449.775533" y="142.828819" style="fill: #c58a6c; stroke: #c58a6c"/>
     <use xlink:href="#m14bd8137b5" x="469.11903" y="127.795619" style="fill: #c58a6c; stroke: #c58a6c"/>
     <use xlink:href="#m14bd8137b5" x="484.923818" y="110.449619" style="fill: #c58a6c; stroke: #c58a6c"/>
     <use xlink:href="#m14bd8137b5" x="498.286575" y="91.947219" style="fill: #c58a6c; stroke: #c58a6c"/>
     <use xlink:href="#m14bd8137b5" x="537.46751" y="22.563219" style="fill: #c58a6c; stroke: #c58a6c"/>
     <use xlink:href="#m14bd8137b5" x="593.52125" y="10.999219" style="fill: #c58a6c; stroke: #c58a6c"/>
    </g>
   </g>
   <g id="line2d_45">
    <path d="M 469.11903 242.279219 
L 469.11903 10.999219 
" clip-path="url(#p823fea0878)" style="fill: none; stroke-dasharray: 0.5,0.825; stroke-dashoffset: 0; stroke: #808080; stroke-width: 0.5"/>
   </g>
   <g id="line2d_46">
    <path d="M 389.689143 242.279219 
L 389.689143 10.999219 
" clip-path="url(#p823fea0878)" style="fill: none; stroke-dasharray: 0.5,0.825; stroke-dashoffset: 0; stroke: #808080; stroke-width: 0.5"/>
   </g>
   <g id="patch_8">
    <path d="M 348.94625 242.279219 
L 348.94625 10.999219 
" style="fill: none; stroke: #000000; stroke-width: 0.8; stroke-linejoin: miter; stroke-linecap: square"/>
   </g>
   <g id="patch_9">
    <path d="M 593.52125 242.279219 
L 593.52125 10.999219 
" style="fill: none; stroke: #000000; stroke-width: 0.8; stroke-linejoin: miter; stroke-linecap: square"/>
   </g>
   <g id="patch_10">
    <path d="M 348.94625 242.279219 
L 593.52125 242.279219 
" style="fill: none; stroke: #000000; stroke-width: 0.8; stroke-linejoin: miter; stroke-linecap: square"/>
   </g>
   <g id="patch_11">
    <path d="M 348.94625 10.999219 
L 593.52125 10.999219 
" style="fill: none; stroke: #000000; stroke-width: 0.8; stroke-linejoin: miter; stroke-linecap: square"/>
   </g>
   <g id="legend_1">
    <g id="patch_12">
     <path d="M 600.52125 145.320344 
L 739.3025 145.320344 
Q 741.3025 145.320344 741.3025 143.320344 
L 741.3025 12.217219 
Q 741.3025 10.217219 739.3025 10.217219 
L 600.52125 10.217219 
Q 598.52125 10.217219 598.52125 12.217219 
L 598.52125 143.320344 
Q 598.52125 145.320344 600.52125 145.320344 
z
" style="fill: #ffffff; opacity: 0.8; stroke: #cccccc; stroke-linejoin: miter"/>
    </g>
    <g id="line2d_47">
     <path d="M 602.52125 18.315656 
L 612.52125 18.315656 
L 622.52125 18.315656 
" style="fill: none; stroke: #666666; stroke-width: 2; stroke-linecap: square"/>
     <g>
      <use xlink:href="#m4ee611726c" x="612.52125" y="18.315656" style="fill: #666666; stroke: #666666"/>
     </g>
    </g>
    <g id="text_29">
     <!-- Random sampling -->
     <g transform="translate(630.52125 21.815656) scale(0.1 -0.1)">
      <defs>
       <path id="DejaVuSans-52" d="M 2841 2188 
Q 3044 2119 3236 1894 
Q 3428 1669 3622 1275 
L 4263 0 
L 3584 0 
L 2988 1197 
Q 2756 1666 2539 1819 
Q 2322 1972 1947 1972 
L 1259 1972 
L 1259 0 
L 628 0 
L 628 4666 
L 2053 4666 
Q 2853 4666 3247 4331 
Q 3641 3997 3641 3322 
Q 3641 2881 3436 2590 
Q 3231 2300 2841 2188 
z
M 1259 4147 
L 1259 2491 
L 2053 2491 
Q 2509 2491 2742 2702 
Q 2975 2913 2975 3322 
Q 2975 3731 2742 3939 
Q 2509 4147 2053 4147 
L 1259 4147 
z
" transform="scale(0.015625)"/>
      </defs>
      <use xlink:href="#DejaVuSans-52"/>
      <use xlink:href="#DejaVuSans-61" x="67.232422"/>
      <use xlink:href="#DejaVuSans-6e" x="128.511719"/>
      <use xlink:href="#DejaVuSans-64" x="191.890625"/>
      <use xlink:href="#DejaVuSans-6f" x="255.367188"/>
      <use xlink:href="#DejaVuSans-6d" x="316.548828"/>
      <use xlink:href="#DejaVuSans-20" x="413.960938"/>
      <use xlink:href="#DejaVuSans-73" x="445.748047"/>
      <use xlink:href="#DejaVuSans-61" x="497.847656"/>
      <use xlink:href="#DejaVuSans-6d" x="559.126953"/>
      <use xlink:href="#DejaVuSans-70" x="656.539062"/>
      <use xlink:href="#DejaVuSans-6c" x="720.015625"/>
      <use xlink:href="#DejaVuSans-69" x="747.798828"/>
      <use xlink:href="#DejaVuSans-6e" x="775.582031"/>
      <use xlink:href="#DejaVuSans-67" x="838.960938"/>
     </g>
    </g>
    <g id="line2d_48">
     <path d="M 602.52125 32.993781 
L 612.52125 32.993781 
L 622.52125 32.993781 
" style="fill: none; stroke: #9bbb59; stroke-width: 2; stroke-linecap: square"/>
     <g>
      <use xlink:href="#mcb2b0e5f1b" x="612.52125" y="32.993781" style="fill: #9bbb59; stroke: #9bbb59"/>
     </g>
    </g>
    <g id="text_30">
     <!-- EVmutation -->
     <g transform="translate(630.52125 36.493781) scale(0.1 -0.1)">
      <defs>
       <path id="DejaVuSans-45" d="M 628 4666 
L 3578 4666 
L 3578 4134 
L 1259 4134 
L 1259 2753 
L 3481 2753 
L 3481 2222 
L 1259 2222 
L 1259 531 
L 3634 531 
L 3634 0 
L 628 0 
L 628 4666 
z
" transform="scale(0.015625)"/>
       <path id="DejaVuSans-56" d="M 1831 0 
L 50 4666 
L 709 4666 
L 2188 738 
L 3669 4666 
L 4325 4666 
L 2547 0 
L 1831 0 
z
" transform="scale(0.015625)"/>
      </defs>
      <use xlink:href="#DejaVuSans-45"/>
      <use xlink:href="#DejaVuSans-56" x="63.183594"/>
      <use xlink:href="#DejaVuSans-6d" x="131.591797"/>
      <use xlink:href="#DejaVuSans-75" x="229.003906"/>
      <use xlink:href="#DejaVuSans-74" x="292.382812"/>
      <use xlink:href="#DejaVuSans-61" x="331.591797"/>
      <use xlink:href="#DejaVuSans-74" x="392.871094"/>
      <use xlink:href="#DejaVuSans-69" x="432.080078"/>
      <use xlink:href="#DejaVuSans-6f" x="459.863281"/>
      <use xlink:href="#DejaVuSans-6e" x="521.044922"/>
     </g>
    </g>
    <g id="line2d_49">
     <path d="M 602.52125 47.671906 
L 612.52125 47.671906 
L 622.52125 47.671906 
" style="fill: none; stroke: #8064a2; stroke-width: 2; stroke-linecap: square"/>
     <g>
      <use xlink:href="#m6994708759" x="612.52125" y="47.671906" style="fill: #8064a2; stroke: #8064a2"/>
     </g>
    </g>
    <g id="text_31">
     <!-- ESM -->
     <g transform="translate(630.52125 51.171906) scale(0.1 -0.1)">
      <defs>
       <path id="DejaVuSans-53" d="M 3425 4513 
L 3425 3897 
Q 3066 4069 2747 4153 
Q 2428 4238 2131 4238 
Q 1616 4238 1336 4038 
Q 1056 3838 1056 3469 
Q 1056 3159 1242 3001 
Q 1428 2844 1947 2747 
L 2328 2669 
Q 3034 2534 3370 2195 
Q 3706 1856 3706 1288 
Q 3706 609 3251 259 
Q 2797 -91 1919 -91 
Q 1588 -91 1214 -16 
Q 841 59 441 206 
L 441 856 
Q 825 641 1194 531 
Q 1563 422 1919 422 
Q 2459 422 2753 634 
Q 3047 847 3047 1241 
Q 3047 1584 2836 1778 
Q 2625 1972 2144 2069 
L 1759 2144 
Q 1053 2284 737 2584 
Q 422 2884 422 3419 
Q 422 4038 858 4394 
Q 1294 4750 2059 4750 
Q 2388 4750 2728 4690 
Q 3069 4631 3425 4513 
z
" transform="scale(0.015625)"/>
       <path id="DejaVuSans-4d" d="M 628 4666 
L 1569 4666 
L 2759 1491 
L 3956 4666 
L 4897 4666 
L 4897 0 
L 4281 0 
L 4281 4097 
L 3078 897 
L 2444 897 
L 1241 4097 
L 1241 0 
L 628 0 
L 628 4666 
z
" transform="scale(0.015625)"/>
      </defs>
      <use xlink:href="#DejaVuSans-45"/>
      <use xlink:href="#DejaVuSans-53" x="63.183594"/>
      <use xlink:href="#DejaVuSans-4d" x="126.660156"/>
     </g>
    </g>
    <g id="line2d_50">
     <path d="M 602.52125 62.350031 
L 612.52125 62.350031 
L 622.52125 62.350031 
" style="fill: none; stroke: #f9be00; stroke-width: 2; stroke-linecap: square"/>
     <g>
      <use xlink:href="#md5a1ac7940" x="612.52125" y="62.350031" style="fill: #f9be00; stroke: #f9be00"/>
     </g>
    </g>
    <g id="text_32">
     <!-- ESM-IF -->
     <g transform="translate(630.52125 65.850031) scale(0.1 -0.1)">
      <defs>
       <path id="DejaVuSans-2d" d="M 313 2009 
L 1997 2009 
L 1997 1497 
L 313 1497 
L 313 2009 
z
" transform="scale(0.015625)"/>
       <path id="DejaVuSans-49" d="M 628 4666 
L 1259 4666 
L 1259 0 
L 628 0 
L 628 4666 
z
" transform="scale(0.015625)"/>
      </defs>
      <use xlink:href="#DejaVuSans-45"/>
      <use xlink:href="#DejaVuSans-53" x="63.183594"/>
      <use xlink:href="#DejaVuSans-4d" x="126.660156"/>
      <use xlink:href="#DejaVuSans-2d" x="212.939453"/>
      <use xlink:href="#DejaVuSans-49" x="249.023438"/>
      <use xlink:href="#DejaVuSans-46" x="278.515625"/>
     </g>
    </g>
    <g id="line2d_51">
     <path d="M 602.52125 77.028156 
L 612.52125 77.028156 
L 622.52125 77.028156 
" style="fill: none; stroke: #f79646; stroke-width: 2; stroke-linecap: square"/>
     <g>
      <use xlink:href="#m85509c8849" x="612.52125" y="77.028156" style="fill: #f79646; stroke: #f79646"/>
     </g>
    </g>
    <g id="text_33">
     <!-- Triad -->
     <g transform="translate(630.52125 80.528156) scale(0.1 -0.1)">
      <use xlink:href="#DejaVuSans-54"/>
      <use xlink:href="#DejaVuSans-72" x="46.333984"/>
      <use xlink:href="#DejaVuSans-69" x="87.447266"/>
      <use xlink:href="#DejaVuSans-61" x="115.230469"/>
      <use xlink:href="#DejaVuSans-64" x="176.509766"/>
     </g>
    </g>
    <g id="line2d_52">
     <path d="M 602.52125 91.706281 
L 612.52125 91.706281 
L 622.52125 91.706281 
" style="fill: none; stroke-dasharray: 12,4; stroke-dashoffset: 0; stroke: #8b946e; stroke-width: 2"/>
     <g>
      <use xlink:href="#m104797bb43" x="612.52125" y="91.706281" style="fill: #8b946e; stroke: #8b946e"/>
     </g>
    </g>
    <g id="text_34">
     <!-- Triad + EVmutation -->
     <g transform="translate(630.52125 95.206281) scale(0.1 -0.1)">
      <defs>
       <path id="DejaVuSans-2b" d="M 2944 4013 
L 2944 2272 
L 4684 2272 
L 4684 1741 
L 2944 1741 
L 2944 0 
L 2419 0 
L 2419 1741 
L 678 1741 
L 678 2272 
L 2419 2272 
L 2419 4013 
L 2944 4013 
z
" transform="scale(0.015625)"/>
      </defs>
      <use xlink:href="#DejaVuSans-54"/>
      <use xlink:href="#DejaVuSans-72" x="46.333984"/>
      <use xlink:href="#DejaVuSans-69" x="87.447266"/>
      <use xlink:href="#DejaVuSans-61" x="115.230469"/>
      <use xlink:href="#DejaVuSans-64" x="176.509766"/>
      <use xlink:href="#DejaVuSans-20" x="239.986328"/>
      <use xlink:href="#DejaVuSans-2b" x="271.773438"/>
      <use xlink:href="#DejaVuSans-20" x="355.5625"/>
      <use xlink:href="#DejaVuSans-45" x="387.349609"/>
      <use xlink:href="#DejaVuSans-56" x="450.533203"/>
      <use xlink:href="#DejaVuSans-6d" x="518.941406"/>
      <use xlink:href="#DejaVuSans-75" x="616.353516"/>
      <use xlink:href="#DejaVuSans-74" x="679.732422"/>
      <use xlink:href="#DejaVuSans-61" x="718.941406"/>
      <use xlink:href="#DejaVuSans-74" x="780.220703"/>
      <use xlink:href="#DejaVuSans-69" x="819.429688"/>
      <use xlink:href="#DejaVuSans-6f" x="847.212891"/>
      <use xlink:href="#DejaVuSans-6e" x="908.394531"/>
     </g>
    </g>
    <g id="line2d_53">
     <path d="M 602.52125 106.384406 
L 612.52125 106.384406 
L 622.52125 106.384406 
" style="fill: none; stroke-dasharray: 12,4; stroke-dashoffset: 0; stroke: #897a8f; stroke-width: 2"/>
     <g>
      <use xlink:href="#ma3807d3e17" x="612.52125" y="106.384406" style="fill: #897a8f; stroke: #897a8f"/>
     </g>
    </g>
    <g id="text_35">
     <!-- Triad + ESM -->
     <g transform="translate(630.52125 109.884406) scale(0.1 -0.1)">
      <use xlink:href="#DejaVuSans-54"/>
      <use xlink:href="#DejaVuSans-72" x="46.333984"/>
      <use xlink:href="#DejaVuSans-69" x="87.447266"/>
      <use xlink:href="#DejaVuSans-61" x="115.230469"/>
      <use xlink:href="#DejaVuSans-64" x="176.509766"/>
      <use xlink:href="#DejaVuSans-20" x="239.986328"/>
      <use xlink:href="#DejaVuSans-2b" x="271.773438"/>
      <use xlink:href="#DejaVuSans-20" x="355.5625"/>
      <use xlink:href="#DejaVuSans-45" x="387.349609"/>
      <use xlink:href="#DejaVuSans-53" x="450.533203"/>
      <use xlink:href="#DejaVuSans-4d" x="514.009766"/>
     </g>
    </g>
    <g id="line2d_54">
     <path d="M 602.52125 121.062531 
L 612.52125 121.062531 
L 622.52125 121.062531 
" style="fill: none; stroke-dasharray: 12,4; stroke-dashoffset: 0; stroke: #d6b969; stroke-width: 2"/>
     <g>
      <use xlink:href="#m0b5359c48d" x="612.52125" y="121.062531" style="fill: #d6b969; stroke: #d6b969"/>
     </g>
    </g>
    <g id="text_36">
     <!-- Triad + ESM-IF -->
     <g transform="translate(630.52125 124.562531) scale(0.1 -0.1)">
      <use xlink:href="#DejaVuSans-54"/>
      <use xlink:href="#DejaVuSans-72" x="46.333984"/>
      <use xlink:href="#DejaVuSans-69" x="87.447266"/>
      <use xlink:href="#DejaVuSans-61" x="115.230469"/>
      <use xlink:href="#DejaVuSans-64" x="176.509766"/>
      <use xlink:href="#DejaVuSans-20" x="239.986328"/>
      <use xlink:href="#DejaVuSans-2b" x="271.773438"/>
      <use xlink:href="#DejaVuSans-20" x="355.5625"/>
      <use xlink:href="#DejaVuSans-45" x="387.349609"/>
      <use xlink:href="#DejaVuSans-53" x="450.533203"/>
      <use xlink:href="#DejaVuSans-4d" x="514.009766"/>
      <use xlink:href="#DejaVuSans-2d" x="600.289062"/>
      <use xlink:href="#DejaVuSans-49" x="636.373047"/>
      <use xlink:href="#DejaVuSans-46" x="665.865234"/>
     </g>
    </g>
    <g id="line2d_55">
     <path d="M 602.52125 135.740656 
L 612.52125 135.740656 
L 622.52125 135.740656 
" style="fill: none; stroke-dasharray: 12,4; stroke-dashoffset: 0; stroke: #c58a6c; stroke-width: 2"/>
     <g>
      <use xlink:href="#m14bd8137b5" x="612.52125" y="135.740656" style="fill: #c58a6c; stroke: #c58a6c"/>
     </g>
    </g>
    <g id="text_37">
     <!-- EVmutation + ESM-IF -->
     <g transform="translate(630.52125 139.240656) scale(0.1 -0.1)">
      <use xlink:href="#DejaVuSans-45"/>
      <use xlink:href="#DejaVuSans-56" x="63.183594"/>
      <use xlink:href="#DejaVuSans-6d" x="131.591797"/>
      <use xlink:href="#DejaVuSans-75" x="229.003906"/>
      <use xlink:href="#DejaVuSans-74" x="292.382812"/>
      <use xlink:href="#DejaVuSans-61" x="331.591797"/>
      <use xlink:href="#DejaVuSans-74" x="392.871094"/>
      <use xlink:href="#DejaVuSans-69" x="432.080078"/>
      <use xlink:href="#DejaVuSans-6f" x="459.863281"/>
      <use xlink:href="#DejaVuSans-6e" x="521.044922"/>
      <use xlink:href="#DejaVuSans-20" x="584.423828"/>
      <use xlink:href="#DejaVuSans-2b" x="616.210938"/>
      <use xlink:href="#DejaVuSans-20" x="700"/>
      <use xlink:href="#DejaVuSans-45" x="731.787109"/>
      <use xlink:href="#DejaVuSans-53" x="794.970703"/>
      <use xlink:href="#DejaVuSans-4d" x="858.447266"/>
      <use xlink:href="#DejaVuSans-2d" x="944.726562"/>
      <use xlink:href="#DejaVuSans-49" x="980.810547"/>
      <use xlink:href="#DejaVuSans-46" x="1010.302734"/>
     </g>
    </g>
   </g>
  </g>
 </g>
 <defs>
  <clipPath id="pf35e686885">
   <rect x="43.78125" y="10.999219" width="244.575" height="231.28"/>
  </clipPath>
  <clipPath id="p823fea0878">
   <rect x="348.94625" y="10.999219" width="244.575" height="231.28"/>
  </clipPath>
 </defs>
</svg>
