<?xml version="1.0" encoding="utf-8" standalone="no"?>
<!DOCTYPE svg PUBLIC "-//W3C//DTD SVG 1.1//EN"
  "http://www.w3.org/Graphics/SVG/1.1/DTD/svg11.dtd">
<svg xmlns:xlink="http://www.w3.org/1999/xlink" width="445.689687pt" height="272.839437pt" viewBox="0 0 445.689687 272.839437" xmlns="http://www.w3.org/2000/svg" version="1.1">
 <metadata>
  <rdf:RDF xmlns:dc="http://purl.org/dc/elements/1.1/" xmlns:cc="http://creativecommons.org/ns#" xmlns:rdf="http://www.w3.org/1999/02/22-rdf-syntax-ns#">
   <cc:Work>
    <dc:type rdf:resource="http://purl.org/dc/dcmitype/StillImage"/>
    <dc:date>2024-10-16T21:50:36.223522</dc:date>
    <dc:format>image/svg+xml</dc:format>
    <dc:creator>
     <cc:Agent>
      <dc:title>Matplotlib v3.8.4, https://matplotlib.org/</dc:title>
     </cc:Agent>
    </dc:creator>
   </cc:Work>
  </rdf:RDF>
 </metadata>
 <defs>
  <style type="text/css">*{stroke-linejoin: round; stroke-linecap: butt}</style>
 </defs>
 <g id="figure_1">
  <g id="patch_1">
   <path d="M 0 272.839437 
L 445.689687 272.839437 
L 445.689687 0 
L 0 0 
z
" style="fill: #ffffff"/>
  </g>
  <g id="axes_1">
   <g id="patch_2">
    <path d="M 50.14375 218.92225 
L 94.97875 218.92225 
L 94.97875 31.99625 
L 50.14375 31.99625 
z
" style="fill: #ffffff"/>
   </g>
   <g id="matplotlib.axis_1">
    <g id="xtick_1">
     <g id="line2d_1">
      <defs>
       <path id="m0623b5604a" d="M 0 0 
L 0 3.5 
" style="stroke: #000000; stroke-width: 0.8"/>
      </defs>
      <g>
       <use xlink:href="#m0623b5604a" x="72.56125" y="218.92225" style="stroke: #000000; stroke-width: 0.8"/>
      </g>
     </g>
     <g id="text_1">
      <!-- Enzyme -->
      <g transform="translate(69.721719 265.639437) rotate(-90) scale(0.1 -0.1)">
       <defs>
        <path id="DejaVuSans-45" d="M 628 4666 
L 3578 4666 
L 3578 4134 
L 1259 4134 
L 1259 2753 
L 3481 2753 
L 3481 2222 
L 1259 2222 
L 1259 531 
L 3634 531 
L 3634 0 
L 628 0 
L 628 4666 
z
" transform="scale(0.015625)"/>
        <path id="DejaVuSans-6e" d="M 3513 2113 
L 3513 0 
L 2938 0 
L 2938 2094 
Q 2938 2591 2744 2837 
Q 2550 3084 2163 3084 
Q 1697 3084 1428 2787 
Q 1159 2491 1159 1978 
L 1159 0 
L 581 0 
L 581 3500 
L 1159 3500 
L 1159 2956 
Q 1366 3272 1645 3428 
Q 1925 3584 2291 3584 
Q 2894 3584 3203 3211 
Q 3513 2838 3513 2113 
z
" transform="scale(0.015625)"/>
        <path id="DejaVuSans-7a" d="M 353 3500 
L 3084 3500 
L 3084 2975 
L 922 459 
L 3084 459 
L 3084 0 
L 275 0 
L 275 525 
L 2438 3041 
L 353 3041 
L 353 3500 
z
" transform="scale(0.015625)"/>
        <path id="DejaVuSans-79" d="M 2059 -325 
Q 1816 -950 1584 -1140 
Q 1353 -1331 966 -1331 
L 506 -1331 
L 506 -850 
L 844 -850 
Q 1081 -850 1212 -737 
Q 1344 -625 1503 -206 
L 1606 56 
L 191 3500 
L 800 3500 
L 1894 763 
L 2988 3500 
L 3597 3500 
L 2059 -325 
z
" transform="scale(0.015625)"/>
        <path id="DejaVuSans-6d" d="M 3328 2828 
Q 3544 3216 3844 3400 
Q 4144 3584 4550 3584 
Q 5097 3584 5394 3201 
Q 5691 2819 5691 2113 
L 5691 0 
L 5113 0 
L 5113 2094 
Q 5113 2597 4934 2840 
Q 4756 3084 4391 3084 
Q 3944 3084 3684 2787 
Q 3425 2491 3425 1978 
L 3425 0 
L 2847 0 
L 2847 2094 
Q 2847 2600 2669 2842 
Q 2491 3084 2119 3084 
Q 1678 3084 1418 2786 
Q 1159 2488 1159 1978 
L 1159 0 
L 581 0 
L 581 3500 
L 1159 3500 
L 1159 2956 
Q 1356 3278 1631 3431 
Q 1906 3584 2284 3584 
Q 2666 3584 2933 3390 
Q 3200 3197 3328 2828 
z
" transform="scale(0.015625)"/>
        <path id="DejaVuSans-65" d="M 3597 1894 
L 3597 1613 
L 953 1613 
Q 991 1019 1311 708 
Q 1631 397 2203 397 
Q 2534 397 2845 478 
Q 3156 559 3463 722 
L 3463 178 
Q 3153 47 2828 -22 
Q 2503 -91 2169 -91 
Q 1331 -91 842 396 
Q 353 884 353 1716 
Q 353 2575 817 3079 
Q 1281 3584 2069 3584 
Q 2775 3584 3186 3129 
Q 3597 2675 3597 1894 
z
M 3022 2063 
Q 3016 2534 2758 2815 
Q 2500 3097 2075 3097 
Q 1594 3097 1305 2825 
Q 1016 2553 972 2059 
L 3022 2063 
z
" transform="scale(0.015625)"/>
       </defs>
       <use xlink:href="#DejaVuSans-45"/>
       <use xlink:href="#DejaVuSans-6e" x="63.183594"/>
       <use xlink:href="#DejaVuSans-7a" x="126.5625"/>
       <use xlink:href="#DejaVuSans-79" x="179.052734"/>
       <use xlink:href="#DejaVuSans-6d" x="238.232422"/>
       <use xlink:href="#DejaVuSans-65" x="335.644531"/>
      </g>
      <!-- activity -->
      <g transform="translate(80.919531 264.211312) rotate(-90) scale(0.1 -0.1)">
       <defs>
        <path id="DejaVuSans-61" d="M 2194 1759 
Q 1497 1759 1228 1600 
Q 959 1441 959 1056 
Q 959 750 1161 570 
Q 1363 391 1709 391 
Q 2188 391 2477 730 
Q 2766 1069 2766 1631 
L 2766 1759 
L 2194 1759 
z
M 3341 1997 
L 3341 0 
L 2766 0 
L 2766 531 
Q 2569 213 2275 61 
Q 1981 -91 1556 -91 
Q 1019 -91 701 211 
Q 384 513 384 1019 
Q 384 1609 779 1909 
Q 1175 2209 1959 2209 
L 2766 2209 
L 2766 2266 
Q 2766 2663 2505 2880 
Q 2244 3097 1772 3097 
Q 1472 3097 1187 3025 
Q 903 2953 641 2809 
L 641 3341 
Q 956 3463 1253 3523 
Q 1550 3584 1831 3584 
Q 2591 3584 2966 3190 
Q 3341 2797 3341 1997 
z
" transform="scale(0.015625)"/>
        <path id="DejaVuSans-63" d="M 3122 3366 
L 3122 2828 
Q 2878 2963 2633 3030 
Q 2388 3097 2138 3097 
Q 1578 3097 1268 2742 
Q 959 2388 959 1747 
Q 959 1106 1268 751 
Q 1578 397 2138 397 
Q 2388 397 2633 464 
Q 2878 531 3122 666 
L 3122 134 
Q 2881 22 2623 -34 
Q 2366 -91 2075 -91 
Q 1284 -91 818 406 
Q 353 903 353 1747 
Q 353 2603 823 3093 
Q 1294 3584 2113 3584 
Q 2378 3584 2631 3529 
Q 2884 3475 3122 3366 
z
" transform="scale(0.015625)"/>
        <path id="DejaVuSans-74" d="M 1172 4494 
L 1172 3500 
L 2356 3500 
L 2356 3053 
L 1172 3053 
L 1172 1153 
Q 1172 725 1289 603 
Q 1406 481 1766 481 
L 2356 481 
L 2356 0 
L 1766 0 
Q 1100 0 847 248 
Q 594 497 594 1153 
L 594 3053 
L 172 3053 
L 172 3500 
L 594 3500 
L 594 4494 
L 1172 4494 
z
" transform="scale(0.015625)"/>
        <path id="DejaVuSans-69" d="M 603 3500 
L 1178 3500 
L 1178 0 
L 603 0 
L 603 3500 
z
M 603 4863 
L 1178 4863 
L 1178 4134 
L 603 4134 
L 603 4863 
z
" transform="scale(0.015625)"/>
        <path id="DejaVuSans-76" d="M 191 3500 
L 800 3500 
L 1894 563 
L 2988 3500 
L 3597 3500 
L 2284 0 
L 1503 0 
L 191 3500 
z
" transform="scale(0.015625)"/>
       </defs>
       <use xlink:href="#DejaVuSans-61"/>
       <use xlink:href="#DejaVuSans-63" x="61.279297"/>
       <use xlink:href="#DejaVuSans-74" x="116.259766"/>
       <use xlink:href="#DejaVuSans-69" x="155.46875"/>
       <use xlink:href="#DejaVuSans-76" x="183.251953"/>
       <use xlink:href="#DejaVuSans-69" x="242.431641"/>
       <use xlink:href="#DejaVuSans-74" x="270.214844"/>
       <use xlink:href="#DejaVuSans-79" x="309.423828"/>
      </g>
     </g>
    </g>
   </g>
   <g id="matplotlib.axis_2">
    <g id="ytick_1">
     <g id="line2d_2">
      <defs>
       <path id="mcd683042ad" d="M 0 0 
L -3.5 0 
" style="stroke: #000000; stroke-width: 0.8"/>
      </defs>
      <g>
       <use xlink:href="#mcd683042ad" x="50.14375" y="210.425614" style="stroke: #000000; stroke-width: 0.8"/>
      </g>
     </g>
     <g id="text_2">
      <!-- 0.50 -->
      <g transform="translate(20.878125 214.224832) scale(0.1 -0.1)">
       <defs>
        <path id="DejaVuSans-30" d="M 2034 4250 
Q 1547 4250 1301 3770 
Q 1056 3291 1056 2328 
Q 1056 1369 1301 889 
Q 1547 409 2034 409 
Q 2525 409 2770 889 
Q 3016 1369 3016 2328 
Q 3016 3291 2770 3770 
Q 2525 4250 2034 4250 
z
M 2034 4750 
Q 2819 4750 3233 4129 
Q 3647 3509 3647 2328 
Q 3647 1150 3233 529 
Q 2819 -91 2034 -91 
Q 1250 -91 836 529 
Q 422 1150 422 2328 
Q 422 3509 836 4129 
Q 1250 4750 2034 4750 
z
" transform="scale(0.015625)"/>
        <path id="DejaVuSans-2e" d="M 684 794 
L 1344 794 
L 1344 0 
L 684 0 
L 684 794 
z
" transform="scale(0.015625)"/>
        <path id="DejaVuSans-35" d="M 691 4666 
L 3169 4666 
L 3169 4134 
L 1269 4134 
L 1269 2991 
Q 1406 3038 1543 3061 
Q 1681 3084 1819 3084 
Q 2600 3084 3056 2656 
Q 3513 2228 3513 1497 
Q 3513 744 3044 326 
Q 2575 -91 1722 -91 
Q 1428 -91 1123 -41 
Q 819 9 494 109 
L 494 744 
Q 775 591 1075 516 
Q 1375 441 1709 441 
Q 2250 441 2565 725 
Q 2881 1009 2881 1497 
Q 2881 1984 2565 2268 
Q 2250 2553 1709 2553 
Q 1456 2553 1204 2497 
Q 953 2441 691 2322 
L 691 4666 
z
" transform="scale(0.015625)"/>
       </defs>
       <use xlink:href="#DejaVuSans-30"/>
       <use xlink:href="#DejaVuSans-2e" x="63.623047"/>
       <use xlink:href="#DejaVuSans-35" x="95.410156"/>
       <use xlink:href="#DejaVuSans-30" x="159.033203"/>
      </g>
     </g>
    </g>
    <g id="ytick_2">
     <g id="line2d_3">
      <g>
       <use xlink:href="#mcd683042ad" x="50.14375" y="175.406335" style="stroke: #000000; stroke-width: 0.8"/>
      </g>
     </g>
     <g id="text_3">
      <!-- 0.55 -->
      <g transform="translate(20.878125 179.205554) scale(0.1 -0.1)">
       <use xlink:href="#DejaVuSans-30"/>
       <use xlink:href="#DejaVuSans-2e" x="63.623047"/>
       <use xlink:href="#DejaVuSans-35" x="95.410156"/>
       <use xlink:href="#DejaVuSans-35" x="159.033203"/>
      </g>
     </g>
    </g>
    <g id="ytick_3">
     <g id="line2d_4">
      <g>
       <use xlink:href="#mcd683042ad" x="50.14375" y="140.387056" style="stroke: #000000; stroke-width: 0.8"/>
      </g>
     </g>
     <g id="text_4">
      <!-- 0.60 -->
      <g transform="translate(20.878125 144.186275) scale(0.1 -0.1)">
       <defs>
        <path id="DejaVuSans-36" d="M 2113 2584 
Q 1688 2584 1439 2293 
Q 1191 2003 1191 1497 
Q 1191 994 1439 701 
Q 1688 409 2113 409 
Q 2538 409 2786 701 
Q 3034 994 3034 1497 
Q 3034 2003 2786 2293 
Q 2538 2584 2113 2584 
z
M 3366 4563 
L 3366 3988 
Q 3128 4100 2886 4159 
Q 2644 4219 2406 4219 
Q 1781 4219 1451 3797 
Q 1122 3375 1075 2522 
Q 1259 2794 1537 2939 
Q 1816 3084 2150 3084 
Q 2853 3084 3261 2657 
Q 3669 2231 3669 1497 
Q 3669 778 3244 343 
Q 2819 -91 2113 -91 
Q 1303 -91 875 529 
Q 447 1150 447 2328 
Q 447 3434 972 4092 
Q 1497 4750 2381 4750 
Q 2619 4750 2861 4703 
Q 3103 4656 3366 4563 
z
" transform="scale(0.015625)"/>
       </defs>
       <use xlink:href="#DejaVuSans-30"/>
       <use xlink:href="#DejaVuSans-2e" x="63.623047"/>
       <use xlink:href="#DejaVuSans-36" x="95.410156"/>
       <use xlink:href="#DejaVuSans-30" x="159.033203"/>
      </g>
     </g>
    </g>
    <g id="ytick_4">
     <g id="line2d_5">
      <g>
       <use xlink:href="#mcd683042ad" x="50.14375" y="105.367777" style="stroke: #000000; stroke-width: 0.8"/>
      </g>
     </g>
     <g id="text_5">
      <!-- 0.65 -->
      <g transform="translate(20.878125 109.166996) scale(0.1 -0.1)">
       <use xlink:href="#DejaVuSans-30"/>
       <use xlink:href="#DejaVuSans-2e" x="63.623047"/>
       <use xlink:href="#DejaVuSans-36" x="95.410156"/>
       <use xlink:href="#DejaVuSans-35" x="159.033203"/>
      </g>
     </g>
    </g>
    <g id="ytick_5">
     <g id="line2d_6">
      <g>
       <use xlink:href="#mcd683042ad" x="50.14375" y="70.348498" style="stroke: #000000; stroke-width: 0.8"/>
      </g>
     </g>
     <g id="text_6">
      <!-- 0.70 -->
      <g transform="translate(20.878125 74.147717) scale(0.1 -0.1)">
       <defs>
        <path id="DejaVuSans-37" d="M 525 4666 
L 3525 4666 
L 3525 4397 
L 1831 0 
L 1172 0 
L 2766 4134 
L 525 4134 
L 525 4666 
z
" transform="scale(0.015625)"/>
       </defs>
       <use xlink:href="#DejaVuSans-30"/>
       <use xlink:href="#DejaVuSans-2e" x="63.623047"/>
       <use xlink:href="#DejaVuSans-37" x="95.410156"/>
       <use xlink:href="#DejaVuSans-30" x="159.033203"/>
      </g>
     </g>
    </g>
    <g id="ytick_6">
     <g id="line2d_7">
      <g>
       <use xlink:href="#mcd683042ad" x="50.14375" y="35.329219" style="stroke: #000000; stroke-width: 0.8"/>
      </g>
     </g>
     <g id="text_7">
      <!-- 0.75 -->
      <g transform="translate(20.878125 39.128438) scale(0.1 -0.1)">
       <use xlink:href="#DejaVuSans-30"/>
       <use xlink:href="#DejaVuSans-2e" x="63.623047"/>
       <use xlink:href="#DejaVuSans-37" x="95.410156"/>
       <use xlink:href="#DejaVuSans-35" x="159.033203"/>
      </g>
     </g>
    </g>
    <g id="text_8">
     <!-- ROC-AUC -->
     <g transform="translate(14.798438 148.623312) rotate(-90) scale(0.1 -0.1)">
      <defs>
       <path id="DejaVuSans-52" d="M 2841 2188 
Q 3044 2119 3236 1894 
Q 3428 1669 3622 1275 
L 4263 0 
L 3584 0 
L 2988 1197 
Q 2756 1666 2539 1819 
Q 2322 1972 1947 1972 
L 1259 1972 
L 1259 0 
L 628 0 
L 628 4666 
L 2053 4666 
Q 2853 4666 3247 4331 
Q 3641 3997 3641 3322 
Q 3641 2881 3436 2590 
Q 3231 2300 2841 2188 
z
M 1259 4147 
L 1259 2491 
L 2053 2491 
Q 2509 2491 2742 2702 
Q 2975 2913 2975 3322 
Q 2975 3731 2742 3939 
Q 2509 4147 2053 4147 
L 1259 4147 
z
" transform="scale(0.015625)"/>
       <path id="DejaVuSans-4f" d="M 2522 4238 
Q 1834 4238 1429 3725 
Q 1025 3213 1025 2328 
Q 1025 1447 1429 934 
Q 1834 422 2522 422 
Q 3209 422 3611 934 
Q 4013 1447 4013 2328 
Q 4013 3213 3611 3725 
Q 3209 4238 2522 4238 
z
M 2522 4750 
Q 3503 4750 4090 4092 
Q 4678 3434 4678 2328 
Q 4678 1225 4090 567 
Q 3503 -91 2522 -91 
Q 1538 -91 948 565 
Q 359 1222 359 2328 
Q 359 3434 948 4092 
Q 1538 4750 2522 4750 
z
" transform="scale(0.015625)"/>
       <path id="DejaVuSans-43" d="M 4122 4306 
L 4122 3641 
Q 3803 3938 3442 4084 
Q 3081 4231 2675 4231 
Q 1875 4231 1450 3742 
Q 1025 3253 1025 2328 
Q 1025 1406 1450 917 
Q 1875 428 2675 428 
Q 3081 428 3442 575 
Q 3803 722 4122 1019 
L 4122 359 
Q 3791 134 3420 21 
Q 3050 -91 2638 -91 
Q 1578 -91 968 557 
Q 359 1206 359 2328 
Q 359 3453 968 4101 
Q 1578 4750 2638 4750 
Q 3056 4750 3426 4639 
Q 3797 4528 4122 4306 
z
" transform="scale(0.015625)"/>
       <path id="DejaVuSans-2d" d="M 313 2009 
L 1997 2009 
L 1997 1497 
L 313 1497 
L 313 2009 
z
" transform="scale(0.015625)"/>
       <path id="DejaVuSans-41" d="M 2188 4044 
L 1331 1722 
L 3047 1722 
L 2188 4044 
z
M 1831 4666 
L 2547 4666 
L 4325 0 
L 3669 0 
L 3244 1197 
L 1141 1197 
L 716 0 
L 50 0 
L 1831 4666 
z
" transform="scale(0.015625)"/>
       <path id="DejaVuSans-55" d="M 556 4666 
L 1191 4666 
L 1191 1831 
Q 1191 1081 1462 751 
Q 1734 422 2344 422 
Q 2950 422 3222 751 
Q 3494 1081 3494 1831 
L 3494 4666 
L 4128 4666 
L 4128 1753 
Q 4128 841 3676 375 
Q 3225 -91 2344 -91 
Q 1459 -91 1007 375 
Q 556 841 556 1753 
L 556 4666 
z
" transform="scale(0.015625)"/>
      </defs>
      <use xlink:href="#DejaVuSans-52"/>
      <use xlink:href="#DejaVuSans-4f" x="69.482422"/>
      <use xlink:href="#DejaVuSans-43" x="148.193359"/>
      <use xlink:href="#DejaVuSans-2d" x="218.017578"/>
      <use xlink:href="#DejaVuSans-41" x="251.851562"/>
      <use xlink:href="#DejaVuSans-55" x="320.259766"/>
      <use xlink:href="#DejaVuSans-43" x="393.453125"/>
     </g>
    </g>
   </g>
   <g id="patch_3">
    <path d="M 65.836 146.135574 
L 79.2865 146.135574 
L 79.2865 135.977852 
L 65.836 135.977852 
L 65.836 146.135574 
L 65.836 146.135574 
z
" clip-path="url(#pa0f0fb4225)" style="fill: none; stroke: #666666; stroke-linejoin: miter"/>
   </g>
   <g id="line2d_8">
    <path d="M 72.56125 146.135574 
L 72.56125 146.135574 
" clip-path="url(#pa0f0fb4225)" style="fill: none; stroke: #3f3f3f"/>
   </g>
   <g id="line2d_9">
    <path d="M 72.56125 135.977852 
L 72.56125 134.298247 
" clip-path="url(#pa0f0fb4225)" style="fill: none; stroke: #3f3f3f"/>
   </g>
   <g id="line2d_10">
    <path d="M 69.198625 146.135574 
L 75.923875 146.135574 
" clip-path="url(#pa0f0fb4225)" style="fill: none; stroke: #3f3f3f; stroke-linecap: square"/>
   </g>
   <g id="line2d_11">
    <path d="M 69.198625 134.298247 
L 75.923875 134.298247 
" clip-path="url(#pa0f0fb4225)" style="fill: none; stroke: #3f3f3f; stroke-linecap: square"/>
   </g>
   <g id="line2d_12">
    <defs>
     <path id="m8ecf3c276f" d="M 0 3 
C 0.795609 3 1.55874 2.683901 2.12132 2.12132 
C 2.683901 1.55874 3 0.795609 3 0 
C 3 -0.795609 2.683901 -1.55874 2.12132 -2.12132 
C 1.55874 -2.683901 0.795609 -3 0 -3 
C -0.795609 -3 -1.55874 -2.683901 -2.12132 -2.12132 
C -2.683901 -1.55874 -3 -0.795609 -3 0 
C -3 0.795609 -2.683901 1.55874 -2.12132 2.12132 
C -1.55874 2.683901 -0.795609 3 0 3 
z
" style="stroke: #3f3f3f"/>
    </defs>
    <g clip-path="url(#pa0f0fb4225)">
     <use xlink:href="#m8ecf3c276f" x="72.56125" y="174.5538" style="fill-opacity: 0; stroke: #3f3f3f"/>
    </g>
   </g>
   <g id="line2d_13">
    <path d="M 50.14375 210.425614 
L 94.97875 210.425614 
" clip-path="url(#pa0f0fb4225)" style="fill: none; stroke-dasharray: 4.44,1.92; stroke-dashoffset: 0; stroke: #808080; stroke-width: 1.2"/>
   </g>
   <g id="line2d_14">
    <path d="M 65.836 136.600276 
L 79.2865 136.600276 
" clip-path="url(#pa0f0fb4225)" style="fill: none; stroke: #3f3f3f"/>
   </g>
   <g id="patch_4">
    <path d="M 50.14375 218.92225 
L 50.14375 31.99625 
" style="fill: none; stroke: #000000; stroke-width: 0.8; stroke-linejoin: miter; stroke-linecap: square"/>
   </g>
   <g id="patch_5">
    <path d="M 50.14375 218.92225 
L 94.97875 218.92225 
" style="fill: none; stroke: #000000; stroke-width: 0.8; stroke-linejoin: miter; stroke-linecap: square"/>
   </g>
   <g id="PathCollection_1">
    <defs>
     <path id="C0_0_d2f9748de8" d="M 0 3.75 
C 0.994512 3.75 1.948425 3.354876 2.65165 2.65165 
C 3.354876 1.948425 3.75 0.994512 3.75 -0 
C 3.75 -0.994512 3.354876 -1.948425 2.65165 -2.65165 
C 1.948425 -3.354876 0.994512 -3.75 0 -3.75 
C -0.994512 -3.75 -1.948425 -3.354876 -2.65165 -2.65165 
C -3.354876 -1.948425 -3.75 -0.994512 -3.75 0 
C -3.75 0.994512 -3.354876 1.948425 -2.65165 2.65165 
C -1.948425 3.354876 -0.994512 3.75 0 3.75 
z
"/>
    </defs>
    <g clip-path="url(#pa0f0fb4225)">
     <use xlink:href="#C0_0_d2f9748de8" x="76.199788" y="134.298247" style="fill: #1f77b4; fill-opacity: 0.8"/>
    </g>
    <g clip-path="url(#pa0f0fb4225)">
     <use xlink:href="#C0_0_d2f9748de8" x="69.634348" y="174.5538" style="fill: #ff7f0e; fill-opacity: 0.8"/>
    </g>
    <g clip-path="url(#pa0f0fb4225)">
     <use xlink:href="#C0_0_d2f9748de8" x="71.371737" y="136.53772" style="fill: #2ca02c; fill-opacity: 0.8"/>
    </g>
    <g clip-path="url(#pa0f0fb4225)">
     <use xlink:href="#C0_0_d2f9748de8" x="68.626767" y="136.662832" style="fill: #d62728; fill-opacity: 0.8"/>
    </g>
   </g>
   <g id="line2d_15"/>
   <g id="line2d_16"/>
   <g id="line2d_17"/>
   <g id="line2d_18"/>
   <g id="text_9">
    <!-- Hamming -->
    <g transform="translate(48.264375 14.798437) scale(0.1 -0.1)">
     <defs>
      <path id="DejaVuSans-48" d="M 628 4666 
L 1259 4666 
L 1259 2753 
L 3553 2753 
L 3553 4666 
L 4184 4666 
L 4184 0 
L 3553 0 
L 3553 2222 
L 1259 2222 
L 1259 0 
L 628 0 
L 628 4666 
z
" transform="scale(0.015625)"/>
      <path id="DejaVuSans-67" d="M 2906 1791 
Q 2906 2416 2648 2759 
Q 2391 3103 1925 3103 
Q 1463 3103 1205 2759 
Q 947 2416 947 1791 
Q 947 1169 1205 825 
Q 1463 481 1925 481 
Q 2391 481 2648 825 
Q 2906 1169 2906 1791 
z
M 3481 434 
Q 3481 -459 3084 -895 
Q 2688 -1331 1869 -1331 
Q 1566 -1331 1297 -1286 
Q 1028 -1241 775 -1147 
L 775 -588 
Q 1028 -725 1275 -790 
Q 1522 -856 1778 -856 
Q 2344 -856 2625 -561 
Q 2906 -266 2906 331 
L 2906 616 
Q 2728 306 2450 153 
Q 2172 0 1784 0 
Q 1141 0 747 490 
Q 353 981 353 1791 
Q 353 2603 747 3093 
Q 1141 3584 1784 3584 
Q 2172 3584 2450 3431 
Q 2728 3278 2906 2969 
L 2906 3500 
L 3481 3500 
L 3481 434 
z
" transform="scale(0.015625)"/>
     </defs>
     <use xlink:href="#DejaVuSans-48"/>
     <use xlink:href="#DejaVuSans-61" x="75.195312"/>
     <use xlink:href="#DejaVuSans-6d" x="136.474609"/>
     <use xlink:href="#DejaVuSans-6d" x="233.886719"/>
     <use xlink:href="#DejaVuSans-69" x="331.298828"/>
     <use xlink:href="#DejaVuSans-6e" x="359.082031"/>
     <use xlink:href="#DejaVuSans-67" x="422.460938"/>
    </g>
    <!-- distance -->
    <g transform="translate(51.374531 25.99625) scale(0.1 -0.1)">
     <defs>
      <path id="DejaVuSans-64" d="M 2906 2969 
L 2906 4863 
L 3481 4863 
L 3481 0 
L 2906 0 
L 2906 525 
Q 2725 213 2448 61 
Q 2172 -91 1784 -91 
Q 1150 -91 751 415 
Q 353 922 353 1747 
Q 353 2572 751 3078 
Q 1150 3584 1784 3584 
Q 2172 3584 2448 3432 
Q 2725 3281 2906 2969 
z
M 947 1747 
Q 947 1113 1208 752 
Q 1469 391 1925 391 
Q 2381 391 2643 752 
Q 2906 1113 2906 1747 
Q 2906 2381 2643 2742 
Q 2381 3103 1925 3103 
Q 1469 3103 1208 2742 
Q 947 2381 947 1747 
z
" transform="scale(0.015625)"/>
      <path id="DejaVuSans-73" d="M 2834 3397 
L 2834 2853 
Q 2591 2978 2328 3040 
Q 2066 3103 1784 3103 
Q 1356 3103 1142 2972 
Q 928 2841 928 2578 
Q 928 2378 1081 2264 
Q 1234 2150 1697 2047 
L 1894 2003 
Q 2506 1872 2764 1633 
Q 3022 1394 3022 966 
Q 3022 478 2636 193 
Q 2250 -91 1575 -91 
Q 1294 -91 989 -36 
Q 684 19 347 128 
L 347 722 
Q 666 556 975 473 
Q 1284 391 1588 391 
Q 1994 391 2212 530 
Q 2431 669 2431 922 
Q 2431 1156 2273 1281 
Q 2116 1406 1581 1522 
L 1381 1569 
Q 847 1681 609 1914 
Q 372 2147 372 2553 
Q 372 3047 722 3315 
Q 1072 3584 1716 3584 
Q 2034 3584 2315 3537 
Q 2597 3491 2834 3397 
z
" transform="scale(0.015625)"/>
     </defs>
     <use xlink:href="#DejaVuSans-64"/>
     <use xlink:href="#DejaVuSans-69" x="63.476562"/>
     <use xlink:href="#DejaVuSans-73" x="91.259766"/>
     <use xlink:href="#DejaVuSans-74" x="143.359375"/>
     <use xlink:href="#DejaVuSans-61" x="182.568359"/>
     <use xlink:href="#DejaVuSans-6e" x="243.847656"/>
     <use xlink:href="#DejaVuSans-63" x="307.226562"/>
     <use xlink:href="#DejaVuSans-65" x="362.207031"/>
    </g>
   </g>
  </g>
  <g id="axes_2">
   <g id="patch_6">
    <path d="M 103.47875 218.92225 
L 148.31375 218.92225 
L 148.31375 31.99625 
L 103.47875 31.99625 
z
" style="fill: #ffffff"/>
   </g>
   <g id="matplotlib.axis_3">
    <g id="xtick_2">
     <g id="line2d_19">
      <g>
       <use xlink:href="#m0623b5604a" x="125.89625" y="218.92225" style="stroke: #000000; stroke-width: 0.8"/>
      </g>
     </g>
     <g id="text_10">
      <!-- Enzyme -->
      <g transform="translate(123.056719 265.639437) rotate(-90) scale(0.1 -0.1)">
       <use xlink:href="#DejaVuSans-45"/>
       <use xlink:href="#DejaVuSans-6e" x="63.183594"/>
       <use xlink:href="#DejaVuSans-7a" x="126.5625"/>
       <use xlink:href="#DejaVuSans-79" x="179.052734"/>
       <use xlink:href="#DejaVuSans-6d" x="238.232422"/>
       <use xlink:href="#DejaVuSans-65" x="335.644531"/>
      </g>
      <!-- activity -->
      <g transform="translate(134.254531 264.211312) rotate(-90) scale(0.1 -0.1)">
       <use xlink:href="#DejaVuSans-61"/>
       <use xlink:href="#DejaVuSans-63" x="61.279297"/>
       <use xlink:href="#DejaVuSans-74" x="116.259766"/>
       <use xlink:href="#DejaVuSans-69" x="155.46875"/>
       <use xlink:href="#DejaVuSans-76" x="183.251953"/>
       <use xlink:href="#DejaVuSans-69" x="242.431641"/>
       <use xlink:href="#DejaVuSans-74" x="270.214844"/>
       <use xlink:href="#DejaVuSans-79" x="309.423828"/>
      </g>
     </g>
    </g>
   </g>
   <g id="matplotlib.axis_4">
    <g id="ytick_7">
     <g id="line2d_20">
      <g>
       <use xlink:href="#mcd683042ad" x="103.47875" y="210.425614" style="stroke: #000000; stroke-width: 0.8"/>
      </g>
     </g>
    </g>
    <g id="ytick_8">
     <g id="line2d_21">
      <g>
       <use xlink:href="#mcd683042ad" x="103.47875" y="175.406335" style="stroke: #000000; stroke-width: 0.8"/>
      </g>
     </g>
    </g>
    <g id="ytick_9">
     <g id="line2d_22">
      <g>
       <use xlink:href="#mcd683042ad" x="103.47875" y="140.387056" style="stroke: #000000; stroke-width: 0.8"/>
      </g>
     </g>
    </g>
    <g id="ytick_10">
     <g id="line2d_23">
      <g>
       <use xlink:href="#mcd683042ad" x="103.47875" y="105.367777" style="stroke: #000000; stroke-width: 0.8"/>
      </g>
     </g>
    </g>
    <g id="ytick_11">
     <g id="line2d_24">
      <g>
       <use xlink:href="#mcd683042ad" x="103.47875" y="70.348498" style="stroke: #000000; stroke-width: 0.8"/>
      </g>
     </g>
    </g>
    <g id="ytick_12">
     <g id="line2d_25">
      <g>
       <use xlink:href="#mcd683042ad" x="103.47875" y="35.329219" style="stroke: #000000; stroke-width: 0.8"/>
      </g>
     </g>
    </g>
   </g>
   <g id="patch_7">
    <path d="M 119.171 159.726734 
L 132.6215 159.726734 
L 132.6215 92.004738 
L 119.171 92.004738 
L 119.171 159.726734 
L 119.171 159.726734 
z
" clip-path="url(#p0f987c03b2)" style="fill: none; stroke: #666666; stroke-linejoin: miter"/>
   </g>
   <g id="line2d_26">
    <path d="M 125.89625 159.726734 
L 125.89625 182.499698 
" clip-path="url(#p0f987c03b2)" style="fill: none; stroke: #3f3f3f"/>
   </g>
   <g id="line2d_27">
    <path d="M 125.89625 92.004738 
L 125.89625 67.313038 
" clip-path="url(#p0f987c03b2)" style="fill: none; stroke: #3f3f3f"/>
   </g>
   <g id="line2d_28">
    <path d="M 122.533625 182.499698 
L 129.258875 182.499698 
" clip-path="url(#p0f987c03b2)" style="fill: none; stroke: #3f3f3f; stroke-linecap: square"/>
   </g>
   <g id="line2d_29">
    <path d="M 122.533625 67.313038 
L 129.258875 67.313038 
" clip-path="url(#p0f987c03b2)" style="fill: none; stroke: #3f3f3f; stroke-linecap: square"/>
   </g>
   <g id="line2d_30"/>
   <g id="line2d_31">
    <path d="M 103.47875 210.425614 
L 148.31375 210.425614 
" clip-path="url(#p0f987c03b2)" style="fill: none; stroke-dasharray: 4.44,1.92; stroke-dashoffset: 0; stroke: #808080; stroke-width: 1.2"/>
   </g>
   <g id="line2d_32">
    <path d="M 119.171 126.185525 
L 132.6215 126.185525 
" clip-path="url(#p0f987c03b2)" style="fill: none; stroke: #3f3f3f"/>
   </g>
   <g id="patch_8">
    <path d="M 103.47875 218.92225 
L 103.47875 31.99625 
" style="fill: none; stroke: #000000; stroke-width: 0.8; stroke-linejoin: miter; stroke-linecap: square"/>
   </g>
   <g id="patch_9">
    <path d="M 103.47875 218.92225 
L 148.31375 218.92225 
" style="fill: none; stroke: #000000; stroke-width: 0.8; stroke-linejoin: miter; stroke-linecap: square"/>
   </g>
   <g id="PathCollection_2">
    <defs>
     <path id="C1_0_981d1dc249" d="M 0 3.75 
C 0.994512 3.75 1.948425 3.354876 2.65165 2.65165 
C 3.354876 1.948425 3.75 0.994512 3.75 -0 
C 3.75 -0.994512 3.354876 -1.948425 2.65165 -2.65165 
C 1.948425 -3.354876 0.994512 -3.75 0 -3.75 
C -0.994512 -3.75 -1.948425 -3.354876 -2.65165 -2.65165 
C -3.354876 -1.948425 -3.75 -0.994512 -3.75 0 
C -3.75 0.994512 -3.354876 1.948425 -2.65165 2.65165 
C -1.948425 3.354876 -0.994512 3.75 0 3.75 
z
"/>
    </defs>
    <g clip-path="url(#p0f987c03b2)">
     <use xlink:href="#C1_0_981d1dc249" x="129.562714" y="100.235305" style="fill: #1f77b4; fill-opacity: 0.8"/>
    </g>
    <g clip-path="url(#p0f987c03b2)">
     <use xlink:href="#C1_0_981d1dc249" x="121.595328" y="152.135746" style="fill: #ff7f0e; fill-opacity: 0.8"/>
    </g>
    <g clip-path="url(#p0f987c03b2)">
     <use xlink:href="#C1_0_981d1dc249" x="123.215427" y="182.499698" style="fill: #2ca02c; fill-opacity: 0.8"/>
    </g>
    <g clip-path="url(#p0f987c03b2)">
     <use xlink:href="#C1_0_981d1dc249" x="123.29809" y="67.313038" style="fill: #d62728; fill-opacity: 0.8"/>
    </g>
   </g>
   <g id="line2d_33"/>
   <g id="line2d_34"/>
   <g id="line2d_35"/>
   <g id="line2d_36"/>
   <g id="text_11">
    <!-- EVmutation -->
    <g transform="translate(96.675937 25.99625) scale(0.1 -0.1)">
     <defs>
      <path id="DejaVuSans-56" d="M 1831 0 
L 50 4666 
L 709 4666 
L 2188 738 
L 3669 4666 
L 4325 4666 
L 2547 0 
L 1831 0 
z
" transform="scale(0.015625)"/>
      <path id="DejaVuSans-75" d="M 544 1381 
L 544 3500 
L 1119 3500 
L 1119 1403 
Q 1119 906 1312 657 
Q 1506 409 1894 409 
Q 2359 409 2629 706 
Q 2900 1003 2900 1516 
L 2900 3500 
L 3475 3500 
L 3475 0 
L 2900 0 
L 2900 538 
Q 2691 219 2414 64 
Q 2138 -91 1772 -91 
Q 1169 -91 856 284 
Q 544 659 544 1381 
z
M 1991 3584 
L 1991 3584 
z
" transform="scale(0.015625)"/>
      <path id="DejaVuSans-6f" d="M 1959 3097 
Q 1497 3097 1228 2736 
Q 959 2375 959 1747 
Q 959 1119 1226 758 
Q 1494 397 1959 397 
Q 2419 397 2687 759 
Q 2956 1122 2956 1747 
Q 2956 2369 2687 2733 
Q 2419 3097 1959 3097 
z
M 1959 3584 
Q 2709 3584 3137 3096 
Q 3566 2609 3566 1747 
Q 3566 888 3137 398 
Q 2709 -91 1959 -91 
Q 1206 -91 779 398 
Q 353 888 353 1747 
Q 353 2609 779 3096 
Q 1206 3584 1959 3584 
z
" transform="scale(0.015625)"/>
     </defs>
     <use xlink:href="#DejaVuSans-45"/>
     <use xlink:href="#DejaVuSans-56" x="63.183594"/>
     <use xlink:href="#DejaVuSans-6d" x="131.591797"/>
     <use xlink:href="#DejaVuSans-75" x="229.003906"/>
     <use xlink:href="#DejaVuSans-74" x="292.382812"/>
     <use xlink:href="#DejaVuSans-61" x="331.591797"/>
     <use xlink:href="#DejaVuSans-74" x="392.871094"/>
     <use xlink:href="#DejaVuSans-69" x="432.080078"/>
     <use xlink:href="#DejaVuSans-6f" x="459.863281"/>
     <use xlink:href="#DejaVuSans-6e" x="521.044922"/>
    </g>
   </g>
  </g>
  <g id="axes_3">
   <g id="patch_10">
    <path d="M 156.81375 218.92225 
L 201.64875 218.92225 
L 201.64875 31.99625 
L 156.81375 31.99625 
z
" style="fill: #ffffff"/>
   </g>
   <g id="matplotlib.axis_5">
    <g id="xtick_3">
     <g id="line2d_37">
      <g>
       <use xlink:href="#m0623b5604a" x="179.23125" y="218.92225" style="stroke: #000000; stroke-width: 0.8"/>
      </g>
     </g>
     <g id="text_12">
      <!-- Enzyme -->
      <g transform="translate(176.391719 265.639437) rotate(-90) scale(0.1 -0.1)">
       <use xlink:href="#DejaVuSans-45"/>
       <use xlink:href="#DejaVuSans-6e" x="63.183594"/>
       <use xlink:href="#DejaVuSans-7a" x="126.5625"/>
       <use xlink:href="#DejaVuSans-79" x="179.052734"/>
       <use xlink:href="#DejaVuSans-6d" x="238.232422"/>
       <use xlink:href="#DejaVuSans-65" x="335.644531"/>
      </g>
      <!-- activity -->
      <g transform="translate(187.589531 264.211312) rotate(-90) scale(0.1 -0.1)">
       <use xlink:href="#DejaVuSans-61"/>
       <use xlink:href="#DejaVuSans-63" x="61.279297"/>
       <use xlink:href="#DejaVuSans-74" x="116.259766"/>
       <use xlink:href="#DejaVuSans-69" x="155.46875"/>
       <use xlink:href="#DejaVuSans-76" x="183.251953"/>
       <use xlink:href="#DejaVuSans-69" x="242.431641"/>
       <use xlink:href="#DejaVuSans-74" x="270.214844"/>
       <use xlink:href="#DejaVuSans-79" x="309.423828"/>
      </g>
     </g>
    </g>
   </g>
   <g id="matplotlib.axis_6">
    <g id="ytick_13">
     <g id="line2d_38">
      <g>
       <use xlink:href="#mcd683042ad" x="156.81375" y="210.425614" style="stroke: #000000; stroke-width: 0.8"/>
      </g>
     </g>
    </g>
    <g id="ytick_14">
     <g id="line2d_39">
      <g>
       <use xlink:href="#mcd683042ad" x="156.81375" y="175.406335" style="stroke: #000000; stroke-width: 0.8"/>
      </g>
     </g>
    </g>
    <g id="ytick_15">
     <g id="line2d_40">
      <g>
       <use xlink:href="#mcd683042ad" x="156.81375" y="140.387056" style="stroke: #000000; stroke-width: 0.8"/>
      </g>
     </g>
    </g>
    <g id="ytick_16">
     <g id="line2d_41">
      <g>
       <use xlink:href="#mcd683042ad" x="156.81375" y="105.367777" style="stroke: #000000; stroke-width: 0.8"/>
      </g>
     </g>
    </g>
    <g id="ytick_17">
     <g id="line2d_42">
      <g>
       <use xlink:href="#mcd683042ad" x="156.81375" y="70.348498" style="stroke: #000000; stroke-width: 0.8"/>
      </g>
     </g>
    </g>
    <g id="ytick_18">
     <g id="line2d_43">
      <g>
       <use xlink:href="#mcd683042ad" x="156.81375" y="35.329219" style="stroke: #000000; stroke-width: 0.8"/>
      </g>
     </g>
    </g>
   </g>
   <g id="patch_11">
    <path d="M 172.506 112.464665 
L 185.9565 112.464665 
L 185.9565 79.596819 
L 172.506 79.596819 
L 172.506 112.464665 
L 172.506 112.464665 
z
" clip-path="url(#p93f58ebf81)" style="fill: none; stroke: #666666; stroke-linejoin: miter"/>
   </g>
   <g id="line2d_44">
    <path d="M 179.23125 112.464665 
L 179.23125 154.318585 
" clip-path="url(#p93f58ebf81)" style="fill: none; stroke: #3f3f3f"/>
   </g>
   <g id="line2d_45">
    <path d="M 179.23125 79.596819 
L 179.23125 77.008049 
" clip-path="url(#p93f58ebf81)" style="fill: none; stroke: #3f3f3f"/>
   </g>
   <g id="line2d_46">
    <path d="M 175.868625 154.318585 
L 182.593875 154.318585 
" clip-path="url(#p93f58ebf81)" style="fill: none; stroke: #3f3f3f; stroke-linecap: square"/>
   </g>
   <g id="line2d_47">
    <path d="M 175.868625 77.008049 
L 182.593875 77.008049 
" clip-path="url(#p93f58ebf81)" style="fill: none; stroke: #3f3f3f; stroke-linecap: square"/>
   </g>
   <g id="line2d_48"/>
   <g id="line2d_49">
    <path d="M 156.81375 210.425614 
L 201.64875 210.425614 
" clip-path="url(#p93f58ebf81)" style="fill: none; stroke-dasharray: 4.44,1.92; stroke-dashoffset: 0; stroke: #808080; stroke-width: 1.2"/>
   </g>
   <g id="line2d_50">
    <path d="M 172.506 89.486551 
L 185.9565 89.486551 
" clip-path="url(#p93f58ebf81)" style="fill: none; stroke: #3f3f3f"/>
   </g>
   <g id="patch_12">
    <path d="M 156.81375 218.92225 
L 156.81375 31.99625 
" style="fill: none; stroke: #000000; stroke-width: 0.8; stroke-linejoin: miter; stroke-linecap: square"/>
   </g>
   <g id="patch_13">
    <path d="M 156.81375 218.92225 
L 201.64875 218.92225 
" style="fill: none; stroke: #000000; stroke-width: 0.8; stroke-linejoin: miter; stroke-linecap: square"/>
   </g>
   <g id="PathCollection_3">
    <defs>
     <path id="C2_0_e32d4e4ee4" d="M 0 3.75 
C 0.994512 3.75 1.948425 3.354876 2.65165 2.65165 
C 3.354876 1.948425 3.75 0.994512 3.75 -0 
C 3.75 -0.994512 3.354876 -1.948425 2.65165 -2.65165 
C 1.948425 -3.354876 0.994512 -3.75 0 -3.75 
C -0.994512 -3.75 -1.948425 -3.354876 -2.65165 -2.65165 
C -3.354876 -1.948425 -3.75 -0.994512 -3.75 0 
C -3.75 0.994512 -3.354876 1.948425 -2.65165 2.65165 
C -1.948425 3.354876 -0.994512 3.75 0 3.75 
z
"/>
    </defs>
    <g clip-path="url(#p93f58ebf81)">
     <use xlink:href="#C2_0_e32d4e4ee4" x="177.4959" y="77.008049" style="fill: #1f77b4; fill-opacity: 0.8"/>
    </g>
    <g clip-path="url(#p93f58ebf81)">
     <use xlink:href="#C2_0_e32d4e4ee4" x="183.536017" y="98.513359" style="fill: #ff7f0e; fill-opacity: 0.8"/>
    </g>
    <g clip-path="url(#p93f58ebf81)">
     <use xlink:href="#C2_0_e32d4e4ee4" x="179.042785" y="154.318585" style="fill: #2ca02c; fill-opacity: 0.8"/>
    </g>
    <g clip-path="url(#p93f58ebf81)">
     <use xlink:href="#C2_0_e32d4e4ee4" x="177.066348" y="80.459743" style="fill: #d62728; fill-opacity: 0.8"/>
    </g>
   </g>
   <g id="line2d_51"/>
   <g id="line2d_52"/>
   <g id="line2d_53"/>
   <g id="line2d_54"/>
   <g id="text_13">
    <!-- ESM -->
    <g transform="translate(168.583594 25.99625) scale(0.1 -0.1)">
     <defs>
      <path id="DejaVuSans-53" d="M 3425 4513 
L 3425 3897 
Q 3066 4069 2747 4153 
Q 2428 4238 2131 4238 
Q 1616 4238 1336 4038 
Q 1056 3838 1056 3469 
Q 1056 3159 1242 3001 
Q 1428 2844 1947 2747 
L 2328 2669 
Q 3034 2534 3370 2195 
Q 3706 1856 3706 1288 
Q 3706 609 3251 259 
Q 2797 -91 1919 -91 
Q 1588 -91 1214 -16 
Q 841 59 441 206 
L 441 856 
Q 825 641 1194 531 
Q 1563 422 1919 422 
Q 2459 422 2753 634 
Q 3047 847 3047 1241 
Q 3047 1584 2836 1778 
Q 2625 1972 2144 2069 
L 1759 2144 
Q 1053 2284 737 2584 
Q 422 2884 422 3419 
Q 422 4038 858 4394 
Q 1294 4750 2059 4750 
Q 2388 4750 2728 4690 
Q 3069 4631 3425 4513 
z
" transform="scale(0.015625)"/>
      <path id="DejaVuSans-4d" d="M 628 4666 
L 1569 4666 
L 2759 1491 
L 3956 4666 
L 4897 4666 
L 4897 0 
L 4281 0 
L 4281 4097 
L 3078 897 
L 2444 897 
L 1241 4097 
L 1241 0 
L 628 0 
L 628 4666 
z
" transform="scale(0.015625)"/>
     </defs>
     <use xlink:href="#DejaVuSans-45"/>
     <use xlink:href="#DejaVuSans-53" x="63.183594"/>
     <use xlink:href="#DejaVuSans-4d" x="126.660156"/>
    </g>
   </g>
  </g>
  <g id="axes_4">
   <g id="patch_14">
    <path d="M 210.14875 218.92225 
L 254.98375 218.92225 
L 254.98375 31.99625 
L 210.14875 31.99625 
z
" style="fill: #ffffff"/>
   </g>
   <g id="matplotlib.axis_7">
    <g id="xtick_4">
     <g id="line2d_55">
      <g>
       <use xlink:href="#m0623b5604a" x="232.56625" y="218.92225" style="stroke: #000000; stroke-width: 0.8"/>
      </g>
     </g>
     <g id="text_14">
      <!-- Enzyme -->
      <g transform="translate(229.726719 265.639437) rotate(-90) scale(0.1 -0.1)">
       <use xlink:href="#DejaVuSans-45"/>
       <use xlink:href="#DejaVuSans-6e" x="63.183594"/>
       <use xlink:href="#DejaVuSans-7a" x="126.5625"/>
       <use xlink:href="#DejaVuSans-79" x="179.052734"/>
       <use xlink:href="#DejaVuSans-6d" x="238.232422"/>
       <use xlink:href="#DejaVuSans-65" x="335.644531"/>
      </g>
      <!-- activity -->
      <g transform="translate(240.924531 264.211312) rotate(-90) scale(0.1 -0.1)">
       <use xlink:href="#DejaVuSans-61"/>
       <use xlink:href="#DejaVuSans-63" x="61.279297"/>
       <use xlink:href="#DejaVuSans-74" x="116.259766"/>
       <use xlink:href="#DejaVuSans-69" x="155.46875"/>
       <use xlink:href="#DejaVuSans-76" x="183.251953"/>
       <use xlink:href="#DejaVuSans-69" x="242.431641"/>
       <use xlink:href="#DejaVuSans-74" x="270.214844"/>
       <use xlink:href="#DejaVuSans-79" x="309.423828"/>
      </g>
     </g>
    </g>
   </g>
   <g id="matplotlib.axis_8">
    <g id="ytick_19">
     <g id="line2d_56">
      <g>
       <use xlink:href="#mcd683042ad" x="210.14875" y="210.425614" style="stroke: #000000; stroke-width: 0.8"/>
      </g>
     </g>
    </g>
    <g id="ytick_20">
     <g id="line2d_57">
      <g>
       <use xlink:href="#mcd683042ad" x="210.14875" y="175.406335" style="stroke: #000000; stroke-width: 0.8"/>
      </g>
     </g>
    </g>
    <g id="ytick_21">
     <g id="line2d_58">
      <g>
       <use xlink:href="#mcd683042ad" x="210.14875" y="140.387056" style="stroke: #000000; stroke-width: 0.8"/>
      </g>
     </g>
    </g>
    <g id="ytick_22">
     <g id="line2d_59">
      <g>
       <use xlink:href="#mcd683042ad" x="210.14875" y="105.367777" style="stroke: #000000; stroke-width: 0.8"/>
      </g>
     </g>
    </g>
    <g id="ytick_23">
     <g id="line2d_60">
      <g>
       <use xlink:href="#mcd683042ad" x="210.14875" y="70.348498" style="stroke: #000000; stroke-width: 0.8"/>
      </g>
     </g>
    </g>
    <g id="ytick_24">
     <g id="line2d_61">
      <g>
       <use xlink:href="#mcd683042ad" x="210.14875" y="35.329219" style="stroke: #000000; stroke-width: 0.8"/>
      </g>
     </g>
    </g>
   </g>
   <g id="patch_15">
    <path d="M 225.841 162.812932 
L 239.2915 162.812932 
L 239.2915 85.495948 
L 225.841 85.495948 
L 225.841 162.812932 
L 225.841 162.812932 
z
" clip-path="url(#p56f1b9942f)" style="fill: none; stroke: #666666; stroke-linejoin: miter"/>
   </g>
   <g id="line2d_62">
    <path d="M 232.56625 162.812932 
L 232.56625 180.08852 
" clip-path="url(#p56f1b9942f)" style="fill: none; stroke: #3f3f3f"/>
   </g>
   <g id="line2d_63">
    <path d="M 232.56625 85.495948 
L 232.56625 69.491186 
" clip-path="url(#p56f1b9942f)" style="fill: none; stroke: #3f3f3f"/>
   </g>
   <g id="line2d_64">
    <path d="M 229.203625 180.08852 
L 235.928875 180.08852 
" clip-path="url(#p56f1b9942f)" style="fill: none; stroke: #3f3f3f; stroke-linecap: square"/>
   </g>
   <g id="line2d_65">
    <path d="M 229.203625 69.491186 
L 235.928875 69.491186 
" clip-path="url(#p56f1b9942f)" style="fill: none; stroke: #3f3f3f; stroke-linecap: square"/>
   </g>
   <g id="line2d_66"/>
   <g id="line2d_67">
    <path d="M 210.14875 210.425614 
L 254.98375 210.425614 
" clip-path="url(#p56f1b9942f)" style="fill: none; stroke-dasharray: 4.44,1.92; stroke-dashoffset: 0; stroke: #808080; stroke-width: 1.2"/>
   </g>
   <g id="line2d_68">
    <path d="M 225.841 123.942636 
L 239.2915 123.942636 
" clip-path="url(#p56f1b9942f)" style="fill: none; stroke: #3f3f3f"/>
   </g>
   <g id="patch_16">
    <path d="M 210.14875 218.92225 
L 210.14875 31.99625 
" style="fill: none; stroke: #000000; stroke-width: 0.8; stroke-linejoin: miter; stroke-linecap: square"/>
   </g>
   <g id="patch_17">
    <path d="M 210.14875 218.92225 
L 254.98375 218.92225 
" style="fill: none; stroke: #000000; stroke-width: 0.8; stroke-linejoin: miter; stroke-linecap: square"/>
   </g>
   <g id="PathCollection_4">
    <defs>
     <path id="C3_0_17d80744b0" d="M 0 3.75 
C 0.994512 3.75 1.948425 3.354876 2.65165 2.65165 
C 3.354876 1.948425 3.75 0.994512 3.75 -0 
C 3.75 -0.994512 3.354876 -1.948425 2.65165 -2.65165 
C 1.948425 -3.354876 0.994512 -3.75 0 -3.75 
C -0.994512 -3.75 -1.948425 -3.354876 -2.65165 -2.65165 
C -3.354876 -1.948425 -3.75 -0.994512 -3.75 0 
C -3.75 0.994512 -3.354876 1.948425 -2.65165 2.65165 
C -1.948425 3.354876 -0.994512 3.75 0 3.75 
z
"/>
    </defs>
    <g clip-path="url(#p56f1b9942f)">
     <use xlink:href="#C3_0_17d80744b0" x="236.47658" y="69.491186" style="fill: #1f77b4; fill-opacity: 0.8"/>
    </g>
    <g clip-path="url(#p56f1b9942f)">
     <use xlink:href="#C3_0_17d80744b0" x="235.23833" y="157.054403" style="fill: #ff7f0e; fill-opacity: 0.8"/>
    </g>
    <g clip-path="url(#p56f1b9942f)">
     <use xlink:href="#C3_0_17d80744b0" x="236.987951" y="180.08852" style="fill: #2ca02c; fill-opacity: 0.8"/>
    </g>
    <g clip-path="url(#p56f1b9942f)">
     <use xlink:href="#C3_0_17d80744b0" x="231.386732" y="90.830869" style="fill: #d62728; fill-opacity: 0.8"/>
    </g>
   </g>
   <g id="line2d_69"/>
   <g id="line2d_70"/>
   <g id="line2d_71"/>
   <g id="line2d_72"/>
   <g id="text_15">
    <!-- ESM-IF -->
    <g transform="translate(215.763906 25.99625) scale(0.1 -0.1)">
     <defs>
      <path id="DejaVuSans-49" d="M 628 4666 
L 1259 4666 
L 1259 0 
L 628 0 
L 628 4666 
z
" transform="scale(0.015625)"/>
      <path id="DejaVuSans-46" d="M 628 4666 
L 3309 4666 
L 3309 4134 
L 1259 4134 
L 1259 2759 
L 3109 2759 
L 3109 2228 
L 1259 2228 
L 1259 0 
L 628 0 
L 628 4666 
z
" transform="scale(0.015625)"/>
     </defs>
     <use xlink:href="#DejaVuSans-45"/>
     <use xlink:href="#DejaVuSans-53" x="63.183594"/>
     <use xlink:href="#DejaVuSans-4d" x="126.660156"/>
     <use xlink:href="#DejaVuSans-2d" x="212.939453"/>
     <use xlink:href="#DejaVuSans-49" x="249.023438"/>
     <use xlink:href="#DejaVuSans-46" x="278.515625"/>
    </g>
   </g>
  </g>
  <g id="axes_5">
   <g id="patch_18">
    <path d="M 263.48375 218.92225 
L 308.31875 218.92225 
L 308.31875 31.99625 
L 263.48375 31.99625 
z
" style="fill: #ffffff"/>
   </g>
   <g id="matplotlib.axis_9">
    <g id="xtick_5">
     <g id="line2d_73">
      <g>
       <use xlink:href="#m0623b5604a" x="285.90125" y="218.92225" style="stroke: #000000; stroke-width: 0.8"/>
      </g>
     </g>
     <g id="text_16">
      <!-- Enzyme -->
      <g transform="translate(283.061719 265.639437) rotate(-90) scale(0.1 -0.1)">
       <use xlink:href="#DejaVuSans-45"/>
       <use xlink:href="#DejaVuSans-6e" x="63.183594"/>
       <use xlink:href="#DejaVuSans-7a" x="126.5625"/>
       <use xlink:href="#DejaVuSans-79" x="179.052734"/>
       <use xlink:href="#DejaVuSans-6d" x="238.232422"/>
       <use xlink:href="#DejaVuSans-65" x="335.644531"/>
      </g>
      <!-- activity -->
      <g transform="translate(294.259531 264.211312) rotate(-90) scale(0.1 -0.1)">
       <use xlink:href="#DejaVuSans-61"/>
       <use xlink:href="#DejaVuSans-63" x="61.279297"/>
       <use xlink:href="#DejaVuSans-74" x="116.259766"/>
       <use xlink:href="#DejaVuSans-69" x="155.46875"/>
       <use xlink:href="#DejaVuSans-76" x="183.251953"/>
       <use xlink:href="#DejaVuSans-69" x="242.431641"/>
       <use xlink:href="#DejaVuSans-74" x="270.214844"/>
       <use xlink:href="#DejaVuSans-79" x="309.423828"/>
      </g>
     </g>
    </g>
   </g>
   <g id="matplotlib.axis_10">
    <g id="ytick_25">
     <g id="line2d_74">
      <g>
       <use xlink:href="#mcd683042ad" x="263.48375" y="210.425614" style="stroke: #000000; stroke-width: 0.8"/>
      </g>
     </g>
    </g>
    <g id="ytick_26">
     <g id="line2d_75">
      <g>
       <use xlink:href="#mcd683042ad" x="263.48375" y="175.406335" style="stroke: #000000; stroke-width: 0.8"/>
      </g>
     </g>
    </g>
    <g id="ytick_27">
     <g id="line2d_76">
      <g>
       <use xlink:href="#mcd683042ad" x="263.48375" y="140.387056" style="stroke: #000000; stroke-width: 0.8"/>
      </g>
     </g>
    </g>
    <g id="ytick_28">
     <g id="line2d_77">
      <g>
       <use xlink:href="#mcd683042ad" x="263.48375" y="105.367777" style="stroke: #000000; stroke-width: 0.8"/>
      </g>
     </g>
    </g>
    <g id="ytick_29">
     <g id="line2d_78">
      <g>
       <use xlink:href="#mcd683042ad" x="263.48375" y="70.348498" style="stroke: #000000; stroke-width: 0.8"/>
      </g>
     </g>
    </g>
    <g id="ytick_30">
     <g id="line2d_79">
      <g>
       <use xlink:href="#mcd683042ad" x="263.48375" y="35.329219" style="stroke: #000000; stroke-width: 0.8"/>
      </g>
     </g>
    </g>
   </g>
   <g id="patch_19">
    <path d="M 279.176 77.582245 
L 292.6265 77.582245 
L 292.6265 45.649496 
L 279.176 45.649496 
L 279.176 77.582245 
L 279.176 77.582245 
z
" clip-path="url(#p70e054cb0b)" style="fill: none; stroke: #666666; stroke-linejoin: miter"/>
   </g>
   <g id="line2d_80">
    <path d="M 285.90125 77.582245 
L 285.90125 100.293537 
" clip-path="url(#p70e054cb0b)" style="fill: none; stroke: #3f3f3f"/>
   </g>
   <g id="line2d_81">
    <path d="M 285.90125 45.649496 
L 285.90125 40.492886 
" clip-path="url(#p70e054cb0b)" style="fill: none; stroke: #3f3f3f"/>
   </g>
   <g id="line2d_82">
    <path d="M 282.538625 100.293537 
L 289.263875 100.293537 
" clip-path="url(#p70e054cb0b)" style="fill: none; stroke: #3f3f3f; stroke-linecap: square"/>
   </g>
   <g id="line2d_83">
    <path d="M 282.538625 40.492886 
L 289.263875 40.492886 
" clip-path="url(#p70e054cb0b)" style="fill: none; stroke: #3f3f3f; stroke-linecap: square"/>
   </g>
   <g id="line2d_84"/>
   <g id="line2d_85">
    <path d="M 263.48375 210.425614 
L 308.31875 210.425614 
" clip-path="url(#p70e054cb0b)" style="fill: none; stroke-dasharray: 4.44,1.92; stroke-dashoffset: 0; stroke: #808080; stroke-width: 1.2"/>
   </g>
   <g id="line2d_86">
    <path d="M 279.176 58.69009 
L 292.6265 58.69009 
" clip-path="url(#p70e054cb0b)" style="fill: none; stroke: #3f3f3f"/>
   </g>
   <g id="patch_20">
    <path d="M 263.48375 218.92225 
L 263.48375 31.99625 
" style="fill: none; stroke: #000000; stroke-width: 0.8; stroke-linejoin: miter; stroke-linecap: square"/>
   </g>
   <g id="patch_21">
    <path d="M 263.48375 218.92225 
L 308.31875 218.92225 
" style="fill: none; stroke: #000000; stroke-width: 0.8; stroke-linejoin: miter; stroke-linecap: square"/>
   </g>
   <g id="PathCollection_5">
    <defs>
     <path id="C4_0_951c51a7c7" d="M 0 3.75 
C 0.994512 3.75 1.948425 3.354876 2.65165 2.65165 
C 3.354876 1.948425 3.75 0.994512 3.75 -0 
C 3.75 -0.994512 3.354876 -1.948425 2.65165 -2.65165 
C 1.948425 -3.354876 0.994512 -3.75 0 -3.75 
C -0.994512 -3.75 -1.948425 -3.354876 -2.65165 -2.65165 
C -3.354876 -1.948425 -3.75 -0.994512 -3.75 0 
C -3.75 0.994512 -3.354876 1.948425 -2.65165 2.65165 
C -1.948425 3.354876 -0.994512 3.75 0 3.75 
z
"/>
    </defs>
    <g clip-path="url(#p70e054cb0b)">
     <use xlink:href="#C4_0_951c51a7c7" x="284.397114" y="70.011815" style="fill: #1f77b4; fill-opacity: 0.8"/>
    </g>
    <g clip-path="url(#p70e054cb0b)">
     <use xlink:href="#C4_0_951c51a7c7" x="285.681226" y="100.293537" style="fill: #ff7f0e; fill-opacity: 0.8"/>
    </g>
    <g clip-path="url(#p70e054cb0b)">
     <use xlink:href="#C4_0_951c51a7c7" x="283.464301" y="40.492886" style="fill: #2ca02c; fill-opacity: 0.8"/>
    </g>
    <g clip-path="url(#p70e054cb0b)">
     <use xlink:href="#C4_0_951c51a7c7" x="285.25014" y="47.368366" style="fill: #d62728; fill-opacity: 0.8"/>
    </g>
   </g>
   <g id="line2d_87"/>
   <g id="line2d_88"/>
   <g id="line2d_89"/>
   <g id="line2d_90"/>
   <g id="text_17">
    <!-- CoVES -->
    <g transform="translate(269.596562 25.99625) scale(0.1 -0.1)">
     <use xlink:href="#DejaVuSans-43"/>
     <use xlink:href="#DejaVuSans-6f" x="69.824219"/>
     <use xlink:href="#DejaVuSans-56" x="131.005859"/>
     <use xlink:href="#DejaVuSans-45" x="199.414062"/>
     <use xlink:href="#DejaVuSans-53" x="262.597656"/>
    </g>
   </g>
  </g>
  <g id="axes_6">
   <g id="patch_22">
    <path d="M 316.81875 218.92225 
L 361.65375 218.92225 
L 361.65375 31.99625 
L 316.81875 31.99625 
z
" style="fill: #ffffff"/>
   </g>
   <g id="matplotlib.axis_11">
    <g id="xtick_6">
     <g id="line2d_91">
      <g>
       <use xlink:href="#m0623b5604a" x="339.23625" y="218.92225" style="stroke: #000000; stroke-width: 0.8"/>
      </g>
     </g>
     <g id="text_18">
      <!-- Enzyme -->
      <g transform="translate(336.396719 265.639437) rotate(-90) scale(0.1 -0.1)">
       <use xlink:href="#DejaVuSans-45"/>
       <use xlink:href="#DejaVuSans-6e" x="63.183594"/>
       <use xlink:href="#DejaVuSans-7a" x="126.5625"/>
       <use xlink:href="#DejaVuSans-79" x="179.052734"/>
       <use xlink:href="#DejaVuSans-6d" x="238.232422"/>
       <use xlink:href="#DejaVuSans-65" x="335.644531"/>
      </g>
      <!-- activity -->
      <g transform="translate(347.594531 264.211312) rotate(-90) scale(0.1 -0.1)">
       <use xlink:href="#DejaVuSans-61"/>
       <use xlink:href="#DejaVuSans-63" x="61.279297"/>
       <use xlink:href="#DejaVuSans-74" x="116.259766"/>
       <use xlink:href="#DejaVuSans-69" x="155.46875"/>
       <use xlink:href="#DejaVuSans-76" x="183.251953"/>
       <use xlink:href="#DejaVuSans-69" x="242.431641"/>
       <use xlink:href="#DejaVuSans-74" x="270.214844"/>
       <use xlink:href="#DejaVuSans-79" x="309.423828"/>
      </g>
     </g>
    </g>
   </g>
   <g id="matplotlib.axis_12">
    <g id="ytick_31">
     <g id="line2d_92">
      <g>
       <use xlink:href="#mcd683042ad" x="316.81875" y="210.425614" style="stroke: #000000; stroke-width: 0.8"/>
      </g>
     </g>
    </g>
    <g id="ytick_32">
     <g id="line2d_93">
      <g>
       <use xlink:href="#mcd683042ad" x="316.81875" y="175.406335" style="stroke: #000000; stroke-width: 0.8"/>
      </g>
     </g>
    </g>
    <g id="ytick_33">
     <g id="line2d_94">
      <g>
       <use xlink:href="#mcd683042ad" x="316.81875" y="140.387056" style="stroke: #000000; stroke-width: 0.8"/>
      </g>
     </g>
    </g>
    <g id="ytick_34">
     <g id="line2d_95">
      <g>
       <use xlink:href="#mcd683042ad" x="316.81875" y="105.367777" style="stroke: #000000; stroke-width: 0.8"/>
      </g>
     </g>
    </g>
    <g id="ytick_35">
     <g id="line2d_96">
      <g>
       <use xlink:href="#mcd683042ad" x="316.81875" y="70.348498" style="stroke: #000000; stroke-width: 0.8"/>
      </g>
     </g>
    </g>
    <g id="ytick_36">
     <g id="line2d_97">
      <g>
       <use xlink:href="#mcd683042ad" x="316.81875" y="35.329219" style="stroke: #000000; stroke-width: 0.8"/>
      </g>
     </g>
    </g>
   </g>
   <g id="patch_23">
    <path d="M 332.511 108.424942 
L 345.9615 108.424942 
L 345.9615 91.600313 
L 332.511 91.600313 
L 332.511 108.424942 
L 332.511 108.424942 
z
" clip-path="url(#p5cdbfef65e)" style="fill: none; stroke: #666666; stroke-linejoin: miter"/>
   </g>
   <g id="line2d_98">
    <path d="M 339.23625 108.424942 
L 339.23625 125.28388 
" clip-path="url(#p5cdbfef65e)" style="fill: none; stroke: #3f3f3f"/>
   </g>
   <g id="line2d_99">
    <path d="M 339.23625 91.600313 
L 339.23625 81.008133 
" clip-path="url(#p5cdbfef65e)" style="fill: none; stroke: #3f3f3f"/>
   </g>
   <g id="line2d_100">
    <path d="M 335.873625 125.28388 
L 342.598875 125.28388 
" clip-path="url(#p5cdbfef65e)" style="fill: none; stroke: #3f3f3f; stroke-linecap: square"/>
   </g>
   <g id="line2d_101">
    <path d="M 335.873625 81.008133 
L 342.598875 81.008133 
" clip-path="url(#p5cdbfef65e)" style="fill: none; stroke: #3f3f3f; stroke-linecap: square"/>
   </g>
   <g id="line2d_102"/>
   <g id="line2d_103">
    <path d="M 316.81875 210.425614 
L 361.65375 210.425614 
" clip-path="url(#p5cdbfef65e)" style="fill: none; stroke-dasharray: 4.44,1.92; stroke-dashoffset: 0; stroke: #808080; stroke-width: 1.2"/>
   </g>
   <g id="line2d_104">
    <path d="M 332.511 98.968168 
L 345.9615 98.968168 
" clip-path="url(#p5cdbfef65e)" style="fill: none; stroke: #3f3f3f"/>
   </g>
   <g id="patch_24">
    <path d="M 316.81875 218.92225 
L 316.81875 31.99625 
" style="fill: none; stroke: #000000; stroke-width: 0.8; stroke-linejoin: miter; stroke-linecap: square"/>
   </g>
   <g id="patch_25">
    <path d="M 316.81875 218.92225 
L 361.65375 218.92225 
" style="fill: none; stroke: #000000; stroke-width: 0.8; stroke-linejoin: miter; stroke-linecap: square"/>
   </g>
   <g id="PathCollection_6">
    <defs>
     <path id="C5_0_4578602201" d="M 0 3.75 
C 0.994512 3.75 1.948425 3.354876 2.65165 2.65165 
C 3.354876 1.948425 3.75 0.994512 3.75 -0 
C 3.75 -0.994512 3.354876 -1.948425 2.65165 -2.65165 
C 1.948425 -3.354876 0.994512 -3.75 0 -3.75 
C -0.994512 -3.75 -1.948425 -3.354876 -2.65165 -2.65165 
C -3.354876 -1.948425 -3.75 -0.994512 -3.75 0 
C -3.75 0.994512 -3.354876 1.948425 -2.65165 2.65165 
C -1.948425 3.354876 -0.994512 3.75 0 3.75 
z
"/>
    </defs>
    <g clip-path="url(#p5cdbfef65e)">
     <use xlink:href="#C5_0_4578602201" x="338.362736" y="95.13104" style="fill: #1f77b4; fill-opacity: 0.8"/>
    </g>
    <g clip-path="url(#p5cdbfef65e)">
     <use xlink:href="#C5_0_4578602201" x="339.545195" y="102.805296" style="fill: #ff7f0e; fill-opacity: 0.8"/>
    </g>
    <g clip-path="url(#p5cdbfef65e)">
     <use xlink:href="#C5_0_4578602201" x="341.018728" y="125.28388" style="fill: #2ca02c; fill-opacity: 0.8"/>
    </g>
    <g clip-path="url(#p5cdbfef65e)">
     <use xlink:href="#C5_0_4578602201" x="336.782772" y="81.008133" style="fill: #d62728; fill-opacity: 0.8"/>
    </g>
   </g>
   <g id="line2d_105"/>
   <g id="line2d_106"/>
   <g id="line2d_107"/>
   <g id="line2d_108"/>
   <g id="text_19">
    <!-- Triad -->
    <g transform="translate(327.237031 25.99625) scale(0.1 -0.1)">
     <defs>
      <path id="DejaVuSans-54" d="M -19 4666 
L 3928 4666 
L 3928 4134 
L 2272 4134 
L 2272 0 
L 1638 0 
L 1638 4134 
L -19 4134 
L -19 4666 
z
" transform="scale(0.015625)"/>
      <path id="DejaVuSans-72" d="M 2631 2963 
Q 2534 3019 2420 3045 
Q 2306 3072 2169 3072 
Q 1681 3072 1420 2755 
Q 1159 2438 1159 1844 
L 1159 0 
L 581 0 
L 581 3500 
L 1159 3500 
L 1159 2956 
Q 1341 3275 1631 3429 
Q 1922 3584 2338 3584 
Q 2397 3584 2469 3576 
Q 2541 3569 2628 3553 
L 2631 2963 
z
" transform="scale(0.015625)"/>
     </defs>
     <use xlink:href="#DejaVuSans-54"/>
     <use xlink:href="#DejaVuSans-72" x="46.333984"/>
     <use xlink:href="#DejaVuSans-69" x="87.447266"/>
     <use xlink:href="#DejaVuSans-61" x="115.230469"/>
     <use xlink:href="#DejaVuSans-64" x="176.509766"/>
    </g>
   </g>
   <g id="legend_1">
    <g id="patch_26">
     <path d="M 368.65375 94.0356 
L 436.489687 94.0356 
Q 438.489687 94.0356 438.489687 92.0356 
L 438.489687 34.3231 
Q 438.489687 32.3231 436.489687 32.3231 
L 368.65375 32.3231 
Q 366.65375 32.3231 366.65375 34.3231 
L 366.65375 92.0356 
Q 366.65375 94.0356 368.65375 94.0356 
z
" style="fill: #ffffff; opacity: 0.8; stroke: #cccccc; stroke-linejoin: miter"/>
    </g>
    <g id="line2d_109">
     <defs>
      <path id="mf576890a38" d="M 0 3.75 
C 0.994512 3.75 1.948425 3.354876 2.65165 2.65165 
C 3.354876 1.948425 3.75 0.994512 3.75 0 
C 3.75 -0.994512 3.354876 -1.948425 2.65165 -2.65165 
C 1.948425 -3.354876 0.994512 -3.75 0 -3.75 
C -0.994512 -3.75 -1.948425 -3.354876 -2.65165 -2.65165 
C -3.354876 -1.948425 -3.75 -0.994512 -3.75 0 
C -3.75 0.994512 -3.354876 1.948425 -2.65165 2.65165 
C -1.948425 3.354876 -0.994512 3.75 0 3.75 
z
"/>
     </defs>
     <g>
      <use xlink:href="#mf576890a38" x="380.65375" y="40.421537" style="fill: #1f77b4; fill-opacity: 0.8"/>
     </g>
    </g>
    <g id="text_20">
     <!-- TrpB3A -->
     <g transform="translate(398.65375 43.921537) scale(0.1 -0.1)">
      <defs>
       <path id="DejaVuSans-70" d="M 1159 525 
L 1159 -1331 
L 581 -1331 
L 581 3500 
L 1159 3500 
L 1159 2969 
Q 1341 3281 1617 3432 
Q 1894 3584 2278 3584 
Q 2916 3584 3314 3078 
Q 3713 2572 3713 1747 
Q 3713 922 3314 415 
Q 2916 -91 2278 -91 
Q 1894 -91 1617 61 
Q 1341 213 1159 525 
z
M 3116 1747 
Q 3116 2381 2855 2742 
Q 2594 3103 2138 3103 
Q 1681 3103 1420 2742 
Q 1159 2381 1159 1747 
Q 1159 1113 1420 752 
Q 1681 391 2138 391 
Q 2594 391 2855 752 
Q 3116 1113 3116 1747 
z
" transform="scale(0.015625)"/>
       <path id="DejaVuSans-42" d="M 1259 2228 
L 1259 519 
L 2272 519 
Q 2781 519 3026 730 
Q 3272 941 3272 1375 
Q 3272 1813 3026 2020 
Q 2781 2228 2272 2228 
L 1259 2228 
z
M 1259 4147 
L 1259 2741 
L 2194 2741 
Q 2656 2741 2882 2914 
Q 3109 3088 3109 3444 
Q 3109 3797 2882 3972 
Q 2656 4147 2194 4147 
L 1259 4147 
z
M 628 4666 
L 2241 4666 
Q 2963 4666 3353 4366 
Q 3744 4066 3744 3513 
Q 3744 3084 3544 2831 
Q 3344 2578 2956 2516 
Q 3422 2416 3680 2098 
Q 3938 1781 3938 1306 
Q 3938 681 3513 340 
Q 3088 0 2303 0 
L 628 0 
L 628 4666 
z
" transform="scale(0.015625)"/>
       <path id="DejaVuSans-33" d="M 2597 2516 
Q 3050 2419 3304 2112 
Q 3559 1806 3559 1356 
Q 3559 666 3084 287 
Q 2609 -91 1734 -91 
Q 1441 -91 1130 -33 
Q 819 25 488 141 
L 488 750 
Q 750 597 1062 519 
Q 1375 441 1716 441 
Q 2309 441 2620 675 
Q 2931 909 2931 1356 
Q 2931 1769 2642 2001 
Q 2353 2234 1838 2234 
L 1294 2234 
L 1294 2753 
L 1863 2753 
Q 2328 2753 2575 2939 
Q 2822 3125 2822 3475 
Q 2822 3834 2567 4026 
Q 2313 4219 1838 4219 
Q 1578 4219 1281 4162 
Q 984 4106 628 3988 
L 628 4550 
Q 988 4650 1302 4700 
Q 1616 4750 1894 4750 
Q 2613 4750 3031 4423 
Q 3450 4097 3450 3541 
Q 3450 3153 3228 2886 
Q 3006 2619 2597 2516 
z
" transform="scale(0.015625)"/>
      </defs>
      <use xlink:href="#DejaVuSans-54"/>
      <use xlink:href="#DejaVuSans-72" x="46.333984"/>
      <use xlink:href="#DejaVuSans-70" x="87.447266"/>
      <use xlink:href="#DejaVuSans-42" x="150.923828"/>
      <use xlink:href="#DejaVuSans-33" x="219.527344"/>
      <use xlink:href="#DejaVuSans-41" x="283.150391"/>
     </g>
    </g>
    <g id="line2d_110">
     <defs>
      <path id="mb0c4438927" d="M 0 3.75 
C 0.994512 3.75 1.948425 3.354876 2.65165 2.65165 
C 3.354876 1.948425 3.75 0.994512 3.75 0 
C 3.75 -0.994512 3.354876 -1.948425 2.65165 -2.65165 
C 1.948425 -3.354876 0.994512 -3.75 0 -3.75 
C -0.994512 -3.75 -1.948425 -3.354876 -2.65165 -2.65165 
C -3.354876 -1.948425 -3.75 -0.994512 -3.75 0 
C -3.75 0.994512 -3.354876 1.948425 -2.65165 2.65165 
C -1.948425 3.354876 -0.994512 3.75 0 3.75 
z
"/>
     </defs>
     <g>
      <use xlink:href="#mb0c4438927" x="380.65375" y="55.099662" style="fill: #ff7f0e; fill-opacity: 0.8"/>
     </g>
    </g>
    <g id="text_21">
     <!-- TrpB3B -->
     <g transform="translate(398.65375 58.599662) scale(0.1 -0.1)">
      <use xlink:href="#DejaVuSans-54"/>
      <use xlink:href="#DejaVuSans-72" x="46.333984"/>
      <use xlink:href="#DejaVuSans-70" x="87.447266"/>
      <use xlink:href="#DejaVuSans-42" x="150.923828"/>
      <use xlink:href="#DejaVuSans-33" x="219.527344"/>
      <use xlink:href="#DejaVuSans-42" x="283.150391"/>
     </g>
    </g>
    <g id="line2d_111">
     <defs>
      <path id="m3466b778c5" d="M 0 3.75 
C 0.994512 3.75 1.948425 3.354876 2.65165 2.65165 
C 3.354876 1.948425 3.75 0.994512 3.75 0 
C 3.75 -0.994512 3.354876 -1.948425 2.65165 -2.65165 
C 1.948425 -3.354876 0.994512 -3.75 0 -3.75 
C -0.994512 -3.75 -1.948425 -3.354876 -2.65165 -2.65165 
C -3.354876 -1.948425 -3.75 -0.994512 -3.75 0 
C -3.75 0.994512 -3.354876 1.948425 -2.65165 2.65165 
C -1.948425 3.354876 -0.994512 3.75 0 3.75 
z
"/>
     </defs>
     <g>
      <use xlink:href="#m3466b778c5" x="380.65375" y="69.777787" style="fill: #2ca02c; fill-opacity: 0.8"/>
     </g>
    </g>
    <g id="text_22">
     <!-- TrpB3C -->
     <g transform="translate(398.65375 73.277787) scale(0.1 -0.1)">
      <use xlink:href="#DejaVuSans-54"/>
      <use xlink:href="#DejaVuSans-72" x="46.333984"/>
      <use xlink:href="#DejaVuSans-70" x="87.447266"/>
      <use xlink:href="#DejaVuSans-42" x="150.923828"/>
      <use xlink:href="#DejaVuSans-33" x="219.527344"/>
      <use xlink:href="#DejaVuSans-43" x="283.150391"/>
     </g>
    </g>
    <g id="line2d_112">
     <defs>
      <path id="m4f09619385" d="M 0 3.75 
C 0.994512 3.75 1.948425 3.354876 2.65165 2.65165 
C 3.354876 1.948425 3.75 0.994512 3.75 0 
C 3.75 -0.994512 3.354876 -1.948425 2.65165 -2.65165 
C 1.948425 -3.354876 0.994512 -3.75 0 -3.75 
C -0.994512 -3.75 -1.948425 -3.354876 -2.65165 -2.65165 
C -3.354876 -1.948425 -3.75 -0.994512 -3.75 0 
C -3.75 0.994512 -3.354876 1.948425 -2.65165 2.65165 
C -1.948425 3.354876 -0.994512 3.75 0 3.75 
z
"/>
     </defs>
     <g>
      <use xlink:href="#m4f09619385" x="380.65375" y="84.455913" style="fill: #d62728; fill-opacity: 0.8"/>
     </g>
    </g>
    <g id="text_23">
     <!-- TrpB3H -->
     <g transform="translate(398.65375 87.955913) scale(0.1 -0.1)">
      <use xlink:href="#DejaVuSans-54"/>
      <use xlink:href="#DejaVuSans-72" x="46.333984"/>
      <use xlink:href="#DejaVuSans-70" x="87.447266"/>
      <use xlink:href="#DejaVuSans-42" x="150.923828"/>
      <use xlink:href="#DejaVuSans-33" x="219.527344"/>
      <use xlink:href="#DejaVuSans-48" x="283.150391"/>
     </g>
    </g>
   </g>
  </g>
 </g>
 <defs>
  <clipPath id="pa0f0fb4225">
   <rect x="50.14375" y="31.99625" width="44.835" height="186.926"/>
  </clipPath>
  <clipPath id="p0f987c03b2">
   <rect x="103.47875" y="31.99625" width="44.835" height="186.926"/>
  </clipPath>
  <clipPath id="p93f58ebf81">
   <rect x="156.81375" y="31.99625" width="44.835" height="186.926"/>
  </clipPath>
  <clipPath id="p56f1b9942f">
   <rect x="210.14875" y="31.99625" width="44.835" height="186.926"/>
  </clipPath>
  <clipPath id="p70e054cb0b">
   <rect x="263.48375" y="31.99625" width="44.835" height="186.926"/>
  </clipPath>
  <clipPath id="p5cdbfef65e">
   <rect x="316.81875" y="31.99625" width="44.835" height="186.926"/>
  </clipPath>
 </defs>
</svg>
