<?xml version="1.0" encoding="utf-8" standalone="no"?>
<!DOCTYPE svg PUBLIC "-//W3C//DTD SVG 1.1//EN"
  "http://www.w3.org/Graphics/SVG/1.1/DTD/svg11.dtd">
<svg xmlns:xlink="http://www.w3.org/1999/xlink" width="741.407812pt" height="270.315469pt" viewBox="0 0 741.407812 270.315469" xmlns="http://www.w3.org/2000/svg" version="1.1">
 <metadata>
  <rdf:RDF xmlns:dc="http://purl.org/dc/elements/1.1/" xmlns:cc="http://creativecommons.org/ns#" xmlns:rdf="http://www.w3.org/1999/02/22-rdf-syntax-ns#">
   <cc:Work>
    <dc:type rdf:resource="http://purl.org/dc/dcmitype/StillImage"/>
    <dc:date>2024-10-14T15:50:55.463053</dc:date>
    <dc:format>image/svg+xml</dc:format>
    <dc:creator>
     <cc:Agent>
      <dc:title>Matplotlib v3.8.4, https://matplotlib.org/</dc:title>
     </cc:Agent>
    </dc:creator>
   </cc:Work>
  </rdf:RDF>
 </metadata>
 <defs>
  <style type="text/css">*{stroke-linejoin: round; stroke-linecap: butt}</style>
 </defs>
 <g id="figure_1">
  <g id="patch_1">
   <path d="M 0 270.315469 
L 741.407812 270.315469 
L 741.407812 0 
L 0 0 
z
" style="fill: #ffffff"/>
  </g>
  <g id="axes_1">
   <g id="patch_2">
    <path d="M 43.78125 232.759219 
L 297.417614 232.759219 
L 297.417614 10.999219 
L 43.78125 10.999219 
z
" style="fill: #ffffff"/>
   </g>
   <g id="PolyCollection_1">
    <defs>
     <path id="m378c384cb8" d="M 43.78125 -241.374694 
L 43.78125 -86.401735 
L 60.171596 -104.488565 
L 86.033644 -134.314945 
L 122.484152 -155.79544 
L 148.3462 -166.815022 
L 168.406362 -170.632785 
L 184.796709 -176.569448 
L 198.654549 -181.768987 
L 239.287115 -200.093149 
L 297.417614 -208.267901 
L 297.417614 -278.220503 
L 297.417614 -278.220503 
L 239.287115 -276.127371 
L 198.654549 -275.776797 
L 184.796709 -274.68766 
L 168.406362 -272.479175 
L 148.3462 -271.7294 
L 122.484152 -270.165252 
L 86.033644 -263.365934 
L 60.171596 -251.868004 
L 43.78125 -241.374694 
z
" style="stroke: #56b4e9; stroke-opacity: 0.08"/>
    </defs>
    <g clip-path="url(#p562e45db6a)">
     <use xlink:href="#m378c384cb8" x="0" y="270.315469" style="fill: #56b4e9; fill-opacity: 0.08; stroke: #56b4e9; stroke-opacity: 0.08"/>
    </g>
   </g>
   <g id="PolyCollection_2">
    <defs>
     <path id="m96b6b69dc6" d="M 43.78125 -247.999419 
L 43.78125 -93.223835 
L 60.171596 -112.333701 
L 86.033644 -134.589476 
L 122.484152 -155.865367 
L 148.3462 -164.256197 
L 168.406362 -168.595583 
L 184.796709 -172.584951 
L 198.654549 -175.270595 
L 239.287115 -184.380529 
L 297.417614 -189.156401 
L 297.417614 -276.39244 
L 297.417614 -276.39244 
L 239.287115 -277.901037 
L 198.654549 -279.377601 
L 184.796709 -278.534608 
L 168.406362 -278.189103 
L 148.3462 -277.32596 
L 122.484152 -275.158418 
L 86.033644 -268.200729 
L 60.171596 -257.131602 
L 43.78125 -247.999419 
z
" style="stroke: #0173b2; stroke-opacity: 0.08"/>
    </defs>
    <g clip-path="url(#p562e45db6a)">
     <use xlink:href="#m96b6b69dc6" x="0" y="270.315469" style="fill: #0173b2; fill-opacity: 0.08; stroke: #0173b2; stroke-opacity: 0.08"/>
    </g>
   </g>
   <g id="PolyCollection_3">
    <defs>
     <path id="m8f62fa7918" d="M 43.78125 -235.406891 
L 43.78125 -110.29351 
L 60.171596 -118.616222 
L 86.033644 -131.892103 
L 122.484152 -155.966377 
L 148.3462 -163.324031 
L 168.406362 -177.233846 
L 184.796709 -184.211786 
L 198.654549 -189.64184 
L 239.287115 -204.100364 
L 297.417614 -214.225071 
L 297.417614 -274.378662 
L 297.417614 -274.378662 
L 239.287115 -272.182142 
L 198.654549 -270.376578 
L 184.796709 -268.259516 
L 168.406362 -266.778877 
L 148.3462 -265.035967 
L 122.484152 -256.754481 
L 86.033644 -245.622177 
L 60.171596 -238.034373 
L 43.78125 -235.406891 
z
" style="stroke: #ece133; stroke-opacity: 0.08"/>
    </defs>
    <g clip-path="url(#p562e45db6a)">
     <use xlink:href="#m8f62fa7918" x="0" y="270.315469" style="fill: #ece133; fill-opacity: 0.08; stroke: #ece133; stroke-opacity: 0.08"/>
    </g>
   </g>
   <g id="PolyCollection_4">
    <defs>
     <path id="m308a4e2fba" d="M 43.78125 -241.977054 
L 43.78125 -122.043984 
L 60.171596 -129.538937 
L 86.033644 -147.108371 
L 122.484152 -165.078677 
L 148.3462 -178.26603 
L 168.406362 -187.553559 
L 184.796709 -192.912407 
L 198.654549 -200.149584 
L 239.287115 -210.721242 
L 297.417614 -223.530097 
L 297.417614 -274.869231 
L 297.417614 -274.869231 
L 239.287115 -274.563713 
L 198.654549 -271.556966 
L 184.796709 -270.680232 
L 168.406362 -269.38622 
L 148.3462 -268.928192 
L 122.484152 -263.935899 
L 86.033644 -253.752038 
L 60.171596 -245.800927 
L 43.78125 -241.977054 
z
" style="stroke: #de8f05; stroke-opacity: 0.08"/>
    </defs>
    <g clip-path="url(#p562e45db6a)">
     <use xlink:href="#m308a4e2fba" x="0" y="270.315469" style="fill: #de8f05; fill-opacity: 0.08; stroke: #de8f05; stroke-opacity: 0.08"/>
    </g>
   </g>
   <g id="PolyCollection_5">
    <defs>
     <path id="m2778d48aad" d="M 43.78125 -246.465093 
L 43.78125 -131.366469 
L 60.171596 -134.56312 
L 86.033644 -147.338826 
L 122.484152 -164.309233 
L 148.3462 -180.19772 
L 168.406362 -189.069778 
L 184.796709 -191.708501 
L 198.654549 -195.719966 
L 239.287115 -209.105265 
L 297.417614 -217.486423 
L 297.417614 -275.312498 
L 297.417614 -275.312498 
L 239.287115 -275.090175 
L 198.654549 -274.544132 
L 184.796709 -273.686594 
L 168.406362 -270.446078 
L 148.3462 -267.706264 
L 122.484152 -265.016444 
L 86.033644 -254.660203 
L 60.171596 -248.295506 
L 43.78125 -246.465093 
z
" style="stroke: #fbafe4; stroke-opacity: 0.08"/>
    </defs>
    <g clip-path="url(#p562e45db6a)">
     <use xlink:href="#m2778d48aad" x="0" y="270.315469" style="fill: #fbafe4; fill-opacity: 0.08; stroke: #fbafe4; stroke-opacity: 0.08"/>
    </g>
   </g>
   <g id="PolyCollection_6">
    <defs>
     <path id="m6b8832d08f" d="M 43.78125 -250.246129 
L 43.78125 -143.313612 
L 60.171596 -147.186507 
L 86.033644 -158.899966 
L 122.484152 -179.22061 
L 148.3462 -183.083249 
L 168.406362 -195.099215 
L 184.796709 -201.256967 
L 198.654549 -203.101444 
L 239.287115 -214.806361 
L 297.417614 -220.192035 
L 297.417614 -280.05342 
L 297.417614 -280.05342 
L 239.287115 -277.547161 
L 198.654549 -276.566829 
L 184.796709 -275.930644 
L 168.406362 -276.430161 
L 148.3462 -276.426396 
L 122.484152 -271.418169 
L 86.033644 -263.806668 
L 60.171596 -254.905907 
L 43.78125 -250.246129 
z
" style="stroke: #cc78bc; stroke-opacity: 0.08"/>
    </defs>
    <g clip-path="url(#p562e45db6a)">
     <use xlink:href="#m6b8832d08f" x="0" y="270.315469" style="fill: #cc78bc; fill-opacity: 0.08; stroke: #cc78bc; stroke-opacity: 0.08"/>
    </g>
   </g>
   <g id="PolyCollection_7">
    <defs>
     <path id="mc6b944c4a5" d="M 43.78125 -247.447867 
L 43.78125 -130.597836 
L 60.171596 -140.895955 
L 86.033644 -153.140277 
L 122.484152 -172.226237 
L 148.3462 -179.889174 
L 168.406362 -188.092428 
L 184.796709 -199.320607 
L 198.654549 -199.040824 
L 239.287115 -208.65436 
L 297.417614 -215.861597 
L 297.417614 -279.025237 
L 297.417614 -279.025237 
L 239.287115 -276.476157 
L 198.654549 -275.762946 
L 184.796709 -273.760147 
L 168.406362 -272.54462 
L 148.3462 -271.008492 
L 122.484152 -267.387399 
L 86.033644 -258.170785 
L 60.171596 -253.779985 
L 43.78125 -247.447867 
z
" style="stroke: #ca9161; stroke-opacity: 0.08"/>
    </defs>
    <g clip-path="url(#p562e45db6a)">
     <use xlink:href="#mc6b944c4a5" x="0" y="270.315469" style="fill: #ca9161; fill-opacity: 0.08; stroke: #ca9161; stroke-opacity: 0.08"/>
    </g>
   </g>
   <g id="PolyCollection_8">
    <defs>
     <path id="mb1a020b117" d="M 43.78125 -253.829298 
L 43.78125 -141.287838 
L 60.171596 -151.245559 
L 86.033644 -165.242196 
L 122.484152 -177.197543 
L 148.3462 -189.972025 
L 168.406362 -193.063801 
L 184.796709 -199.249626 
L 198.654549 -207.428886 
L 239.287115 -212.178631 
L 297.417614 -221.016317 
L 297.417614 -278.622079 
L 297.417614 -278.622079 
L 239.287115 -278.952093 
L 198.654549 -277.435751 
L 184.796709 -279.052942 
L 168.406362 -278.064575 
L 148.3462 -275.098567 
L 122.484152 -274.436677 
L 86.033644 -265.747151 
L 60.171596 -259.48222 
L 43.78125 -253.829298 
z
" style="stroke: #d55e00; stroke-opacity: 0.08"/>
    </defs>
    <g clip-path="url(#p562e45db6a)">
     <use xlink:href="#mb1a020b117" x="0" y="270.315469" style="fill: #d55e00; fill-opacity: 0.08; stroke: #d55e00; stroke-opacity: 0.08"/>
    </g>
   </g>
   <g id="matplotlib.axis_1">
    <g id="xtick_1">
     <g id="line2d_1">
      <defs>
       <path id="m01f295246d" d="M 0 0 
L 0 3.5 
" style="stroke: #000000; stroke-width: 0.8"/>
      </defs>
      <g>
       <use xlink:href="#m01f295246d" x="43.78125" y="232.759219" style="stroke: #000000; stroke-width: 0.8"/>
      </g>
     </g>
     <g id="text_1">
      <!-- 120 -->
      <g transform="translate(34.2375 247.357656) scale(0.1 -0.1)">
       <defs>
        <path id="DejaVuSans-31" d="M 794 531 
L 1825 531 
L 1825 4091 
L 703 3866 
L 703 4441 
L 1819 4666 
L 2450 4666 
L 2450 531 
L 3481 531 
L 3481 0 
L 794 0 
L 794 531 
z
" transform="scale(0.015625)"/>
        <path id="DejaVuSans-32" d="M 1228 531 
L 3431 531 
L 3431 0 
L 469 0 
L 469 531 
Q 828 903 1448 1529 
Q 2069 2156 2228 2338 
Q 2531 2678 2651 2914 
Q 2772 3150 2772 3378 
Q 2772 3750 2511 3984 
Q 2250 4219 1831 4219 
Q 1534 4219 1204 4116 
Q 875 4013 500 3803 
L 500 4441 
Q 881 4594 1212 4672 
Q 1544 4750 1819 4750 
Q 2544 4750 2975 4387 
Q 3406 4025 3406 3419 
Q 3406 3131 3298 2873 
Q 3191 2616 2906 2266 
Q 2828 2175 2409 1742 
Q 1991 1309 1228 531 
z
" transform="scale(0.015625)"/>
        <path id="DejaVuSans-30" d="M 2034 4250 
Q 1547 4250 1301 3770 
Q 1056 3291 1056 2328 
Q 1056 1369 1301 889 
Q 1547 409 2034 409 
Q 2525 409 2770 889 
Q 3016 1369 3016 2328 
Q 3016 3291 2770 3770 
Q 2525 4250 2034 4250 
z
M 2034 4750 
Q 2819 4750 3233 4129 
Q 3647 3509 3647 2328 
Q 3647 1150 3233 529 
Q 2819 -91 2034 -91 
Q 1250 -91 836 529 
Q 422 1150 422 2328 
Q 422 3509 836 4129 
Q 1250 4750 2034 4750 
z
" transform="scale(0.015625)"/>
       </defs>
       <use xlink:href="#DejaVuSans-31"/>
       <use xlink:href="#DejaVuSans-32" x="63.623047"/>
       <use xlink:href="#DejaVuSans-30" x="127.246094"/>
      </g>
     </g>
    </g>
    <g id="xtick_2">
     <g id="line2d_2">
      <g>
       <use xlink:href="#m01f295246d" x="86.033644" y="232.759219" style="stroke: #000000; stroke-width: 0.8"/>
      </g>
     </g>
     <g id="text_2">
      <!-- 192 -->
      <g transform="translate(76.489894 247.357656) scale(0.1 -0.1)">
       <defs>
        <path id="DejaVuSans-39" d="M 703 97 
L 703 672 
Q 941 559 1184 500 
Q 1428 441 1663 441 
Q 2288 441 2617 861 
Q 2947 1281 2994 2138 
Q 2813 1869 2534 1725 
Q 2256 1581 1919 1581 
Q 1219 1581 811 2004 
Q 403 2428 403 3163 
Q 403 3881 828 4315 
Q 1253 4750 1959 4750 
Q 2769 4750 3195 4129 
Q 3622 3509 3622 2328 
Q 3622 1225 3098 567 
Q 2575 -91 1691 -91 
Q 1453 -91 1209 -44 
Q 966 3 703 97 
z
M 1959 2075 
Q 2384 2075 2632 2365 
Q 2881 2656 2881 3163 
Q 2881 3666 2632 3958 
Q 2384 4250 1959 4250 
Q 1534 4250 1286 3958 
Q 1038 3666 1038 3163 
Q 1038 2656 1286 2365 
Q 1534 2075 1959 2075 
z
" transform="scale(0.015625)"/>
       </defs>
       <use xlink:href="#DejaVuSans-31"/>
       <use xlink:href="#DejaVuSans-39" x="63.623047"/>
       <use xlink:href="#DejaVuSans-32" x="127.246094"/>
      </g>
     </g>
    </g>
    <g id="xtick_3">
     <g id="line2d_3">
      <g>
       <use xlink:href="#m01f295246d" x="122.484152" y="232.759219" style="stroke: #000000; stroke-width: 0.8"/>
      </g>
     </g>
     <g id="text_3">
      <!-- 288 -->
      <g transform="translate(112.940402 247.357656) scale(0.1 -0.1)">
       <defs>
        <path id="DejaVuSans-38" d="M 2034 2216 
Q 1584 2216 1326 1975 
Q 1069 1734 1069 1313 
Q 1069 891 1326 650 
Q 1584 409 2034 409 
Q 2484 409 2743 651 
Q 3003 894 3003 1313 
Q 3003 1734 2745 1975 
Q 2488 2216 2034 2216 
z
M 1403 2484 
Q 997 2584 770 2862 
Q 544 3141 544 3541 
Q 544 4100 942 4425 
Q 1341 4750 2034 4750 
Q 2731 4750 3128 4425 
Q 3525 4100 3525 3541 
Q 3525 3141 3298 2862 
Q 3072 2584 2669 2484 
Q 3125 2378 3379 2068 
Q 3634 1759 3634 1313 
Q 3634 634 3220 271 
Q 2806 -91 2034 -91 
Q 1263 -91 848 271 
Q 434 634 434 1313 
Q 434 1759 690 2068 
Q 947 2378 1403 2484 
z
M 1172 3481 
Q 1172 3119 1398 2916 
Q 1625 2713 2034 2713 
Q 2441 2713 2670 2916 
Q 2900 3119 2900 3481 
Q 2900 3844 2670 4047 
Q 2441 4250 2034 4250 
Q 1625 4250 1398 4047 
Q 1172 3844 1172 3481 
z
" transform="scale(0.015625)"/>
       </defs>
       <use xlink:href="#DejaVuSans-32"/>
       <use xlink:href="#DejaVuSans-38" x="63.623047"/>
       <use xlink:href="#DejaVuSans-38" x="127.246094"/>
      </g>
     </g>
    </g>
    <g id="xtick_4">
     <g id="line2d_4">
      <g>
       <use xlink:href="#m01f295246d" x="168.406362" y="232.759219" style="stroke: #000000; stroke-width: 0.8"/>
      </g>
     </g>
     <g id="text_4">
      <!-- 480 -->
      <g transform="translate(158.862612 247.357656) scale(0.1 -0.1)">
       <defs>
        <path id="DejaVuSans-34" d="M 2419 4116 
L 825 1625 
L 2419 1625 
L 2419 4116 
z
M 2253 4666 
L 3047 4666 
L 3047 1625 
L 3713 1625 
L 3713 1100 
L 3047 1100 
L 3047 0 
L 2419 0 
L 2419 1100 
L 313 1100 
L 313 1709 
L 2253 4666 
z
" transform="scale(0.015625)"/>
       </defs>
       <use xlink:href="#DejaVuSans-34"/>
       <use xlink:href="#DejaVuSans-38" x="63.623047"/>
       <use xlink:href="#DejaVuSans-30" x="127.246094"/>
      </g>
     </g>
    </g>
    <g id="xtick_5">
     <g id="line2d_5">
      <g>
       <use xlink:href="#m01f295246d" x="239.287115" y="232.759219" style="stroke: #000000; stroke-width: 0.8"/>
      </g>
     </g>
     <g id="text_5">
      <!-- 1056 -->
      <g transform="translate(226.562115 247.357656) scale(0.1 -0.1)">
       <defs>
        <path id="DejaVuSans-35" d="M 691 4666 
L 3169 4666 
L 3169 4134 
L 1269 4134 
L 1269 2991 
Q 1406 3038 1543 3061 
Q 1681 3084 1819 3084 
Q 2600 3084 3056 2656 
Q 3513 2228 3513 1497 
Q 3513 744 3044 326 
Q 2575 -91 1722 -91 
Q 1428 -91 1123 -41 
Q 819 9 494 109 
L 494 744 
Q 775 591 1075 516 
Q 1375 441 1709 441 
Q 2250 441 2565 725 
Q 2881 1009 2881 1497 
Q 2881 1984 2565 2268 
Q 2250 2553 1709 2553 
Q 1456 2553 1204 2497 
Q 953 2441 691 2322 
L 691 4666 
z
" transform="scale(0.015625)"/>
        <path id="DejaVuSans-36" d="M 2113 2584 
Q 1688 2584 1439 2293 
Q 1191 2003 1191 1497 
Q 1191 994 1439 701 
Q 1688 409 2113 409 
Q 2538 409 2786 701 
Q 3034 994 3034 1497 
Q 3034 2003 2786 2293 
Q 2538 2584 2113 2584 
z
M 3366 4563 
L 3366 3988 
Q 3128 4100 2886 4159 
Q 2644 4219 2406 4219 
Q 1781 4219 1451 3797 
Q 1122 3375 1075 2522 
Q 1259 2794 1537 2939 
Q 1816 3084 2150 3084 
Q 2853 3084 3261 2657 
Q 3669 2231 3669 1497 
Q 3669 778 3244 343 
Q 2819 -91 2113 -91 
Q 1303 -91 875 529 
Q 447 1150 447 2328 
Q 447 3434 972 4092 
Q 1497 4750 2381 4750 
Q 2619 4750 2861 4703 
Q 3103 4656 3366 4563 
z
" transform="scale(0.015625)"/>
       </defs>
       <use xlink:href="#DejaVuSans-31"/>
       <use xlink:href="#DejaVuSans-30" x="63.623047"/>
       <use xlink:href="#DejaVuSans-35" x="127.246094"/>
       <use xlink:href="#DejaVuSans-36" x="190.869141"/>
      </g>
     </g>
    </g>
    <g id="xtick_6">
     <g id="line2d_6">
      <g>
       <use xlink:href="#m01f295246d" x="297.417614" y="232.759219" style="stroke: #000000; stroke-width: 0.8"/>
      </g>
     </g>
     <g id="text_6">
      <!-- 2016 -->
      <g transform="translate(284.692614 247.357656) scale(0.1 -0.1)">
       <use xlink:href="#DejaVuSans-32"/>
       <use xlink:href="#DejaVuSans-30" x="63.623047"/>
       <use xlink:href="#DejaVuSans-31" x="127.246094"/>
       <use xlink:href="#DejaVuSans-36" x="190.869141"/>
      </g>
     </g>
    </g>
    <g id="text_7">
     <!-- Total number of variants -->
     <g transform="translate(109.556463 261.035781) scale(0.1 -0.1)">
      <defs>
       <path id="DejaVuSans-54" d="M -19 4666 
L 3928 4666 
L 3928 4134 
L 2272 4134 
L 2272 0 
L 1638 0 
L 1638 4134 
L -19 4134 
L -19 4666 
z
" transform="scale(0.015625)"/>
       <path id="DejaVuSans-6f" d="M 1959 3097 
Q 1497 3097 1228 2736 
Q 959 2375 959 1747 
Q 959 1119 1226 758 
Q 1494 397 1959 397 
Q 2419 397 2687 759 
Q 2956 1122 2956 1747 
Q 2956 2369 2687 2733 
Q 2419 3097 1959 3097 
z
M 1959 3584 
Q 2709 3584 3137 3096 
Q 3566 2609 3566 1747 
Q 3566 888 3137 398 
Q 2709 -91 1959 -91 
Q 1206 -91 779 398 
Q 353 888 353 1747 
Q 353 2609 779 3096 
Q 1206 3584 1959 3584 
z
" transform="scale(0.015625)"/>
       <path id="DejaVuSans-74" d="M 1172 4494 
L 1172 3500 
L 2356 3500 
L 2356 3053 
L 1172 3053 
L 1172 1153 
Q 1172 725 1289 603 
Q 1406 481 1766 481 
L 2356 481 
L 2356 0 
L 1766 0 
Q 1100 0 847 248 
Q 594 497 594 1153 
L 594 3053 
L 172 3053 
L 172 3500 
L 594 3500 
L 594 4494 
L 1172 4494 
z
" transform="scale(0.015625)"/>
       <path id="DejaVuSans-61" d="M 2194 1759 
Q 1497 1759 1228 1600 
Q 959 1441 959 1056 
Q 959 750 1161 570 
Q 1363 391 1709 391 
Q 2188 391 2477 730 
Q 2766 1069 2766 1631 
L 2766 1759 
L 2194 1759 
z
M 3341 1997 
L 3341 0 
L 2766 0 
L 2766 531 
Q 2569 213 2275 61 
Q 1981 -91 1556 -91 
Q 1019 -91 701 211 
Q 384 513 384 1019 
Q 384 1609 779 1909 
Q 1175 2209 1959 2209 
L 2766 2209 
L 2766 2266 
Q 2766 2663 2505 2880 
Q 2244 3097 1772 3097 
Q 1472 3097 1187 3025 
Q 903 2953 641 2809 
L 641 3341 
Q 956 3463 1253 3523 
Q 1550 3584 1831 3584 
Q 2591 3584 2966 3190 
Q 3341 2797 3341 1997 
z
" transform="scale(0.015625)"/>
       <path id="DejaVuSans-6c" d="M 603 4863 
L 1178 4863 
L 1178 0 
L 603 0 
L 603 4863 
z
" transform="scale(0.015625)"/>
       <path id="DejaVuSans-20" transform="scale(0.015625)"/>
       <path id="DejaVuSans-6e" d="M 3513 2113 
L 3513 0 
L 2938 0 
L 2938 2094 
Q 2938 2591 2744 2837 
Q 2550 3084 2163 3084 
Q 1697 3084 1428 2787 
Q 1159 2491 1159 1978 
L 1159 0 
L 581 0 
L 581 3500 
L 1159 3500 
L 1159 2956 
Q 1366 3272 1645 3428 
Q 1925 3584 2291 3584 
Q 2894 3584 3203 3211 
Q 3513 2838 3513 2113 
z
" transform="scale(0.015625)"/>
       <path id="DejaVuSans-75" d="M 544 1381 
L 544 3500 
L 1119 3500 
L 1119 1403 
Q 1119 906 1312 657 
Q 1506 409 1894 409 
Q 2359 409 2629 706 
Q 2900 1003 2900 1516 
L 2900 3500 
L 3475 3500 
L 3475 0 
L 2900 0 
L 2900 538 
Q 2691 219 2414 64 
Q 2138 -91 1772 -91 
Q 1169 -91 856 284 
Q 544 659 544 1381 
z
M 1991 3584 
L 1991 3584 
z
" transform="scale(0.015625)"/>
       <path id="DejaVuSans-6d" d="M 3328 2828 
Q 3544 3216 3844 3400 
Q 4144 3584 4550 3584 
Q 5097 3584 5394 3201 
Q 5691 2819 5691 2113 
L 5691 0 
L 5113 0 
L 5113 2094 
Q 5113 2597 4934 2840 
Q 4756 3084 4391 3084 
Q 3944 3084 3684 2787 
Q 3425 2491 3425 1978 
L 3425 0 
L 2847 0 
L 2847 2094 
Q 2847 2600 2669 2842 
Q 2491 3084 2119 3084 
Q 1678 3084 1418 2786 
Q 1159 2488 1159 1978 
L 1159 0 
L 581 0 
L 581 3500 
L 1159 3500 
L 1159 2956 
Q 1356 3278 1631 3431 
Q 1906 3584 2284 3584 
Q 2666 3584 2933 3390 
Q 3200 3197 3328 2828 
z
" transform="scale(0.015625)"/>
       <path id="DejaVuSans-62" d="M 3116 1747 
Q 3116 2381 2855 2742 
Q 2594 3103 2138 3103 
Q 1681 3103 1420 2742 
Q 1159 2381 1159 1747 
Q 1159 1113 1420 752 
Q 1681 391 2138 391 
Q 2594 391 2855 752 
Q 3116 1113 3116 1747 
z
M 1159 2969 
Q 1341 3281 1617 3432 
Q 1894 3584 2278 3584 
Q 2916 3584 3314 3078 
Q 3713 2572 3713 1747 
Q 3713 922 3314 415 
Q 2916 -91 2278 -91 
Q 1894 -91 1617 61 
Q 1341 213 1159 525 
L 1159 0 
L 581 0 
L 581 4863 
L 1159 4863 
L 1159 2969 
z
" transform="scale(0.015625)"/>
       <path id="DejaVuSans-65" d="M 3597 1894 
L 3597 1613 
L 953 1613 
Q 991 1019 1311 708 
Q 1631 397 2203 397 
Q 2534 397 2845 478 
Q 3156 559 3463 722 
L 3463 178 
Q 3153 47 2828 -22 
Q 2503 -91 2169 -91 
Q 1331 -91 842 396 
Q 353 884 353 1716 
Q 353 2575 817 3079 
Q 1281 3584 2069 3584 
Q 2775 3584 3186 3129 
Q 3597 2675 3597 1894 
z
M 3022 2063 
Q 3016 2534 2758 2815 
Q 2500 3097 2075 3097 
Q 1594 3097 1305 2825 
Q 1016 2553 972 2059 
L 3022 2063 
z
" transform="scale(0.015625)"/>
       <path id="DejaVuSans-72" d="M 2631 2963 
Q 2534 3019 2420 3045 
Q 2306 3072 2169 3072 
Q 1681 3072 1420 2755 
Q 1159 2438 1159 1844 
L 1159 0 
L 581 0 
L 581 3500 
L 1159 3500 
L 1159 2956 
Q 1341 3275 1631 3429 
Q 1922 3584 2338 3584 
Q 2397 3584 2469 3576 
Q 2541 3569 2628 3553 
L 2631 2963 
z
" transform="scale(0.015625)"/>
       <path id="DejaVuSans-66" d="M 2375 4863 
L 2375 4384 
L 1825 4384 
Q 1516 4384 1395 4259 
Q 1275 4134 1275 3809 
L 1275 3500 
L 2222 3500 
L 2222 3053 
L 1275 3053 
L 1275 0 
L 697 0 
L 697 3053 
L 147 3053 
L 147 3500 
L 697 3500 
L 697 3744 
Q 697 4328 969 4595 
Q 1241 4863 1831 4863 
L 2375 4863 
z
" transform="scale(0.015625)"/>
       <path id="DejaVuSans-76" d="M 191 3500 
L 800 3500 
L 1894 563 
L 2988 3500 
L 3597 3500 
L 2284 0 
L 1503 0 
L 191 3500 
z
" transform="scale(0.015625)"/>
       <path id="DejaVuSans-69" d="M 603 3500 
L 1178 3500 
L 1178 0 
L 603 0 
L 603 3500 
z
M 603 4863 
L 1178 4863 
L 1178 4134 
L 603 4134 
L 603 4863 
z
" transform="scale(0.015625)"/>
       <path id="DejaVuSans-73" d="M 2834 3397 
L 2834 2853 
Q 2591 2978 2328 3040 
Q 2066 3103 1784 3103 
Q 1356 3103 1142 2972 
Q 928 2841 928 2578 
Q 928 2378 1081 2264 
Q 1234 2150 1697 2047 
L 1894 2003 
Q 2506 1872 2764 1633 
Q 3022 1394 3022 966 
Q 3022 478 2636 193 
Q 2250 -91 1575 -91 
Q 1294 -91 989 -36 
Q 684 19 347 128 
L 347 722 
Q 666 556 975 473 
Q 1284 391 1588 391 
Q 1994 391 2212 530 
Q 2431 669 2431 922 
Q 2431 1156 2273 1281 
Q 2116 1406 1581 1522 
L 1381 1569 
Q 847 1681 609 1914 
Q 372 2147 372 2553 
Q 372 3047 722 3315 
Q 1072 3584 1716 3584 
Q 2034 3584 2315 3537 
Q 2597 3491 2834 3397 
z
" transform="scale(0.015625)"/>
      </defs>
      <use xlink:href="#DejaVuSans-54"/>
      <use xlink:href="#DejaVuSans-6f" x="44.083984"/>
      <use xlink:href="#DejaVuSans-74" x="105.265625"/>
      <use xlink:href="#DejaVuSans-61" x="144.474609"/>
      <use xlink:href="#DejaVuSans-6c" x="205.753906"/>
      <use xlink:href="#DejaVuSans-20" x="233.537109"/>
      <use xlink:href="#DejaVuSans-6e" x="265.324219"/>
      <use xlink:href="#DejaVuSans-75" x="328.703125"/>
      <use xlink:href="#DejaVuSans-6d" x="392.082031"/>
      <use xlink:href="#DejaVuSans-62" x="489.494141"/>
      <use xlink:href="#DejaVuSans-65" x="552.970703"/>
      <use xlink:href="#DejaVuSans-72" x="614.494141"/>
      <use xlink:href="#DejaVuSans-20" x="655.607422"/>
      <use xlink:href="#DejaVuSans-6f" x="687.394531"/>
      <use xlink:href="#DejaVuSans-66" x="748.576172"/>
      <use xlink:href="#DejaVuSans-20" x="783.78125"/>
      <use xlink:href="#DejaVuSans-76" x="815.568359"/>
      <use xlink:href="#DejaVuSans-61" x="874.748047"/>
      <use xlink:href="#DejaVuSans-72" x="936.027344"/>
      <use xlink:href="#DejaVuSans-69" x="977.140625"/>
      <use xlink:href="#DejaVuSans-61" x="1004.923828"/>
      <use xlink:href="#DejaVuSans-6e" x="1066.203125"/>
      <use xlink:href="#DejaVuSans-74" x="1129.582031"/>
      <use xlink:href="#DejaVuSans-73" x="1168.791016"/>
     </g>
    </g>
   </g>
   <g id="matplotlib.axis_2">
    <g id="ytick_1">
     <g id="line2d_7">
      <defs>
       <path id="m17dcca374b" d="M 0 0 
L -3.5 0 
" style="stroke: #000000; stroke-width: 0.8"/>
      </defs>
      <g>
       <use xlink:href="#m17dcca374b" x="43.78125" y="232.759219" style="stroke: #000000; stroke-width: 0.8"/>
      </g>
     </g>
     <g id="text_8">
      <!-- 0.0 -->
      <g transform="translate(20.878125 236.558437) scale(0.1 -0.1)">
       <defs>
        <path id="DejaVuSans-2e" d="M 684 794 
L 1344 794 
L 1344 0 
L 684 0 
L 684 794 
z
" transform="scale(0.015625)"/>
       </defs>
       <use xlink:href="#DejaVuSans-30"/>
       <use xlink:href="#DejaVuSans-2e" x="63.623047"/>
       <use xlink:href="#DejaVuSans-30" x="95.410156"/>
      </g>
     </g>
    </g>
    <g id="ytick_2">
     <g id="line2d_8">
      <g>
       <use xlink:href="#m17dcca374b" x="43.78125" y="188.407219" style="stroke: #000000; stroke-width: 0.8"/>
      </g>
     </g>
     <g id="text_9">
      <!-- 0.2 -->
      <g transform="translate(20.878125 192.206437) scale(0.1 -0.1)">
       <use xlink:href="#DejaVuSans-30"/>
       <use xlink:href="#DejaVuSans-2e" x="63.623047"/>
       <use xlink:href="#DejaVuSans-32" x="95.410156"/>
      </g>
     </g>
    </g>
    <g id="ytick_3">
     <g id="line2d_9">
      <g>
       <use xlink:href="#m17dcca374b" x="43.78125" y="144.055219" style="stroke: #000000; stroke-width: 0.8"/>
      </g>
     </g>
     <g id="text_10">
      <!-- 0.4 -->
      <g transform="translate(20.878125 147.854437) scale(0.1 -0.1)">
       <use xlink:href="#DejaVuSans-30"/>
       <use xlink:href="#DejaVuSans-2e" x="63.623047"/>
       <use xlink:href="#DejaVuSans-34" x="95.410156"/>
      </g>
     </g>
    </g>
    <g id="ytick_4">
     <g id="line2d_10">
      <g>
       <use xlink:href="#m17dcca374b" x="43.78125" y="99.703219" style="stroke: #000000; stroke-width: 0.8"/>
      </g>
     </g>
     <g id="text_11">
      <!-- 0.6 -->
      <g transform="translate(20.878125 103.502437) scale(0.1 -0.1)">
       <use xlink:href="#DejaVuSans-30"/>
       <use xlink:href="#DejaVuSans-2e" x="63.623047"/>
       <use xlink:href="#DejaVuSans-36" x="95.410156"/>
      </g>
     </g>
    </g>
    <g id="ytick_5">
     <g id="line2d_11">
      <g>
       <use xlink:href="#m17dcca374b" x="43.78125" y="55.351219" style="stroke: #000000; stroke-width: 0.8"/>
      </g>
     </g>
     <g id="text_12">
      <!-- 0.8 -->
      <g transform="translate(20.878125 59.150437) scale(0.1 -0.1)">
       <use xlink:href="#DejaVuSans-30"/>
       <use xlink:href="#DejaVuSans-2e" x="63.623047"/>
       <use xlink:href="#DejaVuSans-38" x="95.410156"/>
      </g>
     </g>
    </g>
    <g id="ytick_6">
     <g id="line2d_12">
      <g>
       <use xlink:href="#m17dcca374b" x="43.78125" y="10.999219" style="stroke: #000000; stroke-width: 0.8"/>
      </g>
     </g>
     <g id="text_13">
      <!-- 1.0 -->
      <g transform="translate(20.878125 14.798437) scale(0.1 -0.1)">
       <use xlink:href="#DejaVuSans-31"/>
       <use xlink:href="#DejaVuSans-2e" x="63.623047"/>
       <use xlink:href="#DejaVuSans-30" x="95.410156"/>
      </g>
     </g>
    </g>
    <g id="text_14">
     <!-- Average max fitness achieved -->
     <g transform="translate(14.798438 197.294844) rotate(-90) scale(0.1 -0.1)">
      <defs>
       <path id="DejaVuSans-41" d="M 2188 4044 
L 1331 1722 
L 3047 1722 
L 2188 4044 
z
M 1831 4666 
L 2547 4666 
L 4325 0 
L 3669 0 
L 3244 1197 
L 1141 1197 
L 716 0 
L 50 0 
L 1831 4666 
z
" transform="scale(0.015625)"/>
       <path id="DejaVuSans-67" d="M 2906 1791 
Q 2906 2416 2648 2759 
Q 2391 3103 1925 3103 
Q 1463 3103 1205 2759 
Q 947 2416 947 1791 
Q 947 1169 1205 825 
Q 1463 481 1925 481 
Q 2391 481 2648 825 
Q 2906 1169 2906 1791 
z
M 3481 434 
Q 3481 -459 3084 -895 
Q 2688 -1331 1869 -1331 
Q 1566 -1331 1297 -1286 
Q 1028 -1241 775 -1147 
L 775 -588 
Q 1028 -725 1275 -790 
Q 1522 -856 1778 -856 
Q 2344 -856 2625 -561 
Q 2906 -266 2906 331 
L 2906 616 
Q 2728 306 2450 153 
Q 2172 0 1784 0 
Q 1141 0 747 490 
Q 353 981 353 1791 
Q 353 2603 747 3093 
Q 1141 3584 1784 3584 
Q 2172 3584 2450 3431 
Q 2728 3278 2906 2969 
L 2906 3500 
L 3481 3500 
L 3481 434 
z
" transform="scale(0.015625)"/>
       <path id="DejaVuSans-78" d="M 3513 3500 
L 2247 1797 
L 3578 0 
L 2900 0 
L 1881 1375 
L 863 0 
L 184 0 
L 1544 1831 
L 300 3500 
L 978 3500 
L 1906 2253 
L 2834 3500 
L 3513 3500 
z
" transform="scale(0.015625)"/>
       <path id="DejaVuSans-63" d="M 3122 3366 
L 3122 2828 
Q 2878 2963 2633 3030 
Q 2388 3097 2138 3097 
Q 1578 3097 1268 2742 
Q 959 2388 959 1747 
Q 959 1106 1268 751 
Q 1578 397 2138 397 
Q 2388 397 2633 464 
Q 2878 531 3122 666 
L 3122 134 
Q 2881 22 2623 -34 
Q 2366 -91 2075 -91 
Q 1284 -91 818 406 
Q 353 903 353 1747 
Q 353 2603 823 3093 
Q 1294 3584 2113 3584 
Q 2378 3584 2631 3529 
Q 2884 3475 3122 3366 
z
" transform="scale(0.015625)"/>
       <path id="DejaVuSans-68" d="M 3513 2113 
L 3513 0 
L 2938 0 
L 2938 2094 
Q 2938 2591 2744 2837 
Q 2550 3084 2163 3084 
Q 1697 3084 1428 2787 
Q 1159 2491 1159 1978 
L 1159 0 
L 581 0 
L 581 4863 
L 1159 4863 
L 1159 2956 
Q 1366 3272 1645 3428 
Q 1925 3584 2291 3584 
Q 2894 3584 3203 3211 
Q 3513 2838 3513 2113 
z
" transform="scale(0.015625)"/>
       <path id="DejaVuSans-64" d="M 2906 2969 
L 2906 4863 
L 3481 4863 
L 3481 0 
L 2906 0 
L 2906 525 
Q 2725 213 2448 61 
Q 2172 -91 1784 -91 
Q 1150 -91 751 415 
Q 353 922 353 1747 
Q 353 2572 751 3078 
Q 1150 3584 1784 3584 
Q 2172 3584 2448 3432 
Q 2725 3281 2906 2969 
z
M 947 1747 
Q 947 1113 1208 752 
Q 1469 391 1925 391 
Q 2381 391 2643 752 
Q 2906 1113 2906 1747 
Q 2906 2381 2643 2742 
Q 2381 3103 1925 3103 
Q 1469 3103 1208 2742 
Q 947 2381 947 1747 
z
" transform="scale(0.015625)"/>
      </defs>
      <use xlink:href="#DejaVuSans-41"/>
      <use xlink:href="#DejaVuSans-76" x="62.533203"/>
      <use xlink:href="#DejaVuSans-65" x="121.712891"/>
      <use xlink:href="#DejaVuSans-72" x="183.236328"/>
      <use xlink:href="#DejaVuSans-61" x="224.349609"/>
      <use xlink:href="#DejaVuSans-67" x="285.628906"/>
      <use xlink:href="#DejaVuSans-65" x="349.105469"/>
      <use xlink:href="#DejaVuSans-20" x="410.628906"/>
      <use xlink:href="#DejaVuSans-6d" x="442.416016"/>
      <use xlink:href="#DejaVuSans-61" x="539.828125"/>
      <use xlink:href="#DejaVuSans-78" x="601.107422"/>
      <use xlink:href="#DejaVuSans-20" x="660.287109"/>
      <use xlink:href="#DejaVuSans-66" x="692.074219"/>
      <use xlink:href="#DejaVuSans-69" x="727.279297"/>
      <use xlink:href="#DejaVuSans-74" x="755.0625"/>
      <use xlink:href="#DejaVuSans-6e" x="794.271484"/>
      <use xlink:href="#DejaVuSans-65" x="857.650391"/>
      <use xlink:href="#DejaVuSans-73" x="919.173828"/>
      <use xlink:href="#DejaVuSans-73" x="971.273438"/>
      <use xlink:href="#DejaVuSans-20" x="1023.373047"/>
      <use xlink:href="#DejaVuSans-61" x="1055.160156"/>
      <use xlink:href="#DejaVuSans-63" x="1116.439453"/>
      <use xlink:href="#DejaVuSans-68" x="1171.419922"/>
      <use xlink:href="#DejaVuSans-69" x="1234.798828"/>
      <use xlink:href="#DejaVuSans-65" x="1262.582031"/>
      <use xlink:href="#DejaVuSans-76" x="1324.105469"/>
      <use xlink:href="#DejaVuSans-65" x="1383.285156"/>
      <use xlink:href="#DejaVuSans-64" x="1444.808594"/>
     </g>
    </g>
   </g>
   <g id="line2d_13">
    <path d="M 43.78125 106.427254 
L 60.171596 92.137184 
L 86.033644 71.475029 
L 122.484152 57.335123 
L 148.3462 51.043258 
L 168.406362 48.759489 
L 184.796709 44.686915 
L 198.654549 41.542576 
L 239.287115 32.205209 
L 297.417614 27.071267 
" clip-path="url(#p562e45db6a)" style="fill: none; stroke-dasharray: 7.4,3.2; stroke-dashoffset: 0; stroke: #56b4e9; stroke-width: 2"/>
    <defs>
     <path id="me5a008dfcd" d="M 0 3 
C 0.795609 3 1.55874 2.683901 2.12132 2.12132 
C 2.683901 1.55874 3 0.795609 3 0 
C 3 -0.795609 2.683901 -1.55874 2.12132 -2.12132 
C 1.55874 -2.683901 0.795609 -3 0 -3 
C -0.795609 -3 -1.55874 -2.683901 -2.12132 -2.12132 
C -2.683901 -1.55874 -3 -0.795609 -3 0 
C -3 0.795609 -2.683901 1.55874 -2.12132 2.12132 
C -1.55874 2.683901 -0.795609 3 0 3 
z
" style="stroke: #56b4e9"/>
    </defs>
    <g clip-path="url(#p562e45db6a)">
     <use xlink:href="#me5a008dfcd" x="43.78125" y="106.427254" style="fill: #56b4e9; stroke: #56b4e9"/>
     <use xlink:href="#me5a008dfcd" x="60.171596" y="92.137184" style="fill: #56b4e9; stroke: #56b4e9"/>
     <use xlink:href="#me5a008dfcd" x="86.033644" y="71.475029" style="fill: #56b4e9; stroke: #56b4e9"/>
     <use xlink:href="#me5a008dfcd" x="122.484152" y="57.335123" style="fill: #56b4e9; stroke: #56b4e9"/>
     <use xlink:href="#me5a008dfcd" x="148.3462" y="51.043258" style="fill: #56b4e9; stroke: #56b4e9"/>
     <use xlink:href="#me5a008dfcd" x="168.406362" y="48.759489" style="fill: #56b4e9; stroke: #56b4e9"/>
     <use xlink:href="#me5a008dfcd" x="184.796709" y="44.686915" style="fill: #56b4e9; stroke: #56b4e9"/>
     <use xlink:href="#me5a008dfcd" x="198.654549" y="41.542576" style="fill: #56b4e9; stroke: #56b4e9"/>
     <use xlink:href="#me5a008dfcd" x="239.287115" y="32.205209" style="fill: #56b4e9; stroke: #56b4e9"/>
     <use xlink:href="#me5a008dfcd" x="297.417614" y="27.071267" style="fill: #56b4e9; stroke: #56b4e9"/>
    </g>
   </g>
   <g id="line2d_14">
    <path d="M 43.78125 99.703842 
L 60.171596 85.582817 
L 86.033644 68.920366 
L 122.484152 54.803576 
L 148.3462 49.52439 
L 168.406362 46.923126 
L 184.796709 44.755689 
L 198.654549 42.991371 
L 239.287115 39.174686 
L 297.417614 37.541048 
" clip-path="url(#p562e45db6a)" style="fill: none; stroke: #0173b2; stroke-width: 2; stroke-linecap: square"/>
    <defs>
     <path id="mb989607bd0" d="M 0 3 
C 0.795609 3 1.55874 2.683901 2.12132 2.12132 
C 2.683901 1.55874 3 0.795609 3 0 
C 3 -0.795609 2.683901 -1.55874 2.12132 -2.12132 
C 1.55874 -2.683901 0.795609 -3 0 -3 
C -0.795609 -3 -1.55874 -2.683901 -2.12132 -2.12132 
C -2.683901 -1.55874 -3 -0.795609 -3 0 
C -3 0.795609 -2.683901 1.55874 -2.12132 2.12132 
C -1.55874 2.683901 -0.795609 3 0 3 
z
" style="stroke: #0173b2"/>
    </defs>
    <g clip-path="url(#p562e45db6a)">
     <use xlink:href="#mb989607bd0" x="43.78125" y="99.703842" style="fill: #0173b2; stroke: #0173b2"/>
     <use xlink:href="#mb989607bd0" x="60.171596" y="85.582817" style="fill: #0173b2; stroke: #0173b2"/>
     <use xlink:href="#mb989607bd0" x="86.033644" y="68.920366" style="fill: #0173b2; stroke: #0173b2"/>
     <use xlink:href="#mb989607bd0" x="122.484152" y="54.803576" style="fill: #0173b2; stroke: #0173b2"/>
     <use xlink:href="#mb989607bd0" x="148.3462" y="49.52439" style="fill: #0173b2; stroke: #0173b2"/>
     <use xlink:href="#mb989607bd0" x="168.406362" y="46.923126" style="fill: #0173b2; stroke: #0173b2"/>
     <use xlink:href="#mb989607bd0" x="184.796709" y="44.755689" style="fill: #0173b2; stroke: #0173b2"/>
     <use xlink:href="#mb989607bd0" x="198.654549" y="42.991371" style="fill: #0173b2; stroke: #0173b2"/>
     <use xlink:href="#mb989607bd0" x="239.287115" y="39.174686" style="fill: #0173b2; stroke: #0173b2"/>
     <use xlink:href="#mb989607bd0" x="297.417614" y="37.541048" style="fill: #0173b2; stroke: #0173b2"/>
    </g>
   </g>
   <g id="line2d_15">
    <path d="M 43.78125 97.465268 
L 60.171596 91.990171 
L 86.033644 81.558328 
L 122.484152 63.95504 
L 148.3462 56.13547 
L 168.406362 48.309107 
L 184.796709 44.079817 
L 198.654549 40.30626 
L 239.287115 32.174216 
L 297.417614 26.013603 
" clip-path="url(#p562e45db6a)" style="fill: none; stroke-dasharray: 2,3.3; stroke-dashoffset: 0; stroke: #ece133; stroke-width: 2"/>
    <defs>
     <path id="m64a4e6040e" d="M 0 3 
C 0.795609 3 1.55874 2.683901 2.12132 2.12132 
C 2.683901 1.55874 3 0.795609 3 0 
C 3 -0.795609 2.683901 -1.55874 2.12132 -2.12132 
C 1.55874 -2.683901 0.795609 -3 0 -3 
C -0.795609 -3 -1.55874 -2.683901 -2.12132 -2.12132 
C -2.683901 -1.55874 -3 -0.795609 -3 0 
C -3 0.795609 -2.683901 1.55874 -2.12132 2.12132 
C -1.55874 2.683901 -0.795609 3 0 3 
z
" style="stroke: #ece133"/>
    </defs>
    <g clip-path="url(#p562e45db6a)">
     <use xlink:href="#m64a4e6040e" x="43.78125" y="97.465268" style="fill: #ece133; stroke: #ece133"/>
     <use xlink:href="#m64a4e6040e" x="60.171596" y="91.990171" style="fill: #ece133; stroke: #ece133"/>
     <use xlink:href="#m64a4e6040e" x="86.033644" y="81.558328" style="fill: #ece133; stroke: #ece133"/>
     <use xlink:href="#m64a4e6040e" x="122.484152" y="63.95504" style="fill: #ece133; stroke: #ece133"/>
     <use xlink:href="#m64a4e6040e" x="148.3462" y="56.13547" style="fill: #ece133; stroke: #ece133"/>
     <use xlink:href="#m64a4e6040e" x="168.406362" y="48.309107" style="fill: #ece133; stroke: #ece133"/>
     <use xlink:href="#m64a4e6040e" x="184.796709" y="44.079817" style="fill: #ece133; stroke: #ece133"/>
     <use xlink:href="#m64a4e6040e" x="198.654549" y="40.30626" style="fill: #ece133; stroke: #ece133"/>
     <use xlink:href="#m64a4e6040e" x="239.287115" y="32.174216" style="fill: #ece133; stroke: #ece133"/>
     <use xlink:href="#m64a4e6040e" x="297.417614" y="26.013603" style="fill: #ece133; stroke: #ece133"/>
    </g>
   </g>
   <g id="line2d_16">
    <path d="M 43.78125 88.30495 
L 60.171596 82.645537 
L 86.033644 69.885264 
L 122.484152 55.80818 
L 148.3462 46.718358 
L 168.406362 41.845579 
L 184.796709 38.519149 
L 198.654549 34.462194 
L 239.287115 27.672991 
L 297.417614 21.115805 
" clip-path="url(#p562e45db6a)" style="fill: none; stroke: #de8f05; stroke-width: 2; stroke-linecap: square"/>
    <defs>
     <path id="m70df7e8a03" d="M 0 3 
C 0.795609 3 1.55874 2.683901 2.12132 2.12132 
C 2.683901 1.55874 3 0.795609 3 0 
C 3 -0.795609 2.683901 -1.55874 2.12132 -2.12132 
C 1.55874 -2.683901 0.795609 -3 0 -3 
C -0.795609 -3 -1.55874 -2.683901 -2.12132 -2.12132 
C -2.683901 -1.55874 -3 -0.795609 -3 0 
C -3 0.795609 -2.683901 1.55874 -2.12132 2.12132 
C -1.55874 2.683901 -0.795609 3 0 3 
z
" style="stroke: #de8f05"/>
    </defs>
    <g clip-path="url(#p562e45db6a)">
     <use xlink:href="#m70df7e8a03" x="43.78125" y="88.30495" style="fill: #de8f05; stroke: #de8f05"/>
     <use xlink:href="#m70df7e8a03" x="60.171596" y="82.645537" style="fill: #de8f05; stroke: #de8f05"/>
     <use xlink:href="#m70df7e8a03" x="86.033644" y="69.885264" style="fill: #de8f05; stroke: #de8f05"/>
     <use xlink:href="#m70df7e8a03" x="122.484152" y="55.80818" style="fill: #de8f05; stroke: #de8f05"/>
     <use xlink:href="#m70df7e8a03" x="148.3462" y="46.718358" style="fill: #de8f05; stroke: #de8f05"/>
     <use xlink:href="#m70df7e8a03" x="168.406362" y="41.845579" style="fill: #de8f05; stroke: #de8f05"/>
     <use xlink:href="#m70df7e8a03" x="184.796709" y="38.519149" style="fill: #de8f05; stroke: #de8f05"/>
     <use xlink:href="#m70df7e8a03" x="198.654549" y="34.462194" style="fill: #de8f05; stroke: #de8f05"/>
     <use xlink:href="#m70df7e8a03" x="239.287115" y="27.672991" style="fill: #de8f05; stroke: #de8f05"/>
     <use xlink:href="#m70df7e8a03" x="297.417614" y="21.115805" style="fill: #de8f05; stroke: #de8f05"/>
    </g>
   </g>
   <g id="line2d_17">
    <path d="M 43.78125 81.399688 
L 60.171596 78.886156 
L 86.033644 69.315954 
L 122.484152 55.65263 
L 148.3462 46.363476 
L 168.406362 40.557541 
L 184.796709 37.617921 
L 198.654549 35.18342 
L 239.287115 28.217749 
L 297.417614 23.916008 
" clip-path="url(#p562e45db6a)" style="fill: none; stroke-dasharray: 2,3.3; stroke-dashoffset: 0; stroke: #fbafe4; stroke-width: 2"/>
    <defs>
     <path id="mca6bc5f6dd" d="M 0 3 
C 0.795609 3 1.55874 2.683901 2.12132 2.12132 
C 2.683901 1.55874 3 0.795609 3 0 
C 3 -0.795609 2.683901 -1.55874 2.12132 -2.12132 
C 1.55874 -2.683901 0.795609 -3 0 -3 
C -0.795609 -3 -1.55874 -2.683901 -2.12132 -2.12132 
C -2.683901 -1.55874 -3 -0.795609 -3 0 
C -3 0.795609 -2.683901 1.55874 -2.12132 2.12132 
C -1.55874 2.683901 -0.795609 3 0 3 
z
" style="stroke: #fbafe4"/>
    </defs>
    <g clip-path="url(#p562e45db6a)">
     <use xlink:href="#mca6bc5f6dd" x="43.78125" y="81.399688" style="fill: #fbafe4; stroke: #fbafe4"/>
     <use xlink:href="#mca6bc5f6dd" x="60.171596" y="78.886156" style="fill: #fbafe4; stroke: #fbafe4"/>
     <use xlink:href="#mca6bc5f6dd" x="86.033644" y="69.315954" style="fill: #fbafe4; stroke: #fbafe4"/>
     <use xlink:href="#mca6bc5f6dd" x="122.484152" y="55.65263" style="fill: #fbafe4; stroke: #fbafe4"/>
     <use xlink:href="#mca6bc5f6dd" x="148.3462" y="46.363476" style="fill: #fbafe4; stroke: #fbafe4"/>
     <use xlink:href="#mca6bc5f6dd" x="168.406362" y="40.557541" style="fill: #fbafe4; stroke: #fbafe4"/>
     <use xlink:href="#mca6bc5f6dd" x="184.796709" y="37.617921" style="fill: #fbafe4; stroke: #fbafe4"/>
     <use xlink:href="#mca6bc5f6dd" x="198.654549" y="35.18342" style="fill: #fbafe4; stroke: #fbafe4"/>
     <use xlink:href="#mca6bc5f6dd" x="239.287115" y="28.217749" style="fill: #fbafe4; stroke: #fbafe4"/>
     <use xlink:href="#mca6bc5f6dd" x="297.417614" y="23.916008" style="fill: #fbafe4; stroke: #fbafe4"/>
    </g>
   </g>
   <g id="line2d_18">
    <path d="M 43.78125 73.535598 
L 60.171596 69.269261 
L 86.033644 58.962152 
L 122.484152 44.99608 
L 148.3462 40.560646 
L 168.406362 34.550781 
L 184.796709 31.721664 
L 198.654549 30.481332 
L 239.287115 24.138708 
L 297.417614 20.192741 
" clip-path="url(#p562e45db6a)" style="fill: none; stroke: #cc78bc; stroke-width: 2; stroke-linecap: square"/>
    <defs>
     <path id="mf5b32ddd15" d="M 0 3 
C 0.795609 3 1.55874 2.683901 2.12132 2.12132 
C 2.683901 1.55874 3 0.795609 3 0 
C 3 -0.795609 2.683901 -1.55874 2.12132 -2.12132 
C 1.55874 -2.683901 0.795609 -3 0 -3 
C -0.795609 -3 -1.55874 -2.683901 -2.12132 -2.12132 
C -2.683901 -1.55874 -3 -0.795609 -3 0 
C -3 0.795609 -2.683901 1.55874 -2.12132 2.12132 
C -1.55874 2.683901 -0.795609 3 0 3 
z
" style="stroke: #cc78bc"/>
    </defs>
    <g clip-path="url(#p562e45db6a)">
     <use xlink:href="#mf5b32ddd15" x="43.78125" y="73.535598" style="fill: #cc78bc; stroke: #cc78bc"/>
     <use xlink:href="#mf5b32ddd15" x="60.171596" y="69.269261" style="fill: #cc78bc; stroke: #cc78bc"/>
     <use xlink:href="#mf5b32ddd15" x="86.033644" y="58.962152" style="fill: #cc78bc; stroke: #cc78bc"/>
     <use xlink:href="#mf5b32ddd15" x="122.484152" y="44.99608" style="fill: #cc78bc; stroke: #cc78bc"/>
     <use xlink:href="#mf5b32ddd15" x="148.3462" y="40.560646" style="fill: #cc78bc; stroke: #cc78bc"/>
     <use xlink:href="#mf5b32ddd15" x="168.406362" y="34.550781" style="fill: #cc78bc; stroke: #cc78bc"/>
     <use xlink:href="#mf5b32ddd15" x="184.796709" y="31.721664" style="fill: #cc78bc; stroke: #cc78bc"/>
     <use xlink:href="#mf5b32ddd15" x="198.654549" y="30.481332" style="fill: #cc78bc; stroke: #cc78bc"/>
     <use xlink:href="#mf5b32ddd15" x="239.287115" y="24.138708" style="fill: #cc78bc; stroke: #cc78bc"/>
     <use xlink:href="#mf5b32ddd15" x="297.417614" y="20.192741" style="fill: #cc78bc; stroke: #cc78bc"/>
    </g>
   </g>
   <g id="line2d_19">
    <path d="M 43.78125 81.292617 
L 60.171596 72.977499 
L 86.033644 64.659938 
L 122.484152 50.508651 
L 148.3462 44.866636 
L 168.406362 39.996945 
L 184.796709 33.775092 
L 198.654549 32.913584 
L 239.287115 27.75021 
L 297.417614 22.872052 
" clip-path="url(#p562e45db6a)" style="fill: none; stroke-dasharray: 2,3.3; stroke-dashoffset: 0; stroke: #ca9161; stroke-width: 2"/>
    <defs>
     <path id="m274c95c0b7" d="M 0 3 
C 0.795609 3 1.55874 2.683901 2.12132 2.12132 
C 2.683901 1.55874 3 0.795609 3 0 
C 3 -0.795609 2.683901 -1.55874 2.12132 -2.12132 
C 1.55874 -2.683901 0.795609 -3 0 -3 
C -0.795609 -3 -1.55874 -2.683901 -2.12132 -2.12132 
C -2.683901 -1.55874 -3 -0.795609 -3 0 
C -3 0.795609 -2.683901 1.55874 -2.12132 2.12132 
C -1.55874 2.683901 -0.795609 3 0 3 
z
" style="stroke: #ca9161"/>
    </defs>
    <g clip-path="url(#p562e45db6a)">
     <use xlink:href="#m274c95c0b7" x="43.78125" y="81.292617" style="fill: #ca9161; stroke: #ca9161"/>
     <use xlink:href="#m274c95c0b7" x="60.171596" y="72.977499" style="fill: #ca9161; stroke: #ca9161"/>
     <use xlink:href="#m274c95c0b7" x="86.033644" y="64.659938" style="fill: #ca9161; stroke: #ca9161"/>
     <use xlink:href="#m274c95c0b7" x="122.484152" y="50.508651" style="fill: #ca9161; stroke: #ca9161"/>
     <use xlink:href="#m274c95c0b7" x="148.3462" y="44.866636" style="fill: #ca9161; stroke: #ca9161"/>
     <use xlink:href="#m274c95c0b7" x="168.406362" y="39.996945" style="fill: #ca9161; stroke: #ca9161"/>
     <use xlink:href="#m274c95c0b7" x="184.796709" y="33.775092" style="fill: #ca9161; stroke: #ca9161"/>
     <use xlink:href="#m274c95c0b7" x="198.654549" y="32.913584" style="fill: #ca9161; stroke: #ca9161"/>
     <use xlink:href="#m274c95c0b7" x="239.287115" y="27.75021" style="fill: #ca9161; stroke: #ca9161"/>
     <use xlink:href="#m274c95c0b7" x="297.417614" y="22.872052" style="fill: #ca9161; stroke: #ca9161"/>
    </g>
   </g>
   <g id="line2d_20">
    <path d="M 43.78125 72.7569 
L 60.171596 64.951579 
L 86.033644 54.820796 
L 122.484152 44.498359 
L 148.3462 37.780173 
L 168.406362 34.751281 
L 184.796709 31.164185 
L 198.654549 27.883151 
L 239.287115 24.750107 
L 297.417614 20.49627 
" clip-path="url(#p562e45db6a)" style="fill: none; stroke: #d55e00; stroke-width: 2; stroke-linecap: square"/>
    <defs>
     <path id="m1352d4027a" d="M 0 3 
C 0.795609 3 1.55874 2.683901 2.12132 2.12132 
C 2.683901 1.55874 3 0.795609 3 0 
C 3 -0.795609 2.683901 -1.55874 2.12132 -2.12132 
C 1.55874 -2.683901 0.795609 -3 0 -3 
C -0.795609 -3 -1.55874 -2.683901 -2.12132 -2.12132 
C -2.683901 -1.55874 -3 -0.795609 -3 0 
C -3 0.795609 -2.683901 1.55874 -2.12132 2.12132 
C -1.55874 2.683901 -0.795609 3 0 3 
z
" style="stroke: #d55e00"/>
    </defs>
    <g clip-path="url(#p562e45db6a)">
     <use xlink:href="#m1352d4027a" x="43.78125" y="72.7569" style="fill: #d55e00; stroke: #d55e00"/>
     <use xlink:href="#m1352d4027a" x="60.171596" y="64.951579" style="fill: #d55e00; stroke: #d55e00"/>
     <use xlink:href="#m1352d4027a" x="86.033644" y="54.820796" style="fill: #d55e00; stroke: #d55e00"/>
     <use xlink:href="#m1352d4027a" x="122.484152" y="44.498359" style="fill: #d55e00; stroke: #d55e00"/>
     <use xlink:href="#m1352d4027a" x="148.3462" y="37.780173" style="fill: #d55e00; stroke: #d55e00"/>
     <use xlink:href="#m1352d4027a" x="168.406362" y="34.751281" style="fill: #d55e00; stroke: #d55e00"/>
     <use xlink:href="#m1352d4027a" x="184.796709" y="31.164185" style="fill: #d55e00; stroke: #d55e00"/>
     <use xlink:href="#m1352d4027a" x="198.654549" y="27.883151" style="fill: #d55e00; stroke: #d55e00"/>
     <use xlink:href="#m1352d4027a" x="239.287115" y="24.750107" style="fill: #d55e00; stroke: #d55e00"/>
     <use xlink:href="#m1352d4027a" x="297.417614" y="20.49627" style="fill: #d55e00; stroke: #d55e00"/>
    </g>
   </g>
   <g id="patch_3">
    <path d="M 43.78125 232.759219 
L 43.78125 10.999219 
" style="fill: none; stroke: #000000; stroke-width: 0.8; stroke-linejoin: miter; stroke-linecap: square"/>
   </g>
   <g id="patch_4">
    <path d="M 297.417614 232.759219 
L 297.417614 10.999219 
" style="fill: none; stroke: #000000; stroke-width: 0.8; stroke-linejoin: miter; stroke-linecap: square"/>
   </g>
   <g id="patch_5">
    <path d="M 43.78125 232.759219 
L 297.417614 232.759219 
" style="fill: none; stroke: #000000; stroke-width: 0.8; stroke-linejoin: miter; stroke-linecap: square"/>
   </g>
   <g id="patch_6">
    <path d="M 43.78125 10.999219 
L 297.417614 10.999219 
" style="fill: none; stroke: #000000; stroke-width: 0.8; stroke-linejoin: miter; stroke-linecap: square"/>
   </g>
  </g>
  <g id="axes_2">
   <g id="patch_7">
    <path d="M 348.144886 232.759219 
L 601.78125 232.759219 
L 601.78125 10.999219 
L 348.144886 10.999219 
z
" style="fill: #ffffff"/>
   </g>
   <g id="PolyCollection_9">
    <path d="M 348.144886 158.639552 
L 348.144886 274.354085 
L 364.535233 278.724866 
L 390.39728 275.668476 
L 426.847789 270.130288 
L 452.709836 264.871329 
L 472.769999 258.933032 
L 489.160345 250.997577 
L 503.018185 244.703141 
L 543.650751 217.495621 
L 601.78125 200.206436 
L 601.78125 -14.105599 
L 601.78125 -14.105599 
L 543.650751 -2.565983 
L 503.018185 24.188097 
L 489.160345 32.67766 
L 472.769999 45.439806 
L 452.709836 57.242309 
L 426.847789 70.463349 
L 390.39728 90.797161 
L 364.535233 124.700771 
L 348.144886 158.639552 
z
" clip-path="url(#pe3f21d9189)" style="fill: #56b4e9; fill-opacity: 0.08; stroke: #56b4e9; stroke-opacity: 0.08"/>
   </g>
   <g id="PolyCollection_10">
    <path d="M 348.144886 140.592833 
L 348.144886 277.616805 
L 364.535233 278.429852 
L 390.39728 269.746812 
L 426.847789 254.812005 
L 452.709836 246.324421 
L 472.769999 240.684139 
L 489.160345 237.552295 
L 503.018185 234.32027 
L 543.650751 229.094066 
L 601.78125 225.212854 
L 601.78125 3.761583 
L 601.78125 3.761583 
L 543.650751 7.272372 
L 503.018185 12.394968 
L 489.160345 15.815743 
L 472.769999 19.336698 
L 452.709836 26.262817 
L 426.847789 38.472832 
L 390.39728 69.368426 
L 364.535233 111.690185 
L 348.144886 140.592833 
z
" clip-path="url(#pe3f21d9189)" style="fill: #0173b2; fill-opacity: 0.08; stroke: #0173b2; stroke-opacity: 0.08"/>
   </g>
   <g id="PolyCollection_11">
    <defs>
     <path id="me97adbf1d1" d="M 348.144886 -82.876788 
L 348.144886 -37.394112 
L 364.535233 -36.656692 
L 390.39728 -36.158995 
L 426.847789 -39.581481 
L 452.709836 -51.302707 
L 472.769999 -65.616288 
L 489.160345 -77.484602 
L 503.018185 -78.646773 
L 543.650751 -105.06238 
L 601.78125 -128.917244 
L 601.78125 -288.108856 
L 601.78125 -288.108856 
L 543.650751 -272.45012 
L 503.018185 -239.998527 
L 489.160345 -226.645498 
L 472.769999 -213.515412 
L 452.709836 -197.185793 
L 426.847789 -173.425419 
L 390.39728 -127.657505 
L 364.535233 -93.291008 
L 348.144886 -82.876788 
z
" style="stroke: #ece133; stroke-opacity: 0.08"/>
    </defs>
    <g clip-path="url(#pe3f21d9189)">
     <use xlink:href="#me97adbf1d1" x="0" y="270.315469" style="fill: #ece133; fill-opacity: 0.08; stroke: #ece133; stroke-opacity: 0.08"/>
    </g>
   </g>
   <g id="PolyCollection_12">
    <defs>
     <path id="mf6b925984e" d="M 348.144886 -99.778713 
L 348.144886 -34.200987 
L 364.535233 -36.377011 
L 390.39728 -39.45542 
L 426.847789 -58.326361 
L 452.709836 -68.360893 
L 472.769999 -85.911159 
L 489.160345 -92.882999 
L 503.018185 -105.49347 
L 543.650751 -121.764692 
L 601.78125 -153.731074 
L 601.78125 -289.906226 
L 601.78125 -289.906226 
L 543.650751 -285.584608 
L 503.018185 -265.56783 
L 489.160345 -253.986301 
L 472.769999 -242.410941 
L 452.709836 -227.705207 
L 426.847789 -200.645339 
L 390.39728 -145.32748 
L 364.535233 -111.311489 
L 348.144886 -99.778713 
z
" style="stroke: #de8f05; stroke-opacity: 0.08"/>
    </defs>
    <g clip-path="url(#pe3f21d9189)">
     <use xlink:href="#mf6b925984e" x="0" y="270.315469" style="fill: #de8f05; fill-opacity: 0.08; stroke: #de8f05; stroke-opacity: 0.08"/>
    </g>
   </g>
   <g id="PolyCollection_13">
    <defs>
     <path id="m4497638fbf" d="M 348.144886 -122.676781 
L 348.144886 -51.622919 
L 364.535233 -50.851241 
L 390.39728 -53.946988 
L 426.847789 -66.635052 
L 452.709836 -81.10731 
L 472.769999 -93.503428 
L 489.160345 -99.294768 
L 503.018185 -113.839489 
L 543.650751 -137.574177 
L 601.78125 -149.804313 
L 601.78125 -290.607387 
L 601.78125 -290.607387 
L 543.650751 -285.903123 
L 503.018185 -273.349811 
L 489.160345 -262.089732 
L 472.769999 -250.140272 
L 452.709836 -235.92519 
L 426.847789 -199.594248 
L 390.39728 -158.253512 
L 364.535233 -142.802059 
L 348.144886 -122.676781 
z
" style="stroke: #fbafe4; stroke-opacity: 0.08"/>
    </defs>
    <g clip-path="url(#pe3f21d9189)">
     <use xlink:href="#m4497638fbf" x="0" y="270.315469" style="fill: #fbafe4; fill-opacity: 0.08; stroke: #fbafe4; stroke-opacity: 0.08"/>
    </g>
   </g>
   <g id="PolyCollection_14">
    <defs>
     <path id="md00a3f9052" d="M 348.144886 -130.831645 
L 348.144886 -44.274455 
L 364.535233 -49.038811 
L 390.39728 -61.124786 
L 426.847789 -83.613638 
L 452.709836 -99.339347 
L 472.769999 -118.268366 
L 489.160345 -125.454522 
L 503.018185 -136.105674 
L 543.650751 -163.524066 
L 601.78125 -176.641524 
L 601.78125 -301.670976 
L 601.78125 -301.670976 
L 543.650751 -290.596434 
L 503.018185 -276.888426 
L 489.160345 -270.605178 
L 472.769999 -262.469734 
L 452.709836 -251.561953 
L 426.847789 -222.935662 
L 390.39728 -180.912514 
L 364.535233 -142.195289 
L 348.144886 -130.831645 
z
" style="stroke: #cc78bc; stroke-opacity: 0.08"/>
    </defs>
    <g clip-path="url(#pe3f21d9189)">
     <use xlink:href="#md00a3f9052" x="0" y="270.315469" style="fill: #cc78bc; fill-opacity: 0.08; stroke: #cc78bc; stroke-opacity: 0.08"/>
    </g>
   </g>
   <g id="PolyCollection_15">
    <defs>
     <path id="m6b9e67a20a" d="M 348.144886 -135.199345 
L 348.144886 -58.453955 
L 364.535233 -62.64098 
L 390.39728 -64.955133 
L 426.847789 -78.02926 
L 452.709836 -93.541145 
L 472.769999 -105.500867 
L 489.160345 -121.04459 
L 503.018185 -131.869194 
L 543.650751 -143.862653 
L 601.78125 -155.294336 
L 601.78125 -296.406964 
L 601.78125 -296.406964 
L 543.650751 -288.485047 
L 503.018185 -277.899306 
L 489.160345 -270.17671 
L 472.769999 -251.045233 
L 452.709836 -241.232155 
L 426.847789 -216.42404 
L 390.39728 -177.888567 
L 364.535233 -155.20432 
L 348.144886 -135.199345 
z
" style="stroke: #ca9161; stroke-opacity: 0.08"/>
    </defs>
    <g clip-path="url(#pe3f21d9189)">
     <use xlink:href="#m6b9e67a20a" x="0" y="270.315469" style="fill: #ca9161; fill-opacity: 0.08; stroke: #ca9161; stroke-opacity: 0.08"/>
    </g>
   </g>
   <g id="PolyCollection_16">
    <defs>
     <path id="mf767a12ef6" d="M 348.144886 -140.589803 
L 348.144886 -55.482697 
L 364.535233 -57.21018 
L 390.39728 -62.855401 
L 426.847789 -81.349022 
L 452.709836 -105.265499 
L 472.769999 -119.023037 
L 489.160345 -136.325633 
L 503.018185 -143.407342 
L 543.650751 -165.377766 
L 601.78125 -175.27809 
L 601.78125 -299.80881 
L 601.78125 -299.80881 
L 543.650751 -288.742734 
L 503.018185 -276.037958 
L 489.160345 -274.249267 
L 472.769999 -264.134263 
L 452.709836 -252.087001 
L 426.847789 -234.877078 
L 390.39728 -184.826699 
L 364.535233 -162.24792 
L 348.144886 -140.589803 
z
" style="stroke: #d55e00; stroke-opacity: 0.08"/>
    </defs>
    <g clip-path="url(#pe3f21d9189)">
     <use xlink:href="#mf767a12ef6" x="0" y="270.315469" style="fill: #d55e00; fill-opacity: 0.08; stroke: #d55e00; stroke-opacity: 0.08"/>
    </g>
   </g>
   <g id="matplotlib.axis_3">
    <g id="xtick_7">
     <g id="line2d_21">
      <g>
       <use xlink:href="#m01f295246d" x="348.144886" y="232.759219" style="stroke: #000000; stroke-width: 0.8"/>
      </g>
     </g>
     <g id="text_15">
      <!-- 120 -->
      <g transform="translate(338.601136 247.357656) scale(0.1 -0.1)">
       <use xlink:href="#DejaVuSans-31"/>
       <use xlink:href="#DejaVuSans-32" x="63.623047"/>
       <use xlink:href="#DejaVuSans-30" x="127.246094"/>
      </g>
     </g>
    </g>
    <g id="xtick_8">
     <g id="line2d_22">
      <g>
       <use xlink:href="#m01f295246d" x="390.39728" y="232.759219" style="stroke: #000000; stroke-width: 0.8"/>
      </g>
     </g>
     <g id="text_16">
      <!-- 192 -->
      <g transform="translate(380.85353 247.357656) scale(0.1 -0.1)">
       <use xlink:href="#DejaVuSans-31"/>
       <use xlink:href="#DejaVuSans-39" x="63.623047"/>
       <use xlink:href="#DejaVuSans-32" x="127.246094"/>
      </g>
     </g>
    </g>
    <g id="xtick_9">
     <g id="line2d_23">
      <g>
       <use xlink:href="#m01f295246d" x="426.847789" y="232.759219" style="stroke: #000000; stroke-width: 0.8"/>
      </g>
     </g>
     <g id="text_17">
      <!-- 288 -->
      <g transform="translate(417.304039 247.357656) scale(0.1 -0.1)">
       <use xlink:href="#DejaVuSans-32"/>
       <use xlink:href="#DejaVuSans-38" x="63.623047"/>
       <use xlink:href="#DejaVuSans-38" x="127.246094"/>
      </g>
     </g>
    </g>
    <g id="xtick_10">
     <g id="line2d_24">
      <g>
       <use xlink:href="#m01f295246d" x="472.769999" y="232.759219" style="stroke: #000000; stroke-width: 0.8"/>
      </g>
     </g>
     <g id="text_18">
      <!-- 480 -->
      <g transform="translate(463.226249 247.357656) scale(0.1 -0.1)">
       <use xlink:href="#DejaVuSans-34"/>
       <use xlink:href="#DejaVuSans-38" x="63.623047"/>
       <use xlink:href="#DejaVuSans-30" x="127.246094"/>
      </g>
     </g>
    </g>
    <g id="xtick_11">
     <g id="line2d_25">
      <g>
       <use xlink:href="#m01f295246d" x="543.650751" y="232.759219" style="stroke: #000000; stroke-width: 0.8"/>
      </g>
     </g>
     <g id="text_19">
      <!-- 1056 -->
      <g transform="translate(530.925751 247.357656) scale(0.1 -0.1)">
       <use xlink:href="#DejaVuSans-31"/>
       <use xlink:href="#DejaVuSans-30" x="63.623047"/>
       <use xlink:href="#DejaVuSans-35" x="127.246094"/>
       <use xlink:href="#DejaVuSans-36" x="190.869141"/>
      </g>
     </g>
    </g>
    <g id="xtick_12">
     <g id="line2d_26">
      <g>
       <use xlink:href="#m01f295246d" x="601.78125" y="232.759219" style="stroke: #000000; stroke-width: 0.8"/>
      </g>
     </g>
     <g id="text_20">
      <!-- 2016 -->
      <g transform="translate(589.05625 247.357656) scale(0.1 -0.1)">
       <use xlink:href="#DejaVuSans-32"/>
       <use xlink:href="#DejaVuSans-30" x="63.623047"/>
       <use xlink:href="#DejaVuSans-31" x="127.246094"/>
       <use xlink:href="#DejaVuSans-36" x="190.869141"/>
      </g>
     </g>
    </g>
    <g id="text_21">
     <!-- Total number of variants -->
     <g transform="translate(413.920099 261.035781) scale(0.1 -0.1)">
      <use xlink:href="#DejaVuSans-54"/>
      <use xlink:href="#DejaVuSans-6f" x="44.083984"/>
      <use xlink:href="#DejaVuSans-74" x="105.265625"/>
      <use xlink:href="#DejaVuSans-61" x="144.474609"/>
      <use xlink:href="#DejaVuSans-6c" x="205.753906"/>
      <use xlink:href="#DejaVuSans-20" x="233.537109"/>
      <use xlink:href="#DejaVuSans-6e" x="265.324219"/>
      <use xlink:href="#DejaVuSans-75" x="328.703125"/>
      <use xlink:href="#DejaVuSans-6d" x="392.082031"/>
      <use xlink:href="#DejaVuSans-62" x="489.494141"/>
      <use xlink:href="#DejaVuSans-65" x="552.970703"/>
      <use xlink:href="#DejaVuSans-72" x="614.494141"/>
      <use xlink:href="#DejaVuSans-20" x="655.607422"/>
      <use xlink:href="#DejaVuSans-6f" x="687.394531"/>
      <use xlink:href="#DejaVuSans-66" x="748.576172"/>
      <use xlink:href="#DejaVuSans-20" x="783.78125"/>
      <use xlink:href="#DejaVuSans-76" x="815.568359"/>
      <use xlink:href="#DejaVuSans-61" x="874.748047"/>
      <use xlink:href="#DejaVuSans-72" x="936.027344"/>
      <use xlink:href="#DejaVuSans-69" x="977.140625"/>
      <use xlink:href="#DejaVuSans-61" x="1004.923828"/>
      <use xlink:href="#DejaVuSans-6e" x="1066.203125"/>
      <use xlink:href="#DejaVuSans-74" x="1129.582031"/>
      <use xlink:href="#DejaVuSans-73" x="1168.791016"/>
     </g>
    </g>
   </g>
   <g id="matplotlib.axis_4">
    <g id="ytick_7">
     <g id="line2d_27">
      <g>
       <use xlink:href="#m17dcca374b" x="348.144886" y="232.759219" style="stroke: #000000; stroke-width: 0.8"/>
      </g>
     </g>
     <g id="text_22">
      <!-- 0.0 -->
      <g transform="translate(325.241761 236.558437) scale(0.1 -0.1)">
       <use xlink:href="#DejaVuSans-30"/>
       <use xlink:href="#DejaVuSans-2e" x="63.623047"/>
       <use xlink:href="#DejaVuSans-30" x="95.410156"/>
      </g>
     </g>
    </g>
    <g id="ytick_8">
     <g id="line2d_28">
      <g>
       <use xlink:href="#m17dcca374b" x="348.144886" y="188.407219" style="stroke: #000000; stroke-width: 0.8"/>
      </g>
     </g>
     <g id="text_23">
      <!-- 0.2 -->
      <g transform="translate(325.241761 192.206437) scale(0.1 -0.1)">
       <use xlink:href="#DejaVuSans-30"/>
       <use xlink:href="#DejaVuSans-2e" x="63.623047"/>
       <use xlink:href="#DejaVuSans-32" x="95.410156"/>
      </g>
     </g>
    </g>
    <g id="ytick_9">
     <g id="line2d_29">
      <g>
       <use xlink:href="#m17dcca374b" x="348.144886" y="144.055219" style="stroke: #000000; stroke-width: 0.8"/>
      </g>
     </g>
     <g id="text_24">
      <!-- 0.4 -->
      <g transform="translate(325.241761 147.854437) scale(0.1 -0.1)">
       <use xlink:href="#DejaVuSans-30"/>
       <use xlink:href="#DejaVuSans-2e" x="63.623047"/>
       <use xlink:href="#DejaVuSans-34" x="95.410156"/>
      </g>
     </g>
    </g>
    <g id="ytick_10">
     <g id="line2d_30">
      <g>
       <use xlink:href="#m17dcca374b" x="348.144886" y="99.703219" style="stroke: #000000; stroke-width: 0.8"/>
      </g>
     </g>
     <g id="text_25">
      <!-- 0.6 -->
      <g transform="translate(325.241761 103.502437) scale(0.1 -0.1)">
       <use xlink:href="#DejaVuSans-30"/>
       <use xlink:href="#DejaVuSans-2e" x="63.623047"/>
       <use xlink:href="#DejaVuSans-36" x="95.410156"/>
      </g>
     </g>
    </g>
    <g id="ytick_11">
     <g id="line2d_31">
      <g>
       <use xlink:href="#m17dcca374b" x="348.144886" y="55.351219" style="stroke: #000000; stroke-width: 0.8"/>
      </g>
     </g>
     <g id="text_26">
      <!-- 0.8 -->
      <g transform="translate(325.241761 59.150437) scale(0.1 -0.1)">
       <use xlink:href="#DejaVuSans-30"/>
       <use xlink:href="#DejaVuSans-2e" x="63.623047"/>
       <use xlink:href="#DejaVuSans-38" x="95.410156"/>
      </g>
     </g>
    </g>
    <g id="ytick_12">
     <g id="line2d_32">
      <g>
       <use xlink:href="#m17dcca374b" x="348.144886" y="10.999219" style="stroke: #000000; stroke-width: 0.8"/>
      </g>
     </g>
     <g id="text_27">
      <!-- 1.0 -->
      <g transform="translate(325.241761 14.798437) scale(0.1 -0.1)">
       <use xlink:href="#DejaVuSans-31"/>
       <use xlink:href="#DejaVuSans-2e" x="63.623047"/>
       <use xlink:href="#DejaVuSans-30" x="95.410156"/>
      </g>
     </g>
    </g>
    <g id="text_28">
     <!-- Fraction reaching the global optimum -->
     <g transform="translate(319.162074 215.876094) rotate(-90) scale(0.1 -0.1)">
      <defs>
       <path id="DejaVuSans-46" d="M 628 4666 
L 3309 4666 
L 3309 4134 
L 1259 4134 
L 1259 2759 
L 3109 2759 
L 3109 2228 
L 1259 2228 
L 1259 0 
L 628 0 
L 628 4666 
z
" transform="scale(0.015625)"/>
       <path id="DejaVuSans-70" d="M 1159 525 
L 1159 -1331 
L 581 -1331 
L 581 3500 
L 1159 3500 
L 1159 2969 
Q 1341 3281 1617 3432 
Q 1894 3584 2278 3584 
Q 2916 3584 3314 3078 
Q 3713 2572 3713 1747 
Q 3713 922 3314 415 
Q 2916 -91 2278 -91 
Q 1894 -91 1617 61 
Q 1341 213 1159 525 
z
M 3116 1747 
Q 3116 2381 2855 2742 
Q 2594 3103 2138 3103 
Q 1681 3103 1420 2742 
Q 1159 2381 1159 1747 
Q 1159 1113 1420 752 
Q 1681 391 2138 391 
Q 2594 391 2855 752 
Q 3116 1113 3116 1747 
z
" transform="scale(0.015625)"/>
      </defs>
      <use xlink:href="#DejaVuSans-46"/>
      <use xlink:href="#DejaVuSans-72" x="50.269531"/>
      <use xlink:href="#DejaVuSans-61" x="91.382812"/>
      <use xlink:href="#DejaVuSans-63" x="152.662109"/>
      <use xlink:href="#DejaVuSans-74" x="207.642578"/>
      <use xlink:href="#DejaVuSans-69" x="246.851562"/>
      <use xlink:href="#DejaVuSans-6f" x="274.634766"/>
      <use xlink:href="#DejaVuSans-6e" x="335.816406"/>
      <use xlink:href="#DejaVuSans-20" x="399.195312"/>
      <use xlink:href="#DejaVuSans-72" x="430.982422"/>
      <use xlink:href="#DejaVuSans-65" x="469.845703"/>
      <use xlink:href="#DejaVuSans-61" x="531.369141"/>
      <use xlink:href="#DejaVuSans-63" x="592.648438"/>
      <use xlink:href="#DejaVuSans-68" x="647.628906"/>
      <use xlink:href="#DejaVuSans-69" x="711.007812"/>
      <use xlink:href="#DejaVuSans-6e" x="738.791016"/>
      <use xlink:href="#DejaVuSans-67" x="802.169922"/>
      <use xlink:href="#DejaVuSans-20" x="865.646484"/>
      <use xlink:href="#DejaVuSans-74" x="897.433594"/>
      <use xlink:href="#DejaVuSans-68" x="936.642578"/>
      <use xlink:href="#DejaVuSans-65" x="1000.021484"/>
      <use xlink:href="#DejaVuSans-20" x="1061.544922"/>
      <use xlink:href="#DejaVuSans-67" x="1093.332031"/>
      <use xlink:href="#DejaVuSans-6c" x="1156.808594"/>
      <use xlink:href="#DejaVuSans-6f" x="1184.591797"/>
      <use xlink:href="#DejaVuSans-62" x="1245.773438"/>
      <use xlink:href="#DejaVuSans-61" x="1309.25"/>
      <use xlink:href="#DejaVuSans-6c" x="1370.529297"/>
      <use xlink:href="#DejaVuSans-20" x="1398.3125"/>
      <use xlink:href="#DejaVuSans-6f" x="1430.099609"/>
      <use xlink:href="#DejaVuSans-70" x="1491.28125"/>
      <use xlink:href="#DejaVuSans-74" x="1554.757812"/>
      <use xlink:href="#DejaVuSans-69" x="1593.966797"/>
      <use xlink:href="#DejaVuSans-6d" x="1621.75"/>
      <use xlink:href="#DejaVuSans-75" x="1719.162109"/>
      <use xlink:href="#DejaVuSans-6d" x="1782.541016"/>
     </g>
    </g>
   </g>
   <g id="line2d_33">
    <path d="M 348.144886 216.496819 
L 364.535233 201.712819 
L 390.39728 183.232819 
L 426.847789 170.296819 
L 452.709836 161.056819 
L 472.769999 152.186419 
L 489.160345 141.837619 
L 503.018185 134.445619 
L 543.650751 107.464819 
L 601.78125 93.050419 
" clip-path="url(#pe3f21d9189)" style="fill: none; stroke-dasharray: 7.4,3.2; stroke-dashoffset: 0; stroke: #56b4e9; stroke-width: 2"/>
    <g clip-path="url(#pe3f21d9189)">
     <use xlink:href="#me5a008dfcd" x="348.144886" y="216.496819" style="fill: #56b4e9; stroke: #56b4e9"/>
     <use xlink:href="#me5a008dfcd" x="364.535233" y="201.712819" style="fill: #56b4e9; stroke: #56b4e9"/>
     <use xlink:href="#me5a008dfcd" x="390.39728" y="183.232819" style="fill: #56b4e9; stroke: #56b4e9"/>
     <use xlink:href="#me5a008dfcd" x="426.847789" y="170.296819" style="fill: #56b4e9; stroke: #56b4e9"/>
     <use xlink:href="#me5a008dfcd" x="452.709836" y="161.056819" style="fill: #56b4e9; stroke: #56b4e9"/>
     <use xlink:href="#me5a008dfcd" x="472.769999" y="152.186419" style="fill: #56b4e9; stroke: #56b4e9"/>
     <use xlink:href="#me5a008dfcd" x="489.160345" y="141.837619" style="fill: #56b4e9; stroke: #56b4e9"/>
     <use xlink:href="#me5a008dfcd" x="503.018185" y="134.445619" style="fill: #56b4e9; stroke: #56b4e9"/>
     <use xlink:href="#me5a008dfcd" x="543.650751" y="107.464819" style="fill: #56b4e9; stroke: #56b4e9"/>
     <use xlink:href="#me5a008dfcd" x="601.78125" y="93.050419" style="fill: #56b4e9; stroke: #56b4e9"/>
    </g>
   </g>
   <g id="line2d_34">
    <path d="M 348.144886 209.104819 
L 364.535233 195.060019 
L 390.39728 169.557619 
L 426.847789 146.642419 
L 452.709836 136.293619 
L 472.769999 130.010419 
L 489.160345 126.684019 
L 503.018185 123.357619 
L 543.650751 118.183219 
L 601.78125 114.487219 
" clip-path="url(#pe3f21d9189)" style="fill: none; stroke: #0173b2; stroke-width: 2; stroke-linecap: square"/>
    <g clip-path="url(#pe3f21d9189)">
     <use xlink:href="#mb989607bd0" x="348.144886" y="209.104819" style="fill: #0173b2; stroke: #0173b2"/>
     <use xlink:href="#mb989607bd0" x="364.535233" y="195.060019" style="fill: #0173b2; stroke: #0173b2"/>
     <use xlink:href="#mb989607bd0" x="390.39728" y="169.557619" style="fill: #0173b2; stroke: #0173b2"/>
     <use xlink:href="#mb989607bd0" x="426.847789" y="146.642419" style="fill: #0173b2; stroke: #0173b2"/>
     <use xlink:href="#mb989607bd0" x="452.709836" y="136.293619" style="fill: #0173b2; stroke: #0173b2"/>
     <use xlink:href="#mb989607bd0" x="472.769999" y="130.010419" style="fill: #0173b2; stroke: #0173b2"/>
     <use xlink:href="#mb989607bd0" x="489.160345" y="126.684019" style="fill: #0173b2; stroke: #0173b2"/>
     <use xlink:href="#mb989607bd0" x="503.018185" y="123.357619" style="fill: #0173b2; stroke: #0173b2"/>
     <use xlink:href="#mb989607bd0" x="543.650751" y="118.183219" style="fill: #0173b2; stroke: #0173b2"/>
     <use xlink:href="#mb989607bd0" x="601.78125" y="114.487219" style="fill: #0173b2; stroke: #0173b2"/>
    </g>
   </g>
   <g id="line2d_35">
    <path d="M 348.144886 210.180019 
L 364.535233 205.341619 
L 390.39728 188.407219 
L 426.847789 163.812019 
L 452.709836 146.071219 
L 472.769999 130.749619 
L 489.160345 118.250419 
L 503.018185 110.992819 
L 543.650751 81.559219 
L 601.78125 61.802419 
" clip-path="url(#pe3f21d9189)" style="fill: none; stroke-dasharray: 2,3.3; stroke-dashoffset: 0; stroke: #ece133; stroke-width: 2"/>
    <g clip-path="url(#pe3f21d9189)">
     <use xlink:href="#m64a4e6040e" x="348.144886" y="210.180019" style="fill: #ece133; stroke: #ece133"/>
     <use xlink:href="#m64a4e6040e" x="364.535233" y="205.341619" style="fill: #ece133; stroke: #ece133"/>
     <use xlink:href="#m64a4e6040e" x="390.39728" y="188.407219" style="fill: #ece133; stroke: #ece133"/>
     <use xlink:href="#m64a4e6040e" x="426.847789" y="163.812019" style="fill: #ece133; stroke: #ece133"/>
     <use xlink:href="#m64a4e6040e" x="452.709836" y="146.071219" style="fill: #ece133; stroke: #ece133"/>
     <use xlink:href="#m64a4e6040e" x="472.769999" y="130.749619" style="fill: #ece133; stroke: #ece133"/>
     <use xlink:href="#m64a4e6040e" x="489.160345" y="118.250419" style="fill: #ece133; stroke: #ece133"/>
     <use xlink:href="#m64a4e6040e" x="503.018185" y="110.992819" style="fill: #ece133; stroke: #ece133"/>
     <use xlink:href="#m64a4e6040e" x="543.650751" y="81.559219" style="fill: #ece133; stroke: #ece133"/>
     <use xlink:href="#m64a4e6040e" x="601.78125" y="61.802419" style="fill: #ece133; stroke: #ece133"/>
    </g>
   </g>
   <g id="line2d_36">
    <path d="M 348.144886 203.325619 
L 364.535233 196.471219 
L 390.39728 177.924019 
L 426.847789 140.829619 
L 452.709836 122.282419 
L 472.769999 106.154419 
L 489.160345 96.880819 
L 503.018185 84.784819 
L 543.650751 66.640819 
L 601.78125 48.496819 
" clip-path="url(#pe3f21d9189)" style="fill: none; stroke: #de8f05; stroke-width: 2; stroke-linecap: square"/>
    <g clip-path="url(#pe3f21d9189)">
     <use xlink:href="#m70df7e8a03" x="348.144886" y="203.325619" style="fill: #de8f05; stroke: #de8f05"/>
     <use xlink:href="#m70df7e8a03" x="364.535233" y="196.471219" style="fill: #de8f05; stroke: #de8f05"/>
     <use xlink:href="#m70df7e8a03" x="390.39728" y="177.924019" style="fill: #de8f05; stroke: #de8f05"/>
     <use xlink:href="#m70df7e8a03" x="426.847789" y="140.829619" style="fill: #de8f05; stroke: #de8f05"/>
     <use xlink:href="#m70df7e8a03" x="452.709836" y="122.282419" style="fill: #de8f05; stroke: #de8f05"/>
     <use xlink:href="#m70df7e8a03" x="472.769999" y="106.154419" style="fill: #de8f05; stroke: #de8f05"/>
     <use xlink:href="#m70df7e8a03" x="489.160345" y="96.880819" style="fill: #de8f05; stroke: #de8f05"/>
     <use xlink:href="#m70df7e8a03" x="503.018185" y="84.784819" style="fill: #de8f05; stroke: #de8f05"/>
     <use xlink:href="#m70df7e8a03" x="543.650751" y="66.640819" style="fill: #de8f05; stroke: #de8f05"/>
     <use xlink:href="#m70df7e8a03" x="601.78125" y="48.496819" style="fill: #de8f05; stroke: #de8f05"/>
    </g>
   </g>
   <g id="line2d_37">
    <path d="M 348.144886 183.165619 
L 364.535233 173.488819 
L 390.39728 164.215219 
L 426.847789 137.200819 
L 452.709836 111.799219 
L 472.769999 98.493619 
L 489.160345 89.623219 
L 503.018185 76.720819 
L 543.650751 58.576819 
L 601.78125 50.109619 
" clip-path="url(#pe3f21d9189)" style="fill: none; stroke-dasharray: 2,3.3; stroke-dashoffset: 0; stroke: #fbafe4; stroke-width: 2"/>
    <g clip-path="url(#pe3f21d9189)">
     <use xlink:href="#mca6bc5f6dd" x="348.144886" y="183.165619" style="fill: #fbafe4; stroke: #fbafe4"/>
     <use xlink:href="#mca6bc5f6dd" x="364.535233" y="173.488819" style="fill: #fbafe4; stroke: #fbafe4"/>
     <use xlink:href="#mca6bc5f6dd" x="390.39728" y="164.215219" style="fill: #fbafe4; stroke: #fbafe4"/>
     <use xlink:href="#mca6bc5f6dd" x="426.847789" y="137.200819" style="fill: #fbafe4; stroke: #fbafe4"/>
     <use xlink:href="#mca6bc5f6dd" x="452.709836" y="111.799219" style="fill: #fbafe4; stroke: #fbafe4"/>
     <use xlink:href="#mca6bc5f6dd" x="472.769999" y="98.493619" style="fill: #fbafe4; stroke: #fbafe4"/>
     <use xlink:href="#mca6bc5f6dd" x="489.160345" y="89.623219" style="fill: #fbafe4; stroke: #fbafe4"/>
     <use xlink:href="#mca6bc5f6dd" x="503.018185" y="76.720819" style="fill: #fbafe4; stroke: #fbafe4"/>
     <use xlink:href="#mca6bc5f6dd" x="543.650751" y="58.576819" style="fill: #fbafe4; stroke: #fbafe4"/>
     <use xlink:href="#mca6bc5f6dd" x="601.78125" y="50.109619" style="fill: #fbafe4; stroke: #fbafe4"/>
    </g>
   </g>
   <g id="line2d_38">
    <path d="M 348.144886 182.762419 
L 364.535233 174.698419 
L 390.39728 149.296819 
L 426.847789 117.040819 
L 452.709836 94.864819 
L 472.769999 79.946419 
L 489.160345 72.285619 
L 503.018185 63.818419 
L 543.650751 43.255219 
L 601.78125 31.159219 
" clip-path="url(#pe3f21d9189)" style="fill: none; stroke: #cc78bc; stroke-width: 2; stroke-linecap: square"/>
    <g clip-path="url(#pe3f21d9189)">
     <use xlink:href="#mf5b32ddd15" x="348.144886" y="182.762419" style="fill: #cc78bc; stroke: #cc78bc"/>
     <use xlink:href="#mf5b32ddd15" x="364.535233" y="174.698419" style="fill: #cc78bc; stroke: #cc78bc"/>
     <use xlink:href="#mf5b32ddd15" x="390.39728" y="149.296819" style="fill: #cc78bc; stroke: #cc78bc"/>
     <use xlink:href="#mf5b32ddd15" x="426.847789" y="117.040819" style="fill: #cc78bc; stroke: #cc78bc"/>
     <use xlink:href="#mf5b32ddd15" x="452.709836" y="94.864819" style="fill: #cc78bc; stroke: #cc78bc"/>
     <use xlink:href="#mf5b32ddd15" x="472.769999" y="79.946419" style="fill: #cc78bc; stroke: #cc78bc"/>
     <use xlink:href="#mf5b32ddd15" x="489.160345" y="72.285619" style="fill: #cc78bc; stroke: #cc78bc"/>
     <use xlink:href="#mf5b32ddd15" x="503.018185" y="63.818419" style="fill: #cc78bc; stroke: #cc78bc"/>
     <use xlink:href="#mf5b32ddd15" x="543.650751" y="43.255219" style="fill: #cc78bc; stroke: #cc78bc"/>
     <use xlink:href="#mf5b32ddd15" x="601.78125" y="31.159219" style="fill: #cc78bc; stroke: #cc78bc"/>
    </g>
   </g>
   <g id="line2d_39">
    <path d="M 348.144886 173.488819 
L 364.535233 161.392819 
L 390.39728 148.893619 
L 426.847789 123.088819 
L 452.709836 102.928819 
L 472.769999 92.042419 
L 489.160345 74.704819 
L 503.018185 65.431219 
L 543.650751 54.141619 
L 601.78125 44.464819 
" clip-path="url(#pe3f21d9189)" style="fill: none; stroke-dasharray: 2,3.3; stroke-dashoffset: 0; stroke: #ca9161; stroke-width: 2"/>
    <g clip-path="url(#pe3f21d9189)">
     <use xlink:href="#m274c95c0b7" x="348.144886" y="173.488819" style="fill: #ca9161; stroke: #ca9161"/>
     <use xlink:href="#m274c95c0b7" x="364.535233" y="161.392819" style="fill: #ca9161; stroke: #ca9161"/>
     <use xlink:href="#m274c95c0b7" x="390.39728" y="148.893619" style="fill: #ca9161; stroke: #ca9161"/>
     <use xlink:href="#m274c95c0b7" x="426.847789" y="123.088819" style="fill: #ca9161; stroke: #ca9161"/>
     <use xlink:href="#m274c95c0b7" x="452.709836" y="102.928819" style="fill: #ca9161; stroke: #ca9161"/>
     <use xlink:href="#m274c95c0b7" x="472.769999" y="92.042419" style="fill: #ca9161; stroke: #ca9161"/>
     <use xlink:href="#m274c95c0b7" x="489.160345" y="74.704819" style="fill: #ca9161; stroke: #ca9161"/>
     <use xlink:href="#m274c95c0b7" x="503.018185" y="65.431219" style="fill: #ca9161; stroke: #ca9161"/>
     <use xlink:href="#m274c95c0b7" x="543.650751" y="54.141619" style="fill: #ca9161; stroke: #ca9161"/>
     <use xlink:href="#m274c95c0b7" x="601.78125" y="44.464819" style="fill: #ca9161; stroke: #ca9161"/>
    </g>
   </g>
   <g id="line2d_40">
    <path d="M 348.144886 172.279219 
L 364.535233 160.586419 
L 390.39728 146.474419 
L 426.847789 112.202419 
L 452.709836 91.639219 
L 472.769999 78.736819 
L 489.160345 65.028019 
L 503.018185 60.592819 
L 543.650751 43.255219 
L 601.78125 32.772019 
" clip-path="url(#pe3f21d9189)" style="fill: none; stroke: #d55e00; stroke-width: 2; stroke-linecap: square"/>
    <g clip-path="url(#pe3f21d9189)">
     <use xlink:href="#m1352d4027a" x="348.144886" y="172.279219" style="fill: #d55e00; stroke: #d55e00"/>
     <use xlink:href="#m1352d4027a" x="364.535233" y="160.586419" style="fill: #d55e00; stroke: #d55e00"/>
     <use xlink:href="#m1352d4027a" x="390.39728" y="146.474419" style="fill: #d55e00; stroke: #d55e00"/>
     <use xlink:href="#m1352d4027a" x="426.847789" y="112.202419" style="fill: #d55e00; stroke: #d55e00"/>
     <use xlink:href="#m1352d4027a" x="452.709836" y="91.639219" style="fill: #d55e00; stroke: #d55e00"/>
     <use xlink:href="#m1352d4027a" x="472.769999" y="78.736819" style="fill: #d55e00; stroke: #d55e00"/>
     <use xlink:href="#m1352d4027a" x="489.160345" y="65.028019" style="fill: #d55e00; stroke: #d55e00"/>
     <use xlink:href="#m1352d4027a" x="503.018185" y="60.592819" style="fill: #d55e00; stroke: #d55e00"/>
     <use xlink:href="#m1352d4027a" x="543.650751" y="43.255219" style="fill: #d55e00; stroke: #d55e00"/>
     <use xlink:href="#m1352d4027a" x="601.78125" y="32.772019" style="fill: #d55e00; stroke: #d55e00"/>
    </g>
   </g>
   <g id="patch_8">
    <path d="M 348.144886 232.759219 
L 348.144886 10.999219 
" style="fill: none; stroke: #000000; stroke-width: 0.8; stroke-linejoin: miter; stroke-linecap: square"/>
   </g>
   <g id="patch_9">
    <path d="M 601.78125 232.759219 
L 601.78125 10.999219 
" style="fill: none; stroke: #000000; stroke-width: 0.8; stroke-linejoin: miter; stroke-linecap: square"/>
   </g>
   <g id="patch_10">
    <path d="M 348.144886 232.759219 
L 601.78125 232.759219 
" style="fill: none; stroke: #000000; stroke-width: 0.8; stroke-linejoin: miter; stroke-linecap: square"/>
   </g>
   <g id="patch_11">
    <path d="M 348.144886 10.999219 
L 601.78125 10.999219 
" style="fill: none; stroke: #000000; stroke-width: 0.8; stroke-linejoin: miter; stroke-linecap: square"/>
   </g>
   <g id="legend_1">
    <g id="patch_12">
     <path d="M 608.78125 130.880219 
L 732.207812 130.880219 
Q 734.207812 130.880219 734.207812 128.880219 
L 734.207812 12.455219 
Q 734.207812 10.455219 732.207812 10.455219 
L 608.78125 10.455219 
Q 606.78125 10.455219 606.78125 12.455219 
L 606.78125 128.880219 
Q 606.78125 130.880219 608.78125 130.880219 
z
" style="fill: #ffffff; opacity: 0.8; stroke: #cccccc; stroke-linejoin: miter"/>
    </g>
    <g id="line2d_41">
     <path d="M 610.78125 18.553656 
L 620.78125 18.553656 
L 630.78125 18.553656 
" style="fill: none; stroke-dasharray: 7.4,3.2; stroke-dashoffset: 0; stroke: #56b4e9; stroke-width: 2"/>
     <g>
      <use xlink:href="#me5a008dfcd" x="620.78125" y="18.553656" style="fill: #56b4e9; stroke: #56b4e9"/>
     </g>
    </g>
    <g id="text_29">
     <!-- MLDE boosting -->
     <g transform="translate(638.78125 22.053656) scale(0.1 -0.1)">
      <defs>
       <path id="DejaVuSans-4d" d="M 628 4666 
L 1569 4666 
L 2759 1491 
L 3956 4666 
L 4897 4666 
L 4897 0 
L 4281 0 
L 4281 4097 
L 3078 897 
L 2444 897 
L 1241 4097 
L 1241 0 
L 628 0 
L 628 4666 
z
" transform="scale(0.015625)"/>
       <path id="DejaVuSans-4c" d="M 628 4666 
L 1259 4666 
L 1259 531 
L 3531 531 
L 3531 0 
L 628 0 
L 628 4666 
z
" transform="scale(0.015625)"/>
       <path id="DejaVuSans-44" d="M 1259 4147 
L 1259 519 
L 2022 519 
Q 2988 519 3436 956 
Q 3884 1394 3884 2338 
Q 3884 3275 3436 3711 
Q 2988 4147 2022 4147 
L 1259 4147 
z
M 628 4666 
L 1925 4666 
Q 3281 4666 3915 4102 
Q 4550 3538 4550 2338 
Q 4550 1131 3912 565 
Q 3275 0 1925 0 
L 628 0 
L 628 4666 
z
" transform="scale(0.015625)"/>
       <path id="DejaVuSans-45" d="M 628 4666 
L 3578 4666 
L 3578 4134 
L 1259 4134 
L 1259 2753 
L 3481 2753 
L 3481 2222 
L 1259 2222 
L 1259 531 
L 3634 531 
L 3634 0 
L 628 0 
L 628 4666 
z
" transform="scale(0.015625)"/>
      </defs>
      <use xlink:href="#DejaVuSans-4d"/>
      <use xlink:href="#DejaVuSans-4c" x="86.279297"/>
      <use xlink:href="#DejaVuSans-44" x="141.992188"/>
      <use xlink:href="#DejaVuSans-45" x="218.994141"/>
      <use xlink:href="#DejaVuSans-20" x="282.177734"/>
      <use xlink:href="#DejaVuSans-62" x="313.964844"/>
      <use xlink:href="#DejaVuSans-6f" x="377.441406"/>
      <use xlink:href="#DejaVuSans-6f" x="438.623047"/>
      <use xlink:href="#DejaVuSans-73" x="499.804688"/>
      <use xlink:href="#DejaVuSans-74" x="551.904297"/>
      <use xlink:href="#DejaVuSans-69" x="591.113281"/>
      <use xlink:href="#DejaVuSans-6e" x="618.896484"/>
      <use xlink:href="#DejaVuSans-67" x="682.275391"/>
     </g>
    </g>
    <g id="line2d_42">
     <path d="M 610.78125 33.231781 
L 620.78125 33.231781 
L 630.78125 33.231781 
" style="fill: none; stroke: #0173b2; stroke-width: 2; stroke-linecap: square"/>
     <g>
      <use xlink:href="#mb989607bd0" x="620.78125" y="33.231781" style="fill: #0173b2; stroke: #0173b2"/>
     </g>
    </g>
    <g id="text_30">
     <!-- MLDE ridge -->
     <g transform="translate(638.78125 36.731781) scale(0.1 -0.1)">
      <use xlink:href="#DejaVuSans-4d"/>
      <use xlink:href="#DejaVuSans-4c" x="86.279297"/>
      <use xlink:href="#DejaVuSans-44" x="141.992188"/>
      <use xlink:href="#DejaVuSans-45" x="218.994141"/>
      <use xlink:href="#DejaVuSans-20" x="282.177734"/>
      <use xlink:href="#DejaVuSans-72" x="313.964844"/>
      <use xlink:href="#DejaVuSans-69" x="355.078125"/>
      <use xlink:href="#DejaVuSans-64" x="382.861328"/>
      <use xlink:href="#DejaVuSans-67" x="446.337891"/>
      <use xlink:href="#DejaVuSans-65" x="509.814453"/>
     </g>
    </g>
    <g id="line2d_43">
     <path d="M 610.78125 47.909906 
L 620.78125 47.909906 
L 630.78125 47.909906 
" style="fill: none; stroke-dasharray: 2,3.3; stroke-dashoffset: 0; stroke: #ece133; stroke-width: 2"/>
     <g>
      <use xlink:href="#m64a4e6040e" x="620.78125" y="47.909906" style="fill: #ece133; stroke: #ece133"/>
     </g>
    </g>
    <g id="text_31">
     <!-- ALDE boosting -->
     <g transform="translate(638.78125 51.409906) scale(0.1 -0.1)">
      <use xlink:href="#DejaVuSans-41"/>
      <use xlink:href="#DejaVuSans-4c" x="68.408203"/>
      <use xlink:href="#DejaVuSans-44" x="124.121094"/>
      <use xlink:href="#DejaVuSans-45" x="201.123047"/>
      <use xlink:href="#DejaVuSans-20" x="264.306641"/>
      <use xlink:href="#DejaVuSans-62" x="296.09375"/>
      <use xlink:href="#DejaVuSans-6f" x="359.570312"/>
      <use xlink:href="#DejaVuSans-6f" x="420.751953"/>
      <use xlink:href="#DejaVuSans-73" x="481.933594"/>
      <use xlink:href="#DejaVuSans-74" x="534.033203"/>
      <use xlink:href="#DejaVuSans-69" x="573.242188"/>
      <use xlink:href="#DejaVuSans-6e" x="601.025391"/>
      <use xlink:href="#DejaVuSans-67" x="664.404297"/>
     </g>
    </g>
    <g id="line2d_44">
     <path d="M 610.78125 62.588031 
L 620.78125 62.588031 
L 630.78125 62.588031 
" style="fill: none; stroke: #de8f05; stroke-width: 2; stroke-linecap: square"/>
     <g>
      <use xlink:href="#m70df7e8a03" x="620.78125" y="62.588031" style="fill: #de8f05; stroke: #de8f05"/>
     </g>
    </g>
    <g id="text_32">
     <!-- ALDE DNN -->
     <g transform="translate(638.78125 66.088031) scale(0.1 -0.1)">
      <defs>
       <path id="DejaVuSans-4e" d="M 628 4666 
L 1478 4666 
L 3547 763 
L 3547 4666 
L 4159 4666 
L 4159 0 
L 3309 0 
L 1241 3903 
L 1241 0 
L 628 0 
L 628 4666 
z
" transform="scale(0.015625)"/>
      </defs>
      <use xlink:href="#DejaVuSans-41"/>
      <use xlink:href="#DejaVuSans-4c" x="68.408203"/>
      <use xlink:href="#DejaVuSans-44" x="124.121094"/>
      <use xlink:href="#DejaVuSans-45" x="201.123047"/>
      <use xlink:href="#DejaVuSans-20" x="264.306641"/>
      <use xlink:href="#DejaVuSans-44" x="296.09375"/>
      <use xlink:href="#DejaVuSans-4e" x="373.095703"/>
      <use xlink:href="#DejaVuSans-4e" x="447.900391"/>
     </g>
    </g>
    <g id="line2d_45">
     <path d="M 610.78125 77.266156 
L 620.78125 77.266156 
L 630.78125 77.266156 
" style="fill: none; stroke-dasharray: 2,3.3; stroke-dashoffset: 0; stroke: #fbafe4; stroke-width: 2"/>
     <g>
      <use xlink:href="#mca6bc5f6dd" x="620.78125" y="77.266156" style="fill: #fbafe4; stroke: #fbafe4"/>
     </g>
    </g>
    <g id="text_33">
     <!-- ALDE boosting x 3 -->
     <g transform="translate(638.78125 80.766156) scale(0.1 -0.1)">
      <defs>
       <path id="DejaVuSans-33" d="M 2597 2516 
Q 3050 2419 3304 2112 
Q 3559 1806 3559 1356 
Q 3559 666 3084 287 
Q 2609 -91 1734 -91 
Q 1441 -91 1130 -33 
Q 819 25 488 141 
L 488 750 
Q 750 597 1062 519 
Q 1375 441 1716 441 
Q 2309 441 2620 675 
Q 2931 909 2931 1356 
Q 2931 1769 2642 2001 
Q 2353 2234 1838 2234 
L 1294 2234 
L 1294 2753 
L 1863 2753 
Q 2328 2753 2575 2939 
Q 2822 3125 2822 3475 
Q 2822 3834 2567 4026 
Q 2313 4219 1838 4219 
Q 1578 4219 1281 4162 
Q 984 4106 628 3988 
L 628 4550 
Q 988 4650 1302 4700 
Q 1616 4750 1894 4750 
Q 2613 4750 3031 4423 
Q 3450 4097 3450 3541 
Q 3450 3153 3228 2886 
Q 3006 2619 2597 2516 
z
" transform="scale(0.015625)"/>
      </defs>
      <use xlink:href="#DejaVuSans-41"/>
      <use xlink:href="#DejaVuSans-4c" x="68.408203"/>
      <use xlink:href="#DejaVuSans-44" x="124.121094"/>
      <use xlink:href="#DejaVuSans-45" x="201.123047"/>
      <use xlink:href="#DejaVuSans-20" x="264.306641"/>
      <use xlink:href="#DejaVuSans-62" x="296.09375"/>
      <use xlink:href="#DejaVuSans-6f" x="359.570312"/>
      <use xlink:href="#DejaVuSans-6f" x="420.751953"/>
      <use xlink:href="#DejaVuSans-73" x="481.933594"/>
      <use xlink:href="#DejaVuSans-74" x="534.033203"/>
      <use xlink:href="#DejaVuSans-69" x="573.242188"/>
      <use xlink:href="#DejaVuSans-6e" x="601.025391"/>
      <use xlink:href="#DejaVuSans-67" x="664.404297"/>
      <use xlink:href="#DejaVuSans-20" x="727.880859"/>
      <use xlink:href="#DejaVuSans-78" x="759.667969"/>
      <use xlink:href="#DejaVuSans-20" x="818.847656"/>
      <use xlink:href="#DejaVuSans-33" x="850.634766"/>
     </g>
    </g>
    <g id="line2d_46">
     <path d="M 610.78125 91.944281 
L 620.78125 91.944281 
L 630.78125 91.944281 
" style="fill: none; stroke: #cc78bc; stroke-width: 2; stroke-linecap: square"/>
     <g>
      <use xlink:href="#mf5b32ddd15" x="620.78125" y="91.944281" style="fill: #cc78bc; stroke: #cc78bc"/>
     </g>
    </g>
    <g id="text_34">
     <!-- ALDE DNN x 3 -->
     <g transform="translate(638.78125 95.444281) scale(0.1 -0.1)">
      <use xlink:href="#DejaVuSans-41"/>
      <use xlink:href="#DejaVuSans-4c" x="68.408203"/>
      <use xlink:href="#DejaVuSans-44" x="124.121094"/>
      <use xlink:href="#DejaVuSans-45" x="201.123047"/>
      <use xlink:href="#DejaVuSans-20" x="264.306641"/>
      <use xlink:href="#DejaVuSans-44" x="296.09375"/>
      <use xlink:href="#DejaVuSans-4e" x="373.095703"/>
      <use xlink:href="#DejaVuSans-4e" x="447.900391"/>
      <use xlink:href="#DejaVuSans-20" x="522.705078"/>
      <use xlink:href="#DejaVuSans-78" x="554.492188"/>
      <use xlink:href="#DejaVuSans-20" x="613.671875"/>
      <use xlink:href="#DejaVuSans-33" x="645.458984"/>
     </g>
    </g>
    <g id="line2d_47">
     <path d="M 610.78125 106.622406 
L 620.78125 106.622406 
L 630.78125 106.622406 
" style="fill: none; stroke-dasharray: 2,3.3; stroke-dashoffset: 0; stroke: #ca9161; stroke-width: 2"/>
     <g>
      <use xlink:href="#m274c95c0b7" x="620.78125" y="106.622406" style="fill: #ca9161; stroke: #ca9161"/>
     </g>
    </g>
    <g id="text_35">
     <!-- ALDE boosting x 4 -->
     <g transform="translate(638.78125 110.122406) scale(0.1 -0.1)">
      <use xlink:href="#DejaVuSans-41"/>
      <use xlink:href="#DejaVuSans-4c" x="68.408203"/>
      <use xlink:href="#DejaVuSans-44" x="124.121094"/>
      <use xlink:href="#DejaVuSans-45" x="201.123047"/>
      <use xlink:href="#DejaVuSans-20" x="264.306641"/>
      <use xlink:href="#DejaVuSans-62" x="296.09375"/>
      <use xlink:href="#DejaVuSans-6f" x="359.570312"/>
      <use xlink:href="#DejaVuSans-6f" x="420.751953"/>
      <use xlink:href="#DejaVuSans-73" x="481.933594"/>
      <use xlink:href="#DejaVuSans-74" x="534.033203"/>
      <use xlink:href="#DejaVuSans-69" x="573.242188"/>
      <use xlink:href="#DejaVuSans-6e" x="601.025391"/>
      <use xlink:href="#DejaVuSans-67" x="664.404297"/>
      <use xlink:href="#DejaVuSans-20" x="727.880859"/>
      <use xlink:href="#DejaVuSans-78" x="759.667969"/>
      <use xlink:href="#DejaVuSans-20" x="818.847656"/>
      <use xlink:href="#DejaVuSans-34" x="850.634766"/>
     </g>
    </g>
    <g id="line2d_48">
     <path d="M 610.78125 121.300531 
L 620.78125 121.300531 
L 630.78125 121.300531 
" style="fill: none; stroke: #d55e00; stroke-width: 2; stroke-linecap: square"/>
     <g>
      <use xlink:href="#m1352d4027a" x="620.78125" y="121.300531" style="fill: #d55e00; stroke: #d55e00"/>
     </g>
    </g>
    <g id="text_36">
     <!-- ALDE DNN x 4 -->
     <g transform="translate(638.78125 124.800531) scale(0.1 -0.1)">
      <use xlink:href="#DejaVuSans-41"/>
      <use xlink:href="#DejaVuSans-4c" x="68.408203"/>
      <use xlink:href="#DejaVuSans-44" x="124.121094"/>
      <use xlink:href="#DejaVuSans-45" x="201.123047"/>
      <use xlink:href="#DejaVuSans-20" x="264.306641"/>
      <use xlink:href="#DejaVuSans-44" x="296.09375"/>
      <use xlink:href="#DejaVuSans-4e" x="373.095703"/>
      <use xlink:href="#DejaVuSans-4e" x="447.900391"/>
      <use xlink:href="#DejaVuSans-20" x="522.705078"/>
      <use xlink:href="#DejaVuSans-78" x="554.492188"/>
      <use xlink:href="#DejaVuSans-20" x="613.671875"/>
      <use xlink:href="#DejaVuSans-34" x="645.458984"/>
     </g>
    </g>
   </g>
  </g>
 </g>
 <defs>
  <clipPath id="p562e45db6a">
   <rect x="43.78125" y="10.999219" width="253.636364" height="221.76"/>
  </clipPath>
  <clipPath id="pe3f21d9189">
   <rect x="348.144886" y="10.999219" width="253.636364" height="221.76"/>
  </clipPath>
 </defs>
</svg>
