<?xml version="1.0" encoding="utf-8" standalone="no"?>
<!DOCTYPE svg PUBLIC "-//W3C//DTD SVG 1.1//EN"
  "http://www.w3.org/Graphics/SVG/1.1/DTD/svg11.dtd">
<svg xmlns:xlink="http://www.w3.org/1999/xlink" width="844.623437pt" height="270.315469pt" viewBox="0 0 844.623437 270.315469" xmlns="http://www.w3.org/2000/svg" version="1.1">
 <metadata>
  <rdf:RDF xmlns:dc="http://purl.org/dc/elements/1.1/" xmlns:cc="http://creativecommons.org/ns#" xmlns:rdf="http://www.w3.org/1999/02/22-rdf-syntax-ns#">
   <cc:Work>
    <dc:type rdf:resource="http://purl.org/dc/dcmitype/StillImage"/>
    <dc:date>2024-10-24T08:31:44.514856</dc:date>
    <dc:format>image/svg+xml</dc:format>
    <dc:creator>
     <cc:Agent>
      <dc:title>Matplotlib v3.8.4, https://matplotlib.org/</dc:title>
     </cc:Agent>
    </dc:creator>
   </cc:Work>
  </rdf:RDF>
 </metadata>
 <defs>
  <style type="text/css">*{stroke-linejoin: round; stroke-linecap: butt}</style>
 </defs>
 <g id="figure_1">
  <g id="patch_1">
   <path d="M 0 270.315469 
L 844.623437 270.315469 
L 844.623437 0 
L 0 0 
z
" style="fill: #ffffff"/>
  </g>
  <g id="axes_1">
   <g id="patch_2">
    <path d="M 43.78125 232.759219 
L 297.417614 232.759219 
L 297.417614 10.999219 
L 43.78125 10.999219 
z
" style="fill: #ffffff"/>
   </g>
   <g id="PolyCollection_1">
    <defs>
     <path id="mb237e6b221" d="M 43.78125 -121.274736 
L 43.78125 -31.257562 
L 60.171596 -32.306773 
L 86.033644 -53.325037 
L 122.484152 -89.093606 
L 148.3462 -106.133361 
L 168.406362 -134.243236 
L 184.796709 -146.363055 
L 198.654549 -171.232477 
L 239.287115 -234.641556 
L 297.417614 -259.31625 
L 297.417614 -259.31625 
L 297.417614 -259.31625 
L 239.287115 -274.816549 
L 198.654549 -276.826426 
L 184.796709 -269.353428 
L 168.406362 -267.887129 
L 148.3462 -257.66074 
L 122.484152 -249.967752 
L 86.033644 -213.053826 
L 60.171596 -165.16196 
L 43.78125 -121.274736 
z
" style="stroke: #666666; stroke-opacity: 0.05"/>
    </defs>
    <g clip-path="url(#p870a077e3a)">
     <use xlink:href="#mb237e6b221" x="0" y="270.315469" style="fill: #666666; fill-opacity: 0.05; stroke: #666666; stroke-opacity: 0.05"/>
    </g>
   </g>
   <g id="PolyCollection_2">
    <defs>
     <path id="m48941038e9" d="M 43.78125 -163.256544 
L 43.78125 -33.735604 
L 60.171596 -45.331484 
L 86.033644 -71.693087 
L 122.484152 -108.47642 
L 148.3462 -123.561625 
L 168.406362 -156.252566 
L 184.796709 -170.504908 
L 198.654549 -190.393373 
L 239.287115 -250.348325 
L 297.417614 -259.31625 
L 297.417614 -259.31625 
L 297.417614 -259.31625 
L 239.287115 -266.649906 
L 198.654549 -286.990785 
L 184.796709 -286.003578 
L 168.406362 -284.409033 
L 148.3462 -276.098723 
L 122.484152 -267.348528 
L 86.033644 -244.352021 
L 60.171596 -203.333789 
L 43.78125 -163.256544 
z
" style="stroke: #f9be00; stroke-opacity: 0.05"/>
    </defs>
    <g clip-path="url(#p870a077e3a)">
     <use xlink:href="#m48941038e9" x="0" y="270.315469" style="fill: #f9be00; fill-opacity: 0.05; stroke: #f9be00; stroke-opacity: 0.05"/>
    </g>
   </g>
   <g id="PolyCollection_3">
    <defs>
     <path id="m28dca6a88c" d="M 43.78125 -205.446009 
L 43.78125 -39.134897 
L 60.171596 -58.652146 
L 86.033644 -78.887169 
L 122.484152 -109.877436 
L 148.3462 -119.600191 
L 168.406362 -149.922685 
L 184.796709 -166.513938 
L 198.654549 -187.333469 
L 239.287115 -244.695553 
L 297.417614 -259.31625 
L 297.417614 -259.31625 
L 297.417614 -259.31625 
L 239.287115 -270.768442 
L 198.654549 -286.211619 
L 184.796709 -285.196715 
L 168.406362 -283.128922 
L 148.3462 -274.691584 
L 122.484152 -273.82438 
L 86.033644 -258.377242 
L 60.171596 -235.890108 
L 43.78125 -205.446009 
z
" style="stroke: #4bacc6; stroke-opacity: 0.05"/>
    </defs>
    <g clip-path="url(#p870a077e3a)">
     <use xlink:href="#m28dca6a88c" x="0" y="270.315469" style="fill: #4bacc6; fill-opacity: 0.05; stroke: #4bacc6; stroke-opacity: 0.05"/>
    </g>
   </g>
   <g id="PolyCollection_4">
    <defs>
     <path id="m0067c021fd" d="M 43.78125 -176.264036 
L 43.78125 -33.132962 
L 60.171596 -60.096035 
L 86.033644 -78.369544 
L 122.484152 -126.73554 
L 148.3462 -140.856996 
L 168.406362 -167.746959 
L 184.796709 -180.443219 
L 198.654549 -204.125506 
L 239.287115 -252.345484 
L 297.417614 -259.31625 
L 297.417614 -259.31625 
L 297.417614 -259.31625 
L 239.287115 -264.955582 
L 198.654549 -286.709658 
L 184.796709 -288.77766 
L 168.406362 -289.367228 
L 148.3462 -286.427013 
L 122.484152 -284.6461 
L 86.033644 -253.798617 
L 60.171596 -229.919788 
L 43.78125 -176.264036 
z
" style="stroke: #9bbb59; stroke-opacity: 0.05"/>
    </defs>
    <g clip-path="url(#p870a077e3a)">
     <use xlink:href="#m0067c021fd" x="0" y="270.315469" style="fill: #9bbb59; fill-opacity: 0.05; stroke: #9bbb59; stroke-opacity: 0.05"/>
    </g>
   </g>
   <g id="matplotlib.axis_1">
    <g id="xtick_1">
     <g id="line2d_1">
      <defs>
       <path id="maece47153e" d="M 0 0 
L 0 3.5 
" style="stroke: #000000; stroke-width: 0.8"/>
      </defs>
      <g>
       <use xlink:href="#maece47153e" x="43.78125" y="232.759219" style="stroke: #000000; stroke-width: 0.8"/>
      </g>
     </g>
     <g id="text_1">
      <!-- 120 -->
      <g transform="translate(34.2375 247.357656) scale(0.1 -0.1)">
       <defs>
        <path id="DejaVuSans-31" d="M 794 531 
L 1825 531 
L 1825 4091 
L 703 3866 
L 703 4441 
L 1819 4666 
L 2450 4666 
L 2450 531 
L 3481 531 
L 3481 0 
L 794 0 
L 794 531 
z
" transform="scale(0.015625)"/>
        <path id="DejaVuSans-32" d="M 1228 531 
L 3431 531 
L 3431 0 
L 469 0 
L 469 531 
Q 828 903 1448 1529 
Q 2069 2156 2228 2338 
Q 2531 2678 2651 2914 
Q 2772 3150 2772 3378 
Q 2772 3750 2511 3984 
Q 2250 4219 1831 4219 
Q 1534 4219 1204 4116 
Q 875 4013 500 3803 
L 500 4441 
Q 881 4594 1212 4672 
Q 1544 4750 1819 4750 
Q 2544 4750 2975 4387 
Q 3406 4025 3406 3419 
Q 3406 3131 3298 2873 
Q 3191 2616 2906 2266 
Q 2828 2175 2409 1742 
Q 1991 1309 1228 531 
z
" transform="scale(0.015625)"/>
        <path id="DejaVuSans-30" d="M 2034 4250 
Q 1547 4250 1301 3770 
Q 1056 3291 1056 2328 
Q 1056 1369 1301 889 
Q 1547 409 2034 409 
Q 2525 409 2770 889 
Q 3016 1369 3016 2328 
Q 3016 3291 2770 3770 
Q 2525 4250 2034 4250 
z
M 2034 4750 
Q 2819 4750 3233 4129 
Q 3647 3509 3647 2328 
Q 3647 1150 3233 529 
Q 2819 -91 2034 -91 
Q 1250 -91 836 529 
Q 422 1150 422 2328 
Q 422 3509 836 4129 
Q 1250 4750 2034 4750 
z
" transform="scale(0.015625)"/>
       </defs>
       <use xlink:href="#DejaVuSans-31"/>
       <use xlink:href="#DejaVuSans-32" x="63.623047"/>
       <use xlink:href="#DejaVuSans-30" x="127.246094"/>
      </g>
     </g>
    </g>
    <g id="xtick_2">
     <g id="line2d_2">
      <g>
       <use xlink:href="#maece47153e" x="86.033644" y="232.759219" style="stroke: #000000; stroke-width: 0.8"/>
      </g>
     </g>
     <g id="text_2">
      <!-- 192 -->
      <g transform="translate(76.489894 247.357656) scale(0.1 -0.1)">
       <defs>
        <path id="DejaVuSans-39" d="M 703 97 
L 703 672 
Q 941 559 1184 500 
Q 1428 441 1663 441 
Q 2288 441 2617 861 
Q 2947 1281 2994 2138 
Q 2813 1869 2534 1725 
Q 2256 1581 1919 1581 
Q 1219 1581 811 2004 
Q 403 2428 403 3163 
Q 403 3881 828 4315 
Q 1253 4750 1959 4750 
Q 2769 4750 3195 4129 
Q 3622 3509 3622 2328 
Q 3622 1225 3098 567 
Q 2575 -91 1691 -91 
Q 1453 -91 1209 -44 
Q 966 3 703 97 
z
M 1959 2075 
Q 2384 2075 2632 2365 
Q 2881 2656 2881 3163 
Q 2881 3666 2632 3958 
Q 2384 4250 1959 4250 
Q 1534 4250 1286 3958 
Q 1038 3666 1038 3163 
Q 1038 2656 1286 2365 
Q 1534 2075 1959 2075 
z
" transform="scale(0.015625)"/>
       </defs>
       <use xlink:href="#DejaVuSans-31"/>
       <use xlink:href="#DejaVuSans-39" x="63.623047"/>
       <use xlink:href="#DejaVuSans-32" x="127.246094"/>
      </g>
     </g>
    </g>
    <g id="xtick_3">
     <g id="line2d_3">
      <g>
       <use xlink:href="#maece47153e" x="122.484152" y="232.759219" style="stroke: #000000; stroke-width: 0.8"/>
      </g>
     </g>
     <g id="text_3">
      <!-- 288 -->
      <g transform="translate(112.940402 247.357656) scale(0.1 -0.1)">
       <defs>
        <path id="DejaVuSans-38" d="M 2034 2216 
Q 1584 2216 1326 1975 
Q 1069 1734 1069 1313 
Q 1069 891 1326 650 
Q 1584 409 2034 409 
Q 2484 409 2743 651 
Q 3003 894 3003 1313 
Q 3003 1734 2745 1975 
Q 2488 2216 2034 2216 
z
M 1403 2484 
Q 997 2584 770 2862 
Q 544 3141 544 3541 
Q 544 4100 942 4425 
Q 1341 4750 2034 4750 
Q 2731 4750 3128 4425 
Q 3525 4100 3525 3541 
Q 3525 3141 3298 2862 
Q 3072 2584 2669 2484 
Q 3125 2378 3379 2068 
Q 3634 1759 3634 1313 
Q 3634 634 3220 271 
Q 2806 -91 2034 -91 
Q 1263 -91 848 271 
Q 434 634 434 1313 
Q 434 1759 690 2068 
Q 947 2378 1403 2484 
z
M 1172 3481 
Q 1172 3119 1398 2916 
Q 1625 2713 2034 2713 
Q 2441 2713 2670 2916 
Q 2900 3119 2900 3481 
Q 2900 3844 2670 4047 
Q 2441 4250 2034 4250 
Q 1625 4250 1398 4047 
Q 1172 3844 1172 3481 
z
" transform="scale(0.015625)"/>
       </defs>
       <use xlink:href="#DejaVuSans-32"/>
       <use xlink:href="#DejaVuSans-38" x="63.623047"/>
       <use xlink:href="#DejaVuSans-38" x="127.246094"/>
      </g>
     </g>
    </g>
    <g id="xtick_4">
     <g id="line2d_4">
      <g>
       <use xlink:href="#maece47153e" x="168.406362" y="232.759219" style="stroke: #000000; stroke-width: 0.8"/>
      </g>
     </g>
     <g id="text_4">
      <!-- 480 -->
      <g transform="translate(158.862612 247.357656) scale(0.1 -0.1)">
       <defs>
        <path id="DejaVuSans-34" d="M 2419 4116 
L 825 1625 
L 2419 1625 
L 2419 4116 
z
M 2253 4666 
L 3047 4666 
L 3047 1625 
L 3713 1625 
L 3713 1100 
L 3047 1100 
L 3047 0 
L 2419 0 
L 2419 1100 
L 313 1100 
L 313 1709 
L 2253 4666 
z
" transform="scale(0.015625)"/>
       </defs>
       <use xlink:href="#DejaVuSans-34"/>
       <use xlink:href="#DejaVuSans-38" x="63.623047"/>
       <use xlink:href="#DejaVuSans-30" x="127.246094"/>
      </g>
     </g>
    </g>
    <g id="xtick_5">
     <g id="line2d_5">
      <g>
       <use xlink:href="#maece47153e" x="239.287115" y="232.759219" style="stroke: #000000; stroke-width: 0.8"/>
      </g>
     </g>
     <g id="text_5">
      <!-- 1056 -->
      <g transform="translate(226.562115 247.357656) scale(0.1 -0.1)">
       <defs>
        <path id="DejaVuSans-35" d="M 691 4666 
L 3169 4666 
L 3169 4134 
L 1269 4134 
L 1269 2991 
Q 1406 3038 1543 3061 
Q 1681 3084 1819 3084 
Q 2600 3084 3056 2656 
Q 3513 2228 3513 1497 
Q 3513 744 3044 326 
Q 2575 -91 1722 -91 
Q 1428 -91 1123 -41 
Q 819 9 494 109 
L 494 744 
Q 775 591 1075 516 
Q 1375 441 1709 441 
Q 2250 441 2565 725 
Q 2881 1009 2881 1497 
Q 2881 1984 2565 2268 
Q 2250 2553 1709 2553 
Q 1456 2553 1204 2497 
Q 953 2441 691 2322 
L 691 4666 
z
" transform="scale(0.015625)"/>
        <path id="DejaVuSans-36" d="M 2113 2584 
Q 1688 2584 1439 2293 
Q 1191 2003 1191 1497 
Q 1191 994 1439 701 
Q 1688 409 2113 409 
Q 2538 409 2786 701 
Q 3034 994 3034 1497 
Q 3034 2003 2786 2293 
Q 2538 2584 2113 2584 
z
M 3366 4563 
L 3366 3988 
Q 3128 4100 2886 4159 
Q 2644 4219 2406 4219 
Q 1781 4219 1451 3797 
Q 1122 3375 1075 2522 
Q 1259 2794 1537 2939 
Q 1816 3084 2150 3084 
Q 2853 3084 3261 2657 
Q 3669 2231 3669 1497 
Q 3669 778 3244 343 
Q 2819 -91 2113 -91 
Q 1303 -91 875 529 
Q 447 1150 447 2328 
Q 447 3434 972 4092 
Q 1497 4750 2381 4750 
Q 2619 4750 2861 4703 
Q 3103 4656 3366 4563 
z
" transform="scale(0.015625)"/>
       </defs>
       <use xlink:href="#DejaVuSans-31"/>
       <use xlink:href="#DejaVuSans-30" x="63.623047"/>
       <use xlink:href="#DejaVuSans-35" x="127.246094"/>
       <use xlink:href="#DejaVuSans-36" x="190.869141"/>
      </g>
     </g>
    </g>
    <g id="xtick_6">
     <g id="line2d_6">
      <g>
       <use xlink:href="#maece47153e" x="297.417614" y="232.759219" style="stroke: #000000; stroke-width: 0.8"/>
      </g>
     </g>
     <g id="text_6">
      <!-- 2016 -->
      <g transform="translate(284.692614 247.357656) scale(0.1 -0.1)">
       <use xlink:href="#DejaVuSans-32"/>
       <use xlink:href="#DejaVuSans-30" x="63.623047"/>
       <use xlink:href="#DejaVuSans-31" x="127.246094"/>
       <use xlink:href="#DejaVuSans-36" x="190.869141"/>
      </g>
     </g>
    </g>
    <g id="text_7">
     <!-- Total number of variants -->
     <g transform="translate(109.556463 261.035781) scale(0.1 -0.1)">
      <defs>
       <path id="DejaVuSans-54" d="M -19 4666 
L 3928 4666 
L 3928 4134 
L 2272 4134 
L 2272 0 
L 1638 0 
L 1638 4134 
L -19 4134 
L -19 4666 
z
" transform="scale(0.015625)"/>
       <path id="DejaVuSans-6f" d="M 1959 3097 
Q 1497 3097 1228 2736 
Q 959 2375 959 1747 
Q 959 1119 1226 758 
Q 1494 397 1959 397 
Q 2419 397 2687 759 
Q 2956 1122 2956 1747 
Q 2956 2369 2687 2733 
Q 2419 3097 1959 3097 
z
M 1959 3584 
Q 2709 3584 3137 3096 
Q 3566 2609 3566 1747 
Q 3566 888 3137 398 
Q 2709 -91 1959 -91 
Q 1206 -91 779 398 
Q 353 888 353 1747 
Q 353 2609 779 3096 
Q 1206 3584 1959 3584 
z
" transform="scale(0.015625)"/>
       <path id="DejaVuSans-74" d="M 1172 4494 
L 1172 3500 
L 2356 3500 
L 2356 3053 
L 1172 3053 
L 1172 1153 
Q 1172 725 1289 603 
Q 1406 481 1766 481 
L 2356 481 
L 2356 0 
L 1766 0 
Q 1100 0 847 248 
Q 594 497 594 1153 
L 594 3053 
L 172 3053 
L 172 3500 
L 594 3500 
L 594 4494 
L 1172 4494 
z
" transform="scale(0.015625)"/>
       <path id="DejaVuSans-61" d="M 2194 1759 
Q 1497 1759 1228 1600 
Q 959 1441 959 1056 
Q 959 750 1161 570 
Q 1363 391 1709 391 
Q 2188 391 2477 730 
Q 2766 1069 2766 1631 
L 2766 1759 
L 2194 1759 
z
M 3341 1997 
L 3341 0 
L 2766 0 
L 2766 531 
Q 2569 213 2275 61 
Q 1981 -91 1556 -91 
Q 1019 -91 701 211 
Q 384 513 384 1019 
Q 384 1609 779 1909 
Q 1175 2209 1959 2209 
L 2766 2209 
L 2766 2266 
Q 2766 2663 2505 2880 
Q 2244 3097 1772 3097 
Q 1472 3097 1187 3025 
Q 903 2953 641 2809 
L 641 3341 
Q 956 3463 1253 3523 
Q 1550 3584 1831 3584 
Q 2591 3584 2966 3190 
Q 3341 2797 3341 1997 
z
" transform="scale(0.015625)"/>
       <path id="DejaVuSans-6c" d="M 603 4863 
L 1178 4863 
L 1178 0 
L 603 0 
L 603 4863 
z
" transform="scale(0.015625)"/>
       <path id="DejaVuSans-20" transform="scale(0.015625)"/>
       <path id="DejaVuSans-6e" d="M 3513 2113 
L 3513 0 
L 2938 0 
L 2938 2094 
Q 2938 2591 2744 2837 
Q 2550 3084 2163 3084 
Q 1697 3084 1428 2787 
Q 1159 2491 1159 1978 
L 1159 0 
L 581 0 
L 581 3500 
L 1159 3500 
L 1159 2956 
Q 1366 3272 1645 3428 
Q 1925 3584 2291 3584 
Q 2894 3584 3203 3211 
Q 3513 2838 3513 2113 
z
" transform="scale(0.015625)"/>
       <path id="DejaVuSans-75" d="M 544 1381 
L 544 3500 
L 1119 3500 
L 1119 1403 
Q 1119 906 1312 657 
Q 1506 409 1894 409 
Q 2359 409 2629 706 
Q 2900 1003 2900 1516 
L 2900 3500 
L 3475 3500 
L 3475 0 
L 2900 0 
L 2900 538 
Q 2691 219 2414 64 
Q 2138 -91 1772 -91 
Q 1169 -91 856 284 
Q 544 659 544 1381 
z
M 1991 3584 
L 1991 3584 
z
" transform="scale(0.015625)"/>
       <path id="DejaVuSans-6d" d="M 3328 2828 
Q 3544 3216 3844 3400 
Q 4144 3584 4550 3584 
Q 5097 3584 5394 3201 
Q 5691 2819 5691 2113 
L 5691 0 
L 5113 0 
L 5113 2094 
Q 5113 2597 4934 2840 
Q 4756 3084 4391 3084 
Q 3944 3084 3684 2787 
Q 3425 2491 3425 1978 
L 3425 0 
L 2847 0 
L 2847 2094 
Q 2847 2600 2669 2842 
Q 2491 3084 2119 3084 
Q 1678 3084 1418 2786 
Q 1159 2488 1159 1978 
L 1159 0 
L 581 0 
L 581 3500 
L 1159 3500 
L 1159 2956 
Q 1356 3278 1631 3431 
Q 1906 3584 2284 3584 
Q 2666 3584 2933 3390 
Q 3200 3197 3328 2828 
z
" transform="scale(0.015625)"/>
       <path id="DejaVuSans-62" d="M 3116 1747 
Q 3116 2381 2855 2742 
Q 2594 3103 2138 3103 
Q 1681 3103 1420 2742 
Q 1159 2381 1159 1747 
Q 1159 1113 1420 752 
Q 1681 391 2138 391 
Q 2594 391 2855 752 
Q 3116 1113 3116 1747 
z
M 1159 2969 
Q 1341 3281 1617 3432 
Q 1894 3584 2278 3584 
Q 2916 3584 3314 3078 
Q 3713 2572 3713 1747 
Q 3713 922 3314 415 
Q 2916 -91 2278 -91 
Q 1894 -91 1617 61 
Q 1341 213 1159 525 
L 1159 0 
L 581 0 
L 581 4863 
L 1159 4863 
L 1159 2969 
z
" transform="scale(0.015625)"/>
       <path id="DejaVuSans-65" d="M 3597 1894 
L 3597 1613 
L 953 1613 
Q 991 1019 1311 708 
Q 1631 397 2203 397 
Q 2534 397 2845 478 
Q 3156 559 3463 722 
L 3463 178 
Q 3153 47 2828 -22 
Q 2503 -91 2169 -91 
Q 1331 -91 842 396 
Q 353 884 353 1716 
Q 353 2575 817 3079 
Q 1281 3584 2069 3584 
Q 2775 3584 3186 3129 
Q 3597 2675 3597 1894 
z
M 3022 2063 
Q 3016 2534 2758 2815 
Q 2500 3097 2075 3097 
Q 1594 3097 1305 2825 
Q 1016 2553 972 2059 
L 3022 2063 
z
" transform="scale(0.015625)"/>
       <path id="DejaVuSans-72" d="M 2631 2963 
Q 2534 3019 2420 3045 
Q 2306 3072 2169 3072 
Q 1681 3072 1420 2755 
Q 1159 2438 1159 1844 
L 1159 0 
L 581 0 
L 581 3500 
L 1159 3500 
L 1159 2956 
Q 1341 3275 1631 3429 
Q 1922 3584 2338 3584 
Q 2397 3584 2469 3576 
Q 2541 3569 2628 3553 
L 2631 2963 
z
" transform="scale(0.015625)"/>
       <path id="DejaVuSans-66" d="M 2375 4863 
L 2375 4384 
L 1825 4384 
Q 1516 4384 1395 4259 
Q 1275 4134 1275 3809 
L 1275 3500 
L 2222 3500 
L 2222 3053 
L 1275 3053 
L 1275 0 
L 697 0 
L 697 3053 
L 147 3053 
L 147 3500 
L 697 3500 
L 697 3744 
Q 697 4328 969 4595 
Q 1241 4863 1831 4863 
L 2375 4863 
z
" transform="scale(0.015625)"/>
       <path id="DejaVuSans-76" d="M 191 3500 
L 800 3500 
L 1894 563 
L 2988 3500 
L 3597 3500 
L 2284 0 
L 1503 0 
L 191 3500 
z
" transform="scale(0.015625)"/>
       <path id="DejaVuSans-69" d="M 603 3500 
L 1178 3500 
L 1178 0 
L 603 0 
L 603 3500 
z
M 603 4863 
L 1178 4863 
L 1178 4134 
L 603 4134 
L 603 4863 
z
" transform="scale(0.015625)"/>
       <path id="DejaVuSans-73" d="M 2834 3397 
L 2834 2853 
Q 2591 2978 2328 3040 
Q 2066 3103 1784 3103 
Q 1356 3103 1142 2972 
Q 928 2841 928 2578 
Q 928 2378 1081 2264 
Q 1234 2150 1697 2047 
L 1894 2003 
Q 2506 1872 2764 1633 
Q 3022 1394 3022 966 
Q 3022 478 2636 193 
Q 2250 -91 1575 -91 
Q 1294 -91 989 -36 
Q 684 19 347 128 
L 347 722 
Q 666 556 975 473 
Q 1284 391 1588 391 
Q 1994 391 2212 530 
Q 2431 669 2431 922 
Q 2431 1156 2273 1281 
Q 2116 1406 1581 1522 
L 1381 1569 
Q 847 1681 609 1914 
Q 372 2147 372 2553 
Q 372 3047 722 3315 
Q 1072 3584 1716 3584 
Q 2034 3584 2315 3537 
Q 2597 3491 2834 3397 
z
" transform="scale(0.015625)"/>
      </defs>
      <use xlink:href="#DejaVuSans-54"/>
      <use xlink:href="#DejaVuSans-6f" x="44.083984"/>
      <use xlink:href="#DejaVuSans-74" x="105.265625"/>
      <use xlink:href="#DejaVuSans-61" x="144.474609"/>
      <use xlink:href="#DejaVuSans-6c" x="205.753906"/>
      <use xlink:href="#DejaVuSans-20" x="233.537109"/>
      <use xlink:href="#DejaVuSans-6e" x="265.324219"/>
      <use xlink:href="#DejaVuSans-75" x="328.703125"/>
      <use xlink:href="#DejaVuSans-6d" x="392.082031"/>
      <use xlink:href="#DejaVuSans-62" x="489.494141"/>
      <use xlink:href="#DejaVuSans-65" x="552.970703"/>
      <use xlink:href="#DejaVuSans-72" x="614.494141"/>
      <use xlink:href="#DejaVuSans-20" x="655.607422"/>
      <use xlink:href="#DejaVuSans-6f" x="687.394531"/>
      <use xlink:href="#DejaVuSans-66" x="748.576172"/>
      <use xlink:href="#DejaVuSans-20" x="783.78125"/>
      <use xlink:href="#DejaVuSans-76" x="815.568359"/>
      <use xlink:href="#DejaVuSans-61" x="874.748047"/>
      <use xlink:href="#DejaVuSans-72" x="936.027344"/>
      <use xlink:href="#DejaVuSans-69" x="977.140625"/>
      <use xlink:href="#DejaVuSans-61" x="1004.923828"/>
      <use xlink:href="#DejaVuSans-6e" x="1066.203125"/>
      <use xlink:href="#DejaVuSans-74" x="1129.582031"/>
      <use xlink:href="#DejaVuSans-73" x="1168.791016"/>
     </g>
    </g>
   </g>
   <g id="matplotlib.axis_2">
    <g id="ytick_1">
     <g id="line2d_7">
      <defs>
       <path id="m642357d934" d="M 0 0 
L -3.5 0 
" style="stroke: #000000; stroke-width: 0.8"/>
      </defs>
      <g>
       <use xlink:href="#m642357d934" x="43.78125" y="232.759219" style="stroke: #000000; stroke-width: 0.8"/>
      </g>
     </g>
     <g id="text_8">
      <!-- 0.0 -->
      <g transform="translate(20.878125 236.558437) scale(0.1 -0.1)">
       <defs>
        <path id="DejaVuSans-2e" d="M 684 794 
L 1344 794 
L 1344 0 
L 684 0 
L 684 794 
z
" transform="scale(0.015625)"/>
       </defs>
       <use xlink:href="#DejaVuSans-30"/>
       <use xlink:href="#DejaVuSans-2e" x="63.623047"/>
       <use xlink:href="#DejaVuSans-30" x="95.410156"/>
      </g>
     </g>
    </g>
    <g id="ytick_2">
     <g id="line2d_8">
      <g>
       <use xlink:href="#m642357d934" x="43.78125" y="188.407219" style="stroke: #000000; stroke-width: 0.8"/>
      </g>
     </g>
     <g id="text_9">
      <!-- 0.2 -->
      <g transform="translate(20.878125 192.206437) scale(0.1 -0.1)">
       <use xlink:href="#DejaVuSans-30"/>
       <use xlink:href="#DejaVuSans-2e" x="63.623047"/>
       <use xlink:href="#DejaVuSans-32" x="95.410156"/>
      </g>
     </g>
    </g>
    <g id="ytick_3">
     <g id="line2d_9">
      <g>
       <use xlink:href="#m642357d934" x="43.78125" y="144.055219" style="stroke: #000000; stroke-width: 0.8"/>
      </g>
     </g>
     <g id="text_10">
      <!-- 0.4 -->
      <g transform="translate(20.878125 147.854437) scale(0.1 -0.1)">
       <use xlink:href="#DejaVuSans-30"/>
       <use xlink:href="#DejaVuSans-2e" x="63.623047"/>
       <use xlink:href="#DejaVuSans-34" x="95.410156"/>
      </g>
     </g>
    </g>
    <g id="ytick_4">
     <g id="line2d_10">
      <g>
       <use xlink:href="#m642357d934" x="43.78125" y="99.703219" style="stroke: #000000; stroke-width: 0.8"/>
      </g>
     </g>
     <g id="text_11">
      <!-- 0.6 -->
      <g transform="translate(20.878125 103.502437) scale(0.1 -0.1)">
       <use xlink:href="#DejaVuSans-30"/>
       <use xlink:href="#DejaVuSans-2e" x="63.623047"/>
       <use xlink:href="#DejaVuSans-36" x="95.410156"/>
      </g>
     </g>
    </g>
    <g id="ytick_5">
     <g id="line2d_11">
      <g>
       <use xlink:href="#m642357d934" x="43.78125" y="55.351219" style="stroke: #000000; stroke-width: 0.8"/>
      </g>
     </g>
     <g id="text_12">
      <!-- 0.8 -->
      <g transform="translate(20.878125 59.150437) scale(0.1 -0.1)">
       <use xlink:href="#DejaVuSans-30"/>
       <use xlink:href="#DejaVuSans-2e" x="63.623047"/>
       <use xlink:href="#DejaVuSans-38" x="95.410156"/>
      </g>
     </g>
    </g>
    <g id="ytick_6">
     <g id="line2d_12">
      <g>
       <use xlink:href="#m642357d934" x="43.78125" y="10.999219" style="stroke: #000000; stroke-width: 0.8"/>
      </g>
     </g>
     <g id="text_13">
      <!-- 1.0 -->
      <g transform="translate(20.878125 14.798437) scale(0.1 -0.1)">
       <use xlink:href="#DejaVuSans-31"/>
       <use xlink:href="#DejaVuSans-2e" x="63.623047"/>
       <use xlink:href="#DejaVuSans-30" x="95.410156"/>
      </g>
     </g>
    </g>
    <g id="text_14">
     <!-- Average max fitness achieved -->
     <g transform="translate(14.798438 197.294844) rotate(-90) scale(0.1 -0.1)">
      <defs>
       <path id="DejaVuSans-41" d="M 2188 4044 
L 1331 1722 
L 3047 1722 
L 2188 4044 
z
M 1831 4666 
L 2547 4666 
L 4325 0 
L 3669 0 
L 3244 1197 
L 1141 1197 
L 716 0 
L 50 0 
L 1831 4666 
z
" transform="scale(0.015625)"/>
       <path id="DejaVuSans-67" d="M 2906 1791 
Q 2906 2416 2648 2759 
Q 2391 3103 1925 3103 
Q 1463 3103 1205 2759 
Q 947 2416 947 1791 
Q 947 1169 1205 825 
Q 1463 481 1925 481 
Q 2391 481 2648 825 
Q 2906 1169 2906 1791 
z
M 3481 434 
Q 3481 -459 3084 -895 
Q 2688 -1331 1869 -1331 
Q 1566 -1331 1297 -1286 
Q 1028 -1241 775 -1147 
L 775 -588 
Q 1028 -725 1275 -790 
Q 1522 -856 1778 -856 
Q 2344 -856 2625 -561 
Q 2906 -266 2906 331 
L 2906 616 
Q 2728 306 2450 153 
Q 2172 0 1784 0 
Q 1141 0 747 490 
Q 353 981 353 1791 
Q 353 2603 747 3093 
Q 1141 3584 1784 3584 
Q 2172 3584 2450 3431 
Q 2728 3278 2906 2969 
L 2906 3500 
L 3481 3500 
L 3481 434 
z
" transform="scale(0.015625)"/>
       <path id="DejaVuSans-78" d="M 3513 3500 
L 2247 1797 
L 3578 0 
L 2900 0 
L 1881 1375 
L 863 0 
L 184 0 
L 1544 1831 
L 300 3500 
L 978 3500 
L 1906 2253 
L 2834 3500 
L 3513 3500 
z
" transform="scale(0.015625)"/>
       <path id="DejaVuSans-63" d="M 3122 3366 
L 3122 2828 
Q 2878 2963 2633 3030 
Q 2388 3097 2138 3097 
Q 1578 3097 1268 2742 
Q 959 2388 959 1747 
Q 959 1106 1268 751 
Q 1578 397 2138 397 
Q 2388 397 2633 464 
Q 2878 531 3122 666 
L 3122 134 
Q 2881 22 2623 -34 
Q 2366 -91 2075 -91 
Q 1284 -91 818 406 
Q 353 903 353 1747 
Q 353 2603 823 3093 
Q 1294 3584 2113 3584 
Q 2378 3584 2631 3529 
Q 2884 3475 3122 3366 
z
" transform="scale(0.015625)"/>
       <path id="DejaVuSans-68" d="M 3513 2113 
L 3513 0 
L 2938 0 
L 2938 2094 
Q 2938 2591 2744 2837 
Q 2550 3084 2163 3084 
Q 1697 3084 1428 2787 
Q 1159 2491 1159 1978 
L 1159 0 
L 581 0 
L 581 4863 
L 1159 4863 
L 1159 2956 
Q 1366 3272 1645 3428 
Q 1925 3584 2291 3584 
Q 2894 3584 3203 3211 
Q 3513 2838 3513 2113 
z
" transform="scale(0.015625)"/>
       <path id="DejaVuSans-64" d="M 2906 2969 
L 2906 4863 
L 3481 4863 
L 3481 0 
L 2906 0 
L 2906 525 
Q 2725 213 2448 61 
Q 2172 -91 1784 -91 
Q 1150 -91 751 415 
Q 353 922 353 1747 
Q 353 2572 751 3078 
Q 1150 3584 1784 3584 
Q 2172 3584 2448 3432 
Q 2725 3281 2906 2969 
z
M 947 1747 
Q 947 1113 1208 752 
Q 1469 391 1925 391 
Q 2381 391 2643 752 
Q 2906 1113 2906 1747 
Q 2906 2381 2643 2742 
Q 2381 3103 1925 3103 
Q 1469 3103 1208 2742 
Q 947 2381 947 1747 
z
" transform="scale(0.015625)"/>
      </defs>
      <use xlink:href="#DejaVuSans-41"/>
      <use xlink:href="#DejaVuSans-76" x="62.533203"/>
      <use xlink:href="#DejaVuSans-65" x="121.712891"/>
      <use xlink:href="#DejaVuSans-72" x="183.236328"/>
      <use xlink:href="#DejaVuSans-61" x="224.349609"/>
      <use xlink:href="#DejaVuSans-67" x="285.628906"/>
      <use xlink:href="#DejaVuSans-65" x="349.105469"/>
      <use xlink:href="#DejaVuSans-20" x="410.628906"/>
      <use xlink:href="#DejaVuSans-6d" x="442.416016"/>
      <use xlink:href="#DejaVuSans-61" x="539.828125"/>
      <use xlink:href="#DejaVuSans-78" x="601.107422"/>
      <use xlink:href="#DejaVuSans-20" x="660.287109"/>
      <use xlink:href="#DejaVuSans-66" x="692.074219"/>
      <use xlink:href="#DejaVuSans-69" x="727.279297"/>
      <use xlink:href="#DejaVuSans-74" x="755.0625"/>
      <use xlink:href="#DejaVuSans-6e" x="794.271484"/>
      <use xlink:href="#DejaVuSans-65" x="857.650391"/>
      <use xlink:href="#DejaVuSans-73" x="919.173828"/>
      <use xlink:href="#DejaVuSans-73" x="971.273438"/>
      <use xlink:href="#DejaVuSans-20" x="1023.373047"/>
      <use xlink:href="#DejaVuSans-61" x="1055.160156"/>
      <use xlink:href="#DejaVuSans-63" x="1116.439453"/>
      <use xlink:href="#DejaVuSans-68" x="1171.419922"/>
      <use xlink:href="#DejaVuSans-69" x="1234.798828"/>
      <use xlink:href="#DejaVuSans-65" x="1262.582031"/>
      <use xlink:href="#DejaVuSans-76" x="1324.105469"/>
      <use xlink:href="#DejaVuSans-65" x="1383.285156"/>
      <use xlink:href="#DejaVuSans-64" x="1444.808594"/>
     </g>
    </g>
   </g>
   <g id="line2d_13">
    <path d="M 43.78125 194.049319 
L 60.171596 171.581102 
L 86.033644 137.126037 
L 122.484152 100.78479 
L 148.3462 88.418418 
L 168.406362 69.250286 
L 184.796709 62.457227 
L 198.654549 46.286017 
L 239.287115 15.586417 
L 297.417614 10.999219 
" clip-path="url(#p870a077e3a)" style="fill: none; stroke: #666666; stroke-width: 2; stroke-linecap: square"/>
    <defs>
     <path id="m3965f74669" d="M 0 3 
C 0.795609 3 1.55874 2.683901 2.12132 2.12132 
C 2.683901 1.55874 3 0.795609 3 0 
C 3 -0.795609 2.683901 -1.55874 2.12132 -2.12132 
C 1.55874 -2.683901 0.795609 -3 0 -3 
C -0.795609 -3 -1.55874 -2.683901 -2.12132 -2.12132 
C -2.683901 -1.55874 -3 -0.795609 -3 0 
C -3 0.795609 -2.683901 1.55874 -2.12132 2.12132 
C -1.55874 2.683901 -0.795609 3 0 3 
z
" style="stroke: #666666"/>
    </defs>
    <g clip-path="url(#p870a077e3a)">
     <use xlink:href="#m3965f74669" x="43.78125" y="194.049319" style="fill: #666666; stroke: #666666"/>
     <use xlink:href="#m3965f74669" x="60.171596" y="171.581102" style="fill: #666666; stroke: #666666"/>
     <use xlink:href="#m3965f74669" x="86.033644" y="137.126037" style="fill: #666666; stroke: #666666"/>
     <use xlink:href="#m3965f74669" x="122.484152" y="100.78479" style="fill: #666666; stroke: #666666"/>
     <use xlink:href="#m3965f74669" x="148.3462" y="88.418418" style="fill: #666666; stroke: #666666"/>
     <use xlink:href="#m3965f74669" x="168.406362" y="69.250286" style="fill: #666666; stroke: #666666"/>
     <use xlink:href="#m3965f74669" x="184.796709" y="62.457227" style="fill: #666666; stroke: #666666"/>
     <use xlink:href="#m3965f74669" x="198.654549" y="46.286017" style="fill: #666666; stroke: #666666"/>
     <use xlink:href="#m3965f74669" x="239.287115" y="15.586417" style="fill: #666666; stroke: #666666"/>
     <use xlink:href="#m3965f74669" x="297.417614" y="10.999219" style="fill: #666666; stroke: #666666"/>
    </g>
   </g>
   <g id="line2d_14">
    <path d="M 43.78125 171.819395 
L 60.171596 145.982832 
L 86.033644 112.292915 
L 122.484152 82.402995 
L 148.3462 70.485295 
L 168.406362 49.98467 
L 184.796709 42.061226 
L 198.654549 31.62339 
L 239.287115 11.816353 
L 297.417614 10.999219 
" clip-path="url(#p870a077e3a)" style="fill: none; stroke-dasharray: 12,4; stroke-dashoffset: 0; stroke: #f9be00; stroke-width: 2"/>
    <defs>
     <path id="me3c27bed84" d="M 0 3 
C 0.795609 3 1.55874 2.683901 2.12132 2.12132 
C 2.683901 1.55874 3 0.795609 3 0 
C 3 -0.795609 2.683901 -1.55874 2.12132 -2.12132 
C 1.55874 -2.683901 0.795609 -3 0 -3 
C -0.795609 -3 -1.55874 -2.683901 -2.12132 -2.12132 
C -2.683901 -1.55874 -3 -0.795609 -3 0 
C -3 0.795609 -2.683901 1.55874 -2.12132 2.12132 
C -1.55874 2.683901 -0.795609 3 0 3 
z
" style="stroke: #f9be00"/>
    </defs>
    <g clip-path="url(#p870a077e3a)">
     <use xlink:href="#me3c27bed84" x="43.78125" y="171.819395" style="fill: #f9be00; stroke: #f9be00"/>
     <use xlink:href="#me3c27bed84" x="60.171596" y="145.982832" style="fill: #f9be00; stroke: #f9be00"/>
     <use xlink:href="#me3c27bed84" x="86.033644" y="112.292915" style="fill: #f9be00; stroke: #f9be00"/>
     <use xlink:href="#me3c27bed84" x="122.484152" y="82.402995" style="fill: #f9be00; stroke: #f9be00"/>
     <use xlink:href="#me3c27bed84" x="148.3462" y="70.485295" style="fill: #f9be00; stroke: #f9be00"/>
     <use xlink:href="#me3c27bed84" x="168.406362" y="49.98467" style="fill: #f9be00; stroke: #f9be00"/>
     <use xlink:href="#me3c27bed84" x="184.796709" y="42.061226" style="fill: #f9be00; stroke: #f9be00"/>
     <use xlink:href="#me3c27bed84" x="198.654549" y="31.62339" style="fill: #f9be00; stroke: #f9be00"/>
     <use xlink:href="#me3c27bed84" x="239.287115" y="11.816353" style="fill: #f9be00; stroke: #f9be00"/>
     <use xlink:href="#me3c27bed84" x="297.417614" y="10.999219" style="fill: #f9be00; stroke: #f9be00"/>
    </g>
   </g>
   <g id="line2d_15">
    <path d="M 43.78125 148.025016 
L 60.171596 123.044342 
L 86.033644 101.683263 
L 122.484152 78.464561 
L 148.3462 73.169581 
L 168.406362 53.789665 
L 184.796709 44.460142 
L 198.654549 33.542925 
L 239.287115 12.583471 
L 297.417614 10.999219 
" clip-path="url(#p870a077e3a)" style="fill: none; stroke-dasharray: 12.8,3.2,2,3.2; stroke-dashoffset: 0; stroke: #4bacc6; stroke-width: 2"/>
    <defs>
     <path id="m4ef58aac6b" d="M 0 3 
C 0.795609 3 1.55874 2.683901 2.12132 2.12132 
C 2.683901 1.55874 3 0.795609 3 0 
C 3 -0.795609 2.683901 -1.55874 2.12132 -2.12132 
C 1.55874 -2.683901 0.795609 -3 0 -3 
C -0.795609 -3 -1.55874 -2.683901 -2.12132 -2.12132 
C -2.683901 -1.55874 -3 -0.795609 -3 0 
C -3 0.795609 -2.683901 1.55874 -2.12132 2.12132 
C -1.55874 2.683901 -0.795609 3 0 3 
z
" style="stroke: #4bacc6"/>
    </defs>
    <g clip-path="url(#p870a077e3a)">
     <use xlink:href="#m4ef58aac6b" x="43.78125" y="148.025016" style="fill: #4bacc6; stroke: #4bacc6"/>
     <use xlink:href="#m4ef58aac6b" x="60.171596" y="123.044342" style="fill: #4bacc6; stroke: #4bacc6"/>
     <use xlink:href="#m4ef58aac6b" x="86.033644" y="101.683263" style="fill: #4bacc6; stroke: #4bacc6"/>
     <use xlink:href="#m4ef58aac6b" x="122.484152" y="78.464561" style="fill: #4bacc6; stroke: #4bacc6"/>
     <use xlink:href="#m4ef58aac6b" x="148.3462" y="73.169581" style="fill: #4bacc6; stroke: #4bacc6"/>
     <use xlink:href="#m4ef58aac6b" x="168.406362" y="53.789665" style="fill: #4bacc6; stroke: #4bacc6"/>
     <use xlink:href="#m4ef58aac6b" x="184.796709" y="44.460142" style="fill: #4bacc6; stroke: #4bacc6"/>
     <use xlink:href="#m4ef58aac6b" x="198.654549" y="33.542925" style="fill: #4bacc6; stroke: #4bacc6"/>
     <use xlink:href="#m4ef58aac6b" x="239.287115" y="12.583471" style="fill: #4bacc6; stroke: #4bacc6"/>
     <use xlink:href="#m4ef58aac6b" x="297.417614" y="10.999219" style="fill: #4bacc6; stroke: #4bacc6"/>
    </g>
   </g>
   <g id="line2d_16">
    <path d="M 43.78125 165.61697 
L 60.171596 125.307558 
L 86.033644 104.231388 
L 122.484152 64.624649 
L 148.3462 56.673464 
L 168.406362 41.758375 
L 184.796709 35.705029 
L 198.654549 24.897887 
L 239.287115 11.664936 
L 297.417614 10.999219 
" clip-path="url(#p870a077e3a)" style="fill: none; stroke-dasharray: 2,3.3; stroke-dashoffset: 0; stroke: #9bbb59; stroke-width: 2"/>
    <defs>
     <path id="m4e130da59e" d="M 0 3 
C 0.795609 3 1.55874 2.683901 2.12132 2.12132 
C 2.683901 1.55874 3 0.795609 3 0 
C 3 -0.795609 2.683901 -1.55874 2.12132 -2.12132 
C 1.55874 -2.683901 0.795609 -3 0 -3 
C -0.795609 -3 -1.55874 -2.683901 -2.12132 -2.12132 
C -2.683901 -1.55874 -3 -0.795609 -3 0 
C -3 0.795609 -2.683901 1.55874 -2.12132 2.12132 
C -1.55874 2.683901 -0.795609 3 0 3 
z
" style="stroke: #9bbb59"/>
    </defs>
    <g clip-path="url(#p870a077e3a)">
     <use xlink:href="#m4e130da59e" x="43.78125" y="165.61697" style="fill: #9bbb59; stroke: #9bbb59"/>
     <use xlink:href="#m4e130da59e" x="60.171596" y="125.307558" style="fill: #9bbb59; stroke: #9bbb59"/>
     <use xlink:href="#m4e130da59e" x="86.033644" y="104.231388" style="fill: #9bbb59; stroke: #9bbb59"/>
     <use xlink:href="#m4e130da59e" x="122.484152" y="64.624649" style="fill: #9bbb59; stroke: #9bbb59"/>
     <use xlink:href="#m4e130da59e" x="148.3462" y="56.673464" style="fill: #9bbb59; stroke: #9bbb59"/>
     <use xlink:href="#m4e130da59e" x="168.406362" y="41.758375" style="fill: #9bbb59; stroke: #9bbb59"/>
     <use xlink:href="#m4e130da59e" x="184.796709" y="35.705029" style="fill: #9bbb59; stroke: #9bbb59"/>
     <use xlink:href="#m4e130da59e" x="198.654549" y="24.897887" style="fill: #9bbb59; stroke: #9bbb59"/>
     <use xlink:href="#m4e130da59e" x="239.287115" y="11.664936" style="fill: #9bbb59; stroke: #9bbb59"/>
     <use xlink:href="#m4e130da59e" x="297.417614" y="10.999219" style="fill: #9bbb59; stroke: #9bbb59"/>
    </g>
   </g>
   <g id="patch_3">
    <path d="M 43.78125 232.759219 
L 43.78125 10.999219 
" style="fill: none; stroke: #000000; stroke-width: 0.8; stroke-linejoin: miter; stroke-linecap: square"/>
   </g>
   <g id="patch_4">
    <path d="M 297.417614 232.759219 
L 297.417614 10.999219 
" style="fill: none; stroke: #000000; stroke-width: 0.8; stroke-linejoin: miter; stroke-linecap: square"/>
   </g>
   <g id="patch_5">
    <path d="M 43.78125 232.759219 
L 297.417614 232.759219 
" style="fill: none; stroke: #000000; stroke-width: 0.8; stroke-linejoin: miter; stroke-linecap: square"/>
   </g>
   <g id="patch_6">
    <path d="M 43.78125 10.999219 
L 297.417614 10.999219 
" style="fill: none; stroke: #000000; stroke-width: 0.8; stroke-linejoin: miter; stroke-linecap: square"/>
   </g>
  </g>
  <g id="axes_2">
   <g id="patch_7">
    <path d="M 348.144886 232.759219 
L 601.78125 232.759219 
L 601.78125 10.999219 
L 348.144886 10.999219 
z
" style="fill: #ffffff"/>
   </g>
   <g id="PolyCollection_5">
    <path d="M 348.144886 202.409703 
L 348.144886 256.455934 
L 364.535233 275.909618 
L 390.39728 277.597968 
L 426.847789 262.674089 
L 452.709836 258.043377 
L 472.769999 246.508573 
L 489.160345 242.565556 
L 503.018185 216.419521 
L 543.650751 83.245807 
L 601.78125 10.999219 
L 601.78125 10.999219 
L 601.78125 10.999219 
L 543.650751 -30.20097 
L 503.018185 -3.707484 
L 489.160345 21.151281 
L 472.769999 26.078664 
L 452.709836 43.372661 
L 426.847789 52.047549 
L 390.39728 101.434069 
L 364.535233 151.90962 
L 348.144886 202.409703 
z
" clip-path="url(#p170b701cbe)" style="fill: #666666; fill-opacity: 0.05; stroke: #666666; stroke-opacity: 0.05"/>
   </g>
   <g id="PolyCollection_6">
    <path d="M 348.144886 173.218464 
L 348.144886 270.123974 
L 364.535233 278.424171 
L 390.39728 267.478581 
L 426.847789 251.180272 
L 452.709836 230.797629 
L 472.769999 200.385777 
L 489.160345 171.250705 
L 503.018185 138.34977 
L 543.650751 35.33703 
L 601.78125 10.999219 
L 601.78125 10.999219 
L 601.78125 10.999219 
L 543.650751 -8.903392 
L 503.018185 -34.300132 
L 489.160345 -27.284267 
L 472.769999 -14.284939 
L 452.709836 8.525609 
L 426.847789 32.494966 
L 390.39728 62.766256 
L 364.535233 109.478267 
L 348.144886 173.218464 
z
" clip-path="url(#p170b701cbe)" style="fill: #f9be00; fill-opacity: 0.05; stroke: #f9be00; stroke-opacity: 0.05"/>
   </g>
   <g id="PolyCollection_7">
    <path d="M 348.144886 101.434069 
L 348.144886 277.597968 
L 364.535233 266.833492 
L 390.39728 245.539821 
L 426.847789 228.5133 
L 452.709836 225.00319 
L 472.769999 193.188625 
L 489.160345 176.188404 
L 503.018185 142.324368 
L 543.650751 41.348734 
L 601.78125 10.999219 
L 601.78125 10.999219 
L 601.78125 10.999219 
L 543.650751 -12.697497 
L 503.018185 -33.839531 
L 489.160345 -25.569167 
L 472.769999 -18.175787 
L 452.709836 3.232047 
L 426.847789 6.374737 
L 390.39728 24.829816 
L 364.535233 61.193745 
L 348.144886 101.434069 
z
" clip-path="url(#p170b701cbe)" style="fill: #4bacc6; fill-opacity: 0.05; stroke: #4bacc6; stroke-opacity: 0.05"/>
   </g>
   <g id="PolyCollection_8">
    <path d="M 348.144886 143.888272 
L 348.144886 277.278165 
L 364.535233 274.48444 
L 390.39728 256.399828 
L 426.847789 204.55498 
L 452.709836 196.10542 
L 472.769999 159.16924 
L 489.160345 148.120155 
L 503.018185 114.593817 
L 543.650751 41.348734 
L 601.78125 10.999219 
L 601.78125 10.999219 
L 601.78125 10.999219 
L 543.650751 -12.697497 
L 503.018185 -34.93778 
L 489.160345 -32.982518 
L 472.769999 -30.726003 
L 452.709836 -16.657382 
L 426.847789 -11.801342 
L 390.39728 40.581009 
L 364.535233 84.589197 
L 348.144886 143.888272 
z
" clip-path="url(#p170b701cbe)" style="fill: #9bbb59; fill-opacity: 0.05; stroke: #9bbb59; stroke-opacity: 0.05"/>
   </g>
   <g id="matplotlib.axis_3">
    <g id="xtick_7">
     <g id="line2d_17">
      <g>
       <use xlink:href="#maece47153e" x="348.144886" y="232.759219" style="stroke: #000000; stroke-width: 0.8"/>
      </g>
     </g>
     <g id="text_15">
      <!-- 120 -->
      <g transform="translate(338.601136 247.357656) scale(0.1 -0.1)">
       <use xlink:href="#DejaVuSans-31"/>
       <use xlink:href="#DejaVuSans-32" x="63.623047"/>
       <use xlink:href="#DejaVuSans-30" x="127.246094"/>
      </g>
     </g>
    </g>
    <g id="xtick_8">
     <g id="line2d_18">
      <g>
       <use xlink:href="#maece47153e" x="390.39728" y="232.759219" style="stroke: #000000; stroke-width: 0.8"/>
      </g>
     </g>
     <g id="text_16">
      <!-- 192 -->
      <g transform="translate(380.85353 247.357656) scale(0.1 -0.1)">
       <use xlink:href="#DejaVuSans-31"/>
       <use xlink:href="#DejaVuSans-39" x="63.623047"/>
       <use xlink:href="#DejaVuSans-32" x="127.246094"/>
      </g>
     </g>
    </g>
    <g id="xtick_9">
     <g id="line2d_19">
      <g>
       <use xlink:href="#maece47153e" x="426.847789" y="232.759219" style="stroke: #000000; stroke-width: 0.8"/>
      </g>
     </g>
     <g id="text_17">
      <!-- 288 -->
      <g transform="translate(417.304039 247.357656) scale(0.1 -0.1)">
       <use xlink:href="#DejaVuSans-32"/>
       <use xlink:href="#DejaVuSans-38" x="63.623047"/>
       <use xlink:href="#DejaVuSans-38" x="127.246094"/>
      </g>
     </g>
    </g>
    <g id="xtick_10">
     <g id="line2d_20">
      <g>
       <use xlink:href="#maece47153e" x="472.769999" y="232.759219" style="stroke: #000000; stroke-width: 0.8"/>
      </g>
     </g>
     <g id="text_18">
      <!-- 480 -->
      <g transform="translate(463.226249 247.357656) scale(0.1 -0.1)">
       <use xlink:href="#DejaVuSans-34"/>
       <use xlink:href="#DejaVuSans-38" x="63.623047"/>
       <use xlink:href="#DejaVuSans-30" x="127.246094"/>
      </g>
     </g>
    </g>
    <g id="xtick_11">
     <g id="line2d_21">
      <g>
       <use xlink:href="#maece47153e" x="543.650751" y="232.759219" style="stroke: #000000; stroke-width: 0.8"/>
      </g>
     </g>
     <g id="text_19">
      <!-- 1056 -->
      <g transform="translate(530.925751 247.357656) scale(0.1 -0.1)">
       <use xlink:href="#DejaVuSans-31"/>
       <use xlink:href="#DejaVuSans-30" x="63.623047"/>
       <use xlink:href="#DejaVuSans-35" x="127.246094"/>
       <use xlink:href="#DejaVuSans-36" x="190.869141"/>
      </g>
     </g>
    </g>
    <g id="xtick_12">
     <g id="line2d_22">
      <g>
       <use xlink:href="#maece47153e" x="601.78125" y="232.759219" style="stroke: #000000; stroke-width: 0.8"/>
      </g>
     </g>
     <g id="text_20">
      <!-- 2016 -->
      <g transform="translate(589.05625 247.357656) scale(0.1 -0.1)">
       <use xlink:href="#DejaVuSans-32"/>
       <use xlink:href="#DejaVuSans-30" x="63.623047"/>
       <use xlink:href="#DejaVuSans-31" x="127.246094"/>
       <use xlink:href="#DejaVuSans-36" x="190.869141"/>
      </g>
     </g>
    </g>
    <g id="text_21">
     <!-- Total number of variants -->
     <g transform="translate(413.920099 261.035781) scale(0.1 -0.1)">
      <use xlink:href="#DejaVuSans-54"/>
      <use xlink:href="#DejaVuSans-6f" x="44.083984"/>
      <use xlink:href="#DejaVuSans-74" x="105.265625"/>
      <use xlink:href="#DejaVuSans-61" x="144.474609"/>
      <use xlink:href="#DejaVuSans-6c" x="205.753906"/>
      <use xlink:href="#DejaVuSans-20" x="233.537109"/>
      <use xlink:href="#DejaVuSans-6e" x="265.324219"/>
      <use xlink:href="#DejaVuSans-75" x="328.703125"/>
      <use xlink:href="#DejaVuSans-6d" x="392.082031"/>
      <use xlink:href="#DejaVuSans-62" x="489.494141"/>
      <use xlink:href="#DejaVuSans-65" x="552.970703"/>
      <use xlink:href="#DejaVuSans-72" x="614.494141"/>
      <use xlink:href="#DejaVuSans-20" x="655.607422"/>
      <use xlink:href="#DejaVuSans-6f" x="687.394531"/>
      <use xlink:href="#DejaVuSans-66" x="748.576172"/>
      <use xlink:href="#DejaVuSans-20" x="783.78125"/>
      <use xlink:href="#DejaVuSans-76" x="815.568359"/>
      <use xlink:href="#DejaVuSans-61" x="874.748047"/>
      <use xlink:href="#DejaVuSans-72" x="936.027344"/>
      <use xlink:href="#DejaVuSans-69" x="977.140625"/>
      <use xlink:href="#DejaVuSans-61" x="1004.923828"/>
      <use xlink:href="#DejaVuSans-6e" x="1066.203125"/>
      <use xlink:href="#DejaVuSans-74" x="1129.582031"/>
      <use xlink:href="#DejaVuSans-73" x="1168.791016"/>
     </g>
    </g>
   </g>
   <g id="matplotlib.axis_4">
    <g id="ytick_7">
     <g id="line2d_23">
      <g>
       <use xlink:href="#m642357d934" x="348.144886" y="232.759219" style="stroke: #000000; stroke-width: 0.8"/>
      </g>
     </g>
     <g id="text_22">
      <!-- 0.0 -->
      <g transform="translate(325.241761 236.558437) scale(0.1 -0.1)">
       <use xlink:href="#DejaVuSans-30"/>
       <use xlink:href="#DejaVuSans-2e" x="63.623047"/>
       <use xlink:href="#DejaVuSans-30" x="95.410156"/>
      </g>
     </g>
    </g>
    <g id="ytick_8">
     <g id="line2d_24">
      <g>
       <use xlink:href="#m642357d934" x="348.144886" y="188.407219" style="stroke: #000000; stroke-width: 0.8"/>
      </g>
     </g>
     <g id="text_23">
      <!-- 0.2 -->
      <g transform="translate(325.241761 192.206437) scale(0.1 -0.1)">
       <use xlink:href="#DejaVuSans-30"/>
       <use xlink:href="#DejaVuSans-2e" x="63.623047"/>
       <use xlink:href="#DejaVuSans-32" x="95.410156"/>
      </g>
     </g>
    </g>
    <g id="ytick_9">
     <g id="line2d_25">
      <g>
       <use xlink:href="#m642357d934" x="348.144886" y="144.055219" style="stroke: #000000; stroke-width: 0.8"/>
      </g>
     </g>
     <g id="text_24">
      <!-- 0.4 -->
      <g transform="translate(325.241761 147.854437) scale(0.1 -0.1)">
       <use xlink:href="#DejaVuSans-30"/>
       <use xlink:href="#DejaVuSans-2e" x="63.623047"/>
       <use xlink:href="#DejaVuSans-34" x="95.410156"/>
      </g>
     </g>
    </g>
    <g id="ytick_10">
     <g id="line2d_26">
      <g>
       <use xlink:href="#m642357d934" x="348.144886" y="99.703219" style="stroke: #000000; stroke-width: 0.8"/>
      </g>
     </g>
     <g id="text_25">
      <!-- 0.6 -->
      <g transform="translate(325.241761 103.502437) scale(0.1 -0.1)">
       <use xlink:href="#DejaVuSans-30"/>
       <use xlink:href="#DejaVuSans-2e" x="63.623047"/>
       <use xlink:href="#DejaVuSans-36" x="95.410156"/>
      </g>
     </g>
    </g>
    <g id="ytick_11">
     <g id="line2d_27">
      <g>
       <use xlink:href="#m642357d934" x="348.144886" y="55.351219" style="stroke: #000000; stroke-width: 0.8"/>
      </g>
     </g>
     <g id="text_26">
      <!-- 0.8 -->
      <g transform="translate(325.241761 59.150437) scale(0.1 -0.1)">
       <use xlink:href="#DejaVuSans-30"/>
       <use xlink:href="#DejaVuSans-2e" x="63.623047"/>
       <use xlink:href="#DejaVuSans-38" x="95.410156"/>
      </g>
     </g>
    </g>
    <g id="ytick_12">
     <g id="line2d_28">
      <g>
       <use xlink:href="#m642357d934" x="348.144886" y="10.999219" style="stroke: #000000; stroke-width: 0.8"/>
      </g>
     </g>
     <g id="text_27">
      <!-- 1.0 -->
      <g transform="translate(325.241761 14.798437) scale(0.1 -0.1)">
       <use xlink:href="#DejaVuSans-31"/>
       <use xlink:href="#DejaVuSans-2e" x="63.623047"/>
       <use xlink:href="#DejaVuSans-30" x="95.410156"/>
      </g>
     </g>
    </g>
    <g id="text_28">
     <!-- Fraction reaching the global optimum -->
     <g transform="translate(319.162074 215.876094) rotate(-90) scale(0.1 -0.1)">
      <defs>
       <path id="DejaVuSans-46" d="M 628 4666 
L 3309 4666 
L 3309 4134 
L 1259 4134 
L 1259 2759 
L 3109 2759 
L 3109 2228 
L 1259 2228 
L 1259 0 
L 628 0 
L 628 4666 
z
" transform="scale(0.015625)"/>
       <path id="DejaVuSans-70" d="M 1159 525 
L 1159 -1331 
L 581 -1331 
L 581 3500 
L 1159 3500 
L 1159 2969 
Q 1341 3281 1617 3432 
Q 1894 3584 2278 3584 
Q 2916 3584 3314 3078 
Q 3713 2572 3713 1747 
Q 3713 922 3314 415 
Q 2916 -91 2278 -91 
Q 1894 -91 1617 61 
Q 1341 213 1159 525 
z
M 3116 1747 
Q 3116 2381 2855 2742 
Q 2594 3103 2138 3103 
Q 1681 3103 1420 2742 
Q 1159 2381 1159 1747 
Q 1159 1113 1420 752 
Q 1681 391 2138 391 
Q 2594 391 2855 752 
Q 3116 1113 3116 1747 
z
" transform="scale(0.015625)"/>
      </defs>
      <use xlink:href="#DejaVuSans-46"/>
      <use xlink:href="#DejaVuSans-72" x="50.269531"/>
      <use xlink:href="#DejaVuSans-61" x="91.382812"/>
      <use xlink:href="#DejaVuSans-63" x="152.662109"/>
      <use xlink:href="#DejaVuSans-74" x="207.642578"/>
      <use xlink:href="#DejaVuSans-69" x="246.851562"/>
      <use xlink:href="#DejaVuSans-6f" x="274.634766"/>
      <use xlink:href="#DejaVuSans-6e" x="335.816406"/>
      <use xlink:href="#DejaVuSans-20" x="399.195312"/>
      <use xlink:href="#DejaVuSans-72" x="430.982422"/>
      <use xlink:href="#DejaVuSans-65" x="469.845703"/>
      <use xlink:href="#DejaVuSans-61" x="531.369141"/>
      <use xlink:href="#DejaVuSans-63" x="592.648438"/>
      <use xlink:href="#DejaVuSans-68" x="647.628906"/>
      <use xlink:href="#DejaVuSans-69" x="711.007812"/>
      <use xlink:href="#DejaVuSans-6e" x="738.791016"/>
      <use xlink:href="#DejaVuSans-67" x="802.169922"/>
      <use xlink:href="#DejaVuSans-20" x="865.646484"/>
      <use xlink:href="#DejaVuSans-74" x="897.433594"/>
      <use xlink:href="#DejaVuSans-68" x="936.642578"/>
      <use xlink:href="#DejaVuSans-65" x="1000.021484"/>
      <use xlink:href="#DejaVuSans-20" x="1061.544922"/>
      <use xlink:href="#DejaVuSans-67" x="1093.332031"/>
      <use xlink:href="#DejaVuSans-6c" x="1156.808594"/>
      <use xlink:href="#DejaVuSans-6f" x="1184.591797"/>
      <use xlink:href="#DejaVuSans-62" x="1245.773438"/>
      <use xlink:href="#DejaVuSans-61" x="1309.25"/>
      <use xlink:href="#DejaVuSans-6c" x="1370.529297"/>
      <use xlink:href="#DejaVuSans-20" x="1398.3125"/>
      <use xlink:href="#DejaVuSans-6f" x="1430.099609"/>
      <use xlink:href="#DejaVuSans-70" x="1491.28125"/>
      <use xlink:href="#DejaVuSans-74" x="1554.757812"/>
      <use xlink:href="#DejaVuSans-69" x="1593.966797"/>
      <use xlink:href="#DejaVuSans-6d" x="1621.75"/>
      <use xlink:href="#DejaVuSans-75" x="1719.162109"/>
      <use xlink:href="#DejaVuSans-6d" x="1782.541016"/>
     </g>
    </g>
   </g>
   <g id="line2d_29">
    <path d="M 348.144886 229.432819 
L 364.535233 213.909619 
L 390.39728 189.516019 
L 426.847789 157.360819 
L 452.709836 150.708019 
L 472.769999 136.293619 
L 489.160345 131.858419 
L 503.018185 106.356019 
L 543.650751 26.522419 
L 601.78125 10.999219 
" clip-path="url(#p170b701cbe)" style="fill: none; stroke: #666666; stroke-width: 2; stroke-linecap: square"/>
    <g clip-path="url(#p170b701cbe)">
     <use xlink:href="#m3965f74669" x="348.144886" y="229.432819" style="fill: #666666; stroke: #666666"/>
     <use xlink:href="#m3965f74669" x="364.535233" y="213.909619" style="fill: #666666; stroke: #666666"/>
     <use xlink:href="#m3965f74669" x="390.39728" y="189.516019" style="fill: #666666; stroke: #666666"/>
     <use xlink:href="#m3965f74669" x="426.847789" y="157.360819" style="fill: #666666; stroke: #666666"/>
     <use xlink:href="#m3965f74669" x="452.709836" y="150.708019" style="fill: #666666; stroke: #666666"/>
     <use xlink:href="#m3965f74669" x="472.769999" y="136.293619" style="fill: #666666; stroke: #666666"/>
     <use xlink:href="#m3965f74669" x="489.160345" y="131.858419" style="fill: #666666; stroke: #666666"/>
     <use xlink:href="#m3965f74669" x="503.018185" y="106.356019" style="fill: #666666; stroke: #666666"/>
     <use xlink:href="#m3965f74669" x="543.650751" y="26.522419" style="fill: #666666; stroke: #666666"/>
     <use xlink:href="#m3965f74669" x="601.78125" y="10.999219" style="fill: #666666; stroke: #666666"/>
    </g>
   </g>
   <g id="line2d_30">
    <path d="M 348.144886 221.671219 
L 364.535233 193.951219 
L 390.39728 165.122419 
L 426.847789 141.837619 
L 452.709836 119.661619 
L 472.769999 93.050419 
L 489.160345 71.983219 
L 503.018185 52.024819 
L 543.650751 13.216819 
L 601.78125 10.999219 
" clip-path="url(#p170b701cbe)" style="fill: none; stroke-dasharray: 12,4; stroke-dashoffset: 0; stroke: #f9be00; stroke-width: 2"/>
    <g clip-path="url(#p170b701cbe)">
     <use xlink:href="#me3c27bed84" x="348.144886" y="221.671219" style="fill: #f9be00; stroke: #f9be00"/>
     <use xlink:href="#me3c27bed84" x="364.535233" y="193.951219" style="fill: #f9be00; stroke: #f9be00"/>
     <use xlink:href="#me3c27bed84" x="390.39728" y="165.122419" style="fill: #f9be00; stroke: #f9be00"/>
     <use xlink:href="#me3c27bed84" x="426.847789" y="141.837619" style="fill: #f9be00; stroke: #f9be00"/>
     <use xlink:href="#me3c27bed84" x="452.709836" y="119.661619" style="fill: #f9be00; stroke: #f9be00"/>
     <use xlink:href="#me3c27bed84" x="472.769999" y="93.050419" style="fill: #f9be00; stroke: #f9be00"/>
     <use xlink:href="#me3c27bed84" x="489.160345" y="71.983219" style="fill: #f9be00; stroke: #f9be00"/>
     <use xlink:href="#me3c27bed84" x="503.018185" y="52.024819" style="fill: #f9be00; stroke: #f9be00"/>
     <use xlink:href="#me3c27bed84" x="543.650751" y="13.216819" style="fill: #f9be00; stroke: #f9be00"/>
     <use xlink:href="#me3c27bed84" x="601.78125" y="10.999219" style="fill: #f9be00; stroke: #f9be00"/>
    </g>
   </g>
   <g id="line2d_31">
    <path d="M 348.144886 189.516019 
L 364.535233 164.013619 
L 390.39728 135.184819 
L 426.847789 117.444019 
L 452.709836 114.117619 
L 472.769999 87.506419 
L 489.160345 75.309619 
L 503.018185 54.242419 
L 543.650751 14.325619 
L 601.78125 10.999219 
" clip-path="url(#p170b701cbe)" style="fill: none; stroke-dasharray: 12.8,3.2,2,3.2; stroke-dashoffset: 0; stroke: #4bacc6; stroke-width: 2"/>
    <g clip-path="url(#p170b701cbe)">
     <use xlink:href="#m4ef58aac6b" x="348.144886" y="189.516019" style="fill: #4bacc6; stroke: #4bacc6"/>
     <use xlink:href="#m4ef58aac6b" x="364.535233" y="164.013619" style="fill: #4bacc6; stroke: #4bacc6"/>
     <use xlink:href="#m4ef58aac6b" x="390.39728" y="135.184819" style="fill: #4bacc6; stroke: #4bacc6"/>
     <use xlink:href="#m4ef58aac6b" x="426.847789" y="117.444019" style="fill: #4bacc6; stroke: #4bacc6"/>
     <use xlink:href="#m4ef58aac6b" x="452.709836" y="114.117619" style="fill: #4bacc6; stroke: #4bacc6"/>
     <use xlink:href="#m4ef58aac6b" x="472.769999" y="87.506419" style="fill: #4bacc6; stroke: #4bacc6"/>
     <use xlink:href="#m4ef58aac6b" x="489.160345" y="75.309619" style="fill: #4bacc6; stroke: #4bacc6"/>
     <use xlink:href="#m4ef58aac6b" x="503.018185" y="54.242419" style="fill: #4bacc6; stroke: #4bacc6"/>
     <use xlink:href="#m4ef58aac6b" x="543.650751" y="14.325619" style="fill: #4bacc6; stroke: #4bacc6"/>
     <use xlink:href="#m4ef58aac6b" x="601.78125" y="10.999219" style="fill: #4bacc6; stroke: #4bacc6"/>
    </g>
   </g>
   <g id="line2d_32">
    <path d="M 348.144886 210.583219 
L 364.535233 179.536819 
L 390.39728 148.490419 
L 426.847789 96.376819 
L 452.709836 89.724019 
L 472.769999 64.221619 
L 489.160345 57.568819 
L 503.018185 39.828019 
L 543.650751 14.325619 
L 601.78125 10.999219 
" clip-path="url(#p170b701cbe)" style="fill: none; stroke-dasharray: 2,3.3; stroke-dashoffset: 0; stroke: #9bbb59; stroke-width: 2"/>
    <g clip-path="url(#p170b701cbe)">
     <use xlink:href="#m4e130da59e" x="348.144886" y="210.583219" style="fill: #9bbb59; stroke: #9bbb59"/>
     <use xlink:href="#m4e130da59e" x="364.535233" y="179.536819" style="fill: #9bbb59; stroke: #9bbb59"/>
     <use xlink:href="#m4e130da59e" x="390.39728" y="148.490419" style="fill: #9bbb59; stroke: #9bbb59"/>
     <use xlink:href="#m4e130da59e" x="426.847789" y="96.376819" style="fill: #9bbb59; stroke: #9bbb59"/>
     <use xlink:href="#m4e130da59e" x="452.709836" y="89.724019" style="fill: #9bbb59; stroke: #9bbb59"/>
     <use xlink:href="#m4e130da59e" x="472.769999" y="64.221619" style="fill: #9bbb59; stroke: #9bbb59"/>
     <use xlink:href="#m4e130da59e" x="489.160345" y="57.568819" style="fill: #9bbb59; stroke: #9bbb59"/>
     <use xlink:href="#m4e130da59e" x="503.018185" y="39.828019" style="fill: #9bbb59; stroke: #9bbb59"/>
     <use xlink:href="#m4e130da59e" x="543.650751" y="14.325619" style="fill: #9bbb59; stroke: #9bbb59"/>
     <use xlink:href="#m4e130da59e" x="601.78125" y="10.999219" style="fill: #9bbb59; stroke: #9bbb59"/>
    </g>
   </g>
   <g id="patch_8">
    <path d="M 348.144886 232.759219 
L 348.144886 10.999219 
" style="fill: none; stroke: #000000; stroke-width: 0.8; stroke-linejoin: miter; stroke-linecap: square"/>
   </g>
   <g id="patch_9">
    <path d="M 601.78125 232.759219 
L 601.78125 10.999219 
" style="fill: none; stroke: #000000; stroke-width: 0.8; stroke-linejoin: miter; stroke-linecap: square"/>
   </g>
   <g id="patch_10">
    <path d="M 348.144886 232.759219 
L 601.78125 232.759219 
" style="fill: none; stroke: #000000; stroke-width: 0.8; stroke-linejoin: miter; stroke-linecap: square"/>
   </g>
   <g id="patch_11">
    <path d="M 348.144886 10.999219 
L 601.78125 10.999219 
" style="fill: none; stroke: #000000; stroke-width: 0.8; stroke-linejoin: miter; stroke-linecap: square"/>
   </g>
   <g id="legend_1">
    <g id="patch_12">
     <path d="M 608.78125 72.167719 
L 835.423437 72.167719 
Q 837.423437 72.167719 837.423437 70.167719 
L 837.423437 12.455219 
Q 837.423437 10.455219 835.423437 10.455219 
L 608.78125 10.455219 
Q 606.78125 10.455219 606.78125 12.455219 
L 606.78125 70.167719 
Q 606.78125 72.167719 608.78125 72.167719 
z
" style="fill: #ffffff; opacity: 0.8; stroke: #cccccc; stroke-linejoin: miter"/>
    </g>
    <g id="line2d_33">
     <path d="M 610.78125 18.553656 
L 620.78125 18.553656 
L 630.78125 18.553656 
" style="fill: none; stroke: #666666; stroke-width: 2; stroke-linecap: square"/>
     <g>
      <use xlink:href="#m3965f74669" x="620.78125" y="18.553656" style="fill: #666666; stroke: #666666"/>
     </g>
    </g>
    <g id="text_29">
     <!-- One-hot -->
     <g transform="translate(638.78125 22.053656) scale(0.1 -0.1)">
      <defs>
       <path id="DejaVuSans-4f" d="M 2522 4238 
Q 1834 4238 1429 3725 
Q 1025 3213 1025 2328 
Q 1025 1447 1429 934 
Q 1834 422 2522 422 
Q 3209 422 3611 934 
Q 4013 1447 4013 2328 
Q 4013 3213 3611 3725 
Q 3209 4238 2522 4238 
z
M 2522 4750 
Q 3503 4750 4090 4092 
Q 4678 3434 4678 2328 
Q 4678 1225 4090 567 
Q 3503 -91 2522 -91 
Q 1538 -91 948 565 
Q 359 1222 359 2328 
Q 359 3434 948 4092 
Q 1538 4750 2522 4750 
z
" transform="scale(0.015625)"/>
       <path id="DejaVuSans-2d" d="M 313 2009 
L 1997 2009 
L 1997 1497 
L 313 1497 
L 313 2009 
z
" transform="scale(0.015625)"/>
      </defs>
      <use xlink:href="#DejaVuSans-4f"/>
      <use xlink:href="#DejaVuSans-6e" x="78.710938"/>
      <use xlink:href="#DejaVuSans-65" x="142.089844"/>
      <use xlink:href="#DejaVuSans-2d" x="203.613281"/>
      <use xlink:href="#DejaVuSans-68" x="239.697266"/>
      <use xlink:href="#DejaVuSans-6f" x="303.076172"/>
      <use xlink:href="#DejaVuSans-74" x="364.257812"/>
     </g>
    </g>
    <g id="line2d_34">
     <path d="M 610.78125 33.231781 
L 620.78125 33.231781 
L 630.78125 33.231781 
" style="fill: none; stroke-dasharray: 12,4; stroke-dashoffset: 0; stroke: #f9be00; stroke-width: 2"/>
     <g>
      <use xlink:href="#me3c27bed84" x="620.78125" y="33.231781" style="fill: #f9be00; stroke: #f9be00"/>
     </g>
    </g>
    <g id="text_30">
     <!-- ESM2 flatten over mutation sites -->
     <g transform="translate(638.78125 36.731781) scale(0.1 -0.1)">
      <defs>
       <path id="DejaVuSans-45" d="M 628 4666 
L 3578 4666 
L 3578 4134 
L 1259 4134 
L 1259 2753 
L 3481 2753 
L 3481 2222 
L 1259 2222 
L 1259 531 
L 3634 531 
L 3634 0 
L 628 0 
L 628 4666 
z
" transform="scale(0.015625)"/>
       <path id="DejaVuSans-53" d="M 3425 4513 
L 3425 3897 
Q 3066 4069 2747 4153 
Q 2428 4238 2131 4238 
Q 1616 4238 1336 4038 
Q 1056 3838 1056 3469 
Q 1056 3159 1242 3001 
Q 1428 2844 1947 2747 
L 2328 2669 
Q 3034 2534 3370 2195 
Q 3706 1856 3706 1288 
Q 3706 609 3251 259 
Q 2797 -91 1919 -91 
Q 1588 -91 1214 -16 
Q 841 59 441 206 
L 441 856 
Q 825 641 1194 531 
Q 1563 422 1919 422 
Q 2459 422 2753 634 
Q 3047 847 3047 1241 
Q 3047 1584 2836 1778 
Q 2625 1972 2144 2069 
L 1759 2144 
Q 1053 2284 737 2584 
Q 422 2884 422 3419 
Q 422 4038 858 4394 
Q 1294 4750 2059 4750 
Q 2388 4750 2728 4690 
Q 3069 4631 3425 4513 
z
" transform="scale(0.015625)"/>
       <path id="DejaVuSans-4d" d="M 628 4666 
L 1569 4666 
L 2759 1491 
L 3956 4666 
L 4897 4666 
L 4897 0 
L 4281 0 
L 4281 4097 
L 3078 897 
L 2444 897 
L 1241 4097 
L 1241 0 
L 628 0 
L 628 4666 
z
" transform="scale(0.015625)"/>
      </defs>
      <use xlink:href="#DejaVuSans-45"/>
      <use xlink:href="#DejaVuSans-53" x="63.183594"/>
      <use xlink:href="#DejaVuSans-4d" x="126.660156"/>
      <use xlink:href="#DejaVuSans-32" x="212.939453"/>
      <use xlink:href="#DejaVuSans-20" x="276.5625"/>
      <use xlink:href="#DejaVuSans-66" x="308.349609"/>
      <use xlink:href="#DejaVuSans-6c" x="343.554688"/>
      <use xlink:href="#DejaVuSans-61" x="371.337891"/>
      <use xlink:href="#DejaVuSans-74" x="432.617188"/>
      <use xlink:href="#DejaVuSans-74" x="471.826172"/>
      <use xlink:href="#DejaVuSans-65" x="511.035156"/>
      <use xlink:href="#DejaVuSans-6e" x="572.558594"/>
      <use xlink:href="#DejaVuSans-20" x="635.9375"/>
      <use xlink:href="#DejaVuSans-6f" x="667.724609"/>
      <use xlink:href="#DejaVuSans-76" x="728.90625"/>
      <use xlink:href="#DejaVuSans-65" x="788.085938"/>
      <use xlink:href="#DejaVuSans-72" x="849.609375"/>
      <use xlink:href="#DejaVuSans-20" x="890.722656"/>
      <use xlink:href="#DejaVuSans-6d" x="922.509766"/>
      <use xlink:href="#DejaVuSans-75" x="1019.921875"/>
      <use xlink:href="#DejaVuSans-74" x="1083.300781"/>
      <use xlink:href="#DejaVuSans-61" x="1122.509766"/>
      <use xlink:href="#DejaVuSans-74" x="1183.789062"/>
      <use xlink:href="#DejaVuSans-69" x="1222.998047"/>
      <use xlink:href="#DejaVuSans-6f" x="1250.78125"/>
      <use xlink:href="#DejaVuSans-6e" x="1311.962891"/>
      <use xlink:href="#DejaVuSans-20" x="1375.341797"/>
      <use xlink:href="#DejaVuSans-73" x="1407.128906"/>
      <use xlink:href="#DejaVuSans-69" x="1459.228516"/>
      <use xlink:href="#DejaVuSans-74" x="1487.011719"/>
      <use xlink:href="#DejaVuSans-65" x="1526.220703"/>
      <use xlink:href="#DejaVuSans-73" x="1587.744141"/>
     </g>
    </g>
    <g id="line2d_35">
     <path d="M 610.78125 47.909906 
L 620.78125 47.909906 
L 630.78125 47.909906 
" style="fill: none; stroke-dasharray: 12.8,3.2,2,3.2; stroke-dashoffset: 0; stroke: #4bacc6; stroke-width: 2"/>
     <g>
      <use xlink:href="#m4ef58aac6b" x="620.78125" y="47.909906" style="fill: #4bacc6; stroke: #4bacc6"/>
     </g>
    </g>
    <g id="text_31">
     <!-- ESM2 mean pooling over full sequence -->
     <g transform="translate(638.78125 51.409906) scale(0.1 -0.1)">
      <defs>
       <path id="DejaVuSans-71" d="M 947 1747 
Q 947 1113 1208 752 
Q 1469 391 1925 391 
Q 2381 391 2643 752 
Q 2906 1113 2906 1747 
Q 2906 2381 2643 2742 
Q 2381 3103 1925 3103 
Q 1469 3103 1208 2742 
Q 947 2381 947 1747 
z
M 2906 525 
Q 2725 213 2448 61 
Q 2172 -91 1784 -91 
Q 1150 -91 751 415 
Q 353 922 353 1747 
Q 353 2572 751 3078 
Q 1150 3584 1784 3584 
Q 2172 3584 2448 3432 
Q 2725 3281 2906 2969 
L 2906 3500 
L 3481 3500 
L 3481 -1331 
L 2906 -1331 
L 2906 525 
z
" transform="scale(0.015625)"/>
      </defs>
      <use xlink:href="#DejaVuSans-45"/>
      <use xlink:href="#DejaVuSans-53" x="63.183594"/>
      <use xlink:href="#DejaVuSans-4d" x="126.660156"/>
      <use xlink:href="#DejaVuSans-32" x="212.939453"/>
      <use xlink:href="#DejaVuSans-20" x="276.5625"/>
      <use xlink:href="#DejaVuSans-6d" x="308.349609"/>
      <use xlink:href="#DejaVuSans-65" x="405.761719"/>
      <use xlink:href="#DejaVuSans-61" x="467.285156"/>
      <use xlink:href="#DejaVuSans-6e" x="528.564453"/>
      <use xlink:href="#DejaVuSans-20" x="591.943359"/>
      <use xlink:href="#DejaVuSans-70" x="623.730469"/>
      <use xlink:href="#DejaVuSans-6f" x="687.207031"/>
      <use xlink:href="#DejaVuSans-6f" x="748.388672"/>
      <use xlink:href="#DejaVuSans-6c" x="809.570312"/>
      <use xlink:href="#DejaVuSans-69" x="837.353516"/>
      <use xlink:href="#DejaVuSans-6e" x="865.136719"/>
      <use xlink:href="#DejaVuSans-67" x="928.515625"/>
      <use xlink:href="#DejaVuSans-20" x="991.992188"/>
      <use xlink:href="#DejaVuSans-6f" x="1023.779297"/>
      <use xlink:href="#DejaVuSans-76" x="1084.960938"/>
      <use xlink:href="#DejaVuSans-65" x="1144.140625"/>
      <use xlink:href="#DejaVuSans-72" x="1205.664062"/>
      <use xlink:href="#DejaVuSans-20" x="1246.777344"/>
      <use xlink:href="#DejaVuSans-66" x="1278.564453"/>
      <use xlink:href="#DejaVuSans-75" x="1313.769531"/>
      <use xlink:href="#DejaVuSans-6c" x="1377.148438"/>
      <use xlink:href="#DejaVuSans-6c" x="1404.931641"/>
      <use xlink:href="#DejaVuSans-20" x="1432.714844"/>
      <use xlink:href="#DejaVuSans-73" x="1464.501953"/>
      <use xlink:href="#DejaVuSans-65" x="1516.601562"/>
      <use xlink:href="#DejaVuSans-71" x="1578.125"/>
      <use xlink:href="#DejaVuSans-75" x="1641.601562"/>
      <use xlink:href="#DejaVuSans-65" x="1704.980469"/>
      <use xlink:href="#DejaVuSans-6e" x="1766.503906"/>
      <use xlink:href="#DejaVuSans-63" x="1829.882812"/>
      <use xlink:href="#DejaVuSans-65" x="1884.863281"/>
     </g>
    </g>
    <g id="line2d_36">
     <path d="M 610.78125 62.588031 
L 620.78125 62.588031 
L 630.78125 62.588031 
" style="fill: none; stroke-dasharray: 2,3.3; stroke-dashoffset: 0; stroke: #9bbb59; stroke-width: 2"/>
     <g>
      <use xlink:href="#m4e130da59e" x="620.78125" y="62.588031" style="fill: #9bbb59; stroke: #9bbb59"/>
     </g>
    </g>
    <g id="text_32">
     <!-- ESM2 mean pooling over sites -->
     <g transform="translate(638.78125 66.088031) scale(0.1 -0.1)">
      <use xlink:href="#DejaVuSans-45"/>
      <use xlink:href="#DejaVuSans-53" x="63.183594"/>
      <use xlink:href="#DejaVuSans-4d" x="126.660156"/>
      <use xlink:href="#DejaVuSans-32" x="212.939453"/>
      <use xlink:href="#DejaVuSans-20" x="276.5625"/>
      <use xlink:href="#DejaVuSans-6d" x="308.349609"/>
      <use xlink:href="#DejaVuSans-65" x="405.761719"/>
      <use xlink:href="#DejaVuSans-61" x="467.285156"/>
      <use xlink:href="#DejaVuSans-6e" x="528.564453"/>
      <use xlink:href="#DejaVuSans-20" x="591.943359"/>
      <use xlink:href="#DejaVuSans-70" x="623.730469"/>
      <use xlink:href="#DejaVuSans-6f" x="687.207031"/>
      <use xlink:href="#DejaVuSans-6f" x="748.388672"/>
      <use xlink:href="#DejaVuSans-6c" x="809.570312"/>
      <use xlink:href="#DejaVuSans-69" x="837.353516"/>
      <use xlink:href="#DejaVuSans-6e" x="865.136719"/>
      <use xlink:href="#DejaVuSans-67" x="928.515625"/>
      <use xlink:href="#DejaVuSans-20" x="991.992188"/>
      <use xlink:href="#DejaVuSans-6f" x="1023.779297"/>
      <use xlink:href="#DejaVuSans-76" x="1084.960938"/>
      <use xlink:href="#DejaVuSans-65" x="1144.140625"/>
      <use xlink:href="#DejaVuSans-72" x="1205.664062"/>
      <use xlink:href="#DejaVuSans-20" x="1246.777344"/>
      <use xlink:href="#DejaVuSans-73" x="1278.564453"/>
      <use xlink:href="#DejaVuSans-69" x="1330.664062"/>
      <use xlink:href="#DejaVuSans-74" x="1358.447266"/>
      <use xlink:href="#DejaVuSans-65" x="1397.65625"/>
      <use xlink:href="#DejaVuSans-73" x="1459.179688"/>
     </g>
    </g>
   </g>
  </g>
 </g>
 <defs>
  <clipPath id="p870a077e3a">
   <rect x="43.78125" y="10.999219" width="253.636364" height="221.76"/>
  </clipPath>
  <clipPath id="p170b701cbe">
   <rect x="348.144886" y="10.999219" width="253.636364" height="221.76"/>
  </clipPath>
 </defs>
</svg>
