<?xml version="1.0" encoding="utf-8" standalone="no"?>
<!DOCTYPE svg PUBLIC "-//W3C//DTD SVG 1.1//EN"
  "http://www.w3.org/Graphics/SVG/1.1/DTD/svg11.dtd">
<svg xmlns:xlink="http://www.w3.org/1999/xlink" width="557.521074pt" height="279.318562pt" viewBox="0 0 557.521074 279.318562" xmlns="http://www.w3.org/2000/svg" version="1.1">
 <metadata>
  <rdf:RDF xmlns:dc="http://purl.org/dc/elements/1.1/" xmlns:cc="http://creativecommons.org/ns#" xmlns:rdf="http://www.w3.org/1999/02/22-rdf-syntax-ns#">
   <cc:Work>
    <dc:type rdf:resource="http://purl.org/dc/dcmitype/StillImage"/>
    <dc:date>2024-10-16T12:17:08.956379</dc:date>
    <dc:format>image/svg+xml</dc:format>
    <dc:creator>
     <cc:Agent>
      <dc:title>Matplotlib v3.8.4, https://matplotlib.org/</dc:title>
     </cc:Agent>
    </dc:creator>
   </cc:Work>
  </rdf:RDF>
 </metadata>
 <defs>
  <style type="text/css">*{stroke-linejoin: round; stroke-linecap: butt}</style>
 </defs>
 <g id="figure_1">
  <g id="patch_1">
   <path d="M 0 279.318562 
L 557.521074 279.318562 
L 557.521074 0 
L 0 0 
z
" style="fill: #ffffff"/>
  </g>
  <g id="axes_1">
   <g id="patch_2">
    <path d="M 46.57758 117.808437 
L 195.074852 117.808437 
L 195.074852 20.798437 
L 46.57758 20.798437 
z
" style="fill: #ffffff"/>
   </g>
   <g id="matplotlib.axis_1">
    <g id="xtick_1">
     <g id="line2d_1">
      <defs>
       <path id="md5b14e3ff9" d="M 0 0 
L 0 3.5 
" style="stroke: #000000; stroke-width: 0.8"/>
      </defs>
      <g>
       <use xlink:href="#md5b14e3ff9" x="65.139739" y="117.808437" style="stroke: #000000; stroke-width: 0.8"/>
      </g>
     </g>
    </g>
    <g id="xtick_2">
     <g id="line2d_2">
      <g>
       <use xlink:href="#md5b14e3ff9" x="102.264057" y="117.808437" style="stroke: #000000; stroke-width: 0.8"/>
      </g>
     </g>
    </g>
    <g id="xtick_3">
     <g id="line2d_3">
      <g>
       <use xlink:href="#md5b14e3ff9" x="139.388375" y="117.808437" style="stroke: #000000; stroke-width: 0.8"/>
      </g>
     </g>
    </g>
    <g id="xtick_4">
     <g id="line2d_4">
      <g>
       <use xlink:href="#md5b14e3ff9" x="176.512693" y="117.808437" style="stroke: #000000; stroke-width: 0.8"/>
      </g>
     </g>
    </g>
   </g>
   <g id="matplotlib.axis_2">
    <g id="ytick_1">
     <g id="line2d_5">
      <defs>
       <path id="mb2f05b5673" d="M 0 0 
L -3.5 0 
" style="stroke: #000000; stroke-width: 0.8"/>
      </defs>
      <g>
       <use xlink:href="#mb2f05b5673" x="46.57758" y="104.523634" style="stroke: #000000; stroke-width: 0.8"/>
      </g>
     </g>
     <g id="text_1">
      <!-- 0.90 -->
      <g transform="translate(17.311955 108.322853) scale(0.1 -0.1)">
       <defs>
        <path id="DejaVuSans-30" d="M 2034 4250 
Q 1547 4250 1301 3770 
Q 1056 3291 1056 2328 
Q 1056 1369 1301 889 
Q 1547 409 2034 409 
Q 2525 409 2770 889 
Q 3016 1369 3016 2328 
Q 3016 3291 2770 3770 
Q 2525 4250 2034 4250 
z
M 2034 4750 
Q 2819 4750 3233 4129 
Q 3647 3509 3647 2328 
Q 3647 1150 3233 529 
Q 2819 -91 2034 -91 
Q 1250 -91 836 529 
Q 422 1150 422 2328 
Q 422 3509 836 4129 
Q 1250 4750 2034 4750 
z
" transform="scale(0.015625)"/>
        <path id="DejaVuSans-2e" d="M 684 794 
L 1344 794 
L 1344 0 
L 684 0 
L 684 794 
z
" transform="scale(0.015625)"/>
        <path id="DejaVuSans-39" d="M 703 97 
L 703 672 
Q 941 559 1184 500 
Q 1428 441 1663 441 
Q 2288 441 2617 861 
Q 2947 1281 2994 2138 
Q 2813 1869 2534 1725 
Q 2256 1581 1919 1581 
Q 1219 1581 811 2004 
Q 403 2428 403 3163 
Q 403 3881 828 4315 
Q 1253 4750 1959 4750 
Q 2769 4750 3195 4129 
Q 3622 3509 3622 2328 
Q 3622 1225 3098 567 
Q 2575 -91 1691 -91 
Q 1453 -91 1209 -44 
Q 966 3 703 97 
z
M 1959 2075 
Q 2384 2075 2632 2365 
Q 2881 2656 2881 3163 
Q 2881 3666 2632 3958 
Q 2384 4250 1959 4250 
Q 1534 4250 1286 3958 
Q 1038 3666 1038 3163 
Q 1038 2656 1286 2365 
Q 1534 2075 1959 2075 
z
" transform="scale(0.015625)"/>
       </defs>
       <use xlink:href="#DejaVuSans-30"/>
       <use xlink:href="#DejaVuSans-2e" x="63.623047"/>
       <use xlink:href="#DejaVuSans-39" x="95.410156"/>
       <use xlink:href="#DejaVuSans-30" x="159.033203"/>
      </g>
     </g>
    </g>
    <g id="ytick_2">
     <g id="line2d_6">
      <g>
       <use xlink:href="#mb2f05b5673" x="46.57758" y="79.26541" style="stroke: #000000; stroke-width: 0.8"/>
      </g>
     </g>
     <g id="text_2">
      <!-- 0.92 -->
      <g transform="translate(17.311955 83.064629) scale(0.1 -0.1)">
       <defs>
        <path id="DejaVuSans-32" d="M 1228 531 
L 3431 531 
L 3431 0 
L 469 0 
L 469 531 
Q 828 903 1448 1529 
Q 2069 2156 2228 2338 
Q 2531 2678 2651 2914 
Q 2772 3150 2772 3378 
Q 2772 3750 2511 3984 
Q 2250 4219 1831 4219 
Q 1534 4219 1204 4116 
Q 875 4013 500 3803 
L 500 4441 
Q 881 4594 1212 4672 
Q 1544 4750 1819 4750 
Q 2544 4750 2975 4387 
Q 3406 4025 3406 3419 
Q 3406 3131 3298 2873 
Q 3191 2616 2906 2266 
Q 2828 2175 2409 1742 
Q 1991 1309 1228 531 
z
" transform="scale(0.015625)"/>
       </defs>
       <use xlink:href="#DejaVuSans-30"/>
       <use xlink:href="#DejaVuSans-2e" x="63.623047"/>
       <use xlink:href="#DejaVuSans-39" x="95.410156"/>
       <use xlink:href="#DejaVuSans-32" x="159.033203"/>
      </g>
     </g>
    </g>
    <g id="ytick_3">
     <g id="line2d_7">
      <g>
       <use xlink:href="#mb2f05b5673" x="46.57758" y="54.007186" style="stroke: #000000; stroke-width: 0.8"/>
      </g>
     </g>
     <g id="text_3">
      <!-- 0.94 -->
      <g transform="translate(17.311955 57.806405) scale(0.1 -0.1)">
       <defs>
        <path id="DejaVuSans-34" d="M 2419 4116 
L 825 1625 
L 2419 1625 
L 2419 4116 
z
M 2253 4666 
L 3047 4666 
L 3047 1625 
L 3713 1625 
L 3713 1100 
L 3047 1100 
L 3047 0 
L 2419 0 
L 2419 1100 
L 313 1100 
L 313 1709 
L 2253 4666 
z
" transform="scale(0.015625)"/>
       </defs>
       <use xlink:href="#DejaVuSans-30"/>
       <use xlink:href="#DejaVuSans-2e" x="63.623047"/>
       <use xlink:href="#DejaVuSans-39" x="95.410156"/>
       <use xlink:href="#DejaVuSans-34" x="159.033203"/>
      </g>
     </g>
    </g>
    <g id="ytick_4">
     <g id="line2d_8">
      <g>
       <use xlink:href="#mb2f05b5673" x="46.57758" y="28.748962" style="stroke: #000000; stroke-width: 0.8"/>
      </g>
     </g>
     <g id="text_4">
      <!-- 0.96 -->
      <g transform="translate(17.311955 32.548181) scale(0.1 -0.1)">
       <defs>
        <path id="DejaVuSans-36" d="M 2113 2584 
Q 1688 2584 1439 2293 
Q 1191 2003 1191 1497 
Q 1191 994 1439 701 
Q 1688 409 2113 409 
Q 2538 409 2786 701 
Q 3034 994 3034 1497 
Q 3034 2003 2786 2293 
Q 2538 2584 2113 2584 
z
M 3366 4563 
L 3366 3988 
Q 3128 4100 2886 4159 
Q 2644 4219 2406 4219 
Q 1781 4219 1451 3797 
Q 1122 3375 1075 2522 
Q 1259 2794 1537 2939 
Q 1816 3084 2150 3084 
Q 2853 3084 3261 2657 
Q 3669 2231 3669 1497 
Q 3669 778 3244 343 
Q 2819 -91 2113 -91 
Q 1303 -91 875 529 
Q 447 1150 447 2328 
Q 447 3434 972 4092 
Q 1497 4750 2381 4750 
Q 2619 4750 2861 4703 
Q 3103 4656 3366 4563 
z
" transform="scale(0.015625)"/>
       </defs>
       <use xlink:href="#DejaVuSans-30"/>
       <use xlink:href="#DejaVuSans-2e" x="63.623047"/>
       <use xlink:href="#DejaVuSans-39" x="95.410156"/>
       <use xlink:href="#DejaVuSans-36" x="159.033203"/>
      </g>
     </g>
    </g>
   </g>
   <g id="patch_3">
    <path d="M 56.786767 44.670117 
L 73.49271 44.670117 
L 73.49271 32.542915 
L 56.786767 32.542915 
L 56.786767 44.670117 
L 56.786767 44.670117 
z
" clip-path="url(#pbc0f9649e3)" style="fill: none; stroke: #666666; stroke-linejoin: miter"/>
   </g>
   <g id="line2d_9">
    <path d="M 65.139739 44.670117 
L 65.139739 44.670117 
" clip-path="url(#pbc0f9649e3)" style="fill: none; stroke: #585858"/>
   </g>
   <g id="line2d_10">
    <path d="M 65.139739 32.542915 
L 65.139739 31.171443 
" clip-path="url(#pbc0f9649e3)" style="fill: none; stroke: #585858"/>
   </g>
   <g id="line2d_11">
    <path d="M 60.963253 44.670117 
L 69.316224 44.670117 
" clip-path="url(#pbc0f9649e3)" style="fill: none; stroke: #585858; stroke-linecap: square"/>
   </g>
   <g id="line2d_12">
    <path d="M 60.963253 31.171443 
L 69.316224 31.171443 
" clip-path="url(#pbc0f9649e3)" style="fill: none; stroke: #585858; stroke-linecap: square"/>
   </g>
   <g id="line2d_13">
    <defs>
     <path id="mde5aebb9b3" d="M 0 3 
C 0.795609 3 1.55874 2.683901 2.12132 2.12132 
C 2.683901 1.55874 3 0.795609 3 0 
C 3 -0.795609 2.683901 -1.55874 2.12132 -2.12132 
C 1.55874 -2.683901 0.795609 -3 0 -3 
C -0.795609 -3 -1.55874 -2.683901 -2.12132 -2.12132 
C -2.683901 -1.55874 -3 -0.795609 -3 0 
C -3 0.795609 -2.683901 1.55874 -2.12132 2.12132 
C -1.55874 2.683901 -0.795609 3 0 3 
z
" style="stroke: #585858"/>
    </defs>
    <g clip-path="url(#pbc0f9649e3)">
     <use xlink:href="#mde5aebb9b3" x="65.139739" y="113.398892" style="fill-opacity: 0; stroke: #585858"/>
    </g>
   </g>
   <g id="patch_4">
    <path d="M 93.911085 43.61397 
L 110.617028 43.61397 
L 110.617028 32.202952 
L 93.911085 32.202952 
L 93.911085 43.61397 
L 93.911085 43.61397 
z
" clip-path="url(#pbc0f9649e3)" style="fill: none; stroke: #666666; stroke-linejoin: miter"/>
   </g>
   <g id="line2d_14">
    <path d="M 102.264057 43.61397 
L 102.264057 43.61397 
" clip-path="url(#pbc0f9649e3)" style="fill: none; stroke: #585858"/>
   </g>
   <g id="line2d_15">
    <path d="M 102.264057 32.202952 
L 102.264057 25.207983 
" clip-path="url(#pbc0f9649e3)" style="fill: none; stroke: #585858"/>
   </g>
   <g id="line2d_16">
    <path d="M 98.087571 43.61397 
L 106.440543 43.61397 
" clip-path="url(#pbc0f9649e3)" style="fill: none; stroke: #585858; stroke-linecap: square"/>
   </g>
   <g id="line2d_17">
    <path d="M 98.087571 25.207983 
L 106.440543 25.207983 
" clip-path="url(#pbc0f9649e3)" style="fill: none; stroke: #585858; stroke-linecap: square"/>
   </g>
   <g id="line2d_18">
    <g clip-path="url(#pbc0f9649e3)">
     <use xlink:href="#mde5aebb9b3" x="102.264057" y="61.089794" style="fill-opacity: 0; stroke: #585858"/>
    </g>
   </g>
   <g id="patch_5">
    <path d="M 131.035403 35.360374 
L 147.741347 35.360374 
L 147.741347 29.759488 
L 131.035403 29.759488 
L 131.035403 35.360374 
L 131.035403 35.360374 
z
" clip-path="url(#pbc0f9649e3)" style="fill: none; stroke: #666666; stroke-linejoin: miter"/>
   </g>
   <g id="line2d_19">
    <path d="M 139.388375 35.360374 
L 139.388375 35.360374 
" clip-path="url(#pbc0f9649e3)" style="fill: none; stroke: #585858"/>
   </g>
   <g id="line2d_20">
    <path d="M 139.388375 29.759488 
L 139.388375 29.181762 
" clip-path="url(#pbc0f9649e3)" style="fill: none; stroke: #585858"/>
   </g>
   <g id="line2d_21">
    <path d="M 135.211889 35.360374 
L 143.564861 35.360374 
" clip-path="url(#pbc0f9649e3)" style="fill: none; stroke: #585858; stroke-linecap: square"/>
   </g>
   <g id="line2d_22">
    <path d="M 135.211889 29.181762 
L 143.564861 29.181762 
" clip-path="url(#pbc0f9649e3)" style="fill: none; stroke: #585858; stroke-linecap: square"/>
   </g>
   <g id="line2d_23">
    <g clip-path="url(#pbc0f9649e3)">
     <use xlink:href="#mde5aebb9b3" x="139.388375" y="48.344365" style="fill-opacity: 0; stroke: #585858"/>
    </g>
   </g>
   <g id="patch_6">
    <path d="M 168.159722 60.130184 
L 184.865665 60.130184 
L 184.865665 56.937819 
L 168.159722 56.937819 
L 168.159722 60.130184 
L 168.159722 60.130184 
z
" clip-path="url(#pbc0f9649e3)" style="fill: none; stroke: #666666; stroke-linejoin: miter"/>
   </g>
   <g id="line2d_24">
    <path d="M 176.512693 60.130184 
L 176.512693 60.130184 
" clip-path="url(#pbc0f9649e3)" style="fill: none; stroke: #585858"/>
   </g>
   <g id="line2d_25">
    <path d="M 176.512693 56.937819 
L 176.512693 55.890164 
" clip-path="url(#pbc0f9649e3)" style="fill: none; stroke: #585858"/>
   </g>
   <g id="line2d_26">
    <path d="M 172.336207 60.130184 
L 180.689179 60.130184 
" clip-path="url(#pbc0f9649e3)" style="fill: none; stroke: #585858; stroke-linecap: square"/>
   </g>
   <g id="line2d_27">
    <path d="M 172.336207 55.890164 
L 180.689179 55.890164 
" clip-path="url(#pbc0f9649e3)" style="fill: none; stroke: #585858; stroke-linecap: square"/>
   </g>
   <g id="line2d_28">
    <g clip-path="url(#pbc0f9649e3)">
     <use xlink:href="#mde5aebb9b3" x="176.512693" y="70.71996" style="fill-opacity: 0; stroke: #585858"/>
    </g>
   </g>
   <g id="line2d_29">
    <path d="M 56.786767 33.581173 
L 73.49271 33.581173 
" clip-path="url(#pbc0f9649e3)" style="fill: none; stroke: #585858"/>
   </g>
   <g id="line2d_30">
    <path d="M 93.911085 33.039535 
L 110.617028 33.039535 
" clip-path="url(#pbc0f9649e3)" style="fill: none; stroke: #585858"/>
   </g>
   <g id="line2d_31">
    <path d="M 131.035403 31.027197 
L 147.741347 31.027197 
" clip-path="url(#pbc0f9649e3)" style="fill: none; stroke: #585858"/>
   </g>
   <g id="line2d_32">
    <path d="M 168.159722 57.535477 
L 184.865665 57.535477 
" clip-path="url(#pbc0f9649e3)" style="fill: none; stroke: #585858"/>
   </g>
   <g id="patch_7">
    <path d="M 46.57758 117.808437 
L 46.57758 20.798437 
" style="fill: none; stroke: #000000; stroke-width: 0.8; stroke-linejoin: miter; stroke-linecap: square"/>
   </g>
   <g id="patch_8">
    <path d="M 46.57758 117.808437 
L 195.074852 117.808437 
" style="fill: none; stroke: #000000; stroke-width: 0.8; stroke-linejoin: miter; stroke-linecap: square"/>
   </g>
   <g id="PathCollection_1">
    <defs>
     <path id="C0_0_c102010487" d="M 0 3.75 
C 0.994512 3.75 1.948425 3.354876 2.65165 2.65165 
C 3.354876 1.948425 3.75 0.994512 3.75 -0 
C 3.75 -0.994512 3.354876 -1.948425 2.65165 -2.65165 
C 1.948425 -3.354876 0.994512 -3.75 0 -3.75 
C -0.994512 -3.75 -1.948425 -3.354876 -2.65165 -2.65165 
C -3.354876 -1.948425 -3.75 -0.994512 -3.75 0 
C -3.75 0.994512 -3.354876 1.948425 -2.65165 2.65165 
C -1.948425 3.354876 -0.994512 3.75 0 3.75 
z
"/>
    </defs>
    <g clip-path="url(#pbc0f9649e3)">
     <use xlink:href="#C0_0_c102010487" x="61.647353" y="31.171443" style="fill: #9bbb59; fill-opacity: 0.8"/>
    </g>
    <g clip-path="url(#pbc0f9649e3)">
     <use xlink:href="#C0_0_c102010487" x="66.376026" y="33.581173" style="fill: #8064a2; fill-opacity: 0.8"/>
    </g>
    <g clip-path="url(#pbc0f9649e3)">
     <use xlink:href="#C0_0_c102010487" x="68.036813" y="32.542915" style="fill: #f9be00; fill-opacity: 0.8"/>
    </g>
    <g clip-path="url(#pbc0f9649e3)">
     <use xlink:href="#C0_0_c102010487" x="67.591545" y="44.670117" style="fill: #ae682f; fill-opacity: 0.8"/>
    </g>
    <g clip-path="url(#pbc0f9649e3)">
     <use xlink:href="#C0_0_c102010487" x="68.226104" y="113.398892" style="fill: #f79646; fill-opacity: 0.8"/>
    </g>
   </g>
   <g id="PathCollection_2">
    <defs>
     <path id="C1_0_15bc0f1a99" d="M 0 3.75 
C 0.994512 3.75 1.948425 3.354876 2.65165 2.65165 
C 3.354876 1.948425 3.75 0.994512 3.75 -0 
C 3.75 -0.994512 3.354876 -1.948425 2.65165 -2.65165 
C 1.948425 -3.354876 0.994512 -3.75 0 -3.75 
C -0.994512 -3.75 -1.948425 -3.354876 -2.65165 -2.65165 
C -3.354876 -1.948425 -3.75 -0.994512 -3.75 0 
C -3.75 0.994512 -3.354876 1.948425 -2.65165 2.65165 
C -1.948425 3.354876 -0.994512 3.75 0 3.75 
z
"/>
    </defs>
    <g clip-path="url(#pbc0f9649e3)">
     <use xlink:href="#C1_0_15bc0f1a99" x="101.717617" y="33.039535" style="fill: #9bbb59; fill-opacity: 0.8"/>
    </g>
    <g clip-path="url(#pbc0f9649e3)">
     <use xlink:href="#C1_0_15bc0f1a99" x="102.895157" y="43.61397" style="fill: #8064a2; fill-opacity: 0.8"/>
    </g>
    <g clip-path="url(#pbc0f9649e3)">
     <use xlink:href="#C1_0_15bc0f1a99" x="103.415393" y="32.202952" style="fill: #f9be00; fill-opacity: 0.8"/>
    </g>
    <g clip-path="url(#pbc0f9649e3)">
     <use xlink:href="#C1_0_15bc0f1a99" x="101.025672" y="25.207983" style="fill: #ae682f; fill-opacity: 0.8"/>
    </g>
    <g clip-path="url(#pbc0f9649e3)">
     <use xlink:href="#C1_0_15bc0f1a99" x="104.132058" y="61.089794" style="fill: #f79646; fill-opacity: 0.8"/>
    </g>
   </g>
   <g id="PathCollection_3">
    <defs>
     <path id="C2_0_98bb02acec" d="M 0 3.75 
C 0.994512 3.75 1.948425 3.354876 2.65165 2.65165 
C 3.354876 1.948425 3.75 0.994512 3.75 -0 
C 3.75 -0.994512 3.354876 -1.948425 2.65165 -2.65165 
C 1.948425 -3.354876 0.994512 -3.75 0 -3.75 
C -0.994512 -3.75 -1.948425 -3.354876 -2.65165 -2.65165 
C -3.354876 -1.948425 -3.75 -0.994512 -3.75 0 
C -3.75 0.994512 -3.354876 1.948425 -2.65165 2.65165 
C -1.948425 3.354876 -0.994512 3.75 0 3.75 
z
"/>
    </defs>
    <g clip-path="url(#pbc0f9649e3)">
     <use xlink:href="#C2_0_98bb02acec" x="137.111628" y="29.181762" style="fill: #9bbb59; fill-opacity: 0.8"/>
    </g>
    <g clip-path="url(#pbc0f9649e3)">
     <use xlink:href="#C2_0_98bb02acec" x="143.083906" y="29.759488" style="fill: #8064a2; fill-opacity: 0.8"/>
    </g>
    <g clip-path="url(#pbc0f9649e3)">
     <use xlink:href="#C2_0_98bb02acec" x="137.863484" y="31.027197" style="fill: #f9be00; fill-opacity: 0.8"/>
    </g>
    <g clip-path="url(#pbc0f9649e3)">
     <use xlink:href="#C2_0_98bb02acec" x="137.347019" y="35.360374" style="fill: #ae682f; fill-opacity: 0.8"/>
    </g>
    <g clip-path="url(#pbc0f9649e3)">
     <use xlink:href="#C2_0_98bb02acec" x="137.783687" y="48.344365" style="fill: #f79646; fill-opacity: 0.8"/>
    </g>
   </g>
   <g id="PathCollection_4">
    <defs>
     <path id="C3_0_b543276955" d="M 0 3.75 
C 0.994512 3.75 1.948425 3.354876 2.65165 2.65165 
C 3.354876 1.948425 3.75 0.994512 3.75 -0 
C 3.75 -0.994512 3.354876 -1.948425 2.65165 -2.65165 
C 1.948425 -3.354876 0.994512 -3.75 0 -3.75 
C -0.994512 -3.75 -1.948425 -3.354876 -2.65165 -2.65165 
C -3.354876 -1.948425 -3.75 -0.994512 -3.75 0 
C -3.75 0.994512 -3.354876 1.948425 -2.65165 2.65165 
C -1.948425 3.354876 -0.994512 3.75 0 3.75 
z
"/>
    </defs>
    <g clip-path="url(#pbc0f9649e3)">
     <use xlink:href="#C3_0_b543276955" x="176.385159" y="55.890164" style="fill: #9bbb59; fill-opacity: 0.8"/>
    </g>
    <g clip-path="url(#pbc0f9649e3)">
     <use xlink:href="#C3_0_b543276955" x="174.206652" y="56.937819" style="fill: #8064a2; fill-opacity: 0.8"/>
    </g>
    <g clip-path="url(#pbc0f9649e3)">
     <use xlink:href="#C3_0_b543276955" x="180.154758" y="57.535477" style="fill: #f9be00; fill-opacity: 0.8"/>
    </g>
    <g clip-path="url(#pbc0f9649e3)">
     <use xlink:href="#C3_0_b543276955" x="174.013722" y="60.130184" style="fill: #ae682f; fill-opacity: 0.8"/>
    </g>
    <g clip-path="url(#pbc0f9649e3)">
     <use xlink:href="#C3_0_b543276955" x="173.63551" y="70.71996" style="fill: #f79646; fill-opacity: 0.8"/>
    </g>
   </g>
   <g id="line2d_33"/>
   <g id="line2d_34"/>
   <g id="line2d_35"/>
   <g id="line2d_36"/>
   <g id="line2d_37"/>
   <g id="line2d_38"/>
   <g id="text_5">
    <!-- 3-site landscapes -->
    <g transform="translate(77.151997 14.798437) scale(0.1 -0.1)">
     <defs>
      <path id="DejaVuSans-33" d="M 2597 2516 
Q 3050 2419 3304 2112 
Q 3559 1806 3559 1356 
Q 3559 666 3084 287 
Q 2609 -91 1734 -91 
Q 1441 -91 1130 -33 
Q 819 25 488 141 
L 488 750 
Q 750 597 1062 519 
Q 1375 441 1716 441 
Q 2309 441 2620 675 
Q 2931 909 2931 1356 
Q 2931 1769 2642 2001 
Q 2353 2234 1838 2234 
L 1294 2234 
L 1294 2753 
L 1863 2753 
Q 2328 2753 2575 2939 
Q 2822 3125 2822 3475 
Q 2822 3834 2567 4026 
Q 2313 4219 1838 4219 
Q 1578 4219 1281 4162 
Q 984 4106 628 3988 
L 628 4550 
Q 988 4650 1302 4700 
Q 1616 4750 1894 4750 
Q 2613 4750 3031 4423 
Q 3450 4097 3450 3541 
Q 3450 3153 3228 2886 
Q 3006 2619 2597 2516 
z
" transform="scale(0.015625)"/>
      <path id="DejaVuSans-2d" d="M 313 2009 
L 1997 2009 
L 1997 1497 
L 313 1497 
L 313 2009 
z
" transform="scale(0.015625)"/>
      <path id="DejaVuSans-73" d="M 2834 3397 
L 2834 2853 
Q 2591 2978 2328 3040 
Q 2066 3103 1784 3103 
Q 1356 3103 1142 2972 
Q 928 2841 928 2578 
Q 928 2378 1081 2264 
Q 1234 2150 1697 2047 
L 1894 2003 
Q 2506 1872 2764 1633 
Q 3022 1394 3022 966 
Q 3022 478 2636 193 
Q 2250 -91 1575 -91 
Q 1294 -91 989 -36 
Q 684 19 347 128 
L 347 722 
Q 666 556 975 473 
Q 1284 391 1588 391 
Q 1994 391 2212 530 
Q 2431 669 2431 922 
Q 2431 1156 2273 1281 
Q 2116 1406 1581 1522 
L 1381 1569 
Q 847 1681 609 1914 
Q 372 2147 372 2553 
Q 372 3047 722 3315 
Q 1072 3584 1716 3584 
Q 2034 3584 2315 3537 
Q 2597 3491 2834 3397 
z
" transform="scale(0.015625)"/>
      <path id="DejaVuSans-69" d="M 603 3500 
L 1178 3500 
L 1178 0 
L 603 0 
L 603 3500 
z
M 603 4863 
L 1178 4863 
L 1178 4134 
L 603 4134 
L 603 4863 
z
" transform="scale(0.015625)"/>
      <path id="DejaVuSans-74" d="M 1172 4494 
L 1172 3500 
L 2356 3500 
L 2356 3053 
L 1172 3053 
L 1172 1153 
Q 1172 725 1289 603 
Q 1406 481 1766 481 
L 2356 481 
L 2356 0 
L 1766 0 
Q 1100 0 847 248 
Q 594 497 594 1153 
L 594 3053 
L 172 3053 
L 172 3500 
L 594 3500 
L 594 4494 
L 1172 4494 
z
" transform="scale(0.015625)"/>
      <path id="DejaVuSans-65" d="M 3597 1894 
L 3597 1613 
L 953 1613 
Q 991 1019 1311 708 
Q 1631 397 2203 397 
Q 2534 397 2845 478 
Q 3156 559 3463 722 
L 3463 178 
Q 3153 47 2828 -22 
Q 2503 -91 2169 -91 
Q 1331 -91 842 396 
Q 353 884 353 1716 
Q 353 2575 817 3079 
Q 1281 3584 2069 3584 
Q 2775 3584 3186 3129 
Q 3597 2675 3597 1894 
z
M 3022 2063 
Q 3016 2534 2758 2815 
Q 2500 3097 2075 3097 
Q 1594 3097 1305 2825 
Q 1016 2553 972 2059 
L 3022 2063 
z
" transform="scale(0.015625)"/>
      <path id="DejaVuSans-20" transform="scale(0.015625)"/>
      <path id="DejaVuSans-6c" d="M 603 4863 
L 1178 4863 
L 1178 0 
L 603 0 
L 603 4863 
z
" transform="scale(0.015625)"/>
      <path id="DejaVuSans-61" d="M 2194 1759 
Q 1497 1759 1228 1600 
Q 959 1441 959 1056 
Q 959 750 1161 570 
Q 1363 391 1709 391 
Q 2188 391 2477 730 
Q 2766 1069 2766 1631 
L 2766 1759 
L 2194 1759 
z
M 3341 1997 
L 3341 0 
L 2766 0 
L 2766 531 
Q 2569 213 2275 61 
Q 1981 -91 1556 -91 
Q 1019 -91 701 211 
Q 384 513 384 1019 
Q 384 1609 779 1909 
Q 1175 2209 1959 2209 
L 2766 2209 
L 2766 2266 
Q 2766 2663 2505 2880 
Q 2244 3097 1772 3097 
Q 1472 3097 1187 3025 
Q 903 2953 641 2809 
L 641 3341 
Q 956 3463 1253 3523 
Q 1550 3584 1831 3584 
Q 2591 3584 2966 3190 
Q 3341 2797 3341 1997 
z
" transform="scale(0.015625)"/>
      <path id="DejaVuSans-6e" d="M 3513 2113 
L 3513 0 
L 2938 0 
L 2938 2094 
Q 2938 2591 2744 2837 
Q 2550 3084 2163 3084 
Q 1697 3084 1428 2787 
Q 1159 2491 1159 1978 
L 1159 0 
L 581 0 
L 581 3500 
L 1159 3500 
L 1159 2956 
Q 1366 3272 1645 3428 
Q 1925 3584 2291 3584 
Q 2894 3584 3203 3211 
Q 3513 2838 3513 2113 
z
" transform="scale(0.015625)"/>
      <path id="DejaVuSans-64" d="M 2906 2969 
L 2906 4863 
L 3481 4863 
L 3481 0 
L 2906 0 
L 2906 525 
Q 2725 213 2448 61 
Q 2172 -91 1784 -91 
Q 1150 -91 751 415 
Q 353 922 353 1747 
Q 353 2572 751 3078 
Q 1150 3584 1784 3584 
Q 2172 3584 2448 3432 
Q 2725 3281 2906 2969 
z
M 947 1747 
Q 947 1113 1208 752 
Q 1469 391 1925 391 
Q 2381 391 2643 752 
Q 2906 1113 2906 1747 
Q 2906 2381 2643 2742 
Q 2381 3103 1925 3103 
Q 1469 3103 1208 2742 
Q 947 2381 947 1747 
z
" transform="scale(0.015625)"/>
      <path id="DejaVuSans-63" d="M 3122 3366 
L 3122 2828 
Q 2878 2963 2633 3030 
Q 2388 3097 2138 3097 
Q 1578 3097 1268 2742 
Q 959 2388 959 1747 
Q 959 1106 1268 751 
Q 1578 397 2138 397 
Q 2388 397 2633 464 
Q 2878 531 3122 666 
L 3122 134 
Q 2881 22 2623 -34 
Q 2366 -91 2075 -91 
Q 1284 -91 818 406 
Q 353 903 353 1747 
Q 353 2603 823 3093 
Q 1294 3584 2113 3584 
Q 2378 3584 2631 3529 
Q 2884 3475 3122 3366 
z
" transform="scale(0.015625)"/>
      <path id="DejaVuSans-70" d="M 1159 525 
L 1159 -1331 
L 581 -1331 
L 581 3500 
L 1159 3500 
L 1159 2969 
Q 1341 3281 1617 3432 
Q 1894 3584 2278 3584 
Q 2916 3584 3314 3078 
Q 3713 2572 3713 1747 
Q 3713 922 3314 415 
Q 2916 -91 2278 -91 
Q 1894 -91 1617 61 
Q 1341 213 1159 525 
z
M 3116 1747 
Q 3116 2381 2855 2742 
Q 2594 3103 2138 3103 
Q 1681 3103 1420 2742 
Q 1159 2381 1159 1747 
Q 1159 1113 1420 752 
Q 1681 391 2138 391 
Q 2594 391 2855 752 
Q 3116 1113 3116 1747 
z
" transform="scale(0.015625)"/>
     </defs>
     <use xlink:href="#DejaVuSans-33"/>
     <use xlink:href="#DejaVuSans-2d" x="63.623047"/>
     <use xlink:href="#DejaVuSans-73" x="99.707031"/>
     <use xlink:href="#DejaVuSans-69" x="151.806641"/>
     <use xlink:href="#DejaVuSans-74" x="179.589844"/>
     <use xlink:href="#DejaVuSans-65" x="218.798828"/>
     <use xlink:href="#DejaVuSans-20" x="280.322266"/>
     <use xlink:href="#DejaVuSans-6c" x="312.109375"/>
     <use xlink:href="#DejaVuSans-61" x="339.892578"/>
     <use xlink:href="#DejaVuSans-6e" x="401.171875"/>
     <use xlink:href="#DejaVuSans-64" x="464.550781"/>
     <use xlink:href="#DejaVuSans-73" x="528.027344"/>
     <use xlink:href="#DejaVuSans-63" x="580.126953"/>
     <use xlink:href="#DejaVuSans-61" x="635.107422"/>
     <use xlink:href="#DejaVuSans-70" x="696.386719"/>
     <use xlink:href="#DejaVuSans-65" x="759.863281"/>
     <use xlink:href="#DejaVuSans-73" x="821.386719"/>
    </g>
   </g>
  </g>
  <g id="axes_2">
   <g id="patch_9">
    <path d="M 266.678489 117.808437 
L 415.175761 117.808437 
L 415.175761 20.798437 
L 266.678489 20.798437 
z
" style="fill: #ffffff"/>
   </g>
   <g id="matplotlib.axis_3">
    <g id="xtick_5">
     <g id="line2d_39">
      <g>
       <use xlink:href="#md5b14e3ff9" x="285.240648" y="117.808437" style="stroke: #000000; stroke-width: 0.8"/>
      </g>
     </g>
    </g>
    <g id="xtick_6">
     <g id="line2d_40">
      <g>
       <use xlink:href="#md5b14e3ff9" x="322.364966" y="117.808437" style="stroke: #000000; stroke-width: 0.8"/>
      </g>
     </g>
    </g>
    <g id="xtick_7">
     <g id="line2d_41">
      <g>
       <use xlink:href="#md5b14e3ff9" x="359.489284" y="117.808437" style="stroke: #000000; stroke-width: 0.8"/>
      </g>
     </g>
    </g>
    <g id="xtick_8">
     <g id="line2d_42">
      <g>
       <use xlink:href="#md5b14e3ff9" x="396.613602" y="117.808437" style="stroke: #000000; stroke-width: 0.8"/>
      </g>
     </g>
    </g>
   </g>
   <g id="matplotlib.axis_4">
    <g id="ytick_5">
     <g id="line2d_43">
      <g>
       <use xlink:href="#mb2f05b5673" x="266.678489" y="112.194464" style="stroke: #000000; stroke-width: 0.8"/>
      </g>
     </g>
     <g id="text_6">
      <!-- 0.60 -->
      <g transform="translate(237.412864 115.993683) scale(0.1 -0.1)">
       <use xlink:href="#DejaVuSans-30"/>
       <use xlink:href="#DejaVuSans-2e" x="63.623047"/>
       <use xlink:href="#DejaVuSans-36" x="95.410156"/>
       <use xlink:href="#DejaVuSans-30" x="159.033203"/>
      </g>
     </g>
    </g>
    <g id="ytick_6">
     <g id="line2d_44">
      <g>
       <use xlink:href="#mb2f05b5673" x="266.678489" y="82.083759" style="stroke: #000000; stroke-width: 0.8"/>
      </g>
     </g>
     <g id="text_7">
      <!-- 0.70 -->
      <g transform="translate(237.412864 85.882978) scale(0.1 -0.1)">
       <defs>
        <path id="DejaVuSans-37" d="M 525 4666 
L 3525 4666 
L 3525 4397 
L 1831 0 
L 1172 0 
L 2766 4134 
L 525 4134 
L 525 4666 
z
" transform="scale(0.015625)"/>
       </defs>
       <use xlink:href="#DejaVuSans-30"/>
       <use xlink:href="#DejaVuSans-2e" x="63.623047"/>
       <use xlink:href="#DejaVuSans-37" x="95.410156"/>
       <use xlink:href="#DejaVuSans-30" x="159.033203"/>
      </g>
     </g>
    </g>
    <g id="ytick_7">
     <g id="line2d_45">
      <g>
       <use xlink:href="#mb2f05b5673" x="266.678489" y="51.973054" style="stroke: #000000; stroke-width: 0.8"/>
      </g>
     </g>
     <g id="text_8">
      <!-- 0.80 -->
      <g transform="translate(237.412864 55.772273) scale(0.1 -0.1)">
       <defs>
        <path id="DejaVuSans-38" d="M 2034 2216 
Q 1584 2216 1326 1975 
Q 1069 1734 1069 1313 
Q 1069 891 1326 650 
Q 1584 409 2034 409 
Q 2484 409 2743 651 
Q 3003 894 3003 1313 
Q 3003 1734 2745 1975 
Q 2488 2216 2034 2216 
z
M 1403 2484 
Q 997 2584 770 2862 
Q 544 3141 544 3541 
Q 544 4100 942 4425 
Q 1341 4750 2034 4750 
Q 2731 4750 3128 4425 
Q 3525 4100 3525 3541 
Q 3525 3141 3298 2862 
Q 3072 2584 2669 2484 
Q 3125 2378 3379 2068 
Q 3634 1759 3634 1313 
Q 3634 634 3220 271 
Q 2806 -91 2034 -91 
Q 1263 -91 848 271 
Q 434 634 434 1313 
Q 434 1759 690 2068 
Q 947 2378 1403 2484 
z
M 1172 3481 
Q 1172 3119 1398 2916 
Q 1625 2713 2034 2713 
Q 2441 2713 2670 2916 
Q 2900 3119 2900 3481 
Q 2900 3844 2670 4047 
Q 2441 4250 2034 4250 
Q 1625 4250 1398 4047 
Q 1172 3844 1172 3481 
z
" transform="scale(0.015625)"/>
       </defs>
       <use xlink:href="#DejaVuSans-30"/>
       <use xlink:href="#DejaVuSans-2e" x="63.623047"/>
       <use xlink:href="#DejaVuSans-38" x="95.410156"/>
       <use xlink:href="#DejaVuSans-30" x="159.033203"/>
      </g>
     </g>
    </g>
    <g id="ytick_8">
     <g id="line2d_46">
      <g>
       <use xlink:href="#mb2f05b5673" x="266.678489" y="21.862349" style="stroke: #000000; stroke-width: 0.8"/>
      </g>
     </g>
     <g id="text_9">
      <!-- 0.90 -->
      <g transform="translate(237.412864 25.661568) scale(0.1 -0.1)">
       <use xlink:href="#DejaVuSans-30"/>
       <use xlink:href="#DejaVuSans-2e" x="63.623047"/>
       <use xlink:href="#DejaVuSans-39" x="95.410156"/>
       <use xlink:href="#DejaVuSans-30" x="159.033203"/>
      </g>
     </g>
    </g>
   </g>
   <g id="patch_10">
    <path d="M 276.887676 60.002575 
L 293.593619 60.002575 
L 293.593619 27.215363 
L 276.887676 27.215363 
L 276.887676 60.002575 
L 276.887676 60.002575 
z
" clip-path="url(#pfb0122e154)" style="fill: none; stroke: #666666; stroke-linejoin: miter"/>
   </g>
   <g id="line2d_47">
    <path d="M 285.240648 60.002575 
L 285.240648 95.466294 
" clip-path="url(#pfb0122e154)" style="fill: none; stroke: #585858"/>
   </g>
   <g id="line2d_48">
    <path d="M 285.240648 27.215363 
L 285.240648 25.207983 
" clip-path="url(#pfb0122e154)" style="fill: none; stroke: #585858"/>
   </g>
   <g id="line2d_49">
    <path d="M 281.064162 95.466294 
L 289.417134 95.466294 
" clip-path="url(#pfb0122e154)" style="fill: none; stroke: #585858; stroke-linecap: square"/>
   </g>
   <g id="line2d_50">
    <path d="M 281.064162 25.207983 
L 289.417134 25.207983 
" clip-path="url(#pfb0122e154)" style="fill: none; stroke: #585858; stroke-linecap: square"/>
   </g>
   <g id="line2d_51"/>
   <g id="patch_11">
    <path d="M 314.011994 69.437263 
L 330.717937 69.437263 
L 330.717937 42.939843 
L 314.011994 42.939843 
L 314.011994 69.437263 
L 314.011994 69.437263 
z
" clip-path="url(#pfb0122e154)" style="fill: none; stroke: #666666; stroke-linejoin: miter"/>
   </g>
   <g id="line2d_52">
    <path d="M 322.364966 69.437263 
L 322.364966 88.708114 
" clip-path="url(#pfb0122e154)" style="fill: none; stroke: #585858"/>
   </g>
   <g id="line2d_53">
    <path d="M 322.364966 42.939843 
L 322.364966 39.326558 
" clip-path="url(#pfb0122e154)" style="fill: none; stroke: #585858"/>
   </g>
   <g id="line2d_54">
    <path d="M 318.18848 88.708114 
L 326.541452 88.708114 
" clip-path="url(#pfb0122e154)" style="fill: none; stroke: #585858; stroke-linecap: square"/>
   </g>
   <g id="line2d_55">
    <path d="M 318.18848 39.326558 
L 326.541452 39.326558 
" clip-path="url(#pfb0122e154)" style="fill: none; stroke: #585858; stroke-linecap: square"/>
   </g>
   <g id="line2d_56"/>
   <g id="patch_12">
    <path d="M 351.136312 64.61955 
L 367.842256 64.61955 
L 367.842256 60.404051 
L 351.136312 60.404051 
L 351.136312 64.61955 
L 351.136312 64.61955 
z
" clip-path="url(#pfb0122e154)" style="fill: none; stroke: #666666; stroke-linejoin: miter"/>
   </g>
   <g id="line2d_57">
    <path d="M 359.489284 64.61955 
L 359.489284 64.61955 
" clip-path="url(#pfb0122e154)" style="fill: none; stroke: #585858"/>
   </g>
   <g id="line2d_58">
    <path d="M 359.489284 60.404051 
L 359.489284 58.597409 
" clip-path="url(#pfb0122e154)" style="fill: none; stroke: #585858"/>
   </g>
   <g id="line2d_59">
    <path d="M 355.312798 64.61955 
L 363.66577 64.61955 
" clip-path="url(#pfb0122e154)" style="fill: none; stroke: #585858; stroke-linecap: square"/>
   </g>
   <g id="line2d_60">
    <path d="M 355.312798 58.597409 
L 363.66577 58.597409 
" clip-path="url(#pfb0122e154)" style="fill: none; stroke: #585858; stroke-linecap: square"/>
   </g>
   <g id="line2d_61">
    <g clip-path="url(#pfb0122e154)">
     <use xlink:href="#mde5aebb9b3" x="359.489284" y="82.083759" style="fill-opacity: 0; stroke: #585858"/>
    </g>
   </g>
   <g id="patch_13">
    <path d="M 388.260631 103.763466 
L 404.966574 103.763466 
L 404.966574 95.934683 
L 388.260631 95.934683 
L 388.260631 103.763466 
L 388.260631 103.763466 
z
" clip-path="url(#pfb0122e154)" style="fill: none; stroke: #666666; stroke-linejoin: miter"/>
   </g>
   <g id="line2d_62">
    <path d="M 396.613602 103.763466 
L 396.613602 113.398892 
" clip-path="url(#pfb0122e154)" style="fill: none; stroke: #585858"/>
   </g>
   <g id="line2d_63">
    <path d="M 396.613602 95.934683 
L 396.613602 88.708114 
" clip-path="url(#pfb0122e154)" style="fill: none; stroke: #585858"/>
   </g>
   <g id="line2d_64">
    <path d="M 392.437116 113.398892 
L 400.790088 113.398892 
" clip-path="url(#pfb0122e154)" style="fill: none; stroke: #585858; stroke-linecap: square"/>
   </g>
   <g id="line2d_65">
    <path d="M 392.437116 88.708114 
L 400.790088 88.708114 
" clip-path="url(#pfb0122e154)" style="fill: none; stroke: #585858; stroke-linecap: square"/>
   </g>
   <g id="line2d_66"/>
   <g id="line2d_67">
    <path d="M 276.887676 42.605279 
L 293.593619 42.605279 
" clip-path="url(#pfb0122e154)" style="fill: none; stroke: #585858"/>
   </g>
   <g id="line2d_68">
    <path d="M 314.011994 48.359769 
L 330.717937 48.359769 
" clip-path="url(#pfb0122e154)" style="fill: none; stroke: #585858"/>
   </g>
   <g id="line2d_69">
    <path d="M 351.136312 60.404051 
L 367.842256 60.404051 
" clip-path="url(#pfb0122e154)" style="fill: none; stroke: #585858"/>
   </g>
   <g id="line2d_70">
    <path d="M 388.260631 97.741325 
L 404.966574 97.741325 
" clip-path="url(#pfb0122e154)" style="fill: none; stroke: #585858"/>
   </g>
   <g id="patch_14">
    <path d="M 266.678489 117.808437 
L 266.678489 20.798437 
" style="fill: none; stroke: #000000; stroke-width: 0.8; stroke-linejoin: miter; stroke-linecap: square"/>
   </g>
   <g id="patch_15">
    <path d="M 266.678489 117.808437 
L 415.175761 117.808437 
" style="fill: none; stroke: #000000; stroke-width: 0.8; stroke-linejoin: miter; stroke-linecap: square"/>
   </g>
   <g id="PathCollection_5">
    <defs>
     <path id="C4_0_6ea893a447" d="M 0 3.75 
C 0.994512 3.75 1.948425 3.354876 2.65165 2.65165 
C 3.354876 1.948425 3.75 0.994512 3.75 -0 
C 3.75 -0.994512 3.354876 -1.948425 2.65165 -2.65165 
C 1.948425 -3.354876 0.994512 -3.75 0 -3.75 
C -0.994512 -3.75 -1.948425 -3.354876 -2.65165 -2.65165 
C -3.354876 -1.948425 -3.75 -0.994512 -3.75 0 
C -3.75 0.994512 -3.354876 1.948425 -2.65165 2.65165 
C -1.948425 3.354876 -0.994512 3.75 0 3.75 
z
"/>
    </defs>
    <g clip-path="url(#pfb0122e154)">
     <use xlink:href="#C4_0_6ea893a447" x="288.114532" y="25.207983" style="fill: #9bbb59; fill-opacity: 0.8"/>
    </g>
    <g clip-path="url(#pfb0122e154)">
     <use xlink:href="#C4_0_6ea893a447" x="284.397534" y="42.605279" style="fill: #8064a2; fill-opacity: 0.8"/>
    </g>
    <g clip-path="url(#pfb0122e154)">
     <use xlink:href="#C4_0_6ea893a447" x="288.787554" y="27.215363" style="fill: #f9be00; fill-opacity: 0.8"/>
    </g>
    <g clip-path="url(#pfb0122e154)">
     <use xlink:href="#C4_0_6ea893a447" x="283.665402" y="60.002575" style="fill: #ae682f; fill-opacity: 0.8"/>
    </g>
    <g clip-path="url(#pfb0122e154)">
     <use xlink:href="#C4_0_6ea893a447" x="285.64704" y="95.466294" style="fill: #f79646; fill-opacity: 0.8"/>
    </g>
   </g>
   <g id="PathCollection_6">
    <defs>
     <path id="C5_0_6903476c0e" d="M 0 3.75 
C 0.994512 3.75 1.948425 3.354876 2.65165 2.65165 
C 3.354876 1.948425 3.75 0.994512 3.75 -0 
C 3.75 -0.994512 3.354876 -1.948425 2.65165 -2.65165 
C 1.948425 -3.354876 0.994512 -3.75 0 -3.75 
C -0.994512 -3.75 -1.948425 -3.354876 -2.65165 -2.65165 
C -3.354876 -1.948425 -3.75 -0.994512 -3.75 0 
C -3.75 0.994512 -3.354876 1.948425 -2.65165 2.65165 
C -1.948425 3.354876 -0.994512 3.75 0 3.75 
z
"/>
    </defs>
    <g clip-path="url(#pfb0122e154)">
     <use xlink:href="#C5_0_6903476c0e" x="319.856488" y="39.326558" style="fill: #9bbb59; fill-opacity: 0.8"/>
    </g>
    <g clip-path="url(#pfb0122e154)">
     <use xlink:href="#C5_0_6903476c0e" x="322.255775" y="69.437263" style="fill: #8064a2; fill-opacity: 0.8"/>
    </g>
    <g clip-path="url(#pfb0122e154)">
     <use xlink:href="#C5_0_6903476c0e" x="325.698321" y="48.359769" style="fill: #f9be00; fill-opacity: 0.8"/>
    </g>
    <g clip-path="url(#pfb0122e154)">
     <use xlink:href="#C5_0_6903476c0e" x="320.749834" y="42.939843" style="fill: #ae682f; fill-opacity: 0.8"/>
    </g>
    <g clip-path="url(#pfb0122e154)">
     <use xlink:href="#C5_0_6903476c0e" x="323.027879" y="88.708114" style="fill: #f79646; fill-opacity: 0.8"/>
    </g>
   </g>
   <g id="PathCollection_7">
    <defs>
     <path id="C6_0_419c8c88fe" d="M 0 3.75 
C 0.994512 3.75 1.948425 3.354876 2.65165 2.65165 
C 3.354876 1.948425 3.75 0.994512 3.75 -0 
C 3.75 -0.994512 3.354876 -1.948425 2.65165 -2.65165 
C 1.948425 -3.354876 0.994512 -3.75 0 -3.75 
C -0.994512 -3.75 -1.948425 -3.354876 -2.65165 -2.65165 
C -3.354876 -1.948425 -3.75 -0.994512 -3.75 0 
C -3.75 0.994512 -3.354876 1.948425 -2.65165 2.65165 
C -1.948425 3.354876 -0.994512 3.75 0 3.75 
z
"/>
    </defs>
    <g clip-path="url(#pfb0122e154)">
     <use xlink:href="#C6_0_419c8c88fe" x="358.917461" y="60.404051" style="fill: #9bbb59; fill-opacity: 0.8"/>
    </g>
    <g clip-path="url(#pfb0122e154)">
     <use xlink:href="#C6_0_419c8c88fe" x="356.452422" y="64.61955" style="fill: #8064a2; fill-opacity: 0.8"/>
    </g>
    <g clip-path="url(#pfb0122e154)">
     <use xlink:href="#C6_0_419c8c88fe" x="362.778978" y="60.404051" style="fill: #f9be00; fill-opacity: 0.8"/>
    </g>
    <g clip-path="url(#pfb0122e154)">
     <use xlink:href="#C6_0_419c8c88fe" x="362.845827" y="58.597409" style="fill: #ae682f; fill-opacity: 0.8"/>
    </g>
    <g clip-path="url(#pfb0122e154)">
     <use xlink:href="#C6_0_419c8c88fe" x="362.02417" y="82.083759" style="fill: #f79646; fill-opacity: 0.8"/>
    </g>
   </g>
   <g id="PathCollection_8">
    <defs>
     <path id="C7_0_bcbad1ff1a" d="M 0 3.75 
C 0.994512 3.75 1.948425 3.354876 2.65165 2.65165 
C 3.354876 1.948425 3.75 0.994512 3.75 -0 
C 3.75 -0.994512 3.354876 -1.948425 2.65165 -2.65165 
C 1.948425 -3.354876 0.994512 -3.75 0 -3.75 
C -0.994512 -3.75 -1.948425 -3.354876 -2.65165 -2.65165 
C -3.354876 -1.948425 -3.75 -0.994512 -3.75 0 
C -3.75 0.994512 -3.354876 1.948425 -2.65165 2.65165 
C -1.948425 3.354876 -0.994512 3.75 0 3.75 
z
"/>
    </defs>
    <g clip-path="url(#pfb0122e154)">
     <use xlink:href="#C7_0_bcbad1ff1a" x="393.84355" y="88.708114" style="fill: #9bbb59; fill-opacity: 0.8"/>
    </g>
    <g clip-path="url(#pfb0122e154)">
     <use xlink:href="#C7_0_bcbad1ff1a" x="393.610596" y="95.934683" style="fill: #8064a2; fill-opacity: 0.8"/>
    </g>
    <g clip-path="url(#pfb0122e154)">
     <use xlink:href="#C7_0_bcbad1ff1a" x="397.873023" y="97.741325" style="fill: #f9be00; fill-opacity: 0.8"/>
    </g>
    <g clip-path="url(#pfb0122e154)">
     <use xlink:href="#C7_0_bcbad1ff1a" x="399.276807" y="103.763466" style="fill: #ae682f; fill-opacity: 0.8"/>
    </g>
    <g clip-path="url(#pfb0122e154)">
     <use xlink:href="#C7_0_bcbad1ff1a" x="393.054428" y="113.398892" style="fill: #f79646; fill-opacity: 0.8"/>
    </g>
   </g>
   <g id="line2d_71"/>
   <g id="line2d_72"/>
   <g id="line2d_73"/>
   <g id="line2d_74"/>
   <g id="line2d_75"/>
   <g id="line2d_76"/>
   <g id="text_10">
    <!-- 3-site landscapes -->
    <g transform="translate(297.252906 14.798437) scale(0.1 -0.1)">
     <use xlink:href="#DejaVuSans-33"/>
     <use xlink:href="#DejaVuSans-2d" x="63.623047"/>
     <use xlink:href="#DejaVuSans-73" x="99.707031"/>
     <use xlink:href="#DejaVuSans-69" x="151.806641"/>
     <use xlink:href="#DejaVuSans-74" x="179.589844"/>
     <use xlink:href="#DejaVuSans-65" x="218.798828"/>
     <use xlink:href="#DejaVuSans-20" x="280.322266"/>
     <use xlink:href="#DejaVuSans-6c" x="312.109375"/>
     <use xlink:href="#DejaVuSans-61" x="339.892578"/>
     <use xlink:href="#DejaVuSans-6e" x="401.171875"/>
     <use xlink:href="#DejaVuSans-64" x="464.550781"/>
     <use xlink:href="#DejaVuSans-73" x="528.027344"/>
     <use xlink:href="#DejaVuSans-63" x="580.126953"/>
     <use xlink:href="#DejaVuSans-61" x="635.107422"/>
     <use xlink:href="#DejaVuSans-70" x="696.386719"/>
     <use xlink:href="#DejaVuSans-65" x="759.863281"/>
     <use xlink:href="#DejaVuSans-73" x="821.386719"/>
    </g>
   </g>
   <g id="legend_1">
    <g id="patch_16">
     <path d="M 422.175761 116.867187 
L 548.321074 116.867187 
Q 550.321074 116.867187 550.321074 114.867187 
L 550.321074 27.798437 
Q 550.321074 25.798437 548.321074 25.798437 
L 422.175761 25.798437 
Q 420.175761 25.798437 420.175761 27.798437 
L 420.175761 114.867187 
Q 420.175761 116.867187 422.175761 116.867187 
z
" style="fill: #ffffff; opacity: 0.8; stroke: #cccccc; stroke-linejoin: miter"/>
    </g>
    <g id="line2d_77">
     <path d="M 424.175761 33.896875 
L 434.175761 33.896875 
L 444.175761 33.896875 
" style="fill: none; stroke: #ffffff; stroke-width: 1.5; stroke-linecap: square"/>
     <defs>
      <path id="ma844b2c202" d="M 0 3 
C 0.795609 3 1.55874 2.683901 2.12132 2.12132 
C 2.683901 1.55874 3 0.795609 3 0 
C 3 -0.795609 2.683901 -1.55874 2.12132 -2.12132 
C 1.55874 -2.683901 0.795609 -3 0 -3 
C -0.795609 -3 -1.55874 -2.683901 -2.12132 -2.12132 
C -2.683901 -1.55874 -3 -0.795609 -3 0 
C -3 0.795609 -2.683901 1.55874 -2.12132 2.12132 
C -1.55874 2.683901 -0.795609 3 0 3 
z
" style="stroke: #ffffff"/>
     </defs>
     <g>
      <use xlink:href="#ma844b2c202" x="434.175761" y="33.896875" style="fill: #4bacc6; stroke: #ffffff"/>
     </g>
    </g>
    <g id="text_11">
     <!-- Hamming distance -->
     <g transform="translate(452.175761 37.396875) scale(0.1 -0.1)">
      <defs>
       <path id="DejaVuSans-48" d="M 628 4666 
L 1259 4666 
L 1259 2753 
L 3553 2753 
L 3553 4666 
L 4184 4666 
L 4184 0 
L 3553 0 
L 3553 2222 
L 1259 2222 
L 1259 0 
L 628 0 
L 628 4666 
z
" transform="scale(0.015625)"/>
       <path id="DejaVuSans-6d" d="M 3328 2828 
Q 3544 3216 3844 3400 
Q 4144 3584 4550 3584 
Q 5097 3584 5394 3201 
Q 5691 2819 5691 2113 
L 5691 0 
L 5113 0 
L 5113 2094 
Q 5113 2597 4934 2840 
Q 4756 3084 4391 3084 
Q 3944 3084 3684 2787 
Q 3425 2491 3425 1978 
L 3425 0 
L 2847 0 
L 2847 2094 
Q 2847 2600 2669 2842 
Q 2491 3084 2119 3084 
Q 1678 3084 1418 2786 
Q 1159 2488 1159 1978 
L 1159 0 
L 581 0 
L 581 3500 
L 1159 3500 
L 1159 2956 
Q 1356 3278 1631 3431 
Q 1906 3584 2284 3584 
Q 2666 3584 2933 3390 
Q 3200 3197 3328 2828 
z
" transform="scale(0.015625)"/>
       <path id="DejaVuSans-67" d="M 2906 1791 
Q 2906 2416 2648 2759 
Q 2391 3103 1925 3103 
Q 1463 3103 1205 2759 
Q 947 2416 947 1791 
Q 947 1169 1205 825 
Q 1463 481 1925 481 
Q 2391 481 2648 825 
Q 2906 1169 2906 1791 
z
M 3481 434 
Q 3481 -459 3084 -895 
Q 2688 -1331 1869 -1331 
Q 1566 -1331 1297 -1286 
Q 1028 -1241 775 -1147 
L 775 -588 
Q 1028 -725 1275 -790 
Q 1522 -856 1778 -856 
Q 2344 -856 2625 -561 
Q 2906 -266 2906 331 
L 2906 616 
Q 2728 306 2450 153 
Q 2172 0 1784 0 
Q 1141 0 747 490 
Q 353 981 353 1791 
Q 353 2603 747 3093 
Q 1141 3584 1784 3584 
Q 2172 3584 2450 3431 
Q 2728 3278 2906 2969 
L 2906 3500 
L 3481 3500 
L 3481 434 
z
" transform="scale(0.015625)"/>
      </defs>
      <use xlink:href="#DejaVuSans-48"/>
      <use xlink:href="#DejaVuSans-61" x="75.195312"/>
      <use xlink:href="#DejaVuSans-6d" x="136.474609"/>
      <use xlink:href="#DejaVuSans-6d" x="233.886719"/>
      <use xlink:href="#DejaVuSans-69" x="331.298828"/>
      <use xlink:href="#DejaVuSans-6e" x="359.082031"/>
      <use xlink:href="#DejaVuSans-67" x="422.460938"/>
      <use xlink:href="#DejaVuSans-20" x="485.9375"/>
      <use xlink:href="#DejaVuSans-64" x="517.724609"/>
      <use xlink:href="#DejaVuSans-69" x="581.201172"/>
      <use xlink:href="#DejaVuSans-73" x="608.984375"/>
      <use xlink:href="#DejaVuSans-74" x="661.083984"/>
      <use xlink:href="#DejaVuSans-61" x="700.292969"/>
      <use xlink:href="#DejaVuSans-6e" x="761.572266"/>
      <use xlink:href="#DejaVuSans-63" x="824.951172"/>
      <use xlink:href="#DejaVuSans-65" x="879.931641"/>
     </g>
    </g>
    <g id="line2d_78">
     <path d="M 424.175761 48.575 
L 434.175761 48.575 
L 444.175761 48.575 
" style="fill: none; stroke: #ffffff; stroke-width: 1.5; stroke-linecap: square"/>
     <defs>
      <path id="m21f84c5127" d="M 0 3 
C 0.795609 3 1.55874 2.683901 2.12132 2.12132 
C 2.683901 1.55874 3 0.795609 3 0 
C 3 -0.795609 2.683901 -1.55874 2.12132 -2.12132 
C 1.55874 -2.683901 0.795609 -3 0 -3 
C -0.795609 -3 -1.55874 -2.683901 -2.12132 -2.12132 
C -2.683901 -1.55874 -3 -0.795609 -3 0 
C -3 0.795609 -2.683901 1.55874 -2.12132 2.12132 
C -1.55874 2.683901 -0.795609 3 0 3 
z
" style="stroke: #ffffff"/>
     </defs>
     <g>
      <use xlink:href="#m21f84c5127" x="434.175761" y="48.575" style="fill: #9bbb59; stroke: #ffffff"/>
     </g>
    </g>
    <g id="text_12">
     <!-- EVmutation -->
     <g transform="translate(452.175761 52.075) scale(0.1 -0.1)">
      <defs>
       <path id="DejaVuSans-45" d="M 628 4666 
L 3578 4666 
L 3578 4134 
L 1259 4134 
L 1259 2753 
L 3481 2753 
L 3481 2222 
L 1259 2222 
L 1259 531 
L 3634 531 
L 3634 0 
L 628 0 
L 628 4666 
z
" transform="scale(0.015625)"/>
       <path id="DejaVuSans-56" d="M 1831 0 
L 50 4666 
L 709 4666 
L 2188 738 
L 3669 4666 
L 4325 4666 
L 2547 0 
L 1831 0 
z
" transform="scale(0.015625)"/>
       <path id="DejaVuSans-75" d="M 544 1381 
L 544 3500 
L 1119 3500 
L 1119 1403 
Q 1119 906 1312 657 
Q 1506 409 1894 409 
Q 2359 409 2629 706 
Q 2900 1003 2900 1516 
L 2900 3500 
L 3475 3500 
L 3475 0 
L 2900 0 
L 2900 538 
Q 2691 219 2414 64 
Q 2138 -91 1772 -91 
Q 1169 -91 856 284 
Q 544 659 544 1381 
z
M 1991 3584 
L 1991 3584 
z
" transform="scale(0.015625)"/>
       <path id="DejaVuSans-6f" d="M 1959 3097 
Q 1497 3097 1228 2736 
Q 959 2375 959 1747 
Q 959 1119 1226 758 
Q 1494 397 1959 397 
Q 2419 397 2687 759 
Q 2956 1122 2956 1747 
Q 2956 2369 2687 2733 
Q 2419 3097 1959 3097 
z
M 1959 3584 
Q 2709 3584 3137 3096 
Q 3566 2609 3566 1747 
Q 3566 888 3137 398 
Q 2709 -91 1959 -91 
Q 1206 -91 779 398 
Q 353 888 353 1747 
Q 353 2609 779 3096 
Q 1206 3584 1959 3584 
z
" transform="scale(0.015625)"/>
      </defs>
      <use xlink:href="#DejaVuSans-45"/>
      <use xlink:href="#DejaVuSans-56" x="63.183594"/>
      <use xlink:href="#DejaVuSans-6d" x="131.591797"/>
      <use xlink:href="#DejaVuSans-75" x="229.003906"/>
      <use xlink:href="#DejaVuSans-74" x="292.382812"/>
      <use xlink:href="#DejaVuSans-61" x="331.591797"/>
      <use xlink:href="#DejaVuSans-74" x="392.871094"/>
      <use xlink:href="#DejaVuSans-69" x="432.080078"/>
      <use xlink:href="#DejaVuSans-6f" x="459.863281"/>
      <use xlink:href="#DejaVuSans-6e" x="521.044922"/>
     </g>
    </g>
    <g id="line2d_79">
     <path d="M 424.175761 63.253125 
L 434.175761 63.253125 
L 444.175761 63.253125 
" style="fill: none; stroke: #ffffff; stroke-width: 1.5; stroke-linecap: square"/>
     <defs>
      <path id="m1d891e08ad" d="M 0 3 
C 0.795609 3 1.55874 2.683901 2.12132 2.12132 
C 2.683901 1.55874 3 0.795609 3 0 
C 3 -0.795609 2.683901 -1.55874 2.12132 -2.12132 
C 1.55874 -2.683901 0.795609 -3 0 -3 
C -0.795609 -3 -1.55874 -2.683901 -2.12132 -2.12132 
C -2.683901 -1.55874 -3 -0.795609 -3 0 
C -3 0.795609 -2.683901 1.55874 -2.12132 2.12132 
C -1.55874 2.683901 -0.795609 3 0 3 
z
" style="stroke: #ffffff"/>
     </defs>
     <g>
      <use xlink:href="#m1d891e08ad" x="434.175761" y="63.253125" style="fill: #8064a2; stroke: #ffffff"/>
     </g>
    </g>
    <g id="text_13">
     <!-- ESM -->
     <g transform="translate(452.175761 66.753125) scale(0.1 -0.1)">
      <defs>
       <path id="DejaVuSans-53" d="M 3425 4513 
L 3425 3897 
Q 3066 4069 2747 4153 
Q 2428 4238 2131 4238 
Q 1616 4238 1336 4038 
Q 1056 3838 1056 3469 
Q 1056 3159 1242 3001 
Q 1428 2844 1947 2747 
L 2328 2669 
Q 3034 2534 3370 2195 
Q 3706 1856 3706 1288 
Q 3706 609 3251 259 
Q 2797 -91 1919 -91 
Q 1588 -91 1214 -16 
Q 841 59 441 206 
L 441 856 
Q 825 641 1194 531 
Q 1563 422 1919 422 
Q 2459 422 2753 634 
Q 3047 847 3047 1241 
Q 3047 1584 2836 1778 
Q 2625 1972 2144 2069 
L 1759 2144 
Q 1053 2284 737 2584 
Q 422 2884 422 3419 
Q 422 4038 858 4394 
Q 1294 4750 2059 4750 
Q 2388 4750 2728 4690 
Q 3069 4631 3425 4513 
z
" transform="scale(0.015625)"/>
       <path id="DejaVuSans-4d" d="M 628 4666 
L 1569 4666 
L 2759 1491 
L 3956 4666 
L 4897 4666 
L 4897 0 
L 4281 0 
L 4281 4097 
L 3078 897 
L 2444 897 
L 1241 4097 
L 1241 0 
L 628 0 
L 628 4666 
z
" transform="scale(0.015625)"/>
      </defs>
      <use xlink:href="#DejaVuSans-45"/>
      <use xlink:href="#DejaVuSans-53" x="63.183594"/>
      <use xlink:href="#DejaVuSans-4d" x="126.660156"/>
     </g>
    </g>
    <g id="line2d_80">
     <path d="M 424.175761 77.93125 
L 434.175761 77.93125 
L 444.175761 77.93125 
" style="fill: none; stroke: #ffffff; stroke-width: 1.5; stroke-linecap: square"/>
     <defs>
      <path id="m487af243b4" d="M 0 3 
C 0.795609 3 1.55874 2.683901 2.12132 2.12132 
C 2.683901 1.55874 3 0.795609 3 0 
C 3 -0.795609 2.683901 -1.55874 2.12132 -2.12132 
C 1.55874 -2.683901 0.795609 -3 0 -3 
C -0.795609 -3 -1.55874 -2.683901 -2.12132 -2.12132 
C -2.683901 -1.55874 -3 -0.795609 -3 0 
C -3 0.795609 -2.683901 1.55874 -2.12132 2.12132 
C -1.55874 2.683901 -0.795609 3 0 3 
z
" style="stroke: #ffffff"/>
     </defs>
     <g>
      <use xlink:href="#m487af243b4" x="434.175761" y="77.93125" style="fill: #f9be00; stroke: #ffffff"/>
     </g>
    </g>
    <g id="text_14">
     <!-- ESM-IF -->
     <g transform="translate(452.175761 81.43125) scale(0.1 -0.1)">
      <defs>
       <path id="DejaVuSans-49" d="M 628 4666 
L 1259 4666 
L 1259 0 
L 628 0 
L 628 4666 
z
" transform="scale(0.015625)"/>
       <path id="DejaVuSans-46" d="M 628 4666 
L 3309 4666 
L 3309 4134 
L 1259 4134 
L 1259 2759 
L 3109 2759 
L 3109 2228 
L 1259 2228 
L 1259 0 
L 628 0 
L 628 4666 
z
" transform="scale(0.015625)"/>
      </defs>
      <use xlink:href="#DejaVuSans-45"/>
      <use xlink:href="#DejaVuSans-53" x="63.183594"/>
      <use xlink:href="#DejaVuSans-4d" x="126.660156"/>
      <use xlink:href="#DejaVuSans-2d" x="212.939453"/>
      <use xlink:href="#DejaVuSans-49" x="249.023438"/>
      <use xlink:href="#DejaVuSans-46" x="278.515625"/>
     </g>
    </g>
    <g id="line2d_81">
     <path d="M 424.175761 92.609375 
L 434.175761 92.609375 
L 444.175761 92.609375 
" style="fill: none; stroke: #ffffff; stroke-width: 1.5; stroke-linecap: square"/>
     <defs>
      <path id="m89406660be" d="M 0 3 
C 0.795609 3 1.55874 2.683901 2.12132 2.12132 
C 2.683901 1.55874 3 0.795609 3 0 
C 3 -0.795609 2.683901 -1.55874 2.12132 -2.12132 
C 1.55874 -2.683901 0.795609 -3 0 -3 
C -0.795609 -3 -1.55874 -2.683901 -2.12132 -2.12132 
C -2.683901 -1.55874 -3 -0.795609 -3 0 
C -3 0.795609 -2.683901 1.55874 -2.12132 2.12132 
C -1.55874 2.683901 -0.795609 3 0 3 
z
" style="stroke: #ffffff"/>
     </defs>
     <g>
      <use xlink:href="#m89406660be" x="434.175761" y="92.609375" style="fill: #ae682f; stroke: #ffffff"/>
     </g>
    </g>
    <g id="text_15">
     <!-- CoVES -->
     <g transform="translate(452.175761 96.109375) scale(0.1 -0.1)">
      <defs>
       <path id="DejaVuSans-43" d="M 4122 4306 
L 4122 3641 
Q 3803 3938 3442 4084 
Q 3081 4231 2675 4231 
Q 1875 4231 1450 3742 
Q 1025 3253 1025 2328 
Q 1025 1406 1450 917 
Q 1875 428 2675 428 
Q 3081 428 3442 575 
Q 3803 722 4122 1019 
L 4122 359 
Q 3791 134 3420 21 
Q 3050 -91 2638 -91 
Q 1578 -91 968 557 
Q 359 1206 359 2328 
Q 359 3453 968 4101 
Q 1578 4750 2638 4750 
Q 3056 4750 3426 4639 
Q 3797 4528 4122 4306 
z
" transform="scale(0.015625)"/>
      </defs>
      <use xlink:href="#DejaVuSans-43"/>
      <use xlink:href="#DejaVuSans-6f" x="69.824219"/>
      <use xlink:href="#DejaVuSans-56" x="131.005859"/>
      <use xlink:href="#DejaVuSans-45" x="199.414062"/>
      <use xlink:href="#DejaVuSans-53" x="262.597656"/>
     </g>
    </g>
    <g id="line2d_82">
     <path d="M 424.175761 107.2875 
L 434.175761 107.2875 
L 444.175761 107.2875 
" style="fill: none; stroke: #ffffff; stroke-width: 1.5; stroke-linecap: square"/>
     <defs>
      <path id="md222ad0930" d="M 0 3 
C 0.795609 3 1.55874 2.683901 2.12132 2.12132 
C 2.683901 1.55874 3 0.795609 3 0 
C 3 -0.795609 2.683901 -1.55874 2.12132 -2.12132 
C 1.55874 -2.683901 0.795609 -3 0 -3 
C -0.795609 -3 -1.55874 -2.683901 -2.12132 -2.12132 
C -2.683901 -1.55874 -3 -0.795609 -3 0 
C -3 0.795609 -2.683901 1.55874 -2.12132 2.12132 
C -1.55874 2.683901 -0.795609 3 0 3 
z
" style="stroke: #ffffff"/>
     </defs>
     <g>
      <use xlink:href="#md222ad0930" x="434.175761" y="107.2875" style="fill: #f79646; stroke: #ffffff"/>
     </g>
    </g>
    <g id="text_16">
     <!-- Triad -->
     <g transform="translate(452.175761 110.7875) scale(0.1 -0.1)">
      <defs>
       <path id="DejaVuSans-54" d="M -19 4666 
L 3928 4666 
L 3928 4134 
L 2272 4134 
L 2272 0 
L 1638 0 
L 1638 4134 
L -19 4134 
L -19 4666 
z
" transform="scale(0.015625)"/>
       <path id="DejaVuSans-72" d="M 2631 2963 
Q 2534 3019 2420 3045 
Q 2306 3072 2169 3072 
Q 1681 3072 1420 2755 
Q 1159 2438 1159 1844 
L 1159 0 
L 581 0 
L 581 3500 
L 1159 3500 
L 1159 2956 
Q 1341 3275 1631 3429 
Q 1922 3584 2338 3584 
Q 2397 3584 2469 3576 
Q 2541 3569 2628 3553 
L 2631 2963 
z
" transform="scale(0.015625)"/>
      </defs>
      <use xlink:href="#DejaVuSans-54"/>
      <use xlink:href="#DejaVuSans-72" x="46.333984"/>
      <use xlink:href="#DejaVuSans-69" x="87.447266"/>
      <use xlink:href="#DejaVuSans-61" x="115.230469"/>
      <use xlink:href="#DejaVuSans-64" x="176.509766"/>
     </g>
    </g>
   </g>
  </g>
  <g id="axes_3">
   <g id="patch_17">
    <path d="M 46.57758 243.038437 
L 195.074852 243.038437 
L 195.074852 146.028437 
L 46.57758 146.028437 
z
" style="fill: #ffffff"/>
   </g>
   <g id="matplotlib.axis_5">
    <g id="xtick_9">
     <g id="line2d_83">
      <g>
       <use xlink:href="#md5b14e3ff9" x="65.139739" y="243.038437" style="stroke: #000000; stroke-width: 0.8"/>
      </g>
     </g>
     <g id="text_17">
      <!-- 6.25 -->
      <g transform="translate(54.006926 257.636875) scale(0.1 -0.1)">
       <defs>
        <path id="DejaVuSans-35" d="M 691 4666 
L 3169 4666 
L 3169 4134 
L 1269 4134 
L 1269 2991 
Q 1406 3038 1543 3061 
Q 1681 3084 1819 3084 
Q 2600 3084 3056 2656 
Q 3513 2228 3513 1497 
Q 3513 744 3044 326 
Q 2575 -91 1722 -91 
Q 1428 -91 1123 -41 
Q 819 9 494 109 
L 494 744 
Q 775 591 1075 516 
Q 1375 441 1709 441 
Q 2250 441 2565 725 
Q 2881 1009 2881 1497 
Q 2881 1984 2565 2268 
Q 2250 2553 1709 2553 
Q 1456 2553 1204 2497 
Q 953 2441 691 2322 
L 691 4666 
z
" transform="scale(0.015625)"/>
       </defs>
       <use xlink:href="#DejaVuSans-36"/>
       <use xlink:href="#DejaVuSans-2e" x="63.623047"/>
       <use xlink:href="#DejaVuSans-32" x="95.410156"/>
       <use xlink:href="#DejaVuSans-35" x="159.033203"/>
      </g>
     </g>
    </g>
    <g id="xtick_10">
     <g id="line2d_84">
      <g>
       <use xlink:href="#md5b14e3ff9" x="102.264057" y="243.038437" style="stroke: #000000; stroke-width: 0.8"/>
      </g>
     </g>
     <g id="text_18">
      <!-- 12.5 -->
      <g transform="translate(91.131244 257.636875) scale(0.1 -0.1)">
       <defs>
        <path id="DejaVuSans-31" d="M 794 531 
L 1825 531 
L 1825 4091 
L 703 3866 
L 703 4441 
L 1819 4666 
L 2450 4666 
L 2450 531 
L 3481 531 
L 3481 0 
L 794 0 
L 794 531 
z
" transform="scale(0.015625)"/>
       </defs>
       <use xlink:href="#DejaVuSans-31"/>
       <use xlink:href="#DejaVuSans-32" x="63.623047"/>
       <use xlink:href="#DejaVuSans-2e" x="127.246094"/>
       <use xlink:href="#DejaVuSans-35" x="159.033203"/>
      </g>
     </g>
    </g>
    <g id="xtick_11">
     <g id="line2d_85">
      <g>
       <use xlink:href="#md5b14e3ff9" x="139.388375" y="243.038437" style="stroke: #000000; stroke-width: 0.8"/>
      </g>
     </g>
     <g id="text_19">
      <!-- 25.0 -->
      <g transform="translate(128.255562 257.636875) scale(0.1 -0.1)">
       <use xlink:href="#DejaVuSans-32"/>
       <use xlink:href="#DejaVuSans-35" x="63.623047"/>
       <use xlink:href="#DejaVuSans-2e" x="127.246094"/>
       <use xlink:href="#DejaVuSans-30" x="159.033203"/>
      </g>
     </g>
    </g>
    <g id="xtick_12">
     <g id="line2d_86">
      <g>
       <use xlink:href="#md5b14e3ff9" x="176.512693" y="243.038437" style="stroke: #000000; stroke-width: 0.8"/>
      </g>
     </g>
     <g id="text_20">
      <!-- 50.0 -->
      <g transform="translate(165.379881 257.636875) scale(0.1 -0.1)">
       <use xlink:href="#DejaVuSans-35"/>
       <use xlink:href="#DejaVuSans-30" x="63.623047"/>
       <use xlink:href="#DejaVuSans-2e" x="127.246094"/>
       <use xlink:href="#DejaVuSans-30" x="159.033203"/>
      </g>
     </g>
    </g>
    <g id="text_21">
     <!-- Percentage of full landscape covered by focused training library -->
     <g transform="translate(64.726651 270.038875) scale(0.1 -0.1)">
      <defs>
       <path id="DejaVuSans-50" d="M 1259 4147 
L 1259 2394 
L 2053 2394 
Q 2494 2394 2734 2622 
Q 2975 2850 2975 3272 
Q 2975 3691 2734 3919 
Q 2494 4147 2053 4147 
L 1259 4147 
z
M 628 4666 
L 2053 4666 
Q 2838 4666 3239 4311 
Q 3641 3956 3641 3272 
Q 3641 2581 3239 2228 
Q 2838 1875 2053 1875 
L 1259 1875 
L 1259 0 
L 628 0 
L 628 4666 
z
" transform="scale(0.015625)"/>
       <path id="DejaVuSans-66" d="M 2375 4863 
L 2375 4384 
L 1825 4384 
Q 1516 4384 1395 4259 
Q 1275 4134 1275 3809 
L 1275 3500 
L 2222 3500 
L 2222 3053 
L 1275 3053 
L 1275 0 
L 697 0 
L 697 3053 
L 147 3053 
L 147 3500 
L 697 3500 
L 697 3744 
Q 697 4328 969 4595 
Q 1241 4863 1831 4863 
L 2375 4863 
z
" transform="scale(0.015625)"/>
       <path id="DejaVuSans-76" d="M 191 3500 
L 800 3500 
L 1894 563 
L 2988 3500 
L 3597 3500 
L 2284 0 
L 1503 0 
L 191 3500 
z
" transform="scale(0.015625)"/>
       <path id="DejaVuSans-62" d="M 3116 1747 
Q 3116 2381 2855 2742 
Q 2594 3103 2138 3103 
Q 1681 3103 1420 2742 
Q 1159 2381 1159 1747 
Q 1159 1113 1420 752 
Q 1681 391 2138 391 
Q 2594 391 2855 752 
Q 3116 1113 3116 1747 
z
M 1159 2969 
Q 1341 3281 1617 3432 
Q 1894 3584 2278 3584 
Q 2916 3584 3314 3078 
Q 3713 2572 3713 1747 
Q 3713 922 3314 415 
Q 2916 -91 2278 -91 
Q 1894 -91 1617 61 
Q 1341 213 1159 525 
L 1159 0 
L 581 0 
L 581 4863 
L 1159 4863 
L 1159 2969 
z
" transform="scale(0.015625)"/>
       <path id="DejaVuSans-79" d="M 2059 -325 
Q 1816 -950 1584 -1140 
Q 1353 -1331 966 -1331 
L 506 -1331 
L 506 -850 
L 844 -850 
Q 1081 -850 1212 -737 
Q 1344 -625 1503 -206 
L 1606 56 
L 191 3500 
L 800 3500 
L 1894 763 
L 2988 3500 
L 3597 3500 
L 2059 -325 
z
" transform="scale(0.015625)"/>
      </defs>
      <use xlink:href="#DejaVuSans-50"/>
      <use xlink:href="#DejaVuSans-65" x="56.677734"/>
      <use xlink:href="#DejaVuSans-72" x="118.201172"/>
      <use xlink:href="#DejaVuSans-63" x="157.064453"/>
      <use xlink:href="#DejaVuSans-65" x="212.044922"/>
      <use xlink:href="#DejaVuSans-6e" x="273.568359"/>
      <use xlink:href="#DejaVuSans-74" x="336.947266"/>
      <use xlink:href="#DejaVuSans-61" x="376.15625"/>
      <use xlink:href="#DejaVuSans-67" x="437.435547"/>
      <use xlink:href="#DejaVuSans-65" x="500.912109"/>
      <use xlink:href="#DejaVuSans-20" x="562.435547"/>
      <use xlink:href="#DejaVuSans-6f" x="594.222656"/>
      <use xlink:href="#DejaVuSans-66" x="655.404297"/>
      <use xlink:href="#DejaVuSans-20" x="690.609375"/>
      <use xlink:href="#DejaVuSans-66" x="722.396484"/>
      <use xlink:href="#DejaVuSans-75" x="757.601562"/>
      <use xlink:href="#DejaVuSans-6c" x="820.980469"/>
      <use xlink:href="#DejaVuSans-6c" x="848.763672"/>
      <use xlink:href="#DejaVuSans-20" x="876.546875"/>
      <use xlink:href="#DejaVuSans-6c" x="908.333984"/>
      <use xlink:href="#DejaVuSans-61" x="936.117188"/>
      <use xlink:href="#DejaVuSans-6e" x="997.396484"/>
      <use xlink:href="#DejaVuSans-64" x="1060.775391"/>
      <use xlink:href="#DejaVuSans-73" x="1124.251953"/>
      <use xlink:href="#DejaVuSans-63" x="1176.351562"/>
      <use xlink:href="#DejaVuSans-61" x="1231.332031"/>
      <use xlink:href="#DejaVuSans-70" x="1292.611328"/>
      <use xlink:href="#DejaVuSans-65" x="1356.087891"/>
      <use xlink:href="#DejaVuSans-20" x="1417.611328"/>
      <use xlink:href="#DejaVuSans-63" x="1449.398438"/>
      <use xlink:href="#DejaVuSans-6f" x="1504.378906"/>
      <use xlink:href="#DejaVuSans-76" x="1565.560547"/>
      <use xlink:href="#DejaVuSans-65" x="1624.740234"/>
      <use xlink:href="#DejaVuSans-72" x="1686.263672"/>
      <use xlink:href="#DejaVuSans-65" x="1725.126953"/>
      <use xlink:href="#DejaVuSans-64" x="1786.650391"/>
      <use xlink:href="#DejaVuSans-20" x="1850.126953"/>
      <use xlink:href="#DejaVuSans-62" x="1881.914062"/>
      <use xlink:href="#DejaVuSans-79" x="1945.390625"/>
      <use xlink:href="#DejaVuSans-20" x="2004.570312"/>
      <use xlink:href="#DejaVuSans-66" x="2036.357422"/>
      <use xlink:href="#DejaVuSans-6f" x="2071.5625"/>
      <use xlink:href="#DejaVuSans-63" x="2132.744141"/>
      <use xlink:href="#DejaVuSans-75" x="2187.724609"/>
      <use xlink:href="#DejaVuSans-73" x="2251.103516"/>
      <use xlink:href="#DejaVuSans-65" x="2303.203125"/>
      <use xlink:href="#DejaVuSans-64" x="2364.726562"/>
      <use xlink:href="#DejaVuSans-20" x="2428.203125"/>
      <use xlink:href="#DejaVuSans-74" x="2459.990234"/>
      <use xlink:href="#DejaVuSans-72" x="2499.199219"/>
      <use xlink:href="#DejaVuSans-61" x="2540.3125"/>
      <use xlink:href="#DejaVuSans-69" x="2601.591797"/>
      <use xlink:href="#DejaVuSans-6e" x="2629.375"/>
      <use xlink:href="#DejaVuSans-69" x="2692.753906"/>
      <use xlink:href="#DejaVuSans-6e" x="2720.537109"/>
      <use xlink:href="#DejaVuSans-67" x="2783.916016"/>
      <use xlink:href="#DejaVuSans-20" x="2847.392578"/>
      <use xlink:href="#DejaVuSans-6c" x="2879.179688"/>
      <use xlink:href="#DejaVuSans-69" x="2906.962891"/>
      <use xlink:href="#DejaVuSans-62" x="2934.746094"/>
      <use xlink:href="#DejaVuSans-72" x="2998.222656"/>
      <use xlink:href="#DejaVuSans-61" x="3039.335938"/>
      <use xlink:href="#DejaVuSans-72" x="3100.615234"/>
      <use xlink:href="#DejaVuSans-79" x="3141.728516"/>
     </g>
    </g>
   </g>
   <g id="matplotlib.axis_6">
    <g id="ytick_9">
     <g id="line2d_87">
      <g>
       <use xlink:href="#mb2f05b5673" x="46.57758" y="231.60349" style="stroke: #000000; stroke-width: 0.8"/>
      </g>
     </g>
     <g id="text_22">
      <!-- 0.64 -->
      <g transform="translate(17.311955 235.402709) scale(0.1 -0.1)">
       <use xlink:href="#DejaVuSans-30"/>
       <use xlink:href="#DejaVuSans-2e" x="63.623047"/>
       <use xlink:href="#DejaVuSans-36" x="95.410156"/>
       <use xlink:href="#DejaVuSans-34" x="159.033203"/>
      </g>
     </g>
    </g>
    <g id="ytick_10">
     <g id="line2d_88">
      <g>
       <use xlink:href="#mb2f05b5673" x="46.57758" y="204.619508" style="stroke: #000000; stroke-width: 0.8"/>
      </g>
     </g>
     <g id="text_23">
      <!-- 0.66 -->
      <g transform="translate(17.311955 208.418727) scale(0.1 -0.1)">
       <use xlink:href="#DejaVuSans-30"/>
       <use xlink:href="#DejaVuSans-2e" x="63.623047"/>
       <use xlink:href="#DejaVuSans-36" x="95.410156"/>
       <use xlink:href="#DejaVuSans-36" x="159.033203"/>
      </g>
     </g>
    </g>
    <g id="ytick_11">
     <g id="line2d_89">
      <g>
       <use xlink:href="#mb2f05b5673" x="46.57758" y="177.635526" style="stroke: #000000; stroke-width: 0.8"/>
      </g>
     </g>
     <g id="text_24">
      <!-- 0.68 -->
      <g transform="translate(17.311955 181.434745) scale(0.1 -0.1)">
       <use xlink:href="#DejaVuSans-30"/>
       <use xlink:href="#DejaVuSans-2e" x="63.623047"/>
       <use xlink:href="#DejaVuSans-36" x="95.410156"/>
       <use xlink:href="#DejaVuSans-38" x="159.033203"/>
      </g>
     </g>
    </g>
    <g id="ytick_12">
     <g id="line2d_90">
      <g>
       <use xlink:href="#mb2f05b5673" x="46.57758" y="150.651544" style="stroke: #000000; stroke-width: 0.8"/>
      </g>
     </g>
     <g id="text_25">
      <!-- 0.70 -->
      <g transform="translate(17.311955 154.450763) scale(0.1 -0.1)">
       <use xlink:href="#DejaVuSans-30"/>
       <use xlink:href="#DejaVuSans-2e" x="63.623047"/>
       <use xlink:href="#DejaVuSans-37" x="95.410156"/>
       <use xlink:href="#DejaVuSans-30" x="159.033203"/>
      </g>
     </g>
    </g>
    <g id="text_26">
     <!-- Average max fitness achieved -->
     <g transform="translate(14.798438 221.444062) rotate(-90) scale(0.1 -0.1)">
      <defs>
       <path id="DejaVuSans-41" d="M 2188 4044 
L 1331 1722 
L 3047 1722 
L 2188 4044 
z
M 1831 4666 
L 2547 4666 
L 4325 0 
L 3669 0 
L 3244 1197 
L 1141 1197 
L 716 0 
L 50 0 
L 1831 4666 
z
" transform="scale(0.015625)"/>
       <path id="DejaVuSans-78" d="M 3513 3500 
L 2247 1797 
L 3578 0 
L 2900 0 
L 1881 1375 
L 863 0 
L 184 0 
L 1544 1831 
L 300 3500 
L 978 3500 
L 1906 2253 
L 2834 3500 
L 3513 3500 
z
" transform="scale(0.015625)"/>
       <path id="DejaVuSans-68" d="M 3513 2113 
L 3513 0 
L 2938 0 
L 2938 2094 
Q 2938 2591 2744 2837 
Q 2550 3084 2163 3084 
Q 1697 3084 1428 2787 
Q 1159 2491 1159 1978 
L 1159 0 
L 581 0 
L 581 4863 
L 1159 4863 
L 1159 2956 
Q 1366 3272 1645 3428 
Q 1925 3584 2291 3584 
Q 2894 3584 3203 3211 
Q 3513 2838 3513 2113 
z
" transform="scale(0.015625)"/>
      </defs>
      <use xlink:href="#DejaVuSans-41"/>
      <use xlink:href="#DejaVuSans-76" x="62.533203"/>
      <use xlink:href="#DejaVuSans-65" x="121.712891"/>
      <use xlink:href="#DejaVuSans-72" x="183.236328"/>
      <use xlink:href="#DejaVuSans-61" x="224.349609"/>
      <use xlink:href="#DejaVuSans-67" x="285.628906"/>
      <use xlink:href="#DejaVuSans-65" x="349.105469"/>
      <use xlink:href="#DejaVuSans-20" x="410.628906"/>
      <use xlink:href="#DejaVuSans-6d" x="442.416016"/>
      <use xlink:href="#DejaVuSans-61" x="539.828125"/>
      <use xlink:href="#DejaVuSans-78" x="601.107422"/>
      <use xlink:href="#DejaVuSans-20" x="660.287109"/>
      <use xlink:href="#DejaVuSans-66" x="692.074219"/>
      <use xlink:href="#DejaVuSans-69" x="727.279297"/>
      <use xlink:href="#DejaVuSans-74" x="755.0625"/>
      <use xlink:href="#DejaVuSans-6e" x="794.271484"/>
      <use xlink:href="#DejaVuSans-65" x="857.650391"/>
      <use xlink:href="#DejaVuSans-73" x="919.173828"/>
      <use xlink:href="#DejaVuSans-73" x="971.273438"/>
      <use xlink:href="#DejaVuSans-20" x="1023.373047"/>
      <use xlink:href="#DejaVuSans-61" x="1055.160156"/>
      <use xlink:href="#DejaVuSans-63" x="1116.439453"/>
      <use xlink:href="#DejaVuSans-68" x="1171.419922"/>
      <use xlink:href="#DejaVuSans-69" x="1234.798828"/>
      <use xlink:href="#DejaVuSans-65" x="1262.582031"/>
      <use xlink:href="#DejaVuSans-76" x="1324.105469"/>
      <use xlink:href="#DejaVuSans-65" x="1383.285156"/>
      <use xlink:href="#DejaVuSans-64" x="1444.808594"/>
     </g>
    </g>
   </g>
   <g id="patch_18">
    <path d="M 56.786767 209.741967 
L 73.49271 209.741967 
L 73.49271 173.332517 
L 56.786767 173.332517 
L 56.786767 209.741967 
L 56.786767 209.741967 
z
" clip-path="url(#p25eae55f06)" style="fill: none; stroke: #666666; stroke-linejoin: miter"/>
   </g>
   <g id="line2d_91">
    <path d="M 65.139739 209.741967 
L 65.139739 238.628892 
" clip-path="url(#p25eae55f06)" style="fill: none; stroke: #585858"/>
   </g>
   <g id="line2d_92">
    <path d="M 65.139739 173.332517 
L 65.139739 150.437983 
" clip-path="url(#p25eae55f06)" style="fill: none; stroke: #585858"/>
   </g>
   <g id="line2d_93">
    <path d="M 60.963253 238.628892 
L 69.316224 238.628892 
" clip-path="url(#p25eae55f06)" style="fill: none; stroke: #585858; stroke-linecap: square"/>
   </g>
   <g id="line2d_94">
    <path d="M 60.963253 150.437983 
L 69.316224 150.437983 
" clip-path="url(#p25eae55f06)" style="fill: none; stroke: #585858; stroke-linecap: square"/>
   </g>
   <g id="line2d_95"/>
   <g id="patch_19">
    <path d="M 93.911085 201.997365 
L 110.617028 201.997365 
L 110.617028 177.062607 
L 93.911085 177.062607 
L 93.911085 201.997365 
L 93.911085 201.997365 
z
" clip-path="url(#p25eae55f06)" style="fill: none; stroke: #666666; stroke-linejoin: miter"/>
   </g>
   <g id="line2d_96">
    <path d="M 102.264057 201.997365 
L 102.264057 214.431537 
" clip-path="url(#p25eae55f06)" style="fill: none; stroke: #585858"/>
   </g>
   <g id="line2d_97">
    <path d="M 102.264057 177.062607 
L 102.264057 173.429611 
" clip-path="url(#p25eae55f06)" style="fill: none; stroke: #585858"/>
   </g>
   <g id="line2d_98">
    <path d="M 98.087571 214.431537 
L 106.440543 214.431537 
" clip-path="url(#p25eae55f06)" style="fill: none; stroke: #585858; stroke-linecap: square"/>
   </g>
   <g id="line2d_99">
    <path d="M 98.087571 173.429611 
L 106.440543 173.429611 
" clip-path="url(#p25eae55f06)" style="fill: none; stroke: #585858; stroke-linecap: square"/>
   </g>
   <g id="line2d_100"/>
   <g id="patch_20">
    <path d="M 131.035403 213.4856 
L 147.741347 213.4856 
L 147.741347 195.730781 
L 131.035403 195.730781 
L 131.035403 213.4856 
L 131.035403 213.4856 
z
" clip-path="url(#p25eae55f06)" style="fill: none; stroke: #666666; stroke-linejoin: miter"/>
   </g>
   <g id="line2d_101">
    <path d="M 139.388375 213.4856 
L 139.388375 219.132635 
" clip-path="url(#p25eae55f06)" style="fill: none; stroke: #585858"/>
   </g>
   <g id="line2d_102">
    <path d="M 139.388375 195.730781 
L 139.388375 193.860521 
" clip-path="url(#p25eae55f06)" style="fill: none; stroke: #585858"/>
   </g>
   <g id="line2d_103">
    <path d="M 135.211889 219.132635 
L 143.564861 219.132635 
" clip-path="url(#p25eae55f06)" style="fill: none; stroke: #585858; stroke-linecap: square"/>
   </g>
   <g id="line2d_104">
    <path d="M 135.211889 193.860521 
L 143.564861 193.860521 
" clip-path="url(#p25eae55f06)" style="fill: none; stroke: #585858; stroke-linecap: square"/>
   </g>
   <g id="line2d_105"/>
   <g id="patch_21">
    <path d="M 168.159722 212.724652 
L 184.865665 212.724652 
L 184.865665 205.161753 
L 168.159722 205.161753 
L 168.159722 212.724652 
L 168.159722 212.724652 
z
" clip-path="url(#p25eae55f06)" style="fill: none; stroke: #666666; stroke-linejoin: miter"/>
   </g>
   <g id="line2d_106">
    <path d="M 176.512693 212.724652 
L 176.512693 212.724652 
" clip-path="url(#p25eae55f06)" style="fill: none; stroke: #585858"/>
   </g>
   <g id="line2d_107">
    <path d="M 176.512693 205.161753 
L 176.512693 194.631581 
" clip-path="url(#p25eae55f06)" style="fill: none; stroke: #585858"/>
   </g>
   <g id="line2d_108">
    <path d="M 172.336207 212.724652 
L 180.689179 212.724652 
" clip-path="url(#p25eae55f06)" style="fill: none; stroke: #585858; stroke-linecap: square"/>
   </g>
   <g id="line2d_109">
    <path d="M 172.336207 194.631581 
L 180.689179 194.631581 
" clip-path="url(#p25eae55f06)" style="fill: none; stroke: #585858; stroke-linecap: square"/>
   </g>
   <g id="line2d_110">
    <g clip-path="url(#p25eae55f06)">
     <use xlink:href="#mde5aebb9b3" x="176.512693" y="230.429099" style="fill-opacity: 0; stroke: #585858"/>
    </g>
   </g>
   <g id="line2d_111">
    <path d="M 56.786767 204.39585 
L 73.49271 204.39585 
" clip-path="url(#p25eae55f06)" style="fill: none; stroke: #585858"/>
   </g>
   <g id="line2d_112">
    <path d="M 93.911085 182.6922 
L 110.617028 182.6922 
" clip-path="url(#p25eae55f06)" style="fill: none; stroke: #585858"/>
   </g>
   <g id="line2d_113">
    <path d="M 131.035403 208.30641 
L 147.741347 208.30641 
" clip-path="url(#p25eae55f06)" style="fill: none; stroke: #585858"/>
   </g>
   <g id="line2d_114">
    <path d="M 168.159722 209.775002 
L 184.865665 209.775002 
" clip-path="url(#p25eae55f06)" style="fill: none; stroke: #585858"/>
   </g>
   <g id="patch_22">
    <path d="M 46.57758 243.038437 
L 46.57758 146.028437 
" style="fill: none; stroke: #000000; stroke-width: 0.8; stroke-linejoin: miter; stroke-linecap: square"/>
   </g>
   <g id="patch_23">
    <path d="M 46.57758 243.038437 
L 195.074852 243.038437 
" style="fill: none; stroke: #000000; stroke-width: 0.8; stroke-linejoin: miter; stroke-linecap: square"/>
   </g>
   <g id="PathCollection_9">
    <defs>
     <path id="C8_0_10c59a6881" d="M 0 3.75 
C 0.994512 3.75 1.948425 3.354876 2.65165 2.65165 
C 3.354876 1.948425 3.75 0.994512 3.75 -0 
C 3.75 -0.994512 3.354876 -1.948425 2.65165 -2.65165 
C 1.948425 -3.354876 0.994512 -3.75 0 -3.75 
C -0.994512 -3.75 -1.948425 -3.354876 -2.65165 -2.65165 
C -3.354876 -1.948425 -3.75 -0.994512 -3.75 0 
C -3.75 0.994512 -3.354876 1.948425 -2.65165 2.65165 
C -1.948425 3.354876 -0.994512 3.75 0 3.75 
z
"/>
    </defs>
    <g clip-path="url(#p25eae55f06)">
     <use xlink:href="#C8_0_10c59a6881" x="61.503958" y="150.437983" style="fill: #9bbb59; fill-opacity: 0.8"/>
    </g>
    <g clip-path="url(#p25eae55f06)">
     <use xlink:href="#C8_0_10c59a6881" x="67.654939" y="204.39585" style="fill: #8064a2; fill-opacity: 0.8"/>
    </g>
    <g clip-path="url(#p25eae55f06)">
     <use xlink:href="#C8_0_10c59a6881" x="66.044438" y="173.332517" style="fill: #f9be00; fill-opacity: 0.8"/>
    </g>
    <g clip-path="url(#p25eae55f06)">
     <use xlink:href="#C8_0_10c59a6881" x="64.161756" y="209.741967" style="fill: #ae682f; fill-opacity: 0.8"/>
    </g>
    <g clip-path="url(#p25eae55f06)">
     <use xlink:href="#C8_0_10c59a6881" x="66.679466" y="238.628892" style="fill: #f79646; fill-opacity: 0.8"/>
    </g>
   </g>
   <g id="PathCollection_10">
    <defs>
     <path id="C9_0_9f5b026ec1" d="M 0 3.75 
C 0.994512 3.75 1.948425 3.354876 2.65165 2.65165 
C 3.354876 1.948425 3.75 0.994512 3.75 -0 
C 3.75 -0.994512 3.354876 -1.948425 2.65165 -2.65165 
C 1.948425 -3.354876 0.994512 -3.75 0 -3.75 
C -0.994512 -3.75 -1.948425 -3.354876 -2.65165 -2.65165 
C -3.354876 -1.948425 -3.75 -0.994512 -3.75 0 
C -3.75 0.994512 -3.354876 1.948425 -2.65165 2.65165 
C -1.948425 3.354876 -0.994512 3.75 0 3.75 
z
"/>
    </defs>
    <g clip-path="url(#p25eae55f06)">
     <use xlink:href="#C9_0_9f5b026ec1" x="100.533203" y="173.429611" style="fill: #9bbb59; fill-opacity: 0.8"/>
    </g>
    <g clip-path="url(#p25eae55f06)">
     <use xlink:href="#C9_0_9f5b026ec1" x="101.684813" y="214.431537" style="fill: #8064a2; fill-opacity: 0.8"/>
    </g>
    <g clip-path="url(#p25eae55f06)">
     <use xlink:href="#C9_0_9f5b026ec1" x="100.107088" y="182.6922" style="fill: #f9be00; fill-opacity: 0.8"/>
    </g>
    <g clip-path="url(#p25eae55f06)">
     <use xlink:href="#C9_0_9f5b026ec1" x="99.916501" y="201.997365" style="fill: #ae682f; fill-opacity: 0.8"/>
    </g>
    <g clip-path="url(#p25eae55f06)">
     <use xlink:href="#C9_0_9f5b026ec1" x="101.283169" y="177.062607" style="fill: #f79646; fill-opacity: 0.8"/>
    </g>
   </g>
   <g id="PathCollection_11">
    <defs>
     <path id="Ca_0_f9f30bddd3" d="M 0 3.75 
C 0.994512 3.75 1.948425 3.354876 2.65165 2.65165 
C 3.354876 1.948425 3.75 0.994512 3.75 -0 
C 3.75 -0.994512 3.354876 -1.948425 2.65165 -2.65165 
C 1.948425 -3.354876 0.994512 -3.75 0 -3.75 
C -0.994512 -3.75 -1.948425 -3.354876 -2.65165 -2.65165 
C -3.354876 -1.948425 -3.75 -0.994512 -3.75 0 
C -3.75 0.994512 -3.354876 1.948425 -2.65165 2.65165 
C -1.948425 3.354876 -0.994512 3.75 0 3.75 
z
"/>
    </defs>
    <g clip-path="url(#p25eae55f06)">
     <use xlink:href="#Ca_0_f9f30bddd3" x="137.539362" y="193.860521" style="fill: #9bbb59; fill-opacity: 0.8"/>
    </g>
    <g clip-path="url(#p25eae55f06)">
     <use xlink:href="#Ca_0_f9f30bddd3" x="142.574789" y="195.730781" style="fill: #8064a2; fill-opacity: 0.8"/>
    </g>
    <g clip-path="url(#p25eae55f06)">
     <use xlink:href="#Ca_0_f9f30bddd3" x="142.904816" y="208.30641" style="fill: #f9be00; fill-opacity: 0.8"/>
    </g>
    <g clip-path="url(#p25eae55f06)">
     <use xlink:href="#Ca_0_f9f30bddd3" x="139.789216" y="219.132635" style="fill: #ae682f; fill-opacity: 0.8"/>
    </g>
    <g clip-path="url(#p25eae55f06)">
     <use xlink:href="#Ca_0_f9f30bddd3" x="142.862098" y="213.4856" style="fill: #f79646; fill-opacity: 0.8"/>
    </g>
   </g>
   <g id="PathCollection_12">
    <defs>
     <path id="Cb_0_4e0034bdc0" d="M 0 3.75 
C 0.994512 3.75 1.948425 3.354876 2.65165 2.65165 
C 3.354876 1.948425 3.75 0.994512 3.75 -0 
C 3.75 -0.994512 3.354876 -1.948425 2.65165 -2.65165 
C 1.948425 -3.354876 0.994512 -3.75 0 -3.75 
C -0.994512 -3.75 -1.948425 -3.354876 -2.65165 -2.65165 
C -3.354876 -1.948425 -3.75 -0.994512 -3.75 0 
C -3.75 0.994512 -3.354876 1.948425 -2.65165 2.65165 
C -1.948425 3.354876 -0.994512 3.75 0 3.75 
z
"/>
    </defs>
    <g clip-path="url(#p25eae55f06)">
     <use xlink:href="#Cb_0_4e0034bdc0" x="179.33243" y="194.631581" style="fill: #9bbb59; fill-opacity: 0.8"/>
    </g>
    <g clip-path="url(#p25eae55f06)">
     <use xlink:href="#Cb_0_4e0034bdc0" x="176.378593" y="230.429099" style="fill: #8064a2; fill-opacity: 0.8"/>
    </g>
    <g clip-path="url(#p25eae55f06)">
     <use xlink:href="#Cb_0_4e0034bdc0" x="178.374946" y="212.724652" style="fill: #f9be00; fill-opacity: 0.8"/>
    </g>
    <g clip-path="url(#p25eae55f06)">
     <use xlink:href="#Cb_0_4e0034bdc0" x="175.559183" y="209.775002" style="fill: #ae682f; fill-opacity: 0.8"/>
    </g>
    <g clip-path="url(#p25eae55f06)">
     <use xlink:href="#Cb_0_4e0034bdc0" x="172.80679" y="205.161753" style="fill: #f79646; fill-opacity: 0.8"/>
    </g>
   </g>
   <g id="line2d_115"/>
   <g id="line2d_116"/>
   <g id="line2d_117"/>
   <g id="line2d_118"/>
   <g id="line2d_119"/>
   <g id="line2d_120"/>
   <g id="text_27">
    <!-- 4-site landscapes -->
    <g transform="translate(77.151997 140.028437) scale(0.1 -0.1)">
     <use xlink:href="#DejaVuSans-34"/>
     <use xlink:href="#DejaVuSans-2d" x="63.623047"/>
     <use xlink:href="#DejaVuSans-73" x="99.707031"/>
     <use xlink:href="#DejaVuSans-69" x="151.806641"/>
     <use xlink:href="#DejaVuSans-74" x="179.589844"/>
     <use xlink:href="#DejaVuSans-65" x="218.798828"/>
     <use xlink:href="#DejaVuSans-20" x="280.322266"/>
     <use xlink:href="#DejaVuSans-6c" x="312.109375"/>
     <use xlink:href="#DejaVuSans-61" x="339.892578"/>
     <use xlink:href="#DejaVuSans-6e" x="401.171875"/>
     <use xlink:href="#DejaVuSans-64" x="464.550781"/>
     <use xlink:href="#DejaVuSans-73" x="528.027344"/>
     <use xlink:href="#DejaVuSans-63" x="580.126953"/>
     <use xlink:href="#DejaVuSans-61" x="635.107422"/>
     <use xlink:href="#DejaVuSans-70" x="696.386719"/>
     <use xlink:href="#DejaVuSans-65" x="759.863281"/>
     <use xlink:href="#DejaVuSans-73" x="821.386719"/>
    </g>
   </g>
  </g>
  <g id="axes_4">
   <g id="patch_24">
    <path d="M 266.678489 243.038437 
L 415.175761 243.038437 
L 415.175761 146.028437 
L 266.678489 146.028437 
z
" style="fill: #ffffff"/>
   </g>
   <g id="matplotlib.axis_7">
    <g id="xtick_13">
     <g id="line2d_121">
      <g>
       <use xlink:href="#md5b14e3ff9" x="285.240648" y="243.038437" style="stroke: #000000; stroke-width: 0.8"/>
      </g>
     </g>
     <g id="text_28">
      <!-- 6.25 -->
      <g transform="translate(274.107835 257.636875) scale(0.1 -0.1)">
       <use xlink:href="#DejaVuSans-36"/>
       <use xlink:href="#DejaVuSans-2e" x="63.623047"/>
       <use xlink:href="#DejaVuSans-32" x="95.410156"/>
       <use xlink:href="#DejaVuSans-35" x="159.033203"/>
      </g>
     </g>
    </g>
    <g id="xtick_14">
     <g id="line2d_122">
      <g>
       <use xlink:href="#md5b14e3ff9" x="322.364966" y="243.038437" style="stroke: #000000; stroke-width: 0.8"/>
      </g>
     </g>
     <g id="text_29">
      <!-- 12.5 -->
      <g transform="translate(311.232153 257.636875) scale(0.1 -0.1)">
       <use xlink:href="#DejaVuSans-31"/>
       <use xlink:href="#DejaVuSans-32" x="63.623047"/>
       <use xlink:href="#DejaVuSans-2e" x="127.246094"/>
       <use xlink:href="#DejaVuSans-35" x="159.033203"/>
      </g>
     </g>
    </g>
    <g id="xtick_15">
     <g id="line2d_123">
      <g>
       <use xlink:href="#md5b14e3ff9" x="359.489284" y="243.038437" style="stroke: #000000; stroke-width: 0.8"/>
      </g>
     </g>
     <g id="text_30">
      <!-- 25.0 -->
      <g transform="translate(348.356472 257.636875) scale(0.1 -0.1)">
       <use xlink:href="#DejaVuSans-32"/>
       <use xlink:href="#DejaVuSans-35" x="63.623047"/>
       <use xlink:href="#DejaVuSans-2e" x="127.246094"/>
       <use xlink:href="#DejaVuSans-30" x="159.033203"/>
      </g>
     </g>
    </g>
    <g id="xtick_16">
     <g id="line2d_124">
      <g>
       <use xlink:href="#md5b14e3ff9" x="396.613602" y="243.038437" style="stroke: #000000; stroke-width: 0.8"/>
      </g>
     </g>
     <g id="text_31">
      <!-- 50.0 -->
      <g transform="translate(385.48079 257.636875) scale(0.1 -0.1)">
       <use xlink:href="#DejaVuSans-35"/>
       <use xlink:href="#DejaVuSans-30" x="63.623047"/>
       <use xlink:href="#DejaVuSans-2e" x="127.246094"/>
       <use xlink:href="#DejaVuSans-30" x="159.033203"/>
      </g>
     </g>
    </g>
   </g>
   <g id="matplotlib.axis_8">
    <g id="ytick_13">
     <g id="line2d_125">
      <g>
       <use xlink:href="#mb2f05b5673" x="266.678489" y="242.463279" style="stroke: #000000; stroke-width: 0.8"/>
      </g>
     </g>
     <g id="text_32">
      <!-- 0.00 -->
      <g transform="translate(237.412864 246.262498) scale(0.1 -0.1)">
       <use xlink:href="#DejaVuSans-30"/>
       <use xlink:href="#DejaVuSans-2e" x="63.623047"/>
       <use xlink:href="#DejaVuSans-30" x="95.410156"/>
       <use xlink:href="#DejaVuSans-30" x="159.033203"/>
      </g>
     </g>
    </g>
    <g id="ytick_14">
     <g id="line2d_126">
      <g>
       <use xlink:href="#mb2f05b5673" x="266.678489" y="213.705374" style="stroke: #000000; stroke-width: 0.8"/>
      </g>
     </g>
     <g id="text_33">
      <!-- 0.05 -->
      <g transform="translate(237.412864 217.504593) scale(0.1 -0.1)">
       <use xlink:href="#DejaVuSans-30"/>
       <use xlink:href="#DejaVuSans-2e" x="63.623047"/>
       <use xlink:href="#DejaVuSans-30" x="95.410156"/>
       <use xlink:href="#DejaVuSans-35" x="159.033203"/>
      </g>
     </g>
    </g>
    <g id="ytick_15">
     <g id="line2d_127">
      <g>
       <use xlink:href="#mb2f05b5673" x="266.678489" y="184.947469" style="stroke: #000000; stroke-width: 0.8"/>
      </g>
     </g>
     <g id="text_34">
      <!-- 0.10 -->
      <g transform="translate(237.412864 188.746688) scale(0.1 -0.1)">
       <use xlink:href="#DejaVuSans-30"/>
       <use xlink:href="#DejaVuSans-2e" x="63.623047"/>
       <use xlink:href="#DejaVuSans-31" x="95.410156"/>
       <use xlink:href="#DejaVuSans-30" x="159.033203"/>
      </g>
     </g>
    </g>
    <g id="ytick_16">
     <g id="line2d_128">
      <g>
       <use xlink:href="#mb2f05b5673" x="266.678489" y="156.189564" style="stroke: #000000; stroke-width: 0.8"/>
      </g>
     </g>
     <g id="text_35">
      <!-- 0.15 -->
      <g transform="translate(237.412864 159.988783) scale(0.1 -0.1)">
       <use xlink:href="#DejaVuSans-30"/>
       <use xlink:href="#DejaVuSans-2e" x="63.623047"/>
       <use xlink:href="#DejaVuSans-31" x="95.410156"/>
       <use xlink:href="#DejaVuSans-35" x="159.033203"/>
      </g>
     </g>
    </g>
    <g id="text_36">
     <!-- Fraction reaching the global optimum -->
     <g transform="translate(234.899347 240.025312) rotate(-90) scale(0.1 -0.1)">
      <use xlink:href="#DejaVuSans-46"/>
      <use xlink:href="#DejaVuSans-72" x="50.269531"/>
      <use xlink:href="#DejaVuSans-61" x="91.382812"/>
      <use xlink:href="#DejaVuSans-63" x="152.662109"/>
      <use xlink:href="#DejaVuSans-74" x="207.642578"/>
      <use xlink:href="#DejaVuSans-69" x="246.851562"/>
      <use xlink:href="#DejaVuSans-6f" x="274.634766"/>
      <use xlink:href="#DejaVuSans-6e" x="335.816406"/>
      <use xlink:href="#DejaVuSans-20" x="399.195312"/>
      <use xlink:href="#DejaVuSans-72" x="430.982422"/>
      <use xlink:href="#DejaVuSans-65" x="469.845703"/>
      <use xlink:href="#DejaVuSans-61" x="531.369141"/>
      <use xlink:href="#DejaVuSans-63" x="592.648438"/>
      <use xlink:href="#DejaVuSans-68" x="647.628906"/>
      <use xlink:href="#DejaVuSans-69" x="711.007812"/>
      <use xlink:href="#DejaVuSans-6e" x="738.791016"/>
      <use xlink:href="#DejaVuSans-67" x="802.169922"/>
      <use xlink:href="#DejaVuSans-20" x="865.646484"/>
      <use xlink:href="#DejaVuSans-74" x="897.433594"/>
      <use xlink:href="#DejaVuSans-68" x="936.642578"/>
      <use xlink:href="#DejaVuSans-65" x="1000.021484"/>
      <use xlink:href="#DejaVuSans-20" x="1061.544922"/>
      <use xlink:href="#DejaVuSans-67" x="1093.332031"/>
      <use xlink:href="#DejaVuSans-6c" x="1156.808594"/>
      <use xlink:href="#DejaVuSans-6f" x="1184.591797"/>
      <use xlink:href="#DejaVuSans-62" x="1245.773438"/>
      <use xlink:href="#DejaVuSans-61" x="1309.25"/>
      <use xlink:href="#DejaVuSans-6c" x="1370.529297"/>
      <use xlink:href="#DejaVuSans-20" x="1398.3125"/>
      <use xlink:href="#DejaVuSans-6f" x="1430.099609"/>
      <use xlink:href="#DejaVuSans-70" x="1491.28125"/>
      <use xlink:href="#DejaVuSans-74" x="1554.757812"/>
      <use xlink:href="#DejaVuSans-69" x="1593.966797"/>
      <use xlink:href="#DejaVuSans-6d" x="1621.75"/>
      <use xlink:href="#DejaVuSans-75" x="1719.162109"/>
      <use xlink:href="#DejaVuSans-6d" x="1782.541016"/>
     </g>
    </g>
   </g>
   <g id="patch_25">
    <path d="M 276.887676 200.285019 
L 293.593619 200.285019 
L 293.593619 177.278694 
L 276.887676 177.278694 
L 276.887676 200.285019 
L 276.887676 200.285019 
z
" clip-path="url(#p2fd91b934e)" style="fill: none; stroke: #666666; stroke-linejoin: miter"/>
   </g>
   <g id="line2d_129">
    <path d="M 285.240648 200.285019 
L 285.240648 223.291343 
" clip-path="url(#p2fd91b934e)" style="fill: none; stroke: #585858"/>
   </g>
   <g id="line2d_130">
    <path d="M 285.240648 177.278694 
L 285.240648 150.437983 
" clip-path="url(#p2fd91b934e)" style="fill: none; stroke: #585858"/>
   </g>
   <g id="line2d_131">
    <path d="M 281.064162 223.291343 
L 289.417134 223.291343 
" clip-path="url(#p2fd91b934e)" style="fill: none; stroke: #585858; stroke-linecap: square"/>
   </g>
   <g id="line2d_132">
    <path d="M 281.064162 150.437983 
L 289.417134 150.437983 
" clip-path="url(#p2fd91b934e)" style="fill: none; stroke: #585858; stroke-linecap: square"/>
   </g>
   <g id="line2d_133"/>
   <g id="patch_26">
    <path d="M 314.011994 200.285019 
L 330.717937 200.285019 
L 330.717937 165.775532 
L 314.011994 165.775532 
L 314.011994 200.285019 
L 314.011994 200.285019 
z
" clip-path="url(#p2fd91b934e)" style="fill: none; stroke: #666666; stroke-linejoin: miter"/>
   </g>
   <g id="line2d_134">
    <path d="M 322.364966 200.285019 
L 322.364966 200.285019 
" clip-path="url(#p2fd91b934e)" style="fill: none; stroke: #585858"/>
   </g>
   <g id="line2d_135">
    <path d="M 322.364966 165.775532 
L 322.364966 165.775532 
" clip-path="url(#p2fd91b934e)" style="fill: none; stroke: #585858"/>
   </g>
   <g id="line2d_136">
    <path d="M 318.18848 200.285019 
L 326.541452 200.285019 
" clip-path="url(#p2fd91b934e)" style="fill: none; stroke: #585858; stroke-linecap: square"/>
   </g>
   <g id="line2d_137">
    <path d="M 318.18848 165.775532 
L 326.541452 165.775532 
" clip-path="url(#p2fd91b934e)" style="fill: none; stroke: #585858; stroke-linecap: square"/>
   </g>
   <g id="line2d_138"/>
   <g id="patch_27">
    <path d="M 351.136312 211.788181 
L 367.842256 211.788181 
L 367.842256 188.781856 
L 351.136312 188.781856 
L 351.136312 211.788181 
L 351.136312 211.788181 
z
" clip-path="url(#p2fd91b934e)" style="fill: none; stroke: #666666; stroke-linejoin: miter"/>
   </g>
   <g id="line2d_139">
    <path d="M 359.489284 211.788181 
L 359.489284 211.788181 
" clip-path="url(#p2fd91b934e)" style="fill: none; stroke: #585858"/>
   </g>
   <g id="line2d_140">
    <path d="M 359.489284 188.781856 
L 359.489284 181.113082 
" clip-path="url(#p2fd91b934e)" style="fill: none; stroke: #585858"/>
   </g>
   <g id="line2d_141">
    <path d="M 355.312798 211.788181 
L 363.66577 211.788181 
" clip-path="url(#p2fd91b934e)" style="fill: none; stroke: #585858; stroke-linecap: square"/>
   </g>
   <g id="line2d_142">
    <path d="M 355.312798 181.113082 
L 363.66577 181.113082 
" clip-path="url(#p2fd91b934e)" style="fill: none; stroke: #585858; stroke-linecap: square"/>
   </g>
   <g id="line2d_143"/>
   <g id="patch_28">
    <path d="M 388.260631 227.12573 
L 404.966574 227.12573 
L 404.966574 204.119406 
L 388.260631 204.119406 
L 388.260631 227.12573 
L 388.260631 227.12573 
z
" clip-path="url(#p2fd91b934e)" style="fill: none; stroke: #666666; stroke-linejoin: miter"/>
   </g>
   <g id="line2d_144">
    <path d="M 396.613602 227.12573 
L 396.613602 238.628892 
" clip-path="url(#p2fd91b934e)" style="fill: none; stroke: #585858"/>
   </g>
   <g id="line2d_145">
    <path d="M 396.613602 204.119406 
L 396.613602 188.781856 
" clip-path="url(#p2fd91b934e)" style="fill: none; stroke: #585858"/>
   </g>
   <g id="line2d_146">
    <path d="M 392.437116 238.628892 
L 400.790088 238.628892 
" clip-path="url(#p2fd91b934e)" style="fill: none; stroke: #585858; stroke-linecap: square"/>
   </g>
   <g id="line2d_147">
    <path d="M 392.437116 188.781856 
L 400.790088 188.781856 
" clip-path="url(#p2fd91b934e)" style="fill: none; stroke: #585858; stroke-linecap: square"/>
   </g>
   <g id="line2d_148"/>
   <g id="line2d_149">
    <path d="M 276.887676 200.285019 
L 293.593619 200.285019 
" clip-path="url(#p2fd91b934e)" style="fill: none; stroke: #585858"/>
   </g>
   <g id="line2d_150">
    <path d="M 314.011994 192.616244 
L 330.717937 192.616244 
" clip-path="url(#p2fd91b934e)" style="fill: none; stroke: #585858"/>
   </g>
   <g id="line2d_151">
    <path d="M 351.136312 188.781856 
L 367.842256 188.781856 
" clip-path="url(#p2fd91b934e)" style="fill: none; stroke: #585858"/>
   </g>
   <g id="line2d_152">
    <path d="M 388.260631 215.622568 
L 404.966574 215.622568 
" clip-path="url(#p2fd91b934e)" style="fill: none; stroke: #585858"/>
   </g>
   <g id="patch_29">
    <path d="M 266.678489 243.038437 
L 266.678489 146.028437 
" style="fill: none; stroke: #000000; stroke-width: 0.8; stroke-linejoin: miter; stroke-linecap: square"/>
   </g>
   <g id="patch_30">
    <path d="M 266.678489 243.038437 
L 415.175761 243.038437 
" style="fill: none; stroke: #000000; stroke-width: 0.8; stroke-linejoin: miter; stroke-linecap: square"/>
   </g>
   <g id="PathCollection_13">
    <defs>
     <path id="Cc_0_f33afc42e6" d="M 0 3.75 
C 0.994512 3.75 1.948425 3.354876 2.65165 2.65165 
C 3.354876 1.948425 3.75 0.994512 3.75 -0 
C 3.75 -0.994512 3.354876 -1.948425 2.65165 -2.65165 
C 1.948425 -3.354876 0.994512 -3.75 0 -3.75 
C -0.994512 -3.75 -1.948425 -3.354876 -2.65165 -2.65165 
C -3.354876 -1.948425 -3.75 -0.994512 -3.75 0 
C -3.75 0.994512 -3.354876 1.948425 -2.65165 2.65165 
C -1.948425 3.354876 -0.994512 3.75 0 3.75 
z
"/>
    </defs>
    <g clip-path="url(#p2fd91b934e)">
     <use xlink:href="#Cc_0_f33afc42e6" x="283.121039" y="150.437983" style="fill: #9bbb59; fill-opacity: 0.8"/>
    </g>
    <g clip-path="url(#p2fd91b934e)">
     <use xlink:href="#Cc_0_f33afc42e6" x="282.764759" y="200.285019" style="fill: #8064a2; fill-opacity: 0.8"/>
    </g>
    <g clip-path="url(#p2fd91b934e)">
     <use xlink:href="#Cc_0_f33afc42e6" x="282.087993" y="177.278694" style="fill: #f9be00; fill-opacity: 0.8"/>
    </g>
    <g clip-path="url(#p2fd91b934e)">
     <use xlink:href="#Cc_0_f33afc42e6" x="282.407197" y="200.285019" style="fill: #ae682f; fill-opacity: 0.8"/>
    </g>
    <g clip-path="url(#p2fd91b934e)">
     <use xlink:href="#Cc_0_f33afc42e6" x="282.89295" y="223.291343" style="fill: #f79646; fill-opacity: 0.8"/>
    </g>
   </g>
   <g id="PathCollection_14">
    <defs>
     <path id="Cd_0_d4cb7aebe6" d="M 0 3.75 
C 0.994512 3.75 1.948425 3.354876 2.65165 2.65165 
C 3.354876 1.948425 3.75 0.994512 3.75 -0 
C 3.75 -0.994512 3.354876 -1.948425 2.65165 -2.65165 
C 1.948425 -3.354876 0.994512 -3.75 0 -3.75 
C -0.994512 -3.75 -1.948425 -3.354876 -2.65165 -2.65165 
C -3.354876 -1.948425 -3.75 -0.994512 -3.75 0 
C -3.75 0.994512 -3.354876 1.948425 -2.65165 2.65165 
C -1.948425 3.354876 -0.994512 3.75 0 3.75 
z
"/>
    </defs>
    <g clip-path="url(#p2fd91b934e)">
     <use xlink:href="#Cd_0_d4cb7aebe6" x="325.632396" y="165.775532" style="fill: #9bbb59; fill-opacity: 0.8"/>
    </g>
    <g clip-path="url(#p2fd91b934e)">
     <use xlink:href="#Cd_0_d4cb7aebe6" x="325.167354" y="200.285019" style="fill: #8064a2; fill-opacity: 0.8"/>
    </g>
    <g clip-path="url(#p2fd91b934e)">
     <use xlink:href="#Cd_0_d4cb7aebe6" x="323.016541" y="165.775532" style="fill: #f9be00; fill-opacity: 0.8"/>
    </g>
    <g clip-path="url(#p2fd91b934e)">
     <use xlink:href="#Cd_0_d4cb7aebe6" x="321.434485" y="200.285019" style="fill: #ae682f; fill-opacity: 0.8"/>
    </g>
    <g clip-path="url(#p2fd91b934e)">
     <use xlink:href="#Cd_0_d4cb7aebe6" x="323.624814" y="192.616244" style="fill: #f79646; fill-opacity: 0.8"/>
    </g>
   </g>
   <g id="PathCollection_15">
    <defs>
     <path id="Ce_0_60eac3e7b3" d="M 0 3.75 
C 0.994512 3.75 1.948425 3.354876 2.65165 2.65165 
C 3.354876 1.948425 3.75 0.994512 3.75 -0 
C 3.75 -0.994512 3.354876 -1.948425 2.65165 -2.65165 
C 1.948425 -3.354876 0.994512 -3.75 0 -3.75 
C -0.994512 -3.75 -1.948425 -3.354876 -2.65165 -2.65165 
C -3.354876 -1.948425 -3.75 -0.994512 -3.75 0 
C -3.75 0.994512 -3.354876 1.948425 -2.65165 2.65165 
C -1.948425 3.354876 -0.994512 3.75 0 3.75 
z
"/>
    </defs>
    <g clip-path="url(#p2fd91b934e)">
     <use xlink:href="#Ce_0_60eac3e7b3" x="362.371709" y="188.781856" style="fill: #9bbb59; fill-opacity: 0.8"/>
    </g>
    <g clip-path="url(#p2fd91b934e)">
     <use xlink:href="#Ce_0_60eac3e7b3" x="357.857662" y="181.113082" style="fill: #8064a2; fill-opacity: 0.8"/>
    </g>
    <g clip-path="url(#p2fd91b934e)">
     <use xlink:href="#Ce_0_60eac3e7b3" x="360.38742" y="188.781856" style="fill: #f9be00; fill-opacity: 0.8"/>
    </g>
    <g clip-path="url(#p2fd91b934e)">
     <use xlink:href="#Ce_0_60eac3e7b3" x="359.401468" y="211.788181" style="fill: #ae682f; fill-opacity: 0.8"/>
    </g>
    <g clip-path="url(#p2fd91b934e)">
     <use xlink:href="#Ce_0_60eac3e7b3" x="362.008862" y="211.788181" style="fill: #f79646; fill-opacity: 0.8"/>
    </g>
   </g>
   <g id="PathCollection_16">
    <defs>
     <path id="Cf_0_6fbd0af3b2" d="M 0 3.75 
C 0.994512 3.75 1.948425 3.354876 2.65165 2.65165 
C 3.354876 1.948425 3.75 0.994512 3.75 -0 
C 3.75 -0.994512 3.354876 -1.948425 2.65165 -2.65165 
C 1.948425 -3.354876 0.994512 -3.75 0 -3.75 
C -0.994512 -3.75 -1.948425 -3.354876 -2.65165 -2.65165 
C -3.354876 -1.948425 -3.75 -0.994512 -3.75 0 
C -3.75 0.994512 -3.354876 1.948425 -2.65165 2.65165 
C -1.948425 3.354876 -0.994512 3.75 0 3.75 
z
"/>
    </defs>
    <g clip-path="url(#p2fd91b934e)">
     <use xlink:href="#Cf_0_6fbd0af3b2" x="397.070713" y="188.781856" style="fill: #9bbb59; fill-opacity: 0.8"/>
    </g>
    <g clip-path="url(#p2fd91b934e)">
     <use xlink:href="#Cf_0_6fbd0af3b2" x="398.299794" y="238.628892" style="fill: #8064a2; fill-opacity: 0.8"/>
    </g>
    <g clip-path="url(#p2fd91b934e)">
     <use xlink:href="#Cf_0_6fbd0af3b2" x="396.225245" y="215.622568" style="fill: #f9be00; fill-opacity: 0.8"/>
    </g>
    <g clip-path="url(#p2fd91b934e)">
     <use xlink:href="#Cf_0_6fbd0af3b2" x="398.798247" y="204.119406" style="fill: #ae682f; fill-opacity: 0.8"/>
    </g>
    <g clip-path="url(#p2fd91b934e)">
     <use xlink:href="#Cf_0_6fbd0af3b2" x="399.321659" y="227.12573" style="fill: #f79646; fill-opacity: 0.8"/>
    </g>
   </g>
   <g id="line2d_153"/>
   <g id="line2d_154"/>
   <g id="line2d_155"/>
   <g id="line2d_156"/>
   <g id="line2d_157"/>
   <g id="line2d_158"/>
   <g id="text_37">
    <!-- 4-site landscapes -->
    <g transform="translate(297.252906 140.028437) scale(0.1 -0.1)">
     <use xlink:href="#DejaVuSans-34"/>
     <use xlink:href="#DejaVuSans-2d" x="63.623047"/>
     <use xlink:href="#DejaVuSans-73" x="99.707031"/>
     <use xlink:href="#DejaVuSans-69" x="151.806641"/>
     <use xlink:href="#DejaVuSans-74" x="179.589844"/>
     <use xlink:href="#DejaVuSans-65" x="218.798828"/>
     <use xlink:href="#DejaVuSans-20" x="280.322266"/>
     <use xlink:href="#DejaVuSans-6c" x="312.109375"/>
     <use xlink:href="#DejaVuSans-61" x="339.892578"/>
     <use xlink:href="#DejaVuSans-6e" x="401.171875"/>
     <use xlink:href="#DejaVuSans-64" x="464.550781"/>
     <use xlink:href="#DejaVuSans-73" x="528.027344"/>
     <use xlink:href="#DejaVuSans-63" x="580.126953"/>
     <use xlink:href="#DejaVuSans-61" x="635.107422"/>
     <use xlink:href="#DejaVuSans-70" x="696.386719"/>
     <use xlink:href="#DejaVuSans-65" x="759.863281"/>
     <use xlink:href="#DejaVuSans-73" x="821.386719"/>
    </g>
   </g>
  </g>
 </g>
 <defs>
  <clipPath id="pbc0f9649e3">
   <rect x="46.57758" y="20.798437" width="148.497273" height="97.01"/>
  </clipPath>
  <clipPath id="pfb0122e154">
   <rect x="266.678489" y="20.798437" width="148.497273" height="97.01"/>
  </clipPath>
  <clipPath id="p25eae55f06">
   <rect x="46.57758" y="146.028437" width="148.497273" height="97.01"/>
  </clipPath>
  <clipPath id="p2fd91b934e">
   <rect x="266.678489" y="146.028437" width="148.497273" height="97.01"/>
  </clipPath>
 </defs>
</svg>
