<?xml version="1.0" encoding="utf-8" standalone="no"?>
<!DOCTYPE svg PUBLIC "-//W3C//DTD SVG 1.1//EN"
  "http://www.w3.org/Graphics/SVG/1.1/DTD/svg11.dtd">
<svg xmlns:xlink="http://www.w3.org/1999/xlink" width="741.407812pt" height="270.315469pt" viewBox="0 0 741.407812 270.315469" xmlns="http://www.w3.org/2000/svg" version="1.1">
 <metadata>
  <rdf:RDF xmlns:dc="http://purl.org/dc/elements/1.1/" xmlns:cc="http://creativecommons.org/ns#" xmlns:rdf="http://www.w3.org/1999/02/22-rdf-syntax-ns#">
   <cc:Work>
    <dc:type rdf:resource="http://purl.org/dc/dcmitype/StillImage"/>
    <dc:date>2025-03-26T18:14:30.590996</dc:date>
    <dc:format>image/svg+xml</dc:format>
    <dc:creator>
     <cc:Agent>
      <dc:title>Matplotlib v3.10.0, https://matplotlib.org/</dc:title>
     </cc:Agent>
    </dc:creator>
   </cc:Work>
  </rdf:RDF>
 </metadata>
 <defs>
  <style type="text/css">*{stroke-linejoin: round; stroke-linecap: butt}</style>
 </defs>
 <g id="figure_1">
  <g id="patch_1">
   <path d="M 0 270.315469 
L 741.407812 270.315469 
L 741.407812 0 
L 0 0 
z
" style="fill: #ffffff"/>
  </g>
  <g id="axes_1">
   <g id="patch_2">
    <path d="M 43.78125 232.759219 
L 297.417614 232.759219 
L 297.417614 10.999219 
L 43.78125 10.999219 
z
" style="fill: #ffffff"/>
   </g>
   <g id="FillBetweenPolyCollection_1">
    <defs>
     <path id="m4dc4b52b92" d="M 43.78125 -226.594723 
L 43.78125 -101.181706 
L 60.171596 -121.694397 
L 86.033644 -151.984713 
L 122.484152 -170.096369 
L 148.3462 -179.243873 
L 168.406362 -183.291777 
L 184.796709 -187.870611 
L 198.654549 -191.449832 
L 239.287115 -204.882457 
L 297.417614 -209.437046 
L 297.417614 -277.051358 
L 297.417614 -277.051358 
L 239.287115 -271.338062 
L 198.654549 -266.095952 
L 184.796709 -263.386497 
L 168.406362 -259.820183 
L 148.3462 -259.300548 
L 122.484152 -255.864322 
L 86.033644 -245.696166 
L 60.171596 -234.662172 
L 43.78125 -226.594723 
z
" style="stroke: #56b4e9; stroke-opacity: 0.05"/>
    </defs>
    <g clip-path="url(#p7b7ef72aa1)">
     <use xlink:href="#m4dc4b52b92" x="0" y="270.315469" style="fill: #56b4e9; fill-opacity: 0.05; stroke: #56b4e9; stroke-opacity: 0.05"/>
    </g>
   </g>
   <g id="FillBetweenPolyCollection_2">
    <defs>
     <path id="m9739c2cf2e" d="M 43.78125 -233.194133 
L 43.78125 -108.029121 
L 60.171596 -128.642133 
L 86.033644 -150.265583 
L 122.484152 -167.077603 
L 148.3462 -173.868306 
L 168.406362 -178.415682 
L 184.796709 -181.719529 
L 198.654549 -184.954262 
L 239.287115 -189.847513 
L 297.417614 -190.869417 
L 297.417614 -274.679424 
L 297.417614 -274.679424 
L 239.287115 -272.434053 
L 198.654549 -269.693935 
L 184.796709 -269.40003 
L 168.406362 -268.369003 
L 148.3462 -267.713852 
L 122.484152 -263.946183 
L 86.033644 -252.524623 
L 60.171596 -240.823171 
L 43.78125 -233.194133 
z
" style="stroke: #0173b2; stroke-opacity: 0.05"/>
    </defs>
    <g clip-path="url(#p7b7ef72aa1)">
     <use xlink:href="#m9739c2cf2e" x="0" y="270.315469" style="fill: #0173b2; fill-opacity: 0.05; stroke: #0173b2; stroke-opacity: 0.05"/>
    </g>
   </g>
   <g id="FillBetweenPolyCollection_3">
    <defs>
     <path id="mbc3ea67f22" d="M 43.78125 -233.205476 
L 43.78125 -113.825529 
L 60.171596 -121.96841 
L 86.033644 -135.334579 
L 122.484152 -158.551878 
L 148.3462 -165.232356 
L 168.406362 -179.240108 
L 184.796709 -185.991727 
L 198.654549 -191.927015 
L 239.287115 -205.836528 
L 297.417614 -216.273214 
L 297.417614 -273.877093 
L 297.417614 -273.877093 
L 239.287115 -270.759014 
L 198.654549 -268.963877 
L 184.796709 -266.136885 
L 168.406362 -264.61959 
L 148.3462 -262.257694 
L 122.484152 -254.66492 
L 86.033644 -243.944058 
L 60.171596 -235.908349 
L 43.78125 -233.205476 
z
" style="stroke: #ece133; stroke-opacity: 0.05"/>
    </defs>
    <g clip-path="url(#p7b7ef72aa1)">
     <use xlink:href="#mbc3ea67f22" x="0" y="270.315469" style="fill: #ece133; fill-opacity: 0.05; stroke: #ece133; stroke-opacity: 0.05"/>
    </g>
   </g>
   <g id="FillBetweenPolyCollection_4">
    <defs>
     <path id="mf3b7d875b5" d="M 43.78125 -239.08363 
L 43.78125 -124.729671 
L 60.171596 -132.083173 
L 86.033644 -149.335217 
L 122.484152 -167.272112 
L 148.3462 -179.472478 
L 168.406362 -189.02441 
L 184.796709 -194.209341 
L 198.654549 -201.460341 
L 239.287115 -211.878729 
L 297.417614 -224.921168 
L 297.417614 -273.89211 
L 297.417614 -273.89211 
L 239.287115 -272.78782 
L 198.654549 -269.583322 
L 184.796709 -268.431346 
L 168.406362 -267.09991 
L 148.3462 -266.098218 
L 122.484152 -261.531605 
L 86.033644 -251.030409 
L 60.171596 -242.940058 
L 43.78125 -239.08363 
z
" style="stroke: #de8f05; stroke-opacity: 0.05"/>
    </defs>
    <g clip-path="url(#p7b7ef72aa1)">
     <use xlink:href="#mf3b7d875b5" x="0" y="270.315469" style="fill: #de8f05; fill-opacity: 0.05; stroke: #de8f05; stroke-opacity: 0.05"/>
    </g>
   </g>
   <g id="FillBetweenPolyCollection_5">
    <defs>
     <path id="m1b778ac0d5" d="M 43.78125 -243.409462 
L 43.78125 -133.63321 
L 60.171596 -137.013953 
L 86.033644 -149.412891 
L 122.484152 -166.098394 
L 148.3462 -181.681827 
L 168.406362 -190.057068 
L 184.796709 -192.791024 
L 198.654549 -197.244325 
L 239.287115 -210.350544 
L 297.417614 -219.346008 
L 297.417614 -274.632123 
L 297.417614 -274.632123 
L 239.287115 -273.29366 
L 198.654549 -272.428156 
L 184.796709 -271.122406 
L 168.406362 -267.846968 
L 148.3462 -265.193942 
L 122.484152 -262.186602 
L 86.033644 -251.778088 
L 60.171596 -245.461645 
L 43.78125 -243.409462 
z
" style="stroke: #fbafe4; stroke-opacity: 0.05"/>
    </defs>
    <g clip-path="url(#p7b7ef72aa1)">
     <use xlink:href="#m1b778ac0d5" x="0" y="270.315469" style="fill: #fbafe4; fill-opacity: 0.05; stroke: #fbafe4; stroke-opacity: 0.05"/>
    </g>
   </g>
   <g id="FillBetweenPolyCollection_6">
    <defs>
     <path id="mab1c057b77" d="M 43.78125 -246.628712 
L 43.78125 -144.250628 
L 60.171596 -148.931884 
L 86.033644 -160.218323 
L 122.484152 -179.744634 
L 148.3462 -183.875383 
L 168.406362 -195.579882 
L 184.796709 -201.543613 
L 198.654549 -203.426066 
L 239.287115 -215.24195 
L 297.417614 -221.779409 
L 297.417614 -278.872352 
L 297.417614 -278.872352 
L 239.287115 -275.36733 
L 198.654549 -273.9293 
L 184.796709 -273.231118 
L 168.406362 -273.564697 
L 148.3462 -273.255305 
L 122.484152 -268.160234 
L 86.033644 -260.483697 
L 60.171596 -251.753836 
L 43.78125 -246.628712 
z
" style="stroke: #cc78bc; stroke-opacity: 0.05"/>
    </defs>
    <g clip-path="url(#p7b7ef72aa1)">
     <use xlink:href="#mab1c057b77" x="0" y="270.315469" style="fill: #cc78bc; fill-opacity: 0.05; stroke: #cc78bc; stroke-opacity: 0.05"/>
    </g>
   </g>
   <g id="FillBetweenPolyCollection_7">
    <defs>
     <path id="mb48bc40342" d="M 43.78125 -244.099342 
L 43.78125 -132.587865 
L 60.171596 -143.388293 
L 86.033644 -154.932443 
L 122.484152 -173.546361 
L 148.3462 -181.271645 
L 168.406362 -189.390571 
L 184.796709 -200.150918 
L 198.654549 -200.312332 
L 239.287115 -209.778282 
L 297.417614 -217.874882 
L 297.417614 -278.252074 
L 297.417614 -278.252074 
L 239.287115 -274.509666 
L 198.654549 -273.538457 
L 184.796709 -271.339674 
L 168.406362 -270.023879 
L 148.3462 -268.276239 
L 122.484152 -264.451457 
L 86.033644 -255.163525 
L 60.171596 -251.0229 
L 43.78125 -244.099342 
z
" style="stroke: #ca9161; stroke-opacity: 0.05"/>
    </defs>
    <g clip-path="url(#p7b7ef72aa1)">
     <use xlink:href="#mb48bc40342" x="0" y="270.315469" style="fill: #ca9161; fill-opacity: 0.05; stroke: #ca9161; stroke-opacity: 0.05"/>
    </g>
   </g>
   <g id="FillBetweenPolyCollection_8">
    <defs>
     <path id="m6675697fc7" d="M 43.78125 -250.689344 
L 43.78125 -143.316203 
L 60.171596 -152.561628 
L 86.033644 -166.254372 
L 122.484152 -177.840834 
L 148.3462 -190.278155 
L 168.406362 -193.246818 
L 184.796709 -199.586726 
L 198.654549 -207.59708 
L 239.287115 -212.296651 
L 297.417614 -222.549304 
L 297.417614 -277.491971 
L 297.417614 -277.491971 
L 239.287115 -276.48193 
L 198.654549 -274.863509 
L 184.796709 -276.181143 
L 168.406362 -274.932987 
L 148.3462 -272.012441 
L 122.484152 -271.042979 
L 86.033644 -262.417709 
L 60.171596 -256.02695 
L 43.78125 -250.689344 
z
" style="stroke: #d55e00; stroke-opacity: 0.05"/>
    </defs>
    <g clip-path="url(#p7b7ef72aa1)">
     <use xlink:href="#m6675697fc7" x="0" y="270.315469" style="fill: #d55e00; fill-opacity: 0.05; stroke: #d55e00; stroke-opacity: 0.05"/>
    </g>
   </g>
   <g id="matplotlib.axis_1">
    <g id="xtick_1">
     <g id="line2d_1">
      <defs>
       <path id="maa92311a02" d="M 0 0 
L 0 3.5 
" style="stroke: #000000; stroke-width: 0.8"/>
      </defs>
      <g>
       <use xlink:href="#maa92311a02" x="43.78125" y="232.759219" style="stroke: #000000; stroke-width: 0.8"/>
      </g>
     </g>
     <g id="text_1">
      <!-- 120 -->
      <g transform="translate(34.2375 247.357656) scale(0.1 -0.1)">
       <defs>
        <path id="DejaVuSans-31" d="M 794 531 
L 1825 531 
L 1825 4091 
L 703 3866 
L 703 4441 
L 1819 4666 
L 2450 4666 
L 2450 531 
L 3481 531 
L 3481 0 
L 794 0 
L 794 531 
z
" transform="scale(0.015625)"/>
        <path id="DejaVuSans-32" d="M 1228 531 
L 3431 531 
L 3431 0 
L 469 0 
L 469 531 
Q 828 903 1448 1529 
Q 2069 2156 2228 2338 
Q 2531 2678 2651 2914 
Q 2772 3150 2772 3378 
Q 2772 3750 2511 3984 
Q 2250 4219 1831 4219 
Q 1534 4219 1204 4116 
Q 875 4013 500 3803 
L 500 4441 
Q 881 4594 1212 4672 
Q 1544 4750 1819 4750 
Q 2544 4750 2975 4387 
Q 3406 4025 3406 3419 
Q 3406 3131 3298 2873 
Q 3191 2616 2906 2266 
Q 2828 2175 2409 1742 
Q 1991 1309 1228 531 
z
" transform="scale(0.015625)"/>
        <path id="DejaVuSans-30" d="M 2034 4250 
Q 1547 4250 1301 3770 
Q 1056 3291 1056 2328 
Q 1056 1369 1301 889 
Q 1547 409 2034 409 
Q 2525 409 2770 889 
Q 3016 1369 3016 2328 
Q 3016 3291 2770 3770 
Q 2525 4250 2034 4250 
z
M 2034 4750 
Q 2819 4750 3233 4129 
Q 3647 3509 3647 2328 
Q 3647 1150 3233 529 
Q 2819 -91 2034 -91 
Q 1250 -91 836 529 
Q 422 1150 422 2328 
Q 422 3509 836 4129 
Q 1250 4750 2034 4750 
z
" transform="scale(0.015625)"/>
       </defs>
       <use xlink:href="#DejaVuSans-31"/>
       <use xlink:href="#DejaVuSans-32" transform="translate(63.623047 0)"/>
       <use xlink:href="#DejaVuSans-30" transform="translate(127.246094 0)"/>
      </g>
     </g>
    </g>
    <g id="xtick_2">
     <g id="line2d_2">
      <g>
       <use xlink:href="#maa92311a02" x="86.033644" y="232.759219" style="stroke: #000000; stroke-width: 0.8"/>
      </g>
     </g>
     <g id="text_2">
      <!-- 192 -->
      <g transform="translate(76.489894 247.357656) scale(0.1 -0.1)">
       <defs>
        <path id="DejaVuSans-39" d="M 703 97 
L 703 672 
Q 941 559 1184 500 
Q 1428 441 1663 441 
Q 2288 441 2617 861 
Q 2947 1281 2994 2138 
Q 2813 1869 2534 1725 
Q 2256 1581 1919 1581 
Q 1219 1581 811 2004 
Q 403 2428 403 3163 
Q 403 3881 828 4315 
Q 1253 4750 1959 4750 
Q 2769 4750 3195 4129 
Q 3622 3509 3622 2328 
Q 3622 1225 3098 567 
Q 2575 -91 1691 -91 
Q 1453 -91 1209 -44 
Q 966 3 703 97 
z
M 1959 2075 
Q 2384 2075 2632 2365 
Q 2881 2656 2881 3163 
Q 2881 3666 2632 3958 
Q 2384 4250 1959 4250 
Q 1534 4250 1286 3958 
Q 1038 3666 1038 3163 
Q 1038 2656 1286 2365 
Q 1534 2075 1959 2075 
z
" transform="scale(0.015625)"/>
       </defs>
       <use xlink:href="#DejaVuSans-31"/>
       <use xlink:href="#DejaVuSans-39" transform="translate(63.623047 0)"/>
       <use xlink:href="#DejaVuSans-32" transform="translate(127.246094 0)"/>
      </g>
     </g>
    </g>
    <g id="xtick_3">
     <g id="line2d_3">
      <g>
       <use xlink:href="#maa92311a02" x="122.484152" y="232.759219" style="stroke: #000000; stroke-width: 0.8"/>
      </g>
     </g>
     <g id="text_3">
      <!-- 288 -->
      <g transform="translate(112.940402 247.357656) scale(0.1 -0.1)">
       <defs>
        <path id="DejaVuSans-38" d="M 2034 2216 
Q 1584 2216 1326 1975 
Q 1069 1734 1069 1313 
Q 1069 891 1326 650 
Q 1584 409 2034 409 
Q 2484 409 2743 651 
Q 3003 894 3003 1313 
Q 3003 1734 2745 1975 
Q 2488 2216 2034 2216 
z
M 1403 2484 
Q 997 2584 770 2862 
Q 544 3141 544 3541 
Q 544 4100 942 4425 
Q 1341 4750 2034 4750 
Q 2731 4750 3128 4425 
Q 3525 4100 3525 3541 
Q 3525 3141 3298 2862 
Q 3072 2584 2669 2484 
Q 3125 2378 3379 2068 
Q 3634 1759 3634 1313 
Q 3634 634 3220 271 
Q 2806 -91 2034 -91 
Q 1263 -91 848 271 
Q 434 634 434 1313 
Q 434 1759 690 2068 
Q 947 2378 1403 2484 
z
M 1172 3481 
Q 1172 3119 1398 2916 
Q 1625 2713 2034 2713 
Q 2441 2713 2670 2916 
Q 2900 3119 2900 3481 
Q 2900 3844 2670 4047 
Q 2441 4250 2034 4250 
Q 1625 4250 1398 4047 
Q 1172 3844 1172 3481 
z
" transform="scale(0.015625)"/>
       </defs>
       <use xlink:href="#DejaVuSans-32"/>
       <use xlink:href="#DejaVuSans-38" transform="translate(63.623047 0)"/>
       <use xlink:href="#DejaVuSans-38" transform="translate(127.246094 0)"/>
      </g>
     </g>
    </g>
    <g id="xtick_4">
     <g id="line2d_4">
      <g>
       <use xlink:href="#maa92311a02" x="168.406362" y="232.759219" style="stroke: #000000; stroke-width: 0.8"/>
      </g>
     </g>
     <g id="text_4">
      <!-- 480 -->
      <g transform="translate(158.862612 247.357656) scale(0.1 -0.1)">
       <defs>
        <path id="DejaVuSans-34" d="M 2419 4116 
L 825 1625 
L 2419 1625 
L 2419 4116 
z
M 2253 4666 
L 3047 4666 
L 3047 1625 
L 3713 1625 
L 3713 1100 
L 3047 1100 
L 3047 0 
L 2419 0 
L 2419 1100 
L 313 1100 
L 313 1709 
L 2253 4666 
z
" transform="scale(0.015625)"/>
       </defs>
       <use xlink:href="#DejaVuSans-34"/>
       <use xlink:href="#DejaVuSans-38" transform="translate(63.623047 0)"/>
       <use xlink:href="#DejaVuSans-30" transform="translate(127.246094 0)"/>
      </g>
     </g>
    </g>
    <g id="xtick_5">
     <g id="line2d_5">
      <g>
       <use xlink:href="#maa92311a02" x="239.287115" y="232.759219" style="stroke: #000000; stroke-width: 0.8"/>
      </g>
     </g>
     <g id="text_5">
      <!-- 1056 -->
      <g transform="translate(226.562115 247.357656) scale(0.1 -0.1)">
       <defs>
        <path id="DejaVuSans-35" d="M 691 4666 
L 3169 4666 
L 3169 4134 
L 1269 4134 
L 1269 2991 
Q 1406 3038 1543 3061 
Q 1681 3084 1819 3084 
Q 2600 3084 3056 2656 
Q 3513 2228 3513 1497 
Q 3513 744 3044 326 
Q 2575 -91 1722 -91 
Q 1428 -91 1123 -41 
Q 819 9 494 109 
L 494 744 
Q 775 591 1075 516 
Q 1375 441 1709 441 
Q 2250 441 2565 725 
Q 2881 1009 2881 1497 
Q 2881 1984 2565 2268 
Q 2250 2553 1709 2553 
Q 1456 2553 1204 2497 
Q 953 2441 691 2322 
L 691 4666 
z
" transform="scale(0.015625)"/>
        <path id="DejaVuSans-36" d="M 2113 2584 
Q 1688 2584 1439 2293 
Q 1191 2003 1191 1497 
Q 1191 994 1439 701 
Q 1688 409 2113 409 
Q 2538 409 2786 701 
Q 3034 994 3034 1497 
Q 3034 2003 2786 2293 
Q 2538 2584 2113 2584 
z
M 3366 4563 
L 3366 3988 
Q 3128 4100 2886 4159 
Q 2644 4219 2406 4219 
Q 1781 4219 1451 3797 
Q 1122 3375 1075 2522 
Q 1259 2794 1537 2939 
Q 1816 3084 2150 3084 
Q 2853 3084 3261 2657 
Q 3669 2231 3669 1497 
Q 3669 778 3244 343 
Q 2819 -91 2113 -91 
Q 1303 -91 875 529 
Q 447 1150 447 2328 
Q 447 3434 972 4092 
Q 1497 4750 2381 4750 
Q 2619 4750 2861 4703 
Q 3103 4656 3366 4563 
z
" transform="scale(0.015625)"/>
       </defs>
       <use xlink:href="#DejaVuSans-31"/>
       <use xlink:href="#DejaVuSans-30" transform="translate(63.623047 0)"/>
       <use xlink:href="#DejaVuSans-35" transform="translate(127.246094 0)"/>
       <use xlink:href="#DejaVuSans-36" transform="translate(190.869141 0)"/>
      </g>
     </g>
    </g>
    <g id="xtick_6">
     <g id="line2d_6">
      <g>
       <use xlink:href="#maa92311a02" x="297.417614" y="232.759219" style="stroke: #000000; stroke-width: 0.8"/>
      </g>
     </g>
     <g id="text_6">
      <!-- 2016 -->
      <g transform="translate(284.692614 247.357656) scale(0.1 -0.1)">
       <use xlink:href="#DejaVuSans-32"/>
       <use xlink:href="#DejaVuSans-30" transform="translate(63.623047 0)"/>
       <use xlink:href="#DejaVuSans-31" transform="translate(127.246094 0)"/>
       <use xlink:href="#DejaVuSans-36" transform="translate(190.869141 0)"/>
      </g>
     </g>
    </g>
    <g id="text_7">
     <!-- Total number of variants -->
     <g transform="translate(109.556463 261.035781) scale(0.1 -0.1)">
      <defs>
       <path id="DejaVuSans-54" d="M -19 4666 
L 3928 4666 
L 3928 4134 
L 2272 4134 
L 2272 0 
L 1638 0 
L 1638 4134 
L -19 4134 
L -19 4666 
z
" transform="scale(0.015625)"/>
       <path id="DejaVuSans-6f" d="M 1959 3097 
Q 1497 3097 1228 2736 
Q 959 2375 959 1747 
Q 959 1119 1226 758 
Q 1494 397 1959 397 
Q 2419 397 2687 759 
Q 2956 1122 2956 1747 
Q 2956 2369 2687 2733 
Q 2419 3097 1959 3097 
z
M 1959 3584 
Q 2709 3584 3137 3096 
Q 3566 2609 3566 1747 
Q 3566 888 3137 398 
Q 2709 -91 1959 -91 
Q 1206 -91 779 398 
Q 353 888 353 1747 
Q 353 2609 779 3096 
Q 1206 3584 1959 3584 
z
" transform="scale(0.015625)"/>
       <path id="DejaVuSans-74" d="M 1172 4494 
L 1172 3500 
L 2356 3500 
L 2356 3053 
L 1172 3053 
L 1172 1153 
Q 1172 725 1289 603 
Q 1406 481 1766 481 
L 2356 481 
L 2356 0 
L 1766 0 
Q 1100 0 847 248 
Q 594 497 594 1153 
L 594 3053 
L 172 3053 
L 172 3500 
L 594 3500 
L 594 4494 
L 1172 4494 
z
" transform="scale(0.015625)"/>
       <path id="DejaVuSans-61" d="M 2194 1759 
Q 1497 1759 1228 1600 
Q 959 1441 959 1056 
Q 959 750 1161 570 
Q 1363 391 1709 391 
Q 2188 391 2477 730 
Q 2766 1069 2766 1631 
L 2766 1759 
L 2194 1759 
z
M 3341 1997 
L 3341 0 
L 2766 0 
L 2766 531 
Q 2569 213 2275 61 
Q 1981 -91 1556 -91 
Q 1019 -91 701 211 
Q 384 513 384 1019 
Q 384 1609 779 1909 
Q 1175 2209 1959 2209 
L 2766 2209 
L 2766 2266 
Q 2766 2663 2505 2880 
Q 2244 3097 1772 3097 
Q 1472 3097 1187 3025 
Q 903 2953 641 2809 
L 641 3341 
Q 956 3463 1253 3523 
Q 1550 3584 1831 3584 
Q 2591 3584 2966 3190 
Q 3341 2797 3341 1997 
z
" transform="scale(0.015625)"/>
       <path id="DejaVuSans-6c" d="M 603 4863 
L 1178 4863 
L 1178 0 
L 603 0 
L 603 4863 
z
" transform="scale(0.015625)"/>
       <path id="DejaVuSans-20" transform="scale(0.015625)"/>
       <path id="DejaVuSans-6e" d="M 3513 2113 
L 3513 0 
L 2938 0 
L 2938 2094 
Q 2938 2591 2744 2837 
Q 2550 3084 2163 3084 
Q 1697 3084 1428 2787 
Q 1159 2491 1159 1978 
L 1159 0 
L 581 0 
L 581 3500 
L 1159 3500 
L 1159 2956 
Q 1366 3272 1645 3428 
Q 1925 3584 2291 3584 
Q 2894 3584 3203 3211 
Q 3513 2838 3513 2113 
z
" transform="scale(0.015625)"/>
       <path id="DejaVuSans-75" d="M 544 1381 
L 544 3500 
L 1119 3500 
L 1119 1403 
Q 1119 906 1312 657 
Q 1506 409 1894 409 
Q 2359 409 2629 706 
Q 2900 1003 2900 1516 
L 2900 3500 
L 3475 3500 
L 3475 0 
L 2900 0 
L 2900 538 
Q 2691 219 2414 64 
Q 2138 -91 1772 -91 
Q 1169 -91 856 284 
Q 544 659 544 1381 
z
M 1991 3584 
L 1991 3584 
z
" transform="scale(0.015625)"/>
       <path id="DejaVuSans-6d" d="M 3328 2828 
Q 3544 3216 3844 3400 
Q 4144 3584 4550 3584 
Q 5097 3584 5394 3201 
Q 5691 2819 5691 2113 
L 5691 0 
L 5113 0 
L 5113 2094 
Q 5113 2597 4934 2840 
Q 4756 3084 4391 3084 
Q 3944 3084 3684 2787 
Q 3425 2491 3425 1978 
L 3425 0 
L 2847 0 
L 2847 2094 
Q 2847 2600 2669 2842 
Q 2491 3084 2119 3084 
Q 1678 3084 1418 2786 
Q 1159 2488 1159 1978 
L 1159 0 
L 581 0 
L 581 3500 
L 1159 3500 
L 1159 2956 
Q 1356 3278 1631 3431 
Q 1906 3584 2284 3584 
Q 2666 3584 2933 3390 
Q 3200 3197 3328 2828 
z
" transform="scale(0.015625)"/>
       <path id="DejaVuSans-62" d="M 3116 1747 
Q 3116 2381 2855 2742 
Q 2594 3103 2138 3103 
Q 1681 3103 1420 2742 
Q 1159 2381 1159 1747 
Q 1159 1113 1420 752 
Q 1681 391 2138 391 
Q 2594 391 2855 752 
Q 3116 1113 3116 1747 
z
M 1159 2969 
Q 1341 3281 1617 3432 
Q 1894 3584 2278 3584 
Q 2916 3584 3314 3078 
Q 3713 2572 3713 1747 
Q 3713 922 3314 415 
Q 2916 -91 2278 -91 
Q 1894 -91 1617 61 
Q 1341 213 1159 525 
L 1159 0 
L 581 0 
L 581 4863 
L 1159 4863 
L 1159 2969 
z
" transform="scale(0.015625)"/>
       <path id="DejaVuSans-65" d="M 3597 1894 
L 3597 1613 
L 953 1613 
Q 991 1019 1311 708 
Q 1631 397 2203 397 
Q 2534 397 2845 478 
Q 3156 559 3463 722 
L 3463 178 
Q 3153 47 2828 -22 
Q 2503 -91 2169 -91 
Q 1331 -91 842 396 
Q 353 884 353 1716 
Q 353 2575 817 3079 
Q 1281 3584 2069 3584 
Q 2775 3584 3186 3129 
Q 3597 2675 3597 1894 
z
M 3022 2063 
Q 3016 2534 2758 2815 
Q 2500 3097 2075 3097 
Q 1594 3097 1305 2825 
Q 1016 2553 972 2059 
L 3022 2063 
z
" transform="scale(0.015625)"/>
       <path id="DejaVuSans-72" d="M 2631 2963 
Q 2534 3019 2420 3045 
Q 2306 3072 2169 3072 
Q 1681 3072 1420 2755 
Q 1159 2438 1159 1844 
L 1159 0 
L 581 0 
L 581 3500 
L 1159 3500 
L 1159 2956 
Q 1341 3275 1631 3429 
Q 1922 3584 2338 3584 
Q 2397 3584 2469 3576 
Q 2541 3569 2628 3553 
L 2631 2963 
z
" transform="scale(0.015625)"/>
       <path id="DejaVuSans-66" d="M 2375 4863 
L 2375 4384 
L 1825 4384 
Q 1516 4384 1395 4259 
Q 1275 4134 1275 3809 
L 1275 3500 
L 2222 3500 
L 2222 3053 
L 1275 3053 
L 1275 0 
L 697 0 
L 697 3053 
L 147 3053 
L 147 3500 
L 697 3500 
L 697 3744 
Q 697 4328 969 4595 
Q 1241 4863 1831 4863 
L 2375 4863 
z
" transform="scale(0.015625)"/>
       <path id="DejaVuSans-76" d="M 191 3500 
L 800 3500 
L 1894 563 
L 2988 3500 
L 3597 3500 
L 2284 0 
L 1503 0 
L 191 3500 
z
" transform="scale(0.015625)"/>
       <path id="DejaVuSans-69" d="M 603 3500 
L 1178 3500 
L 1178 0 
L 603 0 
L 603 3500 
z
M 603 4863 
L 1178 4863 
L 1178 4134 
L 603 4134 
L 603 4863 
z
" transform="scale(0.015625)"/>
       <path id="DejaVuSans-73" d="M 2834 3397 
L 2834 2853 
Q 2591 2978 2328 3040 
Q 2066 3103 1784 3103 
Q 1356 3103 1142 2972 
Q 928 2841 928 2578 
Q 928 2378 1081 2264 
Q 1234 2150 1697 2047 
L 1894 2003 
Q 2506 1872 2764 1633 
Q 3022 1394 3022 966 
Q 3022 478 2636 193 
Q 2250 -91 1575 -91 
Q 1294 -91 989 -36 
Q 684 19 347 128 
L 347 722 
Q 666 556 975 473 
Q 1284 391 1588 391 
Q 1994 391 2212 530 
Q 2431 669 2431 922 
Q 2431 1156 2273 1281 
Q 2116 1406 1581 1522 
L 1381 1569 
Q 847 1681 609 1914 
Q 372 2147 372 2553 
Q 372 3047 722 3315 
Q 1072 3584 1716 3584 
Q 2034 3584 2315 3537 
Q 2597 3491 2834 3397 
z
" transform="scale(0.015625)"/>
      </defs>
      <use xlink:href="#DejaVuSans-54"/>
      <use xlink:href="#DejaVuSans-6f" transform="translate(44.083984 0)"/>
      <use xlink:href="#DejaVuSans-74" transform="translate(105.265625 0)"/>
      <use xlink:href="#DejaVuSans-61" transform="translate(144.474609 0)"/>
      <use xlink:href="#DejaVuSans-6c" transform="translate(205.753906 0)"/>
      <use xlink:href="#DejaVuSans-20" transform="translate(233.537109 0)"/>
      <use xlink:href="#DejaVuSans-6e" transform="translate(265.324219 0)"/>
      <use xlink:href="#DejaVuSans-75" transform="translate(328.703125 0)"/>
      <use xlink:href="#DejaVuSans-6d" transform="translate(392.082031 0)"/>
      <use xlink:href="#DejaVuSans-62" transform="translate(489.494141 0)"/>
      <use xlink:href="#DejaVuSans-65" transform="translate(552.970703 0)"/>
      <use xlink:href="#DejaVuSans-72" transform="translate(614.494141 0)"/>
      <use xlink:href="#DejaVuSans-20" transform="translate(655.607422 0)"/>
      <use xlink:href="#DejaVuSans-6f" transform="translate(687.394531 0)"/>
      <use xlink:href="#DejaVuSans-66" transform="translate(748.576172 0)"/>
      <use xlink:href="#DejaVuSans-20" transform="translate(783.78125 0)"/>
      <use xlink:href="#DejaVuSans-76" transform="translate(815.568359 0)"/>
      <use xlink:href="#DejaVuSans-61" transform="translate(874.748047 0)"/>
      <use xlink:href="#DejaVuSans-72" transform="translate(936.027344 0)"/>
      <use xlink:href="#DejaVuSans-69" transform="translate(977.140625 0)"/>
      <use xlink:href="#DejaVuSans-61" transform="translate(1004.923828 0)"/>
      <use xlink:href="#DejaVuSans-6e" transform="translate(1066.203125 0)"/>
      <use xlink:href="#DejaVuSans-74" transform="translate(1129.582031 0)"/>
      <use xlink:href="#DejaVuSans-73" transform="translate(1168.791016 0)"/>
     </g>
    </g>
   </g>
   <g id="matplotlib.axis_2">
    <g id="ytick_1">
     <g id="line2d_7">
      <defs>
       <path id="m025d4e77fa" d="M 0 0 
L -3.5 0 
" style="stroke: #000000; stroke-width: 0.8"/>
      </defs>
      <g>
       <use xlink:href="#m025d4e77fa" x="43.78125" y="232.759219" style="stroke: #000000; stroke-width: 0.8"/>
      </g>
     </g>
     <g id="text_8">
      <!-- 0.0 -->
      <g transform="translate(20.878125 236.558437) scale(0.1 -0.1)">
       <defs>
        <path id="DejaVuSans-2e" d="M 684 794 
L 1344 794 
L 1344 0 
L 684 0 
L 684 794 
z
" transform="scale(0.015625)"/>
       </defs>
       <use xlink:href="#DejaVuSans-30"/>
       <use xlink:href="#DejaVuSans-2e" transform="translate(63.623047 0)"/>
       <use xlink:href="#DejaVuSans-30" transform="translate(95.410156 0)"/>
      </g>
     </g>
    </g>
    <g id="ytick_2">
     <g id="line2d_8">
      <g>
       <use xlink:href="#m025d4e77fa" x="43.78125" y="188.407219" style="stroke: #000000; stroke-width: 0.8"/>
      </g>
     </g>
     <g id="text_9">
      <!-- 0.2 -->
      <g transform="translate(20.878125 192.206437) scale(0.1 -0.1)">
       <use xlink:href="#DejaVuSans-30"/>
       <use xlink:href="#DejaVuSans-2e" transform="translate(63.623047 0)"/>
       <use xlink:href="#DejaVuSans-32" transform="translate(95.410156 0)"/>
      </g>
     </g>
    </g>
    <g id="ytick_3">
     <g id="line2d_9">
      <g>
       <use xlink:href="#m025d4e77fa" x="43.78125" y="144.055219" style="stroke: #000000; stroke-width: 0.8"/>
      </g>
     </g>
     <g id="text_10">
      <!-- 0.4 -->
      <g transform="translate(20.878125 147.854437) scale(0.1 -0.1)">
       <use xlink:href="#DejaVuSans-30"/>
       <use xlink:href="#DejaVuSans-2e" transform="translate(63.623047 0)"/>
       <use xlink:href="#DejaVuSans-34" transform="translate(95.410156 0)"/>
      </g>
     </g>
    </g>
    <g id="ytick_4">
     <g id="line2d_10">
      <g>
       <use xlink:href="#m025d4e77fa" x="43.78125" y="99.703219" style="stroke: #000000; stroke-width: 0.8"/>
      </g>
     </g>
     <g id="text_11">
      <!-- 0.6 -->
      <g transform="translate(20.878125 103.502437) scale(0.1 -0.1)">
       <use xlink:href="#DejaVuSans-30"/>
       <use xlink:href="#DejaVuSans-2e" transform="translate(63.623047 0)"/>
       <use xlink:href="#DejaVuSans-36" transform="translate(95.410156 0)"/>
      </g>
     </g>
    </g>
    <g id="ytick_5">
     <g id="line2d_11">
      <g>
       <use xlink:href="#m025d4e77fa" x="43.78125" y="55.351219" style="stroke: #000000; stroke-width: 0.8"/>
      </g>
     </g>
     <g id="text_12">
      <!-- 0.8 -->
      <g transform="translate(20.878125 59.150437) scale(0.1 -0.1)">
       <use xlink:href="#DejaVuSans-30"/>
       <use xlink:href="#DejaVuSans-2e" transform="translate(63.623047 0)"/>
       <use xlink:href="#DejaVuSans-38" transform="translate(95.410156 0)"/>
      </g>
     </g>
    </g>
    <g id="ytick_6">
     <g id="line2d_12">
      <g>
       <use xlink:href="#m025d4e77fa" x="43.78125" y="10.999219" style="stroke: #000000; stroke-width: 0.8"/>
      </g>
     </g>
     <g id="text_13">
      <!-- 1.0 -->
      <g transform="translate(20.878125 14.798437) scale(0.1 -0.1)">
       <use xlink:href="#DejaVuSans-31"/>
       <use xlink:href="#DejaVuSans-2e" transform="translate(63.623047 0)"/>
       <use xlink:href="#DejaVuSans-30" transform="translate(95.410156 0)"/>
      </g>
     </g>
    </g>
    <g id="text_14">
     <!-- Average max fitness achieved -->
     <g transform="translate(14.798438 197.294844) rotate(-90) scale(0.1 -0.1)">
      <defs>
       <path id="DejaVuSans-41" d="M 2188 4044 
L 1331 1722 
L 3047 1722 
L 2188 4044 
z
M 1831 4666 
L 2547 4666 
L 4325 0 
L 3669 0 
L 3244 1197 
L 1141 1197 
L 716 0 
L 50 0 
L 1831 4666 
z
" transform="scale(0.015625)"/>
       <path id="DejaVuSans-67" d="M 2906 1791 
Q 2906 2416 2648 2759 
Q 2391 3103 1925 3103 
Q 1463 3103 1205 2759 
Q 947 2416 947 1791 
Q 947 1169 1205 825 
Q 1463 481 1925 481 
Q 2391 481 2648 825 
Q 2906 1169 2906 1791 
z
M 3481 434 
Q 3481 -459 3084 -895 
Q 2688 -1331 1869 -1331 
Q 1566 -1331 1297 -1286 
Q 1028 -1241 775 -1147 
L 775 -588 
Q 1028 -725 1275 -790 
Q 1522 -856 1778 -856 
Q 2344 -856 2625 -561 
Q 2906 -266 2906 331 
L 2906 616 
Q 2728 306 2450 153 
Q 2172 0 1784 0 
Q 1141 0 747 490 
Q 353 981 353 1791 
Q 353 2603 747 3093 
Q 1141 3584 1784 3584 
Q 2172 3584 2450 3431 
Q 2728 3278 2906 2969 
L 2906 3500 
L 3481 3500 
L 3481 434 
z
" transform="scale(0.015625)"/>
       <path id="DejaVuSans-78" d="M 3513 3500 
L 2247 1797 
L 3578 0 
L 2900 0 
L 1881 1375 
L 863 0 
L 184 0 
L 1544 1831 
L 300 3500 
L 978 3500 
L 1906 2253 
L 2834 3500 
L 3513 3500 
z
" transform="scale(0.015625)"/>
       <path id="DejaVuSans-63" d="M 3122 3366 
L 3122 2828 
Q 2878 2963 2633 3030 
Q 2388 3097 2138 3097 
Q 1578 3097 1268 2742 
Q 959 2388 959 1747 
Q 959 1106 1268 751 
Q 1578 397 2138 397 
Q 2388 397 2633 464 
Q 2878 531 3122 666 
L 3122 134 
Q 2881 22 2623 -34 
Q 2366 -91 2075 -91 
Q 1284 -91 818 406 
Q 353 903 353 1747 
Q 353 2603 823 3093 
Q 1294 3584 2113 3584 
Q 2378 3584 2631 3529 
Q 2884 3475 3122 3366 
z
" transform="scale(0.015625)"/>
       <path id="DejaVuSans-68" d="M 3513 2113 
L 3513 0 
L 2938 0 
L 2938 2094 
Q 2938 2591 2744 2837 
Q 2550 3084 2163 3084 
Q 1697 3084 1428 2787 
Q 1159 2491 1159 1978 
L 1159 0 
L 581 0 
L 581 4863 
L 1159 4863 
L 1159 2956 
Q 1366 3272 1645 3428 
Q 1925 3584 2291 3584 
Q 2894 3584 3203 3211 
Q 3513 2838 3513 2113 
z
" transform="scale(0.015625)"/>
       <path id="DejaVuSans-64" d="M 2906 2969 
L 2906 4863 
L 3481 4863 
L 3481 0 
L 2906 0 
L 2906 525 
Q 2725 213 2448 61 
Q 2172 -91 1784 -91 
Q 1150 -91 751 415 
Q 353 922 353 1747 
Q 353 2572 751 3078 
Q 1150 3584 1784 3584 
Q 2172 3584 2448 3432 
Q 2725 3281 2906 2969 
z
M 947 1747 
Q 947 1113 1208 752 
Q 1469 391 1925 391 
Q 2381 391 2643 752 
Q 2906 1113 2906 1747 
Q 2906 2381 2643 2742 
Q 2381 3103 1925 3103 
Q 1469 3103 1208 2742 
Q 947 2381 947 1747 
z
" transform="scale(0.015625)"/>
      </defs>
      <use xlink:href="#DejaVuSans-41"/>
      <use xlink:href="#DejaVuSans-76" transform="translate(62.533203 0)"/>
      <use xlink:href="#DejaVuSans-65" transform="translate(121.712891 0)"/>
      <use xlink:href="#DejaVuSans-72" transform="translate(183.236328 0)"/>
      <use xlink:href="#DejaVuSans-61" transform="translate(224.349609 0)"/>
      <use xlink:href="#DejaVuSans-67" transform="translate(285.628906 0)"/>
      <use xlink:href="#DejaVuSans-65" transform="translate(349.105469 0)"/>
      <use xlink:href="#DejaVuSans-20" transform="translate(410.628906 0)"/>
      <use xlink:href="#DejaVuSans-6d" transform="translate(442.416016 0)"/>
      <use xlink:href="#DejaVuSans-61" transform="translate(539.828125 0)"/>
      <use xlink:href="#DejaVuSans-78" transform="translate(601.107422 0)"/>
      <use xlink:href="#DejaVuSans-20" transform="translate(660.287109 0)"/>
      <use xlink:href="#DejaVuSans-66" transform="translate(692.074219 0)"/>
      <use xlink:href="#DejaVuSans-69" transform="translate(727.279297 0)"/>
      <use xlink:href="#DejaVuSans-74" transform="translate(755.0625 0)"/>
      <use xlink:href="#DejaVuSans-6e" transform="translate(794.271484 0)"/>
      <use xlink:href="#DejaVuSans-65" transform="translate(857.650391 0)"/>
      <use xlink:href="#DejaVuSans-73" transform="translate(919.173828 0)"/>
      <use xlink:href="#DejaVuSans-73" transform="translate(971.273438 0)"/>
      <use xlink:href="#DejaVuSans-20" transform="translate(1023.373047 0)"/>
      <use xlink:href="#DejaVuSans-61" transform="translate(1055.160156 0)"/>
      <use xlink:href="#DejaVuSans-63" transform="translate(1116.439453 0)"/>
      <use xlink:href="#DejaVuSans-68" transform="translate(1171.419922 0)"/>
      <use xlink:href="#DejaVuSans-69" transform="translate(1234.798828 0)"/>
      <use xlink:href="#DejaVuSans-65" transform="translate(1262.582031 0)"/>
      <use xlink:href="#DejaVuSans-76" transform="translate(1324.105469 0)"/>
      <use xlink:href="#DejaVuSans-65" transform="translate(1383.285156 0)"/>
      <use xlink:href="#DejaVuSans-64" transform="translate(1444.808594 0)"/>
     </g>
    </g>
   </g>
   <g id="line2d_13">
    <path d="M 43.78125 106.427254 
L 60.171596 92.137184 
L 86.033644 71.475029 
L 122.484152 57.335123 
L 148.3462 51.043258 
L 168.406362 48.759489 
L 184.796709 44.686915 
L 198.654549 41.542576 
L 239.287115 32.205209 
L 297.417614 27.071267 
" clip-path="url(#p7b7ef72aa1)" style="fill: none; stroke-dasharray: 12,4; stroke-dashoffset: 0; stroke: #56b4e9; stroke-width: 2"/>
    <defs>
     <path id="mf8a314e498" d="M 0 3 
C 0.795609 3 1.55874 2.683901 2.12132 2.12132 
C 2.683901 1.55874 3 0.795609 3 0 
C 3 -0.795609 2.683901 -1.55874 2.12132 -2.12132 
C 1.55874 -2.683901 0.795609 -3 0 -3 
C -0.795609 -3 -1.55874 -2.683901 -2.12132 -2.12132 
C -2.683901 -1.55874 -3 -0.795609 -3 0 
C -3 0.795609 -2.683901 1.55874 -2.12132 2.12132 
C -1.55874 2.683901 -0.795609 3 0 3 
z
" style="stroke: #56b4e9"/>
    </defs>
    <g clip-path="url(#p7b7ef72aa1)">
     <use xlink:href="#mf8a314e498" x="43.78125" y="106.427254" style="fill: #56b4e9; stroke: #56b4e9"/>
     <use xlink:href="#mf8a314e498" x="60.171596" y="92.137184" style="fill: #56b4e9; stroke: #56b4e9"/>
     <use xlink:href="#mf8a314e498" x="86.033644" y="71.475029" style="fill: #56b4e9; stroke: #56b4e9"/>
     <use xlink:href="#mf8a314e498" x="122.484152" y="57.335123" style="fill: #56b4e9; stroke: #56b4e9"/>
     <use xlink:href="#mf8a314e498" x="148.3462" y="51.043258" style="fill: #56b4e9; stroke: #56b4e9"/>
     <use xlink:href="#mf8a314e498" x="168.406362" y="48.759489" style="fill: #56b4e9; stroke: #56b4e9"/>
     <use xlink:href="#mf8a314e498" x="184.796709" y="44.686915" style="fill: #56b4e9; stroke: #56b4e9"/>
     <use xlink:href="#mf8a314e498" x="198.654549" y="41.542576" style="fill: #56b4e9; stroke: #56b4e9"/>
     <use xlink:href="#mf8a314e498" x="239.287115" y="32.205209" style="fill: #56b4e9; stroke: #56b4e9"/>
     <use xlink:href="#mf8a314e498" x="297.417614" y="27.071267" style="fill: #56b4e9; stroke: #56b4e9"/>
    </g>
   </g>
   <g id="line2d_14">
    <path d="M 43.78125 99.703842 
L 60.171596 85.582817 
L 86.033644 68.920366 
L 122.484152 54.803576 
L 148.3462 49.52439 
L 168.406362 46.923126 
L 184.796709 44.755689 
L 198.654549 42.991371 
L 239.287115 39.174686 
L 297.417614 37.541048 
" clip-path="url(#p7b7ef72aa1)" style="fill: none; stroke: #0173b2; stroke-width: 2; stroke-linecap: square"/>
    <defs>
     <path id="m5eb31cfb4d" d="M 0 3 
C 0.795609 3 1.55874 2.683901 2.12132 2.12132 
C 2.683901 1.55874 3 0.795609 3 0 
C 3 -0.795609 2.683901 -1.55874 2.12132 -2.12132 
C 1.55874 -2.683901 0.795609 -3 0 -3 
C -0.795609 -3 -1.55874 -2.683901 -2.12132 -2.12132 
C -2.683901 -1.55874 -3 -0.795609 -3 0 
C -3 0.795609 -2.683901 1.55874 -2.12132 2.12132 
C -1.55874 2.683901 -0.795609 3 0 3 
z
" style="stroke: #0173b2"/>
    </defs>
    <g clip-path="url(#p7b7ef72aa1)">
     <use xlink:href="#m5eb31cfb4d" x="43.78125" y="99.703842" style="fill: #0173b2; stroke: #0173b2"/>
     <use xlink:href="#m5eb31cfb4d" x="60.171596" y="85.582817" style="fill: #0173b2; stroke: #0173b2"/>
     <use xlink:href="#m5eb31cfb4d" x="86.033644" y="68.920366" style="fill: #0173b2; stroke: #0173b2"/>
     <use xlink:href="#m5eb31cfb4d" x="122.484152" y="54.803576" style="fill: #0173b2; stroke: #0173b2"/>
     <use xlink:href="#m5eb31cfb4d" x="148.3462" y="49.52439" style="fill: #0173b2; stroke: #0173b2"/>
     <use xlink:href="#m5eb31cfb4d" x="168.406362" y="46.923126" style="fill: #0173b2; stroke: #0173b2"/>
     <use xlink:href="#m5eb31cfb4d" x="184.796709" y="44.755689" style="fill: #0173b2; stroke: #0173b2"/>
     <use xlink:href="#m5eb31cfb4d" x="198.654549" y="42.991371" style="fill: #0173b2; stroke: #0173b2"/>
     <use xlink:href="#m5eb31cfb4d" x="239.287115" y="39.174686" style="fill: #0173b2; stroke: #0173b2"/>
     <use xlink:href="#m5eb31cfb4d" x="297.417614" y="37.541048" style="fill: #0173b2; stroke: #0173b2"/>
    </g>
   </g>
   <g id="line2d_15">
    <path d="M 43.78125 96.799967 
L 60.171596 91.377089 
L 86.033644 80.676151 
L 122.484152 63.70707 
L 148.3462 56.570443 
L 168.406362 48.38562 
L 184.796709 44.251163 
L 198.654549 39.870023 
L 239.287115 32.017698 
L 297.417614 25.240315 
" clip-path="url(#p7b7ef72aa1)" style="fill: none; stroke-dasharray: 2,3.3; stroke-dashoffset: 0; stroke: #ece133; stroke-width: 2"/>
    <defs>
     <path id="m9ac08e9109" d="M 0 3 
C 0.795609 3 1.55874 2.683901 2.12132 2.12132 
C 2.683901 1.55874 3 0.795609 3 0 
C 3 -0.795609 2.683901 -1.55874 2.12132 -2.12132 
C 1.55874 -2.683901 0.795609 -3 0 -3 
C -0.795609 -3 -1.55874 -2.683901 -2.12132 -2.12132 
C -2.683901 -1.55874 -3 -0.795609 -3 0 
C -3 0.795609 -2.683901 1.55874 -2.12132 2.12132 
C -1.55874 2.683901 -0.795609 3 0 3 
z
" style="stroke: #ece133"/>
    </defs>
    <g clip-path="url(#p7b7ef72aa1)">
     <use xlink:href="#m9ac08e9109" x="43.78125" y="96.799967" style="fill: #ece133; stroke: #ece133"/>
     <use xlink:href="#m9ac08e9109" x="60.171596" y="91.377089" style="fill: #ece133; stroke: #ece133"/>
     <use xlink:href="#m9ac08e9109" x="86.033644" y="80.676151" style="fill: #ece133; stroke: #ece133"/>
     <use xlink:href="#m9ac08e9109" x="122.484152" y="63.70707" style="fill: #ece133; stroke: #ece133"/>
     <use xlink:href="#m9ac08e9109" x="148.3462" y="56.570443" style="fill: #ece133; stroke: #ece133"/>
     <use xlink:href="#m9ac08e9109" x="168.406362" y="48.38562" style="fill: #ece133; stroke: #ece133"/>
     <use xlink:href="#m9ac08e9109" x="184.796709" y="44.251163" style="fill: #ece133; stroke: #ece133"/>
     <use xlink:href="#m9ac08e9109" x="198.654549" y="39.870023" style="fill: #ece133; stroke: #ece133"/>
     <use xlink:href="#m9ac08e9109" x="239.287115" y="32.017698" style="fill: #ece133; stroke: #ece133"/>
     <use xlink:href="#m9ac08e9109" x="297.417614" y="25.240315" style="fill: #ece133; stroke: #ece133"/>
    </g>
   </g>
   <g id="line2d_16">
    <path d="M 43.78125 88.408818 
L 60.171596 82.803853 
L 86.033644 70.132656 
L 122.484152 55.91361 
L 148.3462 47.530121 
L 168.406362 42.253309 
L 184.796709 38.995125 
L 198.654549 34.793637 
L 239.287115 27.982194 
L 297.417614 20.90883 
" clip-path="url(#p7b7ef72aa1)" style="fill: none; stroke: #de8f05; stroke-width: 2; stroke-linecap: square"/>
    <defs>
     <path id="mbe89b5c570" d="M 0 3 
C 0.795609 3 1.55874 2.683901 2.12132 2.12132 
C 2.683901 1.55874 3 0.795609 3 0 
C 3 -0.795609 2.683901 -1.55874 2.12132 -2.12132 
C 1.55874 -2.683901 0.795609 -3 0 -3 
C -0.795609 -3 -1.55874 -2.683901 -2.12132 -2.12132 
C -2.683901 -1.55874 -3 -0.795609 -3 0 
C -3 0.795609 -2.683901 1.55874 -2.12132 2.12132 
C -1.55874 2.683901 -0.795609 3 0 3 
z
" style="stroke: #de8f05"/>
    </defs>
    <g clip-path="url(#p7b7ef72aa1)">
     <use xlink:href="#mbe89b5c570" x="43.78125" y="88.408818" style="fill: #de8f05; stroke: #de8f05"/>
     <use xlink:href="#mbe89b5c570" x="60.171596" y="82.803853" style="fill: #de8f05; stroke: #de8f05"/>
     <use xlink:href="#mbe89b5c570" x="86.033644" y="70.132656" style="fill: #de8f05; stroke: #de8f05"/>
     <use xlink:href="#mbe89b5c570" x="122.484152" y="55.91361" style="fill: #de8f05; stroke: #de8f05"/>
     <use xlink:href="#mbe89b5c570" x="148.3462" y="47.530121" style="fill: #de8f05; stroke: #de8f05"/>
     <use xlink:href="#mbe89b5c570" x="168.406362" y="42.253309" style="fill: #de8f05; stroke: #de8f05"/>
     <use xlink:href="#mbe89b5c570" x="184.796709" y="38.995125" style="fill: #de8f05; stroke: #de8f05"/>
     <use xlink:href="#mbe89b5c570" x="198.654549" y="34.793637" style="fill: #de8f05; stroke: #de8f05"/>
     <use xlink:href="#mbe89b5c570" x="239.287115" y="27.982194" style="fill: #de8f05; stroke: #de8f05"/>
     <use xlink:href="#mbe89b5c570" x="297.417614" y="20.90883" style="fill: #de8f05; stroke: #de8f05"/>
    </g>
   </g>
   <g id="line2d_17">
    <path d="M 43.78125 81.794133 
L 60.171596 79.077669 
L 86.033644 69.719979 
L 122.484152 56.172971 
L 148.3462 46.877584 
L 168.406362 41.363451 
L 184.796709 38.358754 
L 198.654549 35.479228 
L 239.287115 28.493367 
L 297.417614 23.326403 
" clip-path="url(#p7b7ef72aa1)" style="fill: none; stroke-dasharray: 2,3.3; stroke-dashoffset: 0; stroke: #fbafe4; stroke-width: 2"/>
    <defs>
     <path id="mce8b0cf2c1" d="M 0 3 
C 0.795609 3 1.55874 2.683901 2.12132 2.12132 
C 2.683901 1.55874 3 0.795609 3 0 
C 3 -0.795609 2.683901 -1.55874 2.12132 -2.12132 
C 1.55874 -2.683901 0.795609 -3 0 -3 
C -0.795609 -3 -1.55874 -2.683901 -2.12132 -2.12132 
C -2.683901 -1.55874 -3 -0.795609 -3 0 
C -3 0.795609 -2.683901 1.55874 -2.12132 2.12132 
C -1.55874 2.683901 -0.795609 3 0 3 
z
" style="stroke: #fbafe4"/>
    </defs>
    <g clip-path="url(#p7b7ef72aa1)">
     <use xlink:href="#mce8b0cf2c1" x="43.78125" y="81.794133" style="fill: #fbafe4; stroke: #fbafe4"/>
     <use xlink:href="#mce8b0cf2c1" x="60.171596" y="79.077669" style="fill: #fbafe4; stroke: #fbafe4"/>
     <use xlink:href="#mce8b0cf2c1" x="86.033644" y="69.719979" style="fill: #fbafe4; stroke: #fbafe4"/>
     <use xlink:href="#mce8b0cf2c1" x="122.484152" y="56.172971" style="fill: #fbafe4; stroke: #fbafe4"/>
     <use xlink:href="#mce8b0cf2c1" x="148.3462" y="46.877584" style="fill: #fbafe4; stroke: #fbafe4"/>
     <use xlink:href="#mce8b0cf2c1" x="168.406362" y="41.363451" style="fill: #fbafe4; stroke: #fbafe4"/>
     <use xlink:href="#mce8b0cf2c1" x="184.796709" y="38.358754" style="fill: #fbafe4; stroke: #fbafe4"/>
     <use xlink:href="#mce8b0cf2c1" x="198.654549" y="35.479228" style="fill: #fbafe4; stroke: #fbafe4"/>
     <use xlink:href="#mce8b0cf2c1" x="239.287115" y="28.493367" style="fill: #fbafe4; stroke: #fbafe4"/>
     <use xlink:href="#mce8b0cf2c1" x="297.417614" y="23.326403" style="fill: #fbafe4; stroke: #fbafe4"/>
    </g>
   </g>
   <g id="line2d_18">
    <path d="M 43.78125 74.875799 
L 60.171596 69.972609 
L 86.033644 59.964459 
L 122.484152 46.363035 
L 148.3462 41.750125 
L 168.406362 35.743179 
L 184.796709 32.928103 
L 198.654549 31.637786 
L 239.287115 25.010829 
L 297.417614 19.989588 
" clip-path="url(#p7b7ef72aa1)" style="fill: none; stroke: #cc78bc; stroke-width: 2; stroke-linecap: square"/>
    <defs>
     <path id="m8bcbd74d57" d="M 0 3 
C 0.795609 3 1.55874 2.683901 2.12132 2.12132 
C 2.683901 1.55874 3 0.795609 3 0 
C 3 -0.795609 2.683901 -1.55874 2.12132 -2.12132 
C 1.55874 -2.683901 0.795609 -3 0 -3 
C -0.795609 -3 -1.55874 -2.683901 -2.12132 -2.12132 
C -2.683901 -1.55874 -3 -0.795609 -3 0 
C -3 0.795609 -2.683901 1.55874 -2.12132 2.12132 
C -1.55874 2.683901 -0.795609 3 0 3 
z
" style="stroke: #cc78bc"/>
    </defs>
    <g clip-path="url(#p7b7ef72aa1)">
     <use xlink:href="#m8bcbd74d57" x="43.78125" y="74.875799" style="fill: #cc78bc; stroke: #cc78bc"/>
     <use xlink:href="#m8bcbd74d57" x="60.171596" y="69.972609" style="fill: #cc78bc; stroke: #cc78bc"/>
     <use xlink:href="#m8bcbd74d57" x="86.033644" y="59.964459" style="fill: #cc78bc; stroke: #cc78bc"/>
     <use xlink:href="#m8bcbd74d57" x="122.484152" y="46.363035" style="fill: #cc78bc; stroke: #cc78bc"/>
     <use xlink:href="#m8bcbd74d57" x="148.3462" y="41.750125" style="fill: #cc78bc; stroke: #cc78bc"/>
     <use xlink:href="#m8bcbd74d57" x="168.406362" y="35.743179" style="fill: #cc78bc; stroke: #cc78bc"/>
     <use xlink:href="#m8bcbd74d57" x="184.796709" y="32.928103" style="fill: #cc78bc; stroke: #cc78bc"/>
     <use xlink:href="#m8bcbd74d57" x="198.654549" y="31.637786" style="fill: #cc78bc; stroke: #cc78bc"/>
     <use xlink:href="#m8bcbd74d57" x="239.287115" y="25.010829" style="fill: #cc78bc; stroke: #cc78bc"/>
     <use xlink:href="#m8bcbd74d57" x="297.417614" y="19.989588" style="fill: #cc78bc; stroke: #cc78bc"/>
    </g>
   </g>
   <g id="line2d_19">
    <path d="M 43.78125 81.971865 
L 60.171596 73.109872 
L 86.033644 65.267484 
L 122.484152 51.31656 
L 148.3462 45.541527 
L 168.406362 40.608244 
L 184.796709 34.570172 
L 198.654549 33.390074 
L 239.287115 28.171495 
L 297.417614 22.251991 
" clip-path="url(#p7b7ef72aa1)" style="fill: none; stroke-dasharray: 2,3.3; stroke-dashoffset: 0; stroke: #ca9161; stroke-width: 2"/>
    <defs>
     <path id="m4f6fb9a5af" d="M 0 3 
C 0.795609 3 1.55874 2.683901 2.12132 2.12132 
C 2.683901 1.55874 3 0.795609 3 0 
C 3 -0.795609 2.683901 -1.55874 2.12132 -2.12132 
C 1.55874 -2.683901 0.795609 -3 0 -3 
C -0.795609 -3 -1.55874 -2.683901 -2.12132 -2.12132 
C -2.683901 -1.55874 -3 -0.795609 -3 0 
C -3 0.795609 -2.683901 1.55874 -2.12132 2.12132 
C -1.55874 2.683901 -0.795609 3 0 3 
z
" style="stroke: #ca9161"/>
    </defs>
    <g clip-path="url(#p7b7ef72aa1)">
     <use xlink:href="#m4f6fb9a5af" x="43.78125" y="81.971865" style="fill: #ca9161; stroke: #ca9161"/>
     <use xlink:href="#m4f6fb9a5af" x="60.171596" y="73.109872" style="fill: #ca9161; stroke: #ca9161"/>
     <use xlink:href="#m4f6fb9a5af" x="86.033644" y="65.267484" style="fill: #ca9161; stroke: #ca9161"/>
     <use xlink:href="#m4f6fb9a5af" x="122.484152" y="51.31656" style="fill: #ca9161; stroke: #ca9161"/>
     <use xlink:href="#m4f6fb9a5af" x="148.3462" y="45.541527" style="fill: #ca9161; stroke: #ca9161"/>
     <use xlink:href="#m4f6fb9a5af" x="168.406362" y="40.608244" style="fill: #ca9161; stroke: #ca9161"/>
     <use xlink:href="#m4f6fb9a5af" x="184.796709" y="34.570172" style="fill: #ca9161; stroke: #ca9161"/>
     <use xlink:href="#m4f6fb9a5af" x="198.654549" y="33.390074" style="fill: #ca9161; stroke: #ca9161"/>
     <use xlink:href="#m4f6fb9a5af" x="239.287115" y="28.171495" style="fill: #ca9161; stroke: #ca9161"/>
     <use xlink:href="#m4f6fb9a5af" x="297.417614" y="22.251991" style="fill: #ca9161; stroke: #ca9161"/>
    </g>
   </g>
   <g id="line2d_20">
    <path d="M 43.78125 73.312695 
L 60.171596 66.02118 
L 86.033644 55.979428 
L 122.484152 45.873562 
L 148.3462 39.170171 
L 168.406362 36.225566 
L 184.796709 32.431534 
L 198.654549 29.085174 
L 239.287115 25.926178 
L 297.417614 20.294832 
" clip-path="url(#p7b7ef72aa1)" style="fill: none; stroke: #d55e00; stroke-width: 2; stroke-linecap: square"/>
    <defs>
     <path id="mb681cfd944" d="M 0 3 
C 0.795609 3 1.55874 2.683901 2.12132 2.12132 
C 2.683901 1.55874 3 0.795609 3 0 
C 3 -0.795609 2.683901 -1.55874 2.12132 -2.12132 
C 1.55874 -2.683901 0.795609 -3 0 -3 
C -0.795609 -3 -1.55874 -2.683901 -2.12132 -2.12132 
C -2.683901 -1.55874 -3 -0.795609 -3 0 
C -3 0.795609 -2.683901 1.55874 -2.12132 2.12132 
C -1.55874 2.683901 -0.795609 3 0 3 
z
" style="stroke: #d55e00"/>
    </defs>
    <g clip-path="url(#p7b7ef72aa1)">
     <use xlink:href="#mb681cfd944" x="43.78125" y="73.312695" style="fill: #d55e00; stroke: #d55e00"/>
     <use xlink:href="#mb681cfd944" x="60.171596" y="66.02118" style="fill: #d55e00; stroke: #d55e00"/>
     <use xlink:href="#mb681cfd944" x="86.033644" y="55.979428" style="fill: #d55e00; stroke: #d55e00"/>
     <use xlink:href="#mb681cfd944" x="122.484152" y="45.873562" style="fill: #d55e00; stroke: #d55e00"/>
     <use xlink:href="#mb681cfd944" x="148.3462" y="39.170171" style="fill: #d55e00; stroke: #d55e00"/>
     <use xlink:href="#mb681cfd944" x="168.406362" y="36.225566" style="fill: #d55e00; stroke: #d55e00"/>
     <use xlink:href="#mb681cfd944" x="184.796709" y="32.431534" style="fill: #d55e00; stroke: #d55e00"/>
     <use xlink:href="#mb681cfd944" x="198.654549" y="29.085174" style="fill: #d55e00; stroke: #d55e00"/>
     <use xlink:href="#mb681cfd944" x="239.287115" y="25.926178" style="fill: #d55e00; stroke: #d55e00"/>
     <use xlink:href="#mb681cfd944" x="297.417614" y="20.294832" style="fill: #d55e00; stroke: #d55e00"/>
    </g>
   </g>
   <g id="patch_3">
    <path d="M 43.78125 232.759219 
L 43.78125 10.999219 
" style="fill: none; stroke: #000000; stroke-width: 0.8; stroke-linejoin: miter; stroke-linecap: square"/>
   </g>
   <g id="patch_4">
    <path d="M 297.417614 232.759219 
L 297.417614 10.999219 
" style="fill: none; stroke: #000000; stroke-width: 0.8; stroke-linejoin: miter; stroke-linecap: square"/>
   </g>
   <g id="patch_5">
    <path d="M 43.78125 232.759219 
L 297.417614 232.759219 
" style="fill: none; stroke: #000000; stroke-width: 0.8; stroke-linejoin: miter; stroke-linecap: square"/>
   </g>
   <g id="patch_6">
    <path d="M 43.78125 10.999219 
L 297.417614 10.999219 
" style="fill: none; stroke: #000000; stroke-width: 0.8; stroke-linejoin: miter; stroke-linecap: square"/>
   </g>
  </g>
  <g id="axes_2">
   <g id="patch_7">
    <path d="M 348.144886 232.759219 
L 601.78125 232.759219 
L 601.78125 10.999219 
L 348.144886 10.999219 
z
" style="fill: #ffffff"/>
   </g>
   <g id="FillBetweenPolyCollection_9">
    <defs>
     <path id="mc64534f5b0" d="M 348.144886 -68.138401 
L 348.144886 -39.498899 
L 364.535233 -40.551982 
L 390.39728 -43.061161 
L 426.847789 -34.84965 
L 452.709836 -46.170626 
L 472.769999 -46.393058 
L 489.160345 -53.150637 
L 503.018185 -57.623767 
L 543.650751 -77.179663 
L 601.78125 -86.360661 
L 601.78125 -268.169439 
L 601.78125 -268.169439 
L 543.650751 -248.521637 
L 503.018185 -214.115933 
L 489.160345 -203.805063 
L 472.769999 -189.865042 
L 452.709836 -172.346674 
L 426.847789 -165.18765 
L 390.39728 -131.104139 
L 364.535233 -96.653318 
L 348.144886 -68.138401 
z
" style="stroke: #56b4e9; stroke-opacity: 0.05"/>
    </defs>
    <g clip-path="url(#ped00588d7e)">
     <use xlink:href="#mc64534f5b0" x="0" y="270.315469" style="fill: #56b4e9; fill-opacity: 0.05; stroke: #56b4e9; stroke-opacity: 0.05"/>
    </g>
   </g>
   <g id="FillBetweenPolyCollection_10">
    <defs>
     <path id="m026713215a" d="M 348.144886 -79.868546 
L 348.144886 -42.552754 
L 364.535233 -41.451512 
L 390.39728 -46.368053 
L 426.847789 -45.641522 
L 452.709836 -50.229216 
L 472.769999 -54.765495 
L 489.160345 -55.789277 
L 503.018185 -57.284744 
L 543.650751 -57.425442 
L 601.78125 -51.396077 
L 601.78125 -260.260423 
L 601.78125 -260.260423 
L 543.650751 -246.839058 
L 503.018185 -236.630956 
L 489.160345 -231.473623 
L 472.769999 -225.844605 
L 452.709836 -217.814484 
L 426.847789 -201.704578 
L 390.39728 -155.147647 
L 364.535233 -109.059388 
L 348.144886 -79.868546 
z
" style="stroke: #0173b2; stroke-opacity: 0.05"/>
    </defs>
    <g clip-path="url(#ped00588d7e)">
     <use xlink:href="#m026713215a" x="0" y="270.315469" style="fill: #0173b2; fill-opacity: 0.05; stroke: #0173b2; stroke-opacity: 0.05"/>
    </g>
   </g>
   <g id="FillBetweenPolyCollection_11">
    <defs>
     <path id="mbaf6a079a8" d="M 348.144886 -80.895364 
L 348.144886 -35.612336 
L 364.535233 -34.553509 
L 390.39728 -32.75186 
L 426.847789 -35.374606 
L 452.709836 -43.901188 
L 472.769999 -57.956808 
L 489.160345 -66.754327 
L 503.018185 -67.234755 
L 543.650751 -91.732242 
L 601.78125 -118.15087 
L 601.78125 -281.47043 
L 601.78125 -281.47043 
L 543.650751 -265.754658 
L 503.018185 -233.333745 
L 489.160345 -220.508573 
L 472.769999 -207.130092 
L 452.709836 -190.878512 
L 426.847789 -167.619494 
L 390.39728 -123.67264 
L 364.535233 -90.824591 
L 348.144886 -80.895364 
z
" style="stroke: #ece133; stroke-opacity: 0.05"/>
    </defs>
    <g clip-path="url(#ped00588d7e)">
     <use xlink:href="#mbaf6a079a8" x="0" y="270.315469" style="fill: #ece133; fill-opacity: 0.05; stroke: #ece133; stroke-opacity: 0.05"/>
    </g>
   </g>
   <g id="FillBetweenPolyCollection_12">
    <defs>
     <path id="mb6a345e124" d="M 348.144886 -96.934072 
L 348.144886 -32.140028 
L 364.535233 -33.59242 
L 390.39728 -34.925247 
L 426.847789 -50.604251 
L 452.709836 -58.957387 
L 472.769999 -73.257 
L 489.160345 -77.74512 
L 503.018185 -88.664229 
L 543.650751 -107.883429 
L 601.78125 -138.729987 
L 601.78125 -285.284913 
L 601.78125 -285.284913 
L 543.650751 -279.171471 
L 503.018185 -259.952271 
L 489.160345 -247.95618 
L 472.769999 -236.1819 
L 452.709836 -220.913513 
L 426.847789 -194.524249 
L 390.39728 -140.718453 
L 364.535233 -108.04808 
L 348.144886 -96.934072 
z
" style="stroke: #de8f05; stroke-opacity: 0.05"/>
    </defs>
    <g clip-path="url(#ped00588d7e)">
     <use xlink:href="#mb6a345e124" x="0" y="270.315469" style="fill: #de8f05; fill-opacity: 0.05; stroke: #de8f05; stroke-opacity: 0.05"/>
    </g>
   </g>
   <g id="FillBetweenPolyCollection_13">
    <defs>
     <path id="mcb1b78b28f" d="M 348.144886 -119.791786 
L 348.144886 -46.242314 
L 364.535233 -44.830797 
L 390.39728 -46.869873 
L 426.847789 -56.023224 
L 452.709836 -69.462638 
L 472.769999 -80.211135 
L 489.160345 -84.60646 
L 503.018185 -97.14065 
L 543.650751 -115.849873 
L 601.78125 -134.548878 
L 601.78125 -285.770022 
L 601.78125 -285.770022 
L 543.650751 -282.293027 
L 503.018185 -267.73825 
L 489.160345 -255.87884 
L 472.769999 -244.011765 
L 452.709836 -229.627462 
L 426.847789 -194.279676 
L 390.39728 -153.906627 
L 364.535233 -138.944103 
L 348.144886 -119.791786 
z
" style="stroke: #fbafe4; stroke-opacity: 0.05"/>
    </defs>
    <g clip-path="url(#ped00588d7e)">
     <use xlink:href="#mcb1b78b28f" x="0" y="270.315469" style="fill: #fbafe4; fill-opacity: 0.05; stroke: #fbafe4; stroke-opacity: 0.05"/>
    </g>
   </g>
   <g id="FillBetweenPolyCollection_14">
    <defs>
     <path id="m8fcc64912d" d="M 348.144886 -127.102406 
L 348.144886 -39.670894 
L 364.535233 -43.310518 
L 390.39728 -52.08235 
L 426.847789 -70.220958 
L 452.709836 -84.075466 
L 472.769999 -100.079593 
L 489.160345 -105.599341 
L 503.018185 -112.762219 
L 543.650751 -135.63669 
L 601.78125 -154.501378 
L 601.78125 -299.820722 
L 601.78125 -299.820722 
L 543.650751 -290.59581 
L 503.018185 -274.292681 
L 489.160345 -266.671559 
L 472.769999 -258.146507 
L 452.709836 -246.061034 
L 426.847789 -217.781142 
L 390.39728 -176.04455 
L 364.535233 -138.246782 
L 348.144886 -127.102406 
z
" style="stroke: #cc78bc; stroke-opacity: 0.05"/>
    </defs>
    <g clip-path="url(#ped00588d7e)">
     <use xlink:href="#m8fcc64912d" x="0" y="270.315469" style="fill: #cc78bc; fill-opacity: 0.05; stroke: #cc78bc; stroke-opacity: 0.05"/>
    </g>
   </g>
   <g id="FillBetweenPolyCollection_15">
    <defs>
     <path id="mec783e06a0" d="M 348.144886 -131.991787 
L 348.144886 -53.323113 
L 364.535233 -54.275382 
L 390.39728 -55.401302 
L 426.847789 -65.821994 
L 452.709836 -76.804815 
L 472.769999 -90.085245 
L 489.160345 -102.093081 
L 503.018185 -111.533696 
L 543.650751 -122.831044 
L 601.78125 -145.256251 
L 601.78125 -290.585849 
L 601.78125 -290.585849 
L 543.650751 -284.921456 
L 503.018185 -274.042804 
L 489.160345 -265.742619 
L 472.769999 -245.964855 
L 452.709836 -236.330085 
L 426.847789 -211.092106 
L 390.39728 -173.464798 
L 364.535233 -151.675518 
L 348.144886 -131.991787 
z
" style="stroke: #ca9161; stroke-opacity: 0.05"/>
    </defs>
    <g clip-path="url(#ped00588d7e)">
     <use xlink:href="#mec783e06a0" x="0" y="270.315469" style="fill: #ca9161; fill-opacity: 0.05; stroke: #ca9161; stroke-opacity: 0.05"/>
    </g>
   </g>
   <g id="FillBetweenPolyCollection_16">
    <defs>
     <path id="m2c7fe15b94" d="M 348.144886 -136.963153 
L 348.144886 -50.450885 
L 364.535233 -51.08664 
L 390.39728 -53.39278 
L 426.847789 -67.933455 
L 452.709836 -86.93592 
L 472.769999 -99.628536 
L 489.160345 -112.978955 
L 503.018185 -120.589989 
L 543.650751 -138.186338 
L 601.78125 -154.574317 
L 601.78125 -297.530183 
L 601.78125 -297.530183 
L 543.650751 -288.785362 
L 503.018185 -273.856911 
L 489.160345 -271.858345 
L 472.769999 -260.075964 
L 452.709836 -247.63578 
L 426.847789 -228.939045 
L 390.39728 -179.90852 
L 364.535233 -157.764198 
L 348.144886 -136.963153 
z
" style="stroke: #d55e00; stroke-opacity: 0.05"/>
    </defs>
    <g clip-path="url(#ped00588d7e)">
     <use xlink:href="#m2c7fe15b94" x="0" y="270.315469" style="fill: #d55e00; fill-opacity: 0.05; stroke: #d55e00; stroke-opacity: 0.05"/>
    </g>
   </g>
   <g id="matplotlib.axis_3">
    <g id="xtick_7">
     <g id="line2d_21">
      <g>
       <use xlink:href="#maa92311a02" x="348.144886" y="232.759219" style="stroke: #000000; stroke-width: 0.8"/>
      </g>
     </g>
     <g id="text_15">
      <!-- 120 -->
      <g transform="translate(338.601136 247.357656) scale(0.1 -0.1)">
       <use xlink:href="#DejaVuSans-31"/>
       <use xlink:href="#DejaVuSans-32" transform="translate(63.623047 0)"/>
       <use xlink:href="#DejaVuSans-30" transform="translate(127.246094 0)"/>
      </g>
     </g>
    </g>
    <g id="xtick_8">
     <g id="line2d_22">
      <g>
       <use xlink:href="#maa92311a02" x="390.39728" y="232.759219" style="stroke: #000000; stroke-width: 0.8"/>
      </g>
     </g>
     <g id="text_16">
      <!-- 192 -->
      <g transform="translate(380.85353 247.357656) scale(0.1 -0.1)">
       <use xlink:href="#DejaVuSans-31"/>
       <use xlink:href="#DejaVuSans-39" transform="translate(63.623047 0)"/>
       <use xlink:href="#DejaVuSans-32" transform="translate(127.246094 0)"/>
      </g>
     </g>
    </g>
    <g id="xtick_9">
     <g id="line2d_23">
      <g>
       <use xlink:href="#maa92311a02" x="426.847789" y="232.759219" style="stroke: #000000; stroke-width: 0.8"/>
      </g>
     </g>
     <g id="text_17">
      <!-- 288 -->
      <g transform="translate(417.304039 247.357656) scale(0.1 -0.1)">
       <use xlink:href="#DejaVuSans-32"/>
       <use xlink:href="#DejaVuSans-38" transform="translate(63.623047 0)"/>
       <use xlink:href="#DejaVuSans-38" transform="translate(127.246094 0)"/>
      </g>
     </g>
    </g>
    <g id="xtick_10">
     <g id="line2d_24">
      <g>
       <use xlink:href="#maa92311a02" x="472.769999" y="232.759219" style="stroke: #000000; stroke-width: 0.8"/>
      </g>
     </g>
     <g id="text_18">
      <!-- 480 -->
      <g transform="translate(463.226249 247.357656) scale(0.1 -0.1)">
       <use xlink:href="#DejaVuSans-34"/>
       <use xlink:href="#DejaVuSans-38" transform="translate(63.623047 0)"/>
       <use xlink:href="#DejaVuSans-30" transform="translate(127.246094 0)"/>
      </g>
     </g>
    </g>
    <g id="xtick_11">
     <g id="line2d_25">
      <g>
       <use xlink:href="#maa92311a02" x="543.650751" y="232.759219" style="stroke: #000000; stroke-width: 0.8"/>
      </g>
     </g>
     <g id="text_19">
      <!-- 1056 -->
      <g transform="translate(530.925751 247.357656) scale(0.1 -0.1)">
       <use xlink:href="#DejaVuSans-31"/>
       <use xlink:href="#DejaVuSans-30" transform="translate(63.623047 0)"/>
       <use xlink:href="#DejaVuSans-35" transform="translate(127.246094 0)"/>
       <use xlink:href="#DejaVuSans-36" transform="translate(190.869141 0)"/>
      </g>
     </g>
    </g>
    <g id="xtick_12">
     <g id="line2d_26">
      <g>
       <use xlink:href="#maa92311a02" x="601.78125" y="232.759219" style="stroke: #000000; stroke-width: 0.8"/>
      </g>
     </g>
     <g id="text_20">
      <!-- 2016 -->
      <g transform="translate(589.05625 247.357656) scale(0.1 -0.1)">
       <use xlink:href="#DejaVuSans-32"/>
       <use xlink:href="#DejaVuSans-30" transform="translate(63.623047 0)"/>
       <use xlink:href="#DejaVuSans-31" transform="translate(127.246094 0)"/>
       <use xlink:href="#DejaVuSans-36" transform="translate(190.869141 0)"/>
      </g>
     </g>
    </g>
    <g id="text_21">
     <!-- Total number of variants -->
     <g transform="translate(413.920099 261.035781) scale(0.1 -0.1)">
      <use xlink:href="#DejaVuSans-54"/>
      <use xlink:href="#DejaVuSans-6f" transform="translate(44.083984 0)"/>
      <use xlink:href="#DejaVuSans-74" transform="translate(105.265625 0)"/>
      <use xlink:href="#DejaVuSans-61" transform="translate(144.474609 0)"/>
      <use xlink:href="#DejaVuSans-6c" transform="translate(205.753906 0)"/>
      <use xlink:href="#DejaVuSans-20" transform="translate(233.537109 0)"/>
      <use xlink:href="#DejaVuSans-6e" transform="translate(265.324219 0)"/>
      <use xlink:href="#DejaVuSans-75" transform="translate(328.703125 0)"/>
      <use xlink:href="#DejaVuSans-6d" transform="translate(392.082031 0)"/>
      <use xlink:href="#DejaVuSans-62" transform="translate(489.494141 0)"/>
      <use xlink:href="#DejaVuSans-65" transform="translate(552.970703 0)"/>
      <use xlink:href="#DejaVuSans-72" transform="translate(614.494141 0)"/>
      <use xlink:href="#DejaVuSans-20" transform="translate(655.607422 0)"/>
      <use xlink:href="#DejaVuSans-6f" transform="translate(687.394531 0)"/>
      <use xlink:href="#DejaVuSans-66" transform="translate(748.576172 0)"/>
      <use xlink:href="#DejaVuSans-20" transform="translate(783.78125 0)"/>
      <use xlink:href="#DejaVuSans-76" transform="translate(815.568359 0)"/>
      <use xlink:href="#DejaVuSans-61" transform="translate(874.748047 0)"/>
      <use xlink:href="#DejaVuSans-72" transform="translate(936.027344 0)"/>
      <use xlink:href="#DejaVuSans-69" transform="translate(977.140625 0)"/>
      <use xlink:href="#DejaVuSans-61" transform="translate(1004.923828 0)"/>
      <use xlink:href="#DejaVuSans-6e" transform="translate(1066.203125 0)"/>
      <use xlink:href="#DejaVuSans-74" transform="translate(1129.582031 0)"/>
      <use xlink:href="#DejaVuSans-73" transform="translate(1168.791016 0)"/>
     </g>
    </g>
   </g>
   <g id="matplotlib.axis_4">
    <g id="ytick_7">
     <g id="line2d_27">
      <g>
       <use xlink:href="#m025d4e77fa" x="348.144886" y="232.759219" style="stroke: #000000; stroke-width: 0.8"/>
      </g>
     </g>
     <g id="text_22">
      <!-- 0.0 -->
      <g transform="translate(325.241761 236.558437) scale(0.1 -0.1)">
       <use xlink:href="#DejaVuSans-30"/>
       <use xlink:href="#DejaVuSans-2e" transform="translate(63.623047 0)"/>
       <use xlink:href="#DejaVuSans-30" transform="translate(95.410156 0)"/>
      </g>
     </g>
    </g>
    <g id="ytick_8">
     <g id="line2d_28">
      <g>
       <use xlink:href="#m025d4e77fa" x="348.144886" y="188.407219" style="stroke: #000000; stroke-width: 0.8"/>
      </g>
     </g>
     <g id="text_23">
      <!-- 0.2 -->
      <g transform="translate(325.241761 192.206437) scale(0.1 -0.1)">
       <use xlink:href="#DejaVuSans-30"/>
       <use xlink:href="#DejaVuSans-2e" transform="translate(63.623047 0)"/>
       <use xlink:href="#DejaVuSans-32" transform="translate(95.410156 0)"/>
      </g>
     </g>
    </g>
    <g id="ytick_9">
     <g id="line2d_29">
      <g>
       <use xlink:href="#m025d4e77fa" x="348.144886" y="144.055219" style="stroke: #000000; stroke-width: 0.8"/>
      </g>
     </g>
     <g id="text_24">
      <!-- 0.4 -->
      <g transform="translate(325.241761 147.854437) scale(0.1 -0.1)">
       <use xlink:href="#DejaVuSans-30"/>
       <use xlink:href="#DejaVuSans-2e" transform="translate(63.623047 0)"/>
       <use xlink:href="#DejaVuSans-34" transform="translate(95.410156 0)"/>
      </g>
     </g>
    </g>
    <g id="ytick_10">
     <g id="line2d_30">
      <g>
       <use xlink:href="#m025d4e77fa" x="348.144886" y="99.703219" style="stroke: #000000; stroke-width: 0.8"/>
      </g>
     </g>
     <g id="text_25">
      <!-- 0.6 -->
      <g transform="translate(325.241761 103.502437) scale(0.1 -0.1)">
       <use xlink:href="#DejaVuSans-30"/>
       <use xlink:href="#DejaVuSans-2e" transform="translate(63.623047 0)"/>
       <use xlink:href="#DejaVuSans-36" transform="translate(95.410156 0)"/>
      </g>
     </g>
    </g>
    <g id="ytick_11">
     <g id="line2d_31">
      <g>
       <use xlink:href="#m025d4e77fa" x="348.144886" y="55.351219" style="stroke: #000000; stroke-width: 0.8"/>
      </g>
     </g>
     <g id="text_26">
      <!-- 0.8 -->
      <g transform="translate(325.241761 59.150437) scale(0.1 -0.1)">
       <use xlink:href="#DejaVuSans-30"/>
       <use xlink:href="#DejaVuSans-2e" transform="translate(63.623047 0)"/>
       <use xlink:href="#DejaVuSans-38" transform="translate(95.410156 0)"/>
      </g>
     </g>
    </g>
    <g id="ytick_12">
     <g id="line2d_32">
      <g>
       <use xlink:href="#m025d4e77fa" x="348.144886" y="10.999219" style="stroke: #000000; stroke-width: 0.8"/>
      </g>
     </g>
     <g id="text_27">
      <!-- 1.0 -->
      <g transform="translate(325.241761 14.798437) scale(0.1 -0.1)">
       <use xlink:href="#DejaVuSans-31"/>
       <use xlink:href="#DejaVuSans-2e" transform="translate(63.623047 0)"/>
       <use xlink:href="#DejaVuSans-30" transform="translate(95.410156 0)"/>
      </g>
     </g>
    </g>
    <g id="text_28">
     <!-- Fraction reaching the global optimum -->
     <g transform="translate(319.162074 215.876094) rotate(-90) scale(0.1 -0.1)">
      <defs>
       <path id="DejaVuSans-46" d="M 628 4666 
L 3309 4666 
L 3309 4134 
L 1259 4134 
L 1259 2759 
L 3109 2759 
L 3109 2228 
L 1259 2228 
L 1259 0 
L 628 0 
L 628 4666 
z
" transform="scale(0.015625)"/>
       <path id="DejaVuSans-70" d="M 1159 525 
L 1159 -1331 
L 581 -1331 
L 581 3500 
L 1159 3500 
L 1159 2969 
Q 1341 3281 1617 3432 
Q 1894 3584 2278 3584 
Q 2916 3584 3314 3078 
Q 3713 2572 3713 1747 
Q 3713 922 3314 415 
Q 2916 -91 2278 -91 
Q 1894 -91 1617 61 
Q 1341 213 1159 525 
z
M 3116 1747 
Q 3116 2381 2855 2742 
Q 2594 3103 2138 3103 
Q 1681 3103 1420 2742 
Q 1159 2381 1159 1747 
Q 1159 1113 1420 752 
Q 1681 391 2138 391 
Q 2594 391 2855 752 
Q 3116 1113 3116 1747 
z
" transform="scale(0.015625)"/>
      </defs>
      <use xlink:href="#DejaVuSans-46"/>
      <use xlink:href="#DejaVuSans-72" transform="translate(50.269531 0)"/>
      <use xlink:href="#DejaVuSans-61" transform="translate(91.382812 0)"/>
      <use xlink:href="#DejaVuSans-63" transform="translate(152.662109 0)"/>
      <use xlink:href="#DejaVuSans-74" transform="translate(207.642578 0)"/>
      <use xlink:href="#DejaVuSans-69" transform="translate(246.851562 0)"/>
      <use xlink:href="#DejaVuSans-6f" transform="translate(274.634766 0)"/>
      <use xlink:href="#DejaVuSans-6e" transform="translate(335.816406 0)"/>
      <use xlink:href="#DejaVuSans-20" transform="translate(399.195312 0)"/>
      <use xlink:href="#DejaVuSans-72" transform="translate(430.982422 0)"/>
      <use xlink:href="#DejaVuSans-65" transform="translate(469.845703 0)"/>
      <use xlink:href="#DejaVuSans-61" transform="translate(531.369141 0)"/>
      <use xlink:href="#DejaVuSans-63" transform="translate(592.648438 0)"/>
      <use xlink:href="#DejaVuSans-68" transform="translate(647.628906 0)"/>
      <use xlink:href="#DejaVuSans-69" transform="translate(711.007812 0)"/>
      <use xlink:href="#DejaVuSans-6e" transform="translate(738.791016 0)"/>
      <use xlink:href="#DejaVuSans-67" transform="translate(802.169922 0)"/>
      <use xlink:href="#DejaVuSans-20" transform="translate(865.646484 0)"/>
      <use xlink:href="#DejaVuSans-74" transform="translate(897.433594 0)"/>
      <use xlink:href="#DejaVuSans-68" transform="translate(936.642578 0)"/>
      <use xlink:href="#DejaVuSans-65" transform="translate(1000.021484 0)"/>
      <use xlink:href="#DejaVuSans-20" transform="translate(1061.544922 0)"/>
      <use xlink:href="#DejaVuSans-67" transform="translate(1093.332031 0)"/>
      <use xlink:href="#DejaVuSans-6c" transform="translate(1156.808594 0)"/>
      <use xlink:href="#DejaVuSans-6f" transform="translate(1184.591797 0)"/>
      <use xlink:href="#DejaVuSans-62" transform="translate(1245.773438 0)"/>
      <use xlink:href="#DejaVuSans-61" transform="translate(1309.25 0)"/>
      <use xlink:href="#DejaVuSans-6c" transform="translate(1370.529297 0)"/>
      <use xlink:href="#DejaVuSans-20" transform="translate(1398.3125 0)"/>
      <use xlink:href="#DejaVuSans-6f" transform="translate(1430.099609 0)"/>
      <use xlink:href="#DejaVuSans-70" transform="translate(1491.28125 0)"/>
      <use xlink:href="#DejaVuSans-74" transform="translate(1554.757812 0)"/>
      <use xlink:href="#DejaVuSans-69" transform="translate(1593.966797 0)"/>
      <use xlink:href="#DejaVuSans-6d" transform="translate(1621.75 0)"/>
      <use xlink:href="#DejaVuSans-75" transform="translate(1719.162109 0)"/>
      <use xlink:href="#DejaVuSans-6d" transform="translate(1782.541016 0)"/>
     </g>
    </g>
   </g>
   <g id="line2d_33">
    <path d="M 348.144886 216.496819 
L 364.535233 201.712819 
L 390.39728 183.232819 
L 426.847789 170.296819 
L 452.709836 161.056819 
L 472.769999 152.186419 
L 489.160345 141.837619 
L 503.018185 134.445619 
L 543.650751 107.464819 
L 601.78125 93.050419 
" clip-path="url(#ped00588d7e)" style="fill: none; stroke-dasharray: 12,4; stroke-dashoffset: 0; stroke: #56b4e9; stroke-width: 2"/>
    <g clip-path="url(#ped00588d7e)">
     <use xlink:href="#mf8a314e498" x="348.144886" y="216.496819" style="fill: #56b4e9; stroke: #56b4e9"/>
     <use xlink:href="#mf8a314e498" x="364.535233" y="201.712819" style="fill: #56b4e9; stroke: #56b4e9"/>
     <use xlink:href="#mf8a314e498" x="390.39728" y="183.232819" style="fill: #56b4e9; stroke: #56b4e9"/>
     <use xlink:href="#mf8a314e498" x="426.847789" y="170.296819" style="fill: #56b4e9; stroke: #56b4e9"/>
     <use xlink:href="#mf8a314e498" x="452.709836" y="161.056819" style="fill: #56b4e9; stroke: #56b4e9"/>
     <use xlink:href="#mf8a314e498" x="472.769999" y="152.186419" style="fill: #56b4e9; stroke: #56b4e9"/>
     <use xlink:href="#mf8a314e498" x="489.160345" y="141.837619" style="fill: #56b4e9; stroke: #56b4e9"/>
     <use xlink:href="#mf8a314e498" x="503.018185" y="134.445619" style="fill: #56b4e9; stroke: #56b4e9"/>
     <use xlink:href="#mf8a314e498" x="543.650751" y="107.464819" style="fill: #56b4e9; stroke: #56b4e9"/>
     <use xlink:href="#mf8a314e498" x="601.78125" y="93.050419" style="fill: #56b4e9; stroke: #56b4e9"/>
    </g>
   </g>
   <g id="line2d_34">
    <path d="M 348.144886 209.104819 
L 364.535233 195.060019 
L 390.39728 169.557619 
L 426.847789 146.642419 
L 452.709836 136.293619 
L 472.769999 130.010419 
L 489.160345 126.684019 
L 503.018185 123.357619 
L 543.650751 118.183219 
L 601.78125 114.487219 
" clip-path="url(#ped00588d7e)" style="fill: none; stroke: #0173b2; stroke-width: 2; stroke-linecap: square"/>
    <g clip-path="url(#ped00588d7e)">
     <use xlink:href="#m5eb31cfb4d" x="348.144886" y="209.104819" style="fill: #0173b2; stroke: #0173b2"/>
     <use xlink:href="#m5eb31cfb4d" x="364.535233" y="195.060019" style="fill: #0173b2; stroke: #0173b2"/>
     <use xlink:href="#m5eb31cfb4d" x="390.39728" y="169.557619" style="fill: #0173b2; stroke: #0173b2"/>
     <use xlink:href="#m5eb31cfb4d" x="426.847789" y="146.642419" style="fill: #0173b2; stroke: #0173b2"/>
     <use xlink:href="#m5eb31cfb4d" x="452.709836" y="136.293619" style="fill: #0173b2; stroke: #0173b2"/>
     <use xlink:href="#m5eb31cfb4d" x="472.769999" y="130.010419" style="fill: #0173b2; stroke: #0173b2"/>
     <use xlink:href="#m5eb31cfb4d" x="489.160345" y="126.684019" style="fill: #0173b2; stroke: #0173b2"/>
     <use xlink:href="#m5eb31cfb4d" x="503.018185" y="123.357619" style="fill: #0173b2; stroke: #0173b2"/>
     <use xlink:href="#m5eb31cfb4d" x="543.650751" y="118.183219" style="fill: #0173b2; stroke: #0173b2"/>
     <use xlink:href="#m5eb31cfb4d" x="601.78125" y="114.487219" style="fill: #0173b2; stroke: #0173b2"/>
    </g>
   </g>
   <g id="line2d_35">
    <path d="M 348.144886 212.061619 
L 364.535233 207.626419 
L 390.39728 192.103219 
L 426.847789 168.818419 
L 452.709836 152.925619 
L 472.769999 137.772019 
L 489.160345 126.684019 
L 503.018185 120.031219 
L 543.650751 91.572019 
L 601.78125 70.504819 
" clip-path="url(#ped00588d7e)" style="fill: none; stroke-dasharray: 2,3.3; stroke-dashoffset: 0; stroke: #ece133; stroke-width: 2"/>
    <g clip-path="url(#ped00588d7e)">
     <use xlink:href="#m9ac08e9109" x="348.144886" y="212.061619" style="fill: #ece133; stroke: #ece133"/>
     <use xlink:href="#m9ac08e9109" x="364.535233" y="207.626419" style="fill: #ece133; stroke: #ece133"/>
     <use xlink:href="#m9ac08e9109" x="390.39728" y="192.103219" style="fill: #ece133; stroke: #ece133"/>
     <use xlink:href="#m9ac08e9109" x="426.847789" y="168.818419" style="fill: #ece133; stroke: #ece133"/>
     <use xlink:href="#m9ac08e9109" x="452.709836" y="152.925619" style="fill: #ece133; stroke: #ece133"/>
     <use xlink:href="#m9ac08e9109" x="472.769999" y="137.772019" style="fill: #ece133; stroke: #ece133"/>
     <use xlink:href="#m9ac08e9109" x="489.160345" y="126.684019" style="fill: #ece133; stroke: #ece133"/>
     <use xlink:href="#m9ac08e9109" x="503.018185" y="120.031219" style="fill: #ece133; stroke: #ece133"/>
     <use xlink:href="#m9ac08e9109" x="543.650751" y="91.572019" style="fill: #ece133; stroke: #ece133"/>
     <use xlink:href="#m9ac08e9109" x="601.78125" y="70.504819" style="fill: #ece133; stroke: #ece133"/>
    </g>
   </g>
   <g id="line2d_36">
    <path d="M 348.144886 205.778419 
L 364.535233 199.495219 
L 390.39728 182.493619 
L 426.847789 147.751219 
L 452.709836 130.380019 
L 472.769999 115.596019 
L 489.160345 107.464819 
L 503.018185 96.007219 
L 543.650751 76.788019 
L 601.78125 58.308019 
" clip-path="url(#ped00588d7e)" style="fill: none; stroke: #de8f05; stroke-width: 2; stroke-linecap: square"/>
    <g clip-path="url(#ped00588d7e)">
     <use xlink:href="#mbe89b5c570" x="348.144886" y="205.778419" style="fill: #de8f05; stroke: #de8f05"/>
     <use xlink:href="#mbe89b5c570" x="364.535233" y="199.495219" style="fill: #de8f05; stroke: #de8f05"/>
     <use xlink:href="#mbe89b5c570" x="390.39728" y="182.493619" style="fill: #de8f05; stroke: #de8f05"/>
     <use xlink:href="#mbe89b5c570" x="426.847789" y="147.751219" style="fill: #de8f05; stroke: #de8f05"/>
     <use xlink:href="#mbe89b5c570" x="452.709836" y="130.380019" style="fill: #de8f05; stroke: #de8f05"/>
     <use xlink:href="#mbe89b5c570" x="472.769999" y="115.596019" style="fill: #de8f05; stroke: #de8f05"/>
     <use xlink:href="#mbe89b5c570" x="489.160345" y="107.464819" style="fill: #de8f05; stroke: #de8f05"/>
     <use xlink:href="#mbe89b5c570" x="503.018185" y="96.007219" style="fill: #de8f05; stroke: #de8f05"/>
     <use xlink:href="#mbe89b5c570" x="543.650751" y="76.788019" style="fill: #de8f05; stroke: #de8f05"/>
     <use xlink:href="#mbe89b5c570" x="601.78125" y="58.308019" style="fill: #de8f05; stroke: #de8f05"/>
    </g>
   </g>
   <g id="line2d_37">
    <path d="M 348.144886 187.298419 
L 364.535233 178.428019 
L 390.39728 169.927219 
L 426.847789 145.164019 
L 452.709836 120.770419 
L 472.769999 108.204019 
L 489.160345 100.072819 
L 503.018185 87.876019 
L 543.650751 71.244019 
L 601.78125 60.156019 
" clip-path="url(#ped00588d7e)" style="fill: none; stroke-dasharray: 2,3.3; stroke-dashoffset: 0; stroke: #fbafe4; stroke-width: 2"/>
    <g clip-path="url(#ped00588d7e)">
     <use xlink:href="#mce8b0cf2c1" x="348.144886" y="187.298419" style="fill: #fbafe4; stroke: #fbafe4"/>
     <use xlink:href="#mce8b0cf2c1" x="364.535233" y="178.428019" style="fill: #fbafe4; stroke: #fbafe4"/>
     <use xlink:href="#mce8b0cf2c1" x="390.39728" y="169.927219" style="fill: #fbafe4; stroke: #fbafe4"/>
     <use xlink:href="#mce8b0cf2c1" x="426.847789" y="145.164019" style="fill: #fbafe4; stroke: #fbafe4"/>
     <use xlink:href="#mce8b0cf2c1" x="452.709836" y="120.770419" style="fill: #fbafe4; stroke: #fbafe4"/>
     <use xlink:href="#mce8b0cf2c1" x="472.769999" y="108.204019" style="fill: #fbafe4; stroke: #fbafe4"/>
     <use xlink:href="#mce8b0cf2c1" x="489.160345" y="100.072819" style="fill: #fbafe4; stroke: #fbafe4"/>
     <use xlink:href="#mce8b0cf2c1" x="503.018185" y="87.876019" style="fill: #fbafe4; stroke: #fbafe4"/>
     <use xlink:href="#mce8b0cf2c1" x="543.650751" y="71.244019" style="fill: #fbafe4; stroke: #fbafe4"/>
     <use xlink:href="#mce8b0cf2c1" x="601.78125" y="60.156019" style="fill: #fbafe4; stroke: #fbafe4"/>
    </g>
   </g>
   <g id="line2d_38">
    <path d="M 348.144886 186.928819 
L 364.535233 179.536819 
L 390.39728 156.252019 
L 426.847789 126.314419 
L 452.709836 105.247219 
L 472.769999 91.202419 
L 489.160345 84.180019 
L 503.018185 76.788019 
L 543.650751 57.199219 
L 601.78125 43.154419 
" clip-path="url(#ped00588d7e)" style="fill: none; stroke: #cc78bc; stroke-width: 2; stroke-linecap: square"/>
    <g clip-path="url(#ped00588d7e)">
     <use xlink:href="#m8bcbd74d57" x="348.144886" y="186.928819" style="fill: #cc78bc; stroke: #cc78bc"/>
     <use xlink:href="#m8bcbd74d57" x="364.535233" y="179.536819" style="fill: #cc78bc; stroke: #cc78bc"/>
     <use xlink:href="#m8bcbd74d57" x="390.39728" y="156.252019" style="fill: #cc78bc; stroke: #cc78bc"/>
     <use xlink:href="#m8bcbd74d57" x="426.847789" y="126.314419" style="fill: #cc78bc; stroke: #cc78bc"/>
     <use xlink:href="#m8bcbd74d57" x="452.709836" y="105.247219" style="fill: #cc78bc; stroke: #cc78bc"/>
     <use xlink:href="#m8bcbd74d57" x="472.769999" y="91.202419" style="fill: #cc78bc; stroke: #cc78bc"/>
     <use xlink:href="#m8bcbd74d57" x="489.160345" y="84.180019" style="fill: #cc78bc; stroke: #cc78bc"/>
     <use xlink:href="#m8bcbd74d57" x="503.018185" y="76.788019" style="fill: #cc78bc; stroke: #cc78bc"/>
     <use xlink:href="#m8bcbd74d57" x="543.650751" y="57.199219" style="fill: #cc78bc; stroke: #cc78bc"/>
     <use xlink:href="#m8bcbd74d57" x="601.78125" y="43.154419" style="fill: #cc78bc; stroke: #cc78bc"/>
    </g>
   </g>
   <g id="line2d_39">
    <path d="M 348.144886 177.658019 
L 364.535233 167.340019 
L 390.39728 155.882419 
L 426.847789 131.858419 
L 452.709836 113.748019 
L 472.769999 102.290419 
L 489.160345 86.397619 
L 503.018185 77.527219 
L 543.650751 66.439219 
L 601.78125 52.394419 
" clip-path="url(#ped00588d7e)" style="fill: none; stroke-dasharray: 2,3.3; stroke-dashoffset: 0; stroke: #ca9161; stroke-width: 2"/>
    <g clip-path="url(#ped00588d7e)">
     <use xlink:href="#m4f6fb9a5af" x="348.144886" y="177.658019" style="fill: #ca9161; stroke: #ca9161"/>
     <use xlink:href="#m4f6fb9a5af" x="364.535233" y="167.340019" style="fill: #ca9161; stroke: #ca9161"/>
     <use xlink:href="#m4f6fb9a5af" x="390.39728" y="155.882419" style="fill: #ca9161; stroke: #ca9161"/>
     <use xlink:href="#m4f6fb9a5af" x="426.847789" y="131.858419" style="fill: #ca9161; stroke: #ca9161"/>
     <use xlink:href="#m4f6fb9a5af" x="452.709836" y="113.748019" style="fill: #ca9161; stroke: #ca9161"/>
     <use xlink:href="#m4f6fb9a5af" x="472.769999" y="102.290419" style="fill: #ca9161; stroke: #ca9161"/>
     <use xlink:href="#m4f6fb9a5af" x="489.160345" y="86.397619" style="fill: #ca9161; stroke: #ca9161"/>
     <use xlink:href="#m4f6fb9a5af" x="503.018185" y="77.527219" style="fill: #ca9161; stroke: #ca9161"/>
     <use xlink:href="#m4f6fb9a5af" x="543.650751" y="66.439219" style="fill: #ca9161; stroke: #ca9161"/>
     <use xlink:href="#m4f6fb9a5af" x="601.78125" y="52.394419" style="fill: #ca9161; stroke: #ca9161"/>
    </g>
   </g>
   <g id="line2d_40">
    <path d="M 348.144886 176.608449 
L 364.535233 165.890049 
L 390.39728 153.664819 
L 426.847789 121.879219 
L 452.709836 103.029619 
L 472.769999 90.463219 
L 489.160345 77.896819 
L 503.018185 73.092019 
L 543.650751 56.829619 
L 601.78125 44.263219 
" clip-path="url(#ped00588d7e)" style="fill: none; stroke: #d55e00; stroke-width: 2; stroke-linecap: square"/>
    <g clip-path="url(#ped00588d7e)">
     <use xlink:href="#mb681cfd944" x="348.144886" y="176.608449" style="fill: #d55e00; stroke: #d55e00"/>
     <use xlink:href="#mb681cfd944" x="364.535233" y="165.890049" style="fill: #d55e00; stroke: #d55e00"/>
     <use xlink:href="#mb681cfd944" x="390.39728" y="153.664819" style="fill: #d55e00; stroke: #d55e00"/>
     <use xlink:href="#mb681cfd944" x="426.847789" y="121.879219" style="fill: #d55e00; stroke: #d55e00"/>
     <use xlink:href="#mb681cfd944" x="452.709836" y="103.029619" style="fill: #d55e00; stroke: #d55e00"/>
     <use xlink:href="#mb681cfd944" x="472.769999" y="90.463219" style="fill: #d55e00; stroke: #d55e00"/>
     <use xlink:href="#mb681cfd944" x="489.160345" y="77.896819" style="fill: #d55e00; stroke: #d55e00"/>
     <use xlink:href="#mb681cfd944" x="503.018185" y="73.092019" style="fill: #d55e00; stroke: #d55e00"/>
     <use xlink:href="#mb681cfd944" x="543.650751" y="56.829619" style="fill: #d55e00; stroke: #d55e00"/>
     <use xlink:href="#mb681cfd944" x="601.78125" y="44.263219" style="fill: #d55e00; stroke: #d55e00"/>
    </g>
   </g>
   <g id="patch_8">
    <path d="M 348.144886 232.759219 
L 348.144886 10.999219 
" style="fill: none; stroke: #000000; stroke-width: 0.8; stroke-linejoin: miter; stroke-linecap: square"/>
   </g>
   <g id="patch_9">
    <path d="M 601.78125 232.759219 
L 601.78125 10.999219 
" style="fill: none; stroke: #000000; stroke-width: 0.8; stroke-linejoin: miter; stroke-linecap: square"/>
   </g>
   <g id="patch_10">
    <path d="M 348.144886 232.759219 
L 601.78125 232.759219 
" style="fill: none; stroke: #000000; stroke-width: 0.8; stroke-linejoin: miter; stroke-linecap: square"/>
   </g>
   <g id="patch_11">
    <path d="M 348.144886 10.999219 
L 601.78125 10.999219 
" style="fill: none; stroke: #000000; stroke-width: 0.8; stroke-linejoin: miter; stroke-linecap: square"/>
   </g>
   <g id="legend_1">
    <g id="patch_12">
     <path d="M 608.78125 130.880219 
L 732.207812 130.880219 
Q 734.207812 130.880219 734.207812 128.880219 
L 734.207812 12.455219 
Q 734.207812 10.455219 732.207812 10.455219 
L 608.78125 10.455219 
Q 606.78125 10.455219 606.78125 12.455219 
L 606.78125 128.880219 
Q 606.78125 130.880219 608.78125 130.880219 
z
" style="fill: #ffffff; opacity: 0.8; stroke: #cccccc; stroke-linejoin: miter"/>
    </g>
    <g id="line2d_41">
     <path d="M 610.78125 18.553656 
L 620.78125 18.553656 
L 630.78125 18.553656 
" style="fill: none; stroke-dasharray: 12,4; stroke-dashoffset: 0; stroke: #56b4e9; stroke-width: 2"/>
     <g>
      <use xlink:href="#mf8a314e498" x="620.78125" y="18.553656" style="fill: #56b4e9; stroke: #56b4e9"/>
     </g>
    </g>
    <g id="text_29">
     <!-- MLDE boosting -->
     <g transform="translate(638.78125 22.053656) scale(0.1 -0.1)">
      <defs>
       <path id="DejaVuSans-4d" d="M 628 4666 
L 1569 4666 
L 2759 1491 
L 3956 4666 
L 4897 4666 
L 4897 0 
L 4281 0 
L 4281 4097 
L 3078 897 
L 2444 897 
L 1241 4097 
L 1241 0 
L 628 0 
L 628 4666 
z
" transform="scale(0.015625)"/>
       <path id="DejaVuSans-4c" d="M 628 4666 
L 1259 4666 
L 1259 531 
L 3531 531 
L 3531 0 
L 628 0 
L 628 4666 
z
" transform="scale(0.015625)"/>
       <path id="DejaVuSans-44" d="M 1259 4147 
L 1259 519 
L 2022 519 
Q 2988 519 3436 956 
Q 3884 1394 3884 2338 
Q 3884 3275 3436 3711 
Q 2988 4147 2022 4147 
L 1259 4147 
z
M 628 4666 
L 1925 4666 
Q 3281 4666 3915 4102 
Q 4550 3538 4550 2338 
Q 4550 1131 3912 565 
Q 3275 0 1925 0 
L 628 0 
L 628 4666 
z
" transform="scale(0.015625)"/>
       <path id="DejaVuSans-45" d="M 628 4666 
L 3578 4666 
L 3578 4134 
L 1259 4134 
L 1259 2753 
L 3481 2753 
L 3481 2222 
L 1259 2222 
L 1259 531 
L 3634 531 
L 3634 0 
L 628 0 
L 628 4666 
z
" transform="scale(0.015625)"/>
      </defs>
      <use xlink:href="#DejaVuSans-4d"/>
      <use xlink:href="#DejaVuSans-4c" transform="translate(86.279297 0)"/>
      <use xlink:href="#DejaVuSans-44" transform="translate(141.992188 0)"/>
      <use xlink:href="#DejaVuSans-45" transform="translate(218.994141 0)"/>
      <use xlink:href="#DejaVuSans-20" transform="translate(282.177734 0)"/>
      <use xlink:href="#DejaVuSans-62" transform="translate(313.964844 0)"/>
      <use xlink:href="#DejaVuSans-6f" transform="translate(377.441406 0)"/>
      <use xlink:href="#DejaVuSans-6f" transform="translate(438.623047 0)"/>
      <use xlink:href="#DejaVuSans-73" transform="translate(499.804688 0)"/>
      <use xlink:href="#DejaVuSans-74" transform="translate(551.904297 0)"/>
      <use xlink:href="#DejaVuSans-69" transform="translate(591.113281 0)"/>
      <use xlink:href="#DejaVuSans-6e" transform="translate(618.896484 0)"/>
      <use xlink:href="#DejaVuSans-67" transform="translate(682.275391 0)"/>
     </g>
    </g>
    <g id="line2d_42">
     <path d="M 610.78125 33.231781 
L 620.78125 33.231781 
L 630.78125 33.231781 
" style="fill: none; stroke: #0173b2; stroke-width: 2; stroke-linecap: square"/>
     <g>
      <use xlink:href="#m5eb31cfb4d" x="620.78125" y="33.231781" style="fill: #0173b2; stroke: #0173b2"/>
     </g>
    </g>
    <g id="text_30">
     <!-- MLDE ridge -->
     <g transform="translate(638.78125 36.731781) scale(0.1 -0.1)">
      <use xlink:href="#DejaVuSans-4d"/>
      <use xlink:href="#DejaVuSans-4c" transform="translate(86.279297 0)"/>
      <use xlink:href="#DejaVuSans-44" transform="translate(141.992188 0)"/>
      <use xlink:href="#DejaVuSans-45" transform="translate(218.994141 0)"/>
      <use xlink:href="#DejaVuSans-20" transform="translate(282.177734 0)"/>
      <use xlink:href="#DejaVuSans-72" transform="translate(313.964844 0)"/>
      <use xlink:href="#DejaVuSans-69" transform="translate(355.078125 0)"/>
      <use xlink:href="#DejaVuSans-64" transform="translate(382.861328 0)"/>
      <use xlink:href="#DejaVuSans-67" transform="translate(446.337891 0)"/>
      <use xlink:href="#DejaVuSans-65" transform="translate(509.814453 0)"/>
     </g>
    </g>
    <g id="line2d_43">
     <path d="M 610.78125 47.909906 
L 620.78125 47.909906 
L 630.78125 47.909906 
" style="fill: none; stroke-dasharray: 2,3.3; stroke-dashoffset: 0; stroke: #ece133; stroke-width: 2"/>
     <g>
      <use xlink:href="#m9ac08e9109" x="620.78125" y="47.909906" style="fill: #ece133; stroke: #ece133"/>
     </g>
    </g>
    <g id="text_31">
     <!-- ALDE boosting -->
     <g transform="translate(638.78125 51.409906) scale(0.1 -0.1)">
      <use xlink:href="#DejaVuSans-41"/>
      <use xlink:href="#DejaVuSans-4c" transform="translate(68.408203 0)"/>
      <use xlink:href="#DejaVuSans-44" transform="translate(124.121094 0)"/>
      <use xlink:href="#DejaVuSans-45" transform="translate(201.123047 0)"/>
      <use xlink:href="#DejaVuSans-20" transform="translate(264.306641 0)"/>
      <use xlink:href="#DejaVuSans-62" transform="translate(296.09375 0)"/>
      <use xlink:href="#DejaVuSans-6f" transform="translate(359.570312 0)"/>
      <use xlink:href="#DejaVuSans-6f" transform="translate(420.751953 0)"/>
      <use xlink:href="#DejaVuSans-73" transform="translate(481.933594 0)"/>
      <use xlink:href="#DejaVuSans-74" transform="translate(534.033203 0)"/>
      <use xlink:href="#DejaVuSans-69" transform="translate(573.242188 0)"/>
      <use xlink:href="#DejaVuSans-6e" transform="translate(601.025391 0)"/>
      <use xlink:href="#DejaVuSans-67" transform="translate(664.404297 0)"/>
     </g>
    </g>
    <g id="line2d_44">
     <path d="M 610.78125 62.588031 
L 620.78125 62.588031 
L 630.78125 62.588031 
" style="fill: none; stroke: #de8f05; stroke-width: 2; stroke-linecap: square"/>
     <g>
      <use xlink:href="#mbe89b5c570" x="620.78125" y="62.588031" style="fill: #de8f05; stroke: #de8f05"/>
     </g>
    </g>
    <g id="text_32">
     <!-- ALDE DNN -->
     <g transform="translate(638.78125 66.088031) scale(0.1 -0.1)">
      <defs>
       <path id="DejaVuSans-4e" d="M 628 4666 
L 1478 4666 
L 3547 763 
L 3547 4666 
L 4159 4666 
L 4159 0 
L 3309 0 
L 1241 3903 
L 1241 0 
L 628 0 
L 628 4666 
z
" transform="scale(0.015625)"/>
      </defs>
      <use xlink:href="#DejaVuSans-41"/>
      <use xlink:href="#DejaVuSans-4c" transform="translate(68.408203 0)"/>
      <use xlink:href="#DejaVuSans-44" transform="translate(124.121094 0)"/>
      <use xlink:href="#DejaVuSans-45" transform="translate(201.123047 0)"/>
      <use xlink:href="#DejaVuSans-20" transform="translate(264.306641 0)"/>
      <use xlink:href="#DejaVuSans-44" transform="translate(296.09375 0)"/>
      <use xlink:href="#DejaVuSans-4e" transform="translate(373.095703 0)"/>
      <use xlink:href="#DejaVuSans-4e" transform="translate(447.900391 0)"/>
     </g>
    </g>
    <g id="line2d_45">
     <path d="M 610.78125 77.266156 
L 620.78125 77.266156 
L 630.78125 77.266156 
" style="fill: none; stroke-dasharray: 2,3.3; stroke-dashoffset: 0; stroke: #fbafe4; stroke-width: 2"/>
     <g>
      <use xlink:href="#mce8b0cf2c1" x="620.78125" y="77.266156" style="fill: #fbafe4; stroke: #fbafe4"/>
     </g>
    </g>
    <g id="text_33">
     <!-- ALDE boosting x 3 -->
     <g transform="translate(638.78125 80.766156) scale(0.1 -0.1)">
      <defs>
       <path id="DejaVuSans-33" d="M 2597 2516 
Q 3050 2419 3304 2112 
Q 3559 1806 3559 1356 
Q 3559 666 3084 287 
Q 2609 -91 1734 -91 
Q 1441 -91 1130 -33 
Q 819 25 488 141 
L 488 750 
Q 750 597 1062 519 
Q 1375 441 1716 441 
Q 2309 441 2620 675 
Q 2931 909 2931 1356 
Q 2931 1769 2642 2001 
Q 2353 2234 1838 2234 
L 1294 2234 
L 1294 2753 
L 1863 2753 
Q 2328 2753 2575 2939 
Q 2822 3125 2822 3475 
Q 2822 3834 2567 4026 
Q 2313 4219 1838 4219 
Q 1578 4219 1281 4162 
Q 984 4106 628 3988 
L 628 4550 
Q 988 4650 1302 4700 
Q 1616 4750 1894 4750 
Q 2613 4750 3031 4423 
Q 3450 4097 3450 3541 
Q 3450 3153 3228 2886 
Q 3006 2619 2597 2516 
z
" transform="scale(0.015625)"/>
      </defs>
      <use xlink:href="#DejaVuSans-41"/>
      <use xlink:href="#DejaVuSans-4c" transform="translate(68.408203 0)"/>
      <use xlink:href="#DejaVuSans-44" transform="translate(124.121094 0)"/>
      <use xlink:href="#DejaVuSans-45" transform="translate(201.123047 0)"/>
      <use xlink:href="#DejaVuSans-20" transform="translate(264.306641 0)"/>
      <use xlink:href="#DejaVuSans-62" transform="translate(296.09375 0)"/>
      <use xlink:href="#DejaVuSans-6f" transform="translate(359.570312 0)"/>
      <use xlink:href="#DejaVuSans-6f" transform="translate(420.751953 0)"/>
      <use xlink:href="#DejaVuSans-73" transform="translate(481.933594 0)"/>
      <use xlink:href="#DejaVuSans-74" transform="translate(534.033203 0)"/>
      <use xlink:href="#DejaVuSans-69" transform="translate(573.242188 0)"/>
      <use xlink:href="#DejaVuSans-6e" transform="translate(601.025391 0)"/>
      <use xlink:href="#DejaVuSans-67" transform="translate(664.404297 0)"/>
      <use xlink:href="#DejaVuSans-20" transform="translate(727.880859 0)"/>
      <use xlink:href="#DejaVuSans-78" transform="translate(759.667969 0)"/>
      <use xlink:href="#DejaVuSans-20" transform="translate(818.847656 0)"/>
      <use xlink:href="#DejaVuSans-33" transform="translate(850.634766 0)"/>
     </g>
    </g>
    <g id="line2d_46">
     <path d="M 610.78125 91.944281 
L 620.78125 91.944281 
L 630.78125 91.944281 
" style="fill: none; stroke: #cc78bc; stroke-width: 2; stroke-linecap: square"/>
     <g>
      <use xlink:href="#m8bcbd74d57" x="620.78125" y="91.944281" style="fill: #cc78bc; stroke: #cc78bc"/>
     </g>
    </g>
    <g id="text_34">
     <!-- ALDE DNN x 3 -->
     <g transform="translate(638.78125 95.444281) scale(0.1 -0.1)">
      <use xlink:href="#DejaVuSans-41"/>
      <use xlink:href="#DejaVuSans-4c" transform="translate(68.408203 0)"/>
      <use xlink:href="#DejaVuSans-44" transform="translate(124.121094 0)"/>
      <use xlink:href="#DejaVuSans-45" transform="translate(201.123047 0)"/>
      <use xlink:href="#DejaVuSans-20" transform="translate(264.306641 0)"/>
      <use xlink:href="#DejaVuSans-44" transform="translate(296.09375 0)"/>
      <use xlink:href="#DejaVuSans-4e" transform="translate(373.095703 0)"/>
      <use xlink:href="#DejaVuSans-4e" transform="translate(447.900391 0)"/>
      <use xlink:href="#DejaVuSans-20" transform="translate(522.705078 0)"/>
      <use xlink:href="#DejaVuSans-78" transform="translate(554.492188 0)"/>
      <use xlink:href="#DejaVuSans-20" transform="translate(613.671875 0)"/>
      <use xlink:href="#DejaVuSans-33" transform="translate(645.458984 0)"/>
     </g>
    </g>
    <g id="line2d_47">
     <path d="M 610.78125 106.622406 
L 620.78125 106.622406 
L 630.78125 106.622406 
" style="fill: none; stroke-dasharray: 2,3.3; stroke-dashoffset: 0; stroke: #ca9161; stroke-width: 2"/>
     <g>
      <use xlink:href="#m4f6fb9a5af" x="620.78125" y="106.622406" style="fill: #ca9161; stroke: #ca9161"/>
     </g>
    </g>
    <g id="text_35">
     <!-- ALDE boosting x 4 -->
     <g transform="translate(638.78125 110.122406) scale(0.1 -0.1)">
      <use xlink:href="#DejaVuSans-41"/>
      <use xlink:href="#DejaVuSans-4c" transform="translate(68.408203 0)"/>
      <use xlink:href="#DejaVuSans-44" transform="translate(124.121094 0)"/>
      <use xlink:href="#DejaVuSans-45" transform="translate(201.123047 0)"/>
      <use xlink:href="#DejaVuSans-20" transform="translate(264.306641 0)"/>
      <use xlink:href="#DejaVuSans-62" transform="translate(296.09375 0)"/>
      <use xlink:href="#DejaVuSans-6f" transform="translate(359.570312 0)"/>
      <use xlink:href="#DejaVuSans-6f" transform="translate(420.751953 0)"/>
      <use xlink:href="#DejaVuSans-73" transform="translate(481.933594 0)"/>
      <use xlink:href="#DejaVuSans-74" transform="translate(534.033203 0)"/>
      <use xlink:href="#DejaVuSans-69" transform="translate(573.242188 0)"/>
      <use xlink:href="#DejaVuSans-6e" transform="translate(601.025391 0)"/>
      <use xlink:href="#DejaVuSans-67" transform="translate(664.404297 0)"/>
      <use xlink:href="#DejaVuSans-20" transform="translate(727.880859 0)"/>
      <use xlink:href="#DejaVuSans-78" transform="translate(759.667969 0)"/>
      <use xlink:href="#DejaVuSans-20" transform="translate(818.847656 0)"/>
      <use xlink:href="#DejaVuSans-34" transform="translate(850.634766 0)"/>
     </g>
    </g>
    <g id="line2d_48">
     <path d="M 610.78125 121.300531 
L 620.78125 121.300531 
L 630.78125 121.300531 
" style="fill: none; stroke: #d55e00; stroke-width: 2; stroke-linecap: square"/>
     <g>
      <use xlink:href="#mb681cfd944" x="620.78125" y="121.300531" style="fill: #d55e00; stroke: #d55e00"/>
     </g>
    </g>
    <g id="text_36">
     <!-- ALDE DNN x 4 -->
     <g transform="translate(638.78125 124.800531) scale(0.1 -0.1)">
      <use xlink:href="#DejaVuSans-41"/>
      <use xlink:href="#DejaVuSans-4c" transform="translate(68.408203 0)"/>
      <use xlink:href="#DejaVuSans-44" transform="translate(124.121094 0)"/>
      <use xlink:href="#DejaVuSans-45" transform="translate(201.123047 0)"/>
      <use xlink:href="#DejaVuSans-20" transform="translate(264.306641 0)"/>
      <use xlink:href="#DejaVuSans-44" transform="translate(296.09375 0)"/>
      <use xlink:href="#DejaVuSans-4e" transform="translate(373.095703 0)"/>
      <use xlink:href="#DejaVuSans-4e" transform="translate(447.900391 0)"/>
      <use xlink:href="#DejaVuSans-20" transform="translate(522.705078 0)"/>
      <use xlink:href="#DejaVuSans-78" transform="translate(554.492188 0)"/>
      <use xlink:href="#DejaVuSans-20" transform="translate(613.671875 0)"/>
      <use xlink:href="#DejaVuSans-34" transform="translate(645.458984 0)"/>
     </g>
    </g>
   </g>
  </g>
 </g>
 <defs>
  <clipPath id="p7b7ef72aa1">
   <rect x="43.78125" y="10.999219" width="253.636364" height="221.76"/>
  </clipPath>
  <clipPath id="ped00588d7e">
   <rect x="348.144886" y="10.999219" width="253.636364" height="221.76"/>
  </clipPath>
 </defs>
</svg>
