<?xml version="1.0" encoding="utf-8" standalone="no"?>
<!DOCTYPE svg PUBLIC "-//W3C//DTD SVG 1.1//EN"
  "http://www.w3.org/Graphics/SVG/1.1/DTD/svg11.dtd">
<svg xmlns:xlink="http://www.w3.org/1999/xlink" width="741.407812pt" height="270.315469pt" viewBox="0 0 741.407812 270.315469" xmlns="http://www.w3.org/2000/svg" version="1.1">
 <metadata>
  <rdf:RDF xmlns:dc="http://purl.org/dc/elements/1.1/" xmlns:cc="http://creativecommons.org/ns#" xmlns:rdf="http://www.w3.org/1999/02/22-rdf-syntax-ns#">
   <cc:Work>
    <dc:type rdf:resource="http://purl.org/dc/dcmitype/StillImage"/>
    <dc:date>2025-03-26T18:14:34.091440</dc:date>
    <dc:format>image/svg+xml</dc:format>
    <dc:creator>
     <cc:Agent>
      <dc:title>Matplotlib v3.10.0, https://matplotlib.org/</dc:title>
     </cc:Agent>
    </dc:creator>
   </cc:Work>
  </rdf:RDF>
 </metadata>
 <defs>
  <style type="text/css">*{stroke-linejoin: round; stroke-linecap: butt}</style>
 </defs>
 <g id="figure_1">
  <g id="patch_1">
   <path d="M 0 270.315469 
L 741.407812 270.315469 
L 741.407812 0 
L 0 0 
z
" style="fill: #ffffff"/>
  </g>
  <g id="axes_1">
   <g id="patch_2">
    <path d="M 43.78125 232.759219 
L 297.417614 232.759219 
L 297.417614 10.999219 
L 43.78125 10.999219 
z
" style="fill: #ffffff"/>
   </g>
   <g id="FillBetweenPolyCollection_1">
    <defs>
     <path id="mb64fa2caf1" d="M 43.78125 -87.747881 
L 43.78125 -59.128989 
L 60.171596 -60.894632 
L 86.033644 -73.89277 
L 122.484152 -98.803489 
L 148.3462 -100.99204 
L 168.406362 -112.543827 
L 184.796709 -121.292313 
L 198.654549 -132.53366 
L 239.287115 -150.639204 
L 297.417614 -158.222482 
L 297.417614 -235.7703 
L 297.417614 -235.7703 
L 239.287115 -204.336605 
L 198.654549 -187.246278 
L 184.796709 -182.312186 
L 168.406362 -163.573453 
L 148.3462 -149.185524 
L 122.484152 -127.16293 
L 86.033644 -117.220912 
L 60.171596 -103.023283 
L 43.78125 -87.747881 
z
" style="stroke: #56b4e9; stroke-opacity: 0.05"/>
    </defs>
    <g clip-path="url(#pd72e0034d4)">
     <use xlink:href="#mb64fa2caf1" x="0" y="270.315469" style="fill: #56b4e9; fill-opacity: 0.05; stroke: #56b4e9; stroke-opacity: 0.05"/>
    </g>
   </g>
   <g id="FillBetweenPolyCollection_2">
    <defs>
     <path id="m3692fcd15c" d="M 43.78125 -100.796845 
L 43.78125 -59.974992 
L 60.171596 -67.35287 
L 86.033644 -79.933267 
L 122.484152 -88.827449 
L 148.3462 -99.309572 
L 168.406362 -95.239275 
L 184.796709 -105.055039 
L 198.654549 -97.698289 
L 239.287115 -110.350157 
L 297.417614 -84.610796 
L 297.417614 -244.910012 
L 297.417614 -244.910012 
L 239.287115 -219.725547 
L 198.654549 -192.616834 
L 184.796709 -176.580667 
L 168.406362 -159.301108 
L 148.3462 -155.576411 
L 122.484152 -134.354917 
L 86.033644 -122.104072 
L 60.171596 -100.343942 
L 43.78125 -100.796845 
z
" style="stroke: #0173b2; stroke-opacity: 0.05"/>
    </defs>
    <g clip-path="url(#pd72e0034d4)">
     <use xlink:href="#m3692fcd15c" x="0" y="270.315469" style="fill: #0173b2; fill-opacity: 0.05; stroke: #0173b2; stroke-opacity: 0.05"/>
    </g>
   </g>
   <g id="FillBetweenPolyCollection_3">
    <defs>
     <path id="m973f1f79a8" d="M 43.78125 -92.183716 
L 43.78125 -59.434007 
L 60.171596 -63.490925 
L 86.033644 -72.05231 
L 122.484152 -83.276224 
L 148.3462 -87.628321 
L 168.406362 -94.107954 
L 184.796709 -105.364182 
L 198.654549 -105.530027 
L 239.287115 -138.219053 
L 297.417614 -170.01819 
L 297.417614 -251.719893 
L 297.417614 -251.719893 
L 239.287115 -229.069565 
L 198.654549 -203.502341 
L 184.796709 -186.253682 
L 168.406362 -175.3252 
L 148.3462 -142.655228 
L 122.484152 -131.825044 
L 86.033644 -112.413877 
L 60.171596 -90.062927 
L 43.78125 -92.183716 
z
" style="stroke: #ece133; stroke-opacity: 0.05"/>
    </defs>
    <g clip-path="url(#pd72e0034d4)">
     <use xlink:href="#m973f1f79a8" x="0" y="270.315469" style="fill: #ece133; fill-opacity: 0.05; stroke: #ece133; stroke-opacity: 0.05"/>
    </g>
   </g>
   <g id="FillBetweenPolyCollection_4">
    <defs>
     <path id="made919560c" d="M 43.78125 -91.99747 
L 43.78125 -74.073409 
L 60.171596 -75.169864 
L 86.033644 -78.980264 
L 122.484152 -89.967095 
L 148.3462 -100.14698 
L 168.406362 -110.860462 
L 184.796709 -115.056111 
L 198.654549 -126.009345 
L 239.287115 -144.174188 
L 297.417614 -177.711301 
L 297.417614 -251.231617 
L 297.417614 -251.231617 
L 239.287115 -224.544801 
L 198.654549 -204.561197 
L 184.796709 -192.448925 
L 168.406362 -175.894944 
L 148.3462 -149.039075 
L 122.484152 -146.188954 
L 86.033644 -113.620571 
L 60.171596 -100.62449 
L 43.78125 -91.99747 
z
" style="stroke: #de8f05; stroke-opacity: 0.05"/>
    </defs>
    <g clip-path="url(#pd72e0034d4)">
     <use xlink:href="#made919560c" x="0" y="270.315469" style="fill: #de8f05; fill-opacity: 0.05; stroke: #de8f05; stroke-opacity: 0.05"/>
    </g>
   </g>
   <g id="FillBetweenPolyCollection_5">
    <defs>
     <path id="m7bed35f7cb" d="M 43.78125 -100.400475 
L 43.78125 -58.557025 
L 60.171596 -59.617009 
L 86.033644 -75.879682 
L 122.484152 -92.053272 
L 148.3462 -89.849016 
L 168.406362 -100.697239 
L 184.796709 -106.641446 
L 198.654549 -108.869641 
L 239.287115 -138.416084 
L 297.417614 -175.109013 
L 297.417614 -253.515549 
L 297.417614 -253.515549 
L 239.287115 -240.303936 
L 198.654549 -212.286124 
L 184.796709 -196.45215 
L 168.406362 -184.779485 
L 148.3462 -163.863585 
L 122.484152 -150.657698 
L 86.033644 -112.394951 
L 60.171596 -92.932698 
L 43.78125 -100.400475 
z
" style="stroke: #fbafe4; stroke-opacity: 0.05"/>
    </defs>
    <g clip-path="url(#pd72e0034d4)">
     <use xlink:href="#m7bed35f7cb" x="0" y="270.315469" style="fill: #fbafe4; fill-opacity: 0.05; stroke: #fbafe4; stroke-opacity: 0.05"/>
    </g>
   </g>
   <g id="FillBetweenPolyCollection_6">
    <defs>
     <path id="m6206bfd4bf" d="M 43.78125 -100.35748 
L 43.78125 -63.198147 
L 60.171596 -72.114333 
L 86.033644 -75.575074 
L 122.484152 -83.094044 
L 148.3462 -94.036331 
L 168.406362 -105.067205 
L 184.796709 -122.586614 
L 198.654549 -120.188191 
L 239.287115 -145.973127 
L 297.417614 -179.756299 
L 297.417614 -256.221214 
L 297.417614 -256.221214 
L 239.287115 -229.200928 
L 198.654549 -212.313316 
L 184.796709 -190.143216 
L 168.406362 -184.989044 
L 148.3462 -177.403121 
L 122.484152 -154.316437 
L 86.033644 -125.212859 
L 60.171596 -109.12153 
L 43.78125 -100.35748 
z
" style="stroke: #cc78bc; stroke-opacity: 0.05"/>
    </defs>
    <g clip-path="url(#pd72e0034d4)">
     <use xlink:href="#m6206bfd4bf" x="0" y="270.315469" style="fill: #cc78bc; fill-opacity: 0.05; stroke: #cc78bc; stroke-opacity: 0.05"/>
    </g>
   </g>
   <g id="FillBetweenPolyCollection_7">
    <defs>
     <path id="m0aff602eb9" d="M 43.78125 -110.340217 
L 43.78125 -61.547494 
L 60.171596 -68.285244 
L 86.033644 -77.052782 
L 122.484152 -85.315985 
L 148.3462 -96.084859 
L 168.406362 -102.332087 
L 184.796709 -108.570803 
L 198.654549 -104.275925 
L 239.287115 -138.164916 
L 297.417614 -187.482567 
L 297.417614 -253.855984 
L 297.417614 -253.855984 
L 239.287115 -239.283468 
L 198.654549 -212.141882 
L 184.796709 -197.20024 
L 168.406362 -189.50642 
L 148.3462 -176.925252 
L 122.484152 -155.976088 
L 86.033644 -110.579244 
L 60.171596 -118.02578 
L 43.78125 -110.340217 
z
" style="stroke: #ca9161; stroke-opacity: 0.05"/>
    </defs>
    <g clip-path="url(#pd72e0034d4)">
     <use xlink:href="#m0aff602eb9" x="0" y="270.315469" style="fill: #ca9161; fill-opacity: 0.05; stroke: #ca9161; stroke-opacity: 0.05"/>
    </g>
   </g>
   <g id="FillBetweenPolyCollection_8">
    <defs>
     <path id="m088283468f" d="M 43.78125 -96.453915 
L 43.78125 -67.606252 
L 60.171596 -71.336393 
L 86.033644 -77.370886 
L 122.484152 -88.199346 
L 148.3462 -87.781769 
L 168.406362 -113.810084 
L 184.796709 -106.941229 
L 198.654549 -116.553817 
L 239.287115 -142.558337 
L 297.417614 -179.222584 
L 297.417614 -257.376989 
L 297.417614 -257.376989 
L 239.287115 -232.678758 
L 198.654549 -224.243418 
L 184.796709 -213.394091 
L 168.406362 -183.207062 
L 148.3462 -177.943567 
L 122.484152 -148.019377 
L 86.033644 -125.835155 
L 60.171596 -107.018109 
L 43.78125 -96.453915 
z
" style="stroke: #d55e00; stroke-opacity: 0.05"/>
    </defs>
    <g clip-path="url(#pd72e0034d4)">
     <use xlink:href="#m088283468f" x="0" y="270.315469" style="fill: #d55e00; fill-opacity: 0.05; stroke: #d55e00; stroke-opacity: 0.05"/>
    </g>
   </g>
   <g id="matplotlib.axis_1">
    <g id="xtick_1">
     <g id="line2d_1">
      <defs>
       <path id="m3d2dcf59d8" d="M 0 0 
L 0 3.5 
" style="stroke: #000000; stroke-width: 0.8"/>
      </defs>
      <g>
       <use xlink:href="#m3d2dcf59d8" x="43.78125" y="232.759219" style="stroke: #000000; stroke-width: 0.8"/>
      </g>
     </g>
     <g id="text_1">
      <!-- 120 -->
      <g transform="translate(34.2375 247.357656) scale(0.1 -0.1)">
       <defs>
        <path id="DejaVuSans-31" d="M 794 531 
L 1825 531 
L 1825 4091 
L 703 3866 
L 703 4441 
L 1819 4666 
L 2450 4666 
L 2450 531 
L 3481 531 
L 3481 0 
L 794 0 
L 794 531 
z
" transform="scale(0.015625)"/>
        <path id="DejaVuSans-32" d="M 1228 531 
L 3431 531 
L 3431 0 
L 469 0 
L 469 531 
Q 828 903 1448 1529 
Q 2069 2156 2228 2338 
Q 2531 2678 2651 2914 
Q 2772 3150 2772 3378 
Q 2772 3750 2511 3984 
Q 2250 4219 1831 4219 
Q 1534 4219 1204 4116 
Q 875 4013 500 3803 
L 500 4441 
Q 881 4594 1212 4672 
Q 1544 4750 1819 4750 
Q 2544 4750 2975 4387 
Q 3406 4025 3406 3419 
Q 3406 3131 3298 2873 
Q 3191 2616 2906 2266 
Q 2828 2175 2409 1742 
Q 1991 1309 1228 531 
z
" transform="scale(0.015625)"/>
        <path id="DejaVuSans-30" d="M 2034 4250 
Q 1547 4250 1301 3770 
Q 1056 3291 1056 2328 
Q 1056 1369 1301 889 
Q 1547 409 2034 409 
Q 2525 409 2770 889 
Q 3016 1369 3016 2328 
Q 3016 3291 2770 3770 
Q 2525 4250 2034 4250 
z
M 2034 4750 
Q 2819 4750 3233 4129 
Q 3647 3509 3647 2328 
Q 3647 1150 3233 529 
Q 2819 -91 2034 -91 
Q 1250 -91 836 529 
Q 422 1150 422 2328 
Q 422 3509 836 4129 
Q 1250 4750 2034 4750 
z
" transform="scale(0.015625)"/>
       </defs>
       <use xlink:href="#DejaVuSans-31"/>
       <use xlink:href="#DejaVuSans-32" transform="translate(63.623047 0)"/>
       <use xlink:href="#DejaVuSans-30" transform="translate(127.246094 0)"/>
      </g>
     </g>
    </g>
    <g id="xtick_2">
     <g id="line2d_2">
      <g>
       <use xlink:href="#m3d2dcf59d8" x="86.033644" y="232.759219" style="stroke: #000000; stroke-width: 0.8"/>
      </g>
     </g>
     <g id="text_2">
      <!-- 192 -->
      <g transform="translate(76.489894 247.357656) scale(0.1 -0.1)">
       <defs>
        <path id="DejaVuSans-39" d="M 703 97 
L 703 672 
Q 941 559 1184 500 
Q 1428 441 1663 441 
Q 2288 441 2617 861 
Q 2947 1281 2994 2138 
Q 2813 1869 2534 1725 
Q 2256 1581 1919 1581 
Q 1219 1581 811 2004 
Q 403 2428 403 3163 
Q 403 3881 828 4315 
Q 1253 4750 1959 4750 
Q 2769 4750 3195 4129 
Q 3622 3509 3622 2328 
Q 3622 1225 3098 567 
Q 2575 -91 1691 -91 
Q 1453 -91 1209 -44 
Q 966 3 703 97 
z
M 1959 2075 
Q 2384 2075 2632 2365 
Q 2881 2656 2881 3163 
Q 2881 3666 2632 3958 
Q 2384 4250 1959 4250 
Q 1534 4250 1286 3958 
Q 1038 3666 1038 3163 
Q 1038 2656 1286 2365 
Q 1534 2075 1959 2075 
z
" transform="scale(0.015625)"/>
       </defs>
       <use xlink:href="#DejaVuSans-31"/>
       <use xlink:href="#DejaVuSans-39" transform="translate(63.623047 0)"/>
       <use xlink:href="#DejaVuSans-32" transform="translate(127.246094 0)"/>
      </g>
     </g>
    </g>
    <g id="xtick_3">
     <g id="line2d_3">
      <g>
       <use xlink:href="#m3d2dcf59d8" x="122.484152" y="232.759219" style="stroke: #000000; stroke-width: 0.8"/>
      </g>
     </g>
     <g id="text_3">
      <!-- 288 -->
      <g transform="translate(112.940402 247.357656) scale(0.1 -0.1)">
       <defs>
        <path id="DejaVuSans-38" d="M 2034 2216 
Q 1584 2216 1326 1975 
Q 1069 1734 1069 1313 
Q 1069 891 1326 650 
Q 1584 409 2034 409 
Q 2484 409 2743 651 
Q 3003 894 3003 1313 
Q 3003 1734 2745 1975 
Q 2488 2216 2034 2216 
z
M 1403 2484 
Q 997 2584 770 2862 
Q 544 3141 544 3541 
Q 544 4100 942 4425 
Q 1341 4750 2034 4750 
Q 2731 4750 3128 4425 
Q 3525 4100 3525 3541 
Q 3525 3141 3298 2862 
Q 3072 2584 2669 2484 
Q 3125 2378 3379 2068 
Q 3634 1759 3634 1313 
Q 3634 634 3220 271 
Q 2806 -91 2034 -91 
Q 1263 -91 848 271 
Q 434 634 434 1313 
Q 434 1759 690 2068 
Q 947 2378 1403 2484 
z
M 1172 3481 
Q 1172 3119 1398 2916 
Q 1625 2713 2034 2713 
Q 2441 2713 2670 2916 
Q 2900 3119 2900 3481 
Q 2900 3844 2670 4047 
Q 2441 4250 2034 4250 
Q 1625 4250 1398 4047 
Q 1172 3844 1172 3481 
z
" transform="scale(0.015625)"/>
       </defs>
       <use xlink:href="#DejaVuSans-32"/>
       <use xlink:href="#DejaVuSans-38" transform="translate(63.623047 0)"/>
       <use xlink:href="#DejaVuSans-38" transform="translate(127.246094 0)"/>
      </g>
     </g>
    </g>
    <g id="xtick_4">
     <g id="line2d_4">
      <g>
       <use xlink:href="#m3d2dcf59d8" x="168.406362" y="232.759219" style="stroke: #000000; stroke-width: 0.8"/>
      </g>
     </g>
     <g id="text_4">
      <!-- 480 -->
      <g transform="translate(158.862612 247.357656) scale(0.1 -0.1)">
       <defs>
        <path id="DejaVuSans-34" d="M 2419 4116 
L 825 1625 
L 2419 1625 
L 2419 4116 
z
M 2253 4666 
L 3047 4666 
L 3047 1625 
L 3713 1625 
L 3713 1100 
L 3047 1100 
L 3047 0 
L 2419 0 
L 2419 1100 
L 313 1100 
L 313 1709 
L 2253 4666 
z
" transform="scale(0.015625)"/>
       </defs>
       <use xlink:href="#DejaVuSans-34"/>
       <use xlink:href="#DejaVuSans-38" transform="translate(63.623047 0)"/>
       <use xlink:href="#DejaVuSans-30" transform="translate(127.246094 0)"/>
      </g>
     </g>
    </g>
    <g id="xtick_5">
     <g id="line2d_5">
      <g>
       <use xlink:href="#m3d2dcf59d8" x="239.287115" y="232.759219" style="stroke: #000000; stroke-width: 0.8"/>
      </g>
     </g>
     <g id="text_5">
      <!-- 1056 -->
      <g transform="translate(226.562115 247.357656) scale(0.1 -0.1)">
       <defs>
        <path id="DejaVuSans-35" d="M 691 4666 
L 3169 4666 
L 3169 4134 
L 1269 4134 
L 1269 2991 
Q 1406 3038 1543 3061 
Q 1681 3084 1819 3084 
Q 2600 3084 3056 2656 
Q 3513 2228 3513 1497 
Q 3513 744 3044 326 
Q 2575 -91 1722 -91 
Q 1428 -91 1123 -41 
Q 819 9 494 109 
L 494 744 
Q 775 591 1075 516 
Q 1375 441 1709 441 
Q 2250 441 2565 725 
Q 2881 1009 2881 1497 
Q 2881 1984 2565 2268 
Q 2250 2553 1709 2553 
Q 1456 2553 1204 2497 
Q 953 2441 691 2322 
L 691 4666 
z
" transform="scale(0.015625)"/>
        <path id="DejaVuSans-36" d="M 2113 2584 
Q 1688 2584 1439 2293 
Q 1191 2003 1191 1497 
Q 1191 994 1439 701 
Q 1688 409 2113 409 
Q 2538 409 2786 701 
Q 3034 994 3034 1497 
Q 3034 2003 2786 2293 
Q 2538 2584 2113 2584 
z
M 3366 4563 
L 3366 3988 
Q 3128 4100 2886 4159 
Q 2644 4219 2406 4219 
Q 1781 4219 1451 3797 
Q 1122 3375 1075 2522 
Q 1259 2794 1537 2939 
Q 1816 3084 2150 3084 
Q 2853 3084 3261 2657 
Q 3669 2231 3669 1497 
Q 3669 778 3244 343 
Q 2819 -91 2113 -91 
Q 1303 -91 875 529 
Q 447 1150 447 2328 
Q 447 3434 972 4092 
Q 1497 4750 2381 4750 
Q 2619 4750 2861 4703 
Q 3103 4656 3366 4563 
z
" transform="scale(0.015625)"/>
       </defs>
       <use xlink:href="#DejaVuSans-31"/>
       <use xlink:href="#DejaVuSans-30" transform="translate(63.623047 0)"/>
       <use xlink:href="#DejaVuSans-35" transform="translate(127.246094 0)"/>
       <use xlink:href="#DejaVuSans-36" transform="translate(190.869141 0)"/>
      </g>
     </g>
    </g>
    <g id="xtick_6">
     <g id="line2d_6">
      <g>
       <use xlink:href="#m3d2dcf59d8" x="297.417614" y="232.759219" style="stroke: #000000; stroke-width: 0.8"/>
      </g>
     </g>
     <g id="text_6">
      <!-- 2016 -->
      <g transform="translate(284.692614 247.357656) scale(0.1 -0.1)">
       <use xlink:href="#DejaVuSans-32"/>
       <use xlink:href="#DejaVuSans-30" transform="translate(63.623047 0)"/>
       <use xlink:href="#DejaVuSans-31" transform="translate(127.246094 0)"/>
       <use xlink:href="#DejaVuSans-36" transform="translate(190.869141 0)"/>
      </g>
     </g>
    </g>
    <g id="text_7">
     <!-- Total number of variants -->
     <g transform="translate(109.556463 261.035781) scale(0.1 -0.1)">
      <defs>
       <path id="DejaVuSans-54" d="M -19 4666 
L 3928 4666 
L 3928 4134 
L 2272 4134 
L 2272 0 
L 1638 0 
L 1638 4134 
L -19 4134 
L -19 4666 
z
" transform="scale(0.015625)"/>
       <path id="DejaVuSans-6f" d="M 1959 3097 
Q 1497 3097 1228 2736 
Q 959 2375 959 1747 
Q 959 1119 1226 758 
Q 1494 397 1959 397 
Q 2419 397 2687 759 
Q 2956 1122 2956 1747 
Q 2956 2369 2687 2733 
Q 2419 3097 1959 3097 
z
M 1959 3584 
Q 2709 3584 3137 3096 
Q 3566 2609 3566 1747 
Q 3566 888 3137 398 
Q 2709 -91 1959 -91 
Q 1206 -91 779 398 
Q 353 888 353 1747 
Q 353 2609 779 3096 
Q 1206 3584 1959 3584 
z
" transform="scale(0.015625)"/>
       <path id="DejaVuSans-74" d="M 1172 4494 
L 1172 3500 
L 2356 3500 
L 2356 3053 
L 1172 3053 
L 1172 1153 
Q 1172 725 1289 603 
Q 1406 481 1766 481 
L 2356 481 
L 2356 0 
L 1766 0 
Q 1100 0 847 248 
Q 594 497 594 1153 
L 594 3053 
L 172 3053 
L 172 3500 
L 594 3500 
L 594 4494 
L 1172 4494 
z
" transform="scale(0.015625)"/>
       <path id="DejaVuSans-61" d="M 2194 1759 
Q 1497 1759 1228 1600 
Q 959 1441 959 1056 
Q 959 750 1161 570 
Q 1363 391 1709 391 
Q 2188 391 2477 730 
Q 2766 1069 2766 1631 
L 2766 1759 
L 2194 1759 
z
M 3341 1997 
L 3341 0 
L 2766 0 
L 2766 531 
Q 2569 213 2275 61 
Q 1981 -91 1556 -91 
Q 1019 -91 701 211 
Q 384 513 384 1019 
Q 384 1609 779 1909 
Q 1175 2209 1959 2209 
L 2766 2209 
L 2766 2266 
Q 2766 2663 2505 2880 
Q 2244 3097 1772 3097 
Q 1472 3097 1187 3025 
Q 903 2953 641 2809 
L 641 3341 
Q 956 3463 1253 3523 
Q 1550 3584 1831 3584 
Q 2591 3584 2966 3190 
Q 3341 2797 3341 1997 
z
" transform="scale(0.015625)"/>
       <path id="DejaVuSans-6c" d="M 603 4863 
L 1178 4863 
L 1178 0 
L 603 0 
L 603 4863 
z
" transform="scale(0.015625)"/>
       <path id="DejaVuSans-20" transform="scale(0.015625)"/>
       <path id="DejaVuSans-6e" d="M 3513 2113 
L 3513 0 
L 2938 0 
L 2938 2094 
Q 2938 2591 2744 2837 
Q 2550 3084 2163 3084 
Q 1697 3084 1428 2787 
Q 1159 2491 1159 1978 
L 1159 0 
L 581 0 
L 581 3500 
L 1159 3500 
L 1159 2956 
Q 1366 3272 1645 3428 
Q 1925 3584 2291 3584 
Q 2894 3584 3203 3211 
Q 3513 2838 3513 2113 
z
" transform="scale(0.015625)"/>
       <path id="DejaVuSans-75" d="M 544 1381 
L 544 3500 
L 1119 3500 
L 1119 1403 
Q 1119 906 1312 657 
Q 1506 409 1894 409 
Q 2359 409 2629 706 
Q 2900 1003 2900 1516 
L 2900 3500 
L 3475 3500 
L 3475 0 
L 2900 0 
L 2900 538 
Q 2691 219 2414 64 
Q 2138 -91 1772 -91 
Q 1169 -91 856 284 
Q 544 659 544 1381 
z
M 1991 3584 
L 1991 3584 
z
" transform="scale(0.015625)"/>
       <path id="DejaVuSans-6d" d="M 3328 2828 
Q 3544 3216 3844 3400 
Q 4144 3584 4550 3584 
Q 5097 3584 5394 3201 
Q 5691 2819 5691 2113 
L 5691 0 
L 5113 0 
L 5113 2094 
Q 5113 2597 4934 2840 
Q 4756 3084 4391 3084 
Q 3944 3084 3684 2787 
Q 3425 2491 3425 1978 
L 3425 0 
L 2847 0 
L 2847 2094 
Q 2847 2600 2669 2842 
Q 2491 3084 2119 3084 
Q 1678 3084 1418 2786 
Q 1159 2488 1159 1978 
L 1159 0 
L 581 0 
L 581 3500 
L 1159 3500 
L 1159 2956 
Q 1356 3278 1631 3431 
Q 1906 3584 2284 3584 
Q 2666 3584 2933 3390 
Q 3200 3197 3328 2828 
z
" transform="scale(0.015625)"/>
       <path id="DejaVuSans-62" d="M 3116 1747 
Q 3116 2381 2855 2742 
Q 2594 3103 2138 3103 
Q 1681 3103 1420 2742 
Q 1159 2381 1159 1747 
Q 1159 1113 1420 752 
Q 1681 391 2138 391 
Q 2594 391 2855 752 
Q 3116 1113 3116 1747 
z
M 1159 2969 
Q 1341 3281 1617 3432 
Q 1894 3584 2278 3584 
Q 2916 3584 3314 3078 
Q 3713 2572 3713 1747 
Q 3713 922 3314 415 
Q 2916 -91 2278 -91 
Q 1894 -91 1617 61 
Q 1341 213 1159 525 
L 1159 0 
L 581 0 
L 581 4863 
L 1159 4863 
L 1159 2969 
z
" transform="scale(0.015625)"/>
       <path id="DejaVuSans-65" d="M 3597 1894 
L 3597 1613 
L 953 1613 
Q 991 1019 1311 708 
Q 1631 397 2203 397 
Q 2534 397 2845 478 
Q 3156 559 3463 722 
L 3463 178 
Q 3153 47 2828 -22 
Q 2503 -91 2169 -91 
Q 1331 -91 842 396 
Q 353 884 353 1716 
Q 353 2575 817 3079 
Q 1281 3584 2069 3584 
Q 2775 3584 3186 3129 
Q 3597 2675 3597 1894 
z
M 3022 2063 
Q 3016 2534 2758 2815 
Q 2500 3097 2075 3097 
Q 1594 3097 1305 2825 
Q 1016 2553 972 2059 
L 3022 2063 
z
" transform="scale(0.015625)"/>
       <path id="DejaVuSans-72" d="M 2631 2963 
Q 2534 3019 2420 3045 
Q 2306 3072 2169 3072 
Q 1681 3072 1420 2755 
Q 1159 2438 1159 1844 
L 1159 0 
L 581 0 
L 581 3500 
L 1159 3500 
L 1159 2956 
Q 1341 3275 1631 3429 
Q 1922 3584 2338 3584 
Q 2397 3584 2469 3576 
Q 2541 3569 2628 3553 
L 2631 2963 
z
" transform="scale(0.015625)"/>
       <path id="DejaVuSans-66" d="M 2375 4863 
L 2375 4384 
L 1825 4384 
Q 1516 4384 1395 4259 
Q 1275 4134 1275 3809 
L 1275 3500 
L 2222 3500 
L 2222 3053 
L 1275 3053 
L 1275 0 
L 697 0 
L 697 3053 
L 147 3053 
L 147 3500 
L 697 3500 
L 697 3744 
Q 697 4328 969 4595 
Q 1241 4863 1831 4863 
L 2375 4863 
z
" transform="scale(0.015625)"/>
       <path id="DejaVuSans-76" d="M 191 3500 
L 800 3500 
L 1894 563 
L 2988 3500 
L 3597 3500 
L 2284 0 
L 1503 0 
L 191 3500 
z
" transform="scale(0.015625)"/>
       <path id="DejaVuSans-69" d="M 603 3500 
L 1178 3500 
L 1178 0 
L 603 0 
L 603 3500 
z
M 603 4863 
L 1178 4863 
L 1178 4134 
L 603 4134 
L 603 4863 
z
" transform="scale(0.015625)"/>
       <path id="DejaVuSans-73" d="M 2834 3397 
L 2834 2853 
Q 2591 2978 2328 3040 
Q 2066 3103 1784 3103 
Q 1356 3103 1142 2972 
Q 928 2841 928 2578 
Q 928 2378 1081 2264 
Q 1234 2150 1697 2047 
L 1894 2003 
Q 2506 1872 2764 1633 
Q 3022 1394 3022 966 
Q 3022 478 2636 193 
Q 2250 -91 1575 -91 
Q 1294 -91 989 -36 
Q 684 19 347 128 
L 347 722 
Q 666 556 975 473 
Q 1284 391 1588 391 
Q 1994 391 2212 530 
Q 2431 669 2431 922 
Q 2431 1156 2273 1281 
Q 2116 1406 1581 1522 
L 1381 1569 
Q 847 1681 609 1914 
Q 372 2147 372 2553 
Q 372 3047 722 3315 
Q 1072 3584 1716 3584 
Q 2034 3584 2315 3537 
Q 2597 3491 2834 3397 
z
" transform="scale(0.015625)"/>
      </defs>
      <use xlink:href="#DejaVuSans-54"/>
      <use xlink:href="#DejaVuSans-6f" transform="translate(44.083984 0)"/>
      <use xlink:href="#DejaVuSans-74" transform="translate(105.265625 0)"/>
      <use xlink:href="#DejaVuSans-61" transform="translate(144.474609 0)"/>
      <use xlink:href="#DejaVuSans-6c" transform="translate(205.753906 0)"/>
      <use xlink:href="#DejaVuSans-20" transform="translate(233.537109 0)"/>
      <use xlink:href="#DejaVuSans-6e" transform="translate(265.324219 0)"/>
      <use xlink:href="#DejaVuSans-75" transform="translate(328.703125 0)"/>
      <use xlink:href="#DejaVuSans-6d" transform="translate(392.082031 0)"/>
      <use xlink:href="#DejaVuSans-62" transform="translate(489.494141 0)"/>
      <use xlink:href="#DejaVuSans-65" transform="translate(552.970703 0)"/>
      <use xlink:href="#DejaVuSans-72" transform="translate(614.494141 0)"/>
      <use xlink:href="#DejaVuSans-20" transform="translate(655.607422 0)"/>
      <use xlink:href="#DejaVuSans-6f" transform="translate(687.394531 0)"/>
      <use xlink:href="#DejaVuSans-66" transform="translate(748.576172 0)"/>
      <use xlink:href="#DejaVuSans-20" transform="translate(783.78125 0)"/>
      <use xlink:href="#DejaVuSans-76" transform="translate(815.568359 0)"/>
      <use xlink:href="#DejaVuSans-61" transform="translate(874.748047 0)"/>
      <use xlink:href="#DejaVuSans-72" transform="translate(936.027344 0)"/>
      <use xlink:href="#DejaVuSans-69" transform="translate(977.140625 0)"/>
      <use xlink:href="#DejaVuSans-61" transform="translate(1004.923828 0)"/>
      <use xlink:href="#DejaVuSans-6e" transform="translate(1066.203125 0)"/>
      <use xlink:href="#DejaVuSans-74" transform="translate(1129.582031 0)"/>
      <use xlink:href="#DejaVuSans-73" transform="translate(1168.791016 0)"/>
     </g>
    </g>
   </g>
   <g id="matplotlib.axis_2">
    <g id="ytick_1">
     <g id="line2d_7">
      <defs>
       <path id="m36e7588d10" d="M 0 0 
L -3.5 0 
" style="stroke: #000000; stroke-width: 0.8"/>
      </defs>
      <g>
       <use xlink:href="#m36e7588d10" x="43.78125" y="232.759219" style="stroke: #000000; stroke-width: 0.8"/>
      </g>
     </g>
     <g id="text_8">
      <!-- 0.0 -->
      <g transform="translate(20.878125 236.558437) scale(0.1 -0.1)">
       <defs>
        <path id="DejaVuSans-2e" d="M 684 794 
L 1344 794 
L 1344 0 
L 684 0 
L 684 794 
z
" transform="scale(0.015625)"/>
       </defs>
       <use xlink:href="#DejaVuSans-30"/>
       <use xlink:href="#DejaVuSans-2e" transform="translate(63.623047 0)"/>
       <use xlink:href="#DejaVuSans-30" transform="translate(95.410156 0)"/>
      </g>
     </g>
    </g>
    <g id="ytick_2">
     <g id="line2d_8">
      <g>
       <use xlink:href="#m36e7588d10" x="43.78125" y="188.407219" style="stroke: #000000; stroke-width: 0.8"/>
      </g>
     </g>
     <g id="text_9">
      <!-- 0.2 -->
      <g transform="translate(20.878125 192.206437) scale(0.1 -0.1)">
       <use xlink:href="#DejaVuSans-30"/>
       <use xlink:href="#DejaVuSans-2e" transform="translate(63.623047 0)"/>
       <use xlink:href="#DejaVuSans-32" transform="translate(95.410156 0)"/>
      </g>
     </g>
    </g>
    <g id="ytick_3">
     <g id="line2d_9">
      <g>
       <use xlink:href="#m36e7588d10" x="43.78125" y="144.055219" style="stroke: #000000; stroke-width: 0.8"/>
      </g>
     </g>
     <g id="text_10">
      <!-- 0.4 -->
      <g transform="translate(20.878125 147.854437) scale(0.1 -0.1)">
       <use xlink:href="#DejaVuSans-30"/>
       <use xlink:href="#DejaVuSans-2e" transform="translate(63.623047 0)"/>
       <use xlink:href="#DejaVuSans-34" transform="translate(95.410156 0)"/>
      </g>
     </g>
    </g>
    <g id="ytick_4">
     <g id="line2d_10">
      <g>
       <use xlink:href="#m36e7588d10" x="43.78125" y="99.703219" style="stroke: #000000; stroke-width: 0.8"/>
      </g>
     </g>
     <g id="text_11">
      <!-- 0.6 -->
      <g transform="translate(20.878125 103.502437) scale(0.1 -0.1)">
       <use xlink:href="#DejaVuSans-30"/>
       <use xlink:href="#DejaVuSans-2e" transform="translate(63.623047 0)"/>
       <use xlink:href="#DejaVuSans-36" transform="translate(95.410156 0)"/>
      </g>
     </g>
    </g>
    <g id="ytick_5">
     <g id="line2d_11">
      <g>
       <use xlink:href="#m36e7588d10" x="43.78125" y="55.351219" style="stroke: #000000; stroke-width: 0.8"/>
      </g>
     </g>
     <g id="text_12">
      <!-- 0.8 -->
      <g transform="translate(20.878125 59.150437) scale(0.1 -0.1)">
       <use xlink:href="#DejaVuSans-30"/>
       <use xlink:href="#DejaVuSans-2e" transform="translate(63.623047 0)"/>
       <use xlink:href="#DejaVuSans-38" transform="translate(95.410156 0)"/>
      </g>
     </g>
    </g>
    <g id="ytick_6">
     <g id="line2d_12">
      <g>
       <use xlink:href="#m36e7588d10" x="43.78125" y="10.999219" style="stroke: #000000; stroke-width: 0.8"/>
      </g>
     </g>
     <g id="text_13">
      <!-- 1.0 -->
      <g transform="translate(20.878125 14.798437) scale(0.1 -0.1)">
       <use xlink:href="#DejaVuSans-31"/>
       <use xlink:href="#DejaVuSans-2e" transform="translate(63.623047 0)"/>
       <use xlink:href="#DejaVuSans-30" transform="translate(95.410156 0)"/>
      </g>
     </g>
    </g>
    <g id="text_14">
     <!-- Average max fitness achieved -->
     <g transform="translate(14.798438 197.294844) rotate(-90) scale(0.1 -0.1)">
      <defs>
       <path id="DejaVuSans-41" d="M 2188 4044 
L 1331 1722 
L 3047 1722 
L 2188 4044 
z
M 1831 4666 
L 2547 4666 
L 4325 0 
L 3669 0 
L 3244 1197 
L 1141 1197 
L 716 0 
L 50 0 
L 1831 4666 
z
" transform="scale(0.015625)"/>
       <path id="DejaVuSans-67" d="M 2906 1791 
Q 2906 2416 2648 2759 
Q 2391 3103 1925 3103 
Q 1463 3103 1205 2759 
Q 947 2416 947 1791 
Q 947 1169 1205 825 
Q 1463 481 1925 481 
Q 2391 481 2648 825 
Q 2906 1169 2906 1791 
z
M 3481 434 
Q 3481 -459 3084 -895 
Q 2688 -1331 1869 -1331 
Q 1566 -1331 1297 -1286 
Q 1028 -1241 775 -1147 
L 775 -588 
Q 1028 -725 1275 -790 
Q 1522 -856 1778 -856 
Q 2344 -856 2625 -561 
Q 2906 -266 2906 331 
L 2906 616 
Q 2728 306 2450 153 
Q 2172 0 1784 0 
Q 1141 0 747 490 
Q 353 981 353 1791 
Q 353 2603 747 3093 
Q 1141 3584 1784 3584 
Q 2172 3584 2450 3431 
Q 2728 3278 2906 2969 
L 2906 3500 
L 3481 3500 
L 3481 434 
z
" transform="scale(0.015625)"/>
       <path id="DejaVuSans-78" d="M 3513 3500 
L 2247 1797 
L 3578 0 
L 2900 0 
L 1881 1375 
L 863 0 
L 184 0 
L 1544 1831 
L 300 3500 
L 978 3500 
L 1906 2253 
L 2834 3500 
L 3513 3500 
z
" transform="scale(0.015625)"/>
       <path id="DejaVuSans-63" d="M 3122 3366 
L 3122 2828 
Q 2878 2963 2633 3030 
Q 2388 3097 2138 3097 
Q 1578 3097 1268 2742 
Q 959 2388 959 1747 
Q 959 1106 1268 751 
Q 1578 397 2138 397 
Q 2388 397 2633 464 
Q 2878 531 3122 666 
L 3122 134 
Q 2881 22 2623 -34 
Q 2366 -91 2075 -91 
Q 1284 -91 818 406 
Q 353 903 353 1747 
Q 353 2603 823 3093 
Q 1294 3584 2113 3584 
Q 2378 3584 2631 3529 
Q 2884 3475 3122 3366 
z
" transform="scale(0.015625)"/>
       <path id="DejaVuSans-68" d="M 3513 2113 
L 3513 0 
L 2938 0 
L 2938 2094 
Q 2938 2591 2744 2837 
Q 2550 3084 2163 3084 
Q 1697 3084 1428 2787 
Q 1159 2491 1159 1978 
L 1159 0 
L 581 0 
L 581 4863 
L 1159 4863 
L 1159 2956 
Q 1366 3272 1645 3428 
Q 1925 3584 2291 3584 
Q 2894 3584 3203 3211 
Q 3513 2838 3513 2113 
z
" transform="scale(0.015625)"/>
       <path id="DejaVuSans-64" d="M 2906 2969 
L 2906 4863 
L 3481 4863 
L 3481 0 
L 2906 0 
L 2906 525 
Q 2725 213 2448 61 
Q 2172 -91 1784 -91 
Q 1150 -91 751 415 
Q 353 922 353 1747 
Q 353 2572 751 3078 
Q 1150 3584 1784 3584 
Q 2172 3584 2448 3432 
Q 2725 3281 2906 2969 
z
M 947 1747 
Q 947 1113 1208 752 
Q 1469 391 1925 391 
Q 2381 391 2643 752 
Q 2906 1113 2906 1747 
Q 2906 2381 2643 2742 
Q 2381 3103 1925 3103 
Q 1469 3103 1208 2742 
Q 947 2381 947 1747 
z
" transform="scale(0.015625)"/>
      </defs>
      <use xlink:href="#DejaVuSans-41"/>
      <use xlink:href="#DejaVuSans-76" transform="translate(62.533203 0)"/>
      <use xlink:href="#DejaVuSans-65" transform="translate(121.712891 0)"/>
      <use xlink:href="#DejaVuSans-72" transform="translate(183.236328 0)"/>
      <use xlink:href="#DejaVuSans-61" transform="translate(224.349609 0)"/>
      <use xlink:href="#DejaVuSans-67" transform="translate(285.628906 0)"/>
      <use xlink:href="#DejaVuSans-65" transform="translate(349.105469 0)"/>
      <use xlink:href="#DejaVuSans-20" transform="translate(410.628906 0)"/>
      <use xlink:href="#DejaVuSans-6d" transform="translate(442.416016 0)"/>
      <use xlink:href="#DejaVuSans-61" transform="translate(539.828125 0)"/>
      <use xlink:href="#DejaVuSans-78" transform="translate(601.107422 0)"/>
      <use xlink:href="#DejaVuSans-20" transform="translate(660.287109 0)"/>
      <use xlink:href="#DejaVuSans-66" transform="translate(692.074219 0)"/>
      <use xlink:href="#DejaVuSans-69" transform="translate(727.279297 0)"/>
      <use xlink:href="#DejaVuSans-74" transform="translate(755.0625 0)"/>
      <use xlink:href="#DejaVuSans-6e" transform="translate(794.271484 0)"/>
      <use xlink:href="#DejaVuSans-65" transform="translate(857.650391 0)"/>
      <use xlink:href="#DejaVuSans-73" transform="translate(919.173828 0)"/>
      <use xlink:href="#DejaVuSans-73" transform="translate(971.273438 0)"/>
      <use xlink:href="#DejaVuSans-20" transform="translate(1023.373047 0)"/>
      <use xlink:href="#DejaVuSans-61" transform="translate(1055.160156 0)"/>
      <use xlink:href="#DejaVuSans-63" transform="translate(1116.439453 0)"/>
      <use xlink:href="#DejaVuSans-68" transform="translate(1171.419922 0)"/>
      <use xlink:href="#DejaVuSans-69" transform="translate(1234.798828 0)"/>
      <use xlink:href="#DejaVuSans-65" transform="translate(1262.582031 0)"/>
      <use xlink:href="#DejaVuSans-76" transform="translate(1324.105469 0)"/>
      <use xlink:href="#DejaVuSans-65" transform="translate(1383.285156 0)"/>
      <use xlink:href="#DejaVuSans-64" transform="translate(1444.808594 0)"/>
     </g>
    </g>
   </g>
   <g id="line2d_13">
    <path d="M 43.78125 196.877034 
L 60.171596 188.356511 
L 86.033644 174.758627 
L 122.484152 157.332259 
L 148.3462 145.226687 
L 168.406362 132.256829 
L 184.796709 118.513219 
L 198.654549 110.4255 
L 239.287115 92.827564 
L 297.417614 73.319078 
" clip-path="url(#pd72e0034d4)" style="fill: none; stroke-dasharray: 12,4; stroke-dashoffset: 0; stroke: #56b4e9; stroke-width: 2"/>
    <defs>
     <path id="md99d1713fc" d="M 0 3 
C 0.795609 3 1.55874 2.683901 2.12132 2.12132 
C 2.683901 1.55874 3 0.795609 3 0 
C 3 -0.795609 2.683901 -1.55874 2.12132 -2.12132 
C 1.55874 -2.683901 0.795609 -3 0 -3 
C -0.795609 -3 -1.55874 -2.683901 -2.12132 -2.12132 
C -2.683901 -1.55874 -3 -0.795609 -3 0 
C -3 0.795609 -2.683901 1.55874 -2.12132 2.12132 
C -1.55874 2.683901 -0.795609 3 0 3 
z
" style="stroke: #56b4e9"/>
    </defs>
    <g clip-path="url(#pd72e0034d4)">
     <use xlink:href="#md99d1713fc" x="43.78125" y="196.877034" style="fill: #56b4e9; stroke: #56b4e9"/>
     <use xlink:href="#md99d1713fc" x="60.171596" y="188.356511" style="fill: #56b4e9; stroke: #56b4e9"/>
     <use xlink:href="#md99d1713fc" x="86.033644" y="174.758627" style="fill: #56b4e9; stroke: #56b4e9"/>
     <use xlink:href="#md99d1713fc" x="122.484152" y="157.332259" style="fill: #56b4e9; stroke: #56b4e9"/>
     <use xlink:href="#md99d1713fc" x="148.3462" y="145.226687" style="fill: #56b4e9; stroke: #56b4e9"/>
     <use xlink:href="#md99d1713fc" x="168.406362" y="132.256829" style="fill: #56b4e9; stroke: #56b4e9"/>
     <use xlink:href="#md99d1713fc" x="184.796709" y="118.513219" style="fill: #56b4e9; stroke: #56b4e9"/>
     <use xlink:href="#md99d1713fc" x="198.654549" y="110.4255" style="fill: #56b4e9; stroke: #56b4e9"/>
     <use xlink:href="#md99d1713fc" x="239.287115" y="92.827564" style="fill: #56b4e9; stroke: #56b4e9"/>
     <use xlink:href="#md99d1713fc" x="297.417614" y="73.319078" style="fill: #56b4e9; stroke: #56b4e9"/>
    </g>
   </g>
   <g id="line2d_14">
    <path d="M 43.78125 189.92955 
L 60.171596 186.467063 
L 86.033644 169.296799 
L 122.484152 158.724286 
L 148.3462 142.872477 
L 168.406362 143.045277 
L 184.796709 129.497616 
L 198.654549 125.157907 
L 239.287115 105.277616 
L 297.417614 105.555065 
" clip-path="url(#pd72e0034d4)" style="fill: none; stroke: #0173b2; stroke-width: 2; stroke-linecap: square"/>
    <defs>
     <path id="m1d4723f8fd" d="M 0 3 
C 0.795609 3 1.55874 2.683901 2.12132 2.12132 
C 2.683901 1.55874 3 0.795609 3 0 
C 3 -0.795609 2.683901 -1.55874 2.12132 -2.12132 
C 1.55874 -2.683901 0.795609 -3 0 -3 
C -0.795609 -3 -1.55874 -2.683901 -2.12132 -2.12132 
C -2.683901 -1.55874 -3 -0.795609 -3 0 
C -3 0.795609 -2.683901 1.55874 -2.12132 2.12132 
C -1.55874 2.683901 -0.795609 3 0 3 
z
" style="stroke: #0173b2"/>
    </defs>
    <g clip-path="url(#pd72e0034d4)">
     <use xlink:href="#m1d4723f8fd" x="43.78125" y="189.92955" style="fill: #0173b2; stroke: #0173b2"/>
     <use xlink:href="#m1d4723f8fd" x="60.171596" y="186.467063" style="fill: #0173b2; stroke: #0173b2"/>
     <use xlink:href="#m1d4723f8fd" x="86.033644" y="169.296799" style="fill: #0173b2; stroke: #0173b2"/>
     <use xlink:href="#m1d4723f8fd" x="122.484152" y="158.724286" style="fill: #0173b2; stroke: #0173b2"/>
     <use xlink:href="#m1d4723f8fd" x="148.3462" y="142.872477" style="fill: #0173b2; stroke: #0173b2"/>
     <use xlink:href="#m1d4723f8fd" x="168.406362" y="143.045277" style="fill: #0173b2; stroke: #0173b2"/>
     <use xlink:href="#m1d4723f8fd" x="184.796709" y="129.497616" style="fill: #0173b2; stroke: #0173b2"/>
     <use xlink:href="#m1d4723f8fd" x="198.654549" y="125.157907" style="fill: #0173b2; stroke: #0173b2"/>
     <use xlink:href="#m1d4723f8fd" x="239.287115" y="105.277616" style="fill: #0173b2; stroke: #0173b2"/>
     <use xlink:href="#m1d4723f8fd" x="297.417614" y="105.555065" style="fill: #0173b2; stroke: #0173b2"/>
    </g>
   </g>
   <g id="line2d_15">
    <path d="M 43.78125 194.506607 
L 60.171596 193.538543 
L 86.033644 178.082375 
L 122.484152 162.764835 
L 148.3462 155.173694 
L 168.406362 135.598892 
L 184.796709 124.506536 
L 198.654549 115.799285 
L 239.287115 86.67116 
L 297.417614 59.446427 
" clip-path="url(#pd72e0034d4)" style="fill: none; stroke-dasharray: 2,3.3; stroke-dashoffset: 0; stroke: #ece133; stroke-width: 2"/>
    <defs>
     <path id="m8dd6e18990" d="M 0 3 
C 0.795609 3 1.55874 2.683901 2.12132 2.12132 
C 2.683901 1.55874 3 0.795609 3 0 
C 3 -0.795609 2.683901 -1.55874 2.12132 -2.12132 
C 1.55874 -2.683901 0.795609 -3 0 -3 
C -0.795609 -3 -1.55874 -2.683901 -2.12132 -2.12132 
C -2.683901 -1.55874 -3 -0.795609 -3 0 
C -3 0.795609 -2.683901 1.55874 -2.12132 2.12132 
C -1.55874 2.683901 -0.795609 3 0 3 
z
" style="stroke: #ece133"/>
    </defs>
    <g clip-path="url(#pd72e0034d4)">
     <use xlink:href="#m8dd6e18990" x="43.78125" y="194.506607" style="fill: #ece133; stroke: #ece133"/>
     <use xlink:href="#m8dd6e18990" x="60.171596" y="193.538543" style="fill: #ece133; stroke: #ece133"/>
     <use xlink:href="#m8dd6e18990" x="86.033644" y="178.082375" style="fill: #ece133; stroke: #ece133"/>
     <use xlink:href="#m8dd6e18990" x="122.484152" y="162.764835" style="fill: #ece133; stroke: #ece133"/>
     <use xlink:href="#m8dd6e18990" x="148.3462" y="155.173694" style="fill: #ece133; stroke: #ece133"/>
     <use xlink:href="#m8dd6e18990" x="168.406362" y="135.598892" style="fill: #ece133; stroke: #ece133"/>
     <use xlink:href="#m8dd6e18990" x="184.796709" y="124.506536" style="fill: #ece133; stroke: #ece133"/>
     <use xlink:href="#m8dd6e18990" x="198.654549" y="115.799285" style="fill: #ece133; stroke: #ece133"/>
     <use xlink:href="#m8dd6e18990" x="239.287115" y="86.67116" style="fill: #ece133; stroke: #ece133"/>
     <use xlink:href="#m8dd6e18990" x="297.417614" y="59.446427" style="fill: #ece133; stroke: #ece133"/>
    </g>
   </g>
   <g id="line2d_16">
    <path d="M 43.78125 187.280029 
L 60.171596 182.418292 
L 86.033644 174.015051 
L 122.484152 152.237444 
L 148.3462 145.722441 
L 168.406362 126.937766 
L 184.796709 116.562951 
L 198.654549 105.030198 
L 239.287115 85.955974 
L 297.417614 55.844009 
" clip-path="url(#pd72e0034d4)" style="fill: none; stroke: #de8f05; stroke-width: 2; stroke-linecap: square"/>
    <defs>
     <path id="mc735366411" d="M 0 3 
C 0.795609 3 1.55874 2.683901 2.12132 2.12132 
C 2.683901 1.55874 3 0.795609 3 0 
C 3 -0.795609 2.683901 -1.55874 2.12132 -2.12132 
C 1.55874 -2.683901 0.795609 -3 0 -3 
C -0.795609 -3 -1.55874 -2.683901 -2.12132 -2.12132 
C -2.683901 -1.55874 -3 -0.795609 -3 0 
C -3 0.795609 -2.683901 1.55874 -2.12132 2.12132 
C -1.55874 2.683901 -0.795609 3 0 3 
z
" style="stroke: #de8f05"/>
    </defs>
    <g clip-path="url(#pd72e0034d4)">
     <use xlink:href="#mc735366411" x="43.78125" y="187.280029" style="fill: #de8f05; stroke: #de8f05"/>
     <use xlink:href="#mc735366411" x="60.171596" y="182.418292" style="fill: #de8f05; stroke: #de8f05"/>
     <use xlink:href="#mc735366411" x="86.033644" y="174.015051" style="fill: #de8f05; stroke: #de8f05"/>
     <use xlink:href="#mc735366411" x="122.484152" y="152.237444" style="fill: #de8f05; stroke: #de8f05"/>
     <use xlink:href="#mc735366411" x="148.3462" y="145.722441" style="fill: #de8f05; stroke: #de8f05"/>
     <use xlink:href="#mc735366411" x="168.406362" y="126.937766" style="fill: #de8f05; stroke: #de8f05"/>
     <use xlink:href="#mc735366411" x="184.796709" y="116.562951" style="fill: #de8f05; stroke: #de8f05"/>
     <use xlink:href="#mc735366411" x="198.654549" y="105.030198" style="fill: #de8f05; stroke: #de8f05"/>
     <use xlink:href="#mc735366411" x="239.287115" y="85.955974" style="fill: #de8f05; stroke: #de8f05"/>
     <use xlink:href="#mc735366411" x="297.417614" y="55.844009" style="fill: #de8f05; stroke: #de8f05"/>
    </g>
   </g>
   <g id="line2d_17">
    <path d="M 43.78125 190.836719 
L 60.171596 194.040615 
L 86.033644 176.178152 
L 122.484152 148.959984 
L 148.3462 143.459168 
L 168.406362 127.577107 
L 184.796709 118.768671 
L 198.654549 109.737586 
L 239.287115 80.955459 
L 297.417614 56.003188 
" clip-path="url(#pd72e0034d4)" style="fill: none; stroke-dasharray: 2,3.3; stroke-dashoffset: 0; stroke: #fbafe4; stroke-width: 2"/>
    <defs>
     <path id="m89ac284b99" d="M 0 3 
C 0.795609 3 1.55874 2.683901 2.12132 2.12132 
C 2.683901 1.55874 3 0.795609 3 0 
C 3 -0.795609 2.683901 -1.55874 2.12132 -2.12132 
C 1.55874 -2.683901 0.795609 -3 0 -3 
C -0.795609 -3 -1.55874 -2.683901 -2.12132 -2.12132 
C -2.683901 -1.55874 -3 -0.795609 -3 0 
C -3 0.795609 -2.683901 1.55874 -2.12132 2.12132 
C -1.55874 2.683901 -0.795609 3 0 3 
z
" style="stroke: #fbafe4"/>
    </defs>
    <g clip-path="url(#pd72e0034d4)">
     <use xlink:href="#m89ac284b99" x="43.78125" y="190.836719" style="fill: #fbafe4; stroke: #fbafe4"/>
     <use xlink:href="#m89ac284b99" x="60.171596" y="194.040615" style="fill: #fbafe4; stroke: #fbafe4"/>
     <use xlink:href="#m89ac284b99" x="86.033644" y="176.178152" style="fill: #fbafe4; stroke: #fbafe4"/>
     <use xlink:href="#m89ac284b99" x="122.484152" y="148.959984" style="fill: #fbafe4; stroke: #fbafe4"/>
     <use xlink:href="#m89ac284b99" x="148.3462" y="143.459168" style="fill: #fbafe4; stroke: #fbafe4"/>
     <use xlink:href="#m89ac284b99" x="168.406362" y="127.577107" style="fill: #fbafe4; stroke: #fbafe4"/>
     <use xlink:href="#m89ac284b99" x="184.796709" y="118.768671" style="fill: #fbafe4; stroke: #fbafe4"/>
     <use xlink:href="#m89ac284b99" x="198.654549" y="109.737586" style="fill: #fbafe4; stroke: #fbafe4"/>
     <use xlink:href="#m89ac284b99" x="239.287115" y="80.955459" style="fill: #fbafe4; stroke: #fbafe4"/>
     <use xlink:href="#m89ac284b99" x="297.417614" y="56.003188" style="fill: #fbafe4; stroke: #fbafe4"/>
    </g>
   </g>
   <g id="line2d_18">
    <path d="M 43.78125 188.537655 
L 60.171596 179.697537 
L 86.033644 169.921503 
L 122.484152 151.610228 
L 148.3462 134.595743 
L 168.406362 125.287345 
L 184.796709 113.950554 
L 198.654549 104.064715 
L 239.287115 82.728442 
L 297.417614 52.326712 
" clip-path="url(#pd72e0034d4)" style="fill: none; stroke: #cc78bc; stroke-width: 2; stroke-linecap: square"/>
    <defs>
     <path id="md17d611b77" d="M 0 3 
C 0.795609 3 1.55874 2.683901 2.12132 2.12132 
C 2.683901 1.55874 3 0.795609 3 0 
C 3 -0.795609 2.683901 -1.55874 2.12132 -2.12132 
C 1.55874 -2.683901 0.795609 -3 0 -3 
C -0.795609 -3 -1.55874 -2.683901 -2.12132 -2.12132 
C -2.683901 -1.55874 -3 -0.795609 -3 0 
C -3 0.795609 -2.683901 1.55874 -2.12132 2.12132 
C -1.55874 2.683901 -0.795609 3 0 3 
z
" style="stroke: #cc78bc"/>
    </defs>
    <g clip-path="url(#pd72e0034d4)">
     <use xlink:href="#md17d611b77" x="43.78125" y="188.537655" style="fill: #cc78bc; stroke: #cc78bc"/>
     <use xlink:href="#md17d611b77" x="60.171596" y="179.697537" style="fill: #cc78bc; stroke: #cc78bc"/>
     <use xlink:href="#md17d611b77" x="86.033644" y="169.921503" style="fill: #cc78bc; stroke: #cc78bc"/>
     <use xlink:href="#md17d611b77" x="122.484152" y="151.610228" style="fill: #cc78bc; stroke: #cc78bc"/>
     <use xlink:href="#md17d611b77" x="148.3462" y="134.595743" style="fill: #cc78bc; stroke: #cc78bc"/>
     <use xlink:href="#md17d611b77" x="168.406362" y="125.287345" style="fill: #cc78bc; stroke: #cc78bc"/>
     <use xlink:href="#md17d611b77" x="184.796709" y="113.950554" style="fill: #cc78bc; stroke: #cc78bc"/>
     <use xlink:href="#md17d611b77" x="198.654549" y="104.064715" style="fill: #cc78bc; stroke: #cc78bc"/>
     <use xlink:href="#md17d611b77" x="239.287115" y="82.728442" style="fill: #cc78bc; stroke: #cc78bc"/>
     <use xlink:href="#md17d611b77" x="297.417614" y="52.326712" style="fill: #cc78bc; stroke: #cc78bc"/>
    </g>
   </g>
   <g id="line2d_19">
    <path d="M 43.78125 184.371613 
L 60.171596 177.159957 
L 86.033644 176.499456 
L 122.484152 149.669432 
L 148.3462 133.810413 
L 168.406362 124.396215 
L 184.796709 117.429947 
L 198.654549 112.106565 
L 239.287115 81.591277 
L 297.417614 49.646193 
" clip-path="url(#pd72e0034d4)" style="fill: none; stroke-dasharray: 2,3.3; stroke-dashoffset: 0; stroke: #ca9161; stroke-width: 2"/>
    <defs>
     <path id="mf03a996263" d="M 0 3 
C 0.795609 3 1.55874 2.683901 2.12132 2.12132 
C 2.683901 1.55874 3 0.795609 3 0 
C 3 -0.795609 2.683901 -1.55874 2.12132 -2.12132 
C 1.55874 -2.683901 0.795609 -3 0 -3 
C -0.795609 -3 -1.55874 -2.683901 -2.12132 -2.12132 
C -2.683901 -1.55874 -3 -0.795609 -3 0 
C -3 0.795609 -2.683901 1.55874 -2.12132 2.12132 
C -1.55874 2.683901 -0.795609 3 0 3 
z
" style="stroke: #ca9161"/>
    </defs>
    <g clip-path="url(#pd72e0034d4)">
     <use xlink:href="#mf03a996263" x="43.78125" y="184.371613" style="fill: #ca9161; stroke: #ca9161"/>
     <use xlink:href="#mf03a996263" x="60.171596" y="177.159957" style="fill: #ca9161; stroke: #ca9161"/>
     <use xlink:href="#mf03a996263" x="86.033644" y="176.499456" style="fill: #ca9161; stroke: #ca9161"/>
     <use xlink:href="#mf03a996263" x="122.484152" y="149.669432" style="fill: #ca9161; stroke: #ca9161"/>
     <use xlink:href="#mf03a996263" x="148.3462" y="133.810413" style="fill: #ca9161; stroke: #ca9161"/>
     <use xlink:href="#mf03a996263" x="168.406362" y="124.396215" style="fill: #ca9161; stroke: #ca9161"/>
     <use xlink:href="#mf03a996263" x="184.796709" y="117.429947" style="fill: #ca9161; stroke: #ca9161"/>
     <use xlink:href="#mf03a996263" x="198.654549" y="112.106565" style="fill: #ca9161; stroke: #ca9161"/>
     <use xlink:href="#mf03a996263" x="239.287115" y="81.591277" style="fill: #ca9161; stroke: #ca9161"/>
     <use xlink:href="#mf03a996263" x="297.417614" y="49.646193" style="fill: #ca9161; stroke: #ca9161"/>
    </g>
   </g>
   <g id="line2d_20">
    <path d="M 43.78125 188.285385 
L 60.171596 181.138218 
L 86.033644 168.712448 
L 122.484152 152.206107 
L 148.3462 137.452801 
L 168.406362 121.806896 
L 184.796709 110.147809 
L 198.654549 99.916851 
L 239.287115 82.696921 
L 297.417614 52.015682 
" clip-path="url(#pd72e0034d4)" style="fill: none; stroke: #d55e00; stroke-width: 2; stroke-linecap: square"/>
    <defs>
     <path id="mcdcb529695" d="M 0 3 
C 0.795609 3 1.55874 2.683901 2.12132 2.12132 
C 2.683901 1.55874 3 0.795609 3 0 
C 3 -0.795609 2.683901 -1.55874 2.12132 -2.12132 
C 1.55874 -2.683901 0.795609 -3 0 -3 
C -0.795609 -3 -1.55874 -2.683901 -2.12132 -2.12132 
C -2.683901 -1.55874 -3 -0.795609 -3 0 
C -3 0.795609 -2.683901 1.55874 -2.12132 2.12132 
C -1.55874 2.683901 -0.795609 3 0 3 
z
" style="stroke: #d55e00"/>
    </defs>
    <g clip-path="url(#pd72e0034d4)">
     <use xlink:href="#mcdcb529695" x="43.78125" y="188.285385" style="fill: #d55e00; stroke: #d55e00"/>
     <use xlink:href="#mcdcb529695" x="60.171596" y="181.138218" style="fill: #d55e00; stroke: #d55e00"/>
     <use xlink:href="#mcdcb529695" x="86.033644" y="168.712448" style="fill: #d55e00; stroke: #d55e00"/>
     <use xlink:href="#mcdcb529695" x="122.484152" y="152.206107" style="fill: #d55e00; stroke: #d55e00"/>
     <use xlink:href="#mcdcb529695" x="148.3462" y="137.452801" style="fill: #d55e00; stroke: #d55e00"/>
     <use xlink:href="#mcdcb529695" x="168.406362" y="121.806896" style="fill: #d55e00; stroke: #d55e00"/>
     <use xlink:href="#mcdcb529695" x="184.796709" y="110.147809" style="fill: #d55e00; stroke: #d55e00"/>
     <use xlink:href="#mcdcb529695" x="198.654549" y="99.916851" style="fill: #d55e00; stroke: #d55e00"/>
     <use xlink:href="#mcdcb529695" x="239.287115" y="82.696921" style="fill: #d55e00; stroke: #d55e00"/>
     <use xlink:href="#mcdcb529695" x="297.417614" y="52.015682" style="fill: #d55e00; stroke: #d55e00"/>
    </g>
   </g>
   <g id="patch_3">
    <path d="M 43.78125 232.759219 
L 43.78125 10.999219 
" style="fill: none; stroke: #000000; stroke-width: 0.8; stroke-linejoin: miter; stroke-linecap: square"/>
   </g>
   <g id="patch_4">
    <path d="M 297.417614 232.759219 
L 297.417614 10.999219 
" style="fill: none; stroke: #000000; stroke-width: 0.8; stroke-linejoin: miter; stroke-linecap: square"/>
   </g>
   <g id="patch_5">
    <path d="M 43.78125 232.759219 
L 297.417614 232.759219 
" style="fill: none; stroke: #000000; stroke-width: 0.8; stroke-linejoin: miter; stroke-linecap: square"/>
   </g>
   <g id="patch_6">
    <path d="M 43.78125 10.999219 
L 297.417614 10.999219 
" style="fill: none; stroke: #000000; stroke-width: 0.8; stroke-linejoin: miter; stroke-linecap: square"/>
   </g>
  </g>
  <g id="axes_2">
   <g id="patch_7">
    <path d="M 348.144886 232.759219 
L 601.78125 232.759219 
L 601.78125 10.999219 
L 348.144886 10.999219 
z
" style="fill: #ffffff"/>
   </g>
   <g id="FillBetweenPolyCollection_9">
    <defs>
     <path id="me554c0532c" d="M 348.144886 -48.64425 
L 348.144886 -39.77385 
L 364.535233 -40.15433 
L 390.39728 -45.397458 
L 426.847789 -56.972308 
L 452.709836 -60.515177 
L 472.769999 -69.385577 
L 489.160345 -76.505056 
L 503.018185 -77.288862 
L 543.650751 -96.150205 
L 601.78125 -100.555034 
L 601.78125 -189.664666 
L 601.78125 -189.664666 
L 543.650751 -165.240695 
L 503.018185 -133.097238 
L 489.160345 -131.663444 
L 472.769999 -109.954123 
L 452.709836 -101.083723 
L 426.847789 -82.450592 
L 390.39728 -60.761442 
L 364.535233 -52.69897 
L 348.144886 -48.64425 
z
" style="stroke: #56b4e9; stroke-opacity: 0.05"/>
    </defs>
    <g clip-path="url(#p41d6e73f59)">
     <use xlink:href="#me554c0532c" x="0" y="270.315469" style="fill: #56b4e9; fill-opacity: 0.05; stroke: #56b4e9; stroke-opacity: 0.05"/>
    </g>
   </g>
   <g id="FillBetweenPolyCollection_10">
    <defs>
     <path id="maa7c2e485f" d="M 348.144886 -53.999431 
L 348.144886 -45.506669 
L 364.535233 -45.31785 
L 390.39728 -49.988801 
L 426.847789 -55.186537 
L 452.709836 -62.073337 
L 472.769999 -59.532165 
L 489.160345 -64.077794 
L 503.018185 -59.590637 
L 543.650751 -60.487521 
L 601.78125 -38.737196 
L 601.78125 -220.436104 
L 601.78125 -220.436104 
L 543.650751 -196.468179 
L 503.018185 -155.230663 
L 489.160345 -141.873106 
L 472.769999 -110.937135 
L 452.709836 -115.048763 
L 426.847789 -88.671563 
L 390.39728 -82.781299 
L 364.535233 -58.62345 
L 348.144886 -53.999431 
z
" style="stroke: #0173b2; stroke-opacity: 0.05"/>
    </defs>
    <g clip-path="url(#p41d6e73f59)">
     <use xlink:href="#maa7c2e485f" x="0" y="270.315469" style="fill: #0173b2; fill-opacity: 0.05; stroke: #0173b2; stroke-opacity: 0.05"/>
    </g>
   </g>
   <g id="FillBetweenPolyCollection_11">
    <defs>
     <path id="mf892d2b631" d="M 348.144886 -49.75305 
L 348.144886 -36.44745 
L 364.535233 -35.71913 
L 390.39728 -39.997873 
L 426.847789 -42.776895 
L 452.709836 -45.740318 
L 472.769999 -46.846036 
L 489.160345 -58.54604 
L 503.018185 -53.775186 
L 543.650751 -86.747102 
L 601.78125 -122.066666 
L 601.78125 -223.593034 
L 601.78125 -223.593034 
L 543.650751 -199.037398 
L 503.018185 -154.393314 
L 489.160345 -127.44646 
L 472.769999 -123.623264 
L 452.709836 -87.029782 
L 426.847789 -89.993205 
L 390.39728 -61.725827 
L 364.535233 -48.26377 
L 348.144886 -49.75305 
z
" style="stroke: #ece133; stroke-opacity: 0.05"/>
    </defs>
    <g clip-path="url(#p41d6e73f59)">
     <use xlink:href="#mf892d2b631" x="0" y="270.315469" style="fill: #ece133; fill-opacity: 0.05; stroke: #ece133; stroke-opacity: 0.05"/>
    </g>
   </g>
   <g id="FillBetweenPolyCollection_12">
    <defs>
     <path id="m004a322785" d="M 348.144886 -59.587466 
L 348.144886 -39.918634 
L 364.535233 -41.357352 
L 390.39728 -41.751781 
L 426.847789 -45.133597 
L 452.709836 -55.533395 
L 472.769999 -62.805453 
L 489.160345 -73.347157 
L 503.018185 -83.719308 
L 543.650751 -98.156028 
L 601.78125 -131.601434 
L 601.78125 -220.711066 
L 601.78125 -220.711066 
L 543.650751 -200.934072 
L 503.018185 -157.713192 
L 489.160345 -145.909343 
L 472.769999 -134.275047 
L 452.709836 -103.847905 
L 426.847789 -107.594903 
L 390.39728 -71.059919 
L 364.535233 -58.148748 
L 348.144886 -59.587466 
z
" style="stroke: #de8f05; stroke-opacity: 0.05"/>
    </defs>
    <g clip-path="url(#p41d6e73f59)">
     <use xlink:href="#m004a322785" x="0" y="270.315469" style="fill: #de8f05; fill-opacity: 0.05; stroke: #de8f05; stroke-opacity: 0.05"/>
    </g>
   </g>
   <g id="FillBetweenPolyCollection_13">
    <defs>
     <path id="mf2105d15a9" d="M 348.144886 -55.797819 
L 348.144886 -34.837881 
L 364.535233 -36.636269 
L 390.39728 -40.91529 
L 426.847789 -49.718847 
L 452.709836 -42.736915 
L 472.769999 -56.854286 
L 489.160345 -57.434365 
L 503.018185 -50.469524 
L 543.650751 -89.765297 
L 601.78125 -127.840082 
L 601.78125 -242.213218 
L 601.78125 -242.213218 
L 543.650751 -227.065603 
L 503.018185 -188.745376 
L 489.160345 -159.604535 
L 472.769999 -146.879014 
L 452.709836 -129.949985 
L 426.847789 -109.662453 
L 390.39728 -78.54921 
L 364.535233 -45.129031 
L 348.144886 -55.797819 
z
" style="stroke: #fbafe4; stroke-opacity: 0.05"/>
    </defs>
    <g clip-path="url(#p41d6e73f59)">
     <use xlink:href="#mf2105d15a9" x="0" y="270.315469" style="fill: #fbafe4; fill-opacity: 0.05; stroke: #fbafe4; stroke-opacity: 0.05"/>
    </g>
   </g>
   <g id="FillBetweenPolyCollection_14">
    <defs>
     <path id="m8432b70d98" d="M 348.144886 -57.137011 
L 348.144886 -40.151489 
L 364.535233 -42.136234 
L 390.39728 -43.431533 
L 426.847789 -46.639585 
L 452.709836 -54.578043 
L 472.769999 -57.95039 
L 489.160345 -82.224125 
L 503.018185 -68.934834 
L 543.650751 -95.529527 
L 601.78125 -137.920752 
L 601.78125 -245.438148 
L 601.78125 -245.438148 
L 543.650751 -214.648573 
L 503.018185 -185.803266 
L 489.160345 -163.643575 
L 472.769999 -159.08851 
L 452.709836 -142.502457 
L 426.847789 -106.088915 
L 390.39728 -82.685767 
L 364.535233 -61.805066 
L 348.144886 -57.137011 
z
" style="stroke: #cc78bc; stroke-opacity: 0.05"/>
    </defs>
    <g clip-path="url(#p41d6e73f59)">
     <use xlink:href="#m8432b70d98" x="0" y="270.315469" style="fill: #cc78bc; fill-opacity: 0.05; stroke: #cc78bc; stroke-opacity: 0.05"/>
    </g>
   </g>
   <g id="FillBetweenPolyCollection_15">
    <defs>
     <path id="mb3631aa8a3" d="M 348.144886 -61.44757 
L 348.144886 -35.84093 
L 364.535233 -33.269386 
L 390.39728 -39.663337 
L 426.847789 -47.509059 
L 452.709836 -47.552253 
L 472.769999 -50.453863 
L 489.160345 -53.751796 
L 503.018185 -54.200571 
L 543.650751 -83.162193 
L 601.78125 -148.936863 
L 601.78125 -249.945237 
L 601.78125 -249.945237 
L 543.650751 -227.015907 
L 503.018185 -187.231929 
L 489.160345 -174.375104 
L 472.769999 -164.367437 
L 452.709836 -145.093047 
L 426.847789 -125.177841 
L 390.39728 -73.148363 
L 364.535233 -77.324714 
L 348.144886 -61.44757 
z
" style="stroke: #ca9161; stroke-opacity: 0.05"/>
    </defs>
    <g clip-path="url(#p41d6e73f59)">
     <use xlink:href="#mb3631aa8a3" x="0" y="270.315469" style="fill: #ca9161; fill-opacity: 0.05; stroke: #ca9161; stroke-opacity: 0.05"/>
    </g>
   </g>
   <g id="FillBetweenPolyCollection_16">
    <defs>
     <path id="md58ac9bc95" d="M 348.144886 -50.047976 
L 348.144886 -42.805324 
L 364.535233 -39.663337 
L 390.39728 -42.774377 
L 426.847789 -46.242329 
L 452.709836 -47.449284 
L 472.769999 -68.273243 
L 489.160345 -57.113933 
L 503.018185 -72.302712 
L 543.650751 -99.75724 
L 601.78125 -141.873963 
L 601.78125 -245.920137 
L 601.78125 -245.920137 
L 543.650751 -217.07366 
L 503.018185 -206.828988 
L 489.160345 -197.624167 
L 472.769999 -153.200857 
L 452.709836 -147.413616 
L 426.847789 -117.574171 
L 390.39728 -83.342923 
L 364.535233 -73.148363 
L 348.144886 -50.047976 
z
" style="stroke: #d55e00; stroke-opacity: 0.05"/>
    </defs>
    <g clip-path="url(#p41d6e73f59)">
     <use xlink:href="#md58ac9bc95" x="0" y="270.315469" style="fill: #d55e00; fill-opacity: 0.05; stroke: #d55e00; stroke-opacity: 0.05"/>
    </g>
   </g>
   <g id="matplotlib.axis_3">
    <g id="xtick_7">
     <g id="line2d_21">
      <g>
       <use xlink:href="#m3d2dcf59d8" x="348.144886" y="232.759219" style="stroke: #000000; stroke-width: 0.8"/>
      </g>
     </g>
     <g id="text_15">
      <!-- 120 -->
      <g transform="translate(338.601136 247.357656) scale(0.1 -0.1)">
       <use xlink:href="#DejaVuSans-31"/>
       <use xlink:href="#DejaVuSans-32" transform="translate(63.623047 0)"/>
       <use xlink:href="#DejaVuSans-30" transform="translate(127.246094 0)"/>
      </g>
     </g>
    </g>
    <g id="xtick_8">
     <g id="line2d_22">
      <g>
       <use xlink:href="#m3d2dcf59d8" x="390.39728" y="232.759219" style="stroke: #000000; stroke-width: 0.8"/>
      </g>
     </g>
     <g id="text_16">
      <!-- 192 -->
      <g transform="translate(380.85353 247.357656) scale(0.1 -0.1)">
       <use xlink:href="#DejaVuSans-31"/>
       <use xlink:href="#DejaVuSans-39" transform="translate(63.623047 0)"/>
       <use xlink:href="#DejaVuSans-32" transform="translate(127.246094 0)"/>
      </g>
     </g>
    </g>
    <g id="xtick_9">
     <g id="line2d_23">
      <g>
       <use xlink:href="#m3d2dcf59d8" x="426.847789" y="232.759219" style="stroke: #000000; stroke-width: 0.8"/>
      </g>
     </g>
     <g id="text_17">
      <!-- 288 -->
      <g transform="translate(417.304039 247.357656) scale(0.1 -0.1)">
       <use xlink:href="#DejaVuSans-32"/>
       <use xlink:href="#DejaVuSans-38" transform="translate(63.623047 0)"/>
       <use xlink:href="#DejaVuSans-38" transform="translate(127.246094 0)"/>
      </g>
     </g>
    </g>
    <g id="xtick_10">
     <g id="line2d_24">
      <g>
       <use xlink:href="#m3d2dcf59d8" x="472.769999" y="232.759219" style="stroke: #000000; stroke-width: 0.8"/>
      </g>
     </g>
     <g id="text_18">
      <!-- 480 -->
      <g transform="translate(463.226249 247.357656) scale(0.1 -0.1)">
       <use xlink:href="#DejaVuSans-34"/>
       <use xlink:href="#DejaVuSans-38" transform="translate(63.623047 0)"/>
       <use xlink:href="#DejaVuSans-30" transform="translate(127.246094 0)"/>
      </g>
     </g>
    </g>
    <g id="xtick_11">
     <g id="line2d_25">
      <g>
       <use xlink:href="#m3d2dcf59d8" x="543.650751" y="232.759219" style="stroke: #000000; stroke-width: 0.8"/>
      </g>
     </g>
     <g id="text_19">
      <!-- 1056 -->
      <g transform="translate(530.925751 247.357656) scale(0.1 -0.1)">
       <use xlink:href="#DejaVuSans-31"/>
       <use xlink:href="#DejaVuSans-30" transform="translate(63.623047 0)"/>
       <use xlink:href="#DejaVuSans-35" transform="translate(127.246094 0)"/>
       <use xlink:href="#DejaVuSans-36" transform="translate(190.869141 0)"/>
      </g>
     </g>
    </g>
    <g id="xtick_12">
     <g id="line2d_26">
      <g>
       <use xlink:href="#m3d2dcf59d8" x="601.78125" y="232.759219" style="stroke: #000000; stroke-width: 0.8"/>
      </g>
     </g>
     <g id="text_20">
      <!-- 2016 -->
      <g transform="translate(589.05625 247.357656) scale(0.1 -0.1)">
       <use xlink:href="#DejaVuSans-32"/>
       <use xlink:href="#DejaVuSans-30" transform="translate(63.623047 0)"/>
       <use xlink:href="#DejaVuSans-31" transform="translate(127.246094 0)"/>
       <use xlink:href="#DejaVuSans-36" transform="translate(190.869141 0)"/>
      </g>
     </g>
    </g>
    <g id="text_21">
     <!-- Total number of variants -->
     <g transform="translate(413.920099 261.035781) scale(0.1 -0.1)">
      <use xlink:href="#DejaVuSans-54"/>
      <use xlink:href="#DejaVuSans-6f" transform="translate(44.083984 0)"/>
      <use xlink:href="#DejaVuSans-74" transform="translate(105.265625 0)"/>
      <use xlink:href="#DejaVuSans-61" transform="translate(144.474609 0)"/>
      <use xlink:href="#DejaVuSans-6c" transform="translate(205.753906 0)"/>
      <use xlink:href="#DejaVuSans-20" transform="translate(233.537109 0)"/>
      <use xlink:href="#DejaVuSans-6e" transform="translate(265.324219 0)"/>
      <use xlink:href="#DejaVuSans-75" transform="translate(328.703125 0)"/>
      <use xlink:href="#DejaVuSans-6d" transform="translate(392.082031 0)"/>
      <use xlink:href="#DejaVuSans-62" transform="translate(489.494141 0)"/>
      <use xlink:href="#DejaVuSans-65" transform="translate(552.970703 0)"/>
      <use xlink:href="#DejaVuSans-72" transform="translate(614.494141 0)"/>
      <use xlink:href="#DejaVuSans-20" transform="translate(655.607422 0)"/>
      <use xlink:href="#DejaVuSans-6f" transform="translate(687.394531 0)"/>
      <use xlink:href="#DejaVuSans-66" transform="translate(748.576172 0)"/>
      <use xlink:href="#DejaVuSans-20" transform="translate(783.78125 0)"/>
      <use xlink:href="#DejaVuSans-76" transform="translate(815.568359 0)"/>
      <use xlink:href="#DejaVuSans-61" transform="translate(874.748047 0)"/>
      <use xlink:href="#DejaVuSans-72" transform="translate(936.027344 0)"/>
      <use xlink:href="#DejaVuSans-69" transform="translate(977.140625 0)"/>
      <use xlink:href="#DejaVuSans-61" transform="translate(1004.923828 0)"/>
      <use xlink:href="#DejaVuSans-6e" transform="translate(1066.203125 0)"/>
      <use xlink:href="#DejaVuSans-74" transform="translate(1129.582031 0)"/>
      <use xlink:href="#DejaVuSans-73" transform="translate(1168.791016 0)"/>
     </g>
    </g>
   </g>
   <g id="matplotlib.axis_4">
    <g id="ytick_7">
     <g id="line2d_27">
      <g>
       <use xlink:href="#m36e7588d10" x="348.144886" y="232.759219" style="stroke: #000000; stroke-width: 0.8"/>
      </g>
     </g>
     <g id="text_22">
      <!-- 0.0 -->
      <g transform="translate(325.241761 236.558437) scale(0.1 -0.1)">
       <use xlink:href="#DejaVuSans-30"/>
       <use xlink:href="#DejaVuSans-2e" transform="translate(63.623047 0)"/>
       <use xlink:href="#DejaVuSans-30" transform="translate(95.410156 0)"/>
      </g>
     </g>
    </g>
    <g id="ytick_8">
     <g id="line2d_28">
      <g>
       <use xlink:href="#m36e7588d10" x="348.144886" y="188.407219" style="stroke: #000000; stroke-width: 0.8"/>
      </g>
     </g>
     <g id="text_23">
      <!-- 0.2 -->
      <g transform="translate(325.241761 192.206437) scale(0.1 -0.1)">
       <use xlink:href="#DejaVuSans-30"/>
       <use xlink:href="#DejaVuSans-2e" transform="translate(63.623047 0)"/>
       <use xlink:href="#DejaVuSans-32" transform="translate(95.410156 0)"/>
      </g>
     </g>
    </g>
    <g id="ytick_9">
     <g id="line2d_29">
      <g>
       <use xlink:href="#m36e7588d10" x="348.144886" y="144.055219" style="stroke: #000000; stroke-width: 0.8"/>
      </g>
     </g>
     <g id="text_24">
      <!-- 0.4 -->
      <g transform="translate(325.241761 147.854437) scale(0.1 -0.1)">
       <use xlink:href="#DejaVuSans-30"/>
       <use xlink:href="#DejaVuSans-2e" transform="translate(63.623047 0)"/>
       <use xlink:href="#DejaVuSans-34" transform="translate(95.410156 0)"/>
      </g>
     </g>
    </g>
    <g id="ytick_10">
     <g id="line2d_30">
      <g>
       <use xlink:href="#m36e7588d10" x="348.144886" y="99.703219" style="stroke: #000000; stroke-width: 0.8"/>
      </g>
     </g>
     <g id="text_25">
      <!-- 0.6 -->
      <g transform="translate(325.241761 103.502437) scale(0.1 -0.1)">
       <use xlink:href="#DejaVuSans-30"/>
       <use xlink:href="#DejaVuSans-2e" transform="translate(63.623047 0)"/>
       <use xlink:href="#DejaVuSans-36" transform="translate(95.410156 0)"/>
      </g>
     </g>
    </g>
    <g id="ytick_11">
     <g id="line2d_31">
      <g>
       <use xlink:href="#m36e7588d10" x="348.144886" y="55.351219" style="stroke: #000000; stroke-width: 0.8"/>
      </g>
     </g>
     <g id="text_26">
      <!-- 0.8 -->
      <g transform="translate(325.241761 59.150437) scale(0.1 -0.1)">
       <use xlink:href="#DejaVuSans-30"/>
       <use xlink:href="#DejaVuSans-2e" transform="translate(63.623047 0)"/>
       <use xlink:href="#DejaVuSans-38" transform="translate(95.410156 0)"/>
      </g>
     </g>
    </g>
    <g id="ytick_12">
     <g id="line2d_32">
      <g>
       <use xlink:href="#m36e7588d10" x="348.144886" y="10.999219" style="stroke: #000000; stroke-width: 0.8"/>
      </g>
     </g>
     <g id="text_27">
      <!-- 1.0 -->
      <g transform="translate(325.241761 14.798437) scale(0.1 -0.1)">
       <use xlink:href="#DejaVuSans-31"/>
       <use xlink:href="#DejaVuSans-2e" transform="translate(63.623047 0)"/>
       <use xlink:href="#DejaVuSans-30" transform="translate(95.410156 0)"/>
      </g>
     </g>
    </g>
    <g id="text_28">
     <!-- Fraction reaching the global optimum -->
     <g transform="translate(319.162074 215.876094) rotate(-90) scale(0.1 -0.1)">
      <defs>
       <path id="DejaVuSans-46" d="M 628 4666 
L 3309 4666 
L 3309 4134 
L 1259 4134 
L 1259 2759 
L 3109 2759 
L 3109 2228 
L 1259 2228 
L 1259 0 
L 628 0 
L 628 4666 
z
" transform="scale(0.015625)"/>
       <path id="DejaVuSans-70" d="M 1159 525 
L 1159 -1331 
L 581 -1331 
L 581 3500 
L 1159 3500 
L 1159 2969 
Q 1341 3281 1617 3432 
Q 1894 3584 2278 3584 
Q 2916 3584 3314 3078 
Q 3713 2572 3713 1747 
Q 3713 922 3314 415 
Q 2916 -91 2278 -91 
Q 1894 -91 1617 61 
Q 1341 213 1159 525 
z
M 3116 1747 
Q 3116 2381 2855 2742 
Q 2594 3103 2138 3103 
Q 1681 3103 1420 2742 
Q 1159 2381 1159 1747 
Q 1159 1113 1420 752 
Q 1681 391 2138 391 
Q 2594 391 2855 752 
Q 3116 1113 3116 1747 
z
" transform="scale(0.015625)"/>
      </defs>
      <use xlink:href="#DejaVuSans-46"/>
      <use xlink:href="#DejaVuSans-72" transform="translate(50.269531 0)"/>
      <use xlink:href="#DejaVuSans-61" transform="translate(91.382812 0)"/>
      <use xlink:href="#DejaVuSans-63" transform="translate(152.662109 0)"/>
      <use xlink:href="#DejaVuSans-74" transform="translate(207.642578 0)"/>
      <use xlink:href="#DejaVuSans-69" transform="translate(246.851562 0)"/>
      <use xlink:href="#DejaVuSans-6f" transform="translate(274.634766 0)"/>
      <use xlink:href="#DejaVuSans-6e" transform="translate(335.816406 0)"/>
      <use xlink:href="#DejaVuSans-20" transform="translate(399.195312 0)"/>
      <use xlink:href="#DejaVuSans-72" transform="translate(430.982422 0)"/>
      <use xlink:href="#DejaVuSans-65" transform="translate(469.845703 0)"/>
      <use xlink:href="#DejaVuSans-61" transform="translate(531.369141 0)"/>
      <use xlink:href="#DejaVuSans-63" transform="translate(592.648438 0)"/>
      <use xlink:href="#DejaVuSans-68" transform="translate(647.628906 0)"/>
      <use xlink:href="#DejaVuSans-69" transform="translate(711.007812 0)"/>
      <use xlink:href="#DejaVuSans-6e" transform="translate(738.791016 0)"/>
      <use xlink:href="#DejaVuSans-67" transform="translate(802.169922 0)"/>
      <use xlink:href="#DejaVuSans-20" transform="translate(865.646484 0)"/>
      <use xlink:href="#DejaVuSans-74" transform="translate(897.433594 0)"/>
      <use xlink:href="#DejaVuSans-68" transform="translate(936.642578 0)"/>
      <use xlink:href="#DejaVuSans-65" transform="translate(1000.021484 0)"/>
      <use xlink:href="#DejaVuSans-20" transform="translate(1061.544922 0)"/>
      <use xlink:href="#DejaVuSans-67" transform="translate(1093.332031 0)"/>
      <use xlink:href="#DejaVuSans-6c" transform="translate(1156.808594 0)"/>
      <use xlink:href="#DejaVuSans-6f" transform="translate(1184.591797 0)"/>
      <use xlink:href="#DejaVuSans-62" transform="translate(1245.773438 0)"/>
      <use xlink:href="#DejaVuSans-61" transform="translate(1309.25 0)"/>
      <use xlink:href="#DejaVuSans-6c" transform="translate(1370.529297 0)"/>
      <use xlink:href="#DejaVuSans-20" transform="translate(1398.3125 0)"/>
      <use xlink:href="#DejaVuSans-6f" transform="translate(1430.099609 0)"/>
      <use xlink:href="#DejaVuSans-70" transform="translate(1491.28125 0)"/>
      <use xlink:href="#DejaVuSans-74" transform="translate(1554.757812 0)"/>
      <use xlink:href="#DejaVuSans-69" transform="translate(1593.966797 0)"/>
      <use xlink:href="#DejaVuSans-6d" transform="translate(1621.75 0)"/>
      <use xlink:href="#DejaVuSans-75" transform="translate(1719.162109 0)"/>
      <use xlink:href="#DejaVuSans-6d" transform="translate(1782.541016 0)"/>
     </g>
    </g>
   </g>
   <g id="line2d_33">
    <path d="M 348.144886 226.106419 
L 364.535233 223.888819 
L 390.39728 217.236019 
L 426.847789 200.604019 
L 452.709836 189.516019 
L 472.769999 180.645619 
L 489.160345 166.231219 
L 503.018185 165.122419 
L 543.650751 139.620019 
L 601.78125 125.205619 
" clip-path="url(#p41d6e73f59)" style="fill: none; stroke-dasharray: 12,4; stroke-dashoffset: 0; stroke: #56b4e9; stroke-width: 2"/>
    <g clip-path="url(#p41d6e73f59)">
     <use xlink:href="#md99d1713fc" x="348.144886" y="226.106419" style="fill: #56b4e9; stroke: #56b4e9"/>
     <use xlink:href="#md99d1713fc" x="364.535233" y="223.888819" style="fill: #56b4e9; stroke: #56b4e9"/>
     <use xlink:href="#md99d1713fc" x="390.39728" y="217.236019" style="fill: #56b4e9; stroke: #56b4e9"/>
     <use xlink:href="#md99d1713fc" x="426.847789" y="200.604019" style="fill: #56b4e9; stroke: #56b4e9"/>
     <use xlink:href="#md99d1713fc" x="452.709836" y="189.516019" style="fill: #56b4e9; stroke: #56b4e9"/>
     <use xlink:href="#md99d1713fc" x="472.769999" y="180.645619" style="fill: #56b4e9; stroke: #56b4e9"/>
     <use xlink:href="#md99d1713fc" x="489.160345" y="166.231219" style="fill: #56b4e9; stroke: #56b4e9"/>
     <use xlink:href="#md99d1713fc" x="503.018185" y="165.122419" style="fill: #56b4e9; stroke: #56b4e9"/>
     <use xlink:href="#md99d1713fc" x="543.650751" y="139.620019" style="fill: #56b4e9; stroke: #56b4e9"/>
     <use xlink:href="#md99d1713fc" x="601.78125" y="125.205619" style="fill: #56b4e9; stroke: #56b4e9"/>
    </g>
   </g>
   <g id="line2d_34">
    <path d="M 348.144886 220.562419 
L 364.535233 218.344819 
L 390.39728 203.930419 
L 426.847789 198.386419 
L 452.709836 181.754419 
L 472.769999 185.080819 
L 489.160345 167.340019 
L 503.018185 162.904819 
L 543.650751 141.837619 
L 601.78125 140.728819 
" clip-path="url(#p41d6e73f59)" style="fill: none; stroke: #0173b2; stroke-width: 2; stroke-linecap: square"/>
    <g clip-path="url(#p41d6e73f59)">
     <use xlink:href="#m1d4723f8fd" x="348.144886" y="220.562419" style="fill: #0173b2; stroke: #0173b2"/>
     <use xlink:href="#m1d4723f8fd" x="364.535233" y="218.344819" style="fill: #0173b2; stroke: #0173b2"/>
     <use xlink:href="#m1d4723f8fd" x="390.39728" y="203.930419" style="fill: #0173b2; stroke: #0173b2"/>
     <use xlink:href="#m1d4723f8fd" x="426.847789" y="198.386419" style="fill: #0173b2; stroke: #0173b2"/>
     <use xlink:href="#m1d4723f8fd" x="452.709836" y="181.754419" style="fill: #0173b2; stroke: #0173b2"/>
     <use xlink:href="#m1d4723f8fd" x="472.769999" y="185.080819" style="fill: #0173b2; stroke: #0173b2"/>
     <use xlink:href="#m1d4723f8fd" x="489.160345" y="167.340019" style="fill: #0173b2; stroke: #0173b2"/>
     <use xlink:href="#m1d4723f8fd" x="503.018185" y="162.904819" style="fill: #0173b2; stroke: #0173b2"/>
     <use xlink:href="#m1d4723f8fd" x="543.650751" y="141.837619" style="fill: #0173b2; stroke: #0173b2"/>
     <use xlink:href="#m1d4723f8fd" x="601.78125" y="140.728819" style="fill: #0173b2; stroke: #0173b2"/>
    </g>
   </g>
   <g id="line2d_35">
    <path d="M 348.144886 227.215219 
L 364.535233 228.324019 
L 390.39728 219.453619 
L 426.847789 203.930419 
L 452.709836 203.930419 
L 472.769999 185.080819 
L 489.160345 177.319219 
L 503.018185 166.231219 
L 543.650751 127.423219 
L 601.78125 97.485619 
" clip-path="url(#p41d6e73f59)" style="fill: none; stroke-dasharray: 2,3.3; stroke-dashoffset: 0; stroke: #ece133; stroke-width: 2"/>
    <g clip-path="url(#p41d6e73f59)">
     <use xlink:href="#m8dd6e18990" x="348.144886" y="227.215219" style="fill: #ece133; stroke: #ece133"/>
     <use xlink:href="#m8dd6e18990" x="364.535233" y="228.324019" style="fill: #ece133; stroke: #ece133"/>
     <use xlink:href="#m8dd6e18990" x="390.39728" y="219.453619" style="fill: #ece133; stroke: #ece133"/>
     <use xlink:href="#m8dd6e18990" x="426.847789" y="203.930419" style="fill: #ece133; stroke: #ece133"/>
     <use xlink:href="#m8dd6e18990" x="452.709836" y="203.930419" style="fill: #ece133; stroke: #ece133"/>
     <use xlink:href="#m8dd6e18990" x="472.769999" y="185.080819" style="fill: #ece133; stroke: #ece133"/>
     <use xlink:href="#m8dd6e18990" x="489.160345" y="177.319219" style="fill: #ece133; stroke: #ece133"/>
     <use xlink:href="#m8dd6e18990" x="503.018185" y="166.231219" style="fill: #ece133; stroke: #ece133"/>
     <use xlink:href="#m8dd6e18990" x="543.650751" y="127.423219" style="fill: #ece133; stroke: #ece133"/>
     <use xlink:href="#m8dd6e18990" x="601.78125" y="97.485619" style="fill: #ece133; stroke: #ece133"/>
    </g>
   </g>
   <g id="line2d_36">
    <path d="M 348.144886 220.562419 
L 364.535233 220.562419 
L 390.39728 213.909619 
L 426.847789 193.951219 
L 452.709836 190.624819 
L 472.769999 171.775219 
L 489.160345 160.687219 
L 503.018185 149.599219 
L 543.650751 120.770419 
L 601.78125 94.159219 
" clip-path="url(#p41d6e73f59)" style="fill: none; stroke: #de8f05; stroke-width: 2; stroke-linecap: square"/>
    <g clip-path="url(#p41d6e73f59)">
     <use xlink:href="#mc735366411" x="348.144886" y="220.562419" style="fill: #de8f05; stroke: #de8f05"/>
     <use xlink:href="#mc735366411" x="364.535233" y="220.562419" style="fill: #de8f05; stroke: #de8f05"/>
     <use xlink:href="#mc735366411" x="390.39728" y="213.909619" style="fill: #de8f05; stroke: #de8f05"/>
     <use xlink:href="#mc735366411" x="426.847789" y="193.951219" style="fill: #de8f05; stroke: #de8f05"/>
     <use xlink:href="#mc735366411" x="452.709836" y="190.624819" style="fill: #de8f05; stroke: #de8f05"/>
     <use xlink:href="#mc735366411" x="472.769999" y="171.775219" style="fill: #de8f05; stroke: #de8f05"/>
     <use xlink:href="#mc735366411" x="489.160345" y="160.687219" style="fill: #de8f05; stroke: #de8f05"/>
     <use xlink:href="#mc735366411" x="503.018185" y="149.599219" style="fill: #de8f05; stroke: #de8f05"/>
     <use xlink:href="#mc735366411" x="543.650751" y="120.770419" style="fill: #de8f05; stroke: #de8f05"/>
     <use xlink:href="#mc735366411" x="601.78125" y="94.159219" style="fill: #de8f05; stroke: #de8f05"/>
    </g>
   </g>
   <g id="line2d_37">
    <path d="M 348.144886 224.997619 
L 364.535233 229.432819 
L 390.39728 210.583219 
L 426.847789 190.624819 
L 452.709836 183.972019 
L 472.769999 168.448819 
L 489.160345 161.796019 
L 503.018185 150.708019 
L 543.650751 111.900019 
L 601.78125 85.288819 
" clip-path="url(#p41d6e73f59)" style="fill: none; stroke-dasharray: 2,3.3; stroke-dashoffset: 0; stroke: #fbafe4; stroke-width: 2"/>
    <g clip-path="url(#p41d6e73f59)">
     <use xlink:href="#m89ac284b99" x="348.144886" y="224.997619" style="fill: #fbafe4; stroke: #fbafe4"/>
     <use xlink:href="#m89ac284b99" x="364.535233" y="229.432819" style="fill: #fbafe4; stroke: #fbafe4"/>
     <use xlink:href="#m89ac284b99" x="390.39728" y="210.583219" style="fill: #fbafe4; stroke: #fbafe4"/>
     <use xlink:href="#m89ac284b99" x="426.847789" y="190.624819" style="fill: #fbafe4; stroke: #fbafe4"/>
     <use xlink:href="#m89ac284b99" x="452.709836" y="183.972019" style="fill: #fbafe4; stroke: #fbafe4"/>
     <use xlink:href="#m89ac284b99" x="472.769999" y="168.448819" style="fill: #fbafe4; stroke: #fbafe4"/>
     <use xlink:href="#m89ac284b99" x="489.160345" y="161.796019" style="fill: #fbafe4; stroke: #fbafe4"/>
     <use xlink:href="#m89ac284b99" x="503.018185" y="150.708019" style="fill: #fbafe4; stroke: #fbafe4"/>
     <use xlink:href="#m89ac284b99" x="543.650751" y="111.900019" style="fill: #fbafe4; stroke: #fbafe4"/>
     <use xlink:href="#m89ac284b99" x="601.78125" y="85.288819" style="fill: #fbafe4; stroke: #fbafe4"/>
    </g>
   </g>
   <g id="line2d_38">
    <path d="M 348.144886 221.671219 
L 364.535233 218.344819 
L 390.39728 207.256819 
L 426.847789 193.951219 
L 452.709836 171.775219 
L 472.769999 161.796019 
L 489.160345 147.381619 
L 503.018185 142.946419 
L 543.650751 115.226419 
L 601.78125 78.636019 
" clip-path="url(#p41d6e73f59)" style="fill: none; stroke: #cc78bc; stroke-width: 2; stroke-linecap: square"/>
    <g clip-path="url(#p41d6e73f59)">
     <use xlink:href="#md17d611b77" x="348.144886" y="221.671219" style="fill: #cc78bc; stroke: #cc78bc"/>
     <use xlink:href="#md17d611b77" x="364.535233" y="218.344819" style="fill: #cc78bc; stroke: #cc78bc"/>
     <use xlink:href="#md17d611b77" x="390.39728" y="207.256819" style="fill: #cc78bc; stroke: #cc78bc"/>
     <use xlink:href="#md17d611b77" x="426.847789" y="193.951219" style="fill: #cc78bc; stroke: #cc78bc"/>
     <use xlink:href="#md17d611b77" x="452.709836" y="171.775219" style="fill: #cc78bc; stroke: #cc78bc"/>
     <use xlink:href="#md17d611b77" x="472.769999" y="161.796019" style="fill: #cc78bc; stroke: #cc78bc"/>
     <use xlink:href="#md17d611b77" x="489.160345" y="147.381619" style="fill: #cc78bc; stroke: #cc78bc"/>
     <use xlink:href="#md17d611b77" x="503.018185" y="142.946419" style="fill: #cc78bc; stroke: #cc78bc"/>
     <use xlink:href="#md17d611b77" x="543.650751" y="115.226419" style="fill: #cc78bc; stroke: #cc78bc"/>
     <use xlink:href="#md17d611b77" x="601.78125" y="78.636019" style="fill: #cc78bc; stroke: #cc78bc"/>
    </g>
   </g>
   <g id="line2d_39">
    <path d="M 348.144886 221.671219 
L 364.535233 215.018419 
L 390.39728 213.909619 
L 426.847789 183.972019 
L 452.709836 173.992819 
L 472.769999 162.904819 
L 489.160345 156.252019 
L 503.018185 149.599219 
L 543.650751 115.226419 
L 601.78125 70.874419 
" clip-path="url(#p41d6e73f59)" style="fill: none; stroke-dasharray: 2,3.3; stroke-dashoffset: 0; stroke: #ca9161; stroke-width: 2"/>
    <g clip-path="url(#p41d6e73f59)">
     <use xlink:href="#mf03a996263" x="348.144886" y="221.671219" style="fill: #ca9161; stroke: #ca9161"/>
     <use xlink:href="#mf03a996263" x="364.535233" y="215.018419" style="fill: #ca9161; stroke: #ca9161"/>
     <use xlink:href="#mf03a996263" x="390.39728" y="213.909619" style="fill: #ca9161; stroke: #ca9161"/>
     <use xlink:href="#mf03a996263" x="426.847789" y="183.972019" style="fill: #ca9161; stroke: #ca9161"/>
     <use xlink:href="#mf03a996263" x="452.709836" y="173.992819" style="fill: #ca9161; stroke: #ca9161"/>
     <use xlink:href="#mf03a996263" x="472.769999" y="162.904819" style="fill: #ca9161; stroke: #ca9161"/>
     <use xlink:href="#mf03a996263" x="489.160345" y="156.252019" style="fill: #ca9161; stroke: #ca9161"/>
     <use xlink:href="#mf03a996263" x="503.018185" y="149.599219" style="fill: #ca9161; stroke: #ca9161"/>
     <use xlink:href="#mf03a996263" x="543.650751" y="115.226419" style="fill: #ca9161; stroke: #ca9161"/>
     <use xlink:href="#mf03a996263" x="601.78125" y="70.874419" style="fill: #ca9161; stroke: #ca9161"/>
    </g>
   </g>
   <g id="line2d_40">
    <path d="M 348.144886 223.888819 
L 364.535233 213.909619 
L 390.39728 207.256819 
L 426.847789 188.407219 
L 452.709836 172.884019 
L 472.769999 159.578419 
L 489.160345 142.946419 
L 503.018185 130.749619 
L 543.650751 111.900019 
L 601.78125 76.418419 
" clip-path="url(#p41d6e73f59)" style="fill: none; stroke: #d55e00; stroke-width: 2; stroke-linecap: square"/>
    <g clip-path="url(#p41d6e73f59)">
     <use xlink:href="#mcdcb529695" x="348.144886" y="223.888819" style="fill: #d55e00; stroke: #d55e00"/>
     <use xlink:href="#mcdcb529695" x="364.535233" y="213.909619" style="fill: #d55e00; stroke: #d55e00"/>
     <use xlink:href="#mcdcb529695" x="390.39728" y="207.256819" style="fill: #d55e00; stroke: #d55e00"/>
     <use xlink:href="#mcdcb529695" x="426.847789" y="188.407219" style="fill: #d55e00; stroke: #d55e00"/>
     <use xlink:href="#mcdcb529695" x="452.709836" y="172.884019" style="fill: #d55e00; stroke: #d55e00"/>
     <use xlink:href="#mcdcb529695" x="472.769999" y="159.578419" style="fill: #d55e00; stroke: #d55e00"/>
     <use xlink:href="#mcdcb529695" x="489.160345" y="142.946419" style="fill: #d55e00; stroke: #d55e00"/>
     <use xlink:href="#mcdcb529695" x="503.018185" y="130.749619" style="fill: #d55e00; stroke: #d55e00"/>
     <use xlink:href="#mcdcb529695" x="543.650751" y="111.900019" style="fill: #d55e00; stroke: #d55e00"/>
     <use xlink:href="#mcdcb529695" x="601.78125" y="76.418419" style="fill: #d55e00; stroke: #d55e00"/>
    </g>
   </g>
   <g id="patch_8">
    <path d="M 348.144886 232.759219 
L 348.144886 10.999219 
" style="fill: none; stroke: #000000; stroke-width: 0.8; stroke-linejoin: miter; stroke-linecap: square"/>
   </g>
   <g id="patch_9">
    <path d="M 601.78125 232.759219 
L 601.78125 10.999219 
" style="fill: none; stroke: #000000; stroke-width: 0.8; stroke-linejoin: miter; stroke-linecap: square"/>
   </g>
   <g id="patch_10">
    <path d="M 348.144886 232.759219 
L 601.78125 232.759219 
" style="fill: none; stroke: #000000; stroke-width: 0.8; stroke-linejoin: miter; stroke-linecap: square"/>
   </g>
   <g id="patch_11">
    <path d="M 348.144886 10.999219 
L 601.78125 10.999219 
" style="fill: none; stroke: #000000; stroke-width: 0.8; stroke-linejoin: miter; stroke-linecap: square"/>
   </g>
   <g id="legend_1">
    <g id="patch_12">
     <path d="M 608.78125 130.880219 
L 732.207812 130.880219 
Q 734.207812 130.880219 734.207812 128.880219 
L 734.207812 12.455219 
Q 734.207812 10.455219 732.207812 10.455219 
L 608.78125 10.455219 
Q 606.78125 10.455219 606.78125 12.455219 
L 606.78125 128.880219 
Q 606.78125 130.880219 608.78125 130.880219 
z
" style="fill: #ffffff; opacity: 0.8; stroke: #cccccc; stroke-linejoin: miter"/>
    </g>
    <g id="line2d_41">
     <path d="M 610.78125 18.553656 
L 620.78125 18.553656 
L 630.78125 18.553656 
" style="fill: none; stroke-dasharray: 12,4; stroke-dashoffset: 0; stroke: #56b4e9; stroke-width: 2"/>
     <g>
      <use xlink:href="#md99d1713fc" x="620.78125" y="18.553656" style="fill: #56b4e9; stroke: #56b4e9"/>
     </g>
    </g>
    <g id="text_29">
     <!-- MLDE boosting -->
     <g transform="translate(638.78125 22.053656) scale(0.1 -0.1)">
      <defs>
       <path id="DejaVuSans-4d" d="M 628 4666 
L 1569 4666 
L 2759 1491 
L 3956 4666 
L 4897 4666 
L 4897 0 
L 4281 0 
L 4281 4097 
L 3078 897 
L 2444 897 
L 1241 4097 
L 1241 0 
L 628 0 
L 628 4666 
z
" transform="scale(0.015625)"/>
       <path id="DejaVuSans-4c" d="M 628 4666 
L 1259 4666 
L 1259 531 
L 3531 531 
L 3531 0 
L 628 0 
L 628 4666 
z
" transform="scale(0.015625)"/>
       <path id="DejaVuSans-44" d="M 1259 4147 
L 1259 519 
L 2022 519 
Q 2988 519 3436 956 
Q 3884 1394 3884 2338 
Q 3884 3275 3436 3711 
Q 2988 4147 2022 4147 
L 1259 4147 
z
M 628 4666 
L 1925 4666 
Q 3281 4666 3915 4102 
Q 4550 3538 4550 2338 
Q 4550 1131 3912 565 
Q 3275 0 1925 0 
L 628 0 
L 628 4666 
z
" transform="scale(0.015625)"/>
       <path id="DejaVuSans-45" d="M 628 4666 
L 3578 4666 
L 3578 4134 
L 1259 4134 
L 1259 2753 
L 3481 2753 
L 3481 2222 
L 1259 2222 
L 1259 531 
L 3634 531 
L 3634 0 
L 628 0 
L 628 4666 
z
" transform="scale(0.015625)"/>
      </defs>
      <use xlink:href="#DejaVuSans-4d"/>
      <use xlink:href="#DejaVuSans-4c" transform="translate(86.279297 0)"/>
      <use xlink:href="#DejaVuSans-44" transform="translate(141.992188 0)"/>
      <use xlink:href="#DejaVuSans-45" transform="translate(218.994141 0)"/>
      <use xlink:href="#DejaVuSans-20" transform="translate(282.177734 0)"/>
      <use xlink:href="#DejaVuSans-62" transform="translate(313.964844 0)"/>
      <use xlink:href="#DejaVuSans-6f" transform="translate(377.441406 0)"/>
      <use xlink:href="#DejaVuSans-6f" transform="translate(438.623047 0)"/>
      <use xlink:href="#DejaVuSans-73" transform="translate(499.804688 0)"/>
      <use xlink:href="#DejaVuSans-74" transform="translate(551.904297 0)"/>
      <use xlink:href="#DejaVuSans-69" transform="translate(591.113281 0)"/>
      <use xlink:href="#DejaVuSans-6e" transform="translate(618.896484 0)"/>
      <use xlink:href="#DejaVuSans-67" transform="translate(682.275391 0)"/>
     </g>
    </g>
    <g id="line2d_42">
     <path d="M 610.78125 33.231781 
L 620.78125 33.231781 
L 630.78125 33.231781 
" style="fill: none; stroke: #0173b2; stroke-width: 2; stroke-linecap: square"/>
     <g>
      <use xlink:href="#m1d4723f8fd" x="620.78125" y="33.231781" style="fill: #0173b2; stroke: #0173b2"/>
     </g>
    </g>
    <g id="text_30">
     <!-- MLDE ridge -->
     <g transform="translate(638.78125 36.731781) scale(0.1 -0.1)">
      <use xlink:href="#DejaVuSans-4d"/>
      <use xlink:href="#DejaVuSans-4c" transform="translate(86.279297 0)"/>
      <use xlink:href="#DejaVuSans-44" transform="translate(141.992188 0)"/>
      <use xlink:href="#DejaVuSans-45" transform="translate(218.994141 0)"/>
      <use xlink:href="#DejaVuSans-20" transform="translate(282.177734 0)"/>
      <use xlink:href="#DejaVuSans-72" transform="translate(313.964844 0)"/>
      <use xlink:href="#DejaVuSans-69" transform="translate(355.078125 0)"/>
      <use xlink:href="#DejaVuSans-64" transform="translate(382.861328 0)"/>
      <use xlink:href="#DejaVuSans-67" transform="translate(446.337891 0)"/>
      <use xlink:href="#DejaVuSans-65" transform="translate(509.814453 0)"/>
     </g>
    </g>
    <g id="line2d_43">
     <path d="M 610.78125 47.909906 
L 620.78125 47.909906 
L 630.78125 47.909906 
" style="fill: none; stroke-dasharray: 2,3.3; stroke-dashoffset: 0; stroke: #ece133; stroke-width: 2"/>
     <g>
      <use xlink:href="#m8dd6e18990" x="620.78125" y="47.909906" style="fill: #ece133; stroke: #ece133"/>
     </g>
    </g>
    <g id="text_31">
     <!-- ALDE boosting -->
     <g transform="translate(638.78125 51.409906) scale(0.1 -0.1)">
      <use xlink:href="#DejaVuSans-41"/>
      <use xlink:href="#DejaVuSans-4c" transform="translate(68.408203 0)"/>
      <use xlink:href="#DejaVuSans-44" transform="translate(124.121094 0)"/>
      <use xlink:href="#DejaVuSans-45" transform="translate(201.123047 0)"/>
      <use xlink:href="#DejaVuSans-20" transform="translate(264.306641 0)"/>
      <use xlink:href="#DejaVuSans-62" transform="translate(296.09375 0)"/>
      <use xlink:href="#DejaVuSans-6f" transform="translate(359.570312 0)"/>
      <use xlink:href="#DejaVuSans-6f" transform="translate(420.751953 0)"/>
      <use xlink:href="#DejaVuSans-73" transform="translate(481.933594 0)"/>
      <use xlink:href="#DejaVuSans-74" transform="translate(534.033203 0)"/>
      <use xlink:href="#DejaVuSans-69" transform="translate(573.242188 0)"/>
      <use xlink:href="#DejaVuSans-6e" transform="translate(601.025391 0)"/>
      <use xlink:href="#DejaVuSans-67" transform="translate(664.404297 0)"/>
     </g>
    </g>
    <g id="line2d_44">
     <path d="M 610.78125 62.588031 
L 620.78125 62.588031 
L 630.78125 62.588031 
" style="fill: none; stroke: #de8f05; stroke-width: 2; stroke-linecap: square"/>
     <g>
      <use xlink:href="#mc735366411" x="620.78125" y="62.588031" style="fill: #de8f05; stroke: #de8f05"/>
     </g>
    </g>
    <g id="text_32">
     <!-- ALDE DNN -->
     <g transform="translate(638.78125 66.088031) scale(0.1 -0.1)">
      <defs>
       <path id="DejaVuSans-4e" d="M 628 4666 
L 1478 4666 
L 3547 763 
L 3547 4666 
L 4159 4666 
L 4159 0 
L 3309 0 
L 1241 3903 
L 1241 0 
L 628 0 
L 628 4666 
z
" transform="scale(0.015625)"/>
      </defs>
      <use xlink:href="#DejaVuSans-41"/>
      <use xlink:href="#DejaVuSans-4c" transform="translate(68.408203 0)"/>
      <use xlink:href="#DejaVuSans-44" transform="translate(124.121094 0)"/>
      <use xlink:href="#DejaVuSans-45" transform="translate(201.123047 0)"/>
      <use xlink:href="#DejaVuSans-20" transform="translate(264.306641 0)"/>
      <use xlink:href="#DejaVuSans-44" transform="translate(296.09375 0)"/>
      <use xlink:href="#DejaVuSans-4e" transform="translate(373.095703 0)"/>
      <use xlink:href="#DejaVuSans-4e" transform="translate(447.900391 0)"/>
     </g>
    </g>
    <g id="line2d_45">
     <path d="M 610.78125 77.266156 
L 620.78125 77.266156 
L 630.78125 77.266156 
" style="fill: none; stroke-dasharray: 2,3.3; stroke-dashoffset: 0; stroke: #fbafe4; stroke-width: 2"/>
     <g>
      <use xlink:href="#m89ac284b99" x="620.78125" y="77.266156" style="fill: #fbafe4; stroke: #fbafe4"/>
     </g>
    </g>
    <g id="text_33">
     <!-- ALDE boosting x 3 -->
     <g transform="translate(638.78125 80.766156) scale(0.1 -0.1)">
      <defs>
       <path id="DejaVuSans-33" d="M 2597 2516 
Q 3050 2419 3304 2112 
Q 3559 1806 3559 1356 
Q 3559 666 3084 287 
Q 2609 -91 1734 -91 
Q 1441 -91 1130 -33 
Q 819 25 488 141 
L 488 750 
Q 750 597 1062 519 
Q 1375 441 1716 441 
Q 2309 441 2620 675 
Q 2931 909 2931 1356 
Q 2931 1769 2642 2001 
Q 2353 2234 1838 2234 
L 1294 2234 
L 1294 2753 
L 1863 2753 
Q 2328 2753 2575 2939 
Q 2822 3125 2822 3475 
Q 2822 3834 2567 4026 
Q 2313 4219 1838 4219 
Q 1578 4219 1281 4162 
Q 984 4106 628 3988 
L 628 4550 
Q 988 4650 1302 4700 
Q 1616 4750 1894 4750 
Q 2613 4750 3031 4423 
Q 3450 4097 3450 3541 
Q 3450 3153 3228 2886 
Q 3006 2619 2597 2516 
z
" transform="scale(0.015625)"/>
      </defs>
      <use xlink:href="#DejaVuSans-41"/>
      <use xlink:href="#DejaVuSans-4c" transform="translate(68.408203 0)"/>
      <use xlink:href="#DejaVuSans-44" transform="translate(124.121094 0)"/>
      <use xlink:href="#DejaVuSans-45" transform="translate(201.123047 0)"/>
      <use xlink:href="#DejaVuSans-20" transform="translate(264.306641 0)"/>
      <use xlink:href="#DejaVuSans-62" transform="translate(296.09375 0)"/>
      <use xlink:href="#DejaVuSans-6f" transform="translate(359.570312 0)"/>
      <use xlink:href="#DejaVuSans-6f" transform="translate(420.751953 0)"/>
      <use xlink:href="#DejaVuSans-73" transform="translate(481.933594 0)"/>
      <use xlink:href="#DejaVuSans-74" transform="translate(534.033203 0)"/>
      <use xlink:href="#DejaVuSans-69" transform="translate(573.242188 0)"/>
      <use xlink:href="#DejaVuSans-6e" transform="translate(601.025391 0)"/>
      <use xlink:href="#DejaVuSans-67" transform="translate(664.404297 0)"/>
      <use xlink:href="#DejaVuSans-20" transform="translate(727.880859 0)"/>
      <use xlink:href="#DejaVuSans-78" transform="translate(759.667969 0)"/>
      <use xlink:href="#DejaVuSans-20" transform="translate(818.847656 0)"/>
      <use xlink:href="#DejaVuSans-33" transform="translate(850.634766 0)"/>
     </g>
    </g>
    <g id="line2d_46">
     <path d="M 610.78125 91.944281 
L 620.78125 91.944281 
L 630.78125 91.944281 
" style="fill: none; stroke: #cc78bc; stroke-width: 2; stroke-linecap: square"/>
     <g>
      <use xlink:href="#md17d611b77" x="620.78125" y="91.944281" style="fill: #cc78bc; stroke: #cc78bc"/>
     </g>
    </g>
    <g id="text_34">
     <!-- ALDE DNN x 3 -->
     <g transform="translate(638.78125 95.444281) scale(0.1 -0.1)">
      <use xlink:href="#DejaVuSans-41"/>
      <use xlink:href="#DejaVuSans-4c" transform="translate(68.408203 0)"/>
      <use xlink:href="#DejaVuSans-44" transform="translate(124.121094 0)"/>
      <use xlink:href="#DejaVuSans-45" transform="translate(201.123047 0)"/>
      <use xlink:href="#DejaVuSans-20" transform="translate(264.306641 0)"/>
      <use xlink:href="#DejaVuSans-44" transform="translate(296.09375 0)"/>
      <use xlink:href="#DejaVuSans-4e" transform="translate(373.095703 0)"/>
      <use xlink:href="#DejaVuSans-4e" transform="translate(447.900391 0)"/>
      <use xlink:href="#DejaVuSans-20" transform="translate(522.705078 0)"/>
      <use xlink:href="#DejaVuSans-78" transform="translate(554.492188 0)"/>
      <use xlink:href="#DejaVuSans-20" transform="translate(613.671875 0)"/>
      <use xlink:href="#DejaVuSans-33" transform="translate(645.458984 0)"/>
     </g>
    </g>
    <g id="line2d_47">
     <path d="M 610.78125 106.622406 
L 620.78125 106.622406 
L 630.78125 106.622406 
" style="fill: none; stroke-dasharray: 2,3.3; stroke-dashoffset: 0; stroke: #ca9161; stroke-width: 2"/>
     <g>
      <use xlink:href="#mf03a996263" x="620.78125" y="106.622406" style="fill: #ca9161; stroke: #ca9161"/>
     </g>
    </g>
    <g id="text_35">
     <!-- ALDE boosting x 4 -->
     <g transform="translate(638.78125 110.122406) scale(0.1 -0.1)">
      <use xlink:href="#DejaVuSans-41"/>
      <use xlink:href="#DejaVuSans-4c" transform="translate(68.408203 0)"/>
      <use xlink:href="#DejaVuSans-44" transform="translate(124.121094 0)"/>
      <use xlink:href="#DejaVuSans-45" transform="translate(201.123047 0)"/>
      <use xlink:href="#DejaVuSans-20" transform="translate(264.306641 0)"/>
      <use xlink:href="#DejaVuSans-62" transform="translate(296.09375 0)"/>
      <use xlink:href="#DejaVuSans-6f" transform="translate(359.570312 0)"/>
      <use xlink:href="#DejaVuSans-6f" transform="translate(420.751953 0)"/>
      <use xlink:href="#DejaVuSans-73" transform="translate(481.933594 0)"/>
      <use xlink:href="#DejaVuSans-74" transform="translate(534.033203 0)"/>
      <use xlink:href="#DejaVuSans-69" transform="translate(573.242188 0)"/>
      <use xlink:href="#DejaVuSans-6e" transform="translate(601.025391 0)"/>
      <use xlink:href="#DejaVuSans-67" transform="translate(664.404297 0)"/>
      <use xlink:href="#DejaVuSans-20" transform="translate(727.880859 0)"/>
      <use xlink:href="#DejaVuSans-78" transform="translate(759.667969 0)"/>
      <use xlink:href="#DejaVuSans-20" transform="translate(818.847656 0)"/>
      <use xlink:href="#DejaVuSans-34" transform="translate(850.634766 0)"/>
     </g>
    </g>
    <g id="line2d_48">
     <path d="M 610.78125 121.300531 
L 620.78125 121.300531 
L 630.78125 121.300531 
" style="fill: none; stroke: #d55e00; stroke-width: 2; stroke-linecap: square"/>
     <g>
      <use xlink:href="#mcdcb529695" x="620.78125" y="121.300531" style="fill: #d55e00; stroke: #d55e00"/>
     </g>
    </g>
    <g id="text_36">
     <!-- ALDE DNN x 4 -->
     <g transform="translate(638.78125 124.800531) scale(0.1 -0.1)">
      <use xlink:href="#DejaVuSans-41"/>
      <use xlink:href="#DejaVuSans-4c" transform="translate(68.408203 0)"/>
      <use xlink:href="#DejaVuSans-44" transform="translate(124.121094 0)"/>
      <use xlink:href="#DejaVuSans-45" transform="translate(201.123047 0)"/>
      <use xlink:href="#DejaVuSans-20" transform="translate(264.306641 0)"/>
      <use xlink:href="#DejaVuSans-44" transform="translate(296.09375 0)"/>
      <use xlink:href="#DejaVuSans-4e" transform="translate(373.095703 0)"/>
      <use xlink:href="#DejaVuSans-4e" transform="translate(447.900391 0)"/>
      <use xlink:href="#DejaVuSans-20" transform="translate(522.705078 0)"/>
      <use xlink:href="#DejaVuSans-78" transform="translate(554.492188 0)"/>
      <use xlink:href="#DejaVuSans-20" transform="translate(613.671875 0)"/>
      <use xlink:href="#DejaVuSans-34" transform="translate(645.458984 0)"/>
     </g>
    </g>
   </g>
  </g>
 </g>
 <defs>
  <clipPath id="pd72e0034d4">
   <rect x="43.78125" y="10.999219" width="253.636364" height="221.76"/>
  </clipPath>
  <clipPath id="p41d6e73f59">
   <rect x="348.144886" y="10.999219" width="253.636364" height="221.76"/>
  </clipPath>
 </defs>
</svg>
